<?xml version="1.0" encoding="UTF-8"?>
        <svg xmlns="http://www.w3.org/2000/svg" xmlns:xlink="http://www.w3.org/1999/xlink"
             width="430" height="430" viewBox="0 -4300 4300 4300">

<defs>

</defs>

<rect fill="#84A1AE" height="70" rx="15" width="70" x="465" y="-535" />
<rect fill="#84A1AE" height="70" rx="15" width="70" x="465" y="-635" />
<rect fill="#84A1AE" height="70" rx="15" width="70" x="465" y="-735" />
<rect fill="#84A1AE" height="70" rx="15" width="70" x="465" y="-835" />
<rect fill="#84A1AE" height="70" rx="15" width="70" x="465" y="-935" />
<rect fill="#84A1AE" height="70" rx="15" width="70" x="465" y="-1035" />
<rect fill="#84A1AE" height="70" rx="15" width="70" x="465" y="-1135" />
<rect fill="#84A1AE" height="70" rx="15" width="70" x="465" y="-1235" />
<rect fill="#84A1AE" height="70" rx="15" width="70" x="465" y="-1335" />
<rect fill="#84A1AE" height="70" rx="15" width="70" x="465" y="-1435" />
<rect fill="#84A1AE" height="70" rx="15" width="70" x="465" y="-1535" />
<rect fill="#84A1AE" height="70" rx="15" width="70" x="465" y="-1635" />
<rect fill="#84A1AE" height="70" rx="15" width="70" x="465" y="-1735" />
<rect fill="#84A1AE" height="70" rx="15" width="70" x="465" y="-1835" />
<rect fill="#84A1AE" height="70" rx="15" width="70" x="465" y="-1935" />
<rect fill="#84A1AE" height="70" rx="15" width="70" x="465" y="-2035" />
<rect fill="#84A1AE" height="70" rx="15" width="70" x="465" y="-2135" />
<rect fill="#84A1AE" height="70" rx="15" width="70" x="465" y="-2235" />
<rect fill="#84A1AE" height="70" rx="15" width="70" x="465" y="-2335" />
<rect fill="#84A1AE" height="70" rx="15" width="70" x="465" y="-2435" />
<rect fill="#84A1AE" height="70" rx="15" width="70" x="465" y="-2535" />
<rect fill="#84A1AE" height="70" rx="15" width="70" x="465" y="-2635" />
<rect fill="#84A1AE" height="70" rx="15" width="70" x="465" y="-2735" />
<rect fill="#84A1AE" height="70" rx="15" width="70" x="465" y="-2835" />
<rect fill="#84A1AE" height="70" rx="15" width="70" x="465" y="-2935" />
<rect fill="#84A1AE" height="70" rx="15" width="70" x="465" y="-3035" />
<rect fill="#84A1AE" height="70" rx="15" width="70" x="465" y="-3135" />
<rect fill="#84A1AE" height="70" rx="15" width="70" x="465" y="-3235" />
<rect fill="#84A1AE" height="70" rx="15" width="70" x="465" y="-3335" />
<rect fill="#84A1AE" height="70" rx="15" width="70" x="465" y="-3435" />
<rect fill="#84A1AE" height="70" rx="15" width="70" x="465" y="-3535" />
<rect fill="#84A1AE" height="70" rx="15" width="70" x="465" y="-3635" />
<rect fill="#84A1AE" height="70" rx="15" width="70" x="465" y="-3735" />
<rect fill="#84A1AE" height="70" rx="15" width="70" x="465" y="-3835" />
<rect fill="#84A1AE" height="70" rx="15" width="70" x="565" y="-535" />
<rect fill="#84A1AE" height="70" rx="15" width="70" x="565" y="-635" />
<rect fill="#84A1AE" height="70" rx="15" width="70" x="565" y="-1235" />
<rect fill="#84A1AE" height="70" rx="15" width="70" x="565" y="-1635" />
<rect fill="#84A1AE" height="70" rx="15" width="70" x="565" y="-1735" />
<rect fill="#84A1AE" height="70" rx="15" width="70" x="565" y="-1835" />
<rect fill="#84A1AE" height="70" rx="15" width="70" x="565" y="-1935" />
<rect fill="#84A1AE" height="70" rx="15" width="70" x="565" y="-2735" />
<rect fill="#84A1AE" height="70" rx="15" width="70" x="565" y="-2935" />
<rect fill="#84A1AE" height="70" rx="15" width="70" x="565" y="-3735" />
<rect fill="#84A1AE" height="70" rx="15" width="70" x="565" y="-3835" />
<rect fill="#84A1AE" height="70" rx="15" width="70" x="665" y="-535" />
<rect fill="#84A1AE" height="70" rx="15" width="70" x="665" y="-835" />
<rect fill="#84A1AE" height="70" rx="15" width="70" x="665" y="-1035" />
<rect fill="#84A1AE" height="70" rx="15" width="70" x="665" y="-1635" />
<rect fill="#84A1AE" height="70" rx="15" width="70" x="665" y="-1735" />
<rect fill="#84A1AE" height="70" rx="15" width="70" x="665" y="-2435" />
<rect fill="#84A1AE" height="70" rx="15" width="70" x="665" y="-2535" />
<rect fill="#84A1AE" height="70" rx="15" width="70" x="665" y="-3035" />
<rect fill="#84A1AE" height="70" rx="15" width="70" x="665" y="-3135" />
<rect fill="#84A1AE" height="70" rx="15" width="70" x="665" y="-3235" />
<rect fill="#84A1AE" height="70" rx="15" width="70" x="665" y="-3835" />
<rect fill="#84A1AE" height="70" rx="15" width="70" x="765" y="-535" />
<rect fill="#84A1AE" height="70" rx="15" width="70" x="765" y="-635" />
<rect fill="#84A1AE" height="70" rx="15" width="70" x="765" y="-1035" />
<rect fill="#84A1AE" height="70" rx="15" width="70" x="765" y="-1135" />
<rect fill="#84A1AE" height="70" rx="15" width="70" x="765" y="-1235" />
<rect fill="#84A1AE" height="70" rx="15" width="70" x="765" y="-1535" />
<rect fill="#84A1AE" height="70" rx="15" width="70" x="765" y="-1935" />
<rect fill="#84A1AE" height="70" rx="15" width="70" x="765" y="-2535" />
<rect fill="#84A1AE" height="70" rx="15" width="70" x="765" y="-2835" />
<rect fill="#84A1AE" height="70" rx="15" width="70" x="765" y="-3735" />
<rect fill="#84A1AE" height="70" rx="15" width="70" x="765" y="-3835" />
<rect fill="#84A1AE" height="70" rx="15" width="70" x="865" y="-535" />
<rect fill="#84A1AE" height="70" rx="15" width="70" x="865" y="-1035" />
<rect fill="#84A1AE" height="70" rx="15" width="70" x="865" y="-1535" />
<rect fill="#84A1AE" height="70" rx="15" width="70" x="865" y="-2335" />
<rect fill="#84A1AE" height="70" rx="15" width="70" x="865" y="-2435" />
<rect fill="#84A1AE" height="70" rx="15" width="70" x="865" y="-2535" />
<rect fill="#84A1AE" height="70" rx="15" width="70" x="865" y="-3335" />
<rect fill="#84A1AE" height="70" rx="15" width="70" x="865" y="-3435" />
<rect fill="#84A1AE" height="70" rx="15" width="70" x="865" y="-3835" />
<rect fill="#84A1AE" height="70" rx="15" width="70" x="965" y="-535" />
<rect fill="#84A1AE" height="70" rx="15" width="70" x="965" y="-735" />
<rect fill="#84A1AE" height="70" rx="15" width="70" x="965" y="-1135" />
<rect fill="#84A1AE" height="70" rx="15" width="70" x="965" y="-1635" />
<rect fill="#84A1AE" height="70" rx="15" width="70" x="965" y="-1835" />
<rect fill="#84A1AE" height="70" rx="15" width="70" x="965" y="-2035" />
<rect fill="#84A1AE" height="70" rx="15" width="70" x="965" y="-2335" />
<rect fill="#84A1AE" height="70" rx="15" width="70" x="965" y="-2635" />
<rect fill="#84A1AE" height="70" rx="15" width="70" x="965" y="-2735" />
<rect fill="#84A1AE" height="70" rx="15" width="70" x="965" y="-2835" />
<rect fill="#84A1AE" height="70" rx="15" width="70" x="965" y="-3435" />
<rect fill="#84A1AE" height="70" rx="15" width="70" x="965" y="-3835" />
<rect fill="#84A1AE" height="70" rx="15" width="70" x="1065" y="-535" />
<rect fill="#84A1AE" height="70" rx="15" width="70" x="1065" y="-835" />
<rect fill="#84A1AE" height="70" rx="15" width="70" x="1065" y="-1135" />
<rect fill="#84A1AE" height="70" rx="15" width="70" x="1065" y="-1335" />
<rect fill="#84A1AE" height="70" rx="15" width="70" x="1065" y="-1735" />
<rect fill="#84A1AE" height="70" rx="15" width="70" x="1065" y="-1835" />
<rect fill="#84A1AE" height="70" rx="15" width="70" x="1065" y="-2135" />
<rect fill="#84A1AE" height="70" rx="15" width="70" x="1065" y="-2535" />
<rect fill="#84A1AE" height="70" rx="15" width="70" x="1065" y="-2635" />
<rect fill="#84A1AE" height="70" rx="15" width="70" x="1065" y="-2935" />
<rect fill="#84A1AE" height="70" rx="15" width="70" x="1065" y="-3135" />
<rect fill="#84A1AE" height="70" rx="15" width="70" x="1065" y="-3735" />
<rect fill="#84A1AE" height="70" rx="15" width="70" x="1065" y="-3835" />
<rect fill="#84A1AE" height="70" rx="15" width="70" x="1165" y="-535" />
<rect fill="#84A1AE" height="70" rx="15" width="70" x="1165" y="-635" />
<rect fill="#84A1AE" height="70" rx="15" width="70" x="1165" y="-735" />
<rect fill="#84A1AE" height="70" rx="15" width="70" x="1165" y="-835" />
<rect fill="#84A1AE" height="70" rx="15" width="70" x="1165" y="-1035" />
<rect fill="#84A1AE" height="70" rx="15" width="70" x="1165" y="-1435" />
<rect fill="#84A1AE" height="70" rx="15" width="70" x="1165" y="-1535" />
<rect fill="#84A1AE" height="70" rx="15" width="70" x="1165" y="-2735" />
<rect fill="#84A1AE" height="70" rx="15" width="70" x="1165" y="-2835" />
<rect fill="#84A1AE" height="70" rx="15" width="70" x="1165" y="-3235" />
<rect fill="#84A1AE" height="70" rx="15" width="70" x="1165" y="-3735" />
<rect fill="#84A1AE" height="70" rx="15" width="70" x="1165" y="-3835" />
<rect fill="#84A1AE" height="70" rx="15" width="70" x="1265" y="-535" />
<rect fill="#84A1AE" height="70" rx="15" width="70" x="1265" y="-1335" />
<rect fill="#84A1AE" height="70" rx="15" width="70" x="1265" y="-1835" />
<rect fill="#84A1AE" height="70" rx="15" width="70" x="1265" y="-2135" />
<rect fill="#84A1AE" height="70" rx="15" width="70" x="1265" y="-2835" />
<rect fill="#84A1AE" height="70" rx="15" width="70" x="1265" y="-3235" />
<rect fill="#84A1AE" height="70" rx="15" width="70" x="1265" y="-3435" />
<rect fill="#84A1AE" height="70" rx="15" width="70" x="1265" y="-3735" />
<rect fill="#84A1AE" height="70" rx="15" width="70" x="1265" y="-3835" />
<rect fill="#84A1AE" height="70" rx="15" width="70" x="1365" y="-535" />
<rect fill="#84A1AE" height="70" rx="15" width="70" x="1365" y="-835" />
<rect fill="#84A1AE" height="70" rx="15" width="70" x="1365" y="-935" />
<rect fill="#84A1AE" height="70" rx="15" width="70" x="1365" y="-1035" />
<rect fill="#84A1AE" height="70" rx="15" width="70" x="1365" y="-1535" />
<rect fill="#84A1AE" height="70" rx="15" width="70" x="1365" y="-1835" />
<rect fill="#84A1AE" height="70" rx="15" width="70" x="1365" y="-1935" />
<rect fill="#84A1AE" height="70" rx="15" width="70" x="1365" y="-2135" />
<rect fill="#84A1AE" height="70" rx="15" width="70" x="1365" y="-2335" />
<rect fill="#84A1AE" height="70" rx="15" width="70" x="1365" y="-2635" />
<rect fill="#84A1AE" height="70" rx="15" width="70" x="1365" y="-2835" />
<rect fill="#84A1AE" height="70" rx="15" width="70" x="1365" y="-2935" />
<rect fill="#84A1AE" height="70" rx="15" width="70" x="1365" y="-3035" />
<rect fill="#84A1AE" height="70" rx="15" width="70" x="1365" y="-3135" />
<rect fill="#84A1AE" height="70" rx="15" width="70" x="1365" y="-3335" />
<rect fill="#84A1AE" height="70" rx="15" width="70" x="1365" y="-3435" />
<rect fill="#84A1AE" height="70" rx="15" width="70" x="1365" y="-3535" />
<rect fill="#84A1AE" height="70" rx="15" width="70" x="1365" y="-3835" />
<rect fill="#84A1AE" height="70" rx="15" width="70" x="1465" y="-535" />
<rect fill="#84A1AE" height="70" rx="15" width="70" x="1465" y="-1135" />
<rect fill="#84A1AE" height="70" rx="15" width="70" x="1465" y="-1235" />
<rect fill="#84A1AE" height="70" rx="15" width="70" x="1465" y="-1535" />
<rect fill="#84A1AE" height="70" rx="15" width="70" x="1465" y="-2035" />
<rect fill="#84A1AE" height="70" rx="15" width="70" x="1465" y="-2435" />
<rect fill="#84A1AE" height="70" rx="15" width="70" x="1465" y="-2835" />
<rect fill="#84A1AE" height="70" rx="15" width="70" x="1465" y="-3135" />
<rect fill="#84A1AE" height="70" rx="15" width="70" x="1465" y="-3235" />
<rect fill="#84A1AE" height="70" rx="15" width="70" x="1465" y="-3435" />
<rect fill="#84A1AE" height="70" rx="15" width="70" x="1465" y="-3635" />
<rect fill="#84A1AE" height="70" rx="15" width="70" x="1465" y="-3835" />
<rect fill="#84A1AE" height="70" rx="15" width="70" x="1565" y="-535" />
<rect fill="#84A1AE" height="70" rx="15" width="70" x="1565" y="-835" />
<rect fill="#84A1AE" height="70" rx="15" width="70" x="1565" y="-1035" />
<rect fill="#84A1AE" height="70" rx="15" width="70" x="1565" y="-1335" />
<rect fill="#84A1AE" height="70" rx="15" width="70" x="1565" y="-1535" />
<rect fill="#84A1AE" height="70" rx="15" width="70" x="1565" y="-2235" />
<rect fill="#84A1AE" height="70" rx="15" width="70" x="1565" y="-2335" />
<rect fill="#84A1AE" height="70" rx="15" width="70" x="1565" y="-2735" />
<rect fill="#84A1AE" height="70" rx="15" width="70" x="1565" y="-2835" />
<rect fill="#84A1AE" height="70" rx="15" width="70" x="1565" y="-3035" />
<rect fill="#84A1AE" height="70" rx="15" width="70" x="1565" y="-3335" />
<rect fill="#84A1AE" height="70" rx="15" width="70" x="1565" y="-3635" />
<rect fill="#84A1AE" height="70" rx="15" width="70" x="1565" y="-3835" />
<rect fill="#84A1AE" height="70" rx="15" width="70" x="1665" y="-535" />
<rect fill="#84A1AE" height="70" rx="15" width="70" x="1665" y="-1035" />
<rect fill="#84A1AE" height="70" rx="15" width="70" x="1665" y="-1335" />
<rect fill="#84A1AE" height="70" rx="15" width="70" x="1665" y="-1735" />
<rect fill="#84A1AE" height="70" rx="15" width="70" x="1665" y="-2435" />
<rect fill="#84A1AE" height="70" rx="15" width="70" x="1665" y="-3035" />
<rect fill="#84A1AE" height="70" rx="15" width="70" x="1665" y="-3735" />
<rect fill="#84A1AE" height="70" rx="15" width="70" x="1665" y="-3835" />
<rect fill="#84A1AE" height="70" rx="15" width="70" x="1765" y="-535" />
<rect fill="#84A1AE" height="70" rx="15" width="70" x="1765" y="-1235" />
<rect fill="#84A1AE" height="70" rx="15" width="70" x="1765" y="-1435" />
<rect fill="#84A1AE" height="70" rx="15" width="70" x="1765" y="-1835" />
<rect fill="#84A1AE" height="70" rx="15" width="70" x="1765" y="-2535" />
<rect fill="#84A1AE" height="70" rx="15" width="70" x="1765" y="-2835" />
<rect fill="#84A1AE" height="70" rx="15" width="70" x="1765" y="-3635" />
<rect fill="#84A1AE" height="70" rx="15" width="70" x="1765" y="-3835" />
<rect fill="#84A1AE" height="70" rx="15" width="70" x="1865" y="-535" />
<rect fill="#84A1AE" height="70" rx="15" width="70" x="1865" y="-735" />
<rect fill="#84A1AE" height="70" rx="15" width="70" x="1865" y="-835" />
<rect fill="#84A1AE" height="70" rx="15" width="70" x="1865" y="-1135" />
<rect fill="#84A1AE" height="70" rx="15" width="70" x="1865" y="-1335" />
<rect fill="#84A1AE" height="70" rx="15" width="70" x="1865" y="-1435" />
<rect fill="#84A1AE" height="70" rx="15" width="70" x="1865" y="-2435" />
<rect fill="#84A1AE" height="70" rx="15" width="70" x="1865" y="-2735" />
<rect fill="#84A1AE" height="70" rx="15" width="70" x="1865" y="-3035" />
<rect fill="#84A1AE" height="70" rx="15" width="70" x="1865" y="-3235" />
<rect fill="#84A1AE" height="70" rx="15" width="70" x="1865" y="-3435" />
<rect fill="#84A1AE" height="70" rx="15" width="70" x="1865" y="-3635" />
<rect fill="#84A1AE" height="70" rx="15" width="70" x="1865" y="-3735" />
<rect fill="#84A1AE" height="70" rx="15" width="70" x="1865" y="-3835" />
<rect fill="#84A1AE" height="70" rx="15" width="70" x="1965" y="-535" />
<rect fill="#84A1AE" height="70" rx="15" width="70" x="1965" y="-635" />
<rect fill="#84A1AE" height="70" rx="15" width="70" x="1965" y="-935" />
<rect fill="#84A1AE" height="70" rx="15" width="70" x="1965" y="-1735" />
<rect fill="#84A1AE" height="70" rx="15" width="70" x="1965" y="-1835" />
<rect fill="#84A1AE" height="70" rx="15" width="70" x="1965" y="-1935" />
<rect fill="#84A1AE" height="70" rx="15" width="70" x="1965" y="-2135" />
<rect fill="#84A1AE" height="70" rx="15" width="70" x="1965" y="-2235" />
<rect fill="#84A1AE" height="70" rx="15" width="70" x="1965" y="-2335" />
<rect fill="#84A1AE" height="70" rx="15" width="70" x="1965" y="-2435" />
<rect fill="#84A1AE" height="70" rx="15" width="70" x="1965" y="-2635" />
<rect fill="#84A1AE" height="70" rx="15" width="70" x="1965" y="-3335" />
<rect fill="#84A1AE" height="70" rx="15" width="70" x="1965" y="-3835" />
<rect fill="#84A1AE" height="70" rx="15" width="70" x="2065" y="-535" />
<rect fill="#84A1AE" height="70" rx="15" width="70" x="2065" y="-935" />
<rect fill="#84A1AE" height="70" rx="15" width="70" x="2065" y="-1235" />
<rect fill="#84A1AE" height="70" rx="15" width="70" x="2065" y="-1535" />
<rect fill="#84A1AE" height="70" rx="15" width="70" x="2065" y="-1635" />
<rect fill="#84A1AE" height="70" rx="15" width="70" x="2065" y="-2135" />
<rect fill="#84A1AE" height="70" rx="15" width="70" x="2065" y="-2435" />
<rect fill="#84A1AE" height="70" rx="15" width="70" x="2065" y="-3535" />
<rect fill="#84A1AE" height="70" rx="15" width="70" x="2065" y="-3835" />
<rect fill="#84A1AE" height="70" rx="15" width="70" x="2165" y="-535" />
<rect fill="#84A1AE" height="70" rx="15" width="70" x="2165" y="-635" />
<rect fill="#84A1AE" height="70" rx="15" width="70" x="2165" y="-935" />
<rect fill="#84A1AE" height="70" rx="15" width="70" x="2165" y="-1235" />
<rect fill="#84A1AE" height="70" rx="15" width="70" x="2165" y="-1335" />
<rect fill="#84A1AE" height="70" rx="15" width="70" x="2165" y="-1635" />
<rect fill="#84A1AE" height="70" rx="15" width="70" x="2165" y="-1735" />
<rect fill="#84A1AE" height="70" rx="15" width="70" x="2165" y="-1835" />
<rect fill="#84A1AE" height="70" rx="15" width="70" x="2165" y="-2135" />
<rect fill="#84A1AE" height="70" rx="15" width="70" x="2165" y="-2835" />
<rect fill="#84A1AE" height="70" rx="15" width="70" x="2165" y="-3035" />
<rect fill="#84A1AE" height="70" rx="15" width="70" x="2165" y="-3835" />
<rect fill="#84A1AE" height="70" rx="15" width="70" x="2265" y="-535" />
<rect fill="#84A1AE" height="70" rx="15" width="70" x="2265" y="-935" />
<rect fill="#84A1AE" height="70" rx="15" width="70" x="2265" y="-1135" />
<rect fill="#84A1AE" height="70" rx="15" width="70" x="2265" y="-2435" />
<rect fill="#84A1AE" height="70" rx="15" width="70" x="2265" y="-2535" />
<rect fill="#84A1AE" height="70" rx="15" width="70" x="2265" y="-2635" />
<rect fill="#84A1AE" height="70" rx="15" width="70" x="2265" y="-2735" />
<rect fill="#84A1AE" height="70" rx="15" width="70" x="2265" y="-3035" />
<rect fill="#84A1AE" height="70" rx="15" width="70" x="2265" y="-3235" />
<rect fill="#84A1AE" height="70" rx="15" width="70" x="2265" y="-3835" />
<rect fill="#84A1AE" height="70" rx="15" width="70" x="2365" y="-535" />
<rect fill="#84A1AE" height="70" rx="15" width="70" x="2365" y="-835" />
<rect fill="#84A1AE" height="70" rx="15" width="70" x="2365" y="-935" />
<rect fill="#84A1AE" height="70" rx="15" width="70" x="2365" y="-1035" />
<rect fill="#84A1AE" height="70" rx="15" width="70" x="2365" y="-1335" />
<rect fill="#84A1AE" height="70" rx="15" width="70" x="2365" y="-1835" />
<rect fill="#84A1AE" height="70" rx="15" width="70" x="2365" y="-2035" />
<rect fill="#84A1AE" height="70" rx="15" width="70" x="2365" y="-2535" />
<rect fill="#84A1AE" height="70" rx="15" width="70" x="2365" y="-2635" />
<rect fill="#84A1AE" height="70" rx="15" width="70" x="2365" y="-3235" />
<rect fill="#84A1AE" height="70" rx="15" width="70" x="2365" y="-3535" />
<rect fill="#84A1AE" height="70" rx="15" width="70" x="2365" y="-3735" />
<rect fill="#84A1AE" height="70" rx="15" width="70" x="2365" y="-3835" />
<rect fill="#84A1AE" height="70" rx="15" width="70" x="2465" y="-535" />
<rect fill="#84A1AE" height="70" rx="15" width="70" x="2465" y="-835" />
<rect fill="#84A1AE" height="70" rx="15" width="70" x="2465" y="-935" />
<rect fill="#84A1AE" height="70" rx="15" width="70" x="2465" y="-1535" />
<rect fill="#84A1AE" height="70" rx="15" width="70" x="2465" y="-1635" />
<rect fill="#84A1AE" height="70" rx="15" width="70" x="2465" y="-2135" />
<rect fill="#84A1AE" height="70" rx="15" width="70" x="2465" y="-2335" />
<rect fill="#84A1AE" height="70" rx="15" width="70" x="2465" y="-2735" />
<rect fill="#84A1AE" height="70" rx="15" width="70" x="2465" y="-3235" />
<rect fill="#84A1AE" height="70" rx="15" width="70" x="2465" y="-3435" />
<rect fill="#84A1AE" height="70" rx="15" width="70" x="2465" y="-3835" />
<rect fill="#84A1AE" height="70" rx="15" width="70" x="2565" y="-535" />
<rect fill="#84A1AE" height="70" rx="15" width="70" x="2565" y="-735" />
<rect fill="#84A1AE" height="70" rx="15" width="70" x="2565" y="-835" />
<rect fill="#84A1AE" height="70" rx="15" width="70" x="2565" y="-1135" />
<rect fill="#84A1AE" height="70" rx="15" width="70" x="2565" y="-1335" />
<rect fill="#84A1AE" height="70" rx="15" width="70" x="2565" y="-1935" />
<rect fill="#84A1AE" height="70" rx="15" width="70" x="2565" y="-2235" />
<rect fill="#84A1AE" height="70" rx="15" width="70" x="2565" y="-2535" />
<rect fill="#84A1AE" height="70" rx="15" width="70" x="2565" y="-3235" />
<rect fill="#84A1AE" height="70" rx="15" width="70" x="2565" y="-3435" />
<rect fill="#84A1AE" height="70" rx="15" width="70" x="2565" y="-3635" />
<rect fill="#84A1AE" height="70" rx="15" width="70" x="2565" y="-3735" />
<rect fill="#84A1AE" height="70" rx="15" width="70" x="2565" y="-3835" />
<rect fill="#84A1AE" height="70" rx="15" width="70" x="2665" y="-535" />
<rect fill="#84A1AE" height="70" rx="15" width="70" x="2665" y="-635" />
<rect fill="#84A1AE" height="70" rx="15" width="70" x="2665" y="-735" />
<rect fill="#84A1AE" height="70" rx="15" width="70" x="2665" y="-1135" />
<rect fill="#84A1AE" height="70" rx="15" width="70" x="2665" y="-1435" />
<rect fill="#84A1AE" height="70" rx="15" width="70" x="2665" y="-1735" />
<rect fill="#84A1AE" height="70" rx="15" width="70" x="2665" y="-1835" />
<rect fill="#84A1AE" height="70" rx="15" width="70" x="2665" y="-2235" />
<rect fill="#84A1AE" height="70" rx="15" width="70" x="2665" y="-2535" />
<rect fill="#84A1AE" height="70" rx="15" width="70" x="2665" y="-2735" />
<rect fill="#84A1AE" height="70" rx="15" width="70" x="2665" y="-3035" />
<rect fill="#84A1AE" height="70" rx="15" width="70" x="2665" y="-3135" />
<rect fill="#84A1AE" height="70" rx="15" width="70" x="2665" y="-3235" />
<rect fill="#84A1AE" height="70" rx="15" width="70" x="2665" y="-3435" />
<rect fill="#84A1AE" height="70" rx="15" width="70" x="2665" y="-3835" />
<rect fill="#84A1AE" height="70" rx="15" width="70" x="2765" y="-535" />
<rect fill="#84A1AE" height="70" rx="15" width="70" x="2765" y="-735" />
<rect fill="#84A1AE" height="70" rx="15" width="70" x="2765" y="-1635" />
<rect fill="#84A1AE" height="70" rx="15" width="70" x="2765" y="-1835" />
<rect fill="#84A1AE" height="70" rx="15" width="70" x="2765" y="-1935" />
<rect fill="#84A1AE" height="70" rx="15" width="70" x="2765" y="-2035" />
<rect fill="#84A1AE" height="70" rx="15" width="70" x="2765" y="-2235" />
<rect fill="#84A1AE" height="70" rx="15" width="70" x="2765" y="-2435" />
<rect fill="#84A1AE" height="70" rx="15" width="70" x="2765" y="-2735" />
<rect fill="#84A1AE" height="70" rx="15" width="70" x="2765" y="-2935" />
<rect fill="#84A1AE" height="70" rx="15" width="70" x="2765" y="-3135" />
<rect fill="#84A1AE" height="70" rx="15" width="70" x="2765" y="-3335" />
<rect fill="#84A1AE" height="70" rx="15" width="70" x="2765" y="-3535" />
<rect fill="#84A1AE" height="70" rx="15" width="70" x="2765" y="-3635" />
<rect fill="#84A1AE" height="70" rx="15" width="70" x="2765" y="-3735" />
<rect fill="#84A1AE" height="70" rx="15" width="70" x="2765" y="-3835" />
<rect fill="#84A1AE" height="70" rx="15" width="70" x="2865" y="-535" />
<rect fill="#84A1AE" height="70" rx="15" width="70" x="2865" y="-1835" />
<rect fill="#84A1AE" height="70" rx="15" width="70" x="2865" y="-2535" />
<rect fill="#84A1AE" height="70" rx="15" width="70" x="2865" y="-2935" />
<rect fill="#84A1AE" height="70" rx="15" width="70" x="2865" y="-3135" />
<rect fill="#84A1AE" height="70" rx="15" width="70" x="2865" y="-3335" />
<rect fill="#84A1AE" height="70" rx="15" width="70" x="2865" y="-3635" />
<rect fill="#84A1AE" height="70" rx="15" width="70" x="2865" y="-3735" />
<rect fill="#84A1AE" height="70" rx="15" width="70" x="2865" y="-3835" />
<rect fill="#84A1AE" height="70" rx="15" width="70" x="2965" y="-535" />
<rect fill="#84A1AE" height="70" rx="15" width="70" x="2965" y="-1135" />
<rect fill="#84A1AE" height="70" rx="15" width="70" x="2965" y="-1235" />
<rect fill="#84A1AE" height="70" rx="15" width="70" x="2965" y="-1435" />
<rect fill="#84A1AE" height="70" rx="15" width="70" x="2965" y="-1635" />
<rect fill="#84A1AE" height="70" rx="15" width="70" x="2965" y="-2435" />
<rect fill="#84A1AE" height="70" rx="15" width="70" x="2965" y="-2635" />
<rect fill="#84A1AE" height="70" rx="15" width="70" x="2965" y="-2735" />
<rect fill="#84A1AE" height="70" rx="15" width="70" x="2965" y="-3235" />
<rect fill="#84A1AE" height="70" rx="15" width="70" x="2965" y="-3735" />
<rect fill="#84A1AE" height="70" rx="15" width="70" x="2965" y="-3835" />
<rect fill="#84A1AE" height="70" rx="15" width="70" x="3065" y="-535" />
<rect fill="#84A1AE" height="70" rx="15" width="70" x="3065" y="-635" />
<rect fill="#84A1AE" height="70" rx="15" width="70" x="3065" y="-735" />
<rect fill="#84A1AE" height="70" rx="15" width="70" x="3065" y="-935" />
<rect fill="#84A1AE" height="70" rx="15" width="70" x="3065" y="-1135" />
<rect fill="#84A1AE" height="70" rx="15" width="70" x="3065" y="-1735" />
<rect fill="#84A1AE" height="70" rx="15" width="70" x="3065" y="-1935" />
<rect fill="#84A1AE" height="70" rx="15" width="70" x="3065" y="-2235" />
<rect fill="#84A1AE" height="70" rx="15" width="70" x="3065" y="-2535" />
<rect fill="#84A1AE" height="70" rx="15" width="70" x="3065" y="-2735" />
<rect fill="#84A1AE" height="70" rx="15" width="70" x="3065" y="-3835" />
<rect fill="#84A1AE" height="70" rx="15" width="70" x="3165" y="-535" />
<rect fill="#84A1AE" height="70" rx="15" width="70" x="3165" y="-835" />
<rect fill="#84A1AE" height="70" rx="15" width="70" x="3165" y="-1735" />
<rect fill="#84A1AE" height="70" rx="15" width="70" x="3165" y="-1935" />
<rect fill="#84A1AE" height="70" rx="15" width="70" x="3165" y="-2435" />
<rect fill="#84A1AE" height="70" rx="15" width="70" x="3165" y="-2735" />
<rect fill="#84A1AE" height="70" rx="15" width="70" x="3165" y="-3135" />
<rect fill="#84A1AE" height="70" rx="15" width="70" x="3165" y="-3835" />
<rect fill="#84A1AE" height="70" rx="15" width="70" x="3265" y="-535" />
<rect fill="#84A1AE" height="70" rx="15" width="70" x="3265" y="-835" />
<rect fill="#84A1AE" height="70" rx="15" width="70" x="3265" y="-1035" />
<rect fill="#84A1AE" height="70" rx="15" width="70" x="3265" y="-1735" />
<rect fill="#84A1AE" height="70" rx="15" width="70" x="3265" y="-1935" />
<rect fill="#84A1AE" height="70" rx="15" width="70" x="3265" y="-2035" />
<rect fill="#84A1AE" height="70" rx="15" width="70" x="3265" y="-2135" />
<rect fill="#84A1AE" height="70" rx="15" width="70" x="3265" y="-2235" />
<rect fill="#84A1AE" height="70" rx="15" width="70" x="3265" y="-2635" />
<rect fill="#84A1AE" height="70" rx="15" width="70" x="3265" y="-3035" />
<rect fill="#84A1AE" height="70" rx="15" width="70" x="3265" y="-3835" />
<rect fill="#84A1AE" height="70" rx="15" width="70" x="3365" y="-535" />
<rect fill="#84A1AE" height="70" rx="15" width="70" x="3365" y="-635" />
<rect fill="#84A1AE" height="70" rx="15" width="70" x="3365" y="-835" />
<rect fill="#84A1AE" height="70" rx="15" width="70" x="3365" y="-1135" />
<rect fill="#84A1AE" height="70" rx="15" width="70" x="3365" y="-1235" />
<rect fill="#84A1AE" height="70" rx="15" width="70" x="3365" y="-1435" />
<rect fill="#84A1AE" height="70" rx="15" width="70" x="3365" y="-1935" />
<rect fill="#84A1AE" height="70" rx="15" width="70" x="3365" y="-2135" />
<rect fill="#84A1AE" height="70" rx="15" width="70" x="3365" y="-3235" />
<rect fill="#84A1AE" height="70" rx="15" width="70" x="3365" y="-3835" />
<rect fill="#84A1AE" height="70" rx="15" width="70" x="3465" y="-535" />
<rect fill="#84A1AE" height="70" rx="15" width="70" x="3465" y="-635" />
<rect fill="#84A1AE" height="70" rx="15" width="70" x="3465" y="-735" />
<rect fill="#84A1AE" height="70" rx="15" width="70" x="3465" y="-1135" />
<rect fill="#84A1AE" height="70" rx="15" width="70" x="3465" y="-1835" />
<rect fill="#84A1AE" height="70" rx="15" width="70" x="3465" y="-1935" />
<rect fill="#84A1AE" height="70" rx="15" width="70" x="3465" y="-2035" />
<rect fill="#84A1AE" height="70" rx="15" width="70" x="3465" y="-2435" />
<rect fill="#84A1AE" height="70" rx="15" width="70" x="3465" y="-2535" />
<rect fill="#84A1AE" height="70" rx="15" width="70" x="3465" y="-2635" />
<rect fill="#84A1AE" height="70" rx="15" width="70" x="3465" y="-3835" />
<rect fill="#84A1AE" height="70" rx="15" width="70" x="3565" y="-535" />
<rect fill="#84A1AE" height="70" rx="15" width="70" x="3565" y="-635" />
<rect fill="#84A1AE" height="70" rx="15" width="70" x="3565" y="-1035" />
<rect fill="#84A1AE" height="70" rx="15" width="70" x="3565" y="-1135" />
<rect fill="#84A1AE" height="70" rx="15" width="70" x="3565" y="-1335" />
<rect fill="#84A1AE" height="70" rx="15" width="70" x="3565" y="-1835" />
<rect fill="#84A1AE" height="70" rx="15" width="70" x="3565" y="-1935" />
<rect fill="#84A1AE" height="70" rx="15" width="70" x="3565" y="-2035" />
<rect fill="#84A1AE" height="70" rx="15" width="70" x="3565" y="-2135" />
<rect fill="#84A1AE" height="70" rx="15" width="70" x="3565" y="-2435" />
<rect fill="#84A1AE" height="70" rx="15" width="70" x="3565" y="-2635" />
<rect fill="#84A1AE" height="70" rx="15" width="70" x="3565" y="-3235" />
<rect fill="#84A1AE" height="70" rx="15" width="70" x="3565" y="-3335" />
<rect fill="#84A1AE" height="70" rx="15" width="70" x="3565" y="-3735" />
<rect fill="#84A1AE" height="70" rx="15" width="70" x="3565" y="-3835" />
<rect fill="#84A1AE" height="70" rx="15" width="70" x="3665" y="-535" />
<rect fill="#84A1AE" height="70" rx="15" width="70" x="3665" y="-735" />
<rect fill="#84A1AE" height="70" rx="15" width="70" x="3665" y="-935" />
<rect fill="#84A1AE" height="70" rx="15" width="70" x="3665" y="-1035" />
<rect fill="#84A1AE" height="70" rx="15" width="70" x="3665" y="-1335" />
<rect fill="#84A1AE" height="70" rx="15" width="70" x="3665" y="-1635" />
<rect fill="#84A1AE" height="70" rx="15" width="70" x="3665" y="-1835" />
<rect fill="#84A1AE" height="70" rx="15" width="70" x="3665" y="-2135" />
<rect fill="#84A1AE" height="70" rx="15" width="70" x="3665" y="-2235" />
<rect fill="#84A1AE" height="70" rx="15" width="70" x="3665" y="-2835" />
<rect fill="#84A1AE" height="70" rx="15" width="70" x="3665" y="-3035" />
<rect fill="#84A1AE" height="70" rx="15" width="70" x="3665" y="-3135" />
<rect fill="#84A1AE" height="70" rx="15" width="70" x="3665" y="-3335" />
<rect fill="#84A1AE" height="70" rx="15" width="70" x="3665" y="-3635" />
<rect fill="#84A1AE" height="70" rx="15" width="70" x="3665" y="-3735" />
<rect fill="#84A1AE" height="70" rx="15" width="70" x="3665" y="-3835" />
<rect fill="#84A1AE" height="70" rx="15" width="70" x="3765" y="-535" />
<rect fill="#84A1AE" height="70" rx="15" width="70" x="3765" y="-635" />
<rect fill="#84A1AE" height="70" rx="15" width="70" x="3765" y="-735" />
<rect fill="#84A1AE" height="70" rx="15" width="70" x="3765" y="-835" />
<rect fill="#84A1AE" height="70" rx="15" width="70" x="3765" y="-935" />
<rect fill="#84A1AE" height="70" rx="15" width="70" x="3765" y="-1035" />
<rect fill="#84A1AE" height="70" rx="15" width="70" x="3765" y="-1135" />
<rect fill="#84A1AE" height="70" rx="15" width="70" x="3765" y="-1235" />
<rect fill="#84A1AE" height="70" rx="15" width="70" x="3765" y="-1335" />
<rect fill="#84A1AE" height="70" rx="15" width="70" x="3765" y="-1435" />
<rect fill="#84A1AE" height="70" rx="15" width="70" x="3765" y="-1535" />
<rect fill="#84A1AE" height="70" rx="15" width="70" x="3765" y="-1635" />
<rect fill="#84A1AE" height="70" rx="15" width="70" x="3765" y="-1735" />
<rect fill="#84A1AE" height="70" rx="15" width="70" x="3765" y="-1835" />
<rect fill="#84A1AE" height="70" rx="15" width="70" x="3765" y="-1935" />
<rect fill="#84A1AE" height="70" rx="15" width="70" x="3765" y="-2035" />
<rect fill="#84A1AE" height="70" rx="15" width="70" x="3765" y="-2135" />
<rect fill="#84A1AE" height="70" rx="15" width="70" x="3765" y="-2235" />
<rect fill="#84A1AE" height="70" rx="15" width="70" x="3765" y="-2335" />
<rect fill="#84A1AE" height="70" rx="15" width="70" x="3765" y="-2435" />
<rect fill="#84A1AE" height="70" rx="15" width="70" x="3765" y="-2535" />
<rect fill="#84A1AE" height="70" rx="15" width="70" x="3765" y="-2635" />
<rect fill="#84A1AE" height="70" rx="15" width="70" x="3765" y="-2735" />
<rect fill="#84A1AE" height="70" rx="15" width="70" x="3765" y="-2835" />
<rect fill="#84A1AE" height="70" rx="15" width="70" x="3765" y="-2935" />
<rect fill="#84A1AE" height="70" rx="15" width="70" x="3765" y="-3035" />
<rect fill="#84A1AE" height="70" rx="15" width="70" x="3765" y="-3135" />
<rect fill="#84A1AE" height="70" rx="15" width="70" x="3765" y="-3235" />
<rect fill="#84A1AE" height="70" rx="15" width="70" x="3765" y="-3335" />
<rect fill="#84A1AE" height="70" rx="15" width="70" x="3765" y="-3435" />
<rect fill="#84A1AE" height="70" rx="15" width="70" x="3765" y="-3535" />
<rect fill="#84A1AE" height="70" rx="15" width="70" x="3765" y="-3635" />
<rect fill="#84A1AE" height="70" rx="15" width="70" x="3765" y="-3735" />
<rect fill="#84A1AE" height="70" rx="15" width="70" x="3765" y="-3835" />
<circle cx="800" cy="-700" fill="#c1433c" r="35"> <animate attributeName="cy" dur="28.28s" keyTimes="0.0;0.0098039216;0.0392156863;0.0490196078;0.0588235294;0.068627451;0.0784313725;0.0980392157;0.1078431373;0.137254902;0.1470588235;0.1862745098;0.1960784314;0.2941176471;0.3039215686;0.3235294118;0.3333333333;0.3431372549;0.362745098;0.3725490196;0.3921568627;0.4019607843;0.4411764706;0.4509803922;0.4901960784;0.5;0.5294117647;0.5392156863;0.5490196078;0.5588235294;0.6078431373;0.6176470588;0.7058823529;0.7156862745;0.7352941176;0.7450980392;0.7647058824;0.7745098039;0.7843137255;0.7941176471;0.8039215686;0.8137254902;0.8235294118;0.862745098;0.8725490196;0.8823529412;0.9019607843;0.9117647059;0.9215686275;0.931372549;0.9411764706;0.9607843137;0.9705882353;0.9803921569;1.0" repeatCount="indefinite" values="-700;-700;-700;-800;-800;-700;-800;-800;-900;-900;-800;-800;-900;-900;-800;-800;-900;-800;-800;-900;-900;-1000;-1000;-900;-900;-800;-800;-900;-900;-800;-800;-900;-900;-800;-800;-700;-700;-600;-700;-800;-800;-700;-600;-600;-700;-800;-800;-700;-600;-600;-700;-700;-600;-700;-700"/>
<animate attributeName="cx" dur="28.28s" keyTimes="0.0;0.0098039216;0.0490196078;0.0588235294;0.0784313725;0.0882352941;0.1176470588;0.1274509804;0.137254902;0.2058823529;0.2156862745;0.2647058824;0.2745098039;0.2843137255;0.2941176471;0.3137254902;0.3235294118;0.3431372549;0.3529411765;0.4509803922;0.4607843137;0.4705882353;0.4803921569;0.4901960784;0.5392156863;0.5490196078;0.5588235294;0.568627451;0.5784313725;0.5882352941;0.5980392157;0.6078431373;0.6274509804;0.637254902;0.6666666667;0.6764705882;0.6862745098;0.6960784314;0.7058823529;0.7254901961;0.7352941176;0.7450980392;0.7549019608;0.7647058824;0.8823529412;0.8921568627;0.9019607843;0.9803921569;0.9901960784;1.0" repeatCount="indefinite" values="800;800;800;900;900;800;800;700;600;600;700;700;600;700;800;800;900;900;1000;1000;1100;1000;900;1000;1000;900;900;1000;900;1000;900;1000;1000;1100;1100;1000;900;900;1000;1000;900;900;800;900;900;800;900;900;800;800"/>
<animate attributeName="visibility" dur="28.28s" keyTimes="0.0;0.0098039216;1.0" repeatCount="indefinite" values="visible;visible;visible"/> </circle>
<circle cx="3100" cy="-1200" fill="#2e6f9e" r="35"> <animate attributeName="cy" dur="28.28s" keyTimes="0.0;0.0098039216;0.0196078431;0.0392156863;0.0490196078;0.0588235294;0.068627451;0.0784313725;0.0882352941;0.0980392157;0.1078431373;0.1176470588;0.1274509804;0.137254902;0.1470588235;0.1568627451;0.1666666667;0.1764705882;0.1862745098;0.1960784314;0.2058823529;0.2254901961;0.2352941176;0.2450980392;0.2549019608;0.2647058824;0.2745098039;0.2941176471;0.3039215686;0.3137254902;0.3235294118;0.3333333333;0.3431372549;0.3529411765;0.362745098;0.3725490196;0.3823529412;0.3921568627;0.4019607843;0.4117647059;0.4215686275;0.4411764706;0.4509803922;0.4607843137;0.4803921569;0.4901960784;0.5;0.5098039216;0.5196078431;0.5294117647;0.5392156863;0.5784313725;0.5882352941;0.5980392157;0.6078431373;0.6176470588;0.6274509804;0.637254902;0.6470588235;0.6568627451;0.6666666667;0.6764705882;0.6862745098;0.6960784314;0.7058823529;0.7352941176;0.7450980392;0.7549019608;0.7647058824;0.7745098039;0.7843137255;0.8137254902;0.8235294118;0.8333333333;0.8431372549;0.8529411765;0.862745098;0.8725490196;0.8823529412;0.8921568627;0.9019607843;0.9117647059;0.9411764706;0.9509803922;0.9607843137;0.9705882353;0.9803921569;0.9901960784;1.0" repeatCount="indefinite" values="-1200;-1200;-1300;-1300;-1200;-1100;-1000;-900;-800;-700;-600;-700;-800;-900;-1000;-1100;-1200;-1300;-1400;-1400;-1500;-1500;-1600;-1700;-1700;-1800;-1900;-1900;-2000;-2100;-2200;-2300;-2300;-2400;-2400;-2500;-2600;-2500;-2400;-2400;-2300;-2300;-2400;-2500;-2500;-2400;-2300;-2300;-2200;-2100;-2000;-2000;-2100;-2100;-2200;-2200;-2300;-2200;-2100;-2100;-2000;-1900;-1900;-1800;-1700;-1700;-1600;-1600;-1500;-1500;-1400;-1400;-1300;-1200;-1100;-1100;-1000;-1100;-1100;-1200;-1300;-1400;-1400;-1500;-1500;-1600;-1600;-1700;-1700"/>
<animate attributeName="cx" dur="28.28s" keyTimes="0.0;0.0098039216;0.0196078431;0.0294117647;0.0392156863;0.1862745098;0.1960784314;0.2058823529;0.2156862745;0.2254901961;0.2450980392;0.2549019608;0.2745098039;0.2843137255;0.2941176471;0.3333333333;0.3431372549;0.3529411765;0.362745098;0.4019607843;0.4117647059;0.4215686275;0.431372549;0.4411764706;0.4607843137;0.4705882353;0.4803921569;0.5;0.5098039216;0.5392156863;0.5490196078;0.5588235294;0.568627451;0.5784313725;0.5882352941;0.5980392157;0.6078431373;0.6176470588;0.6470588235;0.6568627451;0.6764705882;0.6862745098;0.7058823529;0.7156862745;0.7254901961;0.7352941176;0.7450980392;0.7549019608;0.7647058824;0.7745098039;0.7843137255;0.7941176471;0.8039215686;0.8137254902;0.8431372549;0.8529411765;0.8725490196;0.8823529412;0.9117647059;0.9215686275;0.931372549;0.9411764706;0.9509803922;0.9607843137;0.9705882353;0.9803921569;1.0" repeatCount="indefinite" values="3100;3100;3100;3000;2900;2900;2800;2800;2700;2600;2600;2500;2500;2400;2300;2300;2400;2400;2500;2500;2400;2400;2300;2200;2200;2100;2200;2200;2300;2300;2200;2100;2000;1900;1900;1800;1800;1700;1700;1600;1600;1500;1500;1400;1300;1200;1200;1100;1100;1000;1000;900;800;700;700;600;600;700;700;800;900;1000;1000;1100;1100;1200;1200"/>
<animate attributeName="visibility" dur="28.28s" keyTimes="0.0;0.0098039216;1.0" repeatCount="indefinite" values="visible;visible;visible"/> </circle>
<circle cx="3400" cy="-1300" fill="none" r="35" stroke="#c1433c" stroke-width="10"> <animate attributeName="cy" dur="28.28s" keyTimes="0.0;0.0098039216;1.0" repeatCount="indefinite" values="-1300;-1300;-1300"/>
<animate attributeName="cx" dur="28.28s" keyTimes="0.0;0.0098039216;1.0" repeatCount="indefinite" values="3400;3400;3400"/>
<animate attributeName="visibility" dur="28.28s" keyTimes="0.0;0.0098039216;1.0" repeatCount="indefinite" values="visible;visible;visible"/> </circle>
<circle cx="2900" cy="-600" fill="none" r="35" stroke="#2e6f9e" stroke-width="10"> <animate attributeName="cy" dur="28.28s" keyTimes="0.0;0.0098039216;0.0980392157;0.1078431373;0.3725490196;0.3823529412;0.6176470588;0.6274509804;0.8529411765;0.862745098;1.0" repeatCount="indefinite" values="-600;-600;-600;-2600;-2600;-2300;-2300;-1000;-1000;-2000;-2000"/>
<animate attributeName="cx" dur="28.28s" keyTimes="0.0;0.0098039216;0.0980392157;0.1078431373;0.3725490196;0.3823529412;0.6176470588;0.6274509804;0.8529411765;0.862745098;1.0" repeatCount="indefinite" values="2900;2900;2900;2500;2500;1700;1700;600;600;2500;2500"/>
<animate attributeName="visibility" dur="28.28s" keyTimes="0.0;0.0098039216;1.0" repeatCount="indefinite" values="visible;visible;visible"/> </circle>
</svg>