<?xml version="1.0" encoding="UTF-8"?>
        <svg xmlns="http://www.w3.org/2000/svg" xmlns:xlink="http://www.w3.org/1999/xlink"
             width="430" height="430" viewBox="0 -4300 4300 4300">

<defs>

</defs>

<rect fill="#84A1AE" height="70" rx="15" width="70" x="465" y="-535" />
<rect fill="#84A1AE" height="70" rx="15" width="70" x="465" y="-635" />
<rect fill="#84A1AE" height="70" rx="15" width="70" x="465" y="-735" />
<rect fill="#84A1AE" height="70" rx="15" width="70" x="465" y="-835" />
<rect fill="#84A1AE" height="70" rx="15" width="70" x="465" y="-935" />
<rect fill="#84A1AE" height="70" rx="15" width="70" x="465" y="-1035" />
<rect fill="#84A1AE" height="70" rx="15" width="70" x="465" y="-1135" />
<rect fill="#84A1AE" height="70" rx="15" width="70" x="465" y="-1235" />
<rect fill="#84A1AE" height="70" rx="15" width="70" x="465" y="-1335" />
<rect fill="#84A1AE" height="70" rx="15" width="70" x="465" y="-1435" />
<rect fill="#84A1AE" height="70" rx="15" width="70" x="465" y="-1535" />
<rect fill="#84A1AE" height="70" rx="15" width="70" x="465" y="-1635" />
<rect fill="#84A1AE" height="70" rx="15" width="70" x="465" y="-1735" />
<rect fill="#84A1AE" height="70" rx="15" width="70" x="465" y="-1835" />
<rect fill="#84A1AE" height="70" rx="15" width="70" x="465" y="-1935" />
<rect fill="#84A1AE" height="70" rx="15" width="70" x="465" y="-2035" />
<rect fill="#84A1AE" height="70" rx="15" width="70" x="465" y="-2135" />
<rect fill="#84A1AE" height="70" rx="15" width="70" x="465" y="-2235" />
<rect fill="#84A1AE" height="70" rx="15" width="70" x="465" y="-2335" />
<rect fill="#84A1AE" height="70" rx="15" width="70" x="465" y="-2435" />
<rect fill="#84A1AE" height="70" rx="15" width="70" x="465" y="-2535" />
<rect fill="#84A1AE" height="70" rx="15" width="70" x="465" y="-2635" />
<rect fill="#84A1AE" height="70" rx="15" width="70" x="465" y="-2735" />
<rect fill="#84A1AE" height="70" rx="15" width="70" x="465" y="-2835" />
<rect fill="#84A1AE" height="70" rx="15" width="70" x="465" y="-2935" />
<rect fill="#84A1AE" height="70" rx="15" width="70" x="465" y="-3035" />
<rect fill="#84A1AE" height="70" rx="15" width="70" x="465" y="-3135" />
<rect fill="#84A1AE" height="70" rx="15" width="70" x="465" y="-3235" />
<rect fill="#84A1AE" height="70" rx="15" width="70" x="465" y="-3335" />
<rect fill="#84A1AE" height="70" rx="15" width="70" x="465" y="-3435" />
<rect fill="#84A1AE" height="70" rx="15" width="70" x="465" y="-3535" />
<rect fill="#84A1AE" height="70" rx="15" width="70" x="465" y="-3635" />
<rect fill="#84A1AE" height="70" rx="15" width="70" x="465" y="-3735" />
<rect fill="#84A1AE" height="70" rx="15" width="70" x="465" y="-3835" />
<rect fill="#84A1AE" height="70" rx="15" width="70" x="565" y="-535" />
<rect fill="#84A1AE" height="70" rx="15" width="70" x="565" y="-1635" />
<rect fill="#84A1AE" height="70" rx="15" width="70" x="565" y="-1935" />
<rect fill="#84A1AE" height="70" rx="15" width="70" x="565" y="-2735" />
<rect fill="#84A1AE" height="70" rx="15" width="70" x="565" y="-3835" />
<rect fill="#84A1AE" height="70" rx="15" width="70" x="665" y="-535" />
<rect fill="#84A1AE" height="70" rx="15" width="70" x="665" y="-1035" />
<rect fill="#84A1AE" height="70" rx="15" width="70" x="665" y="-2535" />
<rect fill="#84A1AE" height="70" rx="15" width="70" x="665" y="-3035" />
<rect fill="#84A1AE" height="70" rx="15" width="70" x="665" y="-3235" />
<rect fill="#84A1AE" height="70" rx="15" width="70" x="665" y="-3835" />
<rect fill="#84A1AE" height="70" rx="15" width="70" x="765" y="-535" />
<rect fill="#84A1AE" height="70" rx="15" width="70" x="765" y="-635" />
<rect fill="#84A1AE" height="70" rx="15" width="70" x="765" y="-3835" />
<rect fill="#84A1AE" height="70" rx="15" width="70" x="865" y="-535" />
<rect fill="#84A1AE" height="70" rx="15" width="70" x="865" y="-2435" />
<rect fill="#84A1AE" height="70" rx="15" width="70" x="865" y="-2535" />
<rect fill="#84A1AE" height="70" rx="15" width="70" x="865" y="-3335" />
<rect fill="#84A1AE" height="70" rx="15" width="70" x="865" y="-3435" />
<rect fill="#84A1AE" height="70" rx="15" width="70" x="865" y="-3835" />
<rect fill="#84A1AE" height="70" rx="15" width="70" x="965" y="-535" />
<rect fill="#84A1AE" height="70" rx="15" width="70" x="965" y="-735" />
<rect fill="#84A1AE" height="70" rx="15" width="70" x="965" y="-1635" />
<rect fill="#84A1AE" height="70" rx="15" width="70" x="965" y="-1835" />
<rect fill="#84A1AE" height="70" rx="15" width="70" x="965" y="-2835" />
<rect fill="#84A1AE" height="70" rx="15" width="70" x="965" y="-3435" />
<rect fill="#84A1AE" height="70" rx="15" width="70" x="965" y="-3835" />
<rect fill="#84A1AE" height="70" rx="15" width="70" x="1065" y="-535" />
<rect fill="#84A1AE" height="70" rx="15" width="70" x="1065" y="-1135" />
<rect fill="#84A1AE" height="70" rx="15" width="70" x="1065" y="-1835" />
<rect fill="#84A1AE" height="70" rx="15" width="70" x="1065" y="-3735" />
<rect fill="#84A1AE" height="70" rx="15" width="70" x="1065" y="-3835" />
<rect fill="#84A1AE" height="70" rx="15" width="70" x="1165" y="-535" />
<rect fill="#84A1AE" height="70" rx="15" width="70" x="1165" y="-635" />
<rect fill="#84A1AE" height="70" rx="15" width="70" x="1165" y="-735" />
<rect fill="#84A1AE" height="70" rx="15" width="70" x="1165" y="-1535" />
<rect fill="#84A1AE" height="70" rx="15" width="70" x="1165" y="-3835" />
<rect fill="#84A1AE" height="70" rx="15" width="70" x="1265" y="-535" />
<rect fill="#84A1AE" height="70" rx="15" width="70" x="1265" y="-2835" />
<rect fill="#84A1AE" height="70" rx="15" width="70" x="1265" y="-3435" />
<rect fill="#84A1AE" height="70" rx="15" width="70" x="1265" y="-3835" />
<rect fill="#84A1AE" height="70" rx="15" width="70" x="1365" y="-535" />
<rect fill="#84A1AE" height="70" rx="15" width="70" x="1365" y="-835" />
<rect fill="#84A1AE" height="70" rx="15" width="70" x="1365" y="-935" />
<rect fill="#84A1AE" height="70" rx="15" width="70" x="1365" y="-1035" />
<rect fill="#84A1AE" height="70" rx="15" width="70" x="1365" y="-1935" />
<rect fill="#84A1AE" height="70" rx="15" width="70" x="1365" y="-2335" />
<rect fill="#84A1AE" height="70" rx="15" width="70" x="1365" y="-2635" />
<rect fill="#84A1AE" height="70" rx="15" width="70" x="1365" y="-2835" />
<rect fill="#84A1AE" height="70" rx="15" width="70" x="1365" y="-2935" />
<rect fill="#84A1AE" height="70" rx="15" width="70" x="1365" y="-3035" />
<rect fill="#84A1AE" height="70" rx="15" width="70" x="1365" y="-3335" />
<rect fill="#84A1AE" height="70" rx="15" width="70" x="1365" y="-3835" />
<rect fill="#84A1AE" height="70" rx="15" width="70" x="1465" y="-535" />
<rect fill="#84A1AE" height="70" rx="15" width="70" x="1465" y="-1235" />
<rect fill="#84A1AE" height="70" rx="15" width="70" x="1465" y="-1535" />
<rect fill="#84A1AE" height="70" rx="15" width="70" x="1465" y="-2035" />
<rect fill="#84A1AE" height="70" rx="15" width="70" x="1465" y="-3135" />
<rect fill="#84A1AE" height="70" rx="15" width="70" x="1465" y="-3235" />
<rect fill="#84A1AE" height="70" rx="15" width="70" x="1465" y="-3835" />
<rect fill="#84A1AE" height="70" rx="15" width="70" x="1565" y="-535" />
<rect fill="#84A1AE" height="70" rx="15" width="70" x="1565" y="-3035" />
<rect fill="#84A1AE" height="70" rx="15" width="70" x="1565" y="-3835" />
<rect fill="#84A1AE" height="70" rx="15" width="70" x="1665" y="-535" />
<rect fill="#84A1AE" height="70" rx="15" width="70" x="1665" y="-3735" />
<rect fill="#84A1AE" height="70" rx="15" width="70" x="1665" y="-3835" />
<rect fill="#84A1AE" height="70" rx="15" width="70" x="1765" y="-535" />
<rect fill="#84A1AE" height="70" rx="15" width="70" x="1765" y="-1235" />
<rect fill="#84A1AE" height="70" rx="15" width="70" x="1765" y="-3835" />
<rect fill="#84A1AE" height="70" rx="15" width="70" x="1865" y="-535" />
<rect fill="#84A1AE" height="70" rx="15" width="70" x="1865" y="-735" />
<rect fill="#84A1AE" height="70" rx="15" width="70" x="1865" y="-1335" />
<rect fill="#84A1AE" height="70" rx="15" width="70" x="1865" y="-3235" />
<rect fill="#84A1AE" height="70" rx="15" width="70" x="1865" y="-3435" />
<rect fill="#84A1AE" height="70" rx="15" width="70" x="1865" y="-3835" />
<rect fill="#84A1AE" height="70" rx="15" width="70" x="1965" y="-535" />
<rect fill="#84A1AE" height="70" rx="15" width="70" x="1965" y="-635" />
<rect fill="#84A1AE" height="70" rx="15" width="70" x="1965" y="-1835" />
<rect fill="#84A1AE" height="70" rx="15" width="70" x="1965" y="-1935" />
<rect fill="#84A1AE" height="70" rx="15" width="70" x="1965" y="-2135" />
<rect fill="#84A1AE" height="70" rx="15" width="70" x="1965" y="-2335" />
<rect fill="#84A1AE" height="70" rx="15" width="70" x="1965" y="-2435" />
<rect fill="#84A1AE" height="70" rx="15" width="70" x="1965" y="-3335" />
<rect fill="#84A1AE" height="70" rx="15" width="70" x="1965" y="-3835" />
<rect fill="#84A1AE" height="70" rx="15" width="70" x="2065" y="-535" />
<rect fill="#84A1AE" height="70" rx="15" width="70" x="2065" y="-1535" />
<rect fill="#84A1AE" height="70" rx="15" width="70" x="2065" y="-1635" />
<rect fill="#84A1AE" height="70" rx="15" width="70" x="2065" y="-2135" />
<rect fill="#84A1AE" height="70" rx="15" width="70" x="2065" y="-3835" />
<rect fill="#84A1AE" height="70" rx="15" width="70" x="2165" y="-535" />
<rect fill="#84A1AE" height="70" rx="15" width="70" x="2165" y="-935" />
<rect fill="#84A1AE" height="70" rx="15" width="70" x="2165" y="-1335" />
<rect fill="#84A1AE" height="70" rx="15" width="70" x="2165" y="-1835" />
<rect fill="#84A1AE" height="70" rx="15" width="70" x="2165" y="-3835" />
<rect fill="#84A1AE" height="70" rx="15" width="70" x="2265" y="-535" />
<rect fill="#84A1AE" height="70" rx="15" width="70" x="2265" y="-935" />
<rect fill="#84A1AE" height="70" rx="15" width="70" x="2265" y="-1135" />
<rect fill="#84A1AE" height="70" rx="15" width="70" x="2265" y="-2535" />
<rect fill="#84A1AE" height="70" rx="15" width="70" x="2265" y="-3235" />
<rect fill="#84A1AE" height="70" rx="15" width="70" x="2265" y="-3835" />
<rect fill="#84A1AE" height="70" rx="15" width="70" x="2365" y="-535" />
<rect fill="#84A1AE" height="70" rx="15" width="70" x="2365" y="-935" />
<rect fill="#84A1AE" height="70" rx="15" width="70" x="2365" y="-1035" />
<rect fill="#84A1AE" height="70" rx="15" width="70" x="2365" y="-3835" />
<rect fill="#84A1AE" height="70" rx="15" width="70" x="2465" y="-535" />
<rect fill="#84A1AE" height="70" rx="15" width="70" x="2465" y="-935" />
<rect fill="#84A1AE" height="70" rx="15" width="70" x="2465" y="-1535" />
<rect fill="#84A1AE" height="70" rx="15" width="70" x="2465" y="-2335" />
<rect fill="#84A1AE" height="70" rx="15" width="70" x="2465" y="-2735" />
<rect fill="#84A1AE" height="70" rx="15" width="70" x="2465" y="-3835" />
<rect fill="#84A1AE" height="70" rx="15" width="70" x="2565" y="-535" />
<rect fill="#84A1AE" height="70" rx="15" width="70" x="2565" y="-735" />
<rect fill="#84A1AE" height="70" rx="15" width="70" x="2565" y="-2535" />
<rect fill="#84A1AE" height="70" rx="15" width="70" x="2565" y="-3835" />
<rect fill="#84A1AE" height="70" rx="15" width="70" x="2665" y="-535" />
<rect fill="#84A1AE" height="70" rx="15" width="70" x="2665" y="-635" />
<rect fill="#84A1AE" height="70" rx="15" width="70" x="2665" y="-1135" />
<rect fill="#84A1AE" height="70" rx="15" width="70" x="2665" y="-1435" />
<rect fill="#84A1AE" height="70" rx="15" width="70" x="2665" y="-2735" />
<rect fill="#84A1AE" height="70" rx="15" width="70" x="2665" y="-3835" />
<rect fill="#84A1AE" height="70" rx="15" width="70" x="2765" y="-535" />
<rect fill="#84A1AE" height="70" rx="15" width="70" x="2765" y="-1635" />
<rect fill="#84A1AE" height="70" rx="15" width="70" x="2765" y="-1835" />
<rect fill="#84A1AE" height="70" rx="15" width="70" x="2765" y="-1935" />
<rect fill="#84A1AE" height="70" rx="15" width="70" x="2765" y="-2235" />
<rect fill="#84A1AE" height="70" rx="15" width="70" x="2765" y="-3735" />
<rect fill="#84A1AE" height="70" rx="15" width="70" x="2765" y="-3835" />
<rect fill="#84A1AE" height="70" rx="15" width="70" x="2865" y="-535" />
<rect fill="#84A1AE" height="70" rx="15" width="70" x="2865" y="-3835" />
<rect fill="#84A1AE" height="70" rx="15" width="70" x="2965" y="-535" />
<rect fill="#84A1AE" height="70" rx="15" width="70" x="2965" y="-2635" />
<rect fill="#84A1AE" height="70" rx="15" width="70" x="2965" y="-3835" />
<rect fill="#84A1AE" height="70" rx="15" width="70" x="3065" y="-535" />
<rect fill="#84A1AE" height="70" rx="15" width="70" x="3065" y="-735" />
<rect fill="#84A1AE" height="70" rx="15" width="70" x="3065" y="-2535" />
<rect fill="#84A1AE" height="70" rx="15" width="70" x="3065" y="-3835" />
<rect fill="#84A1AE" height="70" rx="15" width="70" x="3165" y="-535" />
<rect fill="#84A1AE" height="70" rx="15" width="70" x="3165" y="-835" />
<rect fill="#84A1AE" height="70" rx="15" width="70" x="3165" y="-1935" />
<rect fill="#84A1AE" height="70" rx="15" width="70" x="3165" y="-2735" />
<rect fill="#84A1AE" height="70" rx="15" width="70" x="3165" y="-3135" />
<rect fill="#84A1AE" height="70" rx="15" width="70" x="3165" y="-3835" />
<rect fill="#84A1AE" height="70" rx="15" width="70" x="3265" y="-535" />
<rect fill="#84A1AE" height="70" rx="15" width="70" x="3265" y="-1035" />
<rect fill="#84A1AE" height="70" rx="15" width="70" x="3265" y="-1735" />
<rect fill="#84A1AE" height="70" rx="15" width="70" x="3265" y="-3835" />
<rect fill="#84A1AE" height="70" rx="15" width="70" x="3365" y="-535" />
<rect fill="#84A1AE" height="70" rx="15" width="70" x="3365" y="-1435" />
<rect fill="#84A1AE" height="70" rx="15" width="70" x="3365" y="-1935" />
<rect fill="#84A1AE" height="70" rx="15" width="70" x="3365" y="-2135" />
<rect fill="#84A1AE" height="70" rx="15" width="70" x="3365" y="-3835" />
<rect fill="#84A1AE" height="70" rx="15" width="70" x="3465" y="-535" />
<rect fill="#84A1AE" height="70" rx="15" width="70" x="3465" y="-2635" />
<rect fill="#84A1AE" height="70" rx="15" width="70" x="3465" y="-3835" />
<rect fill="#84A1AE" height="70" rx="15" width="70" x="3565" y="-535" />
<rect fill="#84A1AE" height="70" rx="15" width="70" x="3565" y="-635" />
<rect fill="#84A1AE" height="70" rx="15" width="70" x="3565" y="-2435" />
<rect fill="#84A1AE" height="70" rx="15" width="70" x="3565" y="-3235" />
<rect fill="#84A1AE" height="70" rx="15" width="70" x="3565" y="-3835" />
<rect fill="#84A1AE" height="70" rx="15" width="70" x="3665" y="-535" />
<rect fill="#84A1AE" height="70" rx="15" width="70" x="3665" y="-2135" />
<rect fill="#84A1AE" height="70" rx="15" width="70" x="3665" y="-2835" />
<rect fill="#84A1AE" height="70" rx="15" width="70" x="3665" y="-3135" />
<rect fill="#84A1AE" height="70" rx="15" width="70" x="3665" y="-3735" />
<rect fill="#84A1AE" height="70" rx="15" width="70" x="3665" y="-3835" />
<rect fill="#84A1AE" height="70" rx="15" width="70" x="3765" y="-535" />
<rect fill="#84A1AE" height="70" rx="15" width="70" x="3765" y="-635" />
<rect fill="#84A1AE" height="70" rx="15" width="70" x="3765" y="-735" />
<rect fill="#84A1AE" height="70" rx="15" width="70" x="3765" y="-835" />
<rect fill="#84A1AE" height="70" rx="15" width="70" x="3765" y="-935" />
<rect fill="#84A1AE" height="70" rx="15" width="70" x="3765" y="-1035" />
<rect fill="#84A1AE" height="70" rx="15" width="70" x="3765" y="-1135" />
<rect fill="#84A1AE" height="70" rx="15" width="70" x="3765" y="-1235" />
<rect fill="#84A1AE" height="70" rx="15" width="70" x="3765" y="-1335" />
<rect fill="#84A1AE" height="70" rx="15" width="70" x="3765" y="-1435" />
<rect fill="#84A1AE" height="70" rx="15" width="70" x="3765" y="-1535" />
<rect fill="#84A1AE" height="70" rx="15" width="70" x="3765" y="-1635" />
<rect fill="#84A1AE" height="70" rx="15" width="70" x="3765" y="-1735" />
<rect fill="#84A1AE" height="70" rx="15" width="70" x="3765" y="-1835" />
<rect fill="#84A1AE" height="70" rx="15" width="70" x="3765" y="-1935" />
<rect fill="#84A1AE" height="70" rx="15" width="70" x="3765" y="-2035" />
<rect fill="#84A1AE" height="70" rx="15" width="70" x="3765" y="-2135" />
<rect fill="#84A1AE" height="70" rx="15" width="70" x="3765" y="-2235" />
<rect fill="#84A1AE" height="70" rx="15" width="70" x="3765" y="-2335" />
<rect fill="#84A1AE" height="70" rx="15" width="70" x="3765" y="-2435" />
<rect fill="#84A1AE" height="70" rx="15" width="70" x="3765" y="-2535" />
<rect fill="#84A1AE" height="70" rx="15" width="70" x="3765" y="-2635" />
<rect fill="#84A1AE" height="70" rx="15" width="70" x="3765" y="-2735" />
<rect fill="#84A1AE" height="70" rx="15" width="70" x="3765" y="-2835" />
<rect fill="#84A1AE" height="70" rx="15" width="70" x="3765" y="-2935" />
<rect fill="#84A1AE" height="70" rx="15" width="70" x="3765" y="-3035" />
<rect fill="#84A1AE" height="70" rx="15" width="70" x="3765" y="-3135" />
<rect fill="#84A1AE" height="70" rx="15" width="70" x="3765" y="-3235" />
<rect fill="#84A1AE" height="70" rx="15" width="70" x="3765" y="-3335" />
<rect fill="#84A1AE" height="70" rx="15" width="70" x="3765" y="-3435" />
<rect fill="#84A1AE" height="70" rx="15" width="70" x="3765" y="-3535" />
<rect fill="#84A1AE" height="70" rx="15" width="70" x="3765" y="-3635" />
<rect fill="#84A1AE" height="70" rx="15" width="70" x="3765" y="-3735" />
<rect fill="#84A1AE" height="70" rx="15" width="70" x="3765" y="-3835" />
<circle cx="2500" cy="-1400" fill="#c1433c" r="35"> <animate attributeName="cy" dur="73.08000000000001s" keyTimes="0.0;0.0038167939;0.0114503817;0.0152671756;0.0190839695;0.034351145;0.0381679389;0.0419847328;0.0458015267;0.0534351145;0.0572519084;0.0610687023;0.072519084;0.0763358779;0.0801526718;0.0839694656;0.0877862595;0.0916030534;0.0954198473;0.106870229;0.1106870229;0.1145038168;0.1259541985;0.1297709924;0.1335877863;0.1488549618;0.1526717557;0.1564885496;0.1603053435;0.1641221374;0.1679389313;0.1717557252;0.1832061069;0.1870229008;0.1908396947;0.2061068702;0.2099236641;0.213740458;0.2175572519;0.2251908397;0.2290076336;0.2328244275;0.2633587786;0.2671755725;0.2824427481;0.286259542;0.2938931298;0.2977099237;0.3015267176;0.3053435115;0.3091603053;0.320610687;0.3244274809;0.3282442748;0.3435114504;0.3473282443;0.3511450382;0.3549618321;0.3778625954;0.3816793893;0.3854961832;0.393129771;0.3969465649;0.4007633588;0.4083969466;0.4122137405;0.4160305344;0.4312977099;0.4351145038;0.4389312977;0.4427480916;0.4503816794;0.4541984733;0.4580152672;0.4618320611;0.465648855;0.4694656489;0.4732824427;0.4770992366;0.4809160305;0.4847328244;0.4885496183;0.4923664122;0.4961832061;0.5;0.5038167939;0.5076335878;0.5114503817;0.5152671756;0.5190839695;0.5229007634;0.534351145;0.5381679389;0.5496183206;0.5534351145;0.5572519084;0.5610687023;0.5648854962;0.5687022901;0.572519084;0.5763358779;0.5801526718;0.5954198473;0.5992366412;0.6145038168;0.6183206107;0.6221374046;0.6259541985;0.6297709924;0.6335877863;0.6374045802;0.641221374;0.6450381679;0.6488549618;0.6717557252;0.6755725191;0.6908396947;0.6946564885;0.6984732824;0.7022900763;0.713740458;0.7175572519;0.7213740458;0.7404580153;0.7442748092;0.7519083969;0.7557251908;0.7595419847;0.7633587786;0.7671755725;0.7709923664;0.7824427481;0.786259542;0.7900763359;0.7938931298;0.7977099237;0.8053435115;0.8091603053;0.8396946565;0.8435114504;0.8473282443;0.8702290076;0.8740458015;0.8969465649;0.9007633588;0.9045801527;0.9427480916;0.9465648855;0.9503816794;0.9580152672;0.9618320611;0.9770992366;0.9809160305;1.0" repeatCount="indefinite" values="-1400;-1400;-1400;-1300;-1200;-1200;-1300;-1200;-1300;-1300;-1400;-1300;-1300;-1400;-1400;-1500;-1500;-1600;-1500;-1500;-1400;-1500;-1500;-1600;-1700;-1700;-1800;-1900;-1900;-1800;-1900;-2000;-2000;-2100;-2200;-2200;-2300;-2400;-2300;-2300;-2400;-2500;-2500;-2600;-2600;-2700;-2700;-2800;-2900;-3000;-3100;-3100;-3000;-2900;-2900;-2800;-2800;-2700;-2700;-2800;-2900;-2900;-2800;-2700;-2700;-2800;-2900;-2900;-2800;-2900;-2800;-2800;-2700;-2800;-2900;-2800;-2800;-2700;-2800;-2900;-3000;-2900;-2900;-3000;-3000;-2900;-3000;-3000;-2900;-2900;-3000;-3000;-2900;-2900;-2800;-2900;-2800;-2800;-2900;-2900;-3000;-2900;-2900;-2800;-2800;-2900;-3000;-3100;-3200;-3200;-3100;-3000;-3000;-2900;-2900;-2800;-2800;-2700;-2700;-2800;-2800;-2700;-2800;-2800;-2700;-2700;-2800;-2800;-2700;-2700;-2600;-2600;-2700;-2800;-2900;-3000;-3000;-2900;-2900;-2800;-2700;-2700;-2600;-2600;-2500;-2400;-2400;-2300;-2400;-2400;-2300;-2300;-2200;-2200"/>
<animate attributeName="cx" dur="73.08000000000001s" keyTimes="0.0;0.0038167939;0.0076335878;0.0114503817;0.0229007634;0.0267175573;0.0305343511;0.034351145;0.0458015267;0.0496183206;0.0534351145;0.0610687023;0.0648854962;0.0687022901;0.072519084;0.0839694656;0.0877862595;0.0954198473;0.0992366412;0.1030534351;0.106870229;0.1145038168;0.1183206107;0.1374045802;0.141221374;0.1450381679;0.1488549618;0.1908396947;0.1946564885;0.2175572519;0.2213740458;0.2251908397;0.2328244275;0.2366412214;0.2404580153;0.2442748092;0.2480916031;0.2519083969;0.2557251908;0.2786259542;0.2824427481;0.2900763359;0.2938931298;0.3129770992;0.3167938931;0.320610687;0.3282442748;0.3320610687;0.3358778626;0.3396946565;0.3435114504;0.3473282443;0.3511450382;0.3549618321;0.358778626;0.3625954198;0.3740458015;0.3778625954;0.3854961832;0.3893129771;0.393129771;0.4007633588;0.4045801527;0.4083969466;0.4160305344;0.4198473282;0.427480916;0.4312977099;0.4427480916;0.4465648855;0.4503816794;0.465648855;0.4694656489;0.4885496183;0.4923664122;0.4961832061;0.5;0.5076335878;0.5114503817;0.5152671756;0.5190839695;0.5229007634;0.5267175573;0.5305343511;0.534351145;0.5610687023;0.5648854962;0.5687022901;0.572519084;0.5801526718;0.5839694656;0.5877862595;0.5916030534;0.5954198473;0.5992366412;0.6030534351;0.6106870229;0.6145038168;0.6297709924;0.6335877863;0.641221374;0.6450381679;0.6488549618;0.6526717557;0.6564885496;0.6603053435;0.6641221374;0.6679389313;0.6717557252;0.6832061069;0.6870229008;0.6908396947;0.6946564885;0.6984732824;0.7022900763;0.7061068702;0.7099236641;0.713740458;0.7213740458;0.7251908397;0.7290076336;0.7328244275;0.7366412214;0.7404580153;0.7442748092;0.7480916031;0.7519083969;0.7557251908;0.7595419847;0.7709923664;0.7748091603;0.7786259542;0.7824427481;0.8015267176;0.8053435115;0.8167938931;0.820610687;0.8244274809;0.8282442748;0.8320610687;0.8358778626;0.8473282443;0.8511450382;0.8549618321;0.858778626;0.8625954198;0.8664122137;0.8702290076;0.8778625954;0.8816793893;0.8854961832;0.8893129771;0.893129771;0.8969465649;0.9083969466;0.9122137405;0.9160305344;0.9198473282;0.9236641221;0.927480916;0.9312977099;0.9351145038;0.9389312977;0.9427480916;0.9503816794;0.9541984733;0.9580152672;0.9618320611;0.965648855;0.9694656489;0.9732824427;0.9809160305;0.9847328244;0.9885496183;0.9923664122;0.9961832061;1.0" repeatCount="indefinite" values="2500;2500;2400;2500;2500;2400;2500;2600;2600;2700;2600;2600;2700;2700;2800;2800;2700;2700;2600;2700;2800;2800;2700;2700;2600;2500;2600;2600;2700;2700;2800;2900;2900;3000;2900;3000;2900;2800;2700;2700;2800;2800;2900;2900;2800;2900;2900;3000;2900;2800;2900;2900;3000;3000;2900;2800;2800;2900;2900;2800;2900;2900;2800;2900;2900;3000;3000;3100;3100;3200;3100;3100;3000;3000;3100;3100;3000;3000;3100;3100;3200;3200;3300;3400;3300;3300;3400;3400;3500;3500;3400;3300;3300;3200;3200;3100;3100;3000;3000;2900;2900;2800;2800;2700;2700;2600;2700;2600;2500;2500;2400;2300;2300;2200;2200;2100;2200;2300;2300;2400;2300;2200;2100;2000;2000;2100;2200;2200;2100;2100;2200;2100;2000;2000;2100;2100;2000;1900;1800;1900;2000;2000;2100;2000;2100;2200;2200;2300;2300;2400;2500;2600;2600;2700;2700;2800;2900;2900;3000;3100;3100;3200;3100;3200;3200;3100;3000;3000;2900;2900;3000;3000;3100;3200;3300;3400;3400"/>
<animate attributeName="visibility" dur="73.08000000000001s" keyTimes="0.0;0.0038167939;1.0" repeatCount="indefinite" values="visible;visible;visible"/> </circle>
<circle cx="3000" cy="-1900" fill="#2e6f9e" r="35"> <animate attributeName="cy" dur="73.08000000000001s" keyTimes="0.0;0.0038167939;0.0076335878;0.0114503817;0.0152671756;0.0190839695;0.0229007634;0.0267175573;0.0305343511;0.034351145;0.0381679389;0.0419847328;0.0496183206;0.0534351145;0.0572519084;0.0610687023;0.0648854962;0.0687022901;0.072519084;0.0763358779;0.0801526718;0.0839694656;0.0877862595;0.106870229;0.1106870229;0.1183206107;0.1221374046;0.1335877863;0.1374045802;0.1450381679;0.1488549618;0.1526717557;0.1564885496;0.1641221374;0.1679389313;0.179389313;0.1832061069;0.1870229008;0.1946564885;0.1984732824;0.2022900763;0.2061068702;0.2099236641;0.213740458;0.2175572519;0.2213740458;0.2251908397;0.2290076336;0.2328244275;0.2366412214;0.2404580153;0.2442748092;0.2480916031;0.2519083969;0.2557251908;0.2595419847;0.2633587786;0.2671755725;0.2709923664;0.2748091603;0.2786259542;0.2824427481;0.286259542;0.2900763359;0.2938931298;0.2977099237;0.3015267176;0.3053435115;0.3091603053;0.3129770992;0.3167938931;0.320610687;0.3244274809;0.3282442748;0.3320610687;0.3358778626;0.3511450382;0.3549618321;0.358778626;0.3625954198;0.3664122137;0.3740458015;0.3778625954;0.3816793893;0.3854961832;0.3893129771;0.393129771;0.3969465649;0.4007633588;0.4045801527;0.4083969466;0.4122137405;0.4160305344;0.4198473282;0.4236641221;0.427480916;0.4312977099;0.4351145038;0.4389312977;0.4427480916;0.4465648855;0.4503816794;0.4541984733;0.4580152672;0.4618320611;0.465648855;0.4694656489;0.4732824427;0.4770992366;0.4809160305;0.4847328244;0.4885496183;0.4923664122;0.5114503817;0.5152671756;0.5190839695;0.5229007634;0.5267175573;0.5305343511;0.534351145;0.5419847328;0.5458015267;0.5496183206;0.5687022901;0.572519084;0.5763358779;0.5801526718;0.5839694656;0.5877862595;0.5916030534;0.5954198473;0.5992366412;0.6030534351;0.606870229;0.6106870229;0.6145038168;0.6183206107;0.6221374046;0.6259541985;0.6297709924;0.6335877863;0.6374045802;0.641221374;0.6450381679;0.6488549618;0.6526717557;0.6603053435;0.6641221374;0.6679389313;0.6717557252;0.6755725191;0.679389313;0.6832061069;0.6870229008;0.6908396947;0.6946564885;0.6984732824;0.7022900763;0.7061068702;0.7099236641;0.713740458;0.7175572519;0.7213740458;0.7251908397;0.7290076336;0.7328244275;0.7366412214;0.7404580153;0.7442748092;0.7480916031;0.7519083969;0.7557251908;0.7595419847;0.7633587786;0.7671755725;0.7709923664;0.7748091603;0.7786259542;0.7824427481;0.786259542;0.7900763359;0.7938931298;0.7977099237;0.8015267176;0.8053435115;0.8091603053;0.8129770992;0.8396946565;0.8435114504;0.8473282443;0.8549618321;0.858778626;0.9580152672;0.9618320611;0.9694656489;0.9732824427;0.9770992366;1.0" repeatCount="indefinite" values="-1900;-1900;-1900;-2000;-2100;-2200;-2300;-2400;-2400;-2500;-2500;-2600;-2600;-2500;-2400;-2400;-2300;-2200;-2100;-2000;-1900;-2000;-2100;-2100;-2200;-2200;-2300;-2300;-2400;-2400;-2500;-2600;-2700;-2700;-2800;-2800;-2900;-3000;-3000;-3100;-3200;-3200;-3300;-3300;-3400;-3400;-3500;-3500;-3400;-3400;-3300;-3200;-3200;-3100;-3000;-2900;-2800;-2700;-2600;-2500;-2400;-2300;-2200;-2100;-2000;-1900;-1800;-1700;-1600;-1700;-1800;-1900;-1900;-1800;-1800;-1700;-1700;-1600;-1600;-1500;-1400;-1400;-1300;-1300;-1200;-1200;-1300;-1400;-1500;-1600;-1700;-1800;-1900;-2000;-2100;-2200;-2300;-2400;-2400;-2500;-2500;-2600;-2700;-2800;-2900;-3000;-3100;-3200;-3300;-3300;-3400;-3400;-3500;-3500;-3400;-3300;-3200;-3100;-3000;-2900;-2900;-2800;-2700;-2700;-2600;-2500;-2400;-2300;-2300;-2200;-2100;-2000;-2100;-2200;-2200;-2300;-2400;-2500;-2600;-2700;-2800;-2900;-3000;-3100;-3200;-3300;-3300;-3200;-3100;-3000;-2900;-2800;-2700;-2600;-2500;-2400;-2300;-2200;-2100;-2000;-1900;-1800;-1700;-1600;-1500;-1400;-1300;-1200;-1100;-1000;-1100;-1200;-1300;-1400;-1500;-1600;-1700;-1800;-1900;-2000;-2100;-2200;-2300;-2400;-2500;-2600;-2700;-2700;-2800;-2900;-2900;-3000;-3000;-2900;-2900;-2800;-2700;-2700"/>
<animate attributeName="cx" dur="73.08000000000001s" keyTimes="0.0;0.0038167939;0.0076335878;0.0267175573;0.0305343511;0.034351145;0.0381679389;0.0419847328;0.0458015267;0.0496183206;0.0572519084;0.0610687023;0.0877862595;0.0916030534;0.0954198473;0.0992366412;0.1030534351;0.106870229;0.1106870229;0.1145038168;0.1183206107;0.1221374046;0.1259541985;0.1297709924;0.1335877863;0.1374045802;0.141221374;0.1450381679;0.1564885496;0.1603053435;0.1641221374;0.1679389313;0.1717557252;0.1755725191;0.179389313;0.1870229008;0.1908396947;0.1946564885;0.2022900763;0.2061068702;0.2099236641;0.213740458;0.2175572519;0.2213740458;0.2251908397;0.2290076336;0.2328244275;0.2366412214;0.2442748092;0.2480916031;0.320610687;0.3244274809;0.3282442748;0.3320610687;0.3358778626;0.3396946565;0.3435114504;0.3473282443;0.3511450382;0.3549618321;0.358778626;0.3664122137;0.3702290076;0.3740458015;0.3778625954;0.3816793893;0.3854961832;0.3893129771;0.4351145038;0.4389312977;0.4427480916;0.4465648855;0.4770992366;0.4809160305;0.4847328244;0.4885496183;0.4923664122;0.4961832061;0.5;0.5038167939;0.5076335878;0.5114503817;0.534351145;0.5381679389;0.5419847328;0.5496183206;0.5534351145;0.5572519084;0.5610687023;0.5648854962;0.5687022901;0.5839694656;0.5877862595;0.606870229;0.6106870229;0.6526717557;0.6564885496;0.6603053435;0.8129770992;0.8167938931;0.820610687;0.8244274809;0.8282442748;0.8320610687;0.8358778626;0.8396946565;0.8473282443;0.8511450382;0.8549618321;0.858778626;0.8625954198;0.8664122137;0.8702290076;0.8740458015;0.8778625954;0.8816793893;0.8854961832;0.8893129771;0.893129771;0.8969465649;0.9007633588;0.9045801527;0.9083969466;0.9122137405;0.9160305344;0.9198473282;0.9236641221;0.927480916;0.9312977099;0.9351145038;0.9389312977;0.9427480916;0.9465648855;0.9503816794;0.9541984733;0.9580152672;0.9618320611;0.965648855;0.9694656489;0.9770992366;0.9809160305;0.9847328244;0.9885496183;0.9923664122;0.9961832061;1.0" repeatCount="indefinite" values="3000;3000;2900;2900;2800;2800;2700;2700;2600;2500;2500;2600;2600;2700;2800;2900;3000;3100;3100;3000;2900;2900;2800;2700;2600;2600;2500;2400;2400;2300;2200;2200;2100;2000;1900;1900;1800;1700;1700;1600;1600;1500;1500;1400;1400;1500;1500;1600;1600;1700;1700;1800;1800;1900;1900;2000;2100;2200;2300;2300;2400;2400;2500;2600;2600;2700;2700;2600;2600;2500;2500;2400;2400;2300;2300;2200;2200;2100;2000;1900;1800;1700;1700;1600;1500;1500;1400;1300;1200;1100;1000;1000;900;900;800;800;700;800;800;900;1000;1100;1200;1300;1400;1500;1500;1600;1700;1700;1800;1900;2000;2100;2200;2300;2400;2500;2600;2700;2800;2900;3000;2900;2800;2700;2600;2500;2400;2300;2200;2100;2000;1900;1800;1700;1700;1600;1500;1500;1400;1300;1200;1100;1000;1000"/>
<animate attributeName="visibility" dur="73.08000000000001s" keyTimes="0.0;0.0038167939;1.0" repeatCount="indefinite" values="visible;visible;visible"/> </circle>
<circle cx="3500" cy="-3000" fill="none" r="35" stroke="#c1433c" stroke-width="10"> <animate attributeName="cy" dur="73.08000000000001s" keyTimes="0.0;0.0038167939;0.572519084;0.5763358779;0.8778625954;0.8816793893;1.0" repeatCount="indefinite" values="-3000;-3000;-3000;-2600;-2600;-700;-700"/>
<animate attributeName="cx" dur="73.08000000000001s" keyTimes="0.0;0.0038167939;0.572519084;0.5763358779;0.8778625954;0.8816793893;1.0" repeatCount="indefinite" values="3500;3500;3500;2400;2400;3500;3500"/>
<animate attributeName="visibility" dur="73.08000000000001s" keyTimes="0.0;0.0038167939;1.0" repeatCount="indefinite" values="visible;visible;visible"/> </circle>
<circle cx="2600" cy="-2600" fill="none" r="35" stroke="#2e6f9e" stroke-width="10"> <animate attributeName="cy" dur="73.08000000000001s" keyTimes="0.0;0.0038167939;0.0419847328;0.0458015267;0.0763358779;0.0801526718;0.1030534351;0.106870229;0.2213740458;0.2251908397;0.3053435115;0.3091603053;0.320610687;0.3244274809;0.3816793893;0.3854961832;0.4885496183;0.4923664122;0.5534351145;0.5572519084;0.5954198473;0.5992366412;0.6526717557;0.6564885496;0.7442748092;0.7480916031;0.9045801527;0.9083969466;1.0" repeatCount="indefinite" values="-2600;-2600;-2600;-1900;-1900;-2100;-2100;-3500;-3500;-1600;-1600;-1900;-1900;-1200;-1200;-3500;-3500;-2700;-2700;-2000;-2000;-3300;-3300;-1000;-1000;-3000;-3000;-2800;-2800"/>
<animate attributeName="cx" dur="73.08000000000001s" keyTimes="0.0;0.0038167939;0.0763358779;0.0801526718;0.1030534351;0.106870229;0.2213740458;0.2251908397;0.3053435115;0.3091603053;0.320610687;0.3244274809;0.3816793893;0.3854961832;0.4885496183;0.4923664122;0.5534351145;0.5572519084;0.5954198473;0.5992366412;0.6526717557;0.6564885496;0.7442748092;0.7480916031;0.9045801527;0.9083969466;1.0" repeatCount="indefinite" values="2600;2600;2600;3100;3100;1400;1400;1700;1700;1800;1800;2700;2700;2200;2200;1300;1300;900;900;700;700;800;800;3000;3000;700;700"/>
<animate attributeName="visibility" dur="73.08000000000001s" keyTimes="0.0;0.0038167939;1.0" repeatCount="indefinite" values="visible;visible;visible"/> </circle>
</svg>