<?xml version="1.0" encoding="UTF-8"?>
        <svg xmlns="http://www.w3.org/2000/svg" xmlns:xlink="http://www.w3.org/1999/xlink"
             width="430" height="430" viewBox="0 -4300 4300 4300">

<defs>

</defs>

<rect fill="#84A1AE" height="70" rx="15" width="70" x="465" y="-535" />
<rect fill="#84A1AE" height="70" rx="15" width="70" x="465" y="-635" />
<rect fill="#84A1AE" height="70" rx="15" width="70" x="465" y="-735" />
<rect fill="#84A1AE" height="70" rx="15" width="70" x="465" y="-835" />
<rect fill="#84A1AE" height="70" rx="15" width="70" x="465" y="-935" />
<rect fill="#84A1AE" height="70" rx="15" width="70" x="465" y="-1035" />
<rect fill="#84A1AE" height="70" rx="15" width="70" x="465" y="-1135" />
<rect fill="#84A1AE" height="70" rx="15" width="70" x="465" y="-1235" />
<rect fill="#84A1AE" height="70" rx="15" width="70" x="465" y="-1335" />
<rect fill="#84A1AE" height="70" rx="15" width="70" x="465" y="-1435" />
<rect fill="#84A1AE" height="70" rx="15" width="70" x="465" y="-1535" />
<rect fill="#84A1AE" height="70" rx="15" width="70" x="465" y="-1635" />
<rect fill="#84A1AE" height="70" rx="15" width="70" x="465" y="-1735" />
<rect fill="#84A1AE" height="70" rx="15" width="70" x="465" y="-1835" />
<rect fill="#84A1AE" height="70" rx="15" width="70" x="465" y="-1935" />
<rect fill="#84A1AE" height="70" rx="15" width="70" x="465" y="-2035" />
<rect fill="#84A1AE" height="70" rx="15" width="70" x="465" y="-2135" />
<rect fill="#84A1AE" height="70" rx="15" width="70" x="465" y="-2235" />
<rect fill="#84A1AE" height="70" rx="15" width="70" x="465" y="-2335" />
<rect fill="#84A1AE" height="70" rx="15" width="70" x="465" y="-2435" />
<rect fill="#84A1AE" height="70" rx="15" width="70" x="465" y="-2535" />
<rect fill="#84A1AE" height="70" rx="15" width="70" x="465" y="-2635" />
<rect fill="#84A1AE" height="70" rx="15" width="70" x="465" y="-2735" />
<rect fill="#84A1AE" height="70" rx="15" width="70" x="465" y="-2835" />
<rect fill="#84A1AE" height="70" rx="15" width="70" x="465" y="-2935" />
<rect fill="#84A1AE" height="70" rx="15" width="70" x="465" y="-3035" />
<rect fill="#84A1AE" height="70" rx="15" width="70" x="465" y="-3135" />
<rect fill="#84A1AE" height="70" rx="15" width="70" x="465" y="-3235" />
<rect fill="#84A1AE" height="70" rx="15" width="70" x="465" y="-3335" />
<rect fill="#84A1AE" height="70" rx="15" width="70" x="465" y="-3435" />
<rect fill="#84A1AE" height="70" rx="15" width="70" x="465" y="-3535" />
<rect fill="#84A1AE" height="70" rx="15" width="70" x="465" y="-3635" />
<rect fill="#84A1AE" height="70" rx="15" width="70" x="465" y="-3735" />
<rect fill="#84A1AE" height="70" rx="15" width="70" x="465" y="-3835" />
<rect fill="#84A1AE" height="70" rx="15" width="70" x="565" y="-535" />
<rect fill="#84A1AE" height="70" rx="15" width="70" x="565" y="-1635" />
<rect fill="#84A1AE" height="70" rx="15" width="70" x="565" y="-1935" />
<rect fill="#84A1AE" height="70" rx="15" width="70" x="565" y="-2735" />
<rect fill="#84A1AE" height="70" rx="15" width="70" x="565" y="-3835" />
<rect fill="#84A1AE" height="70" rx="15" width="70" x="665" y="-535" />
<rect fill="#84A1AE" height="70" rx="15" width="70" x="665" y="-1035" />
<rect fill="#84A1AE" height="70" rx="15" width="70" x="665" y="-2535" />
<rect fill="#84A1AE" height="70" rx="15" width="70" x="665" y="-3035" />
<rect fill="#84A1AE" height="70" rx="15" width="70" x="665" y="-3235" />
<rect fill="#84A1AE" height="70" rx="15" width="70" x="665" y="-3835" />
<rect fill="#84A1AE" height="70" rx="15" width="70" x="765" y="-535" />
<rect fill="#84A1AE" height="70" rx="15" width="70" x="765" y="-635" />
<rect fill="#84A1AE" height="70" rx="15" width="70" x="765" y="-3835" />
<rect fill="#84A1AE" height="70" rx="15" width="70" x="865" y="-535" />
<rect fill="#84A1AE" height="70" rx="15" width="70" x="865" y="-2435" />
<rect fill="#84A1AE" height="70" rx="15" width="70" x="865" y="-2535" />
<rect fill="#84A1AE" height="70" rx="15" width="70" x="865" y="-3335" />
<rect fill="#84A1AE" height="70" rx="15" width="70" x="865" y="-3435" />
<rect fill="#84A1AE" height="70" rx="15" width="70" x="865" y="-3835" />
<rect fill="#84A1AE" height="70" rx="15" width="70" x="965" y="-535" />
<rect fill="#84A1AE" height="70" rx="15" width="70" x="965" y="-735" />
<rect fill="#84A1AE" height="70" rx="15" width="70" x="965" y="-1635" />
<rect fill="#84A1AE" height="70" rx="15" width="70" x="965" y="-1835" />
<rect fill="#84A1AE" height="70" rx="15" width="70" x="965" y="-2835" />
<rect fill="#84A1AE" height="70" rx="15" width="70" x="965" y="-3435" />
<rect fill="#84A1AE" height="70" rx="15" width="70" x="965" y="-3835" />
<rect fill="#84A1AE" height="70" rx="15" width="70" x="1065" y="-535" />
<rect fill="#84A1AE" height="70" rx="15" width="70" x="1065" y="-1135" />
<rect fill="#84A1AE" height="70" rx="15" width="70" x="1065" y="-1835" />
<rect fill="#84A1AE" height="70" rx="15" width="70" x="1065" y="-3735" />
<rect fill="#84A1AE" height="70" rx="15" width="70" x="1065" y="-3835" />
<rect fill="#84A1AE" height="70" rx="15" width="70" x="1165" y="-535" />
<rect fill="#84A1AE" height="70" rx="15" width="70" x="1165" y="-635" />
<rect fill="#84A1AE" height="70" rx="15" width="70" x="1165" y="-735" />
<rect fill="#84A1AE" height="70" rx="15" width="70" x="1165" y="-1535" />
<rect fill="#84A1AE" height="70" rx="15" width="70" x="1165" y="-3835" />
<rect fill="#84A1AE" height="70" rx="15" width="70" x="1265" y="-535" />
<rect fill="#84A1AE" height="70" rx="15" width="70" x="1265" y="-2835" />
<rect fill="#84A1AE" height="70" rx="15" width="70" x="1265" y="-3435" />
<rect fill="#84A1AE" height="70" rx="15" width="70" x="1265" y="-3835" />
<rect fill="#84A1AE" height="70" rx="15" width="70" x="1365" y="-535" />
<rect fill="#84A1AE" height="70" rx="15" width="70" x="1365" y="-835" />
<rect fill="#84A1AE" height="70" rx="15" width="70" x="1365" y="-935" />
<rect fill="#84A1AE" height="70" rx="15" width="70" x="1365" y="-1035" />
<rect fill="#84A1AE" height="70" rx="15" width="70" x="1365" y="-1935" />
<rect fill="#84A1AE" height="70" rx="15" width="70" x="1365" y="-2335" />
<rect fill="#84A1AE" height="70" rx="15" width="70" x="1365" y="-2635" />
<rect fill="#84A1AE" height="70" rx="15" width="70" x="1365" y="-2835" />
<rect fill="#84A1AE" height="70" rx="15" width="70" x="1365" y="-2935" />
<rect fill="#84A1AE" height="70" rx="15" width="70" x="1365" y="-3035" />
<rect fill="#84A1AE" height="70" rx="15" width="70" x="1365" y="-3335" />
<rect fill="#84A1AE" height="70" rx="15" width="70" x="1365" y="-3835" />
<rect fill="#84A1AE" height="70" rx="15" width="70" x="1465" y="-535" />
<rect fill="#84A1AE" height="70" rx="15" width="70" x="1465" y="-1235" />
<rect fill="#84A1AE" height="70" rx="15" width="70" x="1465" y="-1535" />
<rect fill="#84A1AE" height="70" rx="15" width="70" x="1465" y="-2035" />
<rect fill="#84A1AE" height="70" rx="15" width="70" x="1465" y="-3135" />
<rect fill="#84A1AE" height="70" rx="15" width="70" x="1465" y="-3235" />
<rect fill="#84A1AE" height="70" rx="15" width="70" x="1465" y="-3835" />
<rect fill="#84A1AE" height="70" rx="15" width="70" x="1565" y="-535" />
<rect fill="#84A1AE" height="70" rx="15" width="70" x="1565" y="-3035" />
<rect fill="#84A1AE" height="70" rx="15" width="70" x="1565" y="-3835" />
<rect fill="#84A1AE" height="70" rx="15" width="70" x="1665" y="-535" />
<rect fill="#84A1AE" height="70" rx="15" width="70" x="1665" y="-3735" />
<rect fill="#84A1AE" height="70" rx="15" width="70" x="1665" y="-3835" />
<rect fill="#84A1AE" height="70" rx="15" width="70" x="1765" y="-535" />
<rect fill="#84A1AE" height="70" rx="15" width="70" x="1765" y="-1235" />
<rect fill="#84A1AE" height="70" rx="15" width="70" x="1765" y="-3835" />
<rect fill="#84A1AE" height="70" rx="15" width="70" x="1865" y="-535" />
<rect fill="#84A1AE" height="70" rx="15" width="70" x="1865" y="-735" />
<rect fill="#84A1AE" height="70" rx="15" width="70" x="1865" y="-1335" />
<rect fill="#84A1AE" height="70" rx="15" width="70" x="1865" y="-3235" />
<rect fill="#84A1AE" height="70" rx="15" width="70" x="1865" y="-3435" />
<rect fill="#84A1AE" height="70" rx="15" width="70" x="1865" y="-3835" />
<rect fill="#84A1AE" height="70" rx="15" width="70" x="1965" y="-535" />
<rect fill="#84A1AE" height="70" rx="15" width="70" x="1965" y="-635" />
<rect fill="#84A1AE" height="70" rx="15" width="70" x="1965" y="-1835" />
<rect fill="#84A1AE" height="70" rx="15" width="70" x="1965" y="-1935" />
<rect fill="#84A1AE" height="70" rx="15" width="70" x="1965" y="-2135" />
<rect fill="#84A1AE" height="70" rx="15" width="70" x="1965" y="-2335" />
<rect fill="#84A1AE" height="70" rx="15" width="70" x="1965" y="-2435" />
<rect fill="#84A1AE" height="70" rx="15" width="70" x="1965" y="-3335" />
<rect fill="#84A1AE" height="70" rx="15" width="70" x="1965" y="-3835" />
<rect fill="#84A1AE" height="70" rx="15" width="70" x="2065" y="-535" />
<rect fill="#84A1AE" height="70" rx="15" width="70" x="2065" y="-1535" />
<rect fill="#84A1AE" height="70" rx="15" width="70" x="2065" y="-1635" />
<rect fill="#84A1AE" height="70" rx="15" width="70" x="2065" y="-2135" />
<rect fill="#84A1AE" height="70" rx="15" width="70" x="2065" y="-3835" />
<rect fill="#84A1AE" height="70" rx="15" width="70" x="2165" y="-535" />
<rect fill="#84A1AE" height="70" rx="15" width="70" x="2165" y="-935" />
<rect fill="#84A1AE" height="70" rx="15" width="70" x="2165" y="-1335" />
<rect fill="#84A1AE" height="70" rx="15" width="70" x="2165" y="-1835" />
<rect fill="#84A1AE" height="70" rx="15" width="70" x="2165" y="-3835" />
<rect fill="#84A1AE" height="70" rx="15" width="70" x="2265" y="-535" />
<rect fill="#84A1AE" height="70" rx="15" width="70" x="2265" y="-935" />
<rect fill="#84A1AE" height="70" rx="15" width="70" x="2265" y="-1135" />
<rect fill="#84A1AE" height="70" rx="15" width="70" x="2265" y="-2535" />
<rect fill="#84A1AE" height="70" rx="15" width="70" x="2265" y="-3235" />
<rect fill="#84A1AE" height="70" rx="15" width="70" x="2265" y="-3835" />
<rect fill="#84A1AE" height="70" rx="15" width="70" x="2365" y="-535" />
<rect fill="#84A1AE" height="70" rx="15" width="70" x="2365" y="-935" />
<rect fill="#84A1AE" height="70" rx="15" width="70" x="2365" y="-1035" />
<rect fill="#84A1AE" height="70" rx="15" width="70" x="2365" y="-3835" />
<rect fill="#84A1AE" height="70" rx="15" width="70" x="2465" y="-535" />
<rect fill="#84A1AE" height="70" rx="15" width="70" x="2465" y="-935" />
<rect fill="#84A1AE" height="70" rx="15" width="70" x="2465" y="-1535" />
<rect fill="#84A1AE" height="70" rx="15" width="70" x="2465" y="-2335" />
<rect fill="#84A1AE" height="70" rx="15" width="70" x="2465" y="-2735" />
<rect fill="#84A1AE" height="70" rx="15" width="70" x="2465" y="-3835" />
<rect fill="#84A1AE" height="70" rx="15" width="70" x="2565" y="-535" />
<rect fill="#84A1AE" height="70" rx="15" width="70" x="2565" y="-735" />
<rect fill="#84A1AE" height="70" rx="15" width="70" x="2565" y="-2535" />
<rect fill="#84A1AE" height="70" rx="15" width="70" x="2565" y="-3835" />
<rect fill="#84A1AE" height="70" rx="15" width="70" x="2665" y="-535" />
<rect fill="#84A1AE" height="70" rx="15" width="70" x="2665" y="-635" />
<rect fill="#84A1AE" height="70" rx="15" width="70" x="2665" y="-1135" />
<rect fill="#84A1AE" height="70" rx="15" width="70" x="2665" y="-1435" />
<rect fill="#84A1AE" height="70" rx="15" width="70" x="2665" y="-2735" />
<rect fill="#84A1AE" height="70" rx="15" width="70" x="2665" y="-3835" />
<rect fill="#84A1AE" height="70" rx="15" width="70" x="2765" y="-535" />
<rect fill="#84A1AE" height="70" rx="15" width="70" x="2765" y="-1635" />
<rect fill="#84A1AE" height="70" rx="15" width="70" x="2765" y="-1835" />
<rect fill="#84A1AE" height="70" rx="15" width="70" x="2765" y="-1935" />
<rect fill="#84A1AE" height="70" rx="15" width="70" x="2765" y="-2235" />
<rect fill="#84A1AE" height="70" rx="15" width="70" x="2765" y="-3735" />
<rect fill="#84A1AE" height="70" rx="15" width="70" x="2765" y="-3835" />
<rect fill="#84A1AE" height="70" rx="15" width="70" x="2865" y="-535" />
<rect fill="#84A1AE" height="70" rx="15" width="70" x="2865" y="-3835" />
<rect fill="#84A1AE" height="70" rx="15" width="70" x="2965" y="-535" />
<rect fill="#84A1AE" height="70" rx="15" width="70" x="2965" y="-2635" />
<rect fill="#84A1AE" height="70" rx="15" width="70" x="2965" y="-3835" />
<rect fill="#84A1AE" height="70" rx="15" width="70" x="3065" y="-535" />
<rect fill="#84A1AE" height="70" rx="15" width="70" x="3065" y="-735" />
<rect fill="#84A1AE" height="70" rx="15" width="70" x="3065" y="-2535" />
<rect fill="#84A1AE" height="70" rx="15" width="70" x="3065" y="-3835" />
<rect fill="#84A1AE" height="70" rx="15" width="70" x="3165" y="-535" />
<rect fill="#84A1AE" height="70" rx="15" width="70" x="3165" y="-835" />
<rect fill="#84A1AE" height="70" rx="15" width="70" x="3165" y="-1935" />
<rect fill="#84A1AE" height="70" rx="15" width="70" x="3165" y="-2735" />
<rect fill="#84A1AE" height="70" rx="15" width="70" x="3165" y="-3135" />
<rect fill="#84A1AE" height="70" rx="15" width="70" x="3165" y="-3835" />
<rect fill="#84A1AE" height="70" rx="15" width="70" x="3265" y="-535" />
<rect fill="#84A1AE" height="70" rx="15" width="70" x="3265" y="-1035" />
<rect fill="#84A1AE" height="70" rx="15" width="70" x="3265" y="-1735" />
<rect fill="#84A1AE" height="70" rx="15" width="70" x="3265" y="-3835" />
<rect fill="#84A1AE" height="70" rx="15" width="70" x="3365" y="-535" />
<rect fill="#84A1AE" height="70" rx="15" width="70" x="3365" y="-1435" />
<rect fill="#84A1AE" height="70" rx="15" width="70" x="3365" y="-1935" />
<rect fill="#84A1AE" height="70" rx="15" width="70" x="3365" y="-2135" />
<rect fill="#84A1AE" height="70" rx="15" width="70" x="3365" y="-3835" />
<rect fill="#84A1AE" height="70" rx="15" width="70" x="3465" y="-535" />
<rect fill="#84A1AE" height="70" rx="15" width="70" x="3465" y="-2635" />
<rect fill="#84A1AE" height="70" rx="15" width="70" x="3465" y="-3835" />
<rect fill="#84A1AE" height="70" rx="15" width="70" x="3565" y="-535" />
<rect fill="#84A1AE" height="70" rx="15" width="70" x="3565" y="-635" />
<rect fill="#84A1AE" height="70" rx="15" width="70" x="3565" y="-2435" />
<rect fill="#84A1AE" height="70" rx="15" width="70" x="3565" y="-3235" />
<rect fill="#84A1AE" height="70" rx="15" width="70" x="3565" y="-3835" />
<rect fill="#84A1AE" height="70" rx="15" width="70" x="3665" y="-535" />
<rect fill="#84A1AE" height="70" rx="15" width="70" x="3665" y="-2135" />
<rect fill="#84A1AE" height="70" rx="15" width="70" x="3665" y="-2835" />
<rect fill="#84A1AE" height="70" rx="15" width="70" x="3665" y="-3135" />
<rect fill="#84A1AE" height="70" rx="15" width="70" x="3665" y="-3735" />
<rect fill="#84A1AE" height="70" rx="15" width="70" x="3665" y="-3835" />
<rect fill="#84A1AE" height="70" rx="15" width="70" x="3765" y="-535" />
<rect fill="#84A1AE" height="70" rx="15" width="70" x="3765" y="-635" />
<rect fill="#84A1AE" height="70" rx="15" width="70" x="3765" y="-735" />
<rect fill="#84A1AE" height="70" rx="15" width="70" x="3765" y="-835" />
<rect fill="#84A1AE" height="70" rx="15" width="70" x="3765" y="-935" />
<rect fill="#84A1AE" height="70" rx="15" width="70" x="3765" y="-1035" />
<rect fill="#84A1AE" height="70" rx="15" width="70" x="3765" y="-1135" />
<rect fill="#84A1AE" height="70" rx="15" width="70" x="3765" y="-1235" />
<rect fill="#84A1AE" height="70" rx="15" width="70" x="3765" y="-1335" />
<rect fill="#84A1AE" height="70" rx="15" width="70" x="3765" y="-1435" />
<rect fill="#84A1AE" height="70" rx="15" width="70" x="3765" y="-1535" />
<rect fill="#84A1AE" height="70" rx="15" width="70" x="3765" y="-1635" />
<rect fill="#84A1AE" height="70" rx="15" width="70" x="3765" y="-1735" />
<rect fill="#84A1AE" height="70" rx="15" width="70" x="3765" y="-1835" />
<rect fill="#84A1AE" height="70" rx="15" width="70" x="3765" y="-1935" />
<rect fill="#84A1AE" height="70" rx="15" width="70" x="3765" y="-2035" />
<rect fill="#84A1AE" height="70" rx="15" width="70" x="3765" y="-2135" />
<rect fill="#84A1AE" height="70" rx="15" width="70" x="3765" y="-2235" />
<rect fill="#84A1AE" height="70" rx="15" width="70" x="3765" y="-2335" />
<rect fill="#84A1AE" height="70" rx="15" width="70" x="3765" y="-2435" />
<rect fill="#84A1AE" height="70" rx="15" width="70" x="3765" y="-2535" />
<rect fill="#84A1AE" height="70" rx="15" width="70" x="3765" y="-2635" />
<rect fill="#84A1AE" height="70" rx="15" width="70" x="3765" y="-2735" />
<rect fill="#84A1AE" height="70" rx="15" width="70" x="3765" y="-2835" />
<rect fill="#84A1AE" height="70" rx="15" width="70" x="3765" y="-2935" />
<rect fill="#84A1AE" height="70" rx="15" width="70" x="3765" y="-3035" />
<rect fill="#84A1AE" height="70" rx="15" width="70" x="3765" y="-3135" />
<rect fill="#84A1AE" height="70" rx="15" width="70" x="3765" y="-3235" />
<rect fill="#84A1AE" height="70" rx="15" width="70" x="3765" y="-3335" />
<rect fill="#84A1AE" height="70" rx="15" width="70" x="3765" y="-3435" />
<rect fill="#84A1AE" height="70" rx="15" width="70" x="3765" y="-3535" />
<rect fill="#84A1AE" height="70" rx="15" width="70" x="3765" y="-3635" />
<rect fill="#84A1AE" height="70" rx="15" width="70" x="3765" y="-3735" />
<rect fill="#84A1AE" height="70" rx="15" width="70" x="3765" y="-3835" />
<circle cx="2500" cy="-1400" fill="#c1433c" r="35"> <animate attributeName="cy" dur="39.480000000000004s" keyTimes="0.0;0.0070422535;0.0281690141;0.0352112676;0.0422535211;0.0492957746;0.0563380282;0.0633802817;0.0704225352;0.1056338028;0.1126760563;0.1267605634;0.1338028169;0.1408450704;0.1478873239;0.161971831;0.1690140845;0.176056338;0.2042253521;0.2112676056;0.2183098592;0.2253521127;0.2323943662;0.2464788732;0.2535211268;0.2605633803;0.2676056338;0.2887323944;0.2957746479;0.323943662;0.3309859155;0.4225352113;0.4295774648;0.4577464789;0.4647887324;0.4718309859;0.4788732394;0.485915493;0.5070422535;0.514084507;0.5352112676;0.5422535211;0.5492957746;0.5563380282;0.5633802817;0.5704225352;0.5774647887;0.5845070423;0.6056338028;0.6126760563;0.6197183099;0.6267605634;0.6408450704;0.6478873239;0.6830985915;0.6901408451;0.6971830986;0.7042253521;0.7112676056;0.7183098592;0.7253521127;0.7535211268;0.7605633803;0.7676056338;0.7746478873;0.8028169014;0.8098591549;0.8450704225;0.8521126761;0.8661971831;0.8732394366;0.8802816901;0.8873239437;0.9084507042;0.9154929577;0.9436619718;0.9507042254;0.9577464789;0.9788732394;0.985915493;1.0" repeatCount="indefinite" values="-1400;-1400;-1400;-1300;-1300;-1200;-1200;-1300;-1400;-1400;-1500;-1500;-1600;-1600;-1500;-1500;-1600;-1700;-1700;-1800;-1900;-1900;-2000;-2000;-2100;-2100;-2000;-2000;-2100;-2100;-2200;-2200;-2300;-2300;-2400;-2500;-2500;-2400;-2400;-2500;-2500;-2400;-2500;-2400;-2500;-2500;-2600;-2500;-2500;-2400;-2400;-2300;-2300;-2200;-2200;-2300;-2300;-2200;-2300;-2300;-2400;-2400;-2500;-2600;-2700;-2700;-2800;-2800;-2900;-2900;-3000;-3100;-3200;-3200;-3300;-3300;-3400;-3500;-3500;-3600;-3600"/>
<animate attributeName="cx" dur="39.480000000000004s" keyTimes="0.0;0.0070422535;0.014084507;0.0211267606;0.0281690141;0.0352112676;0.0422535211;0.0492957746;0.0563380282;0.0704225352;0.0774647887;0.0845070423;0.0985915493;0.1056338028;0.1126760563;0.1197183099;0.1267605634;0.1338028169;0.1408450704;0.1549295775;0.161971831;0.176056338;0.1830985915;0.1901408451;0.1971830986;0.2183098592;0.2253521127;0.2323943662;0.2394366197;0.2535211268;0.2605633803;0.2676056338;0.2746478873;0.2816901408;0.2887323944;0.3028169014;0.3098591549;0.3169014085;0.323943662;0.3309859155;0.338028169;0.3450704225;0.3521126761;0.3591549296;0.3661971831;0.3732394366;0.3802816901;0.3873239437;0.3943661972;0.4014084507;0.4084507042;0.4154929577;0.4225352113;0.4366197183;0.4436619718;0.4507042254;0.4577464789;0.4929577465;0.5;0.5070422535;0.5211267606;0.5281690141;0.5352112676;0.5633802817;0.5704225352;0.5845070423;0.5915492958;0.5985915493;0.6056338028;0.6338028169;0.6408450704;0.6549295775;0.661971831;0.676056338;0.6830985915;0.6901408451;0.6971830986;0.7253521127;0.7323943662;0.7464788732;0.7535211268;0.7746478873;0.7816901408;0.7887323944;0.7957746479;0.8098591549;0.8169014085;0.823943662;0.8309859155;0.838028169;0.8521126761;0.8591549296;0.8661971831;0.8873239437;0.8943661972;0.9014084507;0.9154929577;0.9225352113;0.9295774648;0.9366197183;0.9436619718;0.9577464789;0.9647887324;0.9718309859;1.0" repeatCount="indefinite" values="2500;2500;2400;2300;2400;2400;2300;2300;2400;2400;2300;2200;2200;2300;2300;2200;2300;2300;2200;2200;2300;2300;2200;2200;2300;2300;2200;2200;2300;2300;2200;2200;2300;2400;2300;2300;2400;2500;2600;2600;2500;2500;2400;2300;2300;2200;2300;2300;2400;2500;2400;2500;2600;2600;2700;2800;2700;2700;2800;2700;2700;2800;2900;2900;2800;2800;2900;2900;3000;3000;2900;2900;3000;3000;3100;3100;3000;3000;2900;2900;2800;2800;2900;2900;2800;2800;2900;3000;3100;3200;3200;3100;3000;3000;3100;3000;3000;2900;2800;2800;2700;2700;2600;2500;2500"/>
<animate attributeName="visibility" dur="39.480000000000004s" keyTimes="0.0;0.0070422535;1.0" repeatCount="indefinite" values="visible;visible;visible"/> </circle>
<circle cx="3000" cy="-1900" fill="#2e6f9e" r="35"> <animate attributeName="cy" dur="39.480000000000004s" keyTimes="0.0;0.0070422535;0.014084507;0.0211267606;0.0281690141;0.0352112676;0.0422535211;0.0492957746;0.0563380282;0.0633802817;0.0704225352;0.0774647887;0.0845070423;0.0915492958;0.0985915493;0.1056338028;0.1408450704;0.1478873239;0.1549295775;0.161971831;0.1690140845;0.176056338;0.1830985915;0.1901408451;0.1971830986;0.2042253521;0.2112676056;0.2183098592;0.2253521127;0.2323943662;0.2394366197;0.2464788732;0.2535211268;0.2605633803;0.2676056338;0.2746478873;0.2816901408;0.2887323944;0.2957746479;0.3028169014;0.3098591549;0.3169014085;0.323943662;0.3309859155;0.338028169;0.3450704225;0.3521126761;0.3591549296;0.3661971831;0.4366197183;0.4436619718;0.4507042254;0.4577464789;0.4647887324;0.4718309859;0.4788732394;0.485915493;0.5;0.5070422535;0.514084507;0.5211267606;0.5281690141;0.5352112676;0.5422535211;0.5492957746;0.5563380282;0.5633802817;0.5704225352;0.5774647887;0.5845070423;0.5915492958;0.5985915493;0.6056338028;0.6126760563;0.6197183099;0.6267605634;0.6338028169;0.6408450704;0.6478873239;0.6549295775;0.661971831;0.6690140845;0.676056338;0.6830985915;0.6901408451;0.6971830986;0.7042253521;0.7112676056;0.7183098592;0.7394366197;0.7464788732;0.7535211268;0.7605633803;0.7676056338;0.7746478873;0.7816901408;0.7887323944;0.7957746479;0.8028169014;0.8098591549;0.8169014085;0.823943662;0.8309859155;0.838028169;0.8521126761;0.8591549296;0.8661971831;0.8732394366;0.8802816901;0.8873239437;0.8943661972;0.9014084507;0.9084507042;0.9366197183;0.9436619718;0.9507042254;0.9577464789;0.9647887324;0.9718309859;0.985915493;0.9929577465;1.0" repeatCount="indefinite" values="-1900;-1900;-1900;-2000;-2100;-2200;-2300;-2400;-2400;-2500;-2500;-2600;-2600;-2700;-2800;-2900;-2900;-2800;-2700;-2600;-2500;-2400;-2300;-2200;-2100;-2000;-1900;-1800;-1700;-1600;-1500;-1400;-1300;-1400;-1500;-1600;-1700;-1800;-1900;-2000;-2100;-2200;-2300;-2400;-2500;-2600;-2700;-2800;-2900;-2900;-2800;-2700;-2600;-2500;-2400;-2300;-2200;-2200;-2100;-2000;-1900;-1800;-1700;-1600;-1500;-1500;-1400;-1300;-1200;-1100;-1000;-900;-1000;-1100;-1200;-1300;-1400;-1500;-1600;-1600;-1700;-1800;-1900;-2000;-2100;-2200;-2300;-2400;-2500;-2500;-2400;-2400;-2300;-2300;-2400;-2400;-2500;-2600;-2700;-2700;-2800;-2800;-2900;-3000;-3000;-3100;-3200;-3200;-3300;-3300;-3400;-3400;-3500;-3500;-3600;-3600;-3700;-3700;-3600;-3600;-3500;-3500"/>
<animate attributeName="cx" dur="39.480000000000004s" keyTimes="0.0;0.0070422535;0.014084507;0.0492957746;0.0563380282;0.0633802817;0.0704225352;0.0774647887;0.0845070423;0.1056338028;0.1126760563;0.1197183099;0.1267605634;0.1338028169;0.1408450704;0.3661971831;0.3732394366;0.3802816901;0.3873239437;0.3943661972;0.4014084507;0.4084507042;0.4154929577;0.4225352113;0.4295774648;0.4366197183;0.485915493;0.4929577465;0.5;0.5492957746;0.5563380282;0.6478873239;0.6549295775;0.7183098592;0.7253521127;0.7323943662;0.7394366197;0.7464788732;0.7535211268;0.7605633803;0.7676056338;0.7746478873;0.7816901408;0.8028169014;0.8098591549;0.8169014085;0.823943662;0.838028169;0.8450704225;0.8521126761;0.8661971831;0.8732394366;0.8802816901;0.8873239437;0.8943661972;0.9014084507;0.9084507042;0.9154929577;0.9225352113;0.9295774648;0.9366197183;0.9436619718;0.9507042254;0.9577464789;0.9647887324;0.9718309859;0.9788732394;0.985915493;1.0" repeatCount="indefinite" values="3000;3000;2900;2900;2800;2800;2700;2700;2600;2600;2700;2800;2900;3000;2900;2900;3000;2900;2800;2700;2600;2500;2400;2300;2200;2100;2100;2000;1900;1900;2000;2000;1900;1900;2000;2100;2200;2200;2300;2300;2200;2200;2100;2100;2000;2000;1900;1900;1800;1700;1700;1600;1600;1500;1500;1400;1400;1300;1200;1100;1000;1000;900;900;1000;1000;1100;1200;1200"/>
<animate attributeName="visibility" dur="39.480000000000004s" keyTimes="0.0;0.0070422535;1.0" repeatCount="indefinite" values="visible;visible;visible"/> </circle>
<circle cx="3500" cy="-3000" fill="none" r="35" stroke="#c1433c" stroke-width="10"> <animate attributeName="cy" dur="39.480000000000004s" keyTimes="0.0;0.0070422535;1.0" repeatCount="indefinite" values="-3000;-3000;-3000"/>
<animate attributeName="cx" dur="39.480000000000004s" keyTimes="0.0;0.0070422535;1.0" repeatCount="indefinite" values="3500;3500;3500"/>
<animate attributeName="visibility" dur="39.480000000000004s" keyTimes="0.0;0.0070422535;1.0" repeatCount="indefinite" values="visible;visible;visible"/> </circle>
<circle cx="2600" cy="-2600" fill="none" r="35" stroke="#2e6f9e" stroke-width="10"> <animate attributeName="cy" dur="39.480000000000004s" keyTimes="0.0;0.0070422535;0.0774647887;0.0845070423;0.1267605634;0.1338028169;0.2464788732;0.2535211268;0.3661971831;0.3732394366;0.5915492958;0.5985915493;0.7042253521;0.7112676056;0.7535211268;0.7605633803;0.9507042254;0.9577464789;1.0" repeatCount="indefinite" values="-2600;-2600;-2600;-2900;-2900;-1300;-1300;-2900;-2900;-900;-900;-2400;-2400;-2300;-2300;-3700;-3700;-2400;-2400"/>
<animate attributeName="cx" dur="39.480000000000004s" keyTimes="0.0;0.0070422535;0.0774647887;0.0845070423;0.1267605634;0.1338028169;0.2464788732;0.2535211268;0.3661971831;0.3732394366;0.5915492958;0.5985915493;0.7042253521;0.7112676056;0.7535211268;0.7605633803;0.9507042254;0.9577464789;1.0" repeatCount="indefinite" values="2600;2600;2600;3000;3000;2900;2900;3000;3000;2000;2000;1900;1900;2300;2300;900;900;1900;1900"/>
<animate attributeName="visibility" dur="39.480000000000004s" keyTimes="0.0;0.0070422535;1.0" repeatCount="indefinite" values="visible;visible;visible"/> </circle>
</svg>