<?xml version="1.0" encoding="UTF-8"?>
        <svg xmlns="http://www.w3.org/2000/svg" xmlns:xlink="http://www.w3.org/1999/xlink"
             width="430" height="430" viewBox="0 -4300 4300 4300">

<defs>

</defs>

<rect fill="#84A1AE" height="70" rx="15" width="70" x="465" y="-535" />
<rect fill="#84A1AE" height="70" rx="15" width="70" x="465" y="-635" />
<rect fill="#84A1AE" height="70" rx="15" width="70" x="465" y="-735" />
<rect fill="#84A1AE" height="70" rx="15" width="70" x="465" y="-835" />
<rect fill="#84A1AE" height="70" rx="15" width="70" x="465" y="-935" />
<rect fill="#84A1AE" height="70" rx="15" width="70" x="465" y="-1035" />
<rect fill="#84A1AE" height="70" rx="15" width="70" x="465" y="-1135" />
<rect fill="#84A1AE" height="70" rx="15" width="70" x="465" y="-1235" />
<rect fill="#84A1AE" height="70" rx="15" width="70" x="465" y="-1335" />
<rect fill="#84A1AE" height="70" rx="15" width="70" x="465" y="-1435" />
<rect fill="#84A1AE" height="70" rx="15" width="70" x="465" y="-1535" />
<rect fill="#84A1AE" height="70" rx="15" width="70" x="465" y="-1635" />
<rect fill="#84A1AE" height="70" rx="15" width="70" x="465" y="-1735" />
<rect fill="#84A1AE" height="70" rx="15" width="70" x="465" y="-1835" />
<rect fill="#84A1AE" height="70" rx="15" width="70" x="465" y="-1935" />
<rect fill="#84A1AE" height="70" rx="15" width="70" x="465" y="-2035" />
<rect fill="#84A1AE" height="70" rx="15" width="70" x="465" y="-2135" />
<rect fill="#84A1AE" height="70" rx="15" width="70" x="465" y="-2235" />
<rect fill="#84A1AE" height="70" rx="15" width="70" x="465" y="-2335" />
<rect fill="#84A1AE" height="70" rx="15" width="70" x="465" y="-2435" />
<rect fill="#84A1AE" height="70" rx="15" width="70" x="465" y="-2535" />
<rect fill="#84A1AE" height="70" rx="15" width="70" x="465" y="-2635" />
<rect fill="#84A1AE" height="70" rx="15" width="70" x="465" y="-2735" />
<rect fill="#84A1AE" height="70" rx="15" width="70" x="465" y="-2835" />
<rect fill="#84A1AE" height="70" rx="15" width="70" x="465" y="-2935" />
<rect fill="#84A1AE" height="70" rx="15" width="70" x="465" y="-3035" />
<rect fill="#84A1AE" height="70" rx="15" width="70" x="465" y="-3135" />
<rect fill="#84A1AE" height="70" rx="15" width="70" x="465" y="-3235" />
<rect fill="#84A1AE" height="70" rx="15" width="70" x="465" y="-3335" />
<rect fill="#84A1AE" height="70" rx="15" width="70" x="465" y="-3435" />
<rect fill="#84A1AE" height="70" rx="15" width="70" x="465" y="-3535" />
<rect fill="#84A1AE" height="70" rx="15" width="70" x="465" y="-3635" />
<rect fill="#84A1AE" height="70" rx="15" width="70" x="465" y="-3735" />
<rect fill="#84A1AE" height="70" rx="15" width="70" x="465" y="-3835" />
<rect fill="#84A1AE" height="70" rx="15" width="70" x="565" y="-535" />
<rect fill="#84A1AE" height="70" rx="15" width="70" x="565" y="-1635" />
<rect fill="#84A1AE" height="70" rx="15" width="70" x="565" y="-1935" />
<rect fill="#84A1AE" height="70" rx="15" width="70" x="565" y="-2735" />
<rect fill="#84A1AE" height="70" rx="15" width="70" x="565" y="-3835" />
<rect fill="#84A1AE" height="70" rx="15" width="70" x="665" y="-535" />
<rect fill="#84A1AE" height="70" rx="15" width="70" x="665" y="-1035" />
<rect fill="#84A1AE" height="70" rx="15" width="70" x="665" y="-2535" />
<rect fill="#84A1AE" height="70" rx="15" width="70" x="665" y="-3035" />
<rect fill="#84A1AE" height="70" rx="15" width="70" x="665" y="-3235" />
<rect fill="#84A1AE" height="70" rx="15" width="70" x="665" y="-3835" />
<rect fill="#84A1AE" height="70" rx="15" width="70" x="765" y="-535" />
<rect fill="#84A1AE" height="70" rx="15" width="70" x="765" y="-635" />
<rect fill="#84A1AE" height="70" rx="15" width="70" x="765" y="-3835" />
<rect fill="#84A1AE" height="70" rx="15" width="70" x="865" y="-535" />
<rect fill="#84A1AE" height="70" rx="15" width="70" x="865" y="-2435" />
<rect fill="#84A1AE" height="70" rx="15" width="70" x="865" y="-2535" />
<rect fill="#84A1AE" height="70" rx="15" width="70" x="865" y="-3335" />
<rect fill="#84A1AE" height="70" rx="15" width="70" x="865" y="-3435" />
<rect fill="#84A1AE" height="70" rx="15" width="70" x="865" y="-3835" />
<rect fill="#84A1AE" height="70" rx="15" width="70" x="965" y="-535" />
<rect fill="#84A1AE" height="70" rx="15" width="70" x="965" y="-735" />
<rect fill="#84A1AE" height="70" rx="15" width="70" x="965" y="-1635" />
<rect fill="#84A1AE" height="70" rx="15" width="70" x="965" y="-1835" />
<rect fill="#84A1AE" height="70" rx="15" width="70" x="965" y="-2835" />
<rect fill="#84A1AE" height="70" rx="15" width="70" x="965" y="-3435" />
<rect fill="#84A1AE" height="70" rx="15" width="70" x="965" y="-3835" />
<rect fill="#84A1AE" height="70" rx="15" width="70" x="1065" y="-535" />
<rect fill="#84A1AE" height="70" rx="15" width="70" x="1065" y="-1135" />
<rect fill="#84A1AE" height="70" rx="15" width="70" x="1065" y="-1835" />
<rect fill="#84A1AE" height="70" rx="15" width="70" x="1065" y="-3735" />
<rect fill="#84A1AE" height="70" rx="15" width="70" x="1065" y="-3835" />
<rect fill="#84A1AE" height="70" rx="15" width="70" x="1165" y="-535" />
<rect fill="#84A1AE" height="70" rx="15" width="70" x="1165" y="-635" />
<rect fill="#84A1AE" height="70" rx="15" width="70" x="1165" y="-735" />
<rect fill="#84A1AE" height="70" rx="15" width="70" x="1165" y="-1535" />
<rect fill="#84A1AE" height="70" rx="15" width="70" x="1165" y="-3835" />
<rect fill="#84A1AE" height="70" rx="15" width="70" x="1265" y="-535" />
<rect fill="#84A1AE" height="70" rx="15" width="70" x="1265" y="-2835" />
<rect fill="#84A1AE" height="70" rx="15" width="70" x="1265" y="-3435" />
<rect fill="#84A1AE" height="70" rx="15" width="70" x="1265" y="-3835" />
<rect fill="#84A1AE" height="70" rx="15" width="70" x="1365" y="-535" />
<rect fill="#84A1AE" height="70" rx="15" width="70" x="1365" y="-835" />
<rect fill="#84A1AE" height="70" rx="15" width="70" x="1365" y="-935" />
<rect fill="#84A1AE" height="70" rx="15" width="70" x="1365" y="-1035" />
<rect fill="#84A1AE" height="70" rx="15" width="70" x="1365" y="-1935" />
<rect fill="#84A1AE" height="70" rx="15" width="70" x="1365" y="-2335" />
<rect fill="#84A1AE" height="70" rx="15" width="70" x="1365" y="-2635" />
<rect fill="#84A1AE" height="70" rx="15" width="70" x="1365" y="-2835" />
<rect fill="#84A1AE" height="70" rx="15" width="70" x="1365" y="-2935" />
<rect fill="#84A1AE" height="70" rx="15" width="70" x="1365" y="-3035" />
<rect fill="#84A1AE" height="70" rx="15" width="70" x="1365" y="-3335" />
<rect fill="#84A1AE" height="70" rx="15" width="70" x="1365" y="-3835" />
<rect fill="#84A1AE" height="70" rx="15" width="70" x="1465" y="-535" />
<rect fill="#84A1AE" height="70" rx="15" width="70" x="1465" y="-1235" />
<rect fill="#84A1AE" height="70" rx="15" width="70" x="1465" y="-1535" />
<rect fill="#84A1AE" height="70" rx="15" width="70" x="1465" y="-2035" />
<rect fill="#84A1AE" height="70" rx="15" width="70" x="1465" y="-3135" />
<rect fill="#84A1AE" height="70" rx="15" width="70" x="1465" y="-3235" />
<rect fill="#84A1AE" height="70" rx="15" width="70" x="1465" y="-3835" />
<rect fill="#84A1AE" height="70" rx="15" width="70" x="1565" y="-535" />
<rect fill="#84A1AE" height="70" rx="15" width="70" x="1565" y="-3035" />
<rect fill="#84A1AE" height="70" rx="15" width="70" x="1565" y="-3835" />
<rect fill="#84A1AE" height="70" rx="15" width="70" x="1665" y="-535" />
<rect fill="#84A1AE" height="70" rx="15" width="70" x="1665" y="-3735" />
<rect fill="#84A1AE" height="70" rx="15" width="70" x="1665" y="-3835" />
<rect fill="#84A1AE" height="70" rx="15" width="70" x="1765" y="-535" />
<rect fill="#84A1AE" height="70" rx="15" width="70" x="1765" y="-1235" />
<rect fill="#84A1AE" height="70" rx="15" width="70" x="1765" y="-3835" />
<rect fill="#84A1AE" height="70" rx="15" width="70" x="1865" y="-535" />
<rect fill="#84A1AE" height="70" rx="15" width="70" x="1865" y="-735" />
<rect fill="#84A1AE" height="70" rx="15" width="70" x="1865" y="-1335" />
<rect fill="#84A1AE" height="70" rx="15" width="70" x="1865" y="-3235" />
<rect fill="#84A1AE" height="70" rx="15" width="70" x="1865" y="-3435" />
<rect fill="#84A1AE" height="70" rx="15" width="70" x="1865" y="-3835" />
<rect fill="#84A1AE" height="70" rx="15" width="70" x="1965" y="-535" />
<rect fill="#84A1AE" height="70" rx="15" width="70" x="1965" y="-635" />
<rect fill="#84A1AE" height="70" rx="15" width="70" x="1965" y="-1835" />
<rect fill="#84A1AE" height="70" rx="15" width="70" x="1965" y="-1935" />
<rect fill="#84A1AE" height="70" rx="15" width="70" x="1965" y="-2135" />
<rect fill="#84A1AE" height="70" rx="15" width="70" x="1965" y="-2335" />
<rect fill="#84A1AE" height="70" rx="15" width="70" x="1965" y="-2435" />
<rect fill="#84A1AE" height="70" rx="15" width="70" x="1965" y="-3335" />
<rect fill="#84A1AE" height="70" rx="15" width="70" x="1965" y="-3835" />
<rect fill="#84A1AE" height="70" rx="15" width="70" x="2065" y="-535" />
<rect fill="#84A1AE" height="70" rx="15" width="70" x="2065" y="-1535" />
<rect fill="#84A1AE" height="70" rx="15" width="70" x="2065" y="-1635" />
<rect fill="#84A1AE" height="70" rx="15" width="70" x="2065" y="-2135" />
<rect fill="#84A1AE" height="70" rx="15" width="70" x="2065" y="-3835" />
<rect fill="#84A1AE" height="70" rx="15" width="70" x="2165" y="-535" />
<rect fill="#84A1AE" height="70" rx="15" width="70" x="2165" y="-935" />
<rect fill="#84A1AE" height="70" rx="15" width="70" x="2165" y="-1335" />
<rect fill="#84A1AE" height="70" rx="15" width="70" x="2165" y="-1835" />
<rect fill="#84A1AE" height="70" rx="15" width="70" x="2165" y="-3835" />
<rect fill="#84A1AE" height="70" rx="15" width="70" x="2265" y="-535" />
<rect fill="#84A1AE" height="70" rx="15" width="70" x="2265" y="-935" />
<rect fill="#84A1AE" height="70" rx="15" width="70" x="2265" y="-1135" />
<rect fill="#84A1AE" height="70" rx="15" width="70" x="2265" y="-2535" />
<rect fill="#84A1AE" height="70" rx="15" width="70" x="2265" y="-3235" />
<rect fill="#84A1AE" height="70" rx="15" width="70" x="2265" y="-3835" />
<rect fill="#84A1AE" height="70" rx="15" width="70" x="2365" y="-535" />
<rect fill="#84A1AE" height="70" rx="15" width="70" x="2365" y="-935" />
<rect fill="#84A1AE" height="70" rx="15" width="70" x="2365" y="-1035" />
<rect fill="#84A1AE" height="70" rx="15" width="70" x="2365" y="-3835" />
<rect fill="#84A1AE" height="70" rx="15" width="70" x="2465" y="-535" />
<rect fill="#84A1AE" height="70" rx="15" width="70" x="2465" y="-935" />
<rect fill="#84A1AE" height="70" rx="15" width="70" x="2465" y="-1535" />
<rect fill="#84A1AE" height="70" rx="15" width="70" x="2465" y="-2335" />
<rect fill="#84A1AE" height="70" rx="15" width="70" x="2465" y="-2735" />
<rect fill="#84A1AE" height="70" rx="15" width="70" x="2465" y="-3835" />
<rect fill="#84A1AE" height="70" rx="15" width="70" x="2565" y="-535" />
<rect fill="#84A1AE" height="70" rx="15" width="70" x="2565" y="-735" />
<rect fill="#84A1AE" height="70" rx="15" width="70" x="2565" y="-2535" />
<rect fill="#84A1AE" height="70" rx="15" width="70" x="2565" y="-3835" />
<rect fill="#84A1AE" height="70" rx="15" width="70" x="2665" y="-535" />
<rect fill="#84A1AE" height="70" rx="15" width="70" x="2665" y="-635" />
<rect fill="#84A1AE" height="70" rx="15" width="70" x="2665" y="-1135" />
<rect fill="#84A1AE" height="70" rx="15" width="70" x="2665" y="-1435" />
<rect fill="#84A1AE" height="70" rx="15" width="70" x="2665" y="-2735" />
<rect fill="#84A1AE" height="70" rx="15" width="70" x="2665" y="-3835" />
<rect fill="#84A1AE" height="70" rx="15" width="70" x="2765" y="-535" />
<rect fill="#84A1AE" height="70" rx="15" width="70" x="2765" y="-1635" />
<rect fill="#84A1AE" height="70" rx="15" width="70" x="2765" y="-1835" />
<rect fill="#84A1AE" height="70" rx="15" width="70" x="2765" y="-1935" />
<rect fill="#84A1AE" height="70" rx="15" width="70" x="2765" y="-2235" />
<rect fill="#84A1AE" height="70" rx="15" width="70" x="2765" y="-3735" />
<rect fill="#84A1AE" height="70" rx="15" width="70" x="2765" y="-3835" />
<rect fill="#84A1AE" height="70" rx="15" width="70" x="2865" y="-535" />
<rect fill="#84A1AE" height="70" rx="15" width="70" x="2865" y="-3835" />
<rect fill="#84A1AE" height="70" rx="15" width="70" x="2965" y="-535" />
<rect fill="#84A1AE" height="70" rx="15" width="70" x="2965" y="-2635" />
<rect fill="#84A1AE" height="70" rx="15" width="70" x="2965" y="-3835" />
<rect fill="#84A1AE" height="70" rx="15" width="70" x="3065" y="-535" />
<rect fill="#84A1AE" height="70" rx="15" width="70" x="3065" y="-735" />
<rect fill="#84A1AE" height="70" rx="15" width="70" x="3065" y="-2535" />
<rect fill="#84A1AE" height="70" rx="15" width="70" x="3065" y="-3835" />
<rect fill="#84A1AE" height="70" rx="15" width="70" x="3165" y="-535" />
<rect fill="#84A1AE" height="70" rx="15" width="70" x="3165" y="-835" />
<rect fill="#84A1AE" height="70" rx="15" width="70" x="3165" y="-1935" />
<rect fill="#84A1AE" height="70" rx="15" width="70" x="3165" y="-2735" />
<rect fill="#84A1AE" height="70" rx="15" width="70" x="3165" y="-3135" />
<rect fill="#84A1AE" height="70" rx="15" width="70" x="3165" y="-3835" />
<rect fill="#84A1AE" height="70" rx="15" width="70" x="3265" y="-535" />
<rect fill="#84A1AE" height="70" rx="15" width="70" x="3265" y="-1035" />
<rect fill="#84A1AE" height="70" rx="15" width="70" x="3265" y="-1735" />
<rect fill="#84A1AE" height="70" rx="15" width="70" x="3265" y="-3835" />
<rect fill="#84A1AE" height="70" rx="15" width="70" x="3365" y="-535" />
<rect fill="#84A1AE" height="70" rx="15" width="70" x="3365" y="-1435" />
<rect fill="#84A1AE" height="70" rx="15" width="70" x="3365" y="-1935" />
<rect fill="#84A1AE" height="70" rx="15" width="70" x="3365" y="-2135" />
<rect fill="#84A1AE" height="70" rx="15" width="70" x="3365" y="-3835" />
<rect fill="#84A1AE" height="70" rx="15" width="70" x="3465" y="-535" />
<rect fill="#84A1AE" height="70" rx="15" width="70" x="3465" y="-2635" />
<rect fill="#84A1AE" height="70" rx="15" width="70" x="3465" y="-3835" />
<rect fill="#84A1AE" height="70" rx="15" width="70" x="3565" y="-535" />
<rect fill="#84A1AE" height="70" rx="15" width="70" x="3565" y="-635" />
<rect fill="#84A1AE" height="70" rx="15" width="70" x="3565" y="-2435" />
<rect fill="#84A1AE" height="70" rx="15" width="70" x="3565" y="-3235" />
<rect fill="#84A1AE" height="70" rx="15" width="70" x="3565" y="-3835" />
<rect fill="#84A1AE" height="70" rx="15" width="70" x="3665" y="-535" />
<rect fill="#84A1AE" height="70" rx="15" width="70" x="3665" y="-2135" />
<rect fill="#84A1AE" height="70" rx="15" width="70" x="3665" y="-2835" />
<rect fill="#84A1AE" height="70" rx="15" width="70" x="3665" y="-3135" />
<rect fill="#84A1AE" height="70" rx="15" width="70" x="3665" y="-3735" />
<rect fill="#84A1AE" height="70" rx="15" width="70" x="3665" y="-3835" />
<rect fill="#84A1AE" height="70" rx="15" width="70" x="3765" y="-535" />
<rect fill="#84A1AE" height="70" rx="15" width="70" x="3765" y="-635" />
<rect fill="#84A1AE" height="70" rx="15" width="70" x="3765" y="-735" />
<rect fill="#84A1AE" height="70" rx="15" width="70" x="3765" y="-835" />
<rect fill="#84A1AE" height="70" rx="15" width="70" x="3765" y="-935" />
<rect fill="#84A1AE" height="70" rx="15" width="70" x="3765" y="-1035" />
<rect fill="#84A1AE" height="70" rx="15" width="70" x="3765" y="-1135" />
<rect fill="#84A1AE" height="70" rx="15" width="70" x="3765" y="-1235" />
<rect fill="#84A1AE" height="70" rx="15" width="70" x="3765" y="-1335" />
<rect fill="#84A1AE" height="70" rx="15" width="70" x="3765" y="-1435" />
<rect fill="#84A1AE" height="70" rx="15" width="70" x="3765" y="-1535" />
<rect fill="#84A1AE" height="70" rx="15" width="70" x="3765" y="-1635" />
<rect fill="#84A1AE" height="70" rx="15" width="70" x="3765" y="-1735" />
<rect fill="#84A1AE" height="70" rx="15" width="70" x="3765" y="-1835" />
<rect fill="#84A1AE" height="70" rx="15" width="70" x="3765" y="-1935" />
<rect fill="#84A1AE" height="70" rx="15" width="70" x="3765" y="-2035" />
<rect fill="#84A1AE" height="70" rx="15" width="70" x="3765" y="-2135" />
<rect fill="#84A1AE" height="70" rx="15" width="70" x="3765" y="-2235" />
<rect fill="#84A1AE" height="70" rx="15" width="70" x="3765" y="-2335" />
<rect fill="#84A1AE" height="70" rx="15" width="70" x="3765" y="-2435" />
<rect fill="#84A1AE" height="70" rx="15" width="70" x="3765" y="-2535" />
<rect fill="#84A1AE" height="70" rx="15" width="70" x="3765" y="-2635" />
<rect fill="#84A1AE" height="70" rx="15" width="70" x="3765" y="-2735" />
<rect fill="#84A1AE" height="70" rx="15" width="70" x="3765" y="-2835" />
<rect fill="#84A1AE" height="70" rx="15" width="70" x="3765" y="-2935" />
<rect fill="#84A1AE" height="70" rx="15" width="70" x="3765" y="-3035" />
<rect fill="#84A1AE" height="70" rx="15" width="70" x="3765" y="-3135" />
<rect fill="#84A1AE" height="70" rx="15" width="70" x="3765" y="-3235" />
<rect fill="#84A1AE" height="70" rx="15" width="70" x="3765" y="-3335" />
<rect fill="#84A1AE" height="70" rx="15" width="70" x="3765" y="-3435" />
<rect fill="#84A1AE" height="70" rx="15" width="70" x="3765" y="-3535" />
<rect fill="#84A1AE" height="70" rx="15" width="70" x="3765" y="-3635" />
<rect fill="#84A1AE" height="70" rx="15" width="70" x="3765" y="-3735" />
<rect fill="#84A1AE" height="70" rx="15" width="70" x="3765" y="-3835" />
<circle cx="2500" cy="-1400" fill="#c1433c" r="35"> <animate attributeName="cy" dur="47.88s" keyTimes="0.0;0.0058139535;0.011627907;0.0174418605;0.023255814;0.0290697674;0.0348837209;0.0406976744;0.0465116279;0.0523255814;0.0581395349;0.0639534884;0.0697674419;0.0755813953;0.0813953488;0.0872093023;0.0930232558;0.0988372093;0.1046511628;0.1104651163;0.1162790698;0.261627907;0.2674418605;0.2790697674;0.2848837209;0.2906976744;0.3372093023;0.3430232558;0.3488372093;0.3546511628;0.3604651163;0.3662790698;0.3720930233;0.3779069767;0.3837209302;0.3895348837;0.3953488372;0.4011627907;0.4069767442;0.4127906977;0.4186046512;0.4244186047;0.4302325581;0.4360465116;0.4418604651;0.4476744186;0.4534883721;0.4593023256;0.4651162791;0.4709302326;0.476744186;0.4825581395;0.488372093;0.4941860465;0.5;0.5348837209;0.5406976744;0.5465116279;0.5523255814;0.5581395349;0.5639534884;0.5697674419;0.5813953488;0.5872093023;0.5930232558;0.6046511628;0.6104651163;0.6162790698;0.6337209302;0.6395348837;0.6453488372;0.6511627907;0.6627906977;0.6686046512;0.7906976744;0.7965116279;0.8023255814;0.8081395349;0.8139534884;0.8197674419;0.8255813953;0.8313953488;0.8372093023;0.8430232558;0.8488372093;0.8546511628;0.8604651163;0.8662790698;0.8720930233;0.8779069767;0.8837209302;0.8895348837;0.8953488372;0.9011627907;0.9069767442;0.9127906977;0.9186046512;0.9244186047;0.9302325581;0.9360465116;0.9476744186;0.9534883721;0.9593023256;0.9651162791;0.9709302326;0.9825581395;0.988372093;0.9941860465;1.0" repeatCount="indefinite" values="-1400;-1400;-1400;-1500;-1600;-1700;-1800;-1900;-2000;-2100;-2200;-2300;-2400;-2400;-2500;-2600;-2600;-2700;-2800;-2900;-3000;-3000;-2900;-2900;-2800;-2700;-2700;-2600;-2600;-2500;-2400;-2300;-2200;-2100;-2000;-2000;-1900;-1800;-1700;-1600;-1500;-1500;-1400;-1300;-1200;-1300;-1400;-1500;-1500;-1600;-1700;-1800;-1900;-2000;-2100;-2100;-2200;-2300;-2400;-2500;-2600;-2700;-2700;-2800;-2900;-2900;-3000;-3100;-3100;-3200;-3200;-3300;-3300;-3400;-3400;-3300;-3200;-3100;-3000;-2900;-2800;-2700;-2600;-2500;-2400;-2300;-2200;-2100;-2000;-1900;-1800;-1700;-1600;-1500;-1400;-1300;-1200;-1100;-1100;-1200;-1200;-1300;-1400;-1500;-1600;-1600;-1700;-1800;-1800"/>
<animate attributeName="cx" dur="47.88s" keyTimes="0.0;0.0058139535;0.011627907;0.0697674419;0.0755813953;0.0872093023;0.0930232558;0.1162790698;0.1220930233;0.1279069767;0.1337209302;0.1395348837;0.1453488372;0.1511627907;0.1569767442;0.1627906977;0.1686046512;0.1744186047;0.1802325581;0.1860465116;0.1918604651;0.1976744186;0.2034883721;0.2093023256;0.2151162791;0.2209302326;0.226744186;0.2325581395;0.238372093;0.2441860465;0.25;0.2558139535;0.261627907;0.2674418605;0.273255814;0.2790697674;0.2906976744;0.2965116279;0.3023255814;0.3081395349;0.3139534884;0.3197674419;0.3255813953;0.3313953488;0.3372093023;0.3430232558;0.3488372093;0.3837209302;0.3895348837;0.4186046512;0.4244186047;0.4593023256;0.4651162791;0.5;0.5058139535;0.511627907;0.5174418605;0.523255814;0.5290697674;0.5348837209;0.5697674419;0.5755813953;0.5813953488;0.5930232558;0.5988372093;0.6046511628;0.6162790698;0.6220930233;0.6279069767;0.6337209302;0.6395348837;0.6453488372;0.6569767442;0.6627906977;0.6686046512;0.6744186047;0.6802325581;0.6860465116;0.6918604651;0.6976744186;0.7034883721;0.7093023256;0.7151162791;0.7209302326;0.726744186;0.7325581395;0.738372093;0.7441860465;0.75;0.7558139535;0.761627907;0.7674418605;0.773255814;0.7790697674;0.7848837209;0.7906976744;0.9244186047;0.9302325581;0.9360465116;0.9418604651;0.9476744186;0.9709302326;0.976744186;0.9825581395;1.0" repeatCount="indefinite" values="2500;2500;2600;2600;2700;2700;2800;2800;2900;3000;3100;3200;3300;3400;3500;3400;3300;3200;3100;3000;2900;2800;2700;2600;2500;2400;2300;2200;2100;2000;1900;1800;1700;1700;1600;1500;1500;1400;1300;1200;1100;1000;900;800;700;700;600;600;700;700;600;600;700;700;800;900;1000;1100;1200;1300;1300;1400;1500;1500;1600;1700;1700;1800;1900;2000;2000;2100;2100;2200;2200;2300;2400;2500;2600;2700;2800;2900;3000;3100;3200;3300;3400;3500;3600;3500;3400;3300;3200;3100;3000;2900;2900;2800;2800;2700;2600;2600;2500;2400;2400"/>
<animate attributeName="visibility" dur="47.88s" keyTimes="0.0;0.0058139535;1.0" repeatCount="indefinite" values="visible;visible;visible"/> </circle>
<circle cx="3000" cy="-1900" fill="#2e6f9e" r="35"> <animate attributeName="cy" dur="47.88s" keyTimes="0.0;0.0058139535;0.011627907;0.0174418605;0.023255814;0.0290697674;0.0348837209;0.0523255814;0.0581395349;0.0697674419;0.0755813953;0.0813953488;0.0872093023;0.0930232558;0.1046511628;0.1104651163;0.1162790698;0.1220930233;0.1511627907;0.1569767442;0.1627906977;0.1686046512;0.1744186047;0.1802325581;0.1860465116;0.1918604651;0.1976744186;0.25;0.2558139535;0.261627907;0.2674418605;0.273255814;0.2790697674;0.2848837209;0.2906976744;0.2965116279;0.3313953488;0.3372093023;0.3430232558;0.3488372093;0.3546511628;0.3604651163;0.3662790698;0.3720930233;0.3779069767;0.3837209302;0.3895348837;0.3953488372;0.4011627907;0.4069767442;0.4127906977;0.4186046512;0.4244186047;0.4360465116;0.4418604651;0.4476744186;0.4534883721;0.4593023256;0.4651162791;0.4709302326;0.476744186;0.5;0.5058139535;0.511627907;0.5174418605;0.523255814;0.5290697674;0.5348837209;0.5406976744;0.5465116279;0.5523255814;0.5581395349;0.5639534884;0.5697674419;0.5755813953;0.5813953488;0.5872093023;0.5930232558;0.6104651163;0.6162790698;0.6220930233;0.6279069767;0.6337209302;0.6395348837;0.6453488372;0.6511627907;0.6860465116;0.6918604651;0.726744186;0.7325581395;0.738372093;0.7441860465;0.75;0.7558139535;0.761627907;0.7906976744;0.7965116279;0.8023255814;0.8081395349;0.8139534884;0.8197674419;0.8372093023;0.8430232558;0.8488372093;0.8546511628;0.8720930233;0.8779069767;0.8837209302;0.8895348837;0.9011627907;0.9069767442;0.9186046512;0.9244186047;0.9302325581;0.9360465116;0.9418604651;0.9476744186;0.9651162791;0.9709302326;1.0" repeatCount="indefinite" values="-1900;-1900;-2000;-2100;-2000;-2000;-2100;-2100;-2200;-2200;-2100;-2200;-2300;-2400;-2400;-2300;-2300;-2400;-2400;-2300;-2400;-2400;-2300;-2400;-2300;-2200;-2100;-2100;-2200;-2200;-2300;-2200;-2200;-2300;-2300;-2400;-2400;-2500;-2600;-2600;-2700;-2800;-2800;-2700;-2800;-2700;-2800;-2900;-3000;-2900;-3000;-3100;-3000;-3000;-3100;-3100;-3200;-3200;-3100;-3100;-3000;-3000;-3100;-3100;-3000;-3000;-3100;-3100;-3200;-3300;-3200;-3200;-3100;-3200;-3100;-3200;-3100;-3200;-3200;-3300;-3400;-3500;-3400;-3500;-3500;-3400;-3400;-3300;-3300;-3400;-3300;-3400;-3500;-3600;-3700;-3700;-3600;-3500;-3400;-3500;-3600;-3600;-3500;-3400;-3500;-3500;-3600;-3600;-3500;-3500;-3400;-3400;-3300;-3300;-3200;-3300;-3400;-3400;-3300;-3300"/>
<animate attributeName="cx" dur="47.88s" keyTimes="0.0;0.0058139535;0.0348837209;0.0406976744;0.0465116279;0.0523255814;0.0581395349;0.0639534884;0.1104651163;0.1162790698;0.1220930233;0.1279069767;0.1337209302;0.1395348837;0.1627906977;0.1686046512;0.1976744186;0.2034883721;0.2093023256;0.2151162791;0.2209302326;0.226744186;0.238372093;0.2441860465;0.25;0.2848837209;0.2906976744;0.2965116279;0.3023255814;0.3081395349;0.3139534884;0.3197674419;0.3255813953;0.3313953488;0.3430232558;0.3488372093;0.3604651163;0.3662790698;0.4302325581;0.4360465116;0.4534883721;0.4593023256;0.4651162791;0.4709302326;0.476744186;0.4825581395;0.488372093;0.4941860465;0.5;0.5290697674;0.5348837209;0.5523255814;0.5581395349;0.6511627907;0.6569767442;0.6627906977;0.6686046512;0.6744186047;0.6802325581;0.6860465116;0.6918604651;0.6976744186;0.7093023256;0.7151162791;0.7209302326;0.761627907;0.7674418605;0.8197674419;0.8255813953;0.8313953488;0.8372093023;0.8546511628;0.8604651163;0.8662790698;0.8720930233;0.8779069767;0.8837209302;0.8895348837;0.8953488372;0.9011627907;0.9069767442;0.9127906977;0.9186046512;0.9244186047;0.9302325581;0.9476744186;0.9534883721;0.9593023256;0.9709302326;0.976744186;0.9825581395;0.988372093;0.9941860465;1.0" repeatCount="indefinite" values="3000;3000;3000;2900;2900;3000;3000;3100;3100;3000;3000;3100;3000;3100;3100;3000;3000;2900;2800;2900;2800;2900;2900;2800;2900;2900;3000;3000;2900;2800;2700;2600;2700;2800;2800;2900;2900;2800;2800;2700;2700;2600;2600;2500;2500;2400;2500;2400;2300;2300;2200;2200;2100;2100;2000;2100;2100;2000;2100;2200;2200;2100;2100;2200;2100;2100;2000;2000;2100;2200;2300;2300;2200;2200;2100;2100;2200;2200;2100;2200;2200;2300;2200;2200;2100;2100;2000;2100;2100;2200;2100;2100;2200;2200"/>
<animate attributeName="visibility" dur="47.88s" keyTimes="0.0;0.0058139535;1.0" repeatCount="indefinite" values="visible;visible;visible"/> </circle>
<circle cx="3500" cy="-3000" fill="none" r="35" stroke="#c1433c" stroke-width="10"> <animate attributeName="cy" dur="47.88s" keyTimes="0.0;0.0058139535;0.1511627907;0.1569767442;0.4360465116;0.4418604651;0.5290697674;0.5348837209;0.7441860465;0.75;0.9186046512;0.9244186047;1.0" repeatCount="indefinite" values="-3000;-3000;-3000;-1200;-1200;-2100;-2100;-3400;-3400;-1100;-1100;-2300;-2300"/>
<animate attributeName="cx" dur="47.88s" keyTimes="0.0;0.0058139535;0.1511627907;0.1569767442;0.4360465116;0.4418604651;0.5290697674;0.5348837209;0.7441860465;0.75;0.9186046512;0.9244186047;1.0" repeatCount="indefinite" values="3500;3500;3500;600;600;1300;1300;3600;3600;2900;2900;1600;1600"/>
<animate attributeName="visibility" dur="47.88s" keyTimes="0.0;0.0058139535;1.0" repeatCount="indefinite" values="visible;visible;visible"/> </circle>
<circle cx="2600" cy="-2600" fill="none" r="35" stroke="#2e6f9e" stroke-width="10"> <animate attributeName="cy" dur="47.88s" keyTimes="0.0;0.0058139535;1.0" repeatCount="indefinite" values="-2600;-2600;-2600"/>
<animate attributeName="cx" dur="47.88s" keyTimes="0.0;0.0058139535;1.0" repeatCount="indefinite" values="2600;2600;2600"/>
<animate attributeName="visibility" dur="47.88s" keyTimes="0.0;0.0058139535;1.0" repeatCount="indefinite" values="visible;visible;visible"/> </circle>
</svg>