<?xml version="1.0" encoding="UTF-8"?>
        <svg xmlns="http://www.w3.org/2000/svg" xmlns:xlink="http://www.w3.org/1999/xlink"
             width="430" height="430" viewBox="0 -4300 4300 4300">

<defs>

</defs>

<rect fill="#84A1AE" height="70" rx="15" width="70" x="465" y="-535" />
<rect fill="#84A1AE" height="70" rx="15" width="70" x="465" y="-635" />
<rect fill="#84A1AE" height="70" rx="15" width="70" x="465" y="-735" />
<rect fill="#84A1AE" height="70" rx="15" width="70" x="465" y="-835" />
<rect fill="#84A1AE" height="70" rx="15" width="70" x="465" y="-935" />
<rect fill="#84A1AE" height="70" rx="15" width="70" x="465" y="-1035" />
<rect fill="#84A1AE" height="70" rx="15" width="70" x="465" y="-1135" />
<rect fill="#84A1AE" height="70" rx="15" width="70" x="465" y="-1235" />
<rect fill="#84A1AE" height="70" rx="15" width="70" x="465" y="-1335" />
<rect fill="#84A1AE" height="70" rx="15" width="70" x="465" y="-1435" />
<rect fill="#84A1AE" height="70" rx="15" width="70" x="465" y="-1535" />
<rect fill="#84A1AE" height="70" rx="15" width="70" x="465" y="-1635" />
<rect fill="#84A1AE" height="70" rx="15" width="70" x="465" y="-1735" />
<rect fill="#84A1AE" height="70" rx="15" width="70" x="465" y="-1835" />
<rect fill="#84A1AE" height="70" rx="15" width="70" x="465" y="-1935" />
<rect fill="#84A1AE" height="70" rx="15" width="70" x="465" y="-2035" />
<rect fill="#84A1AE" height="70" rx="15" width="70" x="465" y="-2135" />
<rect fill="#84A1AE" height="70" rx="15" width="70" x="465" y="-2235" />
<rect fill="#84A1AE" height="70" rx="15" width="70" x="465" y="-2335" />
<rect fill="#84A1AE" height="70" rx="15" width="70" x="465" y="-2435" />
<rect fill="#84A1AE" height="70" rx="15" width="70" x="465" y="-2535" />
<rect fill="#84A1AE" height="70" rx="15" width="70" x="465" y="-2635" />
<rect fill="#84A1AE" height="70" rx="15" width="70" x="465" y="-2735" />
<rect fill="#84A1AE" height="70" rx="15" width="70" x="465" y="-2835" />
<rect fill="#84A1AE" height="70" rx="15" width="70" x="465" y="-2935" />
<rect fill="#84A1AE" height="70" rx="15" width="70" x="465" y="-3035" />
<rect fill="#84A1AE" height="70" rx="15" width="70" x="465" y="-3135" />
<rect fill="#84A1AE" height="70" rx="15" width="70" x="465" y="-3235" />
<rect fill="#84A1AE" height="70" rx="15" width="70" x="465" y="-3335" />
<rect fill="#84A1AE" height="70" rx="15" width="70" x="465" y="-3435" />
<rect fill="#84A1AE" height="70" rx="15" width="70" x="465" y="-3535" />
<rect fill="#84A1AE" height="70" rx="15" width="70" x="465" y="-3635" />
<rect fill="#84A1AE" height="70" rx="15" width="70" x="465" y="-3735" />
<rect fill="#84A1AE" height="70" rx="15" width="70" x="465" y="-3835" />
<rect fill="#84A1AE" height="70" rx="15" width="70" x="565" y="-535" />
<rect fill="#84A1AE" height="70" rx="15" width="70" x="565" y="-1635" />
<rect fill="#84A1AE" height="70" rx="15" width="70" x="565" y="-1935" />
<rect fill="#84A1AE" height="70" rx="15" width="70" x="565" y="-2735" />
<rect fill="#84A1AE" height="70" rx="15" width="70" x="565" y="-3835" />
<rect fill="#84A1AE" height="70" rx="15" width="70" x="665" y="-535" />
<rect fill="#84A1AE" height="70" rx="15" width="70" x="665" y="-1035" />
<rect fill="#84A1AE" height="70" rx="15" width="70" x="665" y="-2535" />
<rect fill="#84A1AE" height="70" rx="15" width="70" x="665" y="-3035" />
<rect fill="#84A1AE" height="70" rx="15" width="70" x="665" y="-3235" />
<rect fill="#84A1AE" height="70" rx="15" width="70" x="665" y="-3835" />
<rect fill="#84A1AE" height="70" rx="15" width="70" x="765" y="-535" />
<rect fill="#84A1AE" height="70" rx="15" width="70" x="765" y="-635" />
<rect fill="#84A1AE" height="70" rx="15" width="70" x="765" y="-3835" />
<rect fill="#84A1AE" height="70" rx="15" width="70" x="865" y="-535" />
<rect fill="#84A1AE" height="70" rx="15" width="70" x="865" y="-2435" />
<rect fill="#84A1AE" height="70" rx="15" width="70" x="865" y="-2535" />
<rect fill="#84A1AE" height="70" rx="15" width="70" x="865" y="-3335" />
<rect fill="#84A1AE" height="70" rx="15" width="70" x="865" y="-3435" />
<rect fill="#84A1AE" height="70" rx="15" width="70" x="865" y="-3835" />
<rect fill="#84A1AE" height="70" rx="15" width="70" x="965" y="-535" />
<rect fill="#84A1AE" height="70" rx="15" width="70" x="965" y="-735" />
<rect fill="#84A1AE" height="70" rx="15" width="70" x="965" y="-1635" />
<rect fill="#84A1AE" height="70" rx="15" width="70" x="965" y="-1835" />
<rect fill="#84A1AE" height="70" rx="15" width="70" x="965" y="-2835" />
<rect fill="#84A1AE" height="70" rx="15" width="70" x="965" y="-3435" />
<rect fill="#84A1AE" height="70" rx="15" width="70" x="965" y="-3835" />
<rect fill="#84A1AE" height="70" rx="15" width="70" x="1065" y="-535" />
<rect fill="#84A1AE" height="70" rx="15" width="70" x="1065" y="-1135" />
<rect fill="#84A1AE" height="70" rx="15" width="70" x="1065" y="-1835" />
<rect fill="#84A1AE" height="70" rx="15" width="70" x="1065" y="-3735" />
<rect fill="#84A1AE" height="70" rx="15" width="70" x="1065" y="-3835" />
<rect fill="#84A1AE" height="70" rx="15" width="70" x="1165" y="-535" />
<rect fill="#84A1AE" height="70" rx="15" width="70" x="1165" y="-635" />
<rect fill="#84A1AE" height="70" rx="15" width="70" x="1165" y="-735" />
<rect fill="#84A1AE" height="70" rx="15" width="70" x="1165" y="-1535" />
<rect fill="#84A1AE" height="70" rx="15" width="70" x="1165" y="-3835" />
<rect fill="#84A1AE" height="70" rx="15" width="70" x="1265" y="-535" />
<rect fill="#84A1AE" height="70" rx="15" width="70" x="1265" y="-2835" />
<rect fill="#84A1AE" height="70" rx="15" width="70" x="1265" y="-3435" />
<rect fill="#84A1AE" height="70" rx="15" width="70" x="1265" y="-3835" />
<rect fill="#84A1AE" height="70" rx="15" width="70" x="1365" y="-535" />
<rect fill="#84A1AE" height="70" rx="15" width="70" x="1365" y="-835" />
<rect fill="#84A1AE" height="70" rx="15" width="70" x="1365" y="-935" />
<rect fill="#84A1AE" height="70" rx="15" width="70" x="1365" y="-1035" />
<rect fill="#84A1AE" height="70" rx="15" width="70" x="1365" y="-1935" />
<rect fill="#84A1AE" height="70" rx="15" width="70" x="1365" y="-2335" />
<rect fill="#84A1AE" height="70" rx="15" width="70" x="1365" y="-2635" />
<rect fill="#84A1AE" height="70" rx="15" width="70" x="1365" y="-2835" />
<rect fill="#84A1AE" height="70" rx="15" width="70" x="1365" y="-2935" />
<rect fill="#84A1AE" height="70" rx="15" width="70" x="1365" y="-3035" />
<rect fill="#84A1AE" height="70" rx="15" width="70" x="1365" y="-3335" />
<rect fill="#84A1AE" height="70" rx="15" width="70" x="1365" y="-3835" />
<rect fill="#84A1AE" height="70" rx="15" width="70" x="1465" y="-535" />
<rect fill="#84A1AE" height="70" rx="15" width="70" x="1465" y="-1235" />
<rect fill="#84A1AE" height="70" rx="15" width="70" x="1465" y="-1535" />
<rect fill="#84A1AE" height="70" rx="15" width="70" x="1465" y="-2035" />
<rect fill="#84A1AE" height="70" rx="15" width="70" x="1465" y="-3135" />
<rect fill="#84A1AE" height="70" rx="15" width="70" x="1465" y="-3235" />
<rect fill="#84A1AE" height="70" rx="15" width="70" x="1465" y="-3835" />
<rect fill="#84A1AE" height="70" rx="15" width="70" x="1565" y="-535" />
<rect fill="#84A1AE" height="70" rx="15" width="70" x="1565" y="-3035" />
<rect fill="#84A1AE" height="70" rx="15" width="70" x="1565" y="-3835" />
<rect fill="#84A1AE" height="70" rx="15" width="70" x="1665" y="-535" />
<rect fill="#84A1AE" height="70" rx="15" width="70" x="1665" y="-3735" />
<rect fill="#84A1AE" height="70" rx="15" width="70" x="1665" y="-3835" />
<rect fill="#84A1AE" height="70" rx="15" width="70" x="1765" y="-535" />
<rect fill="#84A1AE" height="70" rx="15" width="70" x="1765" y="-1235" />
<rect fill="#84A1AE" height="70" rx="15" width="70" x="1765" y="-3835" />
<rect fill="#84A1AE" height="70" rx="15" width="70" x="1865" y="-535" />
<rect fill="#84A1AE" height="70" rx="15" width="70" x="1865" y="-735" />
<rect fill="#84A1AE" height="70" rx="15" width="70" x="1865" y="-1335" />
<rect fill="#84A1AE" height="70" rx="15" width="70" x="1865" y="-3235" />
<rect fill="#84A1AE" height="70" rx="15" width="70" x="1865" y="-3435" />
<rect fill="#84A1AE" height="70" rx="15" width="70" x="1865" y="-3835" />
<rect fill="#84A1AE" height="70" rx="15" width="70" x="1965" y="-535" />
<rect fill="#84A1AE" height="70" rx="15" width="70" x="1965" y="-635" />
<rect fill="#84A1AE" height="70" rx="15" width="70" x="1965" y="-1835" />
<rect fill="#84A1AE" height="70" rx="15" width="70" x="1965" y="-1935" />
<rect fill="#84A1AE" height="70" rx="15" width="70" x="1965" y="-2135" />
<rect fill="#84A1AE" height="70" rx="15" width="70" x="1965" y="-2335" />
<rect fill="#84A1AE" height="70" rx="15" width="70" x="1965" y="-2435" />
<rect fill="#84A1AE" height="70" rx="15" width="70" x="1965" y="-3335" />
<rect fill="#84A1AE" height="70" rx="15" width="70" x="1965" y="-3835" />
<rect fill="#84A1AE" height="70" rx="15" width="70" x="2065" y="-535" />
<rect fill="#84A1AE" height="70" rx="15" width="70" x="2065" y="-1535" />
<rect fill="#84A1AE" height="70" rx="15" width="70" x="2065" y="-1635" />
<rect fill="#84A1AE" height="70" rx="15" width="70" x="2065" y="-2135" />
<rect fill="#84A1AE" height="70" rx="15" width="70" x="2065" y="-3835" />
<rect fill="#84A1AE" height="70" rx="15" width="70" x="2165" y="-535" />
<rect fill="#84A1AE" height="70" rx="15" width="70" x="2165" y="-935" />
<rect fill="#84A1AE" height="70" rx="15" width="70" x="2165" y="-1335" />
<rect fill="#84A1AE" height="70" rx="15" width="70" x="2165" y="-1835" />
<rect fill="#84A1AE" height="70" rx="15" width="70" x="2165" y="-3835" />
<rect fill="#84A1AE" height="70" rx="15" width="70" x="2265" y="-535" />
<rect fill="#84A1AE" height="70" rx="15" width="70" x="2265" y="-935" />
<rect fill="#84A1AE" height="70" rx="15" width="70" x="2265" y="-1135" />
<rect fill="#84A1AE" height="70" rx="15" width="70" x="2265" y="-2535" />
<rect fill="#84A1AE" height="70" rx="15" width="70" x="2265" y="-3235" />
<rect fill="#84A1AE" height="70" rx="15" width="70" x="2265" y="-3835" />
<rect fill="#84A1AE" height="70" rx="15" width="70" x="2365" y="-535" />
<rect fill="#84A1AE" height="70" rx="15" width="70" x="2365" y="-935" />
<rect fill="#84A1AE" height="70" rx="15" width="70" x="2365" y="-1035" />
<rect fill="#84A1AE" height="70" rx="15" width="70" x="2365" y="-3835" />
<rect fill="#84A1AE" height="70" rx="15" width="70" x="2465" y="-535" />
<rect fill="#84A1AE" height="70" rx="15" width="70" x="2465" y="-935" />
<rect fill="#84A1AE" height="70" rx="15" width="70" x="2465" y="-1535" />
<rect fill="#84A1AE" height="70" rx="15" width="70" x="2465" y="-2335" />
<rect fill="#84A1AE" height="70" rx="15" width="70" x="2465" y="-2735" />
<rect fill="#84A1AE" height="70" rx="15" width="70" x="2465" y="-3835" />
<rect fill="#84A1AE" height="70" rx="15" width="70" x="2565" y="-535" />
<rect fill="#84A1AE" height="70" rx="15" width="70" x="2565" y="-735" />
<rect fill="#84A1AE" height="70" rx="15" width="70" x="2565" y="-2535" />
<rect fill="#84A1AE" height="70" rx="15" width="70" x="2565" y="-3835" />
<rect fill="#84A1AE" height="70" rx="15" width="70" x="2665" y="-535" />
<rect fill="#84A1AE" height="70" rx="15" width="70" x="2665" y="-635" />
<rect fill="#84A1AE" height="70" rx="15" width="70" x="2665" y="-1135" />
<rect fill="#84A1AE" height="70" rx="15" width="70" x="2665" y="-1435" />
<rect fill="#84A1AE" height="70" rx="15" width="70" x="2665" y="-2735" />
<rect fill="#84A1AE" height="70" rx="15" width="70" x="2665" y="-3835" />
<rect fill="#84A1AE" height="70" rx="15" width="70" x="2765" y="-535" />
<rect fill="#84A1AE" height="70" rx="15" width="70" x="2765" y="-1635" />
<rect fill="#84A1AE" height="70" rx="15" width="70" x="2765" y="-1835" />
<rect fill="#84A1AE" height="70" rx="15" width="70" x="2765" y="-1935" />
<rect fill="#84A1AE" height="70" rx="15" width="70" x="2765" y="-2235" />
<rect fill="#84A1AE" height="70" rx="15" width="70" x="2765" y="-3735" />
<rect fill="#84A1AE" height="70" rx="15" width="70" x="2765" y="-3835" />
<rect fill="#84A1AE" height="70" rx="15" width="70" x="2865" y="-535" />
<rect fill="#84A1AE" height="70" rx="15" width="70" x="2865" y="-3835" />
<rect fill="#84A1AE" height="70" rx="15" width="70" x="2965" y="-535" />
<rect fill="#84A1AE" height="70" rx="15" width="70" x="2965" y="-2635" />
<rect fill="#84A1AE" height="70" rx="15" width="70" x="2965" y="-3835" />
<rect fill="#84A1AE" height="70" rx="15" width="70" x="3065" y="-535" />
<rect fill="#84A1AE" height="70" rx="15" width="70" x="3065" y="-735" />
<rect fill="#84A1AE" height="70" rx="15" width="70" x="3065" y="-2535" />
<rect fill="#84A1AE" height="70" rx="15" width="70" x="3065" y="-3835" />
<rect fill="#84A1AE" height="70" rx="15" width="70" x="3165" y="-535" />
<rect fill="#84A1AE" height="70" rx="15" width="70" x="3165" y="-835" />
<rect fill="#84A1AE" height="70" rx="15" width="70" x="3165" y="-1935" />
<rect fill="#84A1AE" height="70" rx="15" width="70" x="3165" y="-2735" />
<rect fill="#84A1AE" height="70" rx="15" width="70" x="3165" y="-3135" />
<rect fill="#84A1AE" height="70" rx="15" width="70" x="3165" y="-3835" />
<rect fill="#84A1AE" height="70" rx="15" width="70" x="3265" y="-535" />
<rect fill="#84A1AE" height="70" rx="15" width="70" x="3265" y="-1035" />
<rect fill="#84A1AE" height="70" rx="15" width="70" x="3265" y="-1735" />
<rect fill="#84A1AE" height="70" rx="15" width="70" x="3265" y="-3835" />
<rect fill="#84A1AE" height="70" rx="15" width="70" x="3365" y="-535" />
<rect fill="#84A1AE" height="70" rx="15" width="70" x="3365" y="-1435" />
<rect fill="#84A1AE" height="70" rx="15" width="70" x="3365" y="-1935" />
<rect fill="#84A1AE" height="70" rx="15" width="70" x="3365" y="-2135" />
<rect fill="#84A1AE" height="70" rx="15" width="70" x="3365" y="-3835" />
<rect fill="#84A1AE" height="70" rx="15" width="70" x="3465" y="-535" />
<rect fill="#84A1AE" height="70" rx="15" width="70" x="3465" y="-2635" />
<rect fill="#84A1AE" height="70" rx="15" width="70" x="3465" y="-3835" />
<rect fill="#84A1AE" height="70" rx="15" width="70" x="3565" y="-535" />
<rect fill="#84A1AE" height="70" rx="15" width="70" x="3565" y="-635" />
<rect fill="#84A1AE" height="70" rx="15" width="70" x="3565" y="-2435" />
<rect fill="#84A1AE" height="70" rx="15" width="70" x="3565" y="-3235" />
<rect fill="#84A1AE" height="70" rx="15" width="70" x="3565" y="-3835" />
<rect fill="#84A1AE" height="70" rx="15" width="70" x="3665" y="-535" />
<rect fill="#84A1AE" height="70" rx="15" width="70" x="3665" y="-2135" />
<rect fill="#84A1AE" height="70" rx="15" width="70" x="3665" y="-2835" />
<rect fill="#84A1AE" height="70" rx="15" width="70" x="3665" y="-3135" />
<rect fill="#84A1AE" height="70" rx="15" width="70" x="3665" y="-3735" />
<rect fill="#84A1AE" height="70" rx="15" width="70" x="3665" y="-3835" />
<rect fill="#84A1AE" height="70" rx="15" width="70" x="3765" y="-535" />
<rect fill="#84A1AE" height="70" rx="15" width="70" x="3765" y="-635" />
<rect fill="#84A1AE" height="70" rx="15" width="70" x="3765" y="-735" />
<rect fill="#84A1AE" height="70" rx="15" width="70" x="3765" y="-835" />
<rect fill="#84A1AE" height="70" rx="15" width="70" x="3765" y="-935" />
<rect fill="#84A1AE" height="70" rx="15" width="70" x="3765" y="-1035" />
<rect fill="#84A1AE" height="70" rx="15" width="70" x="3765" y="-1135" />
<rect fill="#84A1AE" height="70" rx="15" width="70" x="3765" y="-1235" />
<rect fill="#84A1AE" height="70" rx="15" width="70" x="3765" y="-1335" />
<rect fill="#84A1AE" height="70" rx="15" width="70" x="3765" y="-1435" />
<rect fill="#84A1AE" height="70" rx="15" width="70" x="3765" y="-1535" />
<rect fill="#84A1AE" height="70" rx="15" width="70" x="3765" y="-1635" />
<rect fill="#84A1AE" height="70" rx="15" width="70" x="3765" y="-1735" />
<rect fill="#84A1AE" height="70" rx="15" width="70" x="3765" y="-1835" />
<rect fill="#84A1AE" height="70" rx="15" width="70" x="3765" y="-1935" />
<rect fill="#84A1AE" height="70" rx="15" width="70" x="3765" y="-2035" />
<rect fill="#84A1AE" height="70" rx="15" width="70" x="3765" y="-2135" />
<rect fill="#84A1AE" height="70" rx="15" width="70" x="3765" y="-2235" />
<rect fill="#84A1AE" height="70" rx="15" width="70" x="3765" y="-2335" />
<rect fill="#84A1AE" height="70" rx="15" width="70" x="3765" y="-2435" />
<rect fill="#84A1AE" height="70" rx="15" width="70" x="3765" y="-2535" />
<rect fill="#84A1AE" height="70" rx="15" width="70" x="3765" y="-2635" />
<rect fill="#84A1AE" height="70" rx="15" width="70" x="3765" y="-2735" />
<rect fill="#84A1AE" height="70" rx="15" width="70" x="3765" y="-2835" />
<rect fill="#84A1AE" height="70" rx="15" width="70" x="3765" y="-2935" />
<rect fill="#84A1AE" height="70" rx="15" width="70" x="3765" y="-3035" />
<rect fill="#84A1AE" height="70" rx="15" width="70" x="3765" y="-3135" />
<rect fill="#84A1AE" height="70" rx="15" width="70" x="3765" y="-3235" />
<rect fill="#84A1AE" height="70" rx="15" width="70" x="3765" y="-3335" />
<rect fill="#84A1AE" height="70" rx="15" width="70" x="3765" y="-3435" />
<rect fill="#84A1AE" height="70" rx="15" width="70" x="3765" y="-3535" />
<rect fill="#84A1AE" height="70" rx="15" width="70" x="3765" y="-3635" />
<rect fill="#84A1AE" height="70" rx="15" width="70" x="3765" y="-3735" />
<rect fill="#84A1AE" height="70" rx="15" width="70" x="3765" y="-3835" />
<circle cx="2500" cy="-1400" fill="#c1433c" r="35"> <animate attributeName="cy" dur="109.48s" keyTimes="0.0;0.0025510204;0.0076530612;0.0102040816;0.012755102;0.0153061224;0.0178571429;0.0204081633;0.0229591837;0.0255102041;0.0280612245;0.0306122449;0.0331632653;0.0357142857;0.0382653061;0.0408163265;0.0433673469;0.0459183673;0.0484693878;0.0510204082;0.0535714286;0.056122449;0.0586734694;0.0612244898;0.0637755102;0.0663265306;0.068877551;0.0714285714;0.0739795918;0.0765306122;0.0790816327;0.0816326531;0.0841836735;0.0918367347;0.0943877551;0.0969387755;0.0994897959;0.1020408163;0.1045918367;0.1071428571;0.1096938776;0.112244898;0.1275510204;0.1301020408;0.1326530612;0.1403061224;0.1428571429;0.1454081633;0.1530612245;0.1556122449;0.1632653061;0.1658163265;0.1785714286;0.181122449;0.1836734694;0.1862244898;0.1887755102;0.1913265306;0.2015306122;0.2040816327;0.2117346939;0.2142857143;0.2168367347;0.2193877551;0.2219387755;0.2244897959;0.2295918367;0.2321428571;0.2346938776;0.2397959184;0.2423469388;0.2474489796;0.25;0.2551020408;0.2576530612;0.2602040816;0.262755102;0.2653061224;0.2678571429;0.2704081633;0.2729591837;0.2755102041;0.2806122449;0.2831632653;0.2857142857;0.2908163265;0.2933673469;0.2959183673;0.2984693878;0.3035714286;0.306122449;0.3086734694;0.3163265306;0.318877551;0.3214285714;0.3265306122;0.3290816327;0.3443877551;0.3469387755;0.3494897959;0.3520408163;0.3545918367;0.3571428571;0.362244898;0.3647959184;0.3826530612;0.3852040816;0.3903061224;0.3928571429;0.4209183673;0.4234693878;0.431122449;0.4336734694;0.4464285714;0.4489795918;0.4515306122;0.4591836735;0.4617346939;0.4744897959;0.4770408163;0.4795918367;0.4821428571;0.4846938776;0.487244898;0.4974489796;0.5;0.5076530612;0.5102040816;0.512755102;0.5153061224;0.5178571429;0.5204081633;0.5229591837;0.5255102041;0.5280612245;0.5306122449;0.5331632653;0.5382653061;0.5408163265;0.5459183673;0.5484693878;0.5535714286;0.556122449;0.5586734694;0.5612244898;0.5637755102;0.5663265306;0.5714285714;0.5739795918;0.5816326531;0.5841836735;0.5892857143;0.5918367347;0.5943877551;0.5969387755;0.5994897959;0.6020408163;0.6045918367;0.6071428571;0.612244898;0.6147959184;0.6173469388;0.6198979592;0.6224489796;0.625;0.6275510204;0.6301020408;0.6326530612;0.6479591837;0.6505102041;0.6530612245;0.6556122449;0.6607142857;0.6632653061;0.6658163265;0.6683673469;0.6709183673;0.6734693878;0.6760204082;0.681122449;0.6836734694;0.6887755102;0.6913265306;0.6964285714;0.6989795918;0.7015306122;0.7040816327;0.7066326531;0.7091836735;0.7117346939;0.7168367347;0.7193877551;0.7219387755;0.7244897959;0.7270408163;0.7295918367;0.7321428571;0.7346938776;0.737244898;0.7397959184;0.7423469388;0.7448979592;0.7551020408;0.7576530612;0.7602040816;0.762755102;0.7653061224;0.7678571429;0.7704081633;0.7729591837;0.7755102041;0.7780612245;0.7857142857;0.7882653061;0.7908163265;0.7959183673;0.7984693878;0.8010204082;0.806122449;0.8086734694;0.8112244898;0.8137755102;0.8163265306;0.818877551;0.8214285714;0.8239795918;0.8265306122;0.8367346939;0.8392857143;0.8418367347;0.8443877551;0.8469387755;0.8698979592;0.8724489796;0.875;0.8775510204;0.8801020408;0.8826530612;0.887755102;0.8903061224;0.8928571429;0.8954081633;0.8979591837;0.9005102041;0.9132653061;0.9158163265;0.9209183673;0.9234693878;0.9260204082;0.9515306122;0.9540816327;0.9566326531;0.9591836735;0.9617346939;0.9668367347;0.9693877551;0.9719387755;0.9744897959;0.9770408163;0.9795918367;0.9821428571;0.9846938776;0.987244898;0.9923469388;0.9948979592;0.9974489796;1.0" repeatCount="indefinite" values="-1400;-1400;-1400;-1500;-1500;-1600;-1700;-1800;-1900;-2000;-2000;-1900;-2000;-2100;-2200;-2300;-2400;-2400;-2500;-2600;-2600;-2700;-2800;-2900;-2900;-2800;-2700;-2600;-2700;-2600;-2700;-2800;-2700;-2700;-2800;-2800;-2900;-2900;-3000;-3000;-2900;-3000;-3000;-3100;-3200;-3200;-3100;-3000;-3000;-3100;-3100;-3000;-3000;-3100;-3100;-3000;-3000;-2900;-2900;-3000;-3000;-2900;-3000;-2900;-2900;-2800;-2800;-2700;-2800;-2800;-2700;-2700;-2600;-2600;-2500;-2400;-2300;-2200;-2100;-2200;-2200;-2300;-2300;-2200;-2100;-2100;-2000;-2000;-1900;-1900;-2000;-1900;-1900;-1800;-1700;-1700;-1800;-1800;-1900;-2000;-1900;-2000;-2100;-2100;-2000;-2000;-2100;-2100;-2000;-2000;-1900;-1900;-2000;-2000;-1900;-2000;-2000;-2100;-2100;-2200;-2200;-2100;-2100;-2000;-2000;-1900;-1900;-2000;-2100;-2100;-2200;-2300;-2400;-2500;-2600;-2700;-2800;-2800;-2900;-2900;-3000;-3000;-3100;-3200;-3300;-3200;-3300;-3300;-3400;-3400;-3500;-3500;-3600;-3600;-3500;-3600;-3500;-3400;-3300;-3300;-3400;-3400;-3500;-3400;-3300;-3300;-3400;-3500;-3500;-3600;-3500;-3400;-3400;-3300;-3200;-3300;-3200;-3300;-3400;-3400;-3300;-3300;-3400;-3400;-3500;-3500;-3400;-3300;-3200;-3100;-3100;-3000;-2900;-2900;-2800;-2700;-2600;-2500;-2400;-2500;-2500;-2400;-2400;-2300;-2200;-2100;-2100;-2200;-2200;-2300;-2300;-2400;-2400;-2500;-2400;-2400;-2300;-2200;-2200;-2300;-2400;-2300;-2200;-2200;-2300;-2200;-2300;-2300;-2400;-2500;-2400;-2300;-2300;-2200;-2200;-2300;-2300;-2200;-2200;-2300;-2300;-2400;-2300;-2400;-2400;-2300;-2300;-2400;-2300;-2300;-2200;-2300;-2300;-2200;-2200;-2100;-2100;-2200;-2100;-2200;-2100;-2200;-2100;-2100;-2200;-2100;-2100"/>
<animate attributeName="cx" dur="109.48s" keyTimes="0.0;0.0025510204;0.0051020408;0.0076530612;0.0433673469;0.0459183673;0.0510204082;0.0535714286;0.0612244898;0.0637755102;0.0867346939;0.0892857143;0.0994897959;0.1020408163;0.1045918367;0.1071428571;0.112244898;0.1147959184;0.1173469388;0.1198979592;0.1224489796;0.125;0.1275510204;0.1326530612;0.1352040816;0.137755102;0.1403061224;0.1454081633;0.1479591837;0.1505102041;0.1530612245;0.1556122449;0.1581632653;0.1607142857;0.1632653061;0.1658163265;0.1683673469;0.1709183673;0.1734693878;0.1760204082;0.1785714286;0.181122449;0.1836734694;0.1862244898;0.1887755102;0.1913265306;0.193877551;0.1964285714;0.1989795918;0.2015306122;0.2091836735;0.2117346939;0.2193877551;0.2219387755;0.2244897959;0.2270408163;0.2295918367;0.2346938776;0.237244898;0.2423469388;0.2448979592;0.2474489796;0.25;0.2525510204;0.2551020408;0.2704081633;0.2729591837;0.2755102041;0.2780612245;0.2806122449;0.2857142857;0.2882653061;0.3010204082;0.3035714286;0.3086734694;0.3112244898;0.3137755102;0.3163265306;0.3214285714;0.3239795918;0.3265306122;0.3290816327;0.3316326531;0.3341836735;0.3367346939;0.3392857143;0.3418367347;0.3443877551;0.3571428571;0.3596938776;0.362244898;0.3647959184;0.3673469388;0.3698979592;0.3724489796;0.375;0.3775510204;0.3801020408;0.3826530612;0.3852040816;0.387755102;0.3903061224;0.3928571429;0.3954081633;0.3979591837;0.4005102041;0.4030612245;0.4056122449;0.4081632653;0.4107142857;0.4132653061;0.4183673469;0.4209183673;0.4234693878;0.4260204082;0.4285714286;0.431122449;0.4336734694;0.4362244898;0.4387755102;0.4413265306;0.443877551;0.4464285714;0.4515306122;0.4540816327;0.4566326531;0.4591836735;0.4617346939;0.4642857143;0.4668367347;0.4693877551;0.4719387755;0.4770408163;0.4795918367;0.4821428571;0.4846938776;0.487244898;0.4897959184;0.4923469388;0.4948979592;0.4974489796;0.5;0.5025510204;0.5051020408;0.5076530612;0.512755102;0.5153061224;0.5331632653;0.5357142857;0.5408163265;0.5433673469;0.5459183673;0.5484693878;0.5510204082;0.568877551;0.5714285714;0.5765306122;0.5790816327;0.5816326531;0.5841836735;0.5867346939;0.5892857143;0.5918367347;0.5943877551;0.6071428571;0.6096938776;0.612244898;0.6147959184;0.6173469388;0.6326530612;0.6352040816;0.637755102;0.6403061224;0.6428571429;0.6454081633;0.6479591837;0.6581632653;0.6607142857;0.6760204082;0.6785714286;0.681122449;0.6836734694;0.6862244898;0.6913265306;0.693877551;0.6964285714;0.6989795918;0.7015306122;0.7117346939;0.7142857143;0.7219387755;0.7244897959;0.7397959184;0.7423469388;0.7448979592;0.7474489796;0.75;0.7525510204;0.7551020408;0.762755102;0.7653061224;0.7729591837;0.7755102041;0.7780612245;0.7806122449;0.7908163265;0.7933673469;0.8010204082;0.8035714286;0.806122449;0.8163265306;0.818877551;0.8265306122;0.8290816327;0.8316326531;0.8341836735;0.8367346939;0.8469387755;0.8494897959;0.8520408163;0.8545918367;0.8571428571;0.8596938776;0.862244898;0.8647959184;0.8673469388;0.8698979592;0.8826530612;0.8852040816;0.887755102;0.9005102041;0.9030612245;0.9056122449;0.9081632653;0.9107142857;0.9183673469;0.9209183673;0.9260204082;0.9285714286;0.931122449;0.9336734694;0.9362244898;0.9387755102;0.9413265306;0.943877551;0.9464285714;0.9489795918;0.9515306122;0.9566326531;0.9591836735;0.9642857143;0.9668367347;0.9693877551;0.9719387755;0.987244898;0.9897959184;0.9923469388;1.0" repeatCount="indefinite" values="2500;2500;2500;2600;2600;2700;2700;2800;2800;2900;2900;3000;3000;3100;3100;3200;3200;3300;3200;3300;3300;3400;3500;3500;3400;3500;3400;3400;3300;3200;3100;3100;3000;3000;2900;2900;2800;2700;2600;2500;2400;2400;2300;2300;2200;2200;2100;2000;1900;1800;1800;1900;1900;1800;1800;1700;1600;1600;1500;1500;1400;1300;1300;1200;1100;1100;1000;1000;1100;1200;1200;1300;1300;1200;1200;1100;1200;1300;1300;1400;1500;1500;1400;1400;1500;1600;1500;1600;1600;1700;1800;1800;1900;1900;2000;2000;2100;2200;2300;2300;2400;2500;2500;2600;2700;2600;2700;2700;2800;2900;3000;3000;3100;3100;3000;2900;3000;3000;3100;3200;3300;3400;3300;3300;3400;3300;3200;3200;3300;3200;3100;3000;3000;3100;3100;3000;3000;2900;2800;2700;2600;2600;2500;2400;2300;2300;2400;2400;2300;2300;2400;2300;2300;2400;2400;2500;2500;2600;2500;2500;2600;2700;2700;2600;2600;2700;2600;2600;2700;2700;2600;2500;2500;2600;2700;2800;2800;2900;2900;3000;2900;2900;3000;3000;2900;3000;3000;2900;2900;2800;2800;2900;2900;3000;3000;2900;2900;3000;2900;2900;3000;3000;2900;2900;3000;3000;2900;2900;3000;3100;3100;3200;3200;3100;3200;3100;3000;3000;3100;3000;2900;3000;2900;2800;2800;2700;2600;2600;2500;2400;2400;2500;2400;2500;2400;2400;2300;2300;2200;2300;2200;2300;2200;2300;2200;2300;2200;2100;2100;2200;2200;2300;2300;2200;2200;2300;2200;2200"/>
<animate attributeName="visibility" dur="109.48s" keyTimes="0.0;0.0025510204;1.0" repeatCount="indefinite" values="visible;visible;visible"/> </circle>
<circle cx="3000" cy="-1900" fill="#2e6f9e" r="35"> <animate attributeName="cy" dur="109.48s" keyTimes="0.0;0.0025510204;0.0051020408;0.0076530612;0.0102040816;0.012755102;0.0153061224;0.0178571429;0.0204081633;0.0229591837;0.0255102041;0.0280612245;0.0306122449;0.0331632653;0.0357142857;0.0382653061;0.0408163265;0.0433673469;0.0459183673;0.0484693878;0.0663265306;0.068877551;0.0714285714;0.0739795918;0.0816326531;0.0841836735;0.0867346939;0.0892857143;0.0918367347;0.0943877551;0.0969387755;0.0994897959;0.1020408163;0.1045918367;0.1071428571;0.1096938776;0.112244898;0.1147959184;0.1173469388;0.1198979592;0.1224489796;0.125;0.1275510204;0.1301020408;0.1326530612;0.1352040816;0.137755102;0.1403061224;0.1428571429;0.1454081633;0.1479591837;0.1505102041;0.1530612245;0.1556122449;0.1581632653;0.1607142857;0.1632653061;0.1658163265;0.1683673469;0.1709183673;0.1734693878;0.1760204082;0.1785714286;0.181122449;0.1836734694;0.1862244898;0.1887755102;0.1913265306;0.193877551;0.1964285714;0.2576530612;0.2602040816;0.262755102;0.2653061224;0.2678571429;0.2704081633;0.2729591837;0.2755102041;0.2780612245;0.2806122449;0.2831632653;0.2857142857;0.2882653061;0.2908163265;0.2933673469;0.2959183673;0.2984693878;0.3010204082;0.3035714286;0.306122449;0.3086734694;0.3112244898;0.3137755102;0.3163265306;0.318877551;0.3214285714;0.3239795918;0.3265306122;0.3290816327;0.3316326531;0.3341836735;0.3367346939;0.3392857143;0.3418367347;0.3443877551;0.3494897959;0.3520408163;0.3545918367;0.3571428571;0.3647959184;0.3673469388;0.3698979592;0.3775510204;0.3801020408;0.3826530612;0.3852040816;0.3903061224;0.3928571429;0.4056122449;0.4081632653;0.4387755102;0.4413265306;0.443877551;0.4464285714;0.4515306122;0.4540816327;0.4566326531;0.4591836735;0.4617346939;0.4642857143;0.4668367347;0.4693877551;0.4719387755;0.4744897959;0.4770408163;0.5153061224;0.5178571429;0.5204081633;0.5382653061;0.5408163265;0.5433673469;0.5459183673;0.5484693878;0.5510204082;0.5535714286;0.556122449;0.5586734694;0.5612244898;0.5637755102;0.5663265306;0.6173469388;0.6198979592;0.6224489796;0.625;0.6275510204;0.6301020408;0.6326530612;0.6352040816;0.637755102;0.6403061224;0.6428571429;0.6454081633;0.6479591837;0.6505102041;0.6530612245;0.6556122449;0.6581632653;0.6607142857;0.6632653061;0.6658163265;0.6683673469;0.6709183673;0.6734693878;0.6760204082;0.6785714286;0.681122449;0.6836734694;0.6862244898;0.6887755102;0.6913265306;0.693877551;0.6964285714;0.6989795918;0.7015306122;0.7040816327;0.7066326531;0.7091836735;0.7117346939;0.7142857143;0.7168367347;0.7193877551;0.7219387755;0.7244897959;0.7270408163;0.7295918367;0.7448979592;0.7474489796;0.75;0.7551020408;0.7576530612;0.7653061224;0.7678571429;0.7704081633;0.7755102041;0.7780612245;0.7831632653;0.7857142857;0.7933673469;0.7959183673;0.7984693878;0.8035714286;0.806122449;0.8086734694;0.8112244898;0.8137755102;0.818877551;0.8214285714;0.8265306122;0.8290816327;0.8367346939;0.8392857143;0.8418367347;0.8443877551;0.8494897959;0.8520408163;0.8545918367;0.8571428571;0.8596938776;0.862244898;0.8647959184;0.8673469388;0.8724489796;0.875;0.8775510204;0.8801020408;0.8826530612;0.8852040816;0.887755102;0.8903061224;0.8928571429;0.8954081633;0.8979591837;0.9030612245;0.9056122449;0.9081632653;0.9107142857;0.9132653061;0.9158163265;0.9183673469;0.9209183673;0.9234693878;0.9260204082;0.9285714286;0.931122449;0.9336734694;0.9362244898;0.9387755102;0.9413265306;0.943877551;0.9489795918;0.9515306122;0.9540816327;0.9566326531;0.9591836735;0.9617346939;0.9642857143;0.9668367347;0.9693877551;0.9795918367;0.9821428571;0.9846938776;0.987244898;0.9897959184;0.9923469388;0.9948979592;0.9974489796;1.0" repeatCount="indefinite" values="-1900;-1900;-1900;-2000;-2100;-2200;-2300;-2400;-2400;-2500;-2500;-2600;-2600;-2700;-2800;-2900;-3000;-3100;-3200;-3300;-3300;-3200;-3200;-3100;-3100;-3000;-2900;-2900;-2800;-2700;-2600;-2500;-2400;-2300;-2200;-2100;-2000;-1900;-1800;-1700;-1600;-1500;-1400;-1300;-1200;-1100;-1000;-900;-800;-900;-1000;-1100;-1200;-1300;-1400;-1500;-1600;-1700;-1800;-1900;-2000;-2100;-2200;-2300;-2400;-2500;-2600;-2700;-2800;-2900;-2900;-2800;-2700;-2600;-2600;-2500;-2400;-2400;-2300;-2200;-2100;-2000;-1900;-1800;-1700;-1600;-1500;-1400;-1500;-1600;-1700;-1800;-1900;-2000;-1900;-1800;-1700;-1700;-1600;-1500;-1400;-1400;-1300;-1300;-1200;-1200;-1100;-1100;-1000;-1000;-1100;-1200;-1200;-1300;-1300;-1400;-1400;-1300;-1300;-1400;-1400;-1300;-1400;-1500;-1500;-1600;-1700;-1800;-1800;-1900;-1900;-2000;-2000;-2100;-2200;-2200;-2300;-2400;-2400;-2500;-2600;-2700;-2800;-2900;-3000;-3100;-3200;-3300;-3400;-3500;-3500;-3400;-3300;-3200;-3100;-3000;-2900;-2800;-2700;-2600;-2500;-2400;-2300;-2200;-2100;-2000;-2000;-1900;-1800;-1700;-1700;-1600;-1500;-1400;-1300;-1200;-1100;-1000;-900;-800;-700;-800;-900;-1000;-1100;-1200;-1300;-1400;-1500;-1600;-1700;-1700;-1800;-1900;-2000;-2000;-1900;-1800;-1800;-1700;-1700;-1600;-1500;-1500;-1400;-1400;-1300;-1300;-1200;-1100;-1100;-1000;-1000;-900;-1000;-1000;-1100;-1100;-1200;-1200;-1300;-1300;-1400;-1400;-1500;-1600;-1700;-1700;-1800;-1900;-2000;-2000;-2100;-2200;-2300;-2400;-2500;-2600;-2700;-2800;-2900;-3000;-3000;-3100;-3200;-3300;-3400;-3500;-3500;-3600;-3500;-3400;-3300;-3200;-3200;-3100;-3000;-2900;-2800;-2800;-2700;-2600;-2500;-2400;-2300;-2200;-2100;-2000;-2000;-1900;-1900;-1800;-1800;-1700;-1700;-1600;-1600"/>
<animate attributeName="cx" dur="109.48s" keyTimes="0.0;0.0025510204;0.0051020408;0.0178571429;0.0204081633;0.0229591837;0.0255102041;0.0280612245;0.0306122449;0.0484693878;0.0510204082;0.0535714286;0.056122449;0.0586734694;0.0612244898;0.0637755102;0.0663265306;0.068877551;0.0714285714;0.0739795918;0.0765306122;0.0790816327;0.0816326531;0.0867346939;0.0892857143;0.1964285714;0.1989795918;0.2015306122;0.2040816327;0.2066326531;0.2091836735;0.2117346939;0.2142857143;0.2168367347;0.2193877551;0.2219387755;0.2244897959;0.2270408163;0.2295918367;0.2321428571;0.2346938776;0.237244898;0.2397959184;0.2423469388;0.2448979592;0.2474489796;0.25;0.2525510204;0.2551020408;0.2576530612;0.2653061224;0.2678571429;0.2729591837;0.2755102041;0.3239795918;0.3265306122;0.3341836735;0.3367346939;0.3392857143;0.3418367347;0.3443877551;0.3469387755;0.3494897959;0.3520408163;0.3545918367;0.3571428571;0.3596938776;0.362244898;0.3647959184;0.3698979592;0.3724489796;0.375;0.3775510204;0.3801020408;0.3826530612;0.3852040816;0.387755102;0.3903061224;0.3928571429;0.3954081633;0.3979591837;0.4005102041;0.4030612245;0.4056122449;0.4081632653;0.4107142857;0.4132653061;0.4158163265;0.4183673469;0.4209183673;0.4234693878;0.4260204082;0.4285714286;0.431122449;0.4336734694;0.4362244898;0.4387755102;0.4464285714;0.4489795918;0.4515306122;0.4591836735;0.4617346939;0.4642857143;0.4668367347;0.4693877551;0.4719387755;0.4770408163;0.4795918367;0.4821428571;0.4846938776;0.487244898;0.4897959184;0.4923469388;0.4948979592;0.4974489796;0.5;0.5025510204;0.5051020408;0.5076530612;0.5102040816;0.512755102;0.5153061224;0.5204081633;0.5229591837;0.5255102041;0.5280612245;0.5306122449;0.5331632653;0.5357142857;0.5382653061;0.5663265306;0.568877551;0.5714285714;0.5739795918;0.5765306122;0.5790816327;0.5816326531;0.5841836735;0.5867346939;0.5892857143;0.5918367347;0.5943877551;0.5969387755;0.5994897959;0.6020408163;0.6045918367;0.6071428571;0.6096938776;0.612244898;0.6147959184;0.6173469388;0.6556122449;0.6581632653;0.6658163265;0.6683673469;0.7193877551;0.7219387755;0.7295918367;0.7321428571;0.7346938776;0.737244898;0.7397959184;0.7423469388;0.7448979592;0.75;0.7525510204;0.7551020408;0.7576530612;0.7602040816;0.762755102;0.7653061224;0.7704081633;0.7729591837;0.7755102041;0.7780612245;0.7806122449;0.7831632653;0.7857142857;0.7882653061;0.7908163265;0.7933673469;0.7984693878;0.8010204082;0.8035714286;0.806122449;0.8086734694;0.8137755102;0.8163265306;0.818877551;0.8214285714;0.8239795918;0.8265306122;0.8290816327;0.8316326531;0.8341836735;0.8367346939;0.8392857143;0.8418367347;0.8443877551;0.8469387755;0.8494897959;0.8571428571;0.8596938776;0.8673469388;0.8698979592;0.8724489796;0.8979591837;0.9005102041;0.9030612245;0.9158163265;0.9183673469;0.931122449;0.9336734694;0.943877551;0.9464285714;0.9489795918;0.9693877551;0.9719387755;0.9744897959;0.9770408163;0.9795918367;0.9821428571;0.9846938776;0.987244898;0.9897959184;0.9923469388;0.9948979592;1.0" repeatCount="indefinite" values="3000;3000;2900;2900;2800;2800;2700;2700;2600;2600;2700;2600;2500;2400;2300;2200;2100;2100;2000;2000;1900;1800;1700;1700;1600;1600;1700;1700;1800;1900;2000;2100;2200;2300;2400;2500;2600;2700;2800;2900;3000;3100;3200;3300;3400;3500;3600;3500;3400;3300;3300;3200;3200;3100;3100;3200;3200;3300;3300;3400;3400;3500;3600;3600;3700;3700;3600;3500;3400;3400;3300;3200;3100;3100;3000;3000;2900;2800;2800;2700;2600;2500;2400;2300;2300;2200;2100;2000;1900;1800;1700;1600;1500;1400;1300;1200;1100;1100;1000;900;900;800;800;700;700;600;600;700;800;900;1000;1100;1200;1300;1400;1500;1600;1700;1800;1900;2000;2100;2100;2200;2300;2400;2500;2600;2700;2800;2800;2900;3000;3100;3200;3300;3400;3500;3400;3300;3200;3100;3000;2900;2800;2700;2600;2500;2400;2300;2200;2200;2100;2100;2000;2000;2100;2100;2200;2100;2000;1900;1800;1700;1700;1800;1900;1900;2000;2100;2200;2200;2300;2400;2400;2500;2600;2600;2700;2800;2900;2900;3000;3100;3100;3200;3200;3100;3000;3000;2900;2800;2800;2700;2600;2500;2500;2400;2400;2300;2200;2200;2100;2100;2000;1900;1900;1800;1700;1700;1600;1600;1700;1700;1800;1900;1900;2000;2100;2200;2300;2300;2400;2400;2500;2500;2600;2600"/>
<animate attributeName="visibility" dur="109.48s" keyTimes="0.0;0.0025510204;1.0" repeatCount="indefinite" values="visible;visible;visible"/> </circle>
<circle cx="3500" cy="-3000" fill="none" r="35" stroke="#c1433c" stroke-width="10"> <animate attributeName="cy" dur="109.48s" keyTimes="0.0;0.0025510204;0.125;0.1275510204;0.3010204082;0.3035714286;0.318877551;0.3214285714;0.5076530612;0.5102040816;0.6989795918;0.7015306122;1.0" repeatCount="indefinite" values="-3000;-3000;-3000;-1900;-1900;-1700;-1700;-2000;-2000;-3500;-3500;-2000;-2000"/>
<animate attributeName="cx" dur="109.48s" keyTimes="0.0;0.0025510204;0.125;0.1275510204;0.3010204082;0.3035714286;0.318877551;0.3214285714;0.4413265306;0.443877551;0.5076530612;0.5102040816;1.0" repeatCount="indefinite" values="3500;3500;3500;1200;1200;1300;1300;3400;3400;2300;2300;2900;2900"/>
<animate attributeName="visibility" dur="109.48s" keyTimes="0.0;0.0025510204;1.0" repeatCount="indefinite" values="visible;visible;visible"/> </circle>
<circle cx="2600" cy="-2600" fill="none" r="35" stroke="#2e6f9e" stroke-width="10"> <animate attributeName="cy" dur="109.48s" keyTimes="0.0;0.0025510204;0.0280612245;0.0306122449;0.0484693878;0.0510204082;0.1403061224;0.1428571429;0.2474489796;0.25;0.2984693878;0.3010204082;0.3137755102;0.3163265306;0.3545918367;0.3571428571;0.3826530612;0.3852040816;0.4387755102;0.4413265306;0.4693877551;0.4719387755;0.5357142857;0.5382653061;0.5816326531;0.5841836735;0.6913265306;0.693877551;0.7295918367;0.7321428571;0.7474489796;0.75;0.8086734694;0.8112244898;0.8775510204;0.8801020408;0.9183673469;0.9209183673;0.9948979592;0.9974489796;1.0" repeatCount="indefinite" values="-2600;-2600;-2600;-3300;-3300;-800;-800;-2900;-2900;-1400;-1400;-2000;-2000;-1000;-1000;-1400;-1400;-1300;-1300;-2000;-2000;-2400;-2400;-3500;-3500;-700;-700;-2000;-2000;-1800;-1800;-900;-900;-2300;-2300;-3600;-3600;-1600;-1600;-3200;-3200"/>
<animate attributeName="cx" dur="109.48s" keyTimes="0.0;0.0025510204;0.0280612245;0.0306122449;0.0484693878;0.0510204082;0.1403061224;0.1428571429;0.2474489796;0.25;0.3137755102;0.3163265306;0.3545918367;0.3571428571;0.3826530612;0.3852040816;0.4387755102;0.4413265306;0.4693877551;0.4719387755;0.5357142857;0.5382653061;0.5816326531;0.5841836735;0.6913265306;0.693877551;0.7295918367;0.7321428571;0.7474489796;0.75;0.8086734694;0.8112244898;0.8775510204;0.8801020408;0.9183673469;0.9209183673;0.9948979592;0.9974489796;1.0" repeatCount="indefinite" values="2600;2600;2600;2700;2700;1600;1600;3600;3600;3100;3100;3700;3700;3000;3000;1100;1100;600;600;2800;2800;3500;3500;2000;2000;2200;2200;1700;1700;3200;3200;1900;1900;1600;1600;2600;2600;1800;1800"/>
<animate attributeName="visibility" dur="109.48s" keyTimes="0.0;0.0025510204;1.0" repeatCount="indefinite" values="visible;visible;visible"/> </circle>
</svg>