<?xml version="1.0" encoding="UTF-8"?>
        <svg xmlns="http://www.w3.org/2000/svg" xmlns:xlink="http://www.w3.org/1999/xlink"
             width="512" height="512" viewBox="0 -3500 3500 3500">
<defs>

        <rect id="obstacle" width="70" height="70" fill="#84A1AE" rx="15"/>
        <style>
        .line {stroke: #84A1AE; stroke-width: 10;}
        .agent {r: 35;}
        .target {fill: none; stroke-width: 10; r: 35;}
        </style>
        
</defs>

<line class="line" x1="-50.0" x2="-50.0" y1="0" y2="-3500" />
<line class="line" x1="50.0" x2="50.0" y1="0" y2="-3500" />
<line class="line" x1="150.0" x2="150.0" y1="0" y2="-3500" />
<line class="line" x1="250.0" x2="250.0" y1="0" y2="-3500" />
<line class="line" x1="350.0" x2="350.0" y1="0" y2="-3500" />
<line class="line" x1="450.0" x2="450.0" y1="0" y2="-3500" />
<line class="line" x1="550.0" x2="550.0" y1="0" y2="-3500" />
<line class="line" x1="650.0" x2="650.0" y1="0" y2="-3500" />
<line class="line" x1="750.0" x2="750.0" y1="0" y2="-3500" />
<line class="line" x1="850.0" x2="850.0" y1="0" y2="-3500" />
<line class="line" x1="950.0" x2="950.0" y1="0" y2="-3500" />
<line class="line" x1="1050.0" x2="1050.0" y1="0" y2="-3500" />
<line class="line" x1="1150.0" x2="1150.0" y1="0" y2="-3500" />
<line class="line" x1="1250.0" x2="1250.0" y1="0" y2="-3500" />
<line class="line" x1="1350.0" x2="1350.0" y1="0" y2="-3500" />
<line class="line" x1="1450.0" x2="1450.0" y1="0" y2="-3500" />
<line class="line" x1="1550.0" x2="1550.0" y1="0" y2="-3500" />
<line class="line" x1="1650.0" x2="1650.0" y1="0" y2="-3500" />
<line class="line" x1="1750.0" x2="1750.0" y1="0" y2="-3500" />
<line class="line" x1="1850.0" x2="1850.0" y1="0" y2="-3500" />
<line class="line" x1="1950.0" x2="1950.0" y1="0" y2="-3500" />
<line class="line" x1="2050.0" x2="2050.0" y1="0" y2="-3500" />
<line class="line" x1="2150.0" x2="2150.0" y1="0" y2="-3500" />
<line class="line" x1="2250.0" x2="2250.0" y1="0" y2="-3500" />
<line class="line" x1="2350.0" x2="2350.0" y1="0" y2="-3500" />
<line class="line" x1="2450.0" x2="2450.0" y1="0" y2="-3500" />
<line class="line" x1="2550.0" x2="2550.0" y1="0" y2="-3500" />
<line class="line" x1="2650.0" x2="2650.0" y1="0" y2="-3500" />
<line class="line" x1="2750.0" x2="2750.0" y1="0" y2="-3500" />
<line class="line" x1="2850.0" x2="2850.0" y1="0" y2="-3500" />
<line class="line" x1="2950.0" x2="2950.0" y1="0" y2="-3500" />
<line class="line" x1="3050.0" x2="3050.0" y1="0" y2="-3500" />
<line class="line" x1="3150.0" x2="3150.0" y1="0" y2="-3500" />
<line class="line" x1="3250.0" x2="3250.0" y1="0" y2="-3500" />
<line class="line" x1="3350.0" x2="3350.0" y1="0" y2="-3500" />
<line class="line" x1="3450.0" x2="3450.0" y1="0" y2="-3500" />
<line class="line" x1="0" x2="3500" y1="50.0" y2="50.0" />
<line class="line" x1="0" x2="3500" y1="-50.0" y2="-50.0" />
<line class="line" x1="0" x2="3500" y1="-150.0" y2="-150.0" />
<line class="line" x1="0" x2="3500" y1="-250.0" y2="-250.0" />
<line class="line" x1="0" x2="3500" y1="-350.0" y2="-350.0" />
<line class="line" x1="0" x2="3500" y1="-450.0" y2="-450.0" />
<line class="line" x1="0" x2="3500" y1="-550.0" y2="-550.0" />
<line class="line" x1="0" x2="3500" y1="-650.0" y2="-650.0" />
<line class="line" x1="0" x2="3500" y1="-750.0" y2="-750.0" />
<line class="line" x1="0" x2="3500" y1="-850.0" y2="-850.0" />
<line class="line" x1="0" x2="3500" y1="-950.0" y2="-950.0" />
<line class="line" x1="0" x2="3500" y1="-1050.0" y2="-1050.0" />
<line class="line" x1="0" x2="3500" y1="-1150.0" y2="-1150.0" />
<line class="line" x1="0" x2="3500" y1="-1250.0" y2="-1250.0" />
<line class="line" x1="0" x2="3500" y1="-1350.0" y2="-1350.0" />
<line class="line" x1="0" x2="3500" y1="-1450.0" y2="-1450.0" />
<line class="line" x1="0" x2="3500" y1="-1550.0" y2="-1550.0" />
<line class="line" x1="0" x2="3500" y1="-1650.0" y2="-1650.0" />
<line class="line" x1="0" x2="3500" y1="-1750.0" y2="-1750.0" />
<line class="line" x1="0" x2="3500" y1="-1850.0" y2="-1850.0" />
<line class="line" x1="0" x2="3500" y1="-1950.0" y2="-1950.0" />
<line class="line" x1="0" x2="3500" y1="-2050.0" y2="-2050.0" />
<line class="line" x1="0" x2="3500" y1="-2150.0" y2="-2150.0" />
<line class="line" x1="0" x2="3500" y1="-2250.0" y2="-2250.0" />
<line class="line" x1="0" x2="3500" y1="-2350.0" y2="-2350.0" />
<line class="line" x1="0" x2="3500" y1="-2450.0" y2="-2450.0" />
<line class="line" x1="0" x2="3500" y1="-2550.0" y2="-2550.0" />
<line class="line" x1="0" x2="3500" y1="-2650.0" y2="-2650.0" />
<line class="line" x1="0" x2="3500" y1="-2750.0" y2="-2750.0" />
<line class="line" x1="0" x2="3500" y1="-2850.0" y2="-2850.0" />
<line class="line" x1="0" x2="3500" y1="-2950.0" y2="-2950.0" />
<line class="line" x1="0" x2="3500" y1="-3050.0" y2="-3050.0" />
<line class="line" x1="0" x2="3500" y1="-3150.0" y2="-3150.0" />
<line class="line" x1="0" x2="3500" y1="-3250.0" y2="-3250.0" />
<line class="line" x1="0" x2="3500" y1="-3350.0" y2="-3350.0" />
<line class="line" x1="0" x2="3500" y1="-3450.0" y2="-3450.0" />
<use href="#obstacle" x="65" y="-135" />
<use href="#obstacle" x="65" y="-235" />
<use href="#obstacle" x="65" y="-335" />
<use href="#obstacle" x="65" y="-435" />
<use href="#obstacle" x="65" y="-535" />
<use href="#obstacle" x="65" y="-635" />
<use href="#obstacle" x="65" y="-735" />
<use href="#obstacle" x="65" y="-835" />
<use href="#obstacle" x="65" y="-935" />
<use href="#obstacle" x="65" y="-1035" />
<use href="#obstacle" x="65" y="-1135" />
<use href="#obstacle" x="65" y="-1235" />
<use href="#obstacle" x="65" y="-1335" />
<use href="#obstacle" x="65" y="-1435" />
<use href="#obstacle" x="65" y="-1535" />
<use href="#obstacle" x="65" y="-1635" />
<use href="#obstacle" x="65" y="-1735" />
<use href="#obstacle" x="65" y="-1835" />
<use href="#obstacle" x="65" y="-1935" />
<use href="#obstacle" x="65" y="-2035" />
<use href="#obstacle" x="65" y="-2135" />
<use href="#obstacle" x="65" y="-2235" />
<use href="#obstacle" x="65" y="-2335" />
<use href="#obstacle" x="65" y="-2435" />
<use href="#obstacle" x="65" y="-2535" />
<use href="#obstacle" x="65" y="-2635" />
<use href="#obstacle" x="65" y="-2735" />
<use href="#obstacle" x="65" y="-2835" />
<use href="#obstacle" x="65" y="-2935" />
<use href="#obstacle" x="65" y="-3035" />
<use href="#obstacle" x="65" y="-3135" />
<use href="#obstacle" x="65" y="-3235" />
<use href="#obstacle" x="65" y="-3335" />
<use href="#obstacle" x="65" y="-3435" />
<use href="#obstacle" x="165" y="-135" />
<use href="#obstacle" x="165" y="-535" />
<use href="#obstacle" x="165" y="-935" />
<use href="#obstacle" x="165" y="-1735" />
<use href="#obstacle" x="165" y="-2135" />
<use href="#obstacle" x="165" y="-2335" />
<use href="#obstacle" x="165" y="-2635" />
<use href="#obstacle" x="165" y="-2935" />
<use href="#obstacle" x="165" y="-3035" />
<use href="#obstacle" x="165" y="-3235" />
<use href="#obstacle" x="165" y="-3335" />
<use href="#obstacle" x="165" y="-3435" />
<use href="#obstacle" x="265" y="-135" />
<use href="#obstacle" x="265" y="-935" />
<use href="#obstacle" x="265" y="-2635" />
<use href="#obstacle" x="265" y="-3135" />
<use href="#obstacle" x="265" y="-3435" />
<use href="#obstacle" x="365" y="-135" />
<use href="#obstacle" x="365" y="-235" />
<use href="#obstacle" x="365" y="-435" />
<use href="#obstacle" x="365" y="-635" />
<use href="#obstacle" x="365" y="-735" />
<use href="#obstacle" x="365" y="-1635" />
<use href="#obstacle" x="365" y="-2035" />
<use href="#obstacle" x="365" y="-2335" />
<use href="#obstacle" x="365" y="-2635" />
<use href="#obstacle" x="365" y="-2835" />
<use href="#obstacle" x="365" y="-3335" />
<use href="#obstacle" x="365" y="-3435" />
<use href="#obstacle" x="465" y="-135" />
<use href="#obstacle" x="465" y="-235" />
<use href="#obstacle" x="465" y="-335" />
<use href="#obstacle" x="465" y="-835" />
<use href="#obstacle" x="465" y="-1835" />
<use href="#obstacle" x="465" y="-1935" />
<use href="#obstacle" x="465" y="-3235" />
<use href="#obstacle" x="465" y="-3335" />
<use href="#obstacle" x="465" y="-3435" />
<use href="#obstacle" x="565" y="-135" />
<use href="#obstacle" x="565" y="-335" />
<use href="#obstacle" x="565" y="-735" />
<use href="#obstacle" x="565" y="-935" />
<use href="#obstacle" x="565" y="-2135" />
<use href="#obstacle" x="565" y="-2235" />
<use href="#obstacle" x="565" y="-2535" />
<use href="#obstacle" x="565" y="-2635" />
<use href="#obstacle" x="565" y="-2735" />
<use href="#obstacle" x="565" y="-2835" />
<use href="#obstacle" x="565" y="-3435" />
<use href="#obstacle" x="665" y="-135" />
<use href="#obstacle" x="665" y="-435" />
<use href="#obstacle" x="665" y="-635" />
<use href="#obstacle" x="665" y="-835" />
<use href="#obstacle" x="665" y="-935" />
<use href="#obstacle" x="665" y="-1935" />
<use href="#obstacle" x="665" y="-2335" />
<use href="#obstacle" x="665" y="-2435" />
<use href="#obstacle" x="665" y="-2535" />
<use href="#obstacle" x="665" y="-3035" />
<use href="#obstacle" x="665" y="-3435" />
<use href="#obstacle" x="765" y="-135" />
<use href="#obstacle" x="765" y="-235" />
<use href="#obstacle" x="765" y="-435" />
<use href="#obstacle" x="765" y="-835" />
<use href="#obstacle" x="765" y="-1035" />
<use href="#obstacle" x="765" y="-1135" />
<use href="#obstacle" x="765" y="-1835" />
<use href="#obstacle" x="765" y="-2235" />
<use href="#obstacle" x="765" y="-2935" />
<use href="#obstacle" x="765" y="-3035" />
<use href="#obstacle" x="765" y="-3335" />
<use href="#obstacle" x="765" y="-3435" />
<use href="#obstacle" x="865" y="-135" />
<use href="#obstacle" x="865" y="-535" />
<use href="#obstacle" x="865" y="-735" />
<use href="#obstacle" x="865" y="-935" />
<use href="#obstacle" x="865" y="-1235" />
<use href="#obstacle" x="865" y="-1435" />
<use href="#obstacle" x="865" y="-1635" />
<use href="#obstacle" x="865" y="-1735" />
<use href="#obstacle" x="865" y="-2535" />
<use href="#obstacle" x="865" y="-2935" />
<use href="#obstacle" x="865" y="-3035" />
<use href="#obstacle" x="865" y="-3335" />
<use href="#obstacle" x="865" y="-3435" />
<use href="#obstacle" x="965" y="-135" />
<use href="#obstacle" x="965" y="-235" />
<use href="#obstacle" x="965" y="-335" />
<use href="#obstacle" x="965" y="-435" />
<use href="#obstacle" x="965" y="-1035" />
<use href="#obstacle" x="965" y="-1135" />
<use href="#obstacle" x="965" y="-1235" />
<use href="#obstacle" x="965" y="-1435" />
<use href="#obstacle" x="965" y="-1635" />
<use href="#obstacle" x="965" y="-2135" />
<use href="#obstacle" x="965" y="-2535" />
<use href="#obstacle" x="965" y="-2635" />
<use href="#obstacle" x="965" y="-2735" />
<use href="#obstacle" x="965" y="-3235" />
<use href="#obstacle" x="965" y="-3435" />
<use href="#obstacle" x="1065" y="-135" />
<use href="#obstacle" x="1065" y="-235" />
<use href="#obstacle" x="1065" y="-435" />
<use href="#obstacle" x="1065" y="-635" />
<use href="#obstacle" x="1065" y="-1335" />
<use href="#obstacle" x="1065" y="-1535" />
<use href="#obstacle" x="1065" y="-2035" />
<use href="#obstacle" x="1065" y="-2435" />
<use href="#obstacle" x="1065" y="-2535" />
<use href="#obstacle" x="1065" y="-2635" />
<use href="#obstacle" x="1065" y="-2835" />
<use href="#obstacle" x="1065" y="-3135" />
<use href="#obstacle" x="1065" y="-3435" />
<use href="#obstacle" x="1165" y="-135" />
<use href="#obstacle" x="1165" y="-435" />
<use href="#obstacle" x="1165" y="-635" />
<use href="#obstacle" x="1165" y="-935" />
<use href="#obstacle" x="1165" y="-1235" />
<use href="#obstacle" x="1165" y="-1735" />
<use href="#obstacle" x="1165" y="-1935" />
<use href="#obstacle" x="1165" y="-2035" />
<use href="#obstacle" x="1165" y="-2535" />
<use href="#obstacle" x="1165" y="-2735" />
<use href="#obstacle" x="1165" y="-2835" />
<use href="#obstacle" x="1165" y="-3435" />
<use href="#obstacle" x="1265" y="-135" />
<use href="#obstacle" x="1265" y="-235" />
<use href="#obstacle" x="1265" y="-435" />
<use href="#obstacle" x="1265" y="-835" />
<use href="#obstacle" x="1265" y="-935" />
<use href="#obstacle" x="1265" y="-1335" />
<use href="#obstacle" x="1265" y="-1435" />
<use href="#obstacle" x="1265" y="-1935" />
<use href="#obstacle" x="1265" y="-2135" />
<use href="#obstacle" x="1265" y="-2335" />
<use href="#obstacle" x="1265" y="-2635" />
<use href="#obstacle" x="1265" y="-2735" />
<use href="#obstacle" x="1265" y="-3435" />
<use href="#obstacle" x="1365" y="-135" />
<use href="#obstacle" x="1365" y="-435" />
<use href="#obstacle" x="1365" y="-1235" />
<use href="#obstacle" x="1365" y="-1735" />
<use href="#obstacle" x="1365" y="-2035" />
<use href="#obstacle" x="1365" y="-2335" />
<use href="#obstacle" x="1365" y="-2535" />
<use href="#obstacle" x="1365" y="-2935" />
<use href="#obstacle" x="1365" y="-3035" />
<use href="#obstacle" x="1365" y="-3135" />
<use href="#obstacle" x="1365" y="-3435" />
<use href="#obstacle" x="1465" y="-135" />
<use href="#obstacle" x="1465" y="-235" />
<use href="#obstacle" x="1465" y="-435" />
<use href="#obstacle" x="1465" y="-635" />
<use href="#obstacle" x="1465" y="-835" />
<use href="#obstacle" x="1465" y="-1135" />
<use href="#obstacle" x="1465" y="-1335" />
<use href="#obstacle" x="1465" y="-1435" />
<use href="#obstacle" x="1465" y="-2035" />
<use href="#obstacle" x="1465" y="-2235" />
<use href="#obstacle" x="1465" y="-2435" />
<use href="#obstacle" x="1465" y="-2535" />
<use href="#obstacle" x="1465" y="-2635" />
<use href="#obstacle" x="1465" y="-3435" />
<use href="#obstacle" x="1565" y="-135" />
<use href="#obstacle" x="1565" y="-535" />
<use href="#obstacle" x="1565" y="-935" />
<use href="#obstacle" x="1565" y="-1335" />
<use href="#obstacle" x="1565" y="-1535" />
<use href="#obstacle" x="1565" y="-2435" />
<use href="#obstacle" x="1565" y="-2635" />
<use href="#obstacle" x="1565" y="-2735" />
<use href="#obstacle" x="1565" y="-2835" />
<use href="#obstacle" x="1565" y="-3235" />
<use href="#obstacle" x="1565" y="-3435" />
<use href="#obstacle" x="1665" y="-135" />
<use href="#obstacle" x="1665" y="-735" />
<use href="#obstacle" x="1665" y="-835" />
<use href="#obstacle" x="1665" y="-1135" />
<use href="#obstacle" x="1665" y="-1635" />
<use href="#obstacle" x="1665" y="-1735" />
<use href="#obstacle" x="1665" y="-2135" />
<use href="#obstacle" x="1665" y="-2235" />
<use href="#obstacle" x="1665" y="-2335" />
<use href="#obstacle" x="1665" y="-2635" />
<use href="#obstacle" x="1665" y="-2935" />
<use href="#obstacle" x="1665" y="-3435" />
<use href="#obstacle" x="1765" y="-135" />
<use href="#obstacle" x="1765" y="-235" />
<use href="#obstacle" x="1765" y="-335" />
<use href="#obstacle" x="1765" y="-435" />
<use href="#obstacle" x="1765" y="-535" />
<use href="#obstacle" x="1765" y="-935" />
<use href="#obstacle" x="1765" y="-1135" />
<use href="#obstacle" x="1765" y="-1935" />
<use href="#obstacle" x="1765" y="-2035" />
<use href="#obstacle" x="1765" y="-3135" />
<use href="#obstacle" x="1765" y="-3435" />
<use href="#obstacle" x="1865" y="-135" />
<use href="#obstacle" x="1865" y="-235" />
<use href="#obstacle" x="1865" y="-535" />
<use href="#obstacle" x="1865" y="-735" />
<use href="#obstacle" x="1865" y="-1035" />
<use href="#obstacle" x="1865" y="-1335" />
<use href="#obstacle" x="1865" y="-1835" />
<use href="#obstacle" x="1865" y="-1935" />
<use href="#obstacle" x="1865" y="-2235" />
<use href="#obstacle" x="1865" y="-2435" />
<use href="#obstacle" x="1865" y="-3035" />
<use href="#obstacle" x="1865" y="-3435" />
<use href="#obstacle" x="1965" y="-135" />
<use href="#obstacle" x="1965" y="-235" />
<use href="#obstacle" x="1965" y="-435" />
<use href="#obstacle" x="1965" y="-535" />
<use href="#obstacle" x="1965" y="-635" />
<use href="#obstacle" x="1965" y="-835" />
<use href="#obstacle" x="1965" y="-1035" />
<use href="#obstacle" x="1965" y="-1135" />
<use href="#obstacle" x="1965" y="-1335" />
<use href="#obstacle" x="1965" y="-1535" />
<use href="#obstacle" x="1965" y="-1635" />
<use href="#obstacle" x="1965" y="-2035" />
<use href="#obstacle" x="1965" y="-2135" />
<use href="#obstacle" x="1965" y="-2735" />
<use href="#obstacle" x="1965" y="-2935" />
<use href="#obstacle" x="1965" y="-3035" />
<use href="#obstacle" x="1965" y="-3435" />
<use href="#obstacle" x="2065" y="-135" />
<use href="#obstacle" x="2065" y="-835" />
<use href="#obstacle" x="2065" y="-2035" />
<use href="#obstacle" x="2065" y="-2135" />
<use href="#obstacle" x="2065" y="-2835" />
<use href="#obstacle" x="2065" y="-3135" />
<use href="#obstacle" x="2065" y="-3435" />
<use href="#obstacle" x="2165" y="-135" />
<use href="#obstacle" x="2165" y="-1035" />
<use href="#obstacle" x="2165" y="-1535" />
<use href="#obstacle" x="2165" y="-2335" />
<use href="#obstacle" x="2165" y="-2835" />
<use href="#obstacle" x="2165" y="-2935" />
<use href="#obstacle" x="2165" y="-3035" />
<use href="#obstacle" x="2165" y="-3135" />
<use href="#obstacle" x="2165" y="-3335" />
<use href="#obstacle" x="2165" y="-3435" />
<use href="#obstacle" x="2265" y="-135" />
<use href="#obstacle" x="2265" y="-435" />
<use href="#obstacle" x="2265" y="-535" />
<use href="#obstacle" x="2265" y="-935" />
<use href="#obstacle" x="2265" y="-1735" />
<use href="#obstacle" x="2265" y="-2135" />
<use href="#obstacle" x="2265" y="-2235" />
<use href="#obstacle" x="2265" y="-2335" />
<use href="#obstacle" x="2265" y="-2835" />
<use href="#obstacle" x="2265" y="-3035" />
<use href="#obstacle" x="2265" y="-3435" />
<use href="#obstacle" x="2365" y="-135" />
<use href="#obstacle" x="2365" y="-635" />
<use href="#obstacle" x="2365" y="-835" />
<use href="#obstacle" x="2365" y="-1735" />
<use href="#obstacle" x="2365" y="-1835" />
<use href="#obstacle" x="2365" y="-2635" />
<use href="#obstacle" x="2365" y="-3435" />
<use href="#obstacle" x="2465" y="-135" />
<use href="#obstacle" x="2465" y="-335" />
<use href="#obstacle" x="2465" y="-935" />
<use href="#obstacle" x="2465" y="-1135" />
<use href="#obstacle" x="2465" y="-1335" />
<use href="#obstacle" x="2465" y="-1435" />
<use href="#obstacle" x="2465" y="-1735" />
<use href="#obstacle" x="2465" y="-3035" />
<use href="#obstacle" x="2465" y="-3135" />
<use href="#obstacle" x="2465" y="-3435" />
<use href="#obstacle" x="2565" y="-135" />
<use href="#obstacle" x="2565" y="-735" />
<use href="#obstacle" x="2565" y="-1035" />
<use href="#obstacle" x="2565" y="-1135" />
<use href="#obstacle" x="2565" y="-1235" />
<use href="#obstacle" x="2565" y="-2635" />
<use href="#obstacle" x="2565" y="-2735" />
<use href="#obstacle" x="2565" y="-2835" />
<use href="#obstacle" x="2565" y="-3435" />
<use href="#obstacle" x="2665" y="-135" />
<use href="#obstacle" x="2665" y="-735" />
<use href="#obstacle" x="2665" y="-835" />
<use href="#obstacle" x="2665" y="-1335" />
<use href="#obstacle" x="2665" y="-1535" />
<use href="#obstacle" x="2665" y="-1635" />
<use href="#obstacle" x="2665" y="-1735" />
<use href="#obstacle" x="2665" y="-1935" />
<use href="#obstacle" x="2665" y="-2035" />
<use href="#obstacle" x="2665" y="-2335" />
<use href="#obstacle" x="2665" y="-2435" />
<use href="#obstacle" x="2665" y="-2735" />
<use href="#obstacle" x="2665" y="-2835" />
<use href="#obstacle" x="2665" y="-3435" />
<use href="#obstacle" x="2765" y="-135" />
<use href="#obstacle" x="2765" y="-335" />
<use href="#obstacle" x="2765" y="-435" />
<use href="#obstacle" x="2765" y="-635" />
<use href="#obstacle" x="2765" y="-935" />
<use href="#obstacle" x="2765" y="-1135" />
<use href="#obstacle" x="2765" y="-1435" />
<use href="#obstacle" x="2765" y="-1735" />
<use href="#obstacle" x="2765" y="-1835" />
<use href="#obstacle" x="2765" y="-1935" />
<use href="#obstacle" x="2765" y="-2035" />
<use href="#obstacle" x="2765" y="-2135" />
<use href="#obstacle" x="2765" y="-2235" />
<use href="#obstacle" x="2765" y="-2335" />
<use href="#obstacle" x="2765" y="-2635" />
<use href="#obstacle" x="2765" y="-2835" />
<use href="#obstacle" x="2765" y="-3135" />
<use href="#obstacle" x="2765" y="-3235" />
<use href="#obstacle" x="2765" y="-3435" />
<use href="#obstacle" x="2865" y="-135" />
<use href="#obstacle" x="2865" y="-235" />
<use href="#obstacle" x="2865" y="-335" />
<use href="#obstacle" x="2865" y="-935" />
<use href="#obstacle" x="2865" y="-1135" />
<use href="#obstacle" x="2865" y="-1635" />
<use href="#obstacle" x="2865" y="-2435" />
<use href="#obstacle" x="2865" y="-2535" />
<use href="#obstacle" x="2865" y="-2635" />
<use href="#obstacle" x="2865" y="-3235" />
<use href="#obstacle" x="2865" y="-3435" />
<use href="#obstacle" x="2965" y="-135" />
<use href="#obstacle" x="2965" y="-235" />
<use href="#obstacle" x="2965" y="-335" />
<use href="#obstacle" x="2965" y="-735" />
<use href="#obstacle" x="2965" y="-1035" />
<use href="#obstacle" x="2965" y="-1635" />
<use href="#obstacle" x="2965" y="-1735" />
<use href="#obstacle" x="2965" y="-1835" />
<use href="#obstacle" x="2965" y="-1935" />
<use href="#obstacle" x="2965" y="-2235" />
<use href="#obstacle" x="2965" y="-2335" />
<use href="#obstacle" x="2965" y="-2435" />
<use href="#obstacle" x="2965" y="-2535" />
<use href="#obstacle" x="2965" y="-3235" />
<use href="#obstacle" x="2965" y="-3435" />
<use href="#obstacle" x="3065" y="-135" />
<use href="#obstacle" x="3065" y="-435" />
<use href="#obstacle" x="3065" y="-735" />
<use href="#obstacle" x="3065" y="-1035" />
<use href="#obstacle" x="3065" y="-1135" />
<use href="#obstacle" x="3065" y="-1535" />
<use href="#obstacle" x="3065" y="-2035" />
<use href="#obstacle" x="3065" y="-2235" />
<use href="#obstacle" x="3065" y="-2335" />
<use href="#obstacle" x="3065" y="-2935" />
<use href="#obstacle" x="3065" y="-3435" />
<use href="#obstacle" x="3165" y="-135" />
<use href="#obstacle" x="3165" y="-835" />
<use href="#obstacle" x="3165" y="-1035" />
<use href="#obstacle" x="3165" y="-1135" />
<use href="#obstacle" x="3165" y="-1535" />
<use href="#obstacle" x="3165" y="-1735" />
<use href="#obstacle" x="3165" y="-1835" />
<use href="#obstacle" x="3165" y="-2335" />
<use href="#obstacle" x="3165" y="-2435" />
<use href="#obstacle" x="3165" y="-2835" />
<use href="#obstacle" x="3165" y="-2935" />
<use href="#obstacle" x="3165" y="-3135" />
<use href="#obstacle" x="3165" y="-3435" />
<use href="#obstacle" x="3265" y="-135" />
<use href="#obstacle" x="3265" y="-335" />
<use href="#obstacle" x="3265" y="-735" />
<use href="#obstacle" x="3265" y="-935" />
<use href="#obstacle" x="3265" y="-1035" />
<use href="#obstacle" x="3265" y="-1235" />
<use href="#obstacle" x="3265" y="-1435" />
<use href="#obstacle" x="3265" y="-1535" />
<use href="#obstacle" x="3265" y="-3335" />
<use href="#obstacle" x="3265" y="-3435" />
<use href="#obstacle" x="3365" y="-135" />
<use href="#obstacle" x="3365" y="-235" />
<use href="#obstacle" x="3365" y="-335" />
<use href="#obstacle" x="3365" y="-435" />
<use href="#obstacle" x="3365" y="-535" />
<use href="#obstacle" x="3365" y="-635" />
<use href="#obstacle" x="3365" y="-735" />
<use href="#obstacle" x="3365" y="-835" />
<use href="#obstacle" x="3365" y="-935" />
<use href="#obstacle" x="3365" y="-1035" />
<use href="#obstacle" x="3365" y="-1135" />
<use href="#obstacle" x="3365" y="-1235" />
<use href="#obstacle" x="3365" y="-1335" />
<use href="#obstacle" x="3365" y="-1435" />
<use href="#obstacle" x="3365" y="-1535" />
<use href="#obstacle" x="3365" y="-1635" />
<use href="#obstacle" x="3365" y="-1735" />
<use href="#obstacle" x="3365" y="-1835" />
<use href="#obstacle" x="3365" y="-1935" />
<use href="#obstacle" x="3365" y="-2035" />
<use href="#obstacle" x="3365" y="-2135" />
<use href="#obstacle" x="3365" y="-2235" />
<use href="#obstacle" x="3365" y="-2335" />
<use href="#obstacle" x="3365" y="-2435" />
<use href="#obstacle" x="3365" y="-2535" />
<use href="#obstacle" x="3365" y="-2635" />
<use href="#obstacle" x="3365" y="-2735" />
<use href="#obstacle" x="3365" y="-2835" />
<use href="#obstacle" x="3365" y="-2935" />
<use href="#obstacle" x="3365" y="-3035" />
<use href="#obstacle" x="3365" y="-3135" />
<use href="#obstacle" x="3365" y="-3235" />
<use href="#obstacle" x="3365" y="-3335" />
<use href="#obstacle" x="3365" y="-3435" />
<circle class="agent" cx="200" cy="-400" fill="#c1433c" r="35"> <animate attributeName="cy" dur="19.0s" keyTimes="0.0;0.012987013;0.025974026;0.038961039;0.0649350649;0.0779220779;0.0909090909;0.1168831169;0.1298701299;0.1428571429;0.1558441558;0.1818181818;0.1948051948;0.2207792208;0.2337662338;0.2467532468;0.2597402597;0.2727272727;0.2857142857;0.2987012987;0.3116883117;0.3376623377;0.3506493506;0.3896103896;0.4025974026;0.4285714286;0.4415584416;0.4545454545;0.4675324675;0.4805194805;0.4935064935;0.5064935065;0.5194805195;0.5324675325;0.5454545455;0.5584415584;0.5844155844;0.5974025974;0.6233766234;0.6363636364;0.6493506494;0.6753246753;0.6883116883;0.7012987013;0.7142857143;0.7272727273;0.7402597403;0.7532467532;0.7662337662;0.7792207792;0.7922077922;0.8571428571;0.8701298701;0.8831168831;0.8961038961;0.9090909091;0.9220779221;0.9350649351;0.974025974;0.987012987;1.0" repeatCount="indefinite" values="-400;-400;-400;-500;-500;-600;-700;-700;-600;-600;-500;-500;-600;-600;-700;-800;-900;-900;-1000;-1100;-1200;-1200;-1100;-1100;-1000;-1000;-1100;-1200;-1200;-1300;-1400;-1500;-1500;-1600;-1700;-1800;-1800;-1700;-1700;-1800;-1900;-1900;-2000;-2100;-2200;-2200;-2300;-2400;-2500;-2600;-2700;-2700;-2800;-2900;-3000;-3100;-3100;-3200;-3200;-3300;-3300"/>
<animate attributeName="cx" dur="19.0s" keyTimes="0.0;0.012987013;0.025974026;0.038961039;0.0519480519;0.0649350649;0.1298701299;0.1428571429;0.1558441558;0.1688311688;0.1818181818;0.1948051948;0.2077922078;0.2207792208;0.2597402597;0.2727272727;0.3506493506;0.3636363636;0.3766233766;0.3896103896;0.4025974026;0.4155844156;0.4285714286;0.4545454545;0.4675324675;0.5064935065;0.5194805195;0.5974025974;0.6103896104;0.6233766234;0.6493506494;0.6623376623;0.6753246753;0.7142857143;0.7272727273;0.8181818182;0.8311688312;0.8441558442;0.8571428571;0.9090909091;0.9220779221;0.9350649351;0.9480519481;0.961038961;0.974025974;1.0" repeatCount="indefinite" values="200;200;300;300;400;500;500;600;600;700;800;800;900;1000;1000;1100;1100;1200;1300;1400;1400;1500;1600;1600;1700;1700;1800;1800;1900;2000;2000;2100;2200;2200;2100;2100;2200;2300;2400;2400;2300;2300;2200;2100;2000;2000"/>
<animate attributeName="visibility" dur="19.0s" keyTimes="0.0;0.012987013;1.0" repeatCount="indefinite" values="visible;visible;visible"/> </circle>
<circle class="agent" cx="3300" cy="-200" fill="#2e6f9e" r="35"> <animate attributeName="cy" dur="19.0s" keyTimes="0.0;0.012987013;0.025974026;0.038961039;0.0519480519;0.0649350649;0.1558441558;0.1688311688;0.1818181818;0.2207792208;0.2337662338;0.2467532468;0.2597402597;0.2727272727;0.2857142857;0.2987012987;0.3116883117;0.3246753247;0.3506493506;0.3636363636;0.3766233766;0.3896103896;0.4025974026;0.4285714286;0.4415584416;0.4545454545;0.4805194805;0.4935064935;0.5064935065;0.5194805195;0.5454545455;0.5584415584;0.5844155844;0.5974025974;1.0" repeatCount="indefinite" values="-200;-200;-200;-300;-400;-500;-500;-600;-700;-700;-800;-900;-900;-1000;-1100;-1200;-1300;-1400;-1400;-1500;-1600;-1600;-1700;-1700;-1800;-1900;-1900;-2000;-2100;-2200;-2200;-2300;-2300;-2400;-2400"/>
<animate attributeName="cx" dur="19.0s" keyTimes="0.0;0.012987013;0.025974026;0.0649350649;0.0779220779;0.0909090909;0.1038961039;0.1168831169;0.1298701299;0.1428571429;0.1558441558;0.1818181818;0.1948051948;0.2077922078;0.2207792208;0.2467532468;0.2597402597;0.3246753247;0.3376623377;0.3506493506;0.3766233766;0.3896103896;0.4025974026;0.4155844156;0.4285714286;0.4545454545;0.4675324675;0.4805194805;0.5194805195;0.5324675325;0.5454545455;0.5584415584;0.5714285714;0.5844155844;0.5974025974;0.6103896104;1.0" repeatCount="indefinite" values="3300;3300;3200;3200;3100;3000;2900;2800;2700;2600;2500;2500;2400;2300;2200;2200;2100;2100;2000;1900;1900;1800;1800;1900;2000;2000;2100;2200;2200;2100;2000;2000;1900;1800;1800;1700;1700"/>
<animate attributeName="visibility" dur="19.0s" keyTimes="0.0;0.012987013;1.0" repeatCount="indefinite" values="visible;visible;visible"/> </circle>
<circle class="agent" cx="2700" cy="-3100" fill="#6e81af" r="35"> <animate attributeName="cy" dur="19.0s" keyTimes="0.0;0.012987013;0.025974026;0.038961039;0.1558441558;0.1688311688;1.0" repeatCount="indefinite" values="-3100;-3100;-3100;-3200;-3200;-3300;-3300"/>
<animate attributeName="cx" dur="19.0s" keyTimes="0.0;0.012987013;0.025974026;0.038961039;0.0519480519;0.0649350649;0.0779220779;0.0909090909;0.1038961039;0.1168831169;0.1298701299;0.1428571429;0.1558441558;0.1688311688;0.1818181818;0.1948051948;1.0" repeatCount="indefinite" values="2700;2700;2600;2600;2500;2400;2300;2200;2100;2000;1900;1800;1700;1700;1600;1500;1500"/>
<animate attributeName="visibility" dur="19.0s" keyTimes="0.0;0.012987013;1.0" repeatCount="indefinite" values="visible;visible;visible"/> </circle>
<circle class="agent" cx="2500" cy="-700" fill="#00b9c8" r="35"> <animate attributeName="cy" dur="19.0s" keyTimes="0.0;0.012987013;0.0519480519;0.0649350649;0.0779220779;0.0909090909;0.1038961039;0.1168831169;0.1298701299;0.1428571429;0.1558441558;0.1818181818;0.1948051948;0.2077922078;0.2207792208;0.2337662338;0.2467532468;0.3506493506;0.3636363636;1.0" repeatCount="indefinite" values="-700;-700;-700;-800;-900;-900;-1000;-1100;-1200;-1300;-1400;-1400;-1500;-1600;-1600;-1700;-1800;-1800;-1700;-1700"/>
<animate attributeName="cx" dur="19.0s" keyTimes="0.0;0.012987013;0.025974026;0.038961039;0.0519480519;0.0779220779;0.0909090909;0.1558441558;0.1688311688;0.1818181818;0.2077922078;0.2207792208;0.2467532468;0.2597402597;0.2727272727;0.2857142857;0.2987012987;0.3116883117;0.3246753247;0.3376623377;0.3506493506;1.0" repeatCount="indefinite" values="2500;2500;2400;2300;2200;2200;2100;2100;2000;1900;1900;1800;1800;1700;1600;1500;1400;1300;1200;1100;1000;1000"/>
<animate attributeName="visibility" dur="19.0s" keyTimes="0.0;0.012987013;1.0" repeatCount="indefinite" values="visible;visible;visible"/> </circle>
<circle class="target" cx="2000" cy="-3300" r="35" stroke="#c1433c"> <animate attributeName="visibility" dur="19.0s" keyTimes="0.0;0.012987013;1.0" repeatCount="indefinite" values="visible;visible;visible"/> </circle>
<circle class="target" cx="1700" cy="-2400" r="35" stroke="#2e6f9e"> <animate attributeName="visibility" dur="19.0s" keyTimes="0.0;0.012987013;1.0" repeatCount="indefinite" values="visible;visible;visible"/> </circle>
<circle class="target" cx="1500" cy="-3300" r="35" stroke="#6e81af"> <animate attributeName="visibility" dur="19.0s" keyTimes="0.0;0.012987013;1.0" repeatCount="indefinite" values="visible;visible;visible"/> </circle>
<circle class="target" cx="1000" cy="-1700" r="35" stroke="#00b9c8"> <animate attributeName="visibility" dur="19.0s" keyTimes="0.0;0.012987013;1.0" repeatCount="indefinite" values="visible;visible;visible"/> </circle>
</svg>