<?xml version="1.0" encoding="UTF-8"?>
        <svg xmlns="http://www.w3.org/2000/svg" xmlns:xlink="http://www.w3.org/1999/xlink"
             width="430" height="430" viewBox="0 -4300 4300 4300">

<defs>

</defs>

<rect fill="#84A1AE" height="70" rx="15" width="70" x="465" y="-535" />
<rect fill="#84A1AE" height="70" rx="15" width="70" x="465" y="-635" />
<rect fill="#84A1AE" height="70" rx="15" width="70" x="465" y="-735" />
<rect fill="#84A1AE" height="70" rx="15" width="70" x="465" y="-835" />
<rect fill="#84A1AE" height="70" rx="15" width="70" x="465" y="-935" />
<rect fill="#84A1AE" height="70" rx="15" width="70" x="465" y="-1035" />
<rect fill="#84A1AE" height="70" rx="15" width="70" x="465" y="-1135" />
<rect fill="#84A1AE" height="70" rx="15" width="70" x="465" y="-1235" />
<rect fill="#84A1AE" height="70" rx="15" width="70" x="465" y="-1335" />
<rect fill="#84A1AE" height="70" rx="15" width="70" x="465" y="-1435" />
<rect fill="#84A1AE" height="70" rx="15" width="70" x="465" y="-1535" />
<rect fill="#84A1AE" height="70" rx="15" width="70" x="465" y="-1635" />
<rect fill="#84A1AE" height="70" rx="15" width="70" x="465" y="-1735" />
<rect fill="#84A1AE" height="70" rx="15" width="70" x="465" y="-1835" />
<rect fill="#84A1AE" height="70" rx="15" width="70" x="465" y="-1935" />
<rect fill="#84A1AE" height="70" rx="15" width="70" x="465" y="-2035" />
<rect fill="#84A1AE" height="70" rx="15" width="70" x="465" y="-2135" />
<rect fill="#84A1AE" height="70" rx="15" width="70" x="465" y="-2235" />
<rect fill="#84A1AE" height="70" rx="15" width="70" x="465" y="-2335" />
<rect fill="#84A1AE" height="70" rx="15" width="70" x="465" y="-2435" />
<rect fill="#84A1AE" height="70" rx="15" width="70" x="465" y="-2535" />
<rect fill="#84A1AE" height="70" rx="15" width="70" x="465" y="-2635" />
<rect fill="#84A1AE" height="70" rx="15" width="70" x="465" y="-2735" />
<rect fill="#84A1AE" height="70" rx="15" width="70" x="465" y="-2835" />
<rect fill="#84A1AE" height="70" rx="15" width="70" x="465" y="-2935" />
<rect fill="#84A1AE" height="70" rx="15" width="70" x="465" y="-3035" />
<rect fill="#84A1AE" height="70" rx="15" width="70" x="465" y="-3135" />
<rect fill="#84A1AE" height="70" rx="15" width="70" x="465" y="-3235" />
<rect fill="#84A1AE" height="70" rx="15" width="70" x="465" y="-3335" />
<rect fill="#84A1AE" height="70" rx="15" width="70" x="465" y="-3435" />
<rect fill="#84A1AE" height="70" rx="15" width="70" x="465" y="-3535" />
<rect fill="#84A1AE" height="70" rx="15" width="70" x="465" y="-3635" />
<rect fill="#84A1AE" height="70" rx="15" width="70" x="465" y="-3735" />
<rect fill="#84A1AE" height="70" rx="15" width="70" x="465" y="-3835" />
<rect fill="#84A1AE" height="70" rx="15" width="70" x="565" y="-535" />
<rect fill="#84A1AE" height="70" rx="15" width="70" x="565" y="-1635" />
<rect fill="#84A1AE" height="70" rx="15" width="70" x="565" y="-1935" />
<rect fill="#84A1AE" height="70" rx="15" width="70" x="565" y="-2735" />
<rect fill="#84A1AE" height="70" rx="15" width="70" x="565" y="-3835" />
<rect fill="#84A1AE" height="70" rx="15" width="70" x="665" y="-535" />
<rect fill="#84A1AE" height="70" rx="15" width="70" x="665" y="-1035" />
<rect fill="#84A1AE" height="70" rx="15" width="70" x="665" y="-2535" />
<rect fill="#84A1AE" height="70" rx="15" width="70" x="665" y="-3035" />
<rect fill="#84A1AE" height="70" rx="15" width="70" x="665" y="-3235" />
<rect fill="#84A1AE" height="70" rx="15" width="70" x="665" y="-3835" />
<rect fill="#84A1AE" height="70" rx="15" width="70" x="765" y="-535" />
<rect fill="#84A1AE" height="70" rx="15" width="70" x="765" y="-635" />
<rect fill="#84A1AE" height="70" rx="15" width="70" x="765" y="-3835" />
<rect fill="#84A1AE" height="70" rx="15" width="70" x="865" y="-535" />
<rect fill="#84A1AE" height="70" rx="15" width="70" x="865" y="-2435" />
<rect fill="#84A1AE" height="70" rx="15" width="70" x="865" y="-2535" />
<rect fill="#84A1AE" height="70" rx="15" width="70" x="865" y="-3335" />
<rect fill="#84A1AE" height="70" rx="15" width="70" x="865" y="-3435" />
<rect fill="#84A1AE" height="70" rx="15" width="70" x="865" y="-3835" />
<rect fill="#84A1AE" height="70" rx="15" width="70" x="965" y="-535" />
<rect fill="#84A1AE" height="70" rx="15" width="70" x="965" y="-735" />
<rect fill="#84A1AE" height="70" rx="15" width="70" x="965" y="-1635" />
<rect fill="#84A1AE" height="70" rx="15" width="70" x="965" y="-1835" />
<rect fill="#84A1AE" height="70" rx="15" width="70" x="965" y="-2835" />
<rect fill="#84A1AE" height="70" rx="15" width="70" x="965" y="-3435" />
<rect fill="#84A1AE" height="70" rx="15" width="70" x="965" y="-3835" />
<rect fill="#84A1AE" height="70" rx="15" width="70" x="1065" y="-535" />
<rect fill="#84A1AE" height="70" rx="15" width="70" x="1065" y="-1135" />
<rect fill="#84A1AE" height="70" rx="15" width="70" x="1065" y="-1835" />
<rect fill="#84A1AE" height="70" rx="15" width="70" x="1065" y="-3735" />
<rect fill="#84A1AE" height="70" rx="15" width="70" x="1065" y="-3835" />
<rect fill="#84A1AE" height="70" rx="15" width="70" x="1165" y="-535" />
<rect fill="#84A1AE" height="70" rx="15" width="70" x="1165" y="-635" />
<rect fill="#84A1AE" height="70" rx="15" width="70" x="1165" y="-735" />
<rect fill="#84A1AE" height="70" rx="15" width="70" x="1165" y="-1535" />
<rect fill="#84A1AE" height="70" rx="15" width="70" x="1165" y="-3835" />
<rect fill="#84A1AE" height="70" rx="15" width="70" x="1265" y="-535" />
<rect fill="#84A1AE" height="70" rx="15" width="70" x="1265" y="-2835" />
<rect fill="#84A1AE" height="70" rx="15" width="70" x="1265" y="-3435" />
<rect fill="#84A1AE" height="70" rx="15" width="70" x="1265" y="-3835" />
<rect fill="#84A1AE" height="70" rx="15" width="70" x="1365" y="-535" />
<rect fill="#84A1AE" height="70" rx="15" width="70" x="1365" y="-835" />
<rect fill="#84A1AE" height="70" rx="15" width="70" x="1365" y="-935" />
<rect fill="#84A1AE" height="70" rx="15" width="70" x="1365" y="-1035" />
<rect fill="#84A1AE" height="70" rx="15" width="70" x="1365" y="-1935" />
<rect fill="#84A1AE" height="70" rx="15" width="70" x="1365" y="-2335" />
<rect fill="#84A1AE" height="70" rx="15" width="70" x="1365" y="-2635" />
<rect fill="#84A1AE" height="70" rx="15" width="70" x="1365" y="-2835" />
<rect fill="#84A1AE" height="70" rx="15" width="70" x="1365" y="-2935" />
<rect fill="#84A1AE" height="70" rx="15" width="70" x="1365" y="-3035" />
<rect fill="#84A1AE" height="70" rx="15" width="70" x="1365" y="-3335" />
<rect fill="#84A1AE" height="70" rx="15" width="70" x="1365" y="-3835" />
<rect fill="#84A1AE" height="70" rx="15" width="70" x="1465" y="-535" />
<rect fill="#84A1AE" height="70" rx="15" width="70" x="1465" y="-1235" />
<rect fill="#84A1AE" height="70" rx="15" width="70" x="1465" y="-1535" />
<rect fill="#84A1AE" height="70" rx="15" width="70" x="1465" y="-2035" />
<rect fill="#84A1AE" height="70" rx="15" width="70" x="1465" y="-3135" />
<rect fill="#84A1AE" height="70" rx="15" width="70" x="1465" y="-3235" />
<rect fill="#84A1AE" height="70" rx="15" width="70" x="1465" y="-3835" />
<rect fill="#84A1AE" height="70" rx="15" width="70" x="1565" y="-535" />
<rect fill="#84A1AE" height="70" rx="15" width="70" x="1565" y="-3035" />
<rect fill="#84A1AE" height="70" rx="15" width="70" x="1565" y="-3835" />
<rect fill="#84A1AE" height="70" rx="15" width="70" x="1665" y="-535" />
<rect fill="#84A1AE" height="70" rx="15" width="70" x="1665" y="-3735" />
<rect fill="#84A1AE" height="70" rx="15" width="70" x="1665" y="-3835" />
<rect fill="#84A1AE" height="70" rx="15" width="70" x="1765" y="-535" />
<rect fill="#84A1AE" height="70" rx="15" width="70" x="1765" y="-1235" />
<rect fill="#84A1AE" height="70" rx="15" width="70" x="1765" y="-3835" />
<rect fill="#84A1AE" height="70" rx="15" width="70" x="1865" y="-535" />
<rect fill="#84A1AE" height="70" rx="15" width="70" x="1865" y="-735" />
<rect fill="#84A1AE" height="70" rx="15" width="70" x="1865" y="-1335" />
<rect fill="#84A1AE" height="70" rx="15" width="70" x="1865" y="-3235" />
<rect fill="#84A1AE" height="70" rx="15" width="70" x="1865" y="-3435" />
<rect fill="#84A1AE" height="70" rx="15" width="70" x="1865" y="-3835" />
<rect fill="#84A1AE" height="70" rx="15" width="70" x="1965" y="-535" />
<rect fill="#84A1AE" height="70" rx="15" width="70" x="1965" y="-635" />
<rect fill="#84A1AE" height="70" rx="15" width="70" x="1965" y="-1835" />
<rect fill="#84A1AE" height="70" rx="15" width="70" x="1965" y="-1935" />
<rect fill="#84A1AE" height="70" rx="15" width="70" x="1965" y="-2135" />
<rect fill="#84A1AE" height="70" rx="15" width="70" x="1965" y="-2335" />
<rect fill="#84A1AE" height="70" rx="15" width="70" x="1965" y="-2435" />
<rect fill="#84A1AE" height="70" rx="15" width="70" x="1965" y="-3335" />
<rect fill="#84A1AE" height="70" rx="15" width="70" x="1965" y="-3835" />
<rect fill="#84A1AE" height="70" rx="15" width="70" x="2065" y="-535" />
<rect fill="#84A1AE" height="70" rx="15" width="70" x="2065" y="-1535" />
<rect fill="#84A1AE" height="70" rx="15" width="70" x="2065" y="-1635" />
<rect fill="#84A1AE" height="70" rx="15" width="70" x="2065" y="-2135" />
<rect fill="#84A1AE" height="70" rx="15" width="70" x="2065" y="-3835" />
<rect fill="#84A1AE" height="70" rx="15" width="70" x="2165" y="-535" />
<rect fill="#84A1AE" height="70" rx="15" width="70" x="2165" y="-935" />
<rect fill="#84A1AE" height="70" rx="15" width="70" x="2165" y="-1335" />
<rect fill="#84A1AE" height="70" rx="15" width="70" x="2165" y="-1835" />
<rect fill="#84A1AE" height="70" rx="15" width="70" x="2165" y="-3835" />
<rect fill="#84A1AE" height="70" rx="15" width="70" x="2265" y="-535" />
<rect fill="#84A1AE" height="70" rx="15" width="70" x="2265" y="-935" />
<rect fill="#84A1AE" height="70" rx="15" width="70" x="2265" y="-1135" />
<rect fill="#84A1AE" height="70" rx="15" width="70" x="2265" y="-2535" />
<rect fill="#84A1AE" height="70" rx="15" width="70" x="2265" y="-3235" />
<rect fill="#84A1AE" height="70" rx="15" width="70" x="2265" y="-3835" />
<rect fill="#84A1AE" height="70" rx="15" width="70" x="2365" y="-535" />
<rect fill="#84A1AE" height="70" rx="15" width="70" x="2365" y="-935" />
<rect fill="#84A1AE" height="70" rx="15" width="70" x="2365" y="-1035" />
<rect fill="#84A1AE" height="70" rx="15" width="70" x="2365" y="-3835" />
<rect fill="#84A1AE" height="70" rx="15" width="70" x="2465" y="-535" />
<rect fill="#84A1AE" height="70" rx="15" width="70" x="2465" y="-935" />
<rect fill="#84A1AE" height="70" rx="15" width="70" x="2465" y="-1535" />
<rect fill="#84A1AE" height="70" rx="15" width="70" x="2465" y="-2335" />
<rect fill="#84A1AE" height="70" rx="15" width="70" x="2465" y="-2735" />
<rect fill="#84A1AE" height="70" rx="15" width="70" x="2465" y="-3835" />
<rect fill="#84A1AE" height="70" rx="15" width="70" x="2565" y="-535" />
<rect fill="#84A1AE" height="70" rx="15" width="70" x="2565" y="-735" />
<rect fill="#84A1AE" height="70" rx="15" width="70" x="2565" y="-2535" />
<rect fill="#84A1AE" height="70" rx="15" width="70" x="2565" y="-3835" />
<rect fill="#84A1AE" height="70" rx="15" width="70" x="2665" y="-535" />
<rect fill="#84A1AE" height="70" rx="15" width="70" x="2665" y="-635" />
<rect fill="#84A1AE" height="70" rx="15" width="70" x="2665" y="-1135" />
<rect fill="#84A1AE" height="70" rx="15" width="70" x="2665" y="-1435" />
<rect fill="#84A1AE" height="70" rx="15" width="70" x="2665" y="-2735" />
<rect fill="#84A1AE" height="70" rx="15" width="70" x="2665" y="-3835" />
<rect fill="#84A1AE" height="70" rx="15" width="70" x="2765" y="-535" />
<rect fill="#84A1AE" height="70" rx="15" width="70" x="2765" y="-1635" />
<rect fill="#84A1AE" height="70" rx="15" width="70" x="2765" y="-1835" />
<rect fill="#84A1AE" height="70" rx="15" width="70" x="2765" y="-1935" />
<rect fill="#84A1AE" height="70" rx="15" width="70" x="2765" y="-2235" />
<rect fill="#84A1AE" height="70" rx="15" width="70" x="2765" y="-3735" />
<rect fill="#84A1AE" height="70" rx="15" width="70" x="2765" y="-3835" />
<rect fill="#84A1AE" height="70" rx="15" width="70" x="2865" y="-535" />
<rect fill="#84A1AE" height="70" rx="15" width="70" x="2865" y="-3835" />
<rect fill="#84A1AE" height="70" rx="15" width="70" x="2965" y="-535" />
<rect fill="#84A1AE" height="70" rx="15" width="70" x="2965" y="-2635" />
<rect fill="#84A1AE" height="70" rx="15" width="70" x="2965" y="-3835" />
<rect fill="#84A1AE" height="70" rx="15" width="70" x="3065" y="-535" />
<rect fill="#84A1AE" height="70" rx="15" width="70" x="3065" y="-735" />
<rect fill="#84A1AE" height="70" rx="15" width="70" x="3065" y="-2535" />
<rect fill="#84A1AE" height="70" rx="15" width="70" x="3065" y="-3835" />
<rect fill="#84A1AE" height="70" rx="15" width="70" x="3165" y="-535" />
<rect fill="#84A1AE" height="70" rx="15" width="70" x="3165" y="-835" />
<rect fill="#84A1AE" height="70" rx="15" width="70" x="3165" y="-1935" />
<rect fill="#84A1AE" height="70" rx="15" width="70" x="3165" y="-2735" />
<rect fill="#84A1AE" height="70" rx="15" width="70" x="3165" y="-3135" />
<rect fill="#84A1AE" height="70" rx="15" width="70" x="3165" y="-3835" />
<rect fill="#84A1AE" height="70" rx="15" width="70" x="3265" y="-535" />
<rect fill="#84A1AE" height="70" rx="15" width="70" x="3265" y="-1035" />
<rect fill="#84A1AE" height="70" rx="15" width="70" x="3265" y="-1735" />
<rect fill="#84A1AE" height="70" rx="15" width="70" x="3265" y="-3835" />
<rect fill="#84A1AE" height="70" rx="15" width="70" x="3365" y="-535" />
<rect fill="#84A1AE" height="70" rx="15" width="70" x="3365" y="-1435" />
<rect fill="#84A1AE" height="70" rx="15" width="70" x="3365" y="-1935" />
<rect fill="#84A1AE" height="70" rx="15" width="70" x="3365" y="-2135" />
<rect fill="#84A1AE" height="70" rx="15" width="70" x="3365" y="-3835" />
<rect fill="#84A1AE" height="70" rx="15" width="70" x="3465" y="-535" />
<rect fill="#84A1AE" height="70" rx="15" width="70" x="3465" y="-2635" />
<rect fill="#84A1AE" height="70" rx="15" width="70" x="3465" y="-3835" />
<rect fill="#84A1AE" height="70" rx="15" width="70" x="3565" y="-535" />
<rect fill="#84A1AE" height="70" rx="15" width="70" x="3565" y="-635" />
<rect fill="#84A1AE" height="70" rx="15" width="70" x="3565" y="-2435" />
<rect fill="#84A1AE" height="70" rx="15" width="70" x="3565" y="-3235" />
<rect fill="#84A1AE" height="70" rx="15" width="70" x="3565" y="-3835" />
<rect fill="#84A1AE" height="70" rx="15" width="70" x="3665" y="-535" />
<rect fill="#84A1AE" height="70" rx="15" width="70" x="3665" y="-2135" />
<rect fill="#84A1AE" height="70" rx="15" width="70" x="3665" y="-2835" />
<rect fill="#84A1AE" height="70" rx="15" width="70" x="3665" y="-3135" />
<rect fill="#84A1AE" height="70" rx="15" width="70" x="3665" y="-3735" />
<rect fill="#84A1AE" height="70" rx="15" width="70" x="3665" y="-3835" />
<rect fill="#84A1AE" height="70" rx="15" width="70" x="3765" y="-535" />
<rect fill="#84A1AE" height="70" rx="15" width="70" x="3765" y="-635" />
<rect fill="#84A1AE" height="70" rx="15" width="70" x="3765" y="-735" />
<rect fill="#84A1AE" height="70" rx="15" width="70" x="3765" y="-835" />
<rect fill="#84A1AE" height="70" rx="15" width="70" x="3765" y="-935" />
<rect fill="#84A1AE" height="70" rx="15" width="70" x="3765" y="-1035" />
<rect fill="#84A1AE" height="70" rx="15" width="70" x="3765" y="-1135" />
<rect fill="#84A1AE" height="70" rx="15" width="70" x="3765" y="-1235" />
<rect fill="#84A1AE" height="70" rx="15" width="70" x="3765" y="-1335" />
<rect fill="#84A1AE" height="70" rx="15" width="70" x="3765" y="-1435" />
<rect fill="#84A1AE" height="70" rx="15" width="70" x="3765" y="-1535" />
<rect fill="#84A1AE" height="70" rx="15" width="70" x="3765" y="-1635" />
<rect fill="#84A1AE" height="70" rx="15" width="70" x="3765" y="-1735" />
<rect fill="#84A1AE" height="70" rx="15" width="70" x="3765" y="-1835" />
<rect fill="#84A1AE" height="70" rx="15" width="70" x="3765" y="-1935" />
<rect fill="#84A1AE" height="70" rx="15" width="70" x="3765" y="-2035" />
<rect fill="#84A1AE" height="70" rx="15" width="70" x="3765" y="-2135" />
<rect fill="#84A1AE" height="70" rx="15" width="70" x="3765" y="-2235" />
<rect fill="#84A1AE" height="70" rx="15" width="70" x="3765" y="-2335" />
<rect fill="#84A1AE" height="70" rx="15" width="70" x="3765" y="-2435" />
<rect fill="#84A1AE" height="70" rx="15" width="70" x="3765" y="-2535" />
<rect fill="#84A1AE" height="70" rx="15" width="70" x="3765" y="-2635" />
<rect fill="#84A1AE" height="70" rx="15" width="70" x="3765" y="-2735" />
<rect fill="#84A1AE" height="70" rx="15" width="70" x="3765" y="-2835" />
<rect fill="#84A1AE" height="70" rx="15" width="70" x="3765" y="-2935" />
<rect fill="#84A1AE" height="70" rx="15" width="70" x="3765" y="-3035" />
<rect fill="#84A1AE" height="70" rx="15" width="70" x="3765" y="-3135" />
<rect fill="#84A1AE" height="70" rx="15" width="70" x="3765" y="-3235" />
<rect fill="#84A1AE" height="70" rx="15" width="70" x="3765" y="-3335" />
<rect fill="#84A1AE" height="70" rx="15" width="70" x="3765" y="-3435" />
<rect fill="#84A1AE" height="70" rx="15" width="70" x="3765" y="-3535" />
<rect fill="#84A1AE" height="70" rx="15" width="70" x="3765" y="-3635" />
<rect fill="#84A1AE" height="70" rx="15" width="70" x="3765" y="-3735" />
<rect fill="#84A1AE" height="70" rx="15" width="70" x="3765" y="-3835" />
<circle cx="2500" cy="-1400" fill="#c1433c" r="35"> <animate attributeName="cy" dur="115.64000000000001s" keyTimes="0.0;0.0024154589;0.0048309179;0.0072463768;0.0096618357;0.0120772947;0.0144927536;0.0169082126;0.0193236715;0.0217391304;0.0241545894;0.0265700483;0.0289855072;0.0314009662;0.0338164251;0.0362318841;0.038647343;0.0410628019;0.0434782609;0.0458937198;0.0483091787;0.0700483092;0.0724637681;0.0748792271;0.077294686;0.0797101449;0.0821256039;0.0845410628;0.0869565217;0.0893719807;0.0917874396;0.0942028986;0.0966183575;0.0990338164;0.1014492754;0.1038647343;0.1062801932;0.1086956522;0.1111111111;0.11352657;0.115942029;0.1183574879;0.1207729469;0.1231884058;0.1256038647;0.1280193237;0.1304347826;0.1328502415;0.1352657005;0.1618357488;0.1642512077;0.1666666667;0.1980676329;0.2004830918;0.2028985507;0.2053140097;0.2077294686;0.2101449275;0.2125603865;0.2149758454;0.2173913043;0.2198067633;0.2439613527;0.2463768116;0.2657004831;0.268115942;0.2826086957;0.2850241546;0.2874396135;0.2898550725;0.3019323671;0.3043478261;0.309178744;0.3115942029;0.3140096618;0.3164251208;0.3188405797;0.3212560386;0.3236714976;0.3260869565;0.3285024155;0.3309178744;0.3333333333;0.3357487923;0.3381642512;0.3405797101;0.3429951691;0.3502415459;0.3526570048;0.3550724638;0.3574879227;0.3599033816;0.3623188406;0.3647342995;0.3743961353;0.3768115942;0.3792270531;0.3937198068;0.3961352657;0.3985507246;0.4009661836;0.4082125604;0.4106280193;0.4130434783;0.4154589372;0.4178743961;0.4202898551;0.422705314;0.4251207729;0.4275362319;0.4299516908;0.4323671498;0.4347826087;0.4396135266;0.4420289855;0.4468599034;0.4492753623;0.4516908213;0.4565217391;0.4589371981;0.461352657;0.4637681159;0.4661835749;0.4685990338;0.4710144928;0.4734299517;0.4782608696;0.4806763285;0.4830917874;0.4855072464;0.4879227053;0.4903381643;0.4927536232;0.4951690821;0.4975845411;0.5;0.5024154589;0.5048309179;0.5072463768;0.5096618357;0.5144927536;0.5169082126;0.5193236715;0.5217391304;0.5241545894;0.5265700483;0.5289855072;0.5314009662;0.538647343;0.5410628019;0.5434782609;0.5458937198;0.5483091787;0.5507246377;0.5531400966;0.5555555556;0.5579710145;0.5652173913;0.5676328502;0.5700483092;0.5724637681;0.6086956522;0.6111111111;0.61352657;0.615942029;0.6231884058;0.6256038647;0.6352657005;0.6376811594;0.6425120773;0.6449275362;0.6473429952;0.6497584541;0.652173913;0.654589372;0.6570048309;0.6594202899;0.6618357488;0.6642512077;0.6666666667;0.6690821256;0.6714975845;0.6739130435;0.6763285024;0.6787439614;0.6811594203;0.6835748792;0.6884057971;0.690821256;0.693236715;0.7004830918;0.7028985507;0.7053140097;0.7077294686;0.7101449275;0.7125603865;0.7149758454;0.7173913043;0.7198067633;0.7222222222;0.7246376812;0.7270531401;0.729468599;0.731884058;0.7342995169;0.7439613527;0.7463768116;0.7487922705;0.7512077295;0.7536231884;0.7560386473;0.7584541063;0.7608695652;0.7632850242;0.7657004831;0.768115942;0.770531401;0.7729468599;0.8019323671;0.8043478261;0.809178744;0.8115942029;0.8285024155;0.8309178744;0.8333333333;0.8357487923;0.8381642512;0.8405797101;0.8429951691;0.845410628;0.847826087;0.8502415459;0.8526570048;0.8550724638;0.8574879227;0.8599033816;0.8623188406;0.8647342995;0.8671497585;0.8695652174;0.8719806763;0.8743961353;0.8768115942;0.8792270531;0.8816425121;0.884057971;0.88647343;0.8888888889;0.8913043478;0.8937198068;0.9009661836;0.9033816425;0.9057971014;0.9082125604;0.9371980676;0.9396135266;0.9420289855;0.9444444444;0.9468599034;0.9492753623;0.9516908213;0.9541062802;0.9565217391;0.9589371981;0.9855072464;0.9879227053;0.9903381643;0.9927536232;0.9951690821;1.0" repeatCount="indefinite" values="-1400;-1400;-1400;-1500;-1600;-1700;-1800;-1900;-2000;-2100;-2200;-2300;-2400;-2400;-2500;-2600;-2600;-2700;-2800;-2900;-3000;-3000;-2900;-2800;-2700;-2600;-2600;-2500;-2400;-2400;-2300;-2200;-2100;-2000;-1900;-2000;-2100;-2200;-2300;-2400;-2400;-2500;-2600;-2600;-2700;-2600;-2600;-2500;-2400;-2400;-2300;-2200;-2200;-2100;-2000;-1900;-1800;-1700;-1600;-1500;-1400;-1300;-1300;-1400;-1400;-1300;-1300;-1200;-1200;-1100;-1100;-1200;-1200;-1300;-1400;-1500;-1600;-1700;-1800;-1800;-1900;-1900;-2000;-2000;-2100;-2100;-2200;-2200;-2300;-2300;-2400;-2500;-2500;-2600;-2600;-2500;-2400;-2400;-2300;-2200;-2100;-2100;-2000;-2100;-2200;-2200;-2300;-2400;-2400;-2500;-2600;-2700;-2800;-2800;-2900;-2900;-3000;-3100;-3100;-3200;-3300;-3300;-3400;-3400;-3500;-3600;-3600;-3700;-3700;-3600;-3600;-3500;-3500;-3400;-3300;-3200;-3200;-3100;-3100;-3000;-3000;-2900;-2900;-2800;-2700;-2600;-2600;-2500;-2500;-2400;-2400;-2300;-2300;-2200;-2100;-2100;-2000;-2000;-1900;-1900;-2000;-2000;-2100;-2100;-2200;-2200;-2300;-2300;-2400;-2400;-2500;-2600;-2600;-2700;-2800;-2900;-3000;-3000;-3100;-3000;-2900;-2800;-2700;-2700;-2600;-2600;-2500;-2500;-2400;-2300;-2300;-2200;-2100;-2100;-2000;-1900;-1800;-1700;-1700;-1600;-1500;-1400;-1300;-1300;-1200;-1200;-1100;-1100;-1000;-900;-900;-800;-800;-700;-600;-700;-700;-800;-800;-700;-700;-800;-800;-700;-600;-700;-800;-900;-1000;-1100;-1200;-1300;-1400;-1500;-1500;-1600;-1700;-1800;-1900;-2000;-2100;-2200;-2300;-2400;-2400;-2500;-2600;-2700;-2800;-2900;-2900;-2800;-2800;-2700;-2700;-2600;-2500;-2600;-2700;-2800;-2900;-3000;-3100;-3200;-3200;-3100;-3000;-2900;-2800;-2800"/>
<animate attributeName="cx" dur="115.64000000000001s" keyTimes="0.0;0.0024154589;0.0048309179;0.0289855072;0.0314009662;0.0362318841;0.038647343;0.0483091787;0.0507246377;0.0531400966;0.0555555556;0.0579710145;0.0603864734;0.0628019324;0.0652173913;0.0676328502;0.0700483092;0.0797101449;0.0821256039;0.0869565217;0.0893719807;0.11352657;0.115942029;0.1207729469;0.1231884058;0.1280193237;0.1304347826;0.1352657005;0.1376811594;0.1400966184;0.1425120773;0.1449275362;0.1473429952;0.1497584541;0.152173913;0.154589372;0.1570048309;0.1594202899;0.1618357488;0.1666666667;0.1690821256;0.1714975845;0.1739130435;0.1763285024;0.1787439614;0.1811594203;0.1835748792;0.1859903382;0.1884057971;0.190821256;0.193236715;0.1956521739;0.1980676329;0.2198067633;0.2222222222;0.2246376812;0.2270531401;0.229468599;0.231884058;0.2342995169;0.2367149758;0.2391304348;0.2415458937;0.2439613527;0.2463768116;0.2487922705;0.2512077295;0.2536231884;0.2560386473;0.2584541063;0.2608695652;0.2632850242;0.2657004831;0.268115942;0.270531401;0.2729468599;0.2753623188;0.2777777778;0.2801932367;0.2826086957;0.2850241546;0.2874396135;0.2898550725;0.2922705314;0.2946859903;0.2971014493;0.2995169082;0.3019323671;0.3043478261;0.306763285;0.309178744;0.3236714976;0.3260869565;0.3285024155;0.3309178744;0.3333333333;0.3357487923;0.3381642512;0.3405797101;0.3429951691;0.345410628;0.347826087;0.3502415459;0.3526570048;0.3550724638;0.3599033816;0.3623188406;0.3647342995;0.3671497585;0.3695652174;0.3719806763;0.3743961353;0.3792270531;0.3816425121;0.384057971;0.38647343;0.3888888889;0.3913043478;0.3937198068;0.4009661836;0.4033816425;0.4057971014;0.4082125604;0.4154589372;0.4178743961;0.422705314;0.4251207729;0.4347826087;0.4371980676;0.4396135266;0.4420289855;0.4444444444;0.4468599034;0.4516908213;0.4541062802;0.4565217391;0.461352657;0.4637681159;0.4661835749;0.4685990338;0.4734299517;0.4758454106;0.4782608696;0.4806763285;0.4830917874;0.4855072464;0.4879227053;0.4903381643;0.4927536232;0.5;0.5024154589;0.5048309179;0.5072463768;0.5096618357;0.5120772947;0.5144927536;0.5169082126;0.5193236715;0.5265700483;0.5289855072;0.5314009662;0.5338164251;0.5362318841;0.538647343;0.5410628019;0.5434782609;0.5458937198;0.5483091787;0.5531400966;0.5555555556;0.5579710145;0.5603864734;0.5628019324;0.5652173913;0.5676328502;0.5700483092;0.5724637681;0.5748792271;0.577294686;0.5797101449;0.5821256039;0.5845410628;0.5869565217;0.5893719807;0.5917874396;0.5942028986;0.5966183575;0.5990338164;0.6014492754;0.6038647343;0.6062801932;0.6086956522;0.6111111111;0.61352657;0.615942029;0.6183574879;0.6207729469;0.6231884058;0.6256038647;0.6280193237;0.6304347826;0.6328502415;0.6352657005;0.6376811594;0.6400966184;0.6425120773;0.6473429952;0.6497584541;0.6594202899;0.6618357488;0.6739130435;0.6763285024;0.6787439614;0.6811594203;0.6835748792;0.6859903382;0.6884057971;0.693236715;0.6956521739;0.6980676329;0.7004830918;0.7053140097;0.7077294686;0.7173913043;0.7198067633;0.729468599;0.731884058;0.7342995169;0.7367149758;0.7391304348;0.7415458937;0.7439613527;0.7463768116;0.7487922705;0.7536231884;0.7560386473;0.7584541063;0.7608695652;0.768115942;0.770531401;0.7729468599;0.7753623188;0.7777777778;0.7801932367;0.7826086957;0.7850241546;0.7874396135;0.7898550725;0.7922705314;0.7946859903;0.7971014493;0.7995169082;0.8019323671;0.8043478261;0.806763285;0.809178744;0.8115942029;0.8140096618;0.8164251208;0.8188405797;0.8212560386;0.8236714976;0.8260869565;0.8285024155;0.8550724638;0.8574879227;0.8792270531;0.8816425121;0.8937198068;0.8961352657;0.8985507246;0.9009661836;0.9033816425;0.9057971014;0.9082125604;0.9106280193;0.9130434783;0.9154589372;0.9178743961;0.9202898551;0.922705314;0.9251207729;0.9275362319;0.9299516908;0.9323671498;0.9347826087;0.9371980676;0.9589371981;0.961352657;0.9637681159;0.9661835749;0.9685990338;0.9710144928;0.9734299517;0.9758454106;0.9782608696;0.9806763285;0.9830917874;0.9855072464;0.9951690821;0.9975845411;1.0" repeatCount="indefinite" values="2500;2500;2600;2600;2700;2700;2800;2800;2900;3000;3100;3200;3300;3400;3500;3400;3300;3300;3200;3200;3100;3100;3200;3200;3300;3300;3200;3200;3100;3000;2900;2800;2700;2600;2500;2400;2300;2200;2100;2100;2000;1900;1800;1700;1600;1500;1400;1300;1200;1100;1000;900;800;800;900;1000;1100;1200;1300;1400;1500;1600;1700;1800;1800;1900;2000;2100;2200;2300;2400;2500;2600;2600;2700;2800;2900;3000;3100;3200;3200;3300;3300;3200;3100;3000;2900;2800;2800;2700;2600;2600;2500;2500;2400;2400;2300;2300;2200;2200;2100;2000;1900;1900;1800;1800;1700;1700;1800;1900;2000;2100;2100;2200;2300;2400;2500;2600;2700;2700;2800;2900;3000;3000;2900;2900;2800;2800;2700;2600;2600;2500;2400;2400;2300;2200;2200;2100;2100;2000;2000;1900;1800;1800;1900;1900;2000;2000;2100;2100;2200;2200;2300;2300;2400;2500;2500;2600;2600;2700;2700;2800;2900;3000;3000;3100;3100;3200;3200;3300;3300;3400;3500;3600;3600;3500;3500;3400;3300;3200;3200;3300;3200;3100;3000;2900;2800;2700;2600;2500;2400;2300;2300;2200;2200;2100;2000;1900;1900;1800;1700;1600;1500;1500;1400;1300;1300;1200;1200;1100;1100;1200;1200;1300;1300;1400;1500;1500;1600;1700;1800;1800;1900;1900;2000;2000;2100;2100;2200;2300;2400;2500;2500;2600;2600;2700;2700;2800;2800;2700;2700;2600;2500;2400;2300;2200;2100;2000;1900;1800;1700;1600;1500;1500;1400;1300;1300;1200;1100;1000;900;800;700;600;600;700;700;800;800;900;1000;1100;1100;1200;1200;1300;1400;1500;1600;1700;1800;1900;2000;2100;2200;2300;2400;2400;2500;2600;2700;2800;2900;3000;3100;3200;3300;3400;3500;3500;3600;3600"/>
<animate attributeName="visibility" dur="115.64000000000001s" keyTimes="0.0;0.0024154589;1.0" repeatCount="indefinite" values="visible;visible;visible"/> </circle>
<circle cx="3000" cy="-1900" fill="#2e6f9e" r="35"> <animate attributeName="cy" dur="115.64000000000001s" keyTimes="0.0;0.0024154589;0.0048309179;0.0072463768;0.0096618357;0.0120772947;0.0144927536;0.0169082126;0.0217391304;0.0241545894;0.0289855072;0.0314009662;0.0338164251;0.0362318841;0.038647343;0.0410628019;0.0434782609;0.0458937198;0.0483091787;0.0579710145;0.0603864734;0.0628019324;0.0652173913;0.0676328502;0.0700483092;0.0724637681;0.0845410628;0.0869565217;0.0893719807;0.0917874396;0.0942028986;0.0966183575;0.0990338164;0.1014492754;0.1425120773;0.1449275362;0.1473429952;0.1497584541;0.152173913;0.154589372;0.1570048309;0.1594202899;0.1666666667;0.1690821256;0.1714975845;0.1739130435;0.1763285024;0.1787439614;0.1859903382;0.1884057971;0.190821256;0.193236715;0.1956521739;0.1980676329;0.2004830918;0.2028985507;0.2053140097;0.2077294686;0.2101449275;0.2125603865;0.2149758454;0.2173913043;0.2198067633;0.2222222222;0.2246376812;0.2270531401;0.2342995169;0.2367149758;0.2391304348;0.2415458937;0.2439613527;0.2463768116;0.2487922705;0.2512077295;0.2584541063;0.2608695652;0.2632850242;0.2657004831;0.268115942;0.270531401;0.2729468599;0.2777777778;0.2801932367;0.2826086957;0.2850241546;0.2874396135;0.2898550725;0.2922705314;0.2946859903;0.2971014493;0.2995169082;0.3019323671;0.3043478261;0.306763285;0.309178744;0.3115942029;0.3140096618;0.3164251208;0.3285024155;0.3309178744;0.3333333333;0.3357487923;0.3381642512;0.3405797101;0.3429951691;0.345410628;0.347826087;0.3502415459;0.3526570048;0.3550724638;0.3574879227;0.3599033816;0.3623188406;0.3647342995;0.3695652174;0.3719806763;0.3743961353;0.3768115942;0.3792270531;0.3816425121;0.384057971;0.38647343;0.3888888889;0.3913043478;0.3937198068;0.3961352657;0.3985507246;0.4009661836;0.4033816425;0.4057971014;0.4082125604;0.4106280193;0.4299516908;0.4323671498;0.4347826087;0.4371980676;0.4516908213;0.4541062802;0.4685990338;0.4710144928;0.4734299517;0.4758454106;0.4782608696;0.4806763285;0.4830917874;0.4855072464;0.4879227053;0.4903381643;0.4927536232;0.4951690821;0.4975845411;0.5;0.5024154589;0.5048309179;0.5096618357;0.5120772947;0.5144927536;0.5169082126;0.5193236715;0.5217391304;0.5241545894;0.5265700483;0.5289855072;0.5338164251;0.5362318841;0.5434782609;0.5458937198;0.5483091787;0.5507246377;0.5531400966;0.5555555556;0.5579710145;0.5603864734;0.5628019324;0.5652173913;0.5676328502;0.5700483092;0.5724637681;0.5748792271;0.577294686;0.5797101449;0.5821256039;0.5845410628;0.5869565217;0.5893719807;0.5942028986;0.5966183575;0.5990338164;0.6014492754;0.6038647343;0.6062801932;0.6231884058;0.6256038647;0.6280193237;0.6304347826;0.6328502415;0.6352657005;0.6376811594;0.6400966184;0.6425120773;0.6690821256;0.6714975845;0.6739130435;0.6763285024;0.6787439614;0.693236715;0.6956521739;0.6980676329;0.7004830918;0.7028985507;0.7053140097;0.729468599;0.731884058;0.7342995169;0.7367149758;0.7391304348;0.7415458937;0.7463768116;0.7487922705;0.7512077295;0.7536231884;0.7632850242;0.7657004831;0.770531401;0.7729468599;0.7850241546;0.7874396135;0.7898550725;0.7922705314;0.7946859903;0.8768115942;0.8792270531;0.8816425121;0.884057971;0.8888888889;0.8913043478;0.8937198068;0.8961352657;0.8985507246;0.9009661836;0.9033816425;0.9057971014;0.9082125604;0.9106280193;0.9130434783;0.9154589372;0.9178743961;0.9202898551;0.922705314;0.9251207729;0.9396135266;0.9420289855;0.9444444444;0.9468599034;0.9565217391;0.9589371981;0.9710144928;0.9734299517;0.9758454106;0.9830917874;0.9855072464;0.9879227053;1.0" repeatCount="indefinite" values="-1900;-1900;-2000;-2100;-2200;-2300;-2400;-2500;-2500;-2600;-2600;-2700;-2800;-2900;-3000;-3000;-3100;-3200;-3300;-3300;-3400;-3500;-3400;-3500;-3600;-3700;-3700;-3600;-3600;-3500;-3400;-3300;-3200;-3100;-3100;-3000;-2900;-2800;-2700;-2600;-2600;-2500;-2500;-2400;-2300;-2200;-2200;-2100;-2100;-2200;-2200;-2100;-2200;-2300;-2400;-2400;-2500;-2600;-2600;-2700;-2800;-2900;-3000;-3100;-3200;-3300;-3300;-3400;-3400;-3300;-3300;-3200;-3200;-3100;-3100;-3000;-2900;-2900;-2800;-2800;-2700;-2700;-2600;-2500;-2400;-2300;-2200;-2100;-2000;-1900;-1800;-1700;-1600;-1500;-1600;-1600;-1500;-1400;-1400;-1300;-1200;-1200;-1100;-1000;-900;-1000;-1100;-1200;-1300;-1400;-1400;-1500;-1600;-1700;-1700;-1800;-1900;-2000;-2100;-2100;-2200;-2200;-2300;-2400;-2500;-2600;-2600;-2700;-2700;-2800;-2800;-2700;-2700;-2800;-2800;-2700;-2700;-2600;-2600;-2500;-2500;-2400;-2300;-2200;-2100;-2000;-1900;-1800;-1700;-1600;-1500;-1500;-1400;-1300;-1300;-1200;-1200;-1100;-1000;-900;-800;-700;-600;-600;-700;-700;-800;-900;-900;-1000;-1100;-1200;-1300;-1400;-1500;-1600;-1700;-1800;-1800;-1900;-2000;-2100;-2200;-2300;-2400;-2400;-2500;-2600;-2600;-2700;-2800;-2800;-2900;-2900;-2800;-2800;-2700;-2600;-2600;-2700;-2700;-2800;-2900;-3000;-3100;-3100;-3000;-2900;-2800;-2800;-2700;-2700;-2600;-2600;-2500;-2400;-2300;-2300;-2200;-2100;-2000;-2000;-1900;-1900;-2000;-2000;-1900;-1800;-1900;-2000;-2000;-1900;-1900;-1800;-1800;-1700;-1600;-1500;-1400;-1300;-1200;-1100;-1000;-900;-800;-900;-1000;-1100;-1200;-1300;-1300;-1400;-1400;-1300;-1300;-1400;-1400;-1300;-1400;-1400;-1500;-1400;-1400"/>
<animate attributeName="cx" dur="115.64000000000001s" keyTimes="0.0;0.0024154589;0.0169082126;0.0193236715;0.0217391304;0.0241545894;0.0265700483;0.0289855072;0.038647343;0.0410628019;0.0507246377;0.0531400966;0.0555555556;0.0579710145;0.0724637681;0.0748792271;0.077294686;0.0797101449;0.0821256039;0.0845410628;0.0869565217;0.0893719807;0.1014492754;0.1038647343;0.1062801932;0.1086956522;0.1111111111;0.11352657;0.115942029;0.1183574879;0.1207729469;0.1231884058;0.1256038647;0.1280193237;0.1304347826;0.1328502415;0.1352657005;0.1376811594;0.1400966184;0.1425120773;0.1618357488;0.1642512077;0.1666666667;0.1739130435;0.1763285024;0.1787439614;0.1811594203;0.1835748792;0.1859903382;0.1884057971;0.190821256;0.2004830918;0.2028985507;0.2077294686;0.2101449275;0.2270531401;0.229468599;0.231884058;0.2342995169;0.2367149758;0.2391304348;0.2415458937;0.2439613527;0.2463768116;0.2487922705;0.2512077295;0.2536231884;0.2560386473;0.2584541063;0.2632850242;0.2657004831;0.268115942;0.270531401;0.2729468599;0.2753623188;0.2777777778;0.309178744;0.3115942029;0.3164251208;0.3188405797;0.3212560386;0.3236714976;0.3260869565;0.3285024155;0.3333333333;0.3357487923;0.3550724638;0.3574879227;0.3647342995;0.3671497585;0.3695652174;0.384057971;0.38647343;0.3961352657;0.3985507246;0.4009661836;0.4033816425;0.4057971014;0.4082125604;0.4106280193;0.4130434783;0.4154589372;0.4178743961;0.4202898551;0.422705314;0.4251207729;0.4275362319;0.4299516908;0.4323671498;0.4347826087;0.4371980676;0.4396135266;0.4420289855;0.4444444444;0.4468599034;0.4492753623;0.4516908213;0.4541062802;0.4565217391;0.4589371981;0.461352657;0.4637681159;0.4661835749;0.4685990338;0.4710144928;0.4734299517;0.4975845411;0.5;0.5048309179;0.5072463768;0.5096618357;0.5120772947;0.5144927536;0.5289855072;0.5314009662;0.5338164251;0.5410628019;0.5434782609;0.5483091787;0.5507246377;0.5724637681;0.5748792271;0.5917874396;0.5942028986;0.5990338164;0.6014492754;0.6062801932;0.6086956522;0.6111111111;0.61352657;0.615942029;0.6183574879;0.6207729469;0.6231884058;0.6256038647;0.6280193237;0.6304347826;0.6328502415;0.6376811594;0.6400966184;0.6425120773;0.6449275362;0.6473429952;0.6497584541;0.652173913;0.654589372;0.6570048309;0.6594202899;0.6618357488;0.6642512077;0.6666666667;0.6690821256;0.6787439614;0.6811594203;0.6835748792;0.6859903382;0.6884057971;0.690821256;0.693236715;0.7053140097;0.7077294686;0.7101449275;0.7125603865;0.7149758454;0.7173913043;0.7198067633;0.7222222222;0.7246376812;0.7270531401;0.729468599;0.7415458937;0.7439613527;0.7463768116;0.7536231884;0.7560386473;0.7584541063;0.7608695652;0.7632850242;0.7657004831;0.768115942;0.7753623188;0.7777777778;0.7801932367;0.7826086957;0.7850241546;0.7946859903;0.7971014493;0.7995169082;0.8019323671;0.8043478261;0.806763285;0.809178744;0.8115942029;0.8140096618;0.8164251208;0.8188405797;0.8212560386;0.8236714976;0.8260869565;0.8285024155;0.8309178744;0.8333333333;0.8357487923;0.8381642512;0.8405797101;0.8429951691;0.845410628;0.847826087;0.8502415459;0.8526570048;0.8550724638;0.8574879227;0.8599033816;0.8623188406;0.8647342995;0.8671497585;0.8695652174;0.8719806763;0.8743961353;0.8768115942;0.8792270531;0.8816425121;0.884057971;0.88647343;0.8888888889;0.9251207729;0.9275362319;0.9299516908;0.9323671498;0.9347826087;0.9371980676;0.9396135266;0.9420289855;0.9444444444;0.9468599034;0.9492753623;0.9516908213;0.9541062802;0.9565217391;0.9589371981;0.961352657;0.9637681159;0.9661835749;0.9685990338;0.9710144928;0.9758454106;0.9782608696;0.9806763285;0.9879227053;0.9903381643;0.9927536232;0.9951690821;0.9975845411;1.0" repeatCount="indefinite" values="3000;3000;3000;2900;2800;2800;2700;2600;2600;2500;2500;2600;2500;2600;2600;2500;2400;2300;2200;2300;2300;2400;2400;2500;2600;2700;2800;2900;3000;3100;3000;2900;2800;2700;2600;2500;2400;2300;2200;2100;2100;2200;2100;2100;2200;2200;2300;2400;2500;2500;2600;2600;2500;2500;2600;2600;2500;2400;2300;2300;2200;2200;2100;2100;2000;2000;1900;1800;1700;1700;1600;1600;1500;1500;1400;1300;1300;1400;1400;1500;1400;1300;1200;1100;1100;1200;1200;1100;1100;1000;900;900;800;800;700;700;800;800;900;900;1000;1100;1200;1300;1400;1500;1600;1700;1700;1800;1800;1900;2000;2100;2200;2300;2400;2400;2500;2600;2600;2700;2800;2900;2900;3000;3000;3100;3100;3000;2900;2900;3000;3000;3100;3200;3200;3300;3300;3200;3200;3100;3100;3200;3200;3100;3100;3000;2900;2800;2700;2600;2500;2400;2400;2300;2300;2200;2200;2100;2100;2000;1900;1800;1700;1600;1500;1400;1500;1400;1300;1200;1200;1100;1000;900;1000;1100;1200;1200;1300;1400;1500;1600;1700;1800;1900;2000;2100;2200;2200;2300;2200;2200;2300;2400;2500;2600;2600;2700;2700;2800;2900;3000;3100;3100;3000;2900;2800;2700;2600;2500;2400;2300;2200;2100;2000;1900;1800;1700;1800;1900;2000;2100;2200;2300;2400;2500;2600;2700;2800;2900;3000;3100;3200;3200;3300;3300;3400;3500;3500;3600;3600;3700;3600;3600;3500;3400;3300;3200;3100;3000;3000;2900;2900;2800;2700;2600;2500;2500;2400;2300;2200;2100;2000;2000;1900;1800;1800;1700;1600;1500;1400;1400"/>
<animate attributeName="visibility" dur="115.64000000000001s" keyTimes="0.0;0.0024154589;1.0" repeatCount="indefinite" values="visible;visible;visible"/> </circle>
<circle cx="3500" cy="-3000" fill="none" r="35" stroke="#c1433c" stroke-width="10"> <animate attributeName="cy" dur="115.64000000000001s" keyTimes="0.0;0.0024154589;0.0628019324;0.0652173913;0.0990338164;0.1014492754;0.1231884058;0.1256038647;0.2173913043;0.2198067633;0.2874396135;0.2898550725;0.3623188406;0.3647342995;0.4082125604;0.4106280193;0.4782608696;0.4806763285;0.5193236715;0.5217391304;0.5652173913;0.5676328502;0.6618357488;0.6642512077;0.8309178744;0.8333333333;0.8937198068;0.8961352657;0.9396135266;0.9420289855;0.9830917874;0.9855072464;1.0" repeatCount="indefinite" values="-3000;-3000;-3000;-1900;-1900;-2700;-2700;-1300;-1300;-1100;-1100;-2600;-2600;-2000;-2000;-3700;-3700;-2800;-2800;-1900;-1900;-3100;-3100;-600;-600;-2900;-2900;-2500;-2500;-3200;-3200;-2200;-2200"/>
<animate attributeName="cx" dur="115.64000000000001s" keyTimes="0.0;0.0024154589;0.0628019324;0.0652173913;0.0990338164;0.1014492754;0.1231884058;0.1256038647;0.2173913043;0.2198067633;0.2874396135;0.2898550725;0.3623188406;0.3647342995;0.4082125604;0.4106280193;0.4782608696;0.4806763285;0.5193236715;0.5217391304;0.5652173913;0.5676328502;0.6618357488;0.6642512077;0.7632850242;0.7657004831;0.8309178744;0.8333333333;0.8937198068;0.8961352657;0.9396135266;0.9420289855;0.9830917874;0.9855072464;1.0" repeatCount="indefinite" values="3500;3500;3500;3100;3100;3300;3300;800;800;3300;3300;1700;1700;3000;3000;1800;1800;2600;2600;3600;3600;1100;1100;2800;2800;600;600;900;900;2400;2400;3500;3500;3700;3700"/>
<animate attributeName="visibility" dur="115.64000000000001s" keyTimes="0.0;0.0024154589;1.0" repeatCount="indefinite" values="visible;visible;visible"/> </circle>
<circle cx="2600" cy="-2600" fill="none" r="35" stroke="#2e6f9e" stroke-width="10"> <animate attributeName="cy" dur="115.64000000000001s" keyTimes="0.0;0.0024154589;0.0265700483;0.0289855072;0.0797101449;0.0821256039;0.115942029;0.1183574879;0.1714975845;0.1739130435;0.190821256;0.193236715;0.2246376812;0.2270531401;0.3405797101;0.3429951691;0.4057971014;0.4082125604;0.5144927536;0.5169082126;0.5314009662;0.5338164251;0.6038647343;0.6062801932;0.6352657005;0.6376811594;0.6835748792;0.6859903382;0.7512077295;0.7536231884;0.7874396135;0.7898550725;0.8260869565;0.8285024155;0.9106280193;0.9130434783;1.0" repeatCount="indefinite" values="-2600;-2600;-2600;-3700;-3700;-3100;-3100;-2200;-2200;-2100;-2100;-3300;-3300;-900;-900;-2800;-2800;-1100;-1100;-600;-600;-2800;-2800;-2600;-2600;-3100;-3100;-2000;-2000;-1800;-1800;-2000;-2000;-800;-800;-1300;-1300"/>
<animate attributeName="cx" dur="115.64000000000001s" keyTimes="0.0;0.0024154589;0.0265700483;0.0289855072;0.0797101449;0.0821256039;0.0990338164;0.1014492754;0.115942029;0.1183574879;0.1714975845;0.1739130435;0.2246376812;0.2270531401;0.3405797101;0.3429951691;0.4057971014;0.4082125604;0.5144927536;0.5169082126;0.5314009662;0.5338164251;0.6038647343;0.6062801932;0.6352657005;0.6376811594;0.6835748792;0.6859903382;0.7512077295;0.7536231884;0.7874396135;0.7898550725;0.8260869565;0.8285024155;0.9106280193;0.9130434783;1.0" repeatCount="indefinite" values="2600;2600;2600;2200;2200;2400;2400;3100;3100;2100;2100;2600;2600;1200;1200;900;900;3000;3000;3200;3200;3100;3100;2200;2200;900;900;2200;2200;3100;3100;1700;1700;3600;3600;800;800"/>
<animate attributeName="visibility" dur="115.64000000000001s" keyTimes="0.0;0.0024154589;1.0" repeatCount="indefinite" values="visible;visible;visible"/> </circle>
</svg>