<?xml version="1.0" encoding="UTF-8"?>
        <svg xmlns="http://www.w3.org/2000/svg" xmlns:xlink="http://www.w3.org/1999/xlink"
             width="512" height="512" viewBox="0 -3500 3500 3500">
<defs>

        <rect id="obstacle" width="70" height="70" fill="#84A1AE" rx="15"/>
        <style>
        .line {stroke: #84A1AE; stroke-width: 10;}
        .agent {r: 35;}
        .target {fill: none; stroke-width: 10; r: 35;}
        </style>
        
</defs>

<line class="line" x1="-50.0" x2="-50.0" y1="0" y2="-3500" />
<line class="line" x1="50.0" x2="50.0" y1="0" y2="-3500" />
<line class="line" x1="150.0" x2="150.0" y1="0" y2="-3500" />
<line class="line" x1="250.0" x2="250.0" y1="0" y2="-3500" />
<line class="line" x1="350.0" x2="350.0" y1="0" y2="-3500" />
<line class="line" x1="450.0" x2="450.0" y1="0" y2="-3500" />
<line class="line" x1="550.0" x2="550.0" y1="0" y2="-3500" />
<line class="line" x1="650.0" x2="650.0" y1="0" y2="-3500" />
<line class="line" x1="750.0" x2="750.0" y1="0" y2="-3500" />
<line class="line" x1="850.0" x2="850.0" y1="0" y2="-3500" />
<line class="line" x1="950.0" x2="950.0" y1="0" y2="-3500" />
<line class="line" x1="1050.0" x2="1050.0" y1="0" y2="-3500" />
<line class="line" x1="1150.0" x2="1150.0" y1="0" y2="-3500" />
<line class="line" x1="1250.0" x2="1250.0" y1="0" y2="-3500" />
<line class="line" x1="1350.0" x2="1350.0" y1="0" y2="-3500" />
<line class="line" x1="1450.0" x2="1450.0" y1="0" y2="-3500" />
<line class="line" x1="1550.0" x2="1550.0" y1="0" y2="-3500" />
<line class="line" x1="1650.0" x2="1650.0" y1="0" y2="-3500" />
<line class="line" x1="1750.0" x2="1750.0" y1="0" y2="-3500" />
<line class="line" x1="1850.0" x2="1850.0" y1="0" y2="-3500" />
<line class="line" x1="1950.0" x2="1950.0" y1="0" y2="-3500" />
<line class="line" x1="2050.0" x2="2050.0" y1="0" y2="-3500" />
<line class="line" x1="2150.0" x2="2150.0" y1="0" y2="-3500" />
<line class="line" x1="2250.0" x2="2250.0" y1="0" y2="-3500" />
<line class="line" x1="2350.0" x2="2350.0" y1="0" y2="-3500" />
<line class="line" x1="2450.0" x2="2450.0" y1="0" y2="-3500" />
<line class="line" x1="2550.0" x2="2550.0" y1="0" y2="-3500" />
<line class="line" x1="2650.0" x2="2650.0" y1="0" y2="-3500" />
<line class="line" x1="2750.0" x2="2750.0" y1="0" y2="-3500" />
<line class="line" x1="2850.0" x2="2850.0" y1="0" y2="-3500" />
<line class="line" x1="2950.0" x2="2950.0" y1="0" y2="-3500" />
<line class="line" x1="3050.0" x2="3050.0" y1="0" y2="-3500" />
<line class="line" x1="3150.0" x2="3150.0" y1="0" y2="-3500" />
<line class="line" x1="3250.0" x2="3250.0" y1="0" y2="-3500" />
<line class="line" x1="3350.0" x2="3350.0" y1="0" y2="-3500" />
<line class="line" x1="3450.0" x2="3450.0" y1="0" y2="-3500" />
<line class="line" x1="0" x2="3500" y1="50.0" y2="50.0" />
<line class="line" x1="0" x2="3500" y1="-50.0" y2="-50.0" />
<line class="line" x1="0" x2="3500" y1="-150.0" y2="-150.0" />
<line class="line" x1="0" x2="3500" y1="-250.0" y2="-250.0" />
<line class="line" x1="0" x2="3500" y1="-350.0" y2="-350.0" />
<line class="line" x1="0" x2="3500" y1="-450.0" y2="-450.0" />
<line class="line" x1="0" x2="3500" y1="-550.0" y2="-550.0" />
<line class="line" x1="0" x2="3500" y1="-650.0" y2="-650.0" />
<line class="line" x1="0" x2="3500" y1="-750.0" y2="-750.0" />
<line class="line" x1="0" x2="3500" y1="-850.0" y2="-850.0" />
<line class="line" x1="0" x2="3500" y1="-950.0" y2="-950.0" />
<line class="line" x1="0" x2="3500" y1="-1050.0" y2="-1050.0" />
<line class="line" x1="0" x2="3500" y1="-1150.0" y2="-1150.0" />
<line class="line" x1="0" x2="3500" y1="-1250.0" y2="-1250.0" />
<line class="line" x1="0" x2="3500" y1="-1350.0" y2="-1350.0" />
<line class="line" x1="0" x2="3500" y1="-1450.0" y2="-1450.0" />
<line class="line" x1="0" x2="3500" y1="-1550.0" y2="-1550.0" />
<line class="line" x1="0" x2="3500" y1="-1650.0" y2="-1650.0" />
<line class="line" x1="0" x2="3500" y1="-1750.0" y2="-1750.0" />
<line class="line" x1="0" x2="3500" y1="-1850.0" y2="-1850.0" />
<line class="line" x1="0" x2="3500" y1="-1950.0" y2="-1950.0" />
<line class="line" x1="0" x2="3500" y1="-2050.0" y2="-2050.0" />
<line class="line" x1="0" x2="3500" y1="-2150.0" y2="-2150.0" />
<line class="line" x1="0" x2="3500" y1="-2250.0" y2="-2250.0" />
<line class="line" x1="0" x2="3500" y1="-2350.0" y2="-2350.0" />
<line class="line" x1="0" x2="3500" y1="-2450.0" y2="-2450.0" />
<line class="line" x1="0" x2="3500" y1="-2550.0" y2="-2550.0" />
<line class="line" x1="0" x2="3500" y1="-2650.0" y2="-2650.0" />
<line class="line" x1="0" x2="3500" y1="-2750.0" y2="-2750.0" />
<line class="line" x1="0" x2="3500" y1="-2850.0" y2="-2850.0" />
<line class="line" x1="0" x2="3500" y1="-2950.0" y2="-2950.0" />
<line class="line" x1="0" x2="3500" y1="-3050.0" y2="-3050.0" />
<line class="line" x1="0" x2="3500" y1="-3150.0" y2="-3150.0" />
<line class="line" x1="0" x2="3500" y1="-3250.0" y2="-3250.0" />
<line class="line" x1="0" x2="3500" y1="-3350.0" y2="-3350.0" />
<line class="line" x1="0" x2="3500" y1="-3450.0" y2="-3450.0" />
<use href="#obstacle" x="65" y="-135" />
<use href="#obstacle" x="65" y="-235" />
<use href="#obstacle" x="65" y="-335" />
<use href="#obstacle" x="65" y="-435" />
<use href="#obstacle" x="65" y="-535" />
<use href="#obstacle" x="65" y="-635" />
<use href="#obstacle" x="65" y="-735" />
<use href="#obstacle" x="65" y="-835" />
<use href="#obstacle" x="65" y="-935" />
<use href="#obstacle" x="65" y="-1035" />
<use href="#obstacle" x="65" y="-1135" />
<use href="#obstacle" x="65" y="-1235" />
<use href="#obstacle" x="65" y="-1335" />
<use href="#obstacle" x="65" y="-1435" />
<use href="#obstacle" x="65" y="-1535" />
<use href="#obstacle" x="65" y="-1635" />
<use href="#obstacle" x="65" y="-1735" />
<use href="#obstacle" x="65" y="-1835" />
<use href="#obstacle" x="65" y="-1935" />
<use href="#obstacle" x="65" y="-2035" />
<use href="#obstacle" x="65" y="-2135" />
<use href="#obstacle" x="65" y="-2235" />
<use href="#obstacle" x="65" y="-2335" />
<use href="#obstacle" x="65" y="-2435" />
<use href="#obstacle" x="65" y="-2535" />
<use href="#obstacle" x="65" y="-2635" />
<use href="#obstacle" x="65" y="-2735" />
<use href="#obstacle" x="65" y="-2835" />
<use href="#obstacle" x="65" y="-2935" />
<use href="#obstacle" x="65" y="-3035" />
<use href="#obstacle" x="65" y="-3135" />
<use href="#obstacle" x="65" y="-3235" />
<use href="#obstacle" x="65" y="-3335" />
<use href="#obstacle" x="65" y="-3435" />
<use href="#obstacle" x="165" y="-135" />
<use href="#obstacle" x="165" y="-235" />
<use href="#obstacle" x="165" y="-435" />
<use href="#obstacle" x="165" y="-535" />
<use href="#obstacle" x="165" y="-935" />
<use href="#obstacle" x="165" y="-1235" />
<use href="#obstacle" x="165" y="-1335" />
<use href="#obstacle" x="165" y="-1535" />
<use href="#obstacle" x="165" y="-1635" />
<use href="#obstacle" x="165" y="-2235" />
<use href="#obstacle" x="165" y="-2335" />
<use href="#obstacle" x="165" y="-2535" />
<use href="#obstacle" x="165" y="-2735" />
<use href="#obstacle" x="165" y="-3035" />
<use href="#obstacle" x="165" y="-3235" />
<use href="#obstacle" x="165" y="-3335" />
<use href="#obstacle" x="165" y="-3435" />
<use href="#obstacle" x="265" y="-135" />
<use href="#obstacle" x="265" y="-935" />
<use href="#obstacle" x="265" y="-1135" />
<use href="#obstacle" x="265" y="-1435" />
<use href="#obstacle" x="265" y="-2835" />
<use href="#obstacle" x="265" y="-3435" />
<use href="#obstacle" x="365" y="-135" />
<use href="#obstacle" x="365" y="-635" />
<use href="#obstacle" x="365" y="-1235" />
<use href="#obstacle" x="365" y="-1635" />
<use href="#obstacle" x="365" y="-2035" />
<use href="#obstacle" x="365" y="-2135" />
<use href="#obstacle" x="365" y="-2635" />
<use href="#obstacle" x="365" y="-3235" />
<use href="#obstacle" x="365" y="-3435" />
<use href="#obstacle" x="465" y="-135" />
<use href="#obstacle" x="465" y="-835" />
<use href="#obstacle" x="465" y="-935" />
<use href="#obstacle" x="465" y="-1035" />
<use href="#obstacle" x="465" y="-1835" />
<use href="#obstacle" x="465" y="-2035" />
<use href="#obstacle" x="465" y="-2135" />
<use href="#obstacle" x="465" y="-2435" />
<use href="#obstacle" x="465" y="-2635" />
<use href="#obstacle" x="465" y="-2835" />
<use href="#obstacle" x="465" y="-3135" />
<use href="#obstacle" x="465" y="-3435" />
<use href="#obstacle" x="565" y="-135" />
<use href="#obstacle" x="565" y="-335" />
<use href="#obstacle" x="565" y="-435" />
<use href="#obstacle" x="565" y="-1435" />
<use href="#obstacle" x="565" y="-1535" />
<use href="#obstacle" x="565" y="-1635" />
<use href="#obstacle" x="565" y="-1935" />
<use href="#obstacle" x="565" y="-2235" />
<use href="#obstacle" x="565" y="-2435" />
<use href="#obstacle" x="565" y="-2735" />
<use href="#obstacle" x="565" y="-3035" />
<use href="#obstacle" x="565" y="-3435" />
<use href="#obstacle" x="665" y="-135" />
<use href="#obstacle" x="665" y="-335" />
<use href="#obstacle" x="665" y="-635" />
<use href="#obstacle" x="665" y="-735" />
<use href="#obstacle" x="665" y="-935" />
<use href="#obstacle" x="665" y="-1435" />
<use href="#obstacle" x="665" y="-1735" />
<use href="#obstacle" x="665" y="-1835" />
<use href="#obstacle" x="665" y="-1935" />
<use href="#obstacle" x="665" y="-3135" />
<use href="#obstacle" x="665" y="-3235" />
<use href="#obstacle" x="665" y="-3335" />
<use href="#obstacle" x="665" y="-3435" />
<use href="#obstacle" x="765" y="-135" />
<use href="#obstacle" x="765" y="-535" />
<use href="#obstacle" x="765" y="-635" />
<use href="#obstacle" x="765" y="-1435" />
<use href="#obstacle" x="765" y="-1735" />
<use href="#obstacle" x="765" y="-1935" />
<use href="#obstacle" x="765" y="-2035" />
<use href="#obstacle" x="765" y="-2735" />
<use href="#obstacle" x="765" y="-3135" />
<use href="#obstacle" x="765" y="-3235" />
<use href="#obstacle" x="765" y="-3435" />
<use href="#obstacle" x="865" y="-135" />
<use href="#obstacle" x="865" y="-335" />
<use href="#obstacle" x="865" y="-435" />
<use href="#obstacle" x="865" y="-835" />
<use href="#obstacle" x="865" y="-1235" />
<use href="#obstacle" x="865" y="-1835" />
<use href="#obstacle" x="865" y="-2035" />
<use href="#obstacle" x="865" y="-2435" />
<use href="#obstacle" x="865" y="-2535" />
<use href="#obstacle" x="865" y="-2635" />
<use href="#obstacle" x="865" y="-2735" />
<use href="#obstacle" x="865" y="-2835" />
<use href="#obstacle" x="865" y="-3435" />
<use href="#obstacle" x="965" y="-135" />
<use href="#obstacle" x="965" y="-535" />
<use href="#obstacle" x="965" y="-735" />
<use href="#obstacle" x="965" y="-935" />
<use href="#obstacle" x="965" y="-1235" />
<use href="#obstacle" x="965" y="-1535" />
<use href="#obstacle" x="965" y="-1835" />
<use href="#obstacle" x="965" y="-2635" />
<use href="#obstacle" x="965" y="-2735" />
<use href="#obstacle" x="965" y="-3435" />
<use href="#obstacle" x="1065" y="-135" />
<use href="#obstacle" x="1065" y="-935" />
<use href="#obstacle" x="1065" y="-1035" />
<use href="#obstacle" x="1065" y="-1335" />
<use href="#obstacle" x="1065" y="-1735" />
<use href="#obstacle" x="1065" y="-2635" />
<use href="#obstacle" x="1065" y="-2735" />
<use href="#obstacle" x="1065" y="-3235" />
<use href="#obstacle" x="1065" y="-3435" />
<use href="#obstacle" x="1165" y="-135" />
<use href="#obstacle" x="1165" y="-235" />
<use href="#obstacle" x="1165" y="-635" />
<use href="#obstacle" x="1165" y="-1335" />
<use href="#obstacle" x="1165" y="-1435" />
<use href="#obstacle" x="1165" y="-1535" />
<use href="#obstacle" x="1165" y="-1735" />
<use href="#obstacle" x="1165" y="-2035" />
<use href="#obstacle" x="1165" y="-2435" />
<use href="#obstacle" x="1165" y="-2835" />
<use href="#obstacle" x="1165" y="-2935" />
<use href="#obstacle" x="1165" y="-3035" />
<use href="#obstacle" x="1165" y="-3435" />
<use href="#obstacle" x="1265" y="-135" />
<use href="#obstacle" x="1265" y="-535" />
<use href="#obstacle" x="1265" y="-735" />
<use href="#obstacle" x="1265" y="-1135" />
<use href="#obstacle" x="1265" y="-1235" />
<use href="#obstacle" x="1265" y="-2435" />
<use href="#obstacle" x="1265" y="-2535" />
<use href="#obstacle" x="1265" y="-3035" />
<use href="#obstacle" x="1265" y="-3435" />
<use href="#obstacle" x="1365" y="-135" />
<use href="#obstacle" x="1365" y="-735" />
<use href="#obstacle" x="1365" y="-935" />
<use href="#obstacle" x="1365" y="-1535" />
<use href="#obstacle" x="1365" y="-1635" />
<use href="#obstacle" x="1365" y="-1835" />
<use href="#obstacle" x="1365" y="-2335" />
<use href="#obstacle" x="1365" y="-2535" />
<use href="#obstacle" x="1365" y="-3135" />
<use href="#obstacle" x="1365" y="-3435" />
<use href="#obstacle" x="1465" y="-135" />
<use href="#obstacle" x="1465" y="-335" />
<use href="#obstacle" x="1465" y="-535" />
<use href="#obstacle" x="1465" y="-635" />
<use href="#obstacle" x="1465" y="-935" />
<use href="#obstacle" x="1465" y="-1135" />
<use href="#obstacle" x="1465" y="-1435" />
<use href="#obstacle" x="1465" y="-1735" />
<use href="#obstacle" x="1465" y="-2035" />
<use href="#obstacle" x="1465" y="-2535" />
<use href="#obstacle" x="1465" y="-2735" />
<use href="#obstacle" x="1465" y="-3435" />
<use href="#obstacle" x="1565" y="-135" />
<use href="#obstacle" x="1565" y="-235" />
<use href="#obstacle" x="1565" y="-935" />
<use href="#obstacle" x="1565" y="-1135" />
<use href="#obstacle" x="1565" y="-1635" />
<use href="#obstacle" x="1565" y="-2035" />
<use href="#obstacle" x="1565" y="-2135" />
<use href="#obstacle" x="1565" y="-2335" />
<use href="#obstacle" x="1565" y="-2435" />
<use href="#obstacle" x="1565" y="-2535" />
<use href="#obstacle" x="1565" y="-2635" />
<use href="#obstacle" x="1565" y="-2735" />
<use href="#obstacle" x="1565" y="-3035" />
<use href="#obstacle" x="1565" y="-3435" />
<use href="#obstacle" x="1665" y="-135" />
<use href="#obstacle" x="1665" y="-235" />
<use href="#obstacle" x="1665" y="-435" />
<use href="#obstacle" x="1665" y="-735" />
<use href="#obstacle" x="1665" y="-1035" />
<use href="#obstacle" x="1665" y="-1135" />
<use href="#obstacle" x="1665" y="-1335" />
<use href="#obstacle" x="1665" y="-1435" />
<use href="#obstacle" x="1665" y="-1935" />
<use href="#obstacle" x="1665" y="-2035" />
<use href="#obstacle" x="1665" y="-2235" />
<use href="#obstacle" x="1665" y="-2335" />
<use href="#obstacle" x="1665" y="-2735" />
<use href="#obstacle" x="1665" y="-3135" />
<use href="#obstacle" x="1665" y="-3435" />
<use href="#obstacle" x="1765" y="-135" />
<use href="#obstacle" x="1765" y="-235" />
<use href="#obstacle" x="1765" y="-735" />
<use href="#obstacle" x="1765" y="-935" />
<use href="#obstacle" x="1765" y="-1435" />
<use href="#obstacle" x="1765" y="-1635" />
<use href="#obstacle" x="1765" y="-2235" />
<use href="#obstacle" x="1765" y="-2335" />
<use href="#obstacle" x="1765" y="-2435" />
<use href="#obstacle" x="1765" y="-3135" />
<use href="#obstacle" x="1765" y="-3435" />
<use href="#obstacle" x="1865" y="-135" />
<use href="#obstacle" x="1865" y="-935" />
<use href="#obstacle" x="1865" y="-1235" />
<use href="#obstacle" x="1865" y="-1335" />
<use href="#obstacle" x="1865" y="-1535" />
<use href="#obstacle" x="1865" y="-1935" />
<use href="#obstacle" x="1865" y="-2535" />
<use href="#obstacle" x="1865" y="-2935" />
<use href="#obstacle" x="1865" y="-3435" />
<use href="#obstacle" x="1965" y="-135" />
<use href="#obstacle" x="1965" y="-235" />
<use href="#obstacle" x="1965" y="-1535" />
<use href="#obstacle" x="1965" y="-1635" />
<use href="#obstacle" x="1965" y="-2435" />
<use href="#obstacle" x="1965" y="-2735" />
<use href="#obstacle" x="1965" y="-2935" />
<use href="#obstacle" x="1965" y="-3135" />
<use href="#obstacle" x="1965" y="-3235" />
<use href="#obstacle" x="1965" y="-3435" />
<use href="#obstacle" x="2065" y="-135" />
<use href="#obstacle" x="2065" y="-335" />
<use href="#obstacle" x="2065" y="-935" />
<use href="#obstacle" x="2065" y="-1135" />
<use href="#obstacle" x="2065" y="-1435" />
<use href="#obstacle" x="2065" y="-1835" />
<use href="#obstacle" x="2065" y="-1935" />
<use href="#obstacle" x="2065" y="-2335" />
<use href="#obstacle" x="2065" y="-2535" />
<use href="#obstacle" x="2065" y="-2635" />
<use href="#obstacle" x="2065" y="-2735" />
<use href="#obstacle" x="2065" y="-3035" />
<use href="#obstacle" x="2065" y="-3435" />
<use href="#obstacle" x="2165" y="-135" />
<use href="#obstacle" x="2165" y="-235" />
<use href="#obstacle" x="2165" y="-335" />
<use href="#obstacle" x="2165" y="-435" />
<use href="#obstacle" x="2165" y="-735" />
<use href="#obstacle" x="2165" y="-1135" />
<use href="#obstacle" x="2165" y="-1635" />
<use href="#obstacle" x="2165" y="-1835" />
<use href="#obstacle" x="2165" y="-2035" />
<use href="#obstacle" x="2165" y="-2735" />
<use href="#obstacle" x="2165" y="-2935" />
<use href="#obstacle" x="2165" y="-3435" />
<use href="#obstacle" x="2265" y="-135" />
<use href="#obstacle" x="2265" y="-335" />
<use href="#obstacle" x="2265" y="-435" />
<use href="#obstacle" x="2265" y="-735" />
<use href="#obstacle" x="2265" y="-1135" />
<use href="#obstacle" x="2265" y="-2335" />
<use href="#obstacle" x="2265" y="-2635" />
<use href="#obstacle" x="2265" y="-3035" />
<use href="#obstacle" x="2265" y="-3135" />
<use href="#obstacle" x="2265" y="-3335" />
<use href="#obstacle" x="2265" y="-3435" />
<use href="#obstacle" x="2365" y="-135" />
<use href="#obstacle" x="2365" y="-435" />
<use href="#obstacle" x="2365" y="-635" />
<use href="#obstacle" x="2365" y="-1135" />
<use href="#obstacle" x="2365" y="-1235" />
<use href="#obstacle" x="2365" y="-1635" />
<use href="#obstacle" x="2365" y="-2035" />
<use href="#obstacle" x="2365" y="-2235" />
<use href="#obstacle" x="2365" y="-2835" />
<use href="#obstacle" x="2365" y="-2935" />
<use href="#obstacle" x="2365" y="-3035" />
<use href="#obstacle" x="2365" y="-3435" />
<use href="#obstacle" x="2465" y="-135" />
<use href="#obstacle" x="2465" y="-435" />
<use href="#obstacle" x="2465" y="-935" />
<use href="#obstacle" x="2465" y="-1035" />
<use href="#obstacle" x="2465" y="-1735" />
<use href="#obstacle" x="2465" y="-2135" />
<use href="#obstacle" x="2465" y="-2235" />
<use href="#obstacle" x="2465" y="-2835" />
<use href="#obstacle" x="2465" y="-3135" />
<use href="#obstacle" x="2465" y="-3235" />
<use href="#obstacle" x="2465" y="-3435" />
<use href="#obstacle" x="2565" y="-135" />
<use href="#obstacle" x="2565" y="-235" />
<use href="#obstacle" x="2565" y="-1135" />
<use href="#obstacle" x="2565" y="-1235" />
<use href="#obstacle" x="2565" y="-1435" />
<use href="#obstacle" x="2565" y="-1535" />
<use href="#obstacle" x="2565" y="-1635" />
<use href="#obstacle" x="2565" y="-1835" />
<use href="#obstacle" x="2565" y="-1935" />
<use href="#obstacle" x="2565" y="-2035" />
<use href="#obstacle" x="2565" y="-2935" />
<use href="#obstacle" x="2565" y="-3335" />
<use href="#obstacle" x="2565" y="-3435" />
<use href="#obstacle" x="2665" y="-135" />
<use href="#obstacle" x="2665" y="-735" />
<use href="#obstacle" x="2665" y="-1235" />
<use href="#obstacle" x="2665" y="-1335" />
<use href="#obstacle" x="2665" y="-1435" />
<use href="#obstacle" x="2665" y="-1935" />
<use href="#obstacle" x="2665" y="-2435" />
<use href="#obstacle" x="2665" y="-2835" />
<use href="#obstacle" x="2665" y="-3035" />
<use href="#obstacle" x="2665" y="-3435" />
<use href="#obstacle" x="2765" y="-135" />
<use href="#obstacle" x="2765" y="-1335" />
<use href="#obstacle" x="2765" y="-1735" />
<use href="#obstacle" x="2765" y="-2035" />
<use href="#obstacle" x="2765" y="-2335" />
<use href="#obstacle" x="2765" y="-2435" />
<use href="#obstacle" x="2765" y="-2535" />
<use href="#obstacle" x="2765" y="-2735" />
<use href="#obstacle" x="2765" y="-3135" />
<use href="#obstacle" x="2765" y="-3435" />
<use href="#obstacle" x="2865" y="-135" />
<use href="#obstacle" x="2865" y="-635" />
<use href="#obstacle" x="2865" y="-935" />
<use href="#obstacle" x="2865" y="-1035" />
<use href="#obstacle" x="2865" y="-1235" />
<use href="#obstacle" x="2865" y="-1535" />
<use href="#obstacle" x="2865" y="-1635" />
<use href="#obstacle" x="2865" y="-1735" />
<use href="#obstacle" x="2865" y="-2435" />
<use href="#obstacle" x="2865" y="-2535" />
<use href="#obstacle" x="2865" y="-2935" />
<use href="#obstacle" x="2865" y="-3035" />
<use href="#obstacle" x="2865" y="-3135" />
<use href="#obstacle" x="2865" y="-3235" />
<use href="#obstacle" x="2865" y="-3335" />
<use href="#obstacle" x="2865" y="-3435" />
<use href="#obstacle" x="2965" y="-135" />
<use href="#obstacle" x="2965" y="-735" />
<use href="#obstacle" x="2965" y="-835" />
<use href="#obstacle" x="2965" y="-1335" />
<use href="#obstacle" x="2965" y="-1535" />
<use href="#obstacle" x="2965" y="-1835" />
<use href="#obstacle" x="2965" y="-2635" />
<use href="#obstacle" x="2965" y="-3035" />
<use href="#obstacle" x="2965" y="-3435" />
<use href="#obstacle" x="3065" y="-135" />
<use href="#obstacle" x="3065" y="-335" />
<use href="#obstacle" x="3065" y="-535" />
<use href="#obstacle" x="3065" y="-2235" />
<use href="#obstacle" x="3065" y="-2935" />
<use href="#obstacle" x="3065" y="-3135" />
<use href="#obstacle" x="3065" y="-3335" />
<use href="#obstacle" x="3065" y="-3435" />
<use href="#obstacle" x="3165" y="-135" />
<use href="#obstacle" x="3165" y="-635" />
<use href="#obstacle" x="3165" y="-1435" />
<use href="#obstacle" x="3165" y="-1535" />
<use href="#obstacle" x="3165" y="-1835" />
<use href="#obstacle" x="3165" y="-1935" />
<use href="#obstacle" x="3165" y="-2235" />
<use href="#obstacle" x="3165" y="-2335" />
<use href="#obstacle" x="3165" y="-2435" />
<use href="#obstacle" x="3165" y="-2735" />
<use href="#obstacle" x="3165" y="-2835" />
<use href="#obstacle" x="3165" y="-3135" />
<use href="#obstacle" x="3165" y="-3435" />
<use href="#obstacle" x="3265" y="-135" />
<use href="#obstacle" x="3265" y="-235" />
<use href="#obstacle" x="3265" y="-535" />
<use href="#obstacle" x="3265" y="-1035" />
<use href="#obstacle" x="3265" y="-1135" />
<use href="#obstacle" x="3265" y="-1235" />
<use href="#obstacle" x="3265" y="-1335" />
<use href="#obstacle" x="3265" y="-1435" />
<use href="#obstacle" x="3265" y="-1535" />
<use href="#obstacle" x="3265" y="-1735" />
<use href="#obstacle" x="3265" y="-1835" />
<use href="#obstacle" x="3265" y="-2035" />
<use href="#obstacle" x="3265" y="-2235" />
<use href="#obstacle" x="3265" y="-2735" />
<use href="#obstacle" x="3265" y="-3135" />
<use href="#obstacle" x="3265" y="-3335" />
<use href="#obstacle" x="3265" y="-3435" />
<use href="#obstacle" x="3365" y="-135" />
<use href="#obstacle" x="3365" y="-235" />
<use href="#obstacle" x="3365" y="-335" />
<use href="#obstacle" x="3365" y="-435" />
<use href="#obstacle" x="3365" y="-535" />
<use href="#obstacle" x="3365" y="-635" />
<use href="#obstacle" x="3365" y="-735" />
<use href="#obstacle" x="3365" y="-835" />
<use href="#obstacle" x="3365" y="-935" />
<use href="#obstacle" x="3365" y="-1035" />
<use href="#obstacle" x="3365" y="-1135" />
<use href="#obstacle" x="3365" y="-1235" />
<use href="#obstacle" x="3365" y="-1335" />
<use href="#obstacle" x="3365" y="-1435" />
<use href="#obstacle" x="3365" y="-1535" />
<use href="#obstacle" x="3365" y="-1635" />
<use href="#obstacle" x="3365" y="-1735" />
<use href="#obstacle" x="3365" y="-1835" />
<use href="#obstacle" x="3365" y="-1935" />
<use href="#obstacle" x="3365" y="-2035" />
<use href="#obstacle" x="3365" y="-2135" />
<use href="#obstacle" x="3365" y="-2235" />
<use href="#obstacle" x="3365" y="-2335" />
<use href="#obstacle" x="3365" y="-2435" />
<use href="#obstacle" x="3365" y="-2535" />
<use href="#obstacle" x="3365" y="-2635" />
<use href="#obstacle" x="3365" y="-2735" />
<use href="#obstacle" x="3365" y="-2835" />
<use href="#obstacle" x="3365" y="-2935" />
<use href="#obstacle" x="3365" y="-3035" />
<use href="#obstacle" x="3365" y="-3135" />
<use href="#obstacle" x="3365" y="-3235" />
<use href="#obstacle" x="3365" y="-3335" />
<use href="#obstacle" x="3365" y="-3435" />
<circle class="agent" cx="2700" cy="-1500" fill="#c1433c" r="35"> <animate attributeName="cy" dur="16.5s" keyTimes="0.0;0.0149253731;0.0298507463;0.0447761194;0.0597014925;0.1044776119;0.1194029851;0.1343283582;0.1492537313;0.1641791045;0.2089552239;0.223880597;0.2388059701;0.2686567164;0.2835820896;0.3134328358;0.328358209;0.3432835821;0.3880597015;0.4029850746;0.4179104478;0.4626865672;0.4776119403;0.4925373134;0.5373134328;0.552238806;0.5820895522;0.5970149254;0.6268656716;0.6417910448;0.7313432836;0.7462686567;0.7611940299;0.776119403;0.8208955224;0.8358208955;0.8507462687;0.8656716418;0.8805970149;0.9402985075;0.9552238806;0.9701492537;0.9850746269;1.0" repeatCount="indefinite" values="-1500;-1500;-1600;-1700;-1800;-1800;-1900;-1900;-2000;-2100;-2100;-2200;-2300;-2300;-2400;-2400;-2300;-2200;-2200;-2100;-2000;-2000;-1900;-1800;-1800;-1900;-1900;-2000;-2000;-2100;-2100;-2200;-2100;-2000;-2000;-2100;-2100;-2200;-2300;-2300;-2200;-2100;-2000;-2000"/>
<animate attributeName="cx" dur="16.5s" keyTimes="0.0;0.0149253731;0.0895522388;0.1044776119;0.1194029851;0.1343283582;0.1641791045;0.1791044776;0.1940298507;0.2089552239;0.2388059701;0.2537313433;0.2686567164;0.2835820896;0.2985074627;0.3134328358;0.3432835821;0.3582089552;0.3731343284;0.3880597015;0.4179104478;0.4328358209;0.4925373134;0.5074626866;0.5223880597;0.5373134328;0.552238806;0.5671641791;0.5820895522;0.6417910448;0.6567164179;0.671641791;0.6865671642;0.7014925373;0.7164179104;0.7313432836;0.776119403;0.7910447761;0.8358208955;0.8507462687;0.8805970149;0.8955223881;0.9104477612;0.9253731343;0.9402985075;1.0" repeatCount="indefinite" values="2700;2700;2700;2800;2800;2900;2900;2800;2700;2600;2600;2500;2400;2400;2300;2200;2200;2100;2000;1900;1900;1800;1800;1700;1600;1500;1500;1400;1300;1300;1200;1100;1000;900;800;700;700;600;600;700;700;600;500;400;300;300"/>
<animate attributeName="visibility" dur="16.5s" keyTimes="0.0;0.0149253731;1.0" repeatCount="indefinite" values="visible;visible;visible"/> </circle>
<circle class="agent" cx="1200" cy="-3200" fill="#2e6f9e" r="35"> <animate attributeName="cy" dur="16.5s" keyTimes="0.0;0.0149253731;0.0597014925;0.0746268657;0.0895522388;0.1044776119;0.1194029851;0.1343283582;0.1492537313;0.1641791045;0.1940298507;0.2089552239;0.223880597;0.2388059701;0.2537313433;0.2686567164;0.2835820896;0.2985074627;0.3134328358;0.328358209;0.3432835821;0.3582089552;0.3880597015;0.4029850746;0.4179104478;0.4328358209;0.447761194;0.4626865672;0.4776119403;0.4925373134;1.0" repeatCount="indefinite" values="-3200;-3200;-3200;-3100;-3000;-2900;-2800;-2800;-2700;-2600;-2600;-2500;-2500;-2400;-2300;-2300;-2200;-2200;-2100;-2000;-2000;-1900;-1900;-1800;-1700;-1700;-1600;-1500;-1500;-1400;-1400"/>
<animate attributeName="cx" dur="16.5s" keyTimes="0.0;0.0149253731;0.0298507463;0.0447761194;0.0597014925;0.1194029851;0.1343283582;0.1641791045;0.1791044776;0.1940298507;0.2089552239;0.223880597;0.2537313433;0.2686567164;0.2835820896;0.2985074627;0.328358209;0.3432835821;0.3582089552;0.3731343284;0.3880597015;0.4179104478;0.4328358209;0.4626865672;0.4776119403;1.0" repeatCount="indefinite" values="1200;1200;1300;1400;1500;1500;1400;1400;1300;1200;1200;1100;1100;1200;1200;1300;1300;1400;1400;1500;1600;1600;1700;1700;1600;1600"/>
<animate attributeName="visibility" dur="16.5s" keyTimes="0.0;0.0149253731;1.0" repeatCount="indefinite" values="visible;visible;visible"/> </circle>
<circle class="target" cx="300" cy="-2000" r="35" stroke="#c1433c"> <animate attributeName="visibility" dur="16.5s" keyTimes="0.0;0.0149253731;1.0" repeatCount="indefinite" values="visible;visible;visible"/> </circle>
<circle class="target" cx="1600" cy="-1400" r="35" stroke="#2e6f9e"> <animate attributeName="visibility" dur="16.5s" keyTimes="0.0;0.0149253731;1.0" repeatCount="indefinite" values="visible;visible;visible"/> </circle>
</svg>