<?xml version="1.0" encoding="UTF-8"?>
        <svg xmlns="http://www.w3.org/2000/svg" xmlns:xlink="http://www.w3.org/1999/xlink"
             width="430" height="430" viewBox="0 -4300 4300 4300">

<defs>

</defs>

<rect fill="#84A1AE" height="70" rx="15" width="70" x="465" y="-535" />
<rect fill="#84A1AE" height="70" rx="15" width="70" x="465" y="-635" />
<rect fill="#84A1AE" height="70" rx="15" width="70" x="465" y="-735" />
<rect fill="#84A1AE" height="70" rx="15" width="70" x="465" y="-835" />
<rect fill="#84A1AE" height="70" rx="15" width="70" x="465" y="-935" />
<rect fill="#84A1AE" height="70" rx="15" width="70" x="465" y="-1035" />
<rect fill="#84A1AE" height="70" rx="15" width="70" x="465" y="-1135" />
<rect fill="#84A1AE" height="70" rx="15" width="70" x="465" y="-1235" />
<rect fill="#84A1AE" height="70" rx="15" width="70" x="465" y="-1335" />
<rect fill="#84A1AE" height="70" rx="15" width="70" x="465" y="-1435" />
<rect fill="#84A1AE" height="70" rx="15" width="70" x="465" y="-1535" />
<rect fill="#84A1AE" height="70" rx="15" width="70" x="465" y="-1635" />
<rect fill="#84A1AE" height="70" rx="15" width="70" x="465" y="-1735" />
<rect fill="#84A1AE" height="70" rx="15" width="70" x="465" y="-1835" />
<rect fill="#84A1AE" height="70" rx="15" width="70" x="465" y="-1935" />
<rect fill="#84A1AE" height="70" rx="15" width="70" x="465" y="-2035" />
<rect fill="#84A1AE" height="70" rx="15" width="70" x="465" y="-2135" />
<rect fill="#84A1AE" height="70" rx="15" width="70" x="465" y="-2235" />
<rect fill="#84A1AE" height="70" rx="15" width="70" x="465" y="-2335" />
<rect fill="#84A1AE" height="70" rx="15" width="70" x="465" y="-2435" />
<rect fill="#84A1AE" height="70" rx="15" width="70" x="465" y="-2535" />
<rect fill="#84A1AE" height="70" rx="15" width="70" x="465" y="-2635" />
<rect fill="#84A1AE" height="70" rx="15" width="70" x="465" y="-2735" />
<rect fill="#84A1AE" height="70" rx="15" width="70" x="465" y="-2835" />
<rect fill="#84A1AE" height="70" rx="15" width="70" x="465" y="-2935" />
<rect fill="#84A1AE" height="70" rx="15" width="70" x="465" y="-3035" />
<rect fill="#84A1AE" height="70" rx="15" width="70" x="465" y="-3135" />
<rect fill="#84A1AE" height="70" rx="15" width="70" x="465" y="-3235" />
<rect fill="#84A1AE" height="70" rx="15" width="70" x="465" y="-3335" />
<rect fill="#84A1AE" height="70" rx="15" width="70" x="465" y="-3435" />
<rect fill="#84A1AE" height="70" rx="15" width="70" x="465" y="-3535" />
<rect fill="#84A1AE" height="70" rx="15" width="70" x="465" y="-3635" />
<rect fill="#84A1AE" height="70" rx="15" width="70" x="465" y="-3735" />
<rect fill="#84A1AE" height="70" rx="15" width="70" x="465" y="-3835" />
<rect fill="#84A1AE" height="70" rx="15" width="70" x="565" y="-535" />
<rect fill="#84A1AE" height="70" rx="15" width="70" x="565" y="-1635" />
<rect fill="#84A1AE" height="70" rx="15" width="70" x="565" y="-1935" />
<rect fill="#84A1AE" height="70" rx="15" width="70" x="565" y="-2735" />
<rect fill="#84A1AE" height="70" rx="15" width="70" x="565" y="-3835" />
<rect fill="#84A1AE" height="70" rx="15" width="70" x="665" y="-535" />
<rect fill="#84A1AE" height="70" rx="15" width="70" x="665" y="-1035" />
<rect fill="#84A1AE" height="70" rx="15" width="70" x="665" y="-2535" />
<rect fill="#84A1AE" height="70" rx="15" width="70" x="665" y="-3035" />
<rect fill="#84A1AE" height="70" rx="15" width="70" x="665" y="-3235" />
<rect fill="#84A1AE" height="70" rx="15" width="70" x="665" y="-3835" />
<rect fill="#84A1AE" height="70" rx="15" width="70" x="765" y="-535" />
<rect fill="#84A1AE" height="70" rx="15" width="70" x="765" y="-635" />
<rect fill="#84A1AE" height="70" rx="15" width="70" x="765" y="-3835" />
<rect fill="#84A1AE" height="70" rx="15" width="70" x="865" y="-535" />
<rect fill="#84A1AE" height="70" rx="15" width="70" x="865" y="-2435" />
<rect fill="#84A1AE" height="70" rx="15" width="70" x="865" y="-2535" />
<rect fill="#84A1AE" height="70" rx="15" width="70" x="865" y="-3335" />
<rect fill="#84A1AE" height="70" rx="15" width="70" x="865" y="-3435" />
<rect fill="#84A1AE" height="70" rx="15" width="70" x="865" y="-3835" />
<rect fill="#84A1AE" height="70" rx="15" width="70" x="965" y="-535" />
<rect fill="#84A1AE" height="70" rx="15" width="70" x="965" y="-735" />
<rect fill="#84A1AE" height="70" rx="15" width="70" x="965" y="-1635" />
<rect fill="#84A1AE" height="70" rx="15" width="70" x="965" y="-1835" />
<rect fill="#84A1AE" height="70" rx="15" width="70" x="965" y="-2835" />
<rect fill="#84A1AE" height="70" rx="15" width="70" x="965" y="-3435" />
<rect fill="#84A1AE" height="70" rx="15" width="70" x="965" y="-3835" />
<rect fill="#84A1AE" height="70" rx="15" width="70" x="1065" y="-535" />
<rect fill="#84A1AE" height="70" rx="15" width="70" x="1065" y="-1135" />
<rect fill="#84A1AE" height="70" rx="15" width="70" x="1065" y="-1835" />
<rect fill="#84A1AE" height="70" rx="15" width="70" x="1065" y="-3735" />
<rect fill="#84A1AE" height="70" rx="15" width="70" x="1065" y="-3835" />
<rect fill="#84A1AE" height="70" rx="15" width="70" x="1165" y="-535" />
<rect fill="#84A1AE" height="70" rx="15" width="70" x="1165" y="-635" />
<rect fill="#84A1AE" height="70" rx="15" width="70" x="1165" y="-735" />
<rect fill="#84A1AE" height="70" rx="15" width="70" x="1165" y="-1535" />
<rect fill="#84A1AE" height="70" rx="15" width="70" x="1165" y="-3835" />
<rect fill="#84A1AE" height="70" rx="15" width="70" x="1265" y="-535" />
<rect fill="#84A1AE" height="70" rx="15" width="70" x="1265" y="-2835" />
<rect fill="#84A1AE" height="70" rx="15" width="70" x="1265" y="-3435" />
<rect fill="#84A1AE" height="70" rx="15" width="70" x="1265" y="-3835" />
<rect fill="#84A1AE" height="70" rx="15" width="70" x="1365" y="-535" />
<rect fill="#84A1AE" height="70" rx="15" width="70" x="1365" y="-835" />
<rect fill="#84A1AE" height="70" rx="15" width="70" x="1365" y="-935" />
<rect fill="#84A1AE" height="70" rx="15" width="70" x="1365" y="-1035" />
<rect fill="#84A1AE" height="70" rx="15" width="70" x="1365" y="-1935" />
<rect fill="#84A1AE" height="70" rx="15" width="70" x="1365" y="-2335" />
<rect fill="#84A1AE" height="70" rx="15" width="70" x="1365" y="-2635" />
<rect fill="#84A1AE" height="70" rx="15" width="70" x="1365" y="-2835" />
<rect fill="#84A1AE" height="70" rx="15" width="70" x="1365" y="-2935" />
<rect fill="#84A1AE" height="70" rx="15" width="70" x="1365" y="-3035" />
<rect fill="#84A1AE" height="70" rx="15" width="70" x="1365" y="-3335" />
<rect fill="#84A1AE" height="70" rx="15" width="70" x="1365" y="-3835" />
<rect fill="#84A1AE" height="70" rx="15" width="70" x="1465" y="-535" />
<rect fill="#84A1AE" height="70" rx="15" width="70" x="1465" y="-1235" />
<rect fill="#84A1AE" height="70" rx="15" width="70" x="1465" y="-1535" />
<rect fill="#84A1AE" height="70" rx="15" width="70" x="1465" y="-2035" />
<rect fill="#84A1AE" height="70" rx="15" width="70" x="1465" y="-3135" />
<rect fill="#84A1AE" height="70" rx="15" width="70" x="1465" y="-3235" />
<rect fill="#84A1AE" height="70" rx="15" width="70" x="1465" y="-3835" />
<rect fill="#84A1AE" height="70" rx="15" width="70" x="1565" y="-535" />
<rect fill="#84A1AE" height="70" rx="15" width="70" x="1565" y="-3035" />
<rect fill="#84A1AE" height="70" rx="15" width="70" x="1565" y="-3835" />
<rect fill="#84A1AE" height="70" rx="15" width="70" x="1665" y="-535" />
<rect fill="#84A1AE" height="70" rx="15" width="70" x="1665" y="-3735" />
<rect fill="#84A1AE" height="70" rx="15" width="70" x="1665" y="-3835" />
<rect fill="#84A1AE" height="70" rx="15" width="70" x="1765" y="-535" />
<rect fill="#84A1AE" height="70" rx="15" width="70" x="1765" y="-1235" />
<rect fill="#84A1AE" height="70" rx="15" width="70" x="1765" y="-3835" />
<rect fill="#84A1AE" height="70" rx="15" width="70" x="1865" y="-535" />
<rect fill="#84A1AE" height="70" rx="15" width="70" x="1865" y="-735" />
<rect fill="#84A1AE" height="70" rx="15" width="70" x="1865" y="-1335" />
<rect fill="#84A1AE" height="70" rx="15" width="70" x="1865" y="-3235" />
<rect fill="#84A1AE" height="70" rx="15" width="70" x="1865" y="-3435" />
<rect fill="#84A1AE" height="70" rx="15" width="70" x="1865" y="-3835" />
<rect fill="#84A1AE" height="70" rx="15" width="70" x="1965" y="-535" />
<rect fill="#84A1AE" height="70" rx="15" width="70" x="1965" y="-635" />
<rect fill="#84A1AE" height="70" rx="15" width="70" x="1965" y="-1835" />
<rect fill="#84A1AE" height="70" rx="15" width="70" x="1965" y="-1935" />
<rect fill="#84A1AE" height="70" rx="15" width="70" x="1965" y="-2135" />
<rect fill="#84A1AE" height="70" rx="15" width="70" x="1965" y="-2335" />
<rect fill="#84A1AE" height="70" rx="15" width="70" x="1965" y="-2435" />
<rect fill="#84A1AE" height="70" rx="15" width="70" x="1965" y="-3335" />
<rect fill="#84A1AE" height="70" rx="15" width="70" x="1965" y="-3835" />
<rect fill="#84A1AE" height="70" rx="15" width="70" x="2065" y="-535" />
<rect fill="#84A1AE" height="70" rx="15" width="70" x="2065" y="-1535" />
<rect fill="#84A1AE" height="70" rx="15" width="70" x="2065" y="-1635" />
<rect fill="#84A1AE" height="70" rx="15" width="70" x="2065" y="-2135" />
<rect fill="#84A1AE" height="70" rx="15" width="70" x="2065" y="-3835" />
<rect fill="#84A1AE" height="70" rx="15" width="70" x="2165" y="-535" />
<rect fill="#84A1AE" height="70" rx="15" width="70" x="2165" y="-935" />
<rect fill="#84A1AE" height="70" rx="15" width="70" x="2165" y="-1335" />
<rect fill="#84A1AE" height="70" rx="15" width="70" x="2165" y="-1835" />
<rect fill="#84A1AE" height="70" rx="15" width="70" x="2165" y="-3835" />
<rect fill="#84A1AE" height="70" rx="15" width="70" x="2265" y="-535" />
<rect fill="#84A1AE" height="70" rx="15" width="70" x="2265" y="-935" />
<rect fill="#84A1AE" height="70" rx="15" width="70" x="2265" y="-1135" />
<rect fill="#84A1AE" height="70" rx="15" width="70" x="2265" y="-2535" />
<rect fill="#84A1AE" height="70" rx="15" width="70" x="2265" y="-3235" />
<rect fill="#84A1AE" height="70" rx="15" width="70" x="2265" y="-3835" />
<rect fill="#84A1AE" height="70" rx="15" width="70" x="2365" y="-535" />
<rect fill="#84A1AE" height="70" rx="15" width="70" x="2365" y="-935" />
<rect fill="#84A1AE" height="70" rx="15" width="70" x="2365" y="-1035" />
<rect fill="#84A1AE" height="70" rx="15" width="70" x="2365" y="-3835" />
<rect fill="#84A1AE" height="70" rx="15" width="70" x="2465" y="-535" />
<rect fill="#84A1AE" height="70" rx="15" width="70" x="2465" y="-935" />
<rect fill="#84A1AE" height="70" rx="15" width="70" x="2465" y="-1535" />
<rect fill="#84A1AE" height="70" rx="15" width="70" x="2465" y="-2335" />
<rect fill="#84A1AE" height="70" rx="15" width="70" x="2465" y="-2735" />
<rect fill="#84A1AE" height="70" rx="15" width="70" x="2465" y="-3835" />
<rect fill="#84A1AE" height="70" rx="15" width="70" x="2565" y="-535" />
<rect fill="#84A1AE" height="70" rx="15" width="70" x="2565" y="-735" />
<rect fill="#84A1AE" height="70" rx="15" width="70" x="2565" y="-2535" />
<rect fill="#84A1AE" height="70" rx="15" width="70" x="2565" y="-3835" />
<rect fill="#84A1AE" height="70" rx="15" width="70" x="2665" y="-535" />
<rect fill="#84A1AE" height="70" rx="15" width="70" x="2665" y="-635" />
<rect fill="#84A1AE" height="70" rx="15" width="70" x="2665" y="-1135" />
<rect fill="#84A1AE" height="70" rx="15" width="70" x="2665" y="-1435" />
<rect fill="#84A1AE" height="70" rx="15" width="70" x="2665" y="-2735" />
<rect fill="#84A1AE" height="70" rx="15" width="70" x="2665" y="-3835" />
<rect fill="#84A1AE" height="70" rx="15" width="70" x="2765" y="-535" />
<rect fill="#84A1AE" height="70" rx="15" width="70" x="2765" y="-1635" />
<rect fill="#84A1AE" height="70" rx="15" width="70" x="2765" y="-1835" />
<rect fill="#84A1AE" height="70" rx="15" width="70" x="2765" y="-1935" />
<rect fill="#84A1AE" height="70" rx="15" width="70" x="2765" y="-2235" />
<rect fill="#84A1AE" height="70" rx="15" width="70" x="2765" y="-3735" />
<rect fill="#84A1AE" height="70" rx="15" width="70" x="2765" y="-3835" />
<rect fill="#84A1AE" height="70" rx="15" width="70" x="2865" y="-535" />
<rect fill="#84A1AE" height="70" rx="15" width="70" x="2865" y="-3835" />
<rect fill="#84A1AE" height="70" rx="15" width="70" x="2965" y="-535" />
<rect fill="#84A1AE" height="70" rx="15" width="70" x="2965" y="-2635" />
<rect fill="#84A1AE" height="70" rx="15" width="70" x="2965" y="-3835" />
<rect fill="#84A1AE" height="70" rx="15" width="70" x="3065" y="-535" />
<rect fill="#84A1AE" height="70" rx="15" width="70" x="3065" y="-735" />
<rect fill="#84A1AE" height="70" rx="15" width="70" x="3065" y="-2535" />
<rect fill="#84A1AE" height="70" rx="15" width="70" x="3065" y="-3835" />
<rect fill="#84A1AE" height="70" rx="15" width="70" x="3165" y="-535" />
<rect fill="#84A1AE" height="70" rx="15" width="70" x="3165" y="-835" />
<rect fill="#84A1AE" height="70" rx="15" width="70" x="3165" y="-1935" />
<rect fill="#84A1AE" height="70" rx="15" width="70" x="3165" y="-2735" />
<rect fill="#84A1AE" height="70" rx="15" width="70" x="3165" y="-3135" />
<rect fill="#84A1AE" height="70" rx="15" width="70" x="3165" y="-3835" />
<rect fill="#84A1AE" height="70" rx="15" width="70" x="3265" y="-535" />
<rect fill="#84A1AE" height="70" rx="15" width="70" x="3265" y="-1035" />
<rect fill="#84A1AE" height="70" rx="15" width="70" x="3265" y="-1735" />
<rect fill="#84A1AE" height="70" rx="15" width="70" x="3265" y="-3835" />
<rect fill="#84A1AE" height="70" rx="15" width="70" x="3365" y="-535" />
<rect fill="#84A1AE" height="70" rx="15" width="70" x="3365" y="-1435" />
<rect fill="#84A1AE" height="70" rx="15" width="70" x="3365" y="-1935" />
<rect fill="#84A1AE" height="70" rx="15" width="70" x="3365" y="-2135" />
<rect fill="#84A1AE" height="70" rx="15" width="70" x="3365" y="-3835" />
<rect fill="#84A1AE" height="70" rx="15" width="70" x="3465" y="-535" />
<rect fill="#84A1AE" height="70" rx="15" width="70" x="3465" y="-2635" />
<rect fill="#84A1AE" height="70" rx="15" width="70" x="3465" y="-3835" />
<rect fill="#84A1AE" height="70" rx="15" width="70" x="3565" y="-535" />
<rect fill="#84A1AE" height="70" rx="15" width="70" x="3565" y="-635" />
<rect fill="#84A1AE" height="70" rx="15" width="70" x="3565" y="-2435" />
<rect fill="#84A1AE" height="70" rx="15" width="70" x="3565" y="-3235" />
<rect fill="#84A1AE" height="70" rx="15" width="70" x="3565" y="-3835" />
<rect fill="#84A1AE" height="70" rx="15" width="70" x="3665" y="-535" />
<rect fill="#84A1AE" height="70" rx="15" width="70" x="3665" y="-2135" />
<rect fill="#84A1AE" height="70" rx="15" width="70" x="3665" y="-2835" />
<rect fill="#84A1AE" height="70" rx="15" width="70" x="3665" y="-3135" />
<rect fill="#84A1AE" height="70" rx="15" width="70" x="3665" y="-3735" />
<rect fill="#84A1AE" height="70" rx="15" width="70" x="3665" y="-3835" />
<rect fill="#84A1AE" height="70" rx="15" width="70" x="3765" y="-535" />
<rect fill="#84A1AE" height="70" rx="15" width="70" x="3765" y="-635" />
<rect fill="#84A1AE" height="70" rx="15" width="70" x="3765" y="-735" />
<rect fill="#84A1AE" height="70" rx="15" width="70" x="3765" y="-835" />
<rect fill="#84A1AE" height="70" rx="15" width="70" x="3765" y="-935" />
<rect fill="#84A1AE" height="70" rx="15" width="70" x="3765" y="-1035" />
<rect fill="#84A1AE" height="70" rx="15" width="70" x="3765" y="-1135" />
<rect fill="#84A1AE" height="70" rx="15" width="70" x="3765" y="-1235" />
<rect fill="#84A1AE" height="70" rx="15" width="70" x="3765" y="-1335" />
<rect fill="#84A1AE" height="70" rx="15" width="70" x="3765" y="-1435" />
<rect fill="#84A1AE" height="70" rx="15" width="70" x="3765" y="-1535" />
<rect fill="#84A1AE" height="70" rx="15" width="70" x="3765" y="-1635" />
<rect fill="#84A1AE" height="70" rx="15" width="70" x="3765" y="-1735" />
<rect fill="#84A1AE" height="70" rx="15" width="70" x="3765" y="-1835" />
<rect fill="#84A1AE" height="70" rx="15" width="70" x="3765" y="-1935" />
<rect fill="#84A1AE" height="70" rx="15" width="70" x="3765" y="-2035" />
<rect fill="#84A1AE" height="70" rx="15" width="70" x="3765" y="-2135" />
<rect fill="#84A1AE" height="70" rx="15" width="70" x="3765" y="-2235" />
<rect fill="#84A1AE" height="70" rx="15" width="70" x="3765" y="-2335" />
<rect fill="#84A1AE" height="70" rx="15" width="70" x="3765" y="-2435" />
<rect fill="#84A1AE" height="70" rx="15" width="70" x="3765" y="-2535" />
<rect fill="#84A1AE" height="70" rx="15" width="70" x="3765" y="-2635" />
<rect fill="#84A1AE" height="70" rx="15" width="70" x="3765" y="-2735" />
<rect fill="#84A1AE" height="70" rx="15" width="70" x="3765" y="-2835" />
<rect fill="#84A1AE" height="70" rx="15" width="70" x="3765" y="-2935" />
<rect fill="#84A1AE" height="70" rx="15" width="70" x="3765" y="-3035" />
<rect fill="#84A1AE" height="70" rx="15" width="70" x="3765" y="-3135" />
<rect fill="#84A1AE" height="70" rx="15" width="70" x="3765" y="-3235" />
<rect fill="#84A1AE" height="70" rx="15" width="70" x="3765" y="-3335" />
<rect fill="#84A1AE" height="70" rx="15" width="70" x="3765" y="-3435" />
<rect fill="#84A1AE" height="70" rx="15" width="70" x="3765" y="-3535" />
<rect fill="#84A1AE" height="70" rx="15" width="70" x="3765" y="-3635" />
<rect fill="#84A1AE" height="70" rx="15" width="70" x="3765" y="-3735" />
<rect fill="#84A1AE" height="70" rx="15" width="70" x="3765" y="-3835" />
<circle cx="2500" cy="-1400" fill="#c1433c" r="35"> <animate attributeName="cy" dur="64.68s" keyTimes="0.0;0.0043103448;0.0086206897;0.0129310345;0.0172413793;0.0215517241;0.025862069;0.0301724138;0.0344827586;0.0387931034;0.0431034483;0.0474137931;0.0517241379;0.0560344828;0.0603448276;0.0646551724;0.0689655172;0.0732758621;0.0775862069;0.0818965517;0.0862068966;0.1637931034;0.1681034483;0.1724137931;0.1767241379;0.1810344828;0.1853448276;0.1896551724;0.1939655172;0.1982758621;0.2025862069;0.2068965517;0.2413793103;0.2456896552;0.25;0.2543103448;0.2629310345;0.2672413793;0.2715517241;0.275862069;0.2801724138;0.2844827586;0.2887931034;0.2931034483;0.2974137931;0.3017241379;0.3060344828;0.3103448276;0.3146551724;0.3189655172;0.3232758621;0.3275862069;0.3318965517;0.3362068966;0.3405172414;0.3448275862;0.349137931;0.3534482759;0.3577586207;0.3620689655;0.3663793103;0.3706896552;0.375;0.3793103448;0.3879310345;0.3922413793;0.3965517241;0.4051724138;0.4094827586;0.4137931034;0.4181034483;0.4224137931;0.4267241379;0.4310344828;0.4353448276;0.599137931;0.6034482759;0.6077586207;0.6120689655;0.6163793103;0.6206896552;0.625;0.6293103448;0.6336206897;0.6379310345;0.6422413793;0.6465517241;0.650862069;0.6551724138;0.6594827586;0.6637931034;0.6681034483;0.6724137931;0.6767241379;0.6810344828;0.6853448276;0.6896551724;0.6939655172;0.6982758621;0.7025862069;0.7068965517;0.7112068966;0.7155172414;0.7198275862;0.724137931;0.7284482759;0.7327586207;0.7370689655;0.7413793103;0.7456896552;0.75;0.7543103448;0.7586206897;0.7629310345;0.7672413793;0.7715517241;0.775862069;0.7801724138;0.7844827586;0.7887931034;0.7931034483;0.7974137931;0.8017241379;0.8060344828;0.9137931034;0.9181034483;0.9224137931;0.9353448276;0.9396551724;0.9439655172;0.9482758621;0.9525862069;0.9568965517;0.9612068966;0.9655172414;0.9698275862;0.974137931;0.9784482759;0.9870689655;0.9913793103;0.9956896552;1.0" repeatCount="indefinite" values="-1400;-1400;-1400;-1500;-1600;-1700;-1800;-1900;-2000;-2100;-2200;-2300;-2400;-2400;-2500;-2600;-2600;-2700;-2800;-2900;-3000;-3000;-2900;-2800;-2700;-2600;-2500;-2400;-2300;-2200;-2100;-2000;-2000;-1900;-1900;-1800;-1800;-1700;-1600;-1500;-1400;-1300;-1200;-1100;-1000;-900;-1000;-1100;-1200;-1300;-1400;-1500;-1600;-1700;-1800;-1900;-2000;-2100;-2200;-2300;-2400;-2500;-2600;-2700;-2700;-2800;-2900;-2900;-3000;-3100;-3200;-3300;-3400;-3500;-3600;-3600;-3500;-3400;-3300;-3200;-3100;-3000;-2900;-2900;-2800;-2700;-2600;-2500;-2400;-2300;-2200;-2100;-2000;-1900;-1800;-1700;-1600;-1500;-1400;-1300;-1200;-1100;-1000;-1000;-1100;-1100;-1200;-1300;-1400;-1500;-1600;-1700;-1800;-1900;-2000;-2100;-2200;-2300;-2400;-2500;-2600;-2700;-2800;-2900;-2900;-2800;-2700;-2700;-2600;-2500;-2400;-2300;-2200;-2100;-2000;-1900;-1800;-1700;-1700;-1800;-1900;-1900"/>
<animate attributeName="cx" dur="64.68s" keyTimes="0.0;0.0043103448;0.0086206897;0.0517241379;0.0560344828;0.0646551724;0.0689655172;0.0862068966;0.0905172414;0.0948275862;0.099137931;0.1034482759;0.1077586207;0.1120689655;0.1163793103;0.1206896552;0.125;0.1293103448;0.1336206897;0.1379310345;0.1422413793;0.1465517241;0.150862069;0.1551724138;0.1594827586;0.1637931034;0.2068965517;0.2112068966;0.2155172414;0.2198275862;0.224137931;0.2284482759;0.2327586207;0.2370689655;0.2413793103;0.2456896552;0.25;0.2543103448;0.2586206897;0.2629310345;0.3793103448;0.3836206897;0.3879310345;0.3965517241;0.400862069;0.4051724138;0.4353448276;0.4396551724;0.4439655172;0.4482758621;0.4525862069;0.4568965517;0.4612068966;0.4655172414;0.4698275862;0.474137931;0.4784482759;0.4827586207;0.4870689655;0.4913793103;0.4956896552;0.5;0.5043103448;0.5086206897;0.5129310345;0.5172413793;0.5215517241;0.525862069;0.5301724138;0.5344827586;0.5387931034;0.5431034483;0.5474137931;0.5517241379;0.5560344828;0.5603448276;0.5646551724;0.5689655172;0.5732758621;0.5775862069;0.5818965517;0.5862068966;0.5905172414;0.5948275862;0.599137931;0.6293103448;0.6336206897;0.7155172414;0.7198275862;0.724137931;0.7284482759;0.8060344828;0.8103448276;0.8146551724;0.8189655172;0.8232758621;0.8275862069;0.8318965517;0.8362068966;0.8405172414;0.8448275862;0.849137931;0.8534482759;0.8577586207;0.8620689655;0.8663793103;0.8706896552;0.875;0.8793103448;0.8836206897;0.8879310345;0.8922413793;0.8965517241;0.900862069;0.9051724138;0.9094827586;0.9137931034;0.9224137931;0.9267241379;0.9310344828;0.9353448276;0.9784482759;0.9827586207;0.9870689655;1.0" repeatCount="indefinite" values="2500;2500;2600;2600;2700;2700;2800;2800;2900;3000;3100;3200;3300;3400;3500;3400;3300;3200;3100;3000;2900;2800;2700;2600;2500;2400;2400;2300;2200;2100;2000;1900;1800;1700;1600;1600;1500;1500;1400;1300;1300;1400;1500;1500;1600;1700;1700;1800;1900;2000;2100;2200;2300;2400;2500;2600;2700;2800;2900;3000;3100;3200;3300;3400;3500;3600;3500;3400;3300;3200;3100;3000;2900;2800;2700;2600;2500;2400;2300;2200;2100;2000;1900;1800;1700;1700;1600;1600;1500;1500;1600;1600;1700;1800;1900;2000;2100;2200;2300;2400;2500;2600;2700;2800;2700;2600;2500;2400;2300;2200;2100;2000;1900;1800;1700;1600;1500;1500;1400;1300;1200;1200;1100;1200;1200"/>
<animate attributeName="visibility" dur="64.68s" keyTimes="0.0;0.0043103448;1.0" repeatCount="indefinite" values="visible;visible;visible"/> </circle>
<circle cx="3000" cy="-1900" fill="#2e6f9e" r="35"> <animate attributeName="cy" dur="64.68s" keyTimes="0.0;0.0043103448;0.0086206897;0.0129310345;0.0172413793;0.0215517241;0.025862069;0.0344827586;0.0387931034;0.0431034483;0.0474137931;0.0517241379;0.0560344828;0.0646551724;0.0689655172;0.0732758621;0.0905172414;0.0948275862;0.099137931;0.1034482759;0.1206896552;0.125;0.1336206897;0.1379310345;0.1767241379;0.1810344828;0.1896551724;0.1939655172;0.1982758621;0.2025862069;0.2068965517;0.2112068966;0.2155172414;0.2198275862;0.224137931;0.2284482759;0.2327586207;0.2370689655;0.2456896552;0.25;0.2543103448;0.2586206897;0.2629310345;0.275862069;0.2801724138;0.2844827586;0.2887931034;0.3060344828;0.3103448276;0.3146551724;0.3189655172;0.3232758621;0.3275862069;0.3318965517;0.3362068966;0.3405172414;0.3448275862;0.349137931;0.3534482759;0.3620689655;0.3663793103;0.375;0.3793103448;0.3836206897;0.3879310345;0.3922413793;0.3965517241;0.400862069;0.4051724138;0.4094827586;0.4137931034;0.4181034483;0.4267241379;0.4310344828;0.4439655172;0.4482758621;0.4525862069;0.4612068966;0.4655172414;0.4698275862;0.4784482759;0.4827586207;0.4870689655;0.4913793103;0.4956896552;0.5129310345;0.5172413793;0.5215517241;0.525862069;0.5301724138;0.5344827586;0.5387931034;0.5431034483;0.5474137931;0.5560344828;0.5603448276;0.5646551724;0.5775862069;0.5818965517;0.599137931;0.6034482759;0.6077586207;0.6120689655;0.6163793103;0.6206896552;0.625;0.6293103448;0.6336206897;0.6379310345;0.6422413793;0.6465517241;0.650862069;0.6551724138;0.6637931034;0.6681034483;0.6724137931;0.6767241379;0.6810344828;0.6853448276;0.6982758621;0.7025862069;0.7112068966;0.7155172414;0.7198275862;0.724137931;0.7284482759;0.7327586207;0.7370689655;0.7413793103;0.7543103448;0.7586206897;0.7629310345;0.775862069;0.7801724138;0.7844827586;0.7887931034;0.7931034483;0.8103448276;0.8146551724;0.8275862069;0.8318965517;0.8362068966;0.8405172414;0.8448275862;0.849137931;0.8577586207;0.8620689655;0.8706896552;0.875;0.8836206897;0.8879310345;0.8922413793;0.8965517241;0.900862069;0.9094827586;0.9137931034;0.9181034483;0.9224137931;0.9267241379;0.9310344828;0.9482758621;0.9525862069;0.9568965517;0.9612068966;0.9655172414;0.9698275862;0.9870689655;0.9913793103;1.0" repeatCount="indefinite" values="-1900;-1900;-1900;-1800;-1900;-1900;-2000;-2000;-2100;-2200;-2200;-2100;-2200;-2200;-2300;-2400;-2400;-2500;-2500;-2600;-2600;-2500;-2500;-2600;-2600;-2500;-2500;-2400;-2500;-2400;-2400;-2500;-2400;-2400;-2500;-2600;-2600;-2700;-2700;-2800;-2800;-2900;-3000;-3000;-3100;-3000;-2900;-2900;-2800;-2800;-2900;-2800;-2800;-2900;-3000;-3100;-3100;-3200;-3100;-3100;-3200;-3200;-3300;-3300;-3400;-3400;-3300;-3400;-3400;-3300;-3300;-3200;-3200;-3100;-3100;-3200;-3100;-3100;-3200;-3100;-3100;-3200;-3200;-3100;-3200;-3200;-3300;-3200;-3300;-3300;-3400;-3500;-3600;-3500;-3500;-3600;-3500;-3500;-3400;-3400;-3500;-3500;-3600;-3700;-3600;-3600;-3500;-3500;-3400;-3400;-3500;-3500;-3600;-3600;-3500;-3500;-3600;-3600;-3500;-3500;-3400;-3400;-3300;-3400;-3500;-3400;-3400;-3300;-3200;-3200;-3100;-3000;-3000;-2900;-2800;-2800;-2700;-2700;-2800;-2800;-2900;-3000;-3100;-3100;-3200;-3200;-3300;-3300;-3400;-3400;-3500;-3400;-3400;-3500;-3500;-3400;-3400;-3500;-3500;-3400;-3400;-3500;-3400;-3300;-3400;-3500;-3500;-3600;-3600"/>
<animate attributeName="cx" dur="64.68s" keyTimes="0.0;0.0043103448;0.0086206897;0.025862069;0.0301724138;0.0431034483;0.0474137931;0.0560344828;0.0603448276;0.0775862069;0.0818965517;0.0862068966;0.0905172414;0.1034482759;0.1077586207;0.1120689655;0.1163793103;0.1206896552;0.125;0.1293103448;0.1336206897;0.1465517241;0.150862069;0.1551724138;0.1681034483;0.1724137931;0.1767241379;0.1810344828;0.1853448276;0.1896551724;0.2155172414;0.2198275862;0.2284482759;0.2327586207;0.2370689655;0.2413793103;0.2629310345;0.2672413793;0.2715517241;0.275862069;0.2887931034;0.2931034483;0.2974137931;0.3017241379;0.3060344828;0.3103448276;0.3146551724;0.3232758621;0.3275862069;0.3405172414;0.3448275862;0.3534482759;0.3577586207;0.3620689655;0.3663793103;0.3706896552;0.375;0.3793103448;0.3836206897;0.3879310345;0.3922413793;0.400862069;0.4051724138;0.4094827586;0.4137931034;0.4224137931;0.4267241379;0.4310344828;0.4353448276;0.4396551724;0.4439655172;0.4525862069;0.4568965517;0.4612068966;0.474137931;0.4784482759;0.4827586207;0.4870689655;0.4956896552;0.5;0.5043103448;0.5086206897;0.5129310345;0.5474137931;0.5517241379;0.5560344828;0.5646551724;0.5689655172;0.5732758621;0.5775862069;0.5862068966;0.5905172414;0.5948275862;0.6293103448;0.6336206897;0.6379310345;0.6422413793;0.6551724138;0.6594827586;0.6637931034;0.6681034483;0.6724137931;0.6767241379;0.6810344828;0.6853448276;0.6896551724;0.6939655172;0.6982758621;0.7025862069;0.7068965517;0.7112068966;0.7456896552;0.75;0.7629310345;0.7672413793;0.7715517241;0.775862069;0.7844827586;0.7887931034;0.7931034483;0.7974137931;0.8017241379;0.8060344828;0.8103448276;0.8146551724;0.8189655172;0.8232758621;0.8275862069;0.8534482759;0.8577586207;0.8620689655;0.8663793103;0.875;0.8793103448;0.8836206897;0.900862069;0.9051724138;0.9094827586;0.9137931034;0.9181034483;0.9224137931;0.9267241379;0.9353448276;0.9396551724;0.9439655172;0.9482758621;0.9698275862;0.974137931;0.9784482759;0.9827586207;0.9913793103;0.9956896552;1.0" repeatCount="indefinite" values="3000;3000;3100;3100;3000;3000;2900;2900;3000;3000;3100;3000;2900;2900;2800;2900;2800;2900;2900;2800;2700;2700;2600;2700;2700;2600;2700;2700;2800;2700;2700;2800;2800;2900;2900;2800;2800;2900;2900;3000;3000;3100;3000;3000;2900;2900;2800;2800;2700;2700;2600;2600;2500;2600;2600;2700;2600;2600;2500;2500;2400;2400;2500;2500;2400;2400;2500;2500;2600;2700;2800;2800;2700;2800;2800;2700;2700;2600;2600;2700;2600;2600;2700;2700;2800;2900;2900;3000;3100;3200;3200;3100;3000;3000;2900;2900;3000;3000;2900;3000;3000;3100;3100;3200;3200;3300;3400;3500;3500;3400;3500;3500;3400;3400;3500;3600;3500;3500;3400;3400;3300;3300;3400;3300;3300;3200;3300;3400;3400;3500;3500;3600;3600;3700;3600;3600;3500;3400;3400;3300;3300;3200;3200;3300;3300;3400;3400;3300;3200;3300;3300;3200;3200"/>
<animate attributeName="visibility" dur="64.68s" keyTimes="0.0;0.0043103448;1.0" repeatCount="indefinite" values="visible;visible;visible"/> </circle>
<circle cx="3500" cy="-3000" fill="none" r="35" stroke="#c1433c" stroke-width="10"> <animate attributeName="cy" dur="64.68s" keyTimes="0.0;0.0043103448;0.1120689655;0.1163793103;0.2025862069;0.2068965517;0.2974137931;0.3017241379;0.5129310345;0.5172413793;0.7112068966;0.7155172414;0.7198275862;0.724137931;0.8534482759;0.8577586207;0.9784482759;0.9827586207;1.0" repeatCount="indefinite" values="-3000;-3000;-3000;-2000;-2000;-900;-900;-3600;-3600;-1000;-1000;-1100;-1100;-2900;-2900;-1700;-1700;-3200;-3200"/>
<animate attributeName="cx" dur="64.68s" keyTimes="0.0;0.0043103448;0.1120689655;0.1163793103;0.2025862069;0.2068965517;0.2974137931;0.3017241379;0.5129310345;0.5172413793;0.7112068966;0.7155172414;0.7198275862;0.724137931;0.8534482759;0.8577586207;0.9784482759;0.9827586207;1.0" repeatCount="indefinite" values="3500;3500;3500;2400;2400;1300;1300;3600;3600;1600;1600;1500;1500;2800;2800;1100;1100;1000;1000"/>
<animate attributeName="visibility" dur="64.68s" keyTimes="0.0;0.0043103448;1.0" repeatCount="indefinite" values="visible;visible;visible"/> </circle>
<circle cx="2600" cy="-2600" fill="none" r="35" stroke="#2e6f9e" stroke-width="10"> <animate attributeName="cy" dur="64.68s" keyTimes="0.0;0.0043103448;0.1465517241;0.150862069;1.0" repeatCount="indefinite" values="-2600;-2600;-2600;-2400;-2400"/>
<animate attributeName="cx" dur="64.68s" keyTimes="0.0;0.0043103448;0.1465517241;0.150862069;1.0" repeatCount="indefinite" values="2600;2600;2600;1200;1200"/>
<animate attributeName="visibility" dur="64.68s" keyTimes="0.0;0.0043103448;1.0" repeatCount="indefinite" values="visible;visible;visible"/> </circle>
</svg>