<?xml version="1.0" encoding="UTF-8"?>
        <svg xmlns="http://www.w3.org/2000/svg" xmlns:xlink="http://www.w3.org/1999/xlink"
             width="430" height="430" viewBox="0 -4300 4300 4300">

<defs>

</defs>

<rect fill="#84A1AE" height="70" rx="15" width="70" x="465" y="-535" />
<rect fill="#84A1AE" height="70" rx="15" width="70" x="465" y="-635" />
<rect fill="#84A1AE" height="70" rx="15" width="70" x="465" y="-735" />
<rect fill="#84A1AE" height="70" rx="15" width="70" x="465" y="-835" />
<rect fill="#84A1AE" height="70" rx="15" width="70" x="465" y="-935" />
<rect fill="#84A1AE" height="70" rx="15" width="70" x="465" y="-1035" />
<rect fill="#84A1AE" height="70" rx="15" width="70" x="465" y="-1135" />
<rect fill="#84A1AE" height="70" rx="15" width="70" x="465" y="-1235" />
<rect fill="#84A1AE" height="70" rx="15" width="70" x="465" y="-1335" />
<rect fill="#84A1AE" height="70" rx="15" width="70" x="465" y="-1435" />
<rect fill="#84A1AE" height="70" rx="15" width="70" x="465" y="-1535" />
<rect fill="#84A1AE" height="70" rx="15" width="70" x="465" y="-1635" />
<rect fill="#84A1AE" height="70" rx="15" width="70" x="465" y="-1735" />
<rect fill="#84A1AE" height="70" rx="15" width="70" x="465" y="-1835" />
<rect fill="#84A1AE" height="70" rx="15" width="70" x="465" y="-1935" />
<rect fill="#84A1AE" height="70" rx="15" width="70" x="465" y="-2035" />
<rect fill="#84A1AE" height="70" rx="15" width="70" x="465" y="-2135" />
<rect fill="#84A1AE" height="70" rx="15" width="70" x="465" y="-2235" />
<rect fill="#84A1AE" height="70" rx="15" width="70" x="465" y="-2335" />
<rect fill="#84A1AE" height="70" rx="15" width="70" x="465" y="-2435" />
<rect fill="#84A1AE" height="70" rx="15" width="70" x="465" y="-2535" />
<rect fill="#84A1AE" height="70" rx="15" width="70" x="465" y="-2635" />
<rect fill="#84A1AE" height="70" rx="15" width="70" x="465" y="-2735" />
<rect fill="#84A1AE" height="70" rx="15" width="70" x="465" y="-2835" />
<rect fill="#84A1AE" height="70" rx="15" width="70" x="465" y="-2935" />
<rect fill="#84A1AE" height="70" rx="15" width="70" x="465" y="-3035" />
<rect fill="#84A1AE" height="70" rx="15" width="70" x="465" y="-3135" />
<rect fill="#84A1AE" height="70" rx="15" width="70" x="465" y="-3235" />
<rect fill="#84A1AE" height="70" rx="15" width="70" x="465" y="-3335" />
<rect fill="#84A1AE" height="70" rx="15" width="70" x="465" y="-3435" />
<rect fill="#84A1AE" height="70" rx="15" width="70" x="465" y="-3535" />
<rect fill="#84A1AE" height="70" rx="15" width="70" x="465" y="-3635" />
<rect fill="#84A1AE" height="70" rx="15" width="70" x="465" y="-3735" />
<rect fill="#84A1AE" height="70" rx="15" width="70" x="465" y="-3835" />
<rect fill="#84A1AE" height="70" rx="15" width="70" x="565" y="-535" />
<rect fill="#84A1AE" height="70" rx="15" width="70" x="565" y="-1635" />
<rect fill="#84A1AE" height="70" rx="15" width="70" x="565" y="-1935" />
<rect fill="#84A1AE" height="70" rx="15" width="70" x="565" y="-2735" />
<rect fill="#84A1AE" height="70" rx="15" width="70" x="565" y="-3835" />
<rect fill="#84A1AE" height="70" rx="15" width="70" x="665" y="-535" />
<rect fill="#84A1AE" height="70" rx="15" width="70" x="665" y="-1035" />
<rect fill="#84A1AE" height="70" rx="15" width="70" x="665" y="-2535" />
<rect fill="#84A1AE" height="70" rx="15" width="70" x="665" y="-3035" />
<rect fill="#84A1AE" height="70" rx="15" width="70" x="665" y="-3235" />
<rect fill="#84A1AE" height="70" rx="15" width="70" x="665" y="-3835" />
<rect fill="#84A1AE" height="70" rx="15" width="70" x="765" y="-535" />
<rect fill="#84A1AE" height="70" rx="15" width="70" x="765" y="-635" />
<rect fill="#84A1AE" height="70" rx="15" width="70" x="765" y="-3835" />
<rect fill="#84A1AE" height="70" rx="15" width="70" x="865" y="-535" />
<rect fill="#84A1AE" height="70" rx="15" width="70" x="865" y="-2435" />
<rect fill="#84A1AE" height="70" rx="15" width="70" x="865" y="-2535" />
<rect fill="#84A1AE" height="70" rx="15" width="70" x="865" y="-3335" />
<rect fill="#84A1AE" height="70" rx="15" width="70" x="865" y="-3435" />
<rect fill="#84A1AE" height="70" rx="15" width="70" x="865" y="-3835" />
<rect fill="#84A1AE" height="70" rx="15" width="70" x="965" y="-535" />
<rect fill="#84A1AE" height="70" rx="15" width="70" x="965" y="-735" />
<rect fill="#84A1AE" height="70" rx="15" width="70" x="965" y="-1635" />
<rect fill="#84A1AE" height="70" rx="15" width="70" x="965" y="-1835" />
<rect fill="#84A1AE" height="70" rx="15" width="70" x="965" y="-2835" />
<rect fill="#84A1AE" height="70" rx="15" width="70" x="965" y="-3435" />
<rect fill="#84A1AE" height="70" rx="15" width="70" x="965" y="-3835" />
<rect fill="#84A1AE" height="70" rx="15" width="70" x="1065" y="-535" />
<rect fill="#84A1AE" height="70" rx="15" width="70" x="1065" y="-1135" />
<rect fill="#84A1AE" height="70" rx="15" width="70" x="1065" y="-1835" />
<rect fill="#84A1AE" height="70" rx="15" width="70" x="1065" y="-3735" />
<rect fill="#84A1AE" height="70" rx="15" width="70" x="1065" y="-3835" />
<rect fill="#84A1AE" height="70" rx="15" width="70" x="1165" y="-535" />
<rect fill="#84A1AE" height="70" rx="15" width="70" x="1165" y="-635" />
<rect fill="#84A1AE" height="70" rx="15" width="70" x="1165" y="-735" />
<rect fill="#84A1AE" height="70" rx="15" width="70" x="1165" y="-1535" />
<rect fill="#84A1AE" height="70" rx="15" width="70" x="1165" y="-3835" />
<rect fill="#84A1AE" height="70" rx="15" width="70" x="1265" y="-535" />
<rect fill="#84A1AE" height="70" rx="15" width="70" x="1265" y="-2835" />
<rect fill="#84A1AE" height="70" rx="15" width="70" x="1265" y="-3435" />
<rect fill="#84A1AE" height="70" rx="15" width="70" x="1265" y="-3835" />
<rect fill="#84A1AE" height="70" rx="15" width="70" x="1365" y="-535" />
<rect fill="#84A1AE" height="70" rx="15" width="70" x="1365" y="-835" />
<rect fill="#84A1AE" height="70" rx="15" width="70" x="1365" y="-935" />
<rect fill="#84A1AE" height="70" rx="15" width="70" x="1365" y="-1035" />
<rect fill="#84A1AE" height="70" rx="15" width="70" x="1365" y="-1935" />
<rect fill="#84A1AE" height="70" rx="15" width="70" x="1365" y="-2335" />
<rect fill="#84A1AE" height="70" rx="15" width="70" x="1365" y="-2635" />
<rect fill="#84A1AE" height="70" rx="15" width="70" x="1365" y="-2835" />
<rect fill="#84A1AE" height="70" rx="15" width="70" x="1365" y="-2935" />
<rect fill="#84A1AE" height="70" rx="15" width="70" x="1365" y="-3035" />
<rect fill="#84A1AE" height="70" rx="15" width="70" x="1365" y="-3335" />
<rect fill="#84A1AE" height="70" rx="15" width="70" x="1365" y="-3835" />
<rect fill="#84A1AE" height="70" rx="15" width="70" x="1465" y="-535" />
<rect fill="#84A1AE" height="70" rx="15" width="70" x="1465" y="-1235" />
<rect fill="#84A1AE" height="70" rx="15" width="70" x="1465" y="-1535" />
<rect fill="#84A1AE" height="70" rx="15" width="70" x="1465" y="-2035" />
<rect fill="#84A1AE" height="70" rx="15" width="70" x="1465" y="-3135" />
<rect fill="#84A1AE" height="70" rx="15" width="70" x="1465" y="-3235" />
<rect fill="#84A1AE" height="70" rx="15" width="70" x="1465" y="-3835" />
<rect fill="#84A1AE" height="70" rx="15" width="70" x="1565" y="-535" />
<rect fill="#84A1AE" height="70" rx="15" width="70" x="1565" y="-3035" />
<rect fill="#84A1AE" height="70" rx="15" width="70" x="1565" y="-3835" />
<rect fill="#84A1AE" height="70" rx="15" width="70" x="1665" y="-535" />
<rect fill="#84A1AE" height="70" rx="15" width="70" x="1665" y="-3735" />
<rect fill="#84A1AE" height="70" rx="15" width="70" x="1665" y="-3835" />
<rect fill="#84A1AE" height="70" rx="15" width="70" x="1765" y="-535" />
<rect fill="#84A1AE" height="70" rx="15" width="70" x="1765" y="-1235" />
<rect fill="#84A1AE" height="70" rx="15" width="70" x="1765" y="-3835" />
<rect fill="#84A1AE" height="70" rx="15" width="70" x="1865" y="-535" />
<rect fill="#84A1AE" height="70" rx="15" width="70" x="1865" y="-735" />
<rect fill="#84A1AE" height="70" rx="15" width="70" x="1865" y="-1335" />
<rect fill="#84A1AE" height="70" rx="15" width="70" x="1865" y="-3235" />
<rect fill="#84A1AE" height="70" rx="15" width="70" x="1865" y="-3435" />
<rect fill="#84A1AE" height="70" rx="15" width="70" x="1865" y="-3835" />
<rect fill="#84A1AE" height="70" rx="15" width="70" x="1965" y="-535" />
<rect fill="#84A1AE" height="70" rx="15" width="70" x="1965" y="-635" />
<rect fill="#84A1AE" height="70" rx="15" width="70" x="1965" y="-1835" />
<rect fill="#84A1AE" height="70" rx="15" width="70" x="1965" y="-1935" />
<rect fill="#84A1AE" height="70" rx="15" width="70" x="1965" y="-2135" />
<rect fill="#84A1AE" height="70" rx="15" width="70" x="1965" y="-2335" />
<rect fill="#84A1AE" height="70" rx="15" width="70" x="1965" y="-2435" />
<rect fill="#84A1AE" height="70" rx="15" width="70" x="1965" y="-3335" />
<rect fill="#84A1AE" height="70" rx="15" width="70" x="1965" y="-3835" />
<rect fill="#84A1AE" height="70" rx="15" width="70" x="2065" y="-535" />
<rect fill="#84A1AE" height="70" rx="15" width="70" x="2065" y="-1535" />
<rect fill="#84A1AE" height="70" rx="15" width="70" x="2065" y="-1635" />
<rect fill="#84A1AE" height="70" rx="15" width="70" x="2065" y="-2135" />
<rect fill="#84A1AE" height="70" rx="15" width="70" x="2065" y="-3835" />
<rect fill="#84A1AE" height="70" rx="15" width="70" x="2165" y="-535" />
<rect fill="#84A1AE" height="70" rx="15" width="70" x="2165" y="-935" />
<rect fill="#84A1AE" height="70" rx="15" width="70" x="2165" y="-1335" />
<rect fill="#84A1AE" height="70" rx="15" width="70" x="2165" y="-1835" />
<rect fill="#84A1AE" height="70" rx="15" width="70" x="2165" y="-3835" />
<rect fill="#84A1AE" height="70" rx="15" width="70" x="2265" y="-535" />
<rect fill="#84A1AE" height="70" rx="15" width="70" x="2265" y="-935" />
<rect fill="#84A1AE" height="70" rx="15" width="70" x="2265" y="-1135" />
<rect fill="#84A1AE" height="70" rx="15" width="70" x="2265" y="-2535" />
<rect fill="#84A1AE" height="70" rx="15" width="70" x="2265" y="-3235" />
<rect fill="#84A1AE" height="70" rx="15" width="70" x="2265" y="-3835" />
<rect fill="#84A1AE" height="70" rx="15" width="70" x="2365" y="-535" />
<rect fill="#84A1AE" height="70" rx="15" width="70" x="2365" y="-935" />
<rect fill="#84A1AE" height="70" rx="15" width="70" x="2365" y="-1035" />
<rect fill="#84A1AE" height="70" rx="15" width="70" x="2365" y="-3835" />
<rect fill="#84A1AE" height="70" rx="15" width="70" x="2465" y="-535" />
<rect fill="#84A1AE" height="70" rx="15" width="70" x="2465" y="-935" />
<rect fill="#84A1AE" height="70" rx="15" width="70" x="2465" y="-1535" />
<rect fill="#84A1AE" height="70" rx="15" width="70" x="2465" y="-2335" />
<rect fill="#84A1AE" height="70" rx="15" width="70" x="2465" y="-2735" />
<rect fill="#84A1AE" height="70" rx="15" width="70" x="2465" y="-3835" />
<rect fill="#84A1AE" height="70" rx="15" width="70" x="2565" y="-535" />
<rect fill="#84A1AE" height="70" rx="15" width="70" x="2565" y="-735" />
<rect fill="#84A1AE" height="70" rx="15" width="70" x="2565" y="-2535" />
<rect fill="#84A1AE" height="70" rx="15" width="70" x="2565" y="-3835" />
<rect fill="#84A1AE" height="70" rx="15" width="70" x="2665" y="-535" />
<rect fill="#84A1AE" height="70" rx="15" width="70" x="2665" y="-635" />
<rect fill="#84A1AE" height="70" rx="15" width="70" x="2665" y="-1135" />
<rect fill="#84A1AE" height="70" rx="15" width="70" x="2665" y="-1435" />
<rect fill="#84A1AE" height="70" rx="15" width="70" x="2665" y="-2735" />
<rect fill="#84A1AE" height="70" rx="15" width="70" x="2665" y="-3835" />
<rect fill="#84A1AE" height="70" rx="15" width="70" x="2765" y="-535" />
<rect fill="#84A1AE" height="70" rx="15" width="70" x="2765" y="-1635" />
<rect fill="#84A1AE" height="70" rx="15" width="70" x="2765" y="-1835" />
<rect fill="#84A1AE" height="70" rx="15" width="70" x="2765" y="-1935" />
<rect fill="#84A1AE" height="70" rx="15" width="70" x="2765" y="-2235" />
<rect fill="#84A1AE" height="70" rx="15" width="70" x="2765" y="-3735" />
<rect fill="#84A1AE" height="70" rx="15" width="70" x="2765" y="-3835" />
<rect fill="#84A1AE" height="70" rx="15" width="70" x="2865" y="-535" />
<rect fill="#84A1AE" height="70" rx="15" width="70" x="2865" y="-3835" />
<rect fill="#84A1AE" height="70" rx="15" width="70" x="2965" y="-535" />
<rect fill="#84A1AE" height="70" rx="15" width="70" x="2965" y="-2635" />
<rect fill="#84A1AE" height="70" rx="15" width="70" x="2965" y="-3835" />
<rect fill="#84A1AE" height="70" rx="15" width="70" x="3065" y="-535" />
<rect fill="#84A1AE" height="70" rx="15" width="70" x="3065" y="-735" />
<rect fill="#84A1AE" height="70" rx="15" width="70" x="3065" y="-2535" />
<rect fill="#84A1AE" height="70" rx="15" width="70" x="3065" y="-3835" />
<rect fill="#84A1AE" height="70" rx="15" width="70" x="3165" y="-535" />
<rect fill="#84A1AE" height="70" rx="15" width="70" x="3165" y="-835" />
<rect fill="#84A1AE" height="70" rx="15" width="70" x="3165" y="-1935" />
<rect fill="#84A1AE" height="70" rx="15" width="70" x="3165" y="-2735" />
<rect fill="#84A1AE" height="70" rx="15" width="70" x="3165" y="-3135" />
<rect fill="#84A1AE" height="70" rx="15" width="70" x="3165" y="-3835" />
<rect fill="#84A1AE" height="70" rx="15" width="70" x="3265" y="-535" />
<rect fill="#84A1AE" height="70" rx="15" width="70" x="3265" y="-1035" />
<rect fill="#84A1AE" height="70" rx="15" width="70" x="3265" y="-1735" />
<rect fill="#84A1AE" height="70" rx="15" width="70" x="3265" y="-3835" />
<rect fill="#84A1AE" height="70" rx="15" width="70" x="3365" y="-535" />
<rect fill="#84A1AE" height="70" rx="15" width="70" x="3365" y="-1435" />
<rect fill="#84A1AE" height="70" rx="15" width="70" x="3365" y="-1935" />
<rect fill="#84A1AE" height="70" rx="15" width="70" x="3365" y="-2135" />
<rect fill="#84A1AE" height="70" rx="15" width="70" x="3365" y="-3835" />
<rect fill="#84A1AE" height="70" rx="15" width="70" x="3465" y="-535" />
<rect fill="#84A1AE" height="70" rx="15" width="70" x="3465" y="-2635" />
<rect fill="#84A1AE" height="70" rx="15" width="70" x="3465" y="-3835" />
<rect fill="#84A1AE" height="70" rx="15" width="70" x="3565" y="-535" />
<rect fill="#84A1AE" height="70" rx="15" width="70" x="3565" y="-635" />
<rect fill="#84A1AE" height="70" rx="15" width="70" x="3565" y="-2435" />
<rect fill="#84A1AE" height="70" rx="15" width="70" x="3565" y="-3235" />
<rect fill="#84A1AE" height="70" rx="15" width="70" x="3565" y="-3835" />
<rect fill="#84A1AE" height="70" rx="15" width="70" x="3665" y="-535" />
<rect fill="#84A1AE" height="70" rx="15" width="70" x="3665" y="-2135" />
<rect fill="#84A1AE" height="70" rx="15" width="70" x="3665" y="-2835" />
<rect fill="#84A1AE" height="70" rx="15" width="70" x="3665" y="-3135" />
<rect fill="#84A1AE" height="70" rx="15" width="70" x="3665" y="-3735" />
<rect fill="#84A1AE" height="70" rx="15" width="70" x="3665" y="-3835" />
<rect fill="#84A1AE" height="70" rx="15" width="70" x="3765" y="-535" />
<rect fill="#84A1AE" height="70" rx="15" width="70" x="3765" y="-635" />
<rect fill="#84A1AE" height="70" rx="15" width="70" x="3765" y="-735" />
<rect fill="#84A1AE" height="70" rx="15" width="70" x="3765" y="-835" />
<rect fill="#84A1AE" height="70" rx="15" width="70" x="3765" y="-935" />
<rect fill="#84A1AE" height="70" rx="15" width="70" x="3765" y="-1035" />
<rect fill="#84A1AE" height="70" rx="15" width="70" x="3765" y="-1135" />
<rect fill="#84A1AE" height="70" rx="15" width="70" x="3765" y="-1235" />
<rect fill="#84A1AE" height="70" rx="15" width="70" x="3765" y="-1335" />
<rect fill="#84A1AE" height="70" rx="15" width="70" x="3765" y="-1435" />
<rect fill="#84A1AE" height="70" rx="15" width="70" x="3765" y="-1535" />
<rect fill="#84A1AE" height="70" rx="15" width="70" x="3765" y="-1635" />
<rect fill="#84A1AE" height="70" rx="15" width="70" x="3765" y="-1735" />
<rect fill="#84A1AE" height="70" rx="15" width="70" x="3765" y="-1835" />
<rect fill="#84A1AE" height="70" rx="15" width="70" x="3765" y="-1935" />
<rect fill="#84A1AE" height="70" rx="15" width="70" x="3765" y="-2035" />
<rect fill="#84A1AE" height="70" rx="15" width="70" x="3765" y="-2135" />
<rect fill="#84A1AE" height="70" rx="15" width="70" x="3765" y="-2235" />
<rect fill="#84A1AE" height="70" rx="15" width="70" x="3765" y="-2335" />
<rect fill="#84A1AE" height="70" rx="15" width="70" x="3765" y="-2435" />
<rect fill="#84A1AE" height="70" rx="15" width="70" x="3765" y="-2535" />
<rect fill="#84A1AE" height="70" rx="15" width="70" x="3765" y="-2635" />
<rect fill="#84A1AE" height="70" rx="15" width="70" x="3765" y="-2735" />
<rect fill="#84A1AE" height="70" rx="15" width="70" x="3765" y="-2835" />
<rect fill="#84A1AE" height="70" rx="15" width="70" x="3765" y="-2935" />
<rect fill="#84A1AE" height="70" rx="15" width="70" x="3765" y="-3035" />
<rect fill="#84A1AE" height="70" rx="15" width="70" x="3765" y="-3135" />
<rect fill="#84A1AE" height="70" rx="15" width="70" x="3765" y="-3235" />
<rect fill="#84A1AE" height="70" rx="15" width="70" x="3765" y="-3335" />
<rect fill="#84A1AE" height="70" rx="15" width="70" x="3765" y="-3435" />
<rect fill="#84A1AE" height="70" rx="15" width="70" x="3765" y="-3535" />
<rect fill="#84A1AE" height="70" rx="15" width="70" x="3765" y="-3635" />
<rect fill="#84A1AE" height="70" rx="15" width="70" x="3765" y="-3735" />
<rect fill="#84A1AE" height="70" rx="15" width="70" x="3765" y="-3835" />
<circle cx="2500" cy="-1400" fill="#c1433c" r="35"> <animate attributeName="cy" dur="154.28s" keyTimes="0.0;0.0018115942;0.0036231884;0.0054347826;0.0072463768;0.009057971;0.0108695652;0.0126811594;0.0144927536;0.0163043478;0.018115942;0.0199275362;0.0217391304;0.0235507246;0.0253623188;0.027173913;0.0289855072;0.0307971014;0.0326086957;0.0344202899;0.0362318841;0.0815217391;0.0833333333;0.0869565217;0.0887681159;0.0905797101;0.1032608696;0.1050724638;0.106884058;0.1086956522;0.1123188406;0.1141304348;0.115942029;0.125;0.1268115942;0.1467391304;0.1485507246;0.1612318841;0.1630434783;0.1648550725;0.1666666667;0.1721014493;0.1739130435;0.1974637681;0.1992753623;0.2047101449;0.2065217391;0.2083333333;0.2101449275;0.2119565217;0.2137681159;0.2155797101;0.2173913043;0.2192028986;0.2210144928;0.222826087;0.2246376812;0.2264492754;0.2282608696;0.2300724638;0.231884058;0.2336956522;0.2355072464;0.2373188406;0.2391304348;0.240942029;0.2427536232;0.2445652174;0.2463768116;0.2481884058;0.25;0.2518115942;0.2536231884;0.2554347826;0.2572463768;0.259057971;0.2608695652;0.2626811594;0.2644927536;0.2663043478;0.268115942;0.2699275362;0.2717391304;0.2753623188;0.277173913;0.2789855072;0.2826086957;0.2844202899;0.2862318841;0.2880434783;0.2898550725;0.2916666667;0.2934782609;0.3423913043;0.3442028986;0.3460144928;0.347826087;0.3496376812;0.3514492754;0.3532608696;0.3550724638;0.356884058;0.3586956522;0.3605072464;0.3623188406;0.3641304348;0.365942029;0.3677536232;0.3695652174;0.3713768116;0.3731884058;0.375;0.3768115942;0.3786231884;0.3804347826;0.3822463768;0.384057971;0.3949275362;0.3967391304;0.4057971014;0.4076086957;0.4130434783;0.4148550725;0.4184782609;0.4202898551;0.4275362319;0.4293478261;0.4402173913;0.4420289855;0.4492753623;0.4510869565;0.4528985507;0.4583333333;0.4601449275;0.4619565217;0.4655797101;0.4673913043;0.4692028986;0.4710144928;0.472826087;0.4746376812;0.4764492754;0.4782608696;0.4927536232;0.4945652174;0.4963768116;0.5;0.5018115942;0.5036231884;0.5054347826;0.5072463768;0.509057971;0.5108695652;0.5126811594;0.5144927536;0.5163043478;0.5235507246;0.5253623188;0.527173913;0.5289855072;0.5307971014;0.5326086957;0.5344202899;0.5362318841;0.5380434783;0.5398550725;0.5416666667;0.5434782609;0.5452898551;0.5471014493;0.5489130435;0.5507246377;0.5525362319;0.5579710145;0.5597826087;0.5615942029;0.5670289855;0.5688405797;0.5706521739;0.5724637681;0.5742753623;0.5815217391;0.5833333333;0.5851449275;0.5869565217;0.5887681159;0.5960144928;0.597826087;0.6014492754;0.6032608696;0.6050724638;0.606884058;0.6086956522;0.6105072464;0.6123188406;0.6141304348;0.615942029;0.6177536232;0.6195652174;0.6213768116;0.6231884058;0.6358695652;0.6376811594;0.6576086957;0.6594202899;0.6630434783;0.6648550725;0.6666666667;0.6684782609;0.6702898551;0.6721014493;0.6739130435;0.6757246377;0.6775362319;0.6793478261;0.6811594203;0.6829710145;0.6847826087;0.6865942029;0.6884057971;0.6902173913;0.6920289855;0.6938405797;0.6956521739;0.6974637681;0.6992753623;0.7028985507;0.7047101449;0.7065217391;0.7101449275;0.7119565217;0.7445652174;0.7463768116;0.7481884058;0.75;0.7518115942;0.7536231884;0.7554347826;0.7572463768;0.759057971;0.7717391304;0.7735507246;0.8152173913;0.8170289855;0.8188405797;0.8206521739;0.8405797101;0.8423913043;0.8641304348;0.865942029;0.8677536232;0.8695652174;0.8713768116;0.8731884058;0.875;0.8768115942;0.8786231884;0.8804347826;0.8822463768;0.884057971;0.8858695652;0.8876811594;0.8894927536;0.8913043478;0.893115942;0.8949275362;0.8967391304;0.8985507246;0.9057971014;0.9076086957;0.9094202899;0.9112318841;0.9130434783;0.9166666667;0.9184782609;0.9202898551;0.9221014493;0.9239130435;0.9293478261;0.9311594203;0.9329710145;0.9347826087;0.9365942029;0.9384057971;0.9402173913;0.9420289855;0.9438405797;0.9456521739;0.9474637681;0.9492753623;0.9510869565;0.9528985507;0.9547101449;0.9565217391;0.9583333333;0.9601449275;0.9619565217;0.9637681159;0.9655797101;0.9673913043;0.9692028986;0.9710144928;0.972826087;0.9746376812;0.9764492754;0.9782608696;0.9800724638;0.981884058;0.9836956522;1.0" repeatCount="indefinite" values="-1400;-1400;-1400;-1500;-1600;-1700;-1800;-1900;-2000;-2100;-2200;-2300;-2400;-2400;-2500;-2600;-2600;-2700;-2800;-2900;-3000;-3000;-2900;-2900;-2800;-2700;-2700;-2600;-2500;-2400;-2400;-2500;-2600;-2600;-2700;-2700;-2800;-2800;-2700;-2600;-2700;-2700;-2600;-2600;-2500;-2500;-2400;-2300;-2200;-2100;-2000;-1900;-1800;-1700;-1600;-1600;-1500;-1400;-1300;-1300;-1200;-1100;-1000;-900;-1000;-1100;-1200;-1300;-1400;-1400;-1500;-1600;-1700;-1800;-1900;-2000;-2100;-2200;-2300;-2400;-2500;-2600;-2700;-2700;-2800;-2900;-2900;-3000;-3100;-3200;-3300;-3400;-3500;-3500;-3400;-3300;-3200;-3100;-3000;-2900;-2800;-2700;-2600;-2500;-2400;-2300;-2200;-2100;-2000;-2000;-1900;-1800;-1700;-1700;-1600;-1500;-1400;-1400;-1500;-1500;-1400;-1400;-1500;-1500;-1600;-1600;-1700;-1700;-1800;-1800;-1900;-2000;-2000;-2100;-2200;-2200;-2300;-2300;-2400;-2500;-2600;-2600;-2700;-2700;-2800;-2900;-2900;-3000;-3100;-3200;-3200;-3300;-3300;-3400;-3400;-3500;-3500;-3600;-3700;-3600;-3600;-3500;-3400;-3300;-3200;-3100;-3000;-2900;-2800;-2800;-2700;-2600;-2500;-2500;-2400;-2300;-2300;-2200;-2100;-2100;-2000;-2000;-1900;-1800;-1700;-1600;-1600;-1500;-1500;-1400;-1300;-1300;-1200;-1100;-1100;-1000;-1000;-900;-900;-800;-900;-900;-800;-800;-700;-700;-800;-900;-1000;-1100;-1200;-1300;-1400;-1500;-1600;-1700;-1800;-1900;-2000;-2100;-2200;-2300;-2400;-2500;-2600;-2700;-2700;-2800;-2900;-2900;-3000;-3000;-3100;-3200;-3200;-3300;-3300;-3400;-3400;-3500;-3500;-3600;-3600;-3500;-3500;-3400;-3400;-3500;-3500;-3400;-3300;-3200;-3100;-3000;-2900;-2800;-2700;-2600;-2500;-2400;-2300;-2200;-2200;-2100;-2000;-1900;-1800;-1700;-1700;-1600;-1500;-1500;-1400;-1400;-1300;-1200;-1200;-1100;-1100;-1000;-900;-1000;-1100;-1100;-1200;-1200;-1300;-1400;-1500;-1600;-1700;-1700;-1800;-1900;-2000;-2000;-2100;-2200;-2300;-2400;-2500;-2600;-2700;-2800;-2900;-3000;-3100;-3200;-3300;-3300"/>
<animate attributeName="cx" dur="154.28s" keyTimes="0.0;0.0018115942;0.0036231884;0.0217391304;0.0235507246;0.027173913;0.0289855072;0.0362318841;0.0380434783;0.0398550725;0.0416666667;0.0434782609;0.0452898551;0.0471014493;0.0489130435;0.0507246377;0.0525362319;0.0543478261;0.0561594203;0.0579710145;0.0597826087;0.0615942029;0.0634057971;0.0652173913;0.0670289855;0.0688405797;0.0706521739;0.0724637681;0.0742753623;0.0760869565;0.0778985507;0.0797101449;0.0815217391;0.0833333333;0.0851449275;0.0869565217;0.0905797101;0.0923913043;0.0942028986;0.0960144928;0.097826087;0.0996376812;0.1014492754;0.1032608696;0.1086956522;0.1105072464;0.1123188406;0.115942029;0.1177536232;0.1195652174;0.1213768116;0.1231884058;0.125;0.1268115942;0.1286231884;0.1304347826;0.1322463768;0.134057971;0.1358695652;0.1376811594;0.1394927536;0.1413043478;0.143115942;0.1449275362;0.1467391304;0.1485507246;0.1503623188;0.152173913;0.1539855072;0.1557971014;0.1576086957;0.1594202899;0.1612318841;0.1666666667;0.1684782609;0.1702898551;0.1721014493;0.1739130435;0.1757246377;0.1775362319;0.1793478261;0.1811594203;0.1829710145;0.1847826087;0.1865942029;0.1884057971;0.1902173913;0.1920289855;0.1938405797;0.1956521739;0.1974637681;0.1992753623;0.2010869565;0.2028985507;0.2047101449;0.2210144928;0.222826087;0.2282608696;0.2300724638;0.2463768116;0.2481884058;0.2717391304;0.2735507246;0.2753623188;0.2789855072;0.2807971014;0.2826086957;0.2934782609;0.2952898551;0.2971014493;0.2989130435;0.3007246377;0.3025362319;0.3043478261;0.3061594203;0.3079710145;0.3097826087;0.3115942029;0.3134057971;0.3152173913;0.3170289855;0.3188405797;0.3206521739;0.3224637681;0.3242753623;0.3260869565;0.3278985507;0.3297101449;0.3315217391;0.3333333333;0.3351449275;0.3369565217;0.3387681159;0.3405797101;0.3423913043;0.3695652174;0.3713768116;0.3768115942;0.3786231884;0.384057971;0.3858695652;0.3876811594;0.3894927536;0.3913043478;0.393115942;0.3949275362;0.3967391304;0.3985507246;0.4003623188;0.402173913;0.4039855072;0.4057971014;0.4076086957;0.4094202899;0.4112318841;0.4130434783;0.4148550725;0.4166666667;0.4184782609;0.4202898551;0.4221014493;0.4239130435;0.4257246377;0.4275362319;0.4293478261;0.4311594203;0.4329710145;0.4347826087;0.4365942029;0.4384057971;0.4402173913;0.4420289855;0.4438405797;0.4456521739;0.4474637681;0.4492753623;0.4528985507;0.4547101449;0.4565217391;0.4583333333;0.4619565217;0.4637681159;0.4655797101;0.4673913043;0.4692028986;0.4746376812;0.4764492754;0.4782608696;0.4800724638;0.481884058;0.4836956522;0.4855072464;0.4873188406;0.4891304348;0.490942029;0.4927536232;0.4963768116;0.4981884058;0.5;0.5054347826;0.5072463768;0.509057971;0.5108695652;0.5126811594;0.5144927536;0.5163043478;0.518115942;0.5199275362;0.5217391304;0.5235507246;0.5289855072;0.5307971014;0.5452898551;0.5471014493;0.5525362319;0.5543478261;0.5561594203;0.5579710145;0.5615942029;0.5634057971;0.5652173913;0.5670289855;0.5706521739;0.5724637681;0.5742753623;0.5760869565;0.5778985507;0.5797101449;0.5815217391;0.5887681159;0.5905797101;0.5923913043;0.5942028986;0.5960144928;0.597826087;0.5996376812;0.6014492754;0.6050724638;0.606884058;0.6105072464;0.6123188406;0.6141304348;0.615942029;0.6177536232;0.6195652174;0.6231884058;0.625;0.6268115942;0.6286231884;0.6304347826;0.6322463768;0.634057971;0.6358695652;0.6376811594;0.6394927536;0.6413043478;0.643115942;0.6449275362;0.6467391304;0.6485507246;0.6503623188;0.652173913;0.6539855072;0.6557971014;0.6576086957;0.6594202899;0.6612318841;0.6630434783;0.6992753623;0.7010869565;0.7028985507;0.7065217391;0.7083333333;0.7101449275;0.7119565217;0.7137681159;0.7155797101;0.7173913043;0.7192028986;0.7210144928;0.722826087;0.7246376812;0.7264492754;0.7282608696;0.7300724638;0.731884058;0.7336956522;0.7355072464;0.7373188406;0.7391304348;0.740942029;0.7427536232;0.7445652174;0.7481884058;0.75;0.7518115942;0.7536231884;0.7554347826;0.7572463768;0.759057971;0.7608695652;0.7626811594;0.7644927536;0.7663043478;0.768115942;0.7699275362;0.7717391304;0.7735507246;0.7753623188;0.777173913;0.7789855072;0.7807971014;0.7826086957;0.7844202899;0.7862318841;0.7880434783;0.7898550725;0.7916666667;0.7934782609;0.7952898551;0.7971014493;0.7989130435;0.8007246377;0.8025362319;0.8043478261;0.8061594203;0.8079710145;0.8097826087;0.8115942029;0.8134057971;0.8152173913;0.8170289855;0.8188405797;0.8206521739;0.8224637681;0.8242753623;0.8260869565;0.8278985507;0.8297101449;0.8315217391;0.8333333333;0.8351449275;0.8369565217;0.8387681159;0.8405797101;0.8423913043;0.8442028986;0.8460144928;0.847826087;0.8496376812;0.8514492754;0.8532608696;0.8550724638;0.856884058;0.8586956522;0.8605072464;0.8623188406;0.8641304348;0.8876811594;0.8894927536;0.8985507246;0.9003623188;0.902173913;0.9039855072;0.9057971014;0.9094202899;0.9112318841;0.9130434783;0.9148550725;0.9166666667;0.9202898551;0.9221014493;0.9239130435;0.9257246377;0.9275362319;0.9293478261;0.9365942029;0.9384057971;0.9402173913;0.9420289855;0.9510869565;0.9528985507;0.9583333333;0.9601449275;0.9836956522;0.9855072464;0.9873188406;0.9891304348;0.990942029;0.9927536232;0.9945652174;0.9963768116;0.9981884058;1.0" repeatCount="indefinite" values="2500;2500;2600;2600;2700;2700;2800;2800;2900;3000;3100;3200;3300;3400;3500;3400;3300;3200;3100;3000;2900;2800;2700;2600;2500;2400;2300;2200;2100;2000;1900;1800;1700;1700;1600;1500;1500;1400;1300;1200;1100;1000;900;800;800;700;800;800;900;1000;1100;1200;1300;1300;1400;1500;1600;1700;1800;1900;2000;2100;2200;2300;2400;2400;2500;2600;2700;2800;2900;3000;3100;3100;3000;2900;2800;2800;2700;2600;2500;2400;2300;2200;2100;2000;1900;1800;1700;1600;1500;1500;1400;1300;1200;1200;1100;1100;1200;1200;1300;1300;1400;1500;1500;1600;1700;1700;1800;1900;2000;2100;2200;2300;2400;2500;2600;2700;2800;2900;3000;3100;3200;3300;3200;3100;3000;2900;2800;2700;2600;2500;2400;2300;2200;2200;2100;2100;2000;2000;2100;2200;2300;2400;2500;2600;2600;2700;2800;2900;3000;3100;3100;3000;2900;2800;2800;2700;2600;2600;2500;2400;2300;2200;2200;2100;2000;1900;1800;1700;1600;1600;1500;1400;1300;1200;1200;1100;1000;900;900;800;700;700;600;600;700;700;800;900;1000;1100;1200;1300;1400;1500;1500;1600;1700;1700;1600;1600;1500;1500;1400;1400;1300;1200;1100;1000;1000;1100;1100;1200;1200;1300;1400;1500;1500;1600;1700;1800;1800;1900;1900;2000;2100;2200;2300;2300;2400;2500;2600;2700;2700;2800;2900;2900;3000;3000;3100;3100;3200;3200;3300;3300;3200;3100;3000;2900;2800;2700;2600;2600;2500;2400;2300;2200;2100;2000;1900;1800;1700;1600;1500;1500;1400;1300;1300;1400;1500;1500;1600;1700;1700;1800;1900;2000;2100;2200;2300;2400;2500;2600;2500;2400;2300;2200;2100;2000;1900;1800;1700;1700;1600;1600;1500;1500;1400;1400;1300;1200;1100;1000;900;800;700;700;800;900;1000;1100;1200;1300;1400;1500;1600;1700;1800;1900;2000;2100;2200;2300;2400;2500;2600;2700;2800;2900;3000;3000;3100;3100;3000;2900;2800;2700;2600;2500;2400;2300;2200;2100;2000;2000;1900;1800;1700;1600;1500;1400;1300;1200;1100;1000;900;800;800;900;900;1000;1100;1200;1300;1300;1400;1400;1500;1600;1600;1700;1700;1800;1900;1800;1800;1900;1900;2000;2000;2100;2100;2200;2200;2300;2400;2500;2600;2700;2800;2900;3000;3000"/>
<animate attributeName="visibility" dur="154.28s" keyTimes="0.0;0.0018115942;1.0" repeatCount="indefinite" values="visible;visible;visible"/> </circle>
<circle cx="3000" cy="-1900" fill="#2e6f9e" r="35"> <animate attributeName="cy" dur="154.28s" keyTimes="0.0;0.0018115942;0.0036231884;0.0054347826;0.0072463768;0.009057971;0.0108695652;0.0126811594;0.0144927536;0.0163043478;0.0253623188;0.027173913;0.0289855072;0.0307971014;0.0326086957;0.0344202899;0.0362318841;0.0380434783;0.0398550725;0.0416666667;0.0434782609;0.0452898551;0.0471014493;0.0489130435;0.0507246377;0.0525362319;0.0543478261;0.0561594203;0.0597826087;0.0615942029;0.0634057971;0.0670289855;0.0688405797;0.0706521739;0.0724637681;0.0742753623;0.0760869565;0.0778985507;0.0797101449;0.0815217391;0.0833333333;0.0851449275;0.0869565217;0.0887681159;0.0905797101;0.0923913043;0.0942028986;0.0960144928;0.097826087;0.0996376812;0.1014492754;0.1032608696;0.1050724638;0.106884058;0.1086956522;0.1105072464;0.1123188406;0.1141304348;0.115942029;0.1177536232;0.1195652174;0.1213768116;0.1467391304;0.1485507246;0.152173913;0.1539855072;0.1557971014;0.1576086957;0.1594202899;0.1757246377;0.1775362319;0.1793478261;0.1811594203;0.1829710145;0.1847826087;0.1865942029;0.1884057971;0.1902173913;0.1920289855;0.1938405797;0.1956521739;0.1974637681;0.1992753623;0.2010869565;0.2028985507;0.2047101449;0.2065217391;0.2083333333;0.2101449275;0.2119565217;0.2137681159;0.2155797101;0.2173913043;0.2192028986;0.2210144928;0.222826087;0.2246376812;0.2264492754;0.2282608696;0.2300724638;0.231884058;0.2336956522;0.2355072464;0.2373188406;0.2391304348;0.240942029;0.2427536232;0.2445652174;0.2463768116;0.2481884058;0.25;0.2518115942;0.2536231884;0.2554347826;0.2572463768;0.259057971;0.2608695652;0.2626811594;0.2663043478;0.268115942;0.2717391304;0.2735507246;0.2753623188;0.277173913;0.2789855072;0.2807971014;0.2826086957;0.2934782609;0.2952898551;0.3097826087;0.3115942029;0.3170289855;0.3188405797;0.3297101449;0.3315217391;0.3369565217;0.3387681159;0.3423913043;0.3442028986;0.3496376812;0.3514492754;0.3532608696;0.3550724638;0.356884058;0.3586956522;0.3605072464;0.3623188406;0.3641304348;0.365942029;0.3677536232;0.3695652174;0.3713768116;0.3731884058;0.3804347826;0.3822463768;0.3858695652;0.3876811594;0.4039855072;0.4057971014;0.4148550725;0.4166666667;0.4184782609;0.4221014493;0.4239130435;0.4293478261;0.4311594203;0.4384057971;0.4402173913;0.4420289855;0.4438405797;0.4456521739;0.4474637681;0.4492753623;0.4510869565;0.4528985507;0.4583333333;0.4601449275;0.4619565217;0.4637681159;0.4655797101;0.4673913043;0.4692028986;0.4710144928;0.472826087;0.4746376812;0.4764492754;0.4782608696;0.4800724638;0.481884058;0.4836956522;0.4855072464;0.4873188406;0.4891304348;0.490942029;0.4927536232;0.5833333333;0.5851449275;0.5869565217;0.5887681159;0.5905797101;0.5923913043;0.5942028986;0.5960144928;0.597826087;0.5996376812;0.615942029;0.6177536232;0.6268115942;0.6286231884;0.6467391304;0.6485507246;0.6648550725;0.6666666667;0.6757246377;0.6775362319;0.6793478261;0.7192028986;0.7210144928;0.722826087;0.7246376812;0.7264492754;0.7282608696;0.731884058;0.7336956522;0.7355072464;0.7373188406;0.7391304348;0.740942029;0.7445652174;0.7463768116;0.7481884058;0.75;0.7608695652;0.7626811594;0.768115942;0.7699275362;0.7789855072;0.7807971014;0.8079710145;0.8097826087;0.8115942029;0.8152173913;0.8170289855;0.8188405797;0.8206521739;0.8224637681;0.8242753623;0.8260869565;0.8297101449;0.8315217391;0.8333333333;0.856884058;0.8586956522;0.8623188406;0.8641304348;0.8786231884;0.8804347826;0.8822463768;0.884057971;0.8858695652;0.893115942;0.8949275362;0.9492753623;0.9510869565;0.9565217391;0.9583333333;0.9601449275;0.9619565217;0.9673913043;0.9692028986;0.9710144928;0.972826087;0.9746376812;0.9800724638;0.981884058;0.9836956522;0.9855072464;0.9873188406;0.9891304348;0.9927536232;0.9945652174;1.0" repeatCount="indefinite" values="-1900;-1900;-2000;-2100;-2200;-2300;-2400;-2400;-2500;-2600;-2600;-2500;-2400;-2400;-2300;-2200;-2100;-2000;-1900;-1800;-1700;-1600;-1500;-1400;-1300;-1200;-1100;-1000;-1000;-1100;-1200;-1200;-1300;-1300;-1400;-1300;-1400;-1500;-1600;-1700;-1700;-1800;-1900;-2000;-2100;-2200;-2300;-2400;-2400;-2500;-2500;-2600;-2700;-2800;-2900;-3000;-3100;-3200;-3300;-3400;-3500;-3600;-3600;-3700;-3700;-3600;-3500;-3500;-3600;-3600;-3500;-3400;-3400;-3300;-3200;-3100;-3000;-2900;-2800;-2700;-2600;-2500;-2500;-2400;-2400;-2300;-2200;-2100;-2000;-1900;-1800;-1700;-1600;-1500;-1400;-1300;-1400;-1500;-1600;-1700;-1700;-1800;-1900;-2000;-2000;-2100;-2200;-2200;-2300;-2400;-2500;-2500;-2600;-2600;-2700;-2800;-2900;-3000;-3000;-3100;-3100;-3200;-3300;-3400;-3500;-3600;-3700;-3700;-3600;-3600;-3500;-3500;-3600;-3600;-3500;-3500;-3400;-3400;-3500;-3500;-3400;-3300;-3300;-3200;-3100;-3000;-3100;-3100;-3000;-2900;-2900;-2800;-2700;-2700;-2800;-2800;-2700;-2700;-2600;-2600;-2500;-2400;-2400;-2300;-2300;-2200;-2200;-2100;-2000;-2000;-1900;-1800;-1800;-1900;-1800;-1800;-1900;-2000;-2100;-2200;-2300;-2400;-2500;-2600;-2700;-2800;-2800;-2900;-3000;-3100;-3100;-3200;-3300;-3400;-3500;-3500;-3400;-3300;-3300;-3200;-3100;-3000;-2900;-2800;-2700;-2700;-2800;-2800;-2700;-2700;-2800;-2800;-2700;-2700;-2600;-2500;-2500;-2600;-2600;-2500;-2500;-2400;-2400;-2300;-2200;-2100;-2000;-2100;-2100;-2200;-2300;-2400;-2400;-2300;-2300;-2400;-2400;-2500;-2500;-2400;-2300;-2300;-2200;-2100;-2000;-2100;-2200;-2300;-2300;-2400;-2500;-2500;-2600;-2600;-2700;-2700;-2800;-2900;-3000;-2900;-2900;-2800;-2800;-2700;-2700;-2800;-2800;-2900;-2900;-3000;-3100;-3200;-3100;-3100;-3000;-2900;-2800;-2900;-2800;-2800;-2700;-2700"/>
<animate attributeName="cx" dur="154.28s" keyTimes="0.0;0.0018115942;0.0108695652;0.0126811594;0.018115942;0.0199275362;0.0217391304;0.0235507246;0.0253623188;0.0289855072;0.0307971014;0.0561594203;0.0579710145;0.0597826087;0.0652173913;0.0670289855;0.0688405797;0.0706521739;0.0960144928;0.097826087;0.0996376812;0.1014492754;0.1213768116;0.1231884058;0.125;0.1268115942;0.1286231884;0.1304347826;0.1322463768;0.134057971;0.1358695652;0.1376811594;0.1394927536;0.1413043478;0.143115942;0.1449275362;0.1467391304;0.1485507246;0.1503623188;0.1557971014;0.1576086957;0.1594202899;0.1612318841;0.1630434783;0.1648550725;0.1666666667;0.1684782609;0.1702898551;0.1721014493;0.1739130435;0.1757246377;0.1793478261;0.1811594203;0.1974637681;0.1992753623;0.2010869565;0.2028985507;0.2373188406;0.2391304348;0.2427536232;0.2445652174;0.25;0.2518115942;0.2536231884;0.2554347826;0.2626811594;0.2644927536;0.2663043478;0.268115942;0.2699275362;0.2717391304;0.2826086957;0.2844202899;0.2862318841;0.2880434783;0.2898550725;0.2916666667;0.2934782609;0.2952898551;0.2971014493;0.2989130435;0.3007246377;0.3025362319;0.3043478261;0.3061594203;0.3079710145;0.3097826087;0.3115942029;0.3134057971;0.3152173913;0.3170289855;0.3188405797;0.3206521739;0.3224637681;0.3242753623;0.3260869565;0.3278985507;0.3297101449;0.3315217391;0.3333333333;0.3351449275;0.3369565217;0.3387681159;0.3405797101;0.3442028986;0.3460144928;0.347826087;0.3496376812;0.3623188406;0.3641304348;0.3677536232;0.3695652174;0.3731884058;0.375;0.3768115942;0.3786231884;0.3804347826;0.3822463768;0.384057971;0.3858695652;0.3876811594;0.3894927536;0.3913043478;0.393115942;0.3949275362;0.3967391304;0.3985507246;0.4003623188;0.402173913;0.4039855072;0.4057971014;0.4076086957;0.4094202899;0.4112318841;0.4130434783;0.4148550725;0.4184782609;0.4202898551;0.4221014493;0.4239130435;0.4257246377;0.4275362319;0.4293478261;0.4311594203;0.4329710145;0.4347826087;0.4365942029;0.4384057971;0.4420289855;0.4438405797;0.4547101449;0.4565217391;0.4583333333;0.4764492754;0.4782608696;0.4836956522;0.4855072464;0.4927536232;0.4945652174;0.4963768116;0.4981884058;0.5;0.5018115942;0.5036231884;0.5054347826;0.5072463768;0.509057971;0.5108695652;0.5126811594;0.5144927536;0.5163043478;0.518115942;0.5199275362;0.5217391304;0.5235507246;0.5253623188;0.527173913;0.5289855072;0.5307971014;0.5326086957;0.5344202899;0.5362318841;0.5380434783;0.5398550725;0.5416666667;0.5434782609;0.5452898551;0.5471014493;0.5489130435;0.5507246377;0.5525362319;0.5543478261;0.5561594203;0.5579710145;0.5597826087;0.5615942029;0.5634057971;0.5652173913;0.5670289855;0.5688405797;0.5706521739;0.5724637681;0.5742753623;0.5760869565;0.5778985507;0.5797101449;0.5815217391;0.5833333333;0.5869565217;0.5887681159;0.5996376812;0.6014492754;0.6177536232;0.6195652174;0.6213768116;0.6231884058;0.625;0.6268115942;0.6358695652;0.6376811594;0.6394927536;0.6413043478;0.643115942;0.6485507246;0.6503623188;0.652173913;0.6539855072;0.6557971014;0.6576086957;0.6594202899;0.6612318841;0.6630434783;0.6648550725;0.6666666667;0.6684782609;0.6702898551;0.6721014493;0.6739130435;0.6757246377;0.6793478261;0.6811594203;0.7210144928;0.722826087;0.7246376812;0.7264492754;0.7282608696;0.7300724638;0.731884058;0.740942029;0.7427536232;0.7445652174;0.75;0.7518115942;0.7536231884;0.7554347826;0.7572463768;0.759057971;0.7608695652;0.7626811594;0.7644927536;0.7663043478;0.768115942;0.7699275362;0.7717391304;0.7735507246;0.7753623188;0.777173913;0.7789855072;0.7807971014;0.7826086957;0.7844202899;0.7862318841;0.7880434783;0.7898550725;0.7916666667;0.7934782609;0.7952898551;0.7971014493;0.7989130435;0.8007246377;0.8025362319;0.8043478261;0.8061594203;0.8115942029;0.8134057971;0.8152173913;0.8260869565;0.8278985507;0.8297101449;0.8333333333;0.8351449275;0.8369565217;0.8387681159;0.8405797101;0.8423913043;0.8442028986;0.8460144928;0.847826087;0.8496376812;0.8514492754;0.8532608696;0.8550724638;0.856884058;0.8586956522;0.8605072464;0.8623188406;0.8641304348;0.865942029;0.8677536232;0.8695652174;0.8713768116;0.8731884058;0.875;0.8768115942;0.8786231884;0.8876811594;0.8894927536;0.8913043478;0.893115942;0.9510869565;0.9528985507;0.9547101449;0.9565217391;0.9583333333;0.9601449275;0.9619565217;0.9637681159;0.9655797101;0.9673913043;0.9746376812;0.9764492754;0.9782608696;0.9800724638;0.9891304348;0.990942029;0.9927536232;0.9963768116;0.9981884058;1.0" repeatCount="indefinite" values="3000;3000;3000;2900;2900;2800;2700;2600;2500;2500;2600;2600;2700;2600;2600;2700;2700;2600;2600;2500;2500;2400;2400;2300;2200;2100;2000;1900;1800;1700;1600;1500;1400;1300;1200;1100;1000;1000;900;900;800;800;900;1000;1100;1200;1300;1400;1500;1600;1700;1700;1800;1800;1900;1900;1800;1800;1700;1700;1800;1800;1700;1700;1800;1800;1900;2000;2000;2100;2200;2200;2300;2400;2500;2600;2600;2700;2700;2800;2900;3000;2900;2800;2700;2600;2500;2500;2400;2300;2200;2200;2100;2000;1900;1800;1700;1600;1600;1500;1400;1500;1500;1400;1400;1300;1200;1100;1100;1000;1000;1100;1100;1200;1300;1400;1500;1500;1600;1700;1700;1800;1800;1900;2000;2100;2200;2200;2300;2400;2400;2500;2600;2700;2800;2900;2900;3000;3100;3100;3200;3200;3300;3300;3400;3400;3300;3200;3200;3300;3300;3400;3300;3300;3400;3400;3300;3300;3200;3100;3000;2900;2800;2700;2600;2500;2400;2300;2200;2100;2000;1900;1800;1700;1600;1500;1400;1300;1200;1200;1100;1000;900;1000;1100;1200;1300;1400;1500;1600;1600;1700;1800;1900;2000;2100;2200;2300;2400;2500;2600;2700;2800;2900;3000;3100;3200;3300;3300;3400;3400;3300;3300;3200;3100;3000;2900;2800;2800;2900;3000;2900;2800;2800;2700;2600;2500;2400;2300;2200;2100;2000;1900;1900;2000;2100;2200;2300;2400;2400;2500;2500;2400;2400;2500;2500;2600;2700;2700;2800;2700;2700;2600;2500;2400;2300;2200;2100;2100;2200;2300;2400;2400;2300;2200;2300;2300;2200;2200;2100;2100;2000;1900;1800;1700;1700;1600;1500;1400;1300;1200;1100;1000;1000;900;800;800;900;1000;1000;1100;1200;1300;1400;1400;1500;1600;1700;1800;1900;2000;2100;2200;2200;2100;2000;2000;1900;1800;1700;1600;1500;1400;1300;1200;1200;1300;1300;1200;1200;1300;1400;1500;1500;1600;1600;1700;1800;1700;1700;1600;1600;1700;1700;1600;1500;1500;1400;1400"/>
<animate attributeName="visibility" dur="154.28s" keyTimes="0.0;0.0018115942;1.0" repeatCount="indefinite" values="visible;visible;visible"/> </circle>
<circle cx="3500" cy="-3000" fill="none" r="35" stroke="#c1433c" stroke-width="10"> <animate attributeName="cy" dur="154.28s" keyTimes="0.0;0.0018115942;0.0471014493;0.0489130435;0.1086956522;0.1105072464;0.1630434783;0.1648550725;0.2355072464;0.2373188406;0.3206521739;0.3224637681;0.4057971014;0.4076086957;0.4710144928;0.472826087;0.4945652174;0.4963768116;0.5253623188;0.527173913;0.6195652174;0.6213768116;0.6612318841;0.6630434783;0.7264492754;0.7282608696;0.7717391304;0.7735507246;0.8188405797;0.8206521739;0.8623188406;0.8641304348;0.9257246377;0.9275362319;0.9311594203;0.9329710145;0.9963768116;0.9981884058;1.0" repeatCount="indefinite" values="-3000;-3000;-3000;-2400;-2400;-2600;-2600;-900;-900;-3500;-3500;-1400;-1400;-2500;-2500;-2900;-2900;-3700;-3700;-800;-800;-700;-700;-3000;-3000;-3600;-3600;-3400;-3400;-3500;-3500;-1100;-1100;-900;-900;-3300;-3300;-1400;-1400"/>
<animate attributeName="cx" dur="154.28s" keyTimes="0.0;0.0018115942;0.0471014493;0.0489130435;0.1086956522;0.1105072464;0.1630434783;0.1648550725;0.2355072464;0.2373188406;0.3206521739;0.3224637681;0.3822463768;0.384057971;0.4057971014;0.4076086957;0.4710144928;0.472826087;0.4945652174;0.4963768116;0.5253623188;0.527173913;0.6195652174;0.6213768116;0.6612318841;0.6630434783;0.7264492754;0.7282608696;0.7717391304;0.7735507246;0.8188405797;0.8206521739;0.8623188406;0.8641304348;0.9257246377;0.9275362319;0.9311594203;0.9329710145;0.9963768116;0.9981884058;1.0" repeatCount="indefinite" values="3500;3500;3500;700;700;3100;3100;1200;1200;3300;3300;2000;2000;3100;3100;600;600;1500;1500;1000;1000;3300;3300;1300;1300;2600;2600;700;700;3100;3100;800;800;1900;1900;1800;1800;3000;3000;3100;3100"/>
<animate attributeName="visibility" dur="154.28s" keyTimes="0.0;0.0018115942;1.0" repeatCount="indefinite" values="visible;visible;visible"/> </circle>
<circle cx="2600" cy="-2600" fill="none" r="35" stroke="#2e6f9e" stroke-width="10"> <animate attributeName="cy" dur="154.28s" keyTimes="0.0;0.0018115942;0.0217391304;0.0235507246;0.0561594203;0.0579710145;0.1576086957;0.1594202899;0.2210144928;0.222826087;0.2699275362;0.2717391304;0.2880434783;0.2898550725;0.2989130435;0.3007246377;0.3297101449;0.3315217391;0.3713768116;0.3731884058;0.4547101449;0.4565217391;0.4619565217;0.4637681159;0.5362318841;0.5380434783;0.6648550725;0.6666666667;0.740942029;0.7427536232;0.7789855072;0.7807971014;0.8170289855;0.8188405797;0.8550724638;0.856884058;0.8876811594;0.8894927536;0.9746376812;0.9764492754;1.0" repeatCount="indefinite" values="-2600;-2600;-2600;-1000;-1000;-3600;-3600;-1300;-1300;-3100;-3100;-3700;-3700;-3600;-3600;-3500;-3500;-2700;-2700;-1800;-1800;-2100;-2100;-3500;-3500;-2700;-2700;-2100;-2100;-2500;-2500;-2100;-2100;-2500;-2500;-2900;-2900;-3100;-3100;-1000;-1000"/>
<animate attributeName="cx" dur="154.28s" keyTimes="0.0;0.0018115942;0.0217391304;0.0235507246;0.0561594203;0.0579710145;0.1576086957;0.1594202899;0.2210144928;0.222826087;0.2699275362;0.2717391304;0.2880434783;0.2898550725;0.2989130435;0.3007246377;0.3297101449;0.3315217391;0.3713768116;0.3731884058;0.4547101449;0.4565217391;0.4619565217;0.4637681159;0.5362318841;0.5380434783;0.597826087;0.5996376812;0.6648550725;0.6666666667;0.740942029;0.7427536232;0.7789855072;0.7807971014;0.8170289855;0.8188405797;0.8550724638;0.856884058;0.8876811594;0.8894927536;0.9746376812;0.9764492754;1.0" repeatCount="indefinite" values="2600;2600;2600;2700;2700;800;800;1800;1800;2200;2200;2600;2600;3000;3000;1600;1600;1100;1100;3400;3400;3300;3300;900;900;3400;3400;1900;1900;2800;2800;2200;2200;800;800;2200;2200;1300;1300;1600;1600;900;900"/>
<animate attributeName="visibility" dur="154.28s" keyTimes="0.0;0.0018115942;1.0" repeatCount="indefinite" values="visible;visible;visible"/> </circle>
</svg>