<?xml version="1.0" encoding="UTF-8"?>
        <svg xmlns="http://www.w3.org/2000/svg" xmlns:xlink="http://www.w3.org/1999/xlink"
             width="430" height="430" viewBox="0 -4300 4300 4300">

<defs>

</defs>

<rect fill="#84A1AE" height="70" rx="15" width="70" x="465" y="-535" />
<rect fill="#84A1AE" height="70" rx="15" width="70" x="465" y="-635" />
<rect fill="#84A1AE" height="70" rx="15" width="70" x="465" y="-735" />
<rect fill="#84A1AE" height="70" rx="15" width="70" x="465" y="-835" />
<rect fill="#84A1AE" height="70" rx="15" width="70" x="465" y="-935" />
<rect fill="#84A1AE" height="70" rx="15" width="70" x="465" y="-1035" />
<rect fill="#84A1AE" height="70" rx="15" width="70" x="465" y="-1135" />
<rect fill="#84A1AE" height="70" rx="15" width="70" x="465" y="-1235" />
<rect fill="#84A1AE" height="70" rx="15" width="70" x="465" y="-1335" />
<rect fill="#84A1AE" height="70" rx="15" width="70" x="465" y="-1435" />
<rect fill="#84A1AE" height="70" rx="15" width="70" x="465" y="-1535" />
<rect fill="#84A1AE" height="70" rx="15" width="70" x="465" y="-1635" />
<rect fill="#84A1AE" height="70" rx="15" width="70" x="465" y="-1735" />
<rect fill="#84A1AE" height="70" rx="15" width="70" x="465" y="-1835" />
<rect fill="#84A1AE" height="70" rx="15" width="70" x="465" y="-1935" />
<rect fill="#84A1AE" height="70" rx="15" width="70" x="465" y="-2035" />
<rect fill="#84A1AE" height="70" rx="15" width="70" x="465" y="-2135" />
<rect fill="#84A1AE" height="70" rx="15" width="70" x="465" y="-2235" />
<rect fill="#84A1AE" height="70" rx="15" width="70" x="465" y="-2335" />
<rect fill="#84A1AE" height="70" rx="15" width="70" x="465" y="-2435" />
<rect fill="#84A1AE" height="70" rx="15" width="70" x="465" y="-2535" />
<rect fill="#84A1AE" height="70" rx="15" width="70" x="465" y="-2635" />
<rect fill="#84A1AE" height="70" rx="15" width="70" x="465" y="-2735" />
<rect fill="#84A1AE" height="70" rx="15" width="70" x="465" y="-2835" />
<rect fill="#84A1AE" height="70" rx="15" width="70" x="465" y="-2935" />
<rect fill="#84A1AE" height="70" rx="15" width="70" x="465" y="-3035" />
<rect fill="#84A1AE" height="70" rx="15" width="70" x="465" y="-3135" />
<rect fill="#84A1AE" height="70" rx="15" width="70" x="465" y="-3235" />
<rect fill="#84A1AE" height="70" rx="15" width="70" x="465" y="-3335" />
<rect fill="#84A1AE" height="70" rx="15" width="70" x="465" y="-3435" />
<rect fill="#84A1AE" height="70" rx="15" width="70" x="465" y="-3535" />
<rect fill="#84A1AE" height="70" rx="15" width="70" x="465" y="-3635" />
<rect fill="#84A1AE" height="70" rx="15" width="70" x="465" y="-3735" />
<rect fill="#84A1AE" height="70" rx="15" width="70" x="465" y="-3835" />
<rect fill="#84A1AE" height="70" rx="15" width="70" x="565" y="-535" />
<rect fill="#84A1AE" height="70" rx="15" width="70" x="565" y="-1635" />
<rect fill="#84A1AE" height="70" rx="15" width="70" x="565" y="-1935" />
<rect fill="#84A1AE" height="70" rx="15" width="70" x="565" y="-2735" />
<rect fill="#84A1AE" height="70" rx="15" width="70" x="565" y="-3835" />
<rect fill="#84A1AE" height="70" rx="15" width="70" x="665" y="-535" />
<rect fill="#84A1AE" height="70" rx="15" width="70" x="665" y="-1035" />
<rect fill="#84A1AE" height="70" rx="15" width="70" x="665" y="-2535" />
<rect fill="#84A1AE" height="70" rx="15" width="70" x="665" y="-3035" />
<rect fill="#84A1AE" height="70" rx="15" width="70" x="665" y="-3235" />
<rect fill="#84A1AE" height="70" rx="15" width="70" x="665" y="-3835" />
<rect fill="#84A1AE" height="70" rx="15" width="70" x="765" y="-535" />
<rect fill="#84A1AE" height="70" rx="15" width="70" x="765" y="-635" />
<rect fill="#84A1AE" height="70" rx="15" width="70" x="765" y="-3835" />
<rect fill="#84A1AE" height="70" rx="15" width="70" x="865" y="-535" />
<rect fill="#84A1AE" height="70" rx="15" width="70" x="865" y="-2435" />
<rect fill="#84A1AE" height="70" rx="15" width="70" x="865" y="-2535" />
<rect fill="#84A1AE" height="70" rx="15" width="70" x="865" y="-3335" />
<rect fill="#84A1AE" height="70" rx="15" width="70" x="865" y="-3435" />
<rect fill="#84A1AE" height="70" rx="15" width="70" x="865" y="-3835" />
<rect fill="#84A1AE" height="70" rx="15" width="70" x="965" y="-535" />
<rect fill="#84A1AE" height="70" rx="15" width="70" x="965" y="-735" />
<rect fill="#84A1AE" height="70" rx="15" width="70" x="965" y="-1635" />
<rect fill="#84A1AE" height="70" rx="15" width="70" x="965" y="-1835" />
<rect fill="#84A1AE" height="70" rx="15" width="70" x="965" y="-2835" />
<rect fill="#84A1AE" height="70" rx="15" width="70" x="965" y="-3435" />
<rect fill="#84A1AE" height="70" rx="15" width="70" x="965" y="-3835" />
<rect fill="#84A1AE" height="70" rx="15" width="70" x="1065" y="-535" />
<rect fill="#84A1AE" height="70" rx="15" width="70" x="1065" y="-1135" />
<rect fill="#84A1AE" height="70" rx="15" width="70" x="1065" y="-1835" />
<rect fill="#84A1AE" height="70" rx="15" width="70" x="1065" y="-3735" />
<rect fill="#84A1AE" height="70" rx="15" width="70" x="1065" y="-3835" />
<rect fill="#84A1AE" height="70" rx="15" width="70" x="1165" y="-535" />
<rect fill="#84A1AE" height="70" rx="15" width="70" x="1165" y="-635" />
<rect fill="#84A1AE" height="70" rx="15" width="70" x="1165" y="-735" />
<rect fill="#84A1AE" height="70" rx="15" width="70" x="1165" y="-1535" />
<rect fill="#84A1AE" height="70" rx="15" width="70" x="1165" y="-3835" />
<rect fill="#84A1AE" height="70" rx="15" width="70" x="1265" y="-535" />
<rect fill="#84A1AE" height="70" rx="15" width="70" x="1265" y="-2835" />
<rect fill="#84A1AE" height="70" rx="15" width="70" x="1265" y="-3435" />
<rect fill="#84A1AE" height="70" rx="15" width="70" x="1265" y="-3835" />
<rect fill="#84A1AE" height="70" rx="15" width="70" x="1365" y="-535" />
<rect fill="#84A1AE" height="70" rx="15" width="70" x="1365" y="-835" />
<rect fill="#84A1AE" height="70" rx="15" width="70" x="1365" y="-935" />
<rect fill="#84A1AE" height="70" rx="15" width="70" x="1365" y="-1035" />
<rect fill="#84A1AE" height="70" rx="15" width="70" x="1365" y="-1935" />
<rect fill="#84A1AE" height="70" rx="15" width="70" x="1365" y="-2335" />
<rect fill="#84A1AE" height="70" rx="15" width="70" x="1365" y="-2635" />
<rect fill="#84A1AE" height="70" rx="15" width="70" x="1365" y="-2835" />
<rect fill="#84A1AE" height="70" rx="15" width="70" x="1365" y="-2935" />
<rect fill="#84A1AE" height="70" rx="15" width="70" x="1365" y="-3035" />
<rect fill="#84A1AE" height="70" rx="15" width="70" x="1365" y="-3335" />
<rect fill="#84A1AE" height="70" rx="15" width="70" x="1365" y="-3835" />
<rect fill="#84A1AE" height="70" rx="15" width="70" x="1465" y="-535" />
<rect fill="#84A1AE" height="70" rx="15" width="70" x="1465" y="-1235" />
<rect fill="#84A1AE" height="70" rx="15" width="70" x="1465" y="-1535" />
<rect fill="#84A1AE" height="70" rx="15" width="70" x="1465" y="-2035" />
<rect fill="#84A1AE" height="70" rx="15" width="70" x="1465" y="-3135" />
<rect fill="#84A1AE" height="70" rx="15" width="70" x="1465" y="-3235" />
<rect fill="#84A1AE" height="70" rx="15" width="70" x="1465" y="-3835" />
<rect fill="#84A1AE" height="70" rx="15" width="70" x="1565" y="-535" />
<rect fill="#84A1AE" height="70" rx="15" width="70" x="1565" y="-3035" />
<rect fill="#84A1AE" height="70" rx="15" width="70" x="1565" y="-3835" />
<rect fill="#84A1AE" height="70" rx="15" width="70" x="1665" y="-535" />
<rect fill="#84A1AE" height="70" rx="15" width="70" x="1665" y="-3735" />
<rect fill="#84A1AE" height="70" rx="15" width="70" x="1665" y="-3835" />
<rect fill="#84A1AE" height="70" rx="15" width="70" x="1765" y="-535" />
<rect fill="#84A1AE" height="70" rx="15" width="70" x="1765" y="-1235" />
<rect fill="#84A1AE" height="70" rx="15" width="70" x="1765" y="-3835" />
<rect fill="#84A1AE" height="70" rx="15" width="70" x="1865" y="-535" />
<rect fill="#84A1AE" height="70" rx="15" width="70" x="1865" y="-735" />
<rect fill="#84A1AE" height="70" rx="15" width="70" x="1865" y="-1335" />
<rect fill="#84A1AE" height="70" rx="15" width="70" x="1865" y="-3235" />
<rect fill="#84A1AE" height="70" rx="15" width="70" x="1865" y="-3435" />
<rect fill="#84A1AE" height="70" rx="15" width="70" x="1865" y="-3835" />
<rect fill="#84A1AE" height="70" rx="15" width="70" x="1965" y="-535" />
<rect fill="#84A1AE" height="70" rx="15" width="70" x="1965" y="-635" />
<rect fill="#84A1AE" height="70" rx="15" width="70" x="1965" y="-1835" />
<rect fill="#84A1AE" height="70" rx="15" width="70" x="1965" y="-1935" />
<rect fill="#84A1AE" height="70" rx="15" width="70" x="1965" y="-2135" />
<rect fill="#84A1AE" height="70" rx="15" width="70" x="1965" y="-2335" />
<rect fill="#84A1AE" height="70" rx="15" width="70" x="1965" y="-2435" />
<rect fill="#84A1AE" height="70" rx="15" width="70" x="1965" y="-3335" />
<rect fill="#84A1AE" height="70" rx="15" width="70" x="1965" y="-3835" />
<rect fill="#84A1AE" height="70" rx="15" width="70" x="2065" y="-535" />
<rect fill="#84A1AE" height="70" rx="15" width="70" x="2065" y="-1535" />
<rect fill="#84A1AE" height="70" rx="15" width="70" x="2065" y="-1635" />
<rect fill="#84A1AE" height="70" rx="15" width="70" x="2065" y="-2135" />
<rect fill="#84A1AE" height="70" rx="15" width="70" x="2065" y="-3835" />
<rect fill="#84A1AE" height="70" rx="15" width="70" x="2165" y="-535" />
<rect fill="#84A1AE" height="70" rx="15" width="70" x="2165" y="-935" />
<rect fill="#84A1AE" height="70" rx="15" width="70" x="2165" y="-1335" />
<rect fill="#84A1AE" height="70" rx="15" width="70" x="2165" y="-1835" />
<rect fill="#84A1AE" height="70" rx="15" width="70" x="2165" y="-3835" />
<rect fill="#84A1AE" height="70" rx="15" width="70" x="2265" y="-535" />
<rect fill="#84A1AE" height="70" rx="15" width="70" x="2265" y="-935" />
<rect fill="#84A1AE" height="70" rx="15" width="70" x="2265" y="-1135" />
<rect fill="#84A1AE" height="70" rx="15" width="70" x="2265" y="-2535" />
<rect fill="#84A1AE" height="70" rx="15" width="70" x="2265" y="-3235" />
<rect fill="#84A1AE" height="70" rx="15" width="70" x="2265" y="-3835" />
<rect fill="#84A1AE" height="70" rx="15" width="70" x="2365" y="-535" />
<rect fill="#84A1AE" height="70" rx="15" width="70" x="2365" y="-935" />
<rect fill="#84A1AE" height="70" rx="15" width="70" x="2365" y="-1035" />
<rect fill="#84A1AE" height="70" rx="15" width="70" x="2365" y="-3835" />
<rect fill="#84A1AE" height="70" rx="15" width="70" x="2465" y="-535" />
<rect fill="#84A1AE" height="70" rx="15" width="70" x="2465" y="-935" />
<rect fill="#84A1AE" height="70" rx="15" width="70" x="2465" y="-1535" />
<rect fill="#84A1AE" height="70" rx="15" width="70" x="2465" y="-2335" />
<rect fill="#84A1AE" height="70" rx="15" width="70" x="2465" y="-2735" />
<rect fill="#84A1AE" height="70" rx="15" width="70" x="2465" y="-3835" />
<rect fill="#84A1AE" height="70" rx="15" width="70" x="2565" y="-535" />
<rect fill="#84A1AE" height="70" rx="15" width="70" x="2565" y="-735" />
<rect fill="#84A1AE" height="70" rx="15" width="70" x="2565" y="-2535" />
<rect fill="#84A1AE" height="70" rx="15" width="70" x="2565" y="-3835" />
<rect fill="#84A1AE" height="70" rx="15" width="70" x="2665" y="-535" />
<rect fill="#84A1AE" height="70" rx="15" width="70" x="2665" y="-635" />
<rect fill="#84A1AE" height="70" rx="15" width="70" x="2665" y="-1135" />
<rect fill="#84A1AE" height="70" rx="15" width="70" x="2665" y="-1435" />
<rect fill="#84A1AE" height="70" rx="15" width="70" x="2665" y="-2735" />
<rect fill="#84A1AE" height="70" rx="15" width="70" x="2665" y="-3835" />
<rect fill="#84A1AE" height="70" rx="15" width="70" x="2765" y="-535" />
<rect fill="#84A1AE" height="70" rx="15" width="70" x="2765" y="-1635" />
<rect fill="#84A1AE" height="70" rx="15" width="70" x="2765" y="-1835" />
<rect fill="#84A1AE" height="70" rx="15" width="70" x="2765" y="-1935" />
<rect fill="#84A1AE" height="70" rx="15" width="70" x="2765" y="-2235" />
<rect fill="#84A1AE" height="70" rx="15" width="70" x="2765" y="-3735" />
<rect fill="#84A1AE" height="70" rx="15" width="70" x="2765" y="-3835" />
<rect fill="#84A1AE" height="70" rx="15" width="70" x="2865" y="-535" />
<rect fill="#84A1AE" height="70" rx="15" width="70" x="2865" y="-3835" />
<rect fill="#84A1AE" height="70" rx="15" width="70" x="2965" y="-535" />
<rect fill="#84A1AE" height="70" rx="15" width="70" x="2965" y="-2635" />
<rect fill="#84A1AE" height="70" rx="15" width="70" x="2965" y="-3835" />
<rect fill="#84A1AE" height="70" rx="15" width="70" x="3065" y="-535" />
<rect fill="#84A1AE" height="70" rx="15" width="70" x="3065" y="-735" />
<rect fill="#84A1AE" height="70" rx="15" width="70" x="3065" y="-2535" />
<rect fill="#84A1AE" height="70" rx="15" width="70" x="3065" y="-3835" />
<rect fill="#84A1AE" height="70" rx="15" width="70" x="3165" y="-535" />
<rect fill="#84A1AE" height="70" rx="15" width="70" x="3165" y="-835" />
<rect fill="#84A1AE" height="70" rx="15" width="70" x="3165" y="-1935" />
<rect fill="#84A1AE" height="70" rx="15" width="70" x="3165" y="-2735" />
<rect fill="#84A1AE" height="70" rx="15" width="70" x="3165" y="-3135" />
<rect fill="#84A1AE" height="70" rx="15" width="70" x="3165" y="-3835" />
<rect fill="#84A1AE" height="70" rx="15" width="70" x="3265" y="-535" />
<rect fill="#84A1AE" height="70" rx="15" width="70" x="3265" y="-1035" />
<rect fill="#84A1AE" height="70" rx="15" width="70" x="3265" y="-1735" />
<rect fill="#84A1AE" height="70" rx="15" width="70" x="3265" y="-3835" />
<rect fill="#84A1AE" height="70" rx="15" width="70" x="3365" y="-535" />
<rect fill="#84A1AE" height="70" rx="15" width="70" x="3365" y="-1435" />
<rect fill="#84A1AE" height="70" rx="15" width="70" x="3365" y="-1935" />
<rect fill="#84A1AE" height="70" rx="15" width="70" x="3365" y="-2135" />
<rect fill="#84A1AE" height="70" rx="15" width="70" x="3365" y="-3835" />
<rect fill="#84A1AE" height="70" rx="15" width="70" x="3465" y="-535" />
<rect fill="#84A1AE" height="70" rx="15" width="70" x="3465" y="-2635" />
<rect fill="#84A1AE" height="70" rx="15" width="70" x="3465" y="-3835" />
<rect fill="#84A1AE" height="70" rx="15" width="70" x="3565" y="-535" />
<rect fill="#84A1AE" height="70" rx="15" width="70" x="3565" y="-635" />
<rect fill="#84A1AE" height="70" rx="15" width="70" x="3565" y="-2435" />
<rect fill="#84A1AE" height="70" rx="15" width="70" x="3565" y="-3235" />
<rect fill="#84A1AE" height="70" rx="15" width="70" x="3565" y="-3835" />
<rect fill="#84A1AE" height="70" rx="15" width="70" x="3665" y="-535" />
<rect fill="#84A1AE" height="70" rx="15" width="70" x="3665" y="-2135" />
<rect fill="#84A1AE" height="70" rx="15" width="70" x="3665" y="-2835" />
<rect fill="#84A1AE" height="70" rx="15" width="70" x="3665" y="-3135" />
<rect fill="#84A1AE" height="70" rx="15" width="70" x="3665" y="-3735" />
<rect fill="#84A1AE" height="70" rx="15" width="70" x="3665" y="-3835" />
<rect fill="#84A1AE" height="70" rx="15" width="70" x="3765" y="-535" />
<rect fill="#84A1AE" height="70" rx="15" width="70" x="3765" y="-635" />
<rect fill="#84A1AE" height="70" rx="15" width="70" x="3765" y="-735" />
<rect fill="#84A1AE" height="70" rx="15" width="70" x="3765" y="-835" />
<rect fill="#84A1AE" height="70" rx="15" width="70" x="3765" y="-935" />
<rect fill="#84A1AE" height="70" rx="15" width="70" x="3765" y="-1035" />
<rect fill="#84A1AE" height="70" rx="15" width="70" x="3765" y="-1135" />
<rect fill="#84A1AE" height="70" rx="15" width="70" x="3765" y="-1235" />
<rect fill="#84A1AE" height="70" rx="15" width="70" x="3765" y="-1335" />
<rect fill="#84A1AE" height="70" rx="15" width="70" x="3765" y="-1435" />
<rect fill="#84A1AE" height="70" rx="15" width="70" x="3765" y="-1535" />
<rect fill="#84A1AE" height="70" rx="15" width="70" x="3765" y="-1635" />
<rect fill="#84A1AE" height="70" rx="15" width="70" x="3765" y="-1735" />
<rect fill="#84A1AE" height="70" rx="15" width="70" x="3765" y="-1835" />
<rect fill="#84A1AE" height="70" rx="15" width="70" x="3765" y="-1935" />
<rect fill="#84A1AE" height="70" rx="15" width="70" x="3765" y="-2035" />
<rect fill="#84A1AE" height="70" rx="15" width="70" x="3765" y="-2135" />
<rect fill="#84A1AE" height="70" rx="15" width="70" x="3765" y="-2235" />
<rect fill="#84A1AE" height="70" rx="15" width="70" x="3765" y="-2335" />
<rect fill="#84A1AE" height="70" rx="15" width="70" x="3765" y="-2435" />
<rect fill="#84A1AE" height="70" rx="15" width="70" x="3765" y="-2535" />
<rect fill="#84A1AE" height="70" rx="15" width="70" x="3765" y="-2635" />
<rect fill="#84A1AE" height="70" rx="15" width="70" x="3765" y="-2735" />
<rect fill="#84A1AE" height="70" rx="15" width="70" x="3765" y="-2835" />
<rect fill="#84A1AE" height="70" rx="15" width="70" x="3765" y="-2935" />
<rect fill="#84A1AE" height="70" rx="15" width="70" x="3765" y="-3035" />
<rect fill="#84A1AE" height="70" rx="15" width="70" x="3765" y="-3135" />
<rect fill="#84A1AE" height="70" rx="15" width="70" x="3765" y="-3235" />
<rect fill="#84A1AE" height="70" rx="15" width="70" x="3765" y="-3335" />
<rect fill="#84A1AE" height="70" rx="15" width="70" x="3765" y="-3435" />
<rect fill="#84A1AE" height="70" rx="15" width="70" x="3765" y="-3535" />
<rect fill="#84A1AE" height="70" rx="15" width="70" x="3765" y="-3635" />
<rect fill="#84A1AE" height="70" rx="15" width="70" x="3765" y="-3735" />
<rect fill="#84A1AE" height="70" rx="15" width="70" x="3765" y="-3835" />
<circle cx="2500" cy="-1400" fill="#c1433c" r="35"> <animate attributeName="cy" dur="78.68s" keyTimes="0.0;0.0035460993;0.0070921986;0.0106382979;0.0141843972;0.0177304965;0.0212765957;0.024822695;0.0283687943;0.0319148936;0.0354609929;0.0390070922;0.0425531915;0.0460992908;0.0496453901;0.0531914894;0.0567375887;0.0602836879;0.0638297872;0.0673758865;0.0709219858;0.0992907801;0.1028368794;0.1063829787;0.109929078;0.1134751773;0.1170212766;0.1205673759;0.1241134752;0.1276595745;0.1312056738;0.134751773;0.1382978723;0.1418439716;0.1453900709;0.1489361702;0.1524822695;0.1560283688;0.1737588652;0.1773049645;0.2340425532;0.2375886525;0.2411347518;0.2446808511;0.2482269504;0.2517730496;0.2553191489;0.2588652482;0.2624113475;0.2659574468;0.2695035461;0.2730496454;0.2765957447;0.280141844;0.329787234;0.3333333333;0.3368794326;0.3404255319;0.3439716312;0.3475177305;0.3510638298;0.3546099291;0.3581560284;0.414893617;0.4184397163;0.4219858156;0.4255319149;0.4290780142;0.4432624113;0.4468085106;0.4539007092;0.4574468085;0.4609929078;0.4645390071;0.4680851064;0.4716312057;0.5354609929;0.5390070922;0.5425531915;0.5460992908;0.5496453901;0.5567375887;0.5602836879;0.5638297872;0.5673758865;0.5886524823;0.5921985816;0.5992907801;0.6028368794;0.6241134752;0.6276595745;0.6312056738;0.634751773;0.6382978723;0.6418439716;0.6453900709;0.6489361702;0.6524822695;0.6560283688;0.6595744681;0.6631205674;0.6666666667;0.670212766;0.6737588652;0.6773049645;0.6808510638;0.6843971631;0.6879432624;0.6914893617;0.695035461;0.6985815603;0.7021276596;0.7056737589;0.7092198582;0.7127659574;0.7163120567;0.719858156;0.7234042553;0.7269503546;0.7304964539;0.7340425532;0.7375886525;0.7411347518;0.804964539;0.8085106383;0.8120567376;0.8156028369;0.8191489362;0.8226950355;0.8262411348;0.829787234;0.8333333333;0.8368794326;0.8404255319;0.8439716312;0.8475177305;0.8510638298;0.8546099291;0.8581560284;0.8617021277;0.865248227;0.8687943262;0.8723404255;0.8758865248;0.8794326241;0.8829787234;0.8865248227;0.890070922;0.8936170213;0.8971631206;0.9007092199;0.9326241135;0.9361702128;0.9432624113;0.9468085106;0.9503546099;0.975177305;0.9787234043;0.9822695035;0.9858156028;0.9893617021;0.9929078014;0.9964539007;1.0" repeatCount="indefinite" values="-1400;-1400;-1400;-1500;-1600;-1700;-1800;-1900;-2000;-2100;-2200;-2300;-2400;-2400;-2500;-2600;-2600;-2700;-2800;-2900;-3000;-3000;-2900;-2800;-2700;-2600;-2500;-2400;-2300;-2200;-2200;-2100;-2000;-1900;-1800;-1800;-1700;-1600;-1600;-1700;-1700;-1800;-1800;-1900;-2000;-2000;-2100;-2100;-2200;-2300;-2400;-2500;-2600;-2700;-2700;-2800;-2900;-2900;-3000;-2900;-2800;-2800;-2700;-2700;-2600;-2500;-2500;-2400;-2400;-2300;-2300;-2200;-2200;-2100;-2100;-2000;-2000;-1900;-1800;-1700;-1600;-1600;-1500;-1500;-1400;-1400;-1300;-1300;-1200;-1200;-1100;-1000;-1000;-900;-900;-800;-900;-1000;-1100;-1200;-1300;-1400;-1500;-1600;-1700;-1800;-1900;-2000;-2100;-2200;-2200;-2300;-2300;-2400;-2500;-2600;-2700;-2800;-2900;-3000;-3100;-3200;-3300;-3300;-3200;-3100;-3000;-2900;-2800;-2700;-2600;-2500;-2400;-2300;-2200;-2100;-2000;-2000;-1900;-1800;-1700;-1700;-1600;-1500;-1400;-1300;-1200;-1100;-1200;-1300;-1400;-1400;-1500;-1500;-1600;-1700;-1700;-1600;-1600;-1500;-1600;-1700;-1800;-1800"/>
<animate attributeName="cx" dur="78.68s" keyTimes="0.0;0.0035460993;0.0070921986;0.0425531915;0.0460992908;0.0531914894;0.0567375887;0.0709219858;0.0744680851;0.0780141844;0.0815602837;0.085106383;0.0886524823;0.0921985816;0.0957446809;0.0992907801;0.1276595745;0.1312056738;0.1453900709;0.1489361702;0.1560283688;0.1595744681;0.1631205674;0.1666666667;0.170212766;0.1737588652;0.1773049645;0.1808510638;0.1843971631;0.1879432624;0.1914893617;0.195035461;0.1985815603;0.2021276596;0.2056737589;0.2092198582;0.2127659574;0.2163120567;0.219858156;0.2234042553;0.2269503546;0.2304964539;0.2340425532;0.2375886525;0.2411347518;0.2482269504;0.2517730496;0.2553191489;0.2588652482;0.280141844;0.2836879433;0.2872340426;0.2907801418;0.2943262411;0.2978723404;0.3014184397;0.304964539;0.3085106383;0.3120567376;0.3156028369;0.3191489362;0.3226950355;0.3262411348;0.329787234;0.3368794326;0.3404255319;0.3510638298;0.3546099291;0.3581560284;0.3617021277;0.365248227;0.3687943262;0.3723404255;0.3758865248;0.3794326241;0.3829787234;0.3865248227;0.390070922;0.3936170213;0.3971631206;0.4007092199;0.4078014184;0.4113475177;0.414893617;0.4219858156;0.4255319149;0.4290780142;0.4326241135;0.4361702128;0.4397163121;0.4432624113;0.4468085106;0.4503546099;0.4539007092;0.4574468085;0.4609929078;0.4645390071;0.4680851064;0.4716312057;0.475177305;0.4787234043;0.4822695035;0.4858156028;0.4893617021;0.4929078014;0.4964539007;0.5;0.5035460993;0.5070921986;0.5106382979;0.5141843972;0.5177304965;0.5212765957;0.524822695;0.5283687943;0.5319148936;0.5354609929;0.5496453901;0.5531914894;0.5567375887;0.5602836879;0.5638297872;0.5673758865;0.5709219858;0.5744680851;0.5780141844;0.5815602837;0.585106383;0.5886524823;0.5921985816;0.5957446809;0.5992907801;0.6028368794;0.6063829787;0.609929078;0.6134751773;0.6170212766;0.6205673759;0.6241134752;0.6312056738;0.634751773;0.6382978723;0.6418439716;0.695035461;0.6985815603;0.7021276596;0.7056737589;0.7411347518;0.7446808511;0.7482269504;0.7517730496;0.7553191489;0.7588652482;0.7624113475;0.7659574468;0.7695035461;0.7730496454;0.7765957447;0.780141844;0.7836879433;0.7872340426;0.7907801418;0.7943262411;0.7978723404;0.8014184397;0.804964539;0.8510638298;0.8546099291;0.865248227;0.8687943262;0.9007092199;0.9042553191;0.9078014184;0.9113475177;0.914893617;0.9184397163;0.9219858156;0.9255319149;0.9290780142;0.9326241135;0.9361702128;0.9397163121;0.9432624113;0.9503546099;0.9539007092;0.9574468085;0.9609929078;0.9645390071;0.9680851064;0.9716312057;0.975177305;0.9787234043;0.9822695035;1.0" repeatCount="indefinite" values="2500;2500;2600;2600;2700;2700;2800;2800;2900;3000;3100;3200;3300;3400;3500;3400;3400;3300;3300;3400;3400;3300;3200;3100;3000;2900;2900;2800;2700;2600;2500;2400;2300;2200;2100;2000;1900;1800;1700;1600;1500;1400;1300;1300;1200;1200;1100;1100;1000;1000;1100;1200;1300;1400;1500;1600;1700;1800;1700;1600;1500;1400;1300;1200;1200;1100;1100;1200;1200;1300;1400;1500;1600;1700;1800;1900;2000;2100;2200;2300;2400;2400;2300;2400;2400;2500;2500;2600;2700;2800;2900;2900;3000;3100;3100;3200;3200;3300;3300;3400;3300;3200;3100;3000;2900;2800;2700;2600;2500;2400;2300;2200;2100;2000;1900;1800;1700;1700;1800;1900;1900;2000;2000;2100;2200;2300;2400;2500;2600;2600;2700;2800;2800;2900;3000;3100;3200;3300;3400;3400;3500;3500;3600;3600;3500;3500;3400;3400;3500;3600;3700;3600;3500;3400;3300;3200;3100;3000;2900;2800;2700;2600;2500;2400;2300;2200;2200;2100;2100;2000;2000;1900;1800;1700;1600;1500;1400;1300;1200;1100;1100;1000;900;900;1000;1100;1200;1300;1400;1500;1600;1600;1700;1700"/>
<animate attributeName="visibility" dur="78.68s" keyTimes="0.0;0.0035460993;1.0" repeatCount="indefinite" values="visible;visible;visible"/> </circle>
<circle cx="3000" cy="-1900" fill="#2e6f9e" r="35"> <animate attributeName="cy" dur="78.68s" keyTimes="0.0;0.0035460993;0.0070921986;0.0106382979;0.0177304965;0.0212765957;0.024822695;0.0283687943;0.0496453901;0.0531914894;0.0567375887;0.0673758865;0.0709219858;0.085106383;0.0886524823;0.0921985816;0.0957446809;0.0992907801;0.1063829787;0.109929078;0.1134751773;0.1170212766;0.1205673759;0.1241134752;0.1276595745;0.134751773;0.1382978723;0.1418439716;0.1453900709;0.1489361702;0.170212766;0.1737588652;0.1773049645;0.1985815603;0.2021276596;0.2056737589;0.2411347518;0.2446808511;0.2553191489;0.2588652482;0.2624113475;0.2659574468;0.2943262411;0.2978723404;0.3014184397;0.304964539;0.3085106383;0.3120567376;0.3226950355;0.3262411348;0.3687943262;0.3723404255;0.3758865248;0.4007092199;0.4042553191;0.4078014184;0.4184397163;0.4219858156;0.4290780142;0.4326241135;0.4361702128;0.4397163121;0.4468085106;0.4503546099;0.4609929078;0.4645390071;0.475177305;0.4787234043;0.4822695035;0.4858156028;0.4893617021;0.4929078014;0.4964539007;0.5;0.5035460993;0.5212765957;0.524822695;0.5283687943;0.5319148936;0.5354609929;0.5390070922;0.5425531915;0.5460992908;0.5567375887;0.5602836879;0.5638297872;0.5673758865;0.5780141844;0.5815602837;0.6063829787;0.609929078;0.6205673759;0.6241134752;0.6453900709;0.6489361702;0.6524822695;0.6560283688;0.6595744681;0.6666666667;0.670212766;0.6737588652;0.6773049645;0.6808510638;0.6843971631;0.7163120567;0.719858156;0.7269503546;0.7304964539;0.7340425532;0.7375886525;0.7411347518;0.7446808511;0.7482269504;0.7517730496;0.7588652482;0.7624113475;0.7765957447;0.780141844;0.7943262411;0.7978723404;0.8156028369;0.8191489362;0.8226950355;0.8368794326;0.8404255319;0.8475177305;0.8510638298;0.8546099291;0.8617021277;0.865248227;0.8865248227;0.890070922;0.8936170213;0.8971631206;0.9078014184;0.9113475177;0.914893617;0.9184397163;0.9361702128;0.9397163121;0.9432624113;0.9468085106;0.9503546099;0.9539007092;0.9574468085;0.9609929078;1.0" repeatCount="indefinite" values="-1900;-1900;-2000;-1900;-1900;-2000;-2100;-2000;-2000;-2100;-2000;-2000;-2100;-2100;-2000;-2100;-2100;-2200;-2200;-2100;-2100;-2200;-2100;-2200;-2300;-2300;-2200;-2200;-2300;-2400;-2400;-2300;-2400;-2400;-2300;-2400;-2400;-2300;-2300;-2400;-2400;-2500;-2500;-2600;-2600;-2700;-2600;-2500;-2500;-2600;-2600;-2500;-2600;-2600;-2500;-2600;-2600;-2700;-2700;-2800;-2800;-2700;-2700;-2600;-2600;-2500;-2500;-2600;-2600;-2700;-2800;-2800;-2900;-2800;-2900;-2900;-2800;-2800;-2700;-2700;-2600;-2500;-2600;-2600;-2500;-2500;-2600;-2600;-2500;-2500;-2400;-2400;-2500;-2500;-2600;-2700;-2700;-2800;-2800;-2900;-2900;-2800;-2800;-2700;-2700;-2600;-2600;-2700;-2700;-2800;-2800;-2700;-2700;-2800;-2800;-2900;-2900;-2800;-2800;-2900;-2900;-3000;-3100;-3100;-3200;-3200;-3300;-3200;-3200;-3300;-3300;-3200;-3200;-3300;-3300;-3400;-3500;-3600;-3600;-3700;-3700;-3600;-3600;-3500;-3600;-3700;-3700"/>
<animate attributeName="cx" dur="78.68s" keyTimes="0.0;0.0035460993;0.0106382979;0.0141843972;0.0177304965;0.0283687943;0.0319148936;0.0354609929;0.0390070922;0.0425531915;0.0460992908;0.0496453901;0.0567375887;0.0602836879;0.0638297872;0.0673758865;0.0709219858;0.0744680851;0.0780141844;0.0815602837;0.085106383;0.0992907801;0.1028368794;0.1063829787;0.109929078;0.1134751773;0.1382978723;0.1418439716;0.1489361702;0.1524822695;0.1560283688;0.1595744681;0.1631205674;0.1666666667;0.170212766;0.1808510638;0.1843971631;0.1879432624;0.1914893617;0.195035461;0.1985815603;0.2056737589;0.2092198582;0.219858156;0.2234042553;0.2269503546;0.2304964539;0.2340425532;0.2375886525;0.2411347518;0.2482269504;0.2517730496;0.2553191489;0.2588652482;0.2624113475;0.2659574468;0.2695035461;0.2730496454;0.2765957447;0.280141844;0.2836879433;0.2872340426;0.2907801418;0.2943262411;0.3120567376;0.3156028369;0.3262411348;0.329787234;0.3333333333;0.3404255319;0.3439716312;0.3475177305;0.3510638298;0.3546099291;0.3581560284;0.3617021277;0.365248227;0.3687943262;0.3758865248;0.3794326241;0.3829787234;0.3865248227;0.390070922;0.3936170213;0.3971631206;0.4007092199;0.4078014184;0.4113475177;0.4219858156;0.4255319149;0.4326241135;0.4361702128;0.4397163121;0.4432624113;0.4539007092;0.4574468085;0.4609929078;0.4787234043;0.4822695035;0.4893617021;0.4929078014;0.5035460993;0.5070921986;0.5106382979;0.5177304965;0.5212765957;0.5319148936;0.5354609929;0.5460992908;0.5496453901;0.5531914894;0.5567375887;0.5602836879;0.5638297872;0.5673758865;0.5709219858;0.5744680851;0.5780141844;0.5886524823;0.5921985816;0.5957446809;0.5992907801;0.6028368794;0.6241134752;0.6276595745;0.6312056738;0.634751773;0.6382978723;0.6418439716;0.6524822695;0.6560283688;0.6631205674;0.6666666667;0.6843971631;0.6879432624;0.6914893617;0.695035461;0.6985815603;0.7021276596;0.7056737589;0.7092198582;0.7127659574;0.7163120567;0.719858156;0.7234042553;0.7269503546;0.7304964539;0.7340425532;0.7375886525;0.7411347518;0.7446808511;0.7482269504;0.7517730496;0.7553191489;0.7624113475;0.7659574468;0.7695035461;0.7730496454;0.7765957447;0.780141844;0.7836879433;0.7872340426;0.7907801418;0.7943262411;0.7978723404;0.8014184397;0.804964539;0.8085106383;0.8226950355;0.8262411348;0.829787234;0.8333333333;0.8368794326;0.865248227;0.8687943262;0.8723404255;0.8758865248;0.8794326241;0.8829787234;0.8865248227;0.8971631206;0.9007092199;0.9042553191;0.9078014184;0.9290780142;0.9326241135;0.9361702128;0.9397163121;0.9432624113;0.9468085106;0.9503546099;0.9609929078;0.9645390071;1.0" repeatCount="indefinite" values="3000;3000;3000;2900;3000;3000;2900;3000;3000;3100;3000;2900;2900;2800;2900;3000;3000;2900;2800;2800;2700;2700;2600;2500;2500;2600;2600;2700;2700;2800;2900;2800;2900;2900;3000;3000;3100;3100;3200;3300;3200;3200;3100;3100;3200;3200;3100;3000;2900;2800;2800;2900;3000;3000;2900;2900;2800;2900;2800;2900;2800;2700;2700;2800;2800;2700;2700;2600;2700;2700;2600;2500;2500;2400;2300;2200;2300;2400;2400;2500;2500;2600;2500;2600;2500;2400;2400;2300;2300;2400;2400;2300;2300;2400;2400;2300;2200;2200;2100;2100;2200;2200;2100;2200;2200;2300;2300;2200;2200;2300;2300;2200;2200;2100;2100;2200;2100;2000;2000;1900;2000;2000;2100;2100;2000;2000;1900;1800;1700;1700;1600;1600;1500;1500;1400;1300;1200;1200;1300;1400;1400;1500;1600;1600;1700;1600;1600;1700;1700;1800;1800;1700;1700;1800;1800;1900;1800;1900;1800;1800;1900;2000;1900;1800;1800;1900;2000;1900;1900;1800;1700;1700;1800;1800;1900;1800;1700;1600;1700;1600;1600;1700;1600;1700;1700;1600;1500;1500;1400;1400;1300;1300;1200;1200"/>
<animate attributeName="visibility" dur="78.68s" keyTimes="0.0;0.0035460993;1.0" repeatCount="indefinite" values="visible;visible;visible"/> </circle>
<circle cx="3500" cy="-3000" fill="none" r="35" stroke="#c1433c" stroke-width="10"> <animate attributeName="cy" dur="78.68s" keyTimes="0.0;0.0035460993;0.0921985816;0.0957446809;0.1524822695;0.1560283688;0.2588652482;0.2624113475;0.304964539;0.3085106383;0.3404255319;0.3439716312;0.4716312057;0.475177305;0.5460992908;0.5496453901;0.6418439716;0.6453900709;0.7056737589;0.7092198582;0.7482269504;0.7517730496;0.8865248227;0.890070922;0.9468085106;0.9503546099;0.9822695035;0.9858156028;1.0" repeatCount="indefinite" values="-3000;-3000;-3000;-1600;-1600;-2200;-2200;-2700;-2700;-3000;-3000;-2000;-2000;-1600;-1600;-800;-800;-2400;-2400;-3300;-3300;-1100;-1100;-1700;-1700;-1500;-1500;-3500;-3500"/>
<animate attributeName="cx" dur="78.68s" keyTimes="0.0;0.0035460993;0.0921985816;0.0957446809;0.1524822695;0.1560283688;0.2588652482;0.2624113475;0.304964539;0.3085106383;0.3404255319;0.3439716312;0.4716312057;0.475177305;0.5460992908;0.5496453901;0.6418439716;0.6453900709;0.7056737589;0.7092198582;0.7482269504;0.7517730496;0.8865248227;0.890070922;0.9468085106;0.9503546099;0.9822695035;0.9858156028;1.0" repeatCount="indefinite" values="3500;3500;3500;3400;3400;1000;1000;1800;1800;1100;1100;3400;3400;1700;1700;3600;3600;3400;3400;3700;3700;2000;2000;900;900;1700;1700;3500;3500"/>
<animate attributeName="visibility" dur="78.68s" keyTimes="0.0;0.0035460993;1.0" repeatCount="indefinite" values="visible;visible;visible"/> </circle>
<circle cx="2600" cy="-2600" fill="none" r="35" stroke="#2e6f9e" stroke-width="10"> <animate attributeName="cy" dur="78.68s" keyTimes="0.0;0.0035460993;0.3262411348;0.329787234;1.0" repeatCount="indefinite" values="-2600;-2600;-2600;-2700;-2700"/>
<animate attributeName="cx" dur="78.68s" keyTimes="0.0;0.0035460993;0.3262411348;0.329787234;1.0" repeatCount="indefinite" values="2600;2600;2600;900;900"/>
<animate attributeName="visibility" dur="78.68s" keyTimes="0.0;0.0035460993;1.0" repeatCount="indefinite" values="visible;visible;visible"/> </circle>
</svg>