<?xml version="1.0" encoding="UTF-8"?>
        <svg xmlns="http://www.w3.org/2000/svg" xmlns:xlink="http://www.w3.org/1999/xlink"
             width="430" height="430" viewBox="0 -4300 4300 4300">

<defs>

</defs>

<rect fill="#84A1AE" height="70" rx="15" width="70" x="465" y="-535" />
<rect fill="#84A1AE" height="70" rx="15" width="70" x="465" y="-635" />
<rect fill="#84A1AE" height="70" rx="15" width="70" x="465" y="-735" />
<rect fill="#84A1AE" height="70" rx="15" width="70" x="465" y="-835" />
<rect fill="#84A1AE" height="70" rx="15" width="70" x="465" y="-935" />
<rect fill="#84A1AE" height="70" rx="15" width="70" x="465" y="-1035" />
<rect fill="#84A1AE" height="70" rx="15" width="70" x="465" y="-1135" />
<rect fill="#84A1AE" height="70" rx="15" width="70" x="465" y="-1235" />
<rect fill="#84A1AE" height="70" rx="15" width="70" x="465" y="-1335" />
<rect fill="#84A1AE" height="70" rx="15" width="70" x="465" y="-1435" />
<rect fill="#84A1AE" height="70" rx="15" width="70" x="465" y="-1535" />
<rect fill="#84A1AE" height="70" rx="15" width="70" x="465" y="-1635" />
<rect fill="#84A1AE" height="70" rx="15" width="70" x="465" y="-1735" />
<rect fill="#84A1AE" height="70" rx="15" width="70" x="465" y="-1835" />
<rect fill="#84A1AE" height="70" rx="15" width="70" x="465" y="-1935" />
<rect fill="#84A1AE" height="70" rx="15" width="70" x="465" y="-2035" />
<rect fill="#84A1AE" height="70" rx="15" width="70" x="465" y="-2135" />
<rect fill="#84A1AE" height="70" rx="15" width="70" x="465" y="-2235" />
<rect fill="#84A1AE" height="70" rx="15" width="70" x="465" y="-2335" />
<rect fill="#84A1AE" height="70" rx="15" width="70" x="465" y="-2435" />
<rect fill="#84A1AE" height="70" rx="15" width="70" x="465" y="-2535" />
<rect fill="#84A1AE" height="70" rx="15" width="70" x="465" y="-2635" />
<rect fill="#84A1AE" height="70" rx="15" width="70" x="465" y="-2735" />
<rect fill="#84A1AE" height="70" rx="15" width="70" x="465" y="-2835" />
<rect fill="#84A1AE" height="70" rx="15" width="70" x="465" y="-2935" />
<rect fill="#84A1AE" height="70" rx="15" width="70" x="465" y="-3035" />
<rect fill="#84A1AE" height="70" rx="15" width="70" x="465" y="-3135" />
<rect fill="#84A1AE" height="70" rx="15" width="70" x="465" y="-3235" />
<rect fill="#84A1AE" height="70" rx="15" width="70" x="465" y="-3335" />
<rect fill="#84A1AE" height="70" rx="15" width="70" x="465" y="-3435" />
<rect fill="#84A1AE" height="70" rx="15" width="70" x="465" y="-3535" />
<rect fill="#84A1AE" height="70" rx="15" width="70" x="465" y="-3635" />
<rect fill="#84A1AE" height="70" rx="15" width="70" x="465" y="-3735" />
<rect fill="#84A1AE" height="70" rx="15" width="70" x="465" y="-3835" />
<rect fill="#84A1AE" height="70" rx="15" width="70" x="565" y="-535" />
<rect fill="#84A1AE" height="70" rx="15" width="70" x="565" y="-1635" />
<rect fill="#84A1AE" height="70" rx="15" width="70" x="565" y="-1935" />
<rect fill="#84A1AE" height="70" rx="15" width="70" x="565" y="-2735" />
<rect fill="#84A1AE" height="70" rx="15" width="70" x="565" y="-3835" />
<rect fill="#84A1AE" height="70" rx="15" width="70" x="665" y="-535" />
<rect fill="#84A1AE" height="70" rx="15" width="70" x="665" y="-1035" />
<rect fill="#84A1AE" height="70" rx="15" width="70" x="665" y="-2535" />
<rect fill="#84A1AE" height="70" rx="15" width="70" x="665" y="-3035" />
<rect fill="#84A1AE" height="70" rx="15" width="70" x="665" y="-3235" />
<rect fill="#84A1AE" height="70" rx="15" width="70" x="665" y="-3835" />
<rect fill="#84A1AE" height="70" rx="15" width="70" x="765" y="-535" />
<rect fill="#84A1AE" height="70" rx="15" width="70" x="765" y="-635" />
<rect fill="#84A1AE" height="70" rx="15" width="70" x="765" y="-3835" />
<rect fill="#84A1AE" height="70" rx="15" width="70" x="865" y="-535" />
<rect fill="#84A1AE" height="70" rx="15" width="70" x="865" y="-2435" />
<rect fill="#84A1AE" height="70" rx="15" width="70" x="865" y="-2535" />
<rect fill="#84A1AE" height="70" rx="15" width="70" x="865" y="-3335" />
<rect fill="#84A1AE" height="70" rx="15" width="70" x="865" y="-3435" />
<rect fill="#84A1AE" height="70" rx="15" width="70" x="865" y="-3835" />
<rect fill="#84A1AE" height="70" rx="15" width="70" x="965" y="-535" />
<rect fill="#84A1AE" height="70" rx="15" width="70" x="965" y="-735" />
<rect fill="#84A1AE" height="70" rx="15" width="70" x="965" y="-1635" />
<rect fill="#84A1AE" height="70" rx="15" width="70" x="965" y="-1835" />
<rect fill="#84A1AE" height="70" rx="15" width="70" x="965" y="-2835" />
<rect fill="#84A1AE" height="70" rx="15" width="70" x="965" y="-3435" />
<rect fill="#84A1AE" height="70" rx="15" width="70" x="965" y="-3835" />
<rect fill="#84A1AE" height="70" rx="15" width="70" x="1065" y="-535" />
<rect fill="#84A1AE" height="70" rx="15" width="70" x="1065" y="-1135" />
<rect fill="#84A1AE" height="70" rx="15" width="70" x="1065" y="-1835" />
<rect fill="#84A1AE" height="70" rx="15" width="70" x="1065" y="-3735" />
<rect fill="#84A1AE" height="70" rx="15" width="70" x="1065" y="-3835" />
<rect fill="#84A1AE" height="70" rx="15" width="70" x="1165" y="-535" />
<rect fill="#84A1AE" height="70" rx="15" width="70" x="1165" y="-635" />
<rect fill="#84A1AE" height="70" rx="15" width="70" x="1165" y="-735" />
<rect fill="#84A1AE" height="70" rx="15" width="70" x="1165" y="-1535" />
<rect fill="#84A1AE" height="70" rx="15" width="70" x="1165" y="-3835" />
<rect fill="#84A1AE" height="70" rx="15" width="70" x="1265" y="-535" />
<rect fill="#84A1AE" height="70" rx="15" width="70" x="1265" y="-2835" />
<rect fill="#84A1AE" height="70" rx="15" width="70" x="1265" y="-3435" />
<rect fill="#84A1AE" height="70" rx="15" width="70" x="1265" y="-3835" />
<rect fill="#84A1AE" height="70" rx="15" width="70" x="1365" y="-535" />
<rect fill="#84A1AE" height="70" rx="15" width="70" x="1365" y="-835" />
<rect fill="#84A1AE" height="70" rx="15" width="70" x="1365" y="-935" />
<rect fill="#84A1AE" height="70" rx="15" width="70" x="1365" y="-1035" />
<rect fill="#84A1AE" height="70" rx="15" width="70" x="1365" y="-1935" />
<rect fill="#84A1AE" height="70" rx="15" width="70" x="1365" y="-2335" />
<rect fill="#84A1AE" height="70" rx="15" width="70" x="1365" y="-2635" />
<rect fill="#84A1AE" height="70" rx="15" width="70" x="1365" y="-2835" />
<rect fill="#84A1AE" height="70" rx="15" width="70" x="1365" y="-2935" />
<rect fill="#84A1AE" height="70" rx="15" width="70" x="1365" y="-3035" />
<rect fill="#84A1AE" height="70" rx="15" width="70" x="1365" y="-3335" />
<rect fill="#84A1AE" height="70" rx="15" width="70" x="1365" y="-3835" />
<rect fill="#84A1AE" height="70" rx="15" width="70" x="1465" y="-535" />
<rect fill="#84A1AE" height="70" rx="15" width="70" x="1465" y="-1235" />
<rect fill="#84A1AE" height="70" rx="15" width="70" x="1465" y="-1535" />
<rect fill="#84A1AE" height="70" rx="15" width="70" x="1465" y="-2035" />
<rect fill="#84A1AE" height="70" rx="15" width="70" x="1465" y="-3135" />
<rect fill="#84A1AE" height="70" rx="15" width="70" x="1465" y="-3235" />
<rect fill="#84A1AE" height="70" rx="15" width="70" x="1465" y="-3835" />
<rect fill="#84A1AE" height="70" rx="15" width="70" x="1565" y="-535" />
<rect fill="#84A1AE" height="70" rx="15" width="70" x="1565" y="-3035" />
<rect fill="#84A1AE" height="70" rx="15" width="70" x="1565" y="-3835" />
<rect fill="#84A1AE" height="70" rx="15" width="70" x="1665" y="-535" />
<rect fill="#84A1AE" height="70" rx="15" width="70" x="1665" y="-3735" />
<rect fill="#84A1AE" height="70" rx="15" width="70" x="1665" y="-3835" />
<rect fill="#84A1AE" height="70" rx="15" width="70" x="1765" y="-535" />
<rect fill="#84A1AE" height="70" rx="15" width="70" x="1765" y="-1235" />
<rect fill="#84A1AE" height="70" rx="15" width="70" x="1765" y="-3835" />
<rect fill="#84A1AE" height="70" rx="15" width="70" x="1865" y="-535" />
<rect fill="#84A1AE" height="70" rx="15" width="70" x="1865" y="-735" />
<rect fill="#84A1AE" height="70" rx="15" width="70" x="1865" y="-1335" />
<rect fill="#84A1AE" height="70" rx="15" width="70" x="1865" y="-3235" />
<rect fill="#84A1AE" height="70" rx="15" width="70" x="1865" y="-3435" />
<rect fill="#84A1AE" height="70" rx="15" width="70" x="1865" y="-3835" />
<rect fill="#84A1AE" height="70" rx="15" width="70" x="1965" y="-535" />
<rect fill="#84A1AE" height="70" rx="15" width="70" x="1965" y="-635" />
<rect fill="#84A1AE" height="70" rx="15" width="70" x="1965" y="-1835" />
<rect fill="#84A1AE" height="70" rx="15" width="70" x="1965" y="-1935" />
<rect fill="#84A1AE" height="70" rx="15" width="70" x="1965" y="-2135" />
<rect fill="#84A1AE" height="70" rx="15" width="70" x="1965" y="-2335" />
<rect fill="#84A1AE" height="70" rx="15" width="70" x="1965" y="-2435" />
<rect fill="#84A1AE" height="70" rx="15" width="70" x="1965" y="-3335" />
<rect fill="#84A1AE" height="70" rx="15" width="70" x="1965" y="-3835" />
<rect fill="#84A1AE" height="70" rx="15" width="70" x="2065" y="-535" />
<rect fill="#84A1AE" height="70" rx="15" width="70" x="2065" y="-1535" />
<rect fill="#84A1AE" height="70" rx="15" width="70" x="2065" y="-1635" />
<rect fill="#84A1AE" height="70" rx="15" width="70" x="2065" y="-2135" />
<rect fill="#84A1AE" height="70" rx="15" width="70" x="2065" y="-3835" />
<rect fill="#84A1AE" height="70" rx="15" width="70" x="2165" y="-535" />
<rect fill="#84A1AE" height="70" rx="15" width="70" x="2165" y="-935" />
<rect fill="#84A1AE" height="70" rx="15" width="70" x="2165" y="-1335" />
<rect fill="#84A1AE" height="70" rx="15" width="70" x="2165" y="-1835" />
<rect fill="#84A1AE" height="70" rx="15" width="70" x="2165" y="-3835" />
<rect fill="#84A1AE" height="70" rx="15" width="70" x="2265" y="-535" />
<rect fill="#84A1AE" height="70" rx="15" width="70" x="2265" y="-935" />
<rect fill="#84A1AE" height="70" rx="15" width="70" x="2265" y="-1135" />
<rect fill="#84A1AE" height="70" rx="15" width="70" x="2265" y="-2535" />
<rect fill="#84A1AE" height="70" rx="15" width="70" x="2265" y="-3235" />
<rect fill="#84A1AE" height="70" rx="15" width="70" x="2265" y="-3835" />
<rect fill="#84A1AE" height="70" rx="15" width="70" x="2365" y="-535" />
<rect fill="#84A1AE" height="70" rx="15" width="70" x="2365" y="-935" />
<rect fill="#84A1AE" height="70" rx="15" width="70" x="2365" y="-1035" />
<rect fill="#84A1AE" height="70" rx="15" width="70" x="2365" y="-3835" />
<rect fill="#84A1AE" height="70" rx="15" width="70" x="2465" y="-535" />
<rect fill="#84A1AE" height="70" rx="15" width="70" x="2465" y="-935" />
<rect fill="#84A1AE" height="70" rx="15" width="70" x="2465" y="-1535" />
<rect fill="#84A1AE" height="70" rx="15" width="70" x="2465" y="-2335" />
<rect fill="#84A1AE" height="70" rx="15" width="70" x="2465" y="-2735" />
<rect fill="#84A1AE" height="70" rx="15" width="70" x="2465" y="-3835" />
<rect fill="#84A1AE" height="70" rx="15" width="70" x="2565" y="-535" />
<rect fill="#84A1AE" height="70" rx="15" width="70" x="2565" y="-735" />
<rect fill="#84A1AE" height="70" rx="15" width="70" x="2565" y="-2535" />
<rect fill="#84A1AE" height="70" rx="15" width="70" x="2565" y="-3835" />
<rect fill="#84A1AE" height="70" rx="15" width="70" x="2665" y="-535" />
<rect fill="#84A1AE" height="70" rx="15" width="70" x="2665" y="-635" />
<rect fill="#84A1AE" height="70" rx="15" width="70" x="2665" y="-1135" />
<rect fill="#84A1AE" height="70" rx="15" width="70" x="2665" y="-1435" />
<rect fill="#84A1AE" height="70" rx="15" width="70" x="2665" y="-2735" />
<rect fill="#84A1AE" height="70" rx="15" width="70" x="2665" y="-3835" />
<rect fill="#84A1AE" height="70" rx="15" width="70" x="2765" y="-535" />
<rect fill="#84A1AE" height="70" rx="15" width="70" x="2765" y="-1635" />
<rect fill="#84A1AE" height="70" rx="15" width="70" x="2765" y="-1835" />
<rect fill="#84A1AE" height="70" rx="15" width="70" x="2765" y="-1935" />
<rect fill="#84A1AE" height="70" rx="15" width="70" x="2765" y="-2235" />
<rect fill="#84A1AE" height="70" rx="15" width="70" x="2765" y="-3735" />
<rect fill="#84A1AE" height="70" rx="15" width="70" x="2765" y="-3835" />
<rect fill="#84A1AE" height="70" rx="15" width="70" x="2865" y="-535" />
<rect fill="#84A1AE" height="70" rx="15" width="70" x="2865" y="-3835" />
<rect fill="#84A1AE" height="70" rx="15" width="70" x="2965" y="-535" />
<rect fill="#84A1AE" height="70" rx="15" width="70" x="2965" y="-2635" />
<rect fill="#84A1AE" height="70" rx="15" width="70" x="2965" y="-3835" />
<rect fill="#84A1AE" height="70" rx="15" width="70" x="3065" y="-535" />
<rect fill="#84A1AE" height="70" rx="15" width="70" x="3065" y="-735" />
<rect fill="#84A1AE" height="70" rx="15" width="70" x="3065" y="-2535" />
<rect fill="#84A1AE" height="70" rx="15" width="70" x="3065" y="-3835" />
<rect fill="#84A1AE" height="70" rx="15" width="70" x="3165" y="-535" />
<rect fill="#84A1AE" height="70" rx="15" width="70" x="3165" y="-835" />
<rect fill="#84A1AE" height="70" rx="15" width="70" x="3165" y="-1935" />
<rect fill="#84A1AE" height="70" rx="15" width="70" x="3165" y="-2735" />
<rect fill="#84A1AE" height="70" rx="15" width="70" x="3165" y="-3135" />
<rect fill="#84A1AE" height="70" rx="15" width="70" x="3165" y="-3835" />
<rect fill="#84A1AE" height="70" rx="15" width="70" x="3265" y="-535" />
<rect fill="#84A1AE" height="70" rx="15" width="70" x="3265" y="-1035" />
<rect fill="#84A1AE" height="70" rx="15" width="70" x="3265" y="-1735" />
<rect fill="#84A1AE" height="70" rx="15" width="70" x="3265" y="-3835" />
<rect fill="#84A1AE" height="70" rx="15" width="70" x="3365" y="-535" />
<rect fill="#84A1AE" height="70" rx="15" width="70" x="3365" y="-1435" />
<rect fill="#84A1AE" height="70" rx="15" width="70" x="3365" y="-1935" />
<rect fill="#84A1AE" height="70" rx="15" width="70" x="3365" y="-2135" />
<rect fill="#84A1AE" height="70" rx="15" width="70" x="3365" y="-3835" />
<rect fill="#84A1AE" height="70" rx="15" width="70" x="3465" y="-535" />
<rect fill="#84A1AE" height="70" rx="15" width="70" x="3465" y="-2635" />
<rect fill="#84A1AE" height="70" rx="15" width="70" x="3465" y="-3835" />
<rect fill="#84A1AE" height="70" rx="15" width="70" x="3565" y="-535" />
<rect fill="#84A1AE" height="70" rx="15" width="70" x="3565" y="-635" />
<rect fill="#84A1AE" height="70" rx="15" width="70" x="3565" y="-2435" />
<rect fill="#84A1AE" height="70" rx="15" width="70" x="3565" y="-3235" />
<rect fill="#84A1AE" height="70" rx="15" width="70" x="3565" y="-3835" />
<rect fill="#84A1AE" height="70" rx="15" width="70" x="3665" y="-535" />
<rect fill="#84A1AE" height="70" rx="15" width="70" x="3665" y="-2135" />
<rect fill="#84A1AE" height="70" rx="15" width="70" x="3665" y="-2835" />
<rect fill="#84A1AE" height="70" rx="15" width="70" x="3665" y="-3135" />
<rect fill="#84A1AE" height="70" rx="15" width="70" x="3665" y="-3735" />
<rect fill="#84A1AE" height="70" rx="15" width="70" x="3665" y="-3835" />
<rect fill="#84A1AE" height="70" rx="15" width="70" x="3765" y="-535" />
<rect fill="#84A1AE" height="70" rx="15" width="70" x="3765" y="-635" />
<rect fill="#84A1AE" height="70" rx="15" width="70" x="3765" y="-735" />
<rect fill="#84A1AE" height="70" rx="15" width="70" x="3765" y="-835" />
<rect fill="#84A1AE" height="70" rx="15" width="70" x="3765" y="-935" />
<rect fill="#84A1AE" height="70" rx="15" width="70" x="3765" y="-1035" />
<rect fill="#84A1AE" height="70" rx="15" width="70" x="3765" y="-1135" />
<rect fill="#84A1AE" height="70" rx="15" width="70" x="3765" y="-1235" />
<rect fill="#84A1AE" height="70" rx="15" width="70" x="3765" y="-1335" />
<rect fill="#84A1AE" height="70" rx="15" width="70" x="3765" y="-1435" />
<rect fill="#84A1AE" height="70" rx="15" width="70" x="3765" y="-1535" />
<rect fill="#84A1AE" height="70" rx="15" width="70" x="3765" y="-1635" />
<rect fill="#84A1AE" height="70" rx="15" width="70" x="3765" y="-1735" />
<rect fill="#84A1AE" height="70" rx="15" width="70" x="3765" y="-1835" />
<rect fill="#84A1AE" height="70" rx="15" width="70" x="3765" y="-1935" />
<rect fill="#84A1AE" height="70" rx="15" width="70" x="3765" y="-2035" />
<rect fill="#84A1AE" height="70" rx="15" width="70" x="3765" y="-2135" />
<rect fill="#84A1AE" height="70" rx="15" width="70" x="3765" y="-2235" />
<rect fill="#84A1AE" height="70" rx="15" width="70" x="3765" y="-2335" />
<rect fill="#84A1AE" height="70" rx="15" width="70" x="3765" y="-2435" />
<rect fill="#84A1AE" height="70" rx="15" width="70" x="3765" y="-2535" />
<rect fill="#84A1AE" height="70" rx="15" width="70" x="3765" y="-2635" />
<rect fill="#84A1AE" height="70" rx="15" width="70" x="3765" y="-2735" />
<rect fill="#84A1AE" height="70" rx="15" width="70" x="3765" y="-2835" />
<rect fill="#84A1AE" height="70" rx="15" width="70" x="3765" y="-2935" />
<rect fill="#84A1AE" height="70" rx="15" width="70" x="3765" y="-3035" />
<rect fill="#84A1AE" height="70" rx="15" width="70" x="3765" y="-3135" />
<rect fill="#84A1AE" height="70" rx="15" width="70" x="3765" y="-3235" />
<rect fill="#84A1AE" height="70" rx="15" width="70" x="3765" y="-3335" />
<rect fill="#84A1AE" height="70" rx="15" width="70" x="3765" y="-3435" />
<rect fill="#84A1AE" height="70" rx="15" width="70" x="3765" y="-3535" />
<rect fill="#84A1AE" height="70" rx="15" width="70" x="3765" y="-3635" />
<rect fill="#84A1AE" height="70" rx="15" width="70" x="3765" y="-3735" />
<rect fill="#84A1AE" height="70" rx="15" width="70" x="3765" y="-3835" />
<circle cx="2500" cy="-1400" fill="#c1433c" r="35"> <animate attributeName="cy" dur="92.68s" keyTimes="0.0;0.0030120482;0.0060240964;0.0090361446;0.0120481928;0.015060241;0.0180722892;0.0271084337;0.0301204819;0.0421686747;0.0451807229;0.0481927711;0.0512048193;0.0542168675;0.0753012048;0.078313253;0.0813253012;0.0843373494;0.0873493976;0.0903614458;0.093373494;0.0963855422;0.0993975904;0.1024096386;0.1054216867;0.1084337349;0.1114457831;0.1295180723;0.1325301205;0.1355421687;0.1385542169;0.1415662651;0.1445783133;0.1475903614;0.1506024096;0.1536144578;0.156626506;0.1596385542;0.1626506024;0.1656626506;0.1686746988;0.171686747;0.1746987952;0.1777108434;0.1807228916;0.1837349398;0.186746988;0.1927710843;0.1957831325;0.1987951807;0.2138554217;0.2168674699;0.2198795181;0.2228915663;0.2259036145;0.2289156627;0.2319277108;0.234939759;0.2379518072;0.2439759036;0.2469879518;0.25;0.2530120482;0.2560240964;0.2590361446;0.2620481928;0.2680722892;0.2710843373;0.2740963855;0.2951807229;0.2981927711;0.3072289157;0.3102409639;0.313253012;0.3162650602;0.3192771084;0.3222891566;0.3253012048;0.3765060241;0.3795180723;0.3885542169;0.3915662651;0.4126506024;0.4156626506;0.4186746988;0.421686747;0.4277108434;0.4307228916;0.4337349398;0.436746988;0.4397590361;0.4427710843;0.4457831325;0.4487951807;0.4518072289;0.4548192771;0.4578313253;0.4608433735;0.4728915663;0.4759036145;0.4789156627;0.4819277108;0.484939759;0.4879518072;0.4909638554;0.4939759036;0.4969879518;0.5;0.5030120482;0.5060240964;0.5090361446;0.5120481928;0.515060241;0.5180722892;0.5210843373;0.5240963855;0.5271084337;0.5301204819;0.5331325301;0.5361445783;0.5391566265;0.5421686747;0.563253012;0.5662650602;0.5753012048;0.578313253;0.5813253012;0.5843373494;0.5873493976;0.5903614458;0.593373494;0.5963855422;0.5993975904;0.6024096386;0.6054216867;0.6084337349;0.6415662651;0.6445783133;0.6475903614;0.656626506;0.6596385542;0.686746988;0.6897590361;0.6927710843;0.6957831325;0.6987951807;0.7018072289;0.7048192771;0.7078313253;0.7108433735;0.7138554217;0.7228915663;0.7259036145;0.7289156627;0.7409638554;0.7439759036;0.7469879518;0.7680722892;0.7710843373;0.7740963855;0.7771084337;0.7801204819;0.7831325301;0.7861445783;0.7891566265;0.7921686747;0.7951807229;0.7981927711;0.8012048193;0.8042168675;0.8072289157;0.8102409639;0.813253012;0.8162650602;0.8192771084;0.8222891566;0.8313253012;0.8343373494;0.8373493976;0.8403614458;0.8554216867;0.8584337349;0.8614457831;0.8855421687;0.8885542169;0.8915662651;0.8945783133;0.8975903614;0.9006024096;0.906626506;0.9096385542;0.9126506024;0.9186746988;0.921686747;0.9246987952;0.9277108434;0.9307228916;0.9337349398;0.936746988;0.9397590361;0.9427710843;0.9457831325;0.9487951807;0.9518072289;0.9548192771;0.9668674699;0.9698795181;0.9728915663;0.9759036145;0.9789156627;0.9879518072;0.9909638554;0.9939759036;0.9969879518;1.0" repeatCount="indefinite" values="-1400;-1400;-1400;-1500;-1500;-1600;-1700;-1700;-1600;-1600;-1700;-1800;-1800;-1700;-1700;-1600;-1500;-1500;-1600;-1600;-1700;-1700;-1800;-1800;-1700;-1800;-1700;-1700;-1800;-1900;-1800;-1900;-2000;-1900;-2000;-1900;-2000;-2000;-1900;-2000;-2100;-2100;-2000;-2100;-2200;-2200;-2300;-2300;-2400;-2300;-2300;-2400;-2500;-2400;-2500;-2600;-2700;-2800;-2900;-2900;-2800;-2700;-2800;-2800;-2900;-3000;-3000;-3100;-3000;-3000;-3100;-3100;-3000;-3000;-3100;-3000;-2900;-3000;-3000;-2900;-2900;-3000;-3000;-2900;-2800;-2700;-2700;-2800;-2800;-2700;-2700;-2600;-2600;-2500;-2500;-2400;-2400;-2300;-2300;-2200;-2200;-2300;-2200;-2100;-2100;-2000;-1900;-1800;-1700;-1600;-1500;-1500;-1400;-1500;-1600;-1700;-1700;-1800;-1900;-1800;-1800;-1700;-1700;-1800;-1800;-1700;-1800;-1700;-1600;-1600;-1700;-1800;-1800;-1700;-1800;-1700;-1700;-1800;-1900;-1900;-1800;-1800;-1700;-1700;-1800;-1700;-1600;-1500;-1400;-1500;-1400;-1400;-1300;-1400;-1400;-1500;-1600;-1600;-1700;-1700;-1600;-1600;-1700;-1700;-1800;-1800;-1700;-1700;-1800;-1800;-1900;-1800;-1700;-1600;-1600;-1500;-1500;-1400;-1500;-1400;-1400;-1500;-1400;-1400;-1300;-1300;-1200;-1300;-1400;-1400;-1500;-1600;-1600;-1700;-1800;-1800;-1900;-1800;-1800;-1900;-1800;-1700;-1700;-1600;-1500;-1500;-1600;-1700;-1700;-1800;-1800;-1900;-1900;-1800;-1800"/>
<animate attributeName="cx" dur="92.68s" keyTimes="0.0;0.0030120482;0.0060240964;0.0180722892;0.0210843373;0.0240963855;0.0271084337;0.0301204819;0.0331325301;0.0361445783;0.0391566265;0.0421686747;0.0542168675;0.0572289157;0.063253012;0.0662650602;0.0692771084;0.0722891566;0.0753012048;0.0873493976;0.0903614458;0.093373494;0.0963855422;0.0993975904;0.1024096386;0.1114457831;0.1144578313;0.1234939759;0.1265060241;0.1295180723;0.1686746988;0.171686747;0.1807228916;0.1837349398;0.186746988;0.1897590361;0.1987951807;0.2018072289;0.2048192771;0.2078313253;0.2108433735;0.2138554217;0.2530120482;0.2560240964;0.2620481928;0.265060241;0.2740963855;0.2771084337;0.2801204819;0.2831325301;0.2861445783;0.2891566265;0.2921686747;0.2951807229;0.2981927711;0.3012048193;0.3042168675;0.3102409639;0.313253012;0.3253012048;0.328313253;0.3313253012;0.3343373494;0.3373493976;0.3403614458;0.343373494;0.3524096386;0.3554216867;0.3584337349;0.3614457831;0.3644578313;0.3674698795;0.3704819277;0.3734939759;0.3765060241;0.3795180723;0.3825301205;0.3855421687;0.3885542169;0.3915662651;0.3945783133;0.3975903614;0.4006024096;0.4036144578;0.406626506;0.4096385542;0.4126506024;0.421686747;0.4246987952;0.4277108434;0.4307228916;0.4337349398;0.436746988;0.4397590361;0.4427710843;0.4457831325;0.4487951807;0.4518072289;0.4548192771;0.4578313253;0.4608433735;0.4638554217;0.4668674699;0.4698795181;0.4728915663;0.4759036145;0.4789156627;0.4879518072;0.4909638554;0.5090361446;0.5120481928;0.5240963855;0.5271084337;0.5361445783;0.5391566265;0.5421686747;0.5451807229;0.5512048193;0.5542168675;0.5572289157;0.5602409639;0.563253012;0.5662650602;0.5692771084;0.5722891566;0.5753012048;0.5873493976;0.5903614458;0.5963855422;0.5993975904;0.6084337349;0.6114457831;0.6144578313;0.6174698795;0.6204819277;0.6234939759;0.6265060241;0.6295180723;0.6325301205;0.6355421687;0.6385542169;0.6415662651;0.6475903614;0.6506024096;0.6536144578;0.656626506;0.6596385542;0.6626506024;0.6686746988;0.671686747;0.6746987952;0.6777108434;0.6807228916;0.6837349398;0.686746988;0.6897590361;0.6927710843;0.7138554217;0.7168674699;0.7319277108;0.734939759;0.7379518072;0.7409638554;0.7469879518;0.75;0.7530120482;0.7560240964;0.7590361446;0.7620481928;0.765060241;0.7710843373;0.7740963855;0.8162650602;0.8192771084;0.8222891566;0.8253012048;0.828313253;0.843373494;0.8463855422;0.8493975904;0.8524096386;0.8554216867;0.8614457831;0.8644578313;0.8674698795;0.8704819277;0.8734939759;0.8765060241;0.8795180723;0.8825301205;0.8855421687;0.8885542169;0.8915662651;0.9006024096;0.9036144578;0.9156626506;0.9186746988;0.9246987952;0.9277108434;0.9337349398;0.936746988;0.9457831325;0.9487951807;0.9608433735;0.9638554217;0.9728915663;0.9759036145;0.9789156627;0.9819277108;0.984939759;0.9879518072;1.0" repeatCount="indefinite" values="2500;2500;2400;2400;2300;2200;2300;2300;2400;2500;2600;2700;2700;2800;2800;2700;2800;2700;2600;2600;2700;2700;2600;2600;2700;2700;2800;2800;2700;2600;2600;2700;2700;2600;2600;2700;2700;2600;2600;2700;2800;2900;2900;3000;3000;3100;3100;3200;3300;3300;3200;3300;3300;3400;3400;3500;3600;3600;3500;3500;3400;3500;3400;3300;3200;3100;3100;3000;3100;3000;2900;3000;2900;2800;2700;2700;2800;2700;2600;2600;2500;2600;2700;2800;2900;2900;3000;3000;2900;3000;3000;2900;2900;2800;2800;2900;2900;2800;2800;2700;2700;2800;2800;2900;3000;3000;3100;3100;3000;3000;2900;2900;3000;3000;2900;2900;2800;2800;2700;2800;2800;2700;2700;2600;2500;2400;2400;2300;2300;2400;2400;2300;2300;2200;2100;2100;2000;1900;1800;1700;1700;1600;1600;1700;1600;1700;1700;1800;1800;1700;1600;1600;1700;1800;1700;1700;1600;1600;1500;1500;1400;1500;1400;1400;1300;1200;1300;1300;1400;1300;1300;1200;1200;1100;1100;1000;1100;1100;1000;1100;1200;1100;1100;1200;1100;1200;1100;1200;1100;1200;1100;1100;1200;1200;1300;1300;1400;1400;1300;1300;1200;1200;1300;1300;1400;1400;1500;1500;1400;1400;1300;1300"/>
<animate attributeName="visibility" dur="92.68s" keyTimes="0.0;0.0030120482;1.0" repeatCount="indefinite" values="visible;visible;visible"/> </circle>
<circle cx="3000" cy="-1900" fill="#2e6f9e" r="35"> <animate attributeName="cy" dur="92.68s" keyTimes="0.0;0.0030120482;0.0060240964;0.0090361446;0.0120481928;0.015060241;0.0180722892;0.0210843373;0.0240963855;0.0271084337;0.0301204819;0.0331325301;0.0481927711;0.0512048193;0.0542168675;0.0572289157;0.0602409639;0.063253012;0.0662650602;0.0692771084;0.0722891566;0.0753012048;0.078313253;0.0813253012;0.0843373494;0.0873493976;0.0903614458;0.093373494;0.0963855422;0.0993975904;0.1024096386;0.1054216867;0.1144578313;0.1174698795;0.1204819277;0.1234939759;0.1265060241;0.1385542169;0.1415662651;0.1475903614;0.1506024096;0.1536144578;0.1656626506;0.1686746988;0.1777108434;0.1807228916;0.1927710843;0.1957831325;0.1987951807;0.2018072289;0.2198795181;0.2228915663;0.2259036145;0.2289156627;0.2439759036;0.2469879518;0.25;0.2530120482;0.2560240964;0.2590361446;0.2620481928;0.265060241;0.2680722892;0.2710843373;0.2740963855;0.2771084337;0.2921686747;0.2951807229;0.3072289157;0.3102409639;0.313253012;0.3162650602;0.3192771084;0.3222891566;0.3253012048;0.328313253;0.3313253012;0.3343373494;0.3373493976;0.3915662651;0.3945783133;0.4036144578;0.406626506;0.4427710843;0.4457831325;0.4789156627;0.4819277108;0.4879518072;0.4909638554;0.4939759036;0.4969879518;0.5;0.5030120482;0.5120481928;0.515060241;0.5180722892;0.5210843373;0.5421686747;0.5451807229;0.5481927711;0.5512048193;0.5753012048;0.578313253;0.5963855422;0.5993975904;0.6024096386;0.6054216867;0.6325301205;0.6355421687;0.6385542169;0.6415662651;0.6596385542;0.6626506024;0.6656626506;0.6686746988;0.6807228916;0.6837349398;0.6897590361;0.6927710843;0.7018072289;0.7048192771;0.7078313253;0.7108433735;0.7138554217;0.7168674699;0.7198795181;0.7228915663;0.7259036145;0.7289156627;0.7319277108;0.734939759;0.7379518072;0.7409638554;0.7439759036;0.7469879518;0.75;0.7530120482;0.7560240964;0.7921686747;0.7951807229;0.8102409639;0.813253012;0.8192771084;0.8222891566;0.8253012048;0.828313253;0.8313253012;0.8343373494;0.8373493976;0.8403614458;0.843373494;0.8463855422;0.8493975904;0.8524096386;0.8554216867;0.8584337349;0.8614457831;0.8644578313;0.8674698795;0.8704819277;0.8734939759;0.8765060241;0.8795180723;0.8825301205;0.8855421687;0.8885542169;0.8915662651;0.8945783133;0.8975903614;0.9006024096;0.9036144578;0.906626506;0.9096385542;0.9126506024;0.9156626506;0.9186746988;0.921686747;0.9246987952;0.9277108434;0.9307228916;0.9337349398;0.936746988;0.9397590361;0.9427710843;0.9457831325;0.9487951807;0.9518072289;0.9548192771;0.9578313253;0.9608433735;0.9638554217;0.9668674699;0.9698795181;0.9728915663;0.9759036145;0.9909638554;0.9939759036;0.9969879518;1.0" repeatCount="indefinite" values="-1900;-1900;-1900;-2000;-2100;-2200;-2300;-2400;-2400;-2500;-2500;-2600;-2600;-2500;-2400;-2300;-2200;-2100;-2000;-1900;-1900;-1800;-1700;-1700;-1600;-1700;-1700;-1800;-1900;-2000;-2100;-2200;-2200;-2300;-2200;-2200;-2100;-2100;-2000;-2000;-1900;-1800;-1800;-1700;-1700;-1800;-1800;-1900;-1900;-2000;-2000;-2100;-2100;-2200;-2200;-2100;-2000;-1900;-1800;-1700;-1600;-1500;-1400;-1300;-1200;-1100;-1100;-1000;-1000;-900;-800;-700;-800;-900;-1000;-1100;-1200;-1300;-1400;-1400;-1500;-1500;-1600;-1600;-1700;-1700;-1800;-1800;-1900;-2000;-2100;-2100;-2200;-2200;-2300;-2300;-2400;-2400;-2300;-2300;-2200;-2200;-2100;-2100;-2000;-1900;-1800;-1800;-1900;-1900;-2000;-2000;-2100;-2100;-2200;-2200;-2300;-2300;-2400;-2400;-2500;-2600;-2600;-2700;-2800;-2900;-3000;-3000;-3100;-3100;-3200;-3200;-3100;-3000;-2900;-2800;-2800;-2700;-2700;-2600;-2600;-2500;-2500;-2400;-2300;-2200;-2100;-2000;-1900;-1800;-1700;-1600;-1500;-1500;-1400;-1500;-1500;-1600;-1700;-1800;-1900;-2000;-2100;-2200;-2300;-2400;-2500;-2500;-2400;-2400;-2300;-2200;-2100;-2000;-1900;-1800;-1700;-1600;-1500;-1400;-1300;-1200;-1200;-1100;-1100;-1000;-1000;-900;-900;-800;-700;-600;-700;-800;-900;-900;-1000;-1100;-1100"/>
<animate attributeName="cx" dur="92.68s" keyTimes="0.0;0.0030120482;0.0060240964;0.0210843373;0.0240963855;0.0271084337;0.0301204819;0.0331325301;0.0361445783;0.0391566265;0.0421686747;0.0451807229;0.0481927711;0.0692771084;0.0722891566;0.078313253;0.0813253012;0.0873493976;0.0903614458;0.1054216867;0.1084337349;0.1114457831;0.1144578313;0.1204819277;0.1234939759;0.1265060241;0.1295180723;0.1325301205;0.1355421687;0.1385542169;0.1415662651;0.1445783133;0.1475903614;0.1536144578;0.156626506;0.1596385542;0.1626506024;0.1656626506;0.1686746988;0.171686747;0.1746987952;0.1777108434;0.1807228916;0.1837349398;0.186746988;0.1897590361;0.1927710843;0.1957831325;0.1987951807;0.2018072289;0.2048192771;0.2078313253;0.2108433735;0.2138554217;0.2168674699;0.2198795181;0.2228915663;0.2259036145;0.2289156627;0.2319277108;0.234939759;0.2379518072;0.2409638554;0.2439759036;0.2771084337;0.2801204819;0.2831325301;0.2861445783;0.2891566265;0.2921686747;0.2951807229;0.2981927711;0.3012048193;0.3042168675;0.3072289157;0.3373493976;0.3403614458;0.343373494;0.3463855422;0.3493975904;0.3524096386;0.3554216867;0.3584337349;0.3614457831;0.3644578313;0.3674698795;0.3704819277;0.3734939759;0.3765060241;0.3795180723;0.3825301205;0.3855421687;0.3885542169;0.3915662651;0.3945783133;0.3975903614;0.4006024096;0.4036144578;0.406626506;0.4096385542;0.4126506024;0.4156626506;0.4186746988;0.421686747;0.4246987952;0.4277108434;0.4307228916;0.4337349398;0.436746988;0.4397590361;0.4427710843;0.4457831325;0.4487951807;0.4518072289;0.4548192771;0.4578313253;0.4608433735;0.4638554217;0.4668674699;0.4698795181;0.4728915663;0.4759036145;0.4789156627;0.4819277108;0.484939759;0.4879518072;0.4969879518;0.5;0.5030120482;0.5060240964;0.5090361446;0.5120481928;0.515060241;0.5180722892;0.5210843373;0.5240963855;0.5271084337;0.5301204819;0.5331325301;0.5361445783;0.5391566265;0.5421686747;0.5451807229;0.5481927711;0.5512048193;0.5542168675;0.5572289157;0.5602409639;0.563253012;0.5662650602;0.5692771084;0.5722891566;0.5753012048;0.578313253;0.5813253012;0.5843373494;0.5873493976;0.5903614458;0.593373494;0.5963855422;0.6054216867;0.6084337349;0.6114457831;0.6144578313;0.6174698795;0.6204819277;0.6234939759;0.6265060241;0.6295180723;0.6325301205;0.6355421687;0.6385542169;0.6415662651;0.6445783133;0.6475903614;0.6506024096;0.6536144578;0.656626506;0.6596385542;0.6626506024;0.6656626506;0.6686746988;0.671686747;0.6746987952;0.6777108434;0.6807228916;0.6837349398;0.686746988;0.6897590361;0.6927710843;0.6957831325;0.6987951807;0.7018072289;0.7078313253;0.7108433735;0.7228915663;0.7259036145;0.7289156627;0.7319277108;0.734939759;0.7379518072;0.75;0.7530120482;0.7560240964;0.7590361446;0.7620481928;0.765060241;0.7680722892;0.7710843373;0.7740963855;0.7771084337;0.7801204819;0.7831325301;0.7861445783;0.7891566265;0.7921686747;0.7951807229;0.7981927711;0.8012048193;0.8042168675;0.8072289157;0.8102409639;0.813253012;0.8162650602;0.8192771084;0.8493975904;0.8524096386;0.8584337349;0.8614457831;0.8915662651;0.8945783133;0.8975903614;0.9006024096;0.936746988;0.9397590361;0.9427710843;0.9457831325;0.9487951807;0.9518072289;0.9548192771;0.9578313253;0.9759036145;0.9789156627;0.9819277108;0.984939759;0.9879518072;0.9909638554;1.0" repeatCount="indefinite" values="3000;3000;2900;2900;2800;2800;2700;2700;2600;2500;2400;2300;2200;2200;2100;2100;2200;2200;2300;2300;2400;2500;2600;2600;2700;2700;2800;2900;3000;3100;3100;3200;3300;3300;3400;3500;3600;3700;3700;3600;3500;3400;3400;3300;3200;3100;3000;3000;2900;2900;2800;2700;2600;2500;2400;2300;2300;2200;2200;2100;2000;1900;1800;1700;1700;1600;1500;1400;1300;1200;1200;1100;1000;900;800;800;900;1000;1100;1200;1300;1400;1500;1600;1700;1800;1900;2000;2100;2200;2300;2400;2500;2600;2600;2700;2800;2900;2900;3000;3100;3200;3300;3400;3500;3400;3300;3200;3100;3000;2900;2900;2800;2700;2600;2500;2400;2300;2200;2100;2000;1900;1800;1800;1700;1600;1600;1500;1500;1400;1300;1200;1200;1100;1100;1200;1300;1400;1500;1600;1700;1800;1800;1900;1900;2000;2100;2200;2300;2400;2500;2600;2700;2700;2800;2900;3000;3100;3200;3300;3300;3400;3500;3600;3500;3400;3300;3200;3100;3000;3000;2900;2900;2800;2700;2600;2500;2400;2300;2300;2200;2200;2100;2000;1900;1800;1800;1700;1600;1600;1500;1400;1300;1300;1200;1200;1100;1100;1000;1000;1100;1100;1200;1200;1300;1400;1500;1600;1700;1800;1900;2000;2100;2200;2300;2400;2400;2500;2600;2700;2800;2900;2900;3000;2900;2900;2800;2800;2700;2700;2800;2800;2900;2900;3000;3000;3100;3100;3200;3200;3300;3300;3200;3100;3000;2900;2800;2800"/>
<animate attributeName="visibility" dur="92.68s" keyTimes="0.0;0.0030120482;1.0" repeatCount="indefinite" values="visible;visible;visible"/> </circle>
<circle cx="3500" cy="-3000" fill="none" r="35" stroke="#c1433c" stroke-width="10"> <animate attributeName="cy" dur="92.68s" keyTimes="0.0;0.0030120482;0.3915662651;0.3945783133;0.5030120482;0.5060240964;0.9728915663;0.9759036145;1.0" repeatCount="indefinite" values="-3000;-3000;-3000;-1600;-1600;-1700;-1700;-3300;-3300"/>
<animate attributeName="cx" dur="92.68s" keyTimes="0.0;0.0030120482;0.3102409639;0.313253012;0.3915662651;0.3945783133;0.5030120482;0.5060240964;0.9728915663;0.9759036145;1.0" repeatCount="indefinite" values="3500;3500;3500;2500;2500;3000;3000;1500;1500;1600;1600"/>
<animate attributeName="visibility" dur="92.68s" keyTimes="0.0;0.0030120482;1.0" repeatCount="indefinite" values="visible;visible;visible"/> </circle>
<circle cx="2600" cy="-2600" fill="none" r="35" stroke="#2e6f9e" stroke-width="10"> <animate attributeName="cy" dur="92.68s" keyTimes="0.0;0.0030120482;0.0331325301;0.0361445783;0.0813253012;0.0843373494;0.1144578313;0.1174698795;0.1656626506;0.1686746988;0.2259036145;0.2289156627;0.2740963855;0.2771084337;0.313253012;0.3162650602;0.421686747;0.4246987952;0.5180722892;0.5210843373;0.6114457831;0.6144578313;0.7319277108;0.734939759;0.813253012;0.8162650602;0.8524096386;0.8554216867;0.8915662651;0.8945783133;0.9638554217;0.9668674699;1.0" repeatCount="indefinite" values="-2600;-2600;-2600;-1600;-1600;-2300;-2300;-1700;-1700;-2200;-2200;-1100;-1100;-700;-700;-1600;-1600;-2400;-2400;-1800;-1800;-3200;-3200;-2500;-2500;-1400;-1400;-2500;-2500;-600;-600;-2200;-2200"/>
<animate attributeName="cx" dur="92.68s" keyTimes="0.0;0.0030120482;0.0331325301;0.0361445783;0.0813253012;0.0843373494;0.1144578313;0.1174698795;0.1656626506;0.1686746988;0.2259036145;0.2289156627;0.2740963855;0.2771084337;0.313253012;0.3162650602;0.421686747;0.4246987952;0.5180722892;0.5210843373;0.6114457831;0.6144578313;0.7319277108;0.734939759;0.813253012;0.8162650602;0.8915662651;0.8945783133;0.9638554217;0.9668674699;1.0" repeatCount="indefinite" values="2600;2600;2600;2200;2200;2600;2600;3700;3700;2200;2200;1700;1700;800;800;3500;3500;1100;1100;3600;3600;1000;1000;3000;3000;2800;2800;3300;3300;1900;1900"/>
<animate attributeName="visibility" dur="92.68s" keyTimes="0.0;0.0030120482;1.0" repeatCount="indefinite" values="visible;visible;visible"/> </circle>
</svg>