<?xml version="1.0" encoding="UTF-8"?>
        <svg xmlns="http://www.w3.org/2000/svg" xmlns:xlink="http://www.w3.org/1999/xlink"
             width="430" height="430" viewBox="0 -4300 4300 4300">

<defs>

</defs>

<rect fill="#84A1AE" height="70" rx="15" width="70" x="465" y="-535" />
<rect fill="#84A1AE" height="70" rx="15" width="70" x="465" y="-635" />
<rect fill="#84A1AE" height="70" rx="15" width="70" x="465" y="-735" />
<rect fill="#84A1AE" height="70" rx="15" width="70" x="465" y="-835" />
<rect fill="#84A1AE" height="70" rx="15" width="70" x="465" y="-935" />
<rect fill="#84A1AE" height="70" rx="15" width="70" x="465" y="-1035" />
<rect fill="#84A1AE" height="70" rx="15" width="70" x="465" y="-1135" />
<rect fill="#84A1AE" height="70" rx="15" width="70" x="465" y="-1235" />
<rect fill="#84A1AE" height="70" rx="15" width="70" x="465" y="-1335" />
<rect fill="#84A1AE" height="70" rx="15" width="70" x="465" y="-1435" />
<rect fill="#84A1AE" height="70" rx="15" width="70" x="465" y="-1535" />
<rect fill="#84A1AE" height="70" rx="15" width="70" x="465" y="-1635" />
<rect fill="#84A1AE" height="70" rx="15" width="70" x="465" y="-1735" />
<rect fill="#84A1AE" height="70" rx="15" width="70" x="465" y="-1835" />
<rect fill="#84A1AE" height="70" rx="15" width="70" x="465" y="-1935" />
<rect fill="#84A1AE" height="70" rx="15" width="70" x="465" y="-2035" />
<rect fill="#84A1AE" height="70" rx="15" width="70" x="465" y="-2135" />
<rect fill="#84A1AE" height="70" rx="15" width="70" x="465" y="-2235" />
<rect fill="#84A1AE" height="70" rx="15" width="70" x="465" y="-2335" />
<rect fill="#84A1AE" height="70" rx="15" width="70" x="465" y="-2435" />
<rect fill="#84A1AE" height="70" rx="15" width="70" x="465" y="-2535" />
<rect fill="#84A1AE" height="70" rx="15" width="70" x="465" y="-2635" />
<rect fill="#84A1AE" height="70" rx="15" width="70" x="465" y="-2735" />
<rect fill="#84A1AE" height="70" rx="15" width="70" x="465" y="-2835" />
<rect fill="#84A1AE" height="70" rx="15" width="70" x="465" y="-2935" />
<rect fill="#84A1AE" height="70" rx="15" width="70" x="465" y="-3035" />
<rect fill="#84A1AE" height="70" rx="15" width="70" x="465" y="-3135" />
<rect fill="#84A1AE" height="70" rx="15" width="70" x="465" y="-3235" />
<rect fill="#84A1AE" height="70" rx="15" width="70" x="465" y="-3335" />
<rect fill="#84A1AE" height="70" rx="15" width="70" x="465" y="-3435" />
<rect fill="#84A1AE" height="70" rx="15" width="70" x="465" y="-3535" />
<rect fill="#84A1AE" height="70" rx="15" width="70" x="465" y="-3635" />
<rect fill="#84A1AE" height="70" rx="15" width="70" x="465" y="-3735" />
<rect fill="#84A1AE" height="70" rx="15" width="70" x="465" y="-3835" />
<rect fill="#84A1AE" height="70" rx="15" width="70" x="565" y="-535" />
<rect fill="#84A1AE" height="70" rx="15" width="70" x="565" y="-1635" />
<rect fill="#84A1AE" height="70" rx="15" width="70" x="565" y="-1935" />
<rect fill="#84A1AE" height="70" rx="15" width="70" x="565" y="-2735" />
<rect fill="#84A1AE" height="70" rx="15" width="70" x="565" y="-3835" />
<rect fill="#84A1AE" height="70" rx="15" width="70" x="665" y="-535" />
<rect fill="#84A1AE" height="70" rx="15" width="70" x="665" y="-1035" />
<rect fill="#84A1AE" height="70" rx="15" width="70" x="665" y="-2535" />
<rect fill="#84A1AE" height="70" rx="15" width="70" x="665" y="-3035" />
<rect fill="#84A1AE" height="70" rx="15" width="70" x="665" y="-3235" />
<rect fill="#84A1AE" height="70" rx="15" width="70" x="665" y="-3835" />
<rect fill="#84A1AE" height="70" rx="15" width="70" x="765" y="-535" />
<rect fill="#84A1AE" height="70" rx="15" width="70" x="765" y="-635" />
<rect fill="#84A1AE" height="70" rx="15" width="70" x="765" y="-3835" />
<rect fill="#84A1AE" height="70" rx="15" width="70" x="865" y="-535" />
<rect fill="#84A1AE" height="70" rx="15" width="70" x="865" y="-2435" />
<rect fill="#84A1AE" height="70" rx="15" width="70" x="865" y="-2535" />
<rect fill="#84A1AE" height="70" rx="15" width="70" x="865" y="-3335" />
<rect fill="#84A1AE" height="70" rx="15" width="70" x="865" y="-3435" />
<rect fill="#84A1AE" height="70" rx="15" width="70" x="865" y="-3835" />
<rect fill="#84A1AE" height="70" rx="15" width="70" x="965" y="-535" />
<rect fill="#84A1AE" height="70" rx="15" width="70" x="965" y="-735" />
<rect fill="#84A1AE" height="70" rx="15" width="70" x="965" y="-1635" />
<rect fill="#84A1AE" height="70" rx="15" width="70" x="965" y="-1835" />
<rect fill="#84A1AE" height="70" rx="15" width="70" x="965" y="-2835" />
<rect fill="#84A1AE" height="70" rx="15" width="70" x="965" y="-3435" />
<rect fill="#84A1AE" height="70" rx="15" width="70" x="965" y="-3835" />
<rect fill="#84A1AE" height="70" rx="15" width="70" x="1065" y="-535" />
<rect fill="#84A1AE" height="70" rx="15" width="70" x="1065" y="-1135" />
<rect fill="#84A1AE" height="70" rx="15" width="70" x="1065" y="-1835" />
<rect fill="#84A1AE" height="70" rx="15" width="70" x="1065" y="-3735" />
<rect fill="#84A1AE" height="70" rx="15" width="70" x="1065" y="-3835" />
<rect fill="#84A1AE" height="70" rx="15" width="70" x="1165" y="-535" />
<rect fill="#84A1AE" height="70" rx="15" width="70" x="1165" y="-635" />
<rect fill="#84A1AE" height="70" rx="15" width="70" x="1165" y="-735" />
<rect fill="#84A1AE" height="70" rx="15" width="70" x="1165" y="-1535" />
<rect fill="#84A1AE" height="70" rx="15" width="70" x="1165" y="-3835" />
<rect fill="#84A1AE" height="70" rx="15" width="70" x="1265" y="-535" />
<rect fill="#84A1AE" height="70" rx="15" width="70" x="1265" y="-2835" />
<rect fill="#84A1AE" height="70" rx="15" width="70" x="1265" y="-3435" />
<rect fill="#84A1AE" height="70" rx="15" width="70" x="1265" y="-3835" />
<rect fill="#84A1AE" height="70" rx="15" width="70" x="1365" y="-535" />
<rect fill="#84A1AE" height="70" rx="15" width="70" x="1365" y="-835" />
<rect fill="#84A1AE" height="70" rx="15" width="70" x="1365" y="-935" />
<rect fill="#84A1AE" height="70" rx="15" width="70" x="1365" y="-1035" />
<rect fill="#84A1AE" height="70" rx="15" width="70" x="1365" y="-1935" />
<rect fill="#84A1AE" height="70" rx="15" width="70" x="1365" y="-2335" />
<rect fill="#84A1AE" height="70" rx="15" width="70" x="1365" y="-2635" />
<rect fill="#84A1AE" height="70" rx="15" width="70" x="1365" y="-2835" />
<rect fill="#84A1AE" height="70" rx="15" width="70" x="1365" y="-2935" />
<rect fill="#84A1AE" height="70" rx="15" width="70" x="1365" y="-3035" />
<rect fill="#84A1AE" height="70" rx="15" width="70" x="1365" y="-3335" />
<rect fill="#84A1AE" height="70" rx="15" width="70" x="1365" y="-3835" />
<rect fill="#84A1AE" height="70" rx="15" width="70" x="1465" y="-535" />
<rect fill="#84A1AE" height="70" rx="15" width="70" x="1465" y="-1235" />
<rect fill="#84A1AE" height="70" rx="15" width="70" x="1465" y="-1535" />
<rect fill="#84A1AE" height="70" rx="15" width="70" x="1465" y="-2035" />
<rect fill="#84A1AE" height="70" rx="15" width="70" x="1465" y="-3135" />
<rect fill="#84A1AE" height="70" rx="15" width="70" x="1465" y="-3235" />
<rect fill="#84A1AE" height="70" rx="15" width="70" x="1465" y="-3835" />
<rect fill="#84A1AE" height="70" rx="15" width="70" x="1565" y="-535" />
<rect fill="#84A1AE" height="70" rx="15" width="70" x="1565" y="-3035" />
<rect fill="#84A1AE" height="70" rx="15" width="70" x="1565" y="-3835" />
<rect fill="#84A1AE" height="70" rx="15" width="70" x="1665" y="-535" />
<rect fill="#84A1AE" height="70" rx="15" width="70" x="1665" y="-3735" />
<rect fill="#84A1AE" height="70" rx="15" width="70" x="1665" y="-3835" />
<rect fill="#84A1AE" height="70" rx="15" width="70" x="1765" y="-535" />
<rect fill="#84A1AE" height="70" rx="15" width="70" x="1765" y="-1235" />
<rect fill="#84A1AE" height="70" rx="15" width="70" x="1765" y="-3835" />
<rect fill="#84A1AE" height="70" rx="15" width="70" x="1865" y="-535" />
<rect fill="#84A1AE" height="70" rx="15" width="70" x="1865" y="-735" />
<rect fill="#84A1AE" height="70" rx="15" width="70" x="1865" y="-1335" />
<rect fill="#84A1AE" height="70" rx="15" width="70" x="1865" y="-3235" />
<rect fill="#84A1AE" height="70" rx="15" width="70" x="1865" y="-3435" />
<rect fill="#84A1AE" height="70" rx="15" width="70" x="1865" y="-3835" />
<rect fill="#84A1AE" height="70" rx="15" width="70" x="1965" y="-535" />
<rect fill="#84A1AE" height="70" rx="15" width="70" x="1965" y="-635" />
<rect fill="#84A1AE" height="70" rx="15" width="70" x="1965" y="-1835" />
<rect fill="#84A1AE" height="70" rx="15" width="70" x="1965" y="-1935" />
<rect fill="#84A1AE" height="70" rx="15" width="70" x="1965" y="-2135" />
<rect fill="#84A1AE" height="70" rx="15" width="70" x="1965" y="-2335" />
<rect fill="#84A1AE" height="70" rx="15" width="70" x="1965" y="-2435" />
<rect fill="#84A1AE" height="70" rx="15" width="70" x="1965" y="-3335" />
<rect fill="#84A1AE" height="70" rx="15" width="70" x="1965" y="-3835" />
<rect fill="#84A1AE" height="70" rx="15" width="70" x="2065" y="-535" />
<rect fill="#84A1AE" height="70" rx="15" width="70" x="2065" y="-1535" />
<rect fill="#84A1AE" height="70" rx="15" width="70" x="2065" y="-1635" />
<rect fill="#84A1AE" height="70" rx="15" width="70" x="2065" y="-2135" />
<rect fill="#84A1AE" height="70" rx="15" width="70" x="2065" y="-3835" />
<rect fill="#84A1AE" height="70" rx="15" width="70" x="2165" y="-535" />
<rect fill="#84A1AE" height="70" rx="15" width="70" x="2165" y="-935" />
<rect fill="#84A1AE" height="70" rx="15" width="70" x="2165" y="-1335" />
<rect fill="#84A1AE" height="70" rx="15" width="70" x="2165" y="-1835" />
<rect fill="#84A1AE" height="70" rx="15" width="70" x="2165" y="-3835" />
<rect fill="#84A1AE" height="70" rx="15" width="70" x="2265" y="-535" />
<rect fill="#84A1AE" height="70" rx="15" width="70" x="2265" y="-935" />
<rect fill="#84A1AE" height="70" rx="15" width="70" x="2265" y="-1135" />
<rect fill="#84A1AE" height="70" rx="15" width="70" x="2265" y="-2535" />
<rect fill="#84A1AE" height="70" rx="15" width="70" x="2265" y="-3235" />
<rect fill="#84A1AE" height="70" rx="15" width="70" x="2265" y="-3835" />
<rect fill="#84A1AE" height="70" rx="15" width="70" x="2365" y="-535" />
<rect fill="#84A1AE" height="70" rx="15" width="70" x="2365" y="-935" />
<rect fill="#84A1AE" height="70" rx="15" width="70" x="2365" y="-1035" />
<rect fill="#84A1AE" height="70" rx="15" width="70" x="2365" y="-3835" />
<rect fill="#84A1AE" height="70" rx="15" width="70" x="2465" y="-535" />
<rect fill="#84A1AE" height="70" rx="15" width="70" x="2465" y="-935" />
<rect fill="#84A1AE" height="70" rx="15" width="70" x="2465" y="-1535" />
<rect fill="#84A1AE" height="70" rx="15" width="70" x="2465" y="-2335" />
<rect fill="#84A1AE" height="70" rx="15" width="70" x="2465" y="-2735" />
<rect fill="#84A1AE" height="70" rx="15" width="70" x="2465" y="-3835" />
<rect fill="#84A1AE" height="70" rx="15" width="70" x="2565" y="-535" />
<rect fill="#84A1AE" height="70" rx="15" width="70" x="2565" y="-735" />
<rect fill="#84A1AE" height="70" rx="15" width="70" x="2565" y="-2535" />
<rect fill="#84A1AE" height="70" rx="15" width="70" x="2565" y="-3835" />
<rect fill="#84A1AE" height="70" rx="15" width="70" x="2665" y="-535" />
<rect fill="#84A1AE" height="70" rx="15" width="70" x="2665" y="-635" />
<rect fill="#84A1AE" height="70" rx="15" width="70" x="2665" y="-1135" />
<rect fill="#84A1AE" height="70" rx="15" width="70" x="2665" y="-1435" />
<rect fill="#84A1AE" height="70" rx="15" width="70" x="2665" y="-2735" />
<rect fill="#84A1AE" height="70" rx="15" width="70" x="2665" y="-3835" />
<rect fill="#84A1AE" height="70" rx="15" width="70" x="2765" y="-535" />
<rect fill="#84A1AE" height="70" rx="15" width="70" x="2765" y="-1635" />
<rect fill="#84A1AE" height="70" rx="15" width="70" x="2765" y="-1835" />
<rect fill="#84A1AE" height="70" rx="15" width="70" x="2765" y="-1935" />
<rect fill="#84A1AE" height="70" rx="15" width="70" x="2765" y="-2235" />
<rect fill="#84A1AE" height="70" rx="15" width="70" x="2765" y="-3735" />
<rect fill="#84A1AE" height="70" rx="15" width="70" x="2765" y="-3835" />
<rect fill="#84A1AE" height="70" rx="15" width="70" x="2865" y="-535" />
<rect fill="#84A1AE" height="70" rx="15" width="70" x="2865" y="-3835" />
<rect fill="#84A1AE" height="70" rx="15" width="70" x="2965" y="-535" />
<rect fill="#84A1AE" height="70" rx="15" width="70" x="2965" y="-2635" />
<rect fill="#84A1AE" height="70" rx="15" width="70" x="2965" y="-3835" />
<rect fill="#84A1AE" height="70" rx="15" width="70" x="3065" y="-535" />
<rect fill="#84A1AE" height="70" rx="15" width="70" x="3065" y="-735" />
<rect fill="#84A1AE" height="70" rx="15" width="70" x="3065" y="-2535" />
<rect fill="#84A1AE" height="70" rx="15" width="70" x="3065" y="-3835" />
<rect fill="#84A1AE" height="70" rx="15" width="70" x="3165" y="-535" />
<rect fill="#84A1AE" height="70" rx="15" width="70" x="3165" y="-835" />
<rect fill="#84A1AE" height="70" rx="15" width="70" x="3165" y="-1935" />
<rect fill="#84A1AE" height="70" rx="15" width="70" x="3165" y="-2735" />
<rect fill="#84A1AE" height="70" rx="15" width="70" x="3165" y="-3135" />
<rect fill="#84A1AE" height="70" rx="15" width="70" x="3165" y="-3835" />
<rect fill="#84A1AE" height="70" rx="15" width="70" x="3265" y="-535" />
<rect fill="#84A1AE" height="70" rx="15" width="70" x="3265" y="-1035" />
<rect fill="#84A1AE" height="70" rx="15" width="70" x="3265" y="-1735" />
<rect fill="#84A1AE" height="70" rx="15" width="70" x="3265" y="-3835" />
<rect fill="#84A1AE" height="70" rx="15" width="70" x="3365" y="-535" />
<rect fill="#84A1AE" height="70" rx="15" width="70" x="3365" y="-1435" />
<rect fill="#84A1AE" height="70" rx="15" width="70" x="3365" y="-1935" />
<rect fill="#84A1AE" height="70" rx="15" width="70" x="3365" y="-2135" />
<rect fill="#84A1AE" height="70" rx="15" width="70" x="3365" y="-3835" />
<rect fill="#84A1AE" height="70" rx="15" width="70" x="3465" y="-535" />
<rect fill="#84A1AE" height="70" rx="15" width="70" x="3465" y="-2635" />
<rect fill="#84A1AE" height="70" rx="15" width="70" x="3465" y="-3835" />
<rect fill="#84A1AE" height="70" rx="15" width="70" x="3565" y="-535" />
<rect fill="#84A1AE" height="70" rx="15" width="70" x="3565" y="-635" />
<rect fill="#84A1AE" height="70" rx="15" width="70" x="3565" y="-2435" />
<rect fill="#84A1AE" height="70" rx="15" width="70" x="3565" y="-3235" />
<rect fill="#84A1AE" height="70" rx="15" width="70" x="3565" y="-3835" />
<rect fill="#84A1AE" height="70" rx="15" width="70" x="3665" y="-535" />
<rect fill="#84A1AE" height="70" rx="15" width="70" x="3665" y="-2135" />
<rect fill="#84A1AE" height="70" rx="15" width="70" x="3665" y="-2835" />
<rect fill="#84A1AE" height="70" rx="15" width="70" x="3665" y="-3135" />
<rect fill="#84A1AE" height="70" rx="15" width="70" x="3665" y="-3735" />
<rect fill="#84A1AE" height="70" rx="15" width="70" x="3665" y="-3835" />
<rect fill="#84A1AE" height="70" rx="15" width="70" x="3765" y="-535" />
<rect fill="#84A1AE" height="70" rx="15" width="70" x="3765" y="-635" />
<rect fill="#84A1AE" height="70" rx="15" width="70" x="3765" y="-735" />
<rect fill="#84A1AE" height="70" rx="15" width="70" x="3765" y="-835" />
<rect fill="#84A1AE" height="70" rx="15" width="70" x="3765" y="-935" />
<rect fill="#84A1AE" height="70" rx="15" width="70" x="3765" y="-1035" />
<rect fill="#84A1AE" height="70" rx="15" width="70" x="3765" y="-1135" />
<rect fill="#84A1AE" height="70" rx="15" width="70" x="3765" y="-1235" />
<rect fill="#84A1AE" height="70" rx="15" width="70" x="3765" y="-1335" />
<rect fill="#84A1AE" height="70" rx="15" width="70" x="3765" y="-1435" />
<rect fill="#84A1AE" height="70" rx="15" width="70" x="3765" y="-1535" />
<rect fill="#84A1AE" height="70" rx="15" width="70" x="3765" y="-1635" />
<rect fill="#84A1AE" height="70" rx="15" width="70" x="3765" y="-1735" />
<rect fill="#84A1AE" height="70" rx="15" width="70" x="3765" y="-1835" />
<rect fill="#84A1AE" height="70" rx="15" width="70" x="3765" y="-1935" />
<rect fill="#84A1AE" height="70" rx="15" width="70" x="3765" y="-2035" />
<rect fill="#84A1AE" height="70" rx="15" width="70" x="3765" y="-2135" />
<rect fill="#84A1AE" height="70" rx="15" width="70" x="3765" y="-2235" />
<rect fill="#84A1AE" height="70" rx="15" width="70" x="3765" y="-2335" />
<rect fill="#84A1AE" height="70" rx="15" width="70" x="3765" y="-2435" />
<rect fill="#84A1AE" height="70" rx="15" width="70" x="3765" y="-2535" />
<rect fill="#84A1AE" height="70" rx="15" width="70" x="3765" y="-2635" />
<rect fill="#84A1AE" height="70" rx="15" width="70" x="3765" y="-2735" />
<rect fill="#84A1AE" height="70" rx="15" width="70" x="3765" y="-2835" />
<rect fill="#84A1AE" height="70" rx="15" width="70" x="3765" y="-2935" />
<rect fill="#84A1AE" height="70" rx="15" width="70" x="3765" y="-3035" />
<rect fill="#84A1AE" height="70" rx="15" width="70" x="3765" y="-3135" />
<rect fill="#84A1AE" height="70" rx="15" width="70" x="3765" y="-3235" />
<rect fill="#84A1AE" height="70" rx="15" width="70" x="3765" y="-3335" />
<rect fill="#84A1AE" height="70" rx="15" width="70" x="3765" y="-3435" />
<rect fill="#84A1AE" height="70" rx="15" width="70" x="3765" y="-3535" />
<rect fill="#84A1AE" height="70" rx="15" width="70" x="3765" y="-3635" />
<rect fill="#84A1AE" height="70" rx="15" width="70" x="3765" y="-3735" />
<rect fill="#84A1AE" height="70" rx="15" width="70" x="3765" y="-3835" />
<circle cx="2500" cy="-1400" fill="#c1433c" r="35"> <animate attributeName="cy" dur="45.92s" keyTimes="0.0;0.0060606061;0.0121212121;0.0181818182;0.0242424242;0.0303030303;0.0363636364;0.0424242424;0.0484848485;0.0545454545;0.0606060606;0.0666666667;0.0727272727;0.0787878788;0.0848484848;0.0909090909;0.1090909091;0.1151515152;0.1212121212;0.1272727273;0.1333333333;0.296969697;0.303030303;0.3151515152;0.3212121212;0.3272727273;0.3333333333;0.3393939394;0.3454545455;0.3515151515;0.3636363636;0.3696969697;0.3878787879;0.3939393939;0.4121212121;0.4181818182;0.4242424242;0.4303030303;0.4424242424;0.4484848485;0.4545454545;0.4606060606;0.4666666667;0.4727272727;0.4787878788;0.4848484848;0.4909090909;0.496969697;0.503030303;0.5393939394;0.5454545455;0.5515151515;0.5575757576;0.5636363636;0.5696969697;0.5757575758;0.5818181818;0.5878787879;0.5939393939;0.6;0.6060606061;0.6121212121;0.6303030303;0.6363636364;0.6424242424;0.6606060606;0.6666666667;0.6727272727;0.6787878788;0.6848484848;0.6909090909;0.696969697;0.703030303;0.7090909091;0.7151515152;0.7212121212;0.7333333333;0.7393939394;0.7454545455;0.7515151515;0.7575757576;0.7636363636;0.7696969697;0.8;0.8060606061;0.8181818182;0.8242424242;0.8363636364;0.8424242424;0.8484848485;0.8545454545;0.8606060606;0.8666666667;0.8727272727;0.8787878788;0.8848484848;0.8909090909;0.896969697;0.903030303;0.9090909091;0.9151515152;0.9212121212;0.9272727273;0.9333333333;0.9393939394;0.9454545455;0.9515151515;0.9575757576;0.9636363636;0.9696969697;0.9757575758;0.9818181818;0.9878787879;0.9939393939;1.0" repeatCount="indefinite" values="-1400;-1400;-1400;-1500;-1600;-1700;-1800;-1900;-2000;-2100;-2200;-2300;-2400;-2400;-2500;-2600;-2600;-2700;-2800;-2900;-3000;-3000;-2900;-2900;-2800;-2700;-2600;-2500;-2500;-2400;-2400;-2300;-2300;-2200;-2200;-2100;-2100;-2000;-2000;-1900;-1800;-1800;-1700;-1700;-1600;-1500;-1500;-1400;-1300;-1300;-1200;-1100;-1000;-1000;-900;-900;-800;-800;-700;-800;-900;-1000;-1000;-1100;-1200;-1200;-1300;-1300;-1400;-1500;-1600;-1600;-1700;-1800;-1900;-2000;-2000;-2100;-2200;-2300;-2400;-2500;-2600;-2600;-2700;-2700;-2800;-2800;-2900;-3000;-3000;-3100;-3200;-3200;-3300;-3300;-3400;-3400;-3300;-3200;-3200;-3100;-3000;-2900;-2800;-2700;-2600;-2500;-2400;-2300;-2200;-2100;-2000;-1900;-1900"/>
<animate attributeName="cx" dur="45.92s" keyTimes="0.0;0.0060606061;0.0121212121;0.0727272727;0.0787878788;0.103030303;0.1090909091;0.1333333333;0.1393939394;0.1454545455;0.1515151515;0.1575757576;0.1636363636;0.1696969697;0.1757575758;0.1818181818;0.1878787879;0.1939393939;0.2;0.2060606061;0.2121212121;0.2181818182;0.2242424242;0.2303030303;0.2363636364;0.2424242424;0.2484848485;0.2545454545;0.2606060606;0.2666666667;0.2727272727;0.2787878788;0.2848484848;0.2909090909;0.296969697;0.303030303;0.3090909091;0.3151515152;0.3393939394;0.3454545455;0.3515151515;0.3575757576;0.3636363636;0.3696969697;0.3757575758;0.3818181818;0.3878787879;0.3939393939;0.4;0.4060606061;0.4121212121;0.4181818182;0.4242424242;0.4303030303;0.4363636364;0.4424242424;0.4545454545;0.4606060606;0.4666666667;0.4727272727;0.4848484848;0.4909090909;0.503030303;0.5090909091;0.5151515152;0.5212121212;0.5272727273;0.5333333333;0.5393939394;0.5575757576;0.5636363636;0.5696969697;0.5757575758;0.5818181818;0.5878787879;0.6121212121;0.6181818182;0.6242424242;0.6303030303;0.6424242424;0.6484848485;0.6545454545;0.6606060606;0.6666666667;0.6727272727;0.6909090909;0.696969697;0.7212121212;0.7272727273;0.7333333333;0.7696969697;0.7757575758;0.7818181818;0.7878787879;0.7939393939;0.8;0.8060606061;0.8121212121;0.8181818182;0.8242424242;0.8303030303;0.8363636364;0.8484848485;0.8545454545;0.8666666667;0.8727272727;0.8787878788;0.8848484848;0.8909090909;0.896969697;0.9090909091;0.9151515152;1.0" repeatCount="indefinite" values="2500;2500;2600;2600;2700;2700;2600;2600;2700;2800;2900;3000;3100;3200;3300;3400;3500;3400;3300;3200;3100;3000;2900;2800;2700;2600;2500;2400;2300;2200;2100;2000;1900;1800;1700;1700;1600;1500;1500;1400;1400;1500;1600;1600;1700;1800;1900;1900;2000;2100;2200;2200;2300;2300;2400;2500;2500;2600;2600;2700;2700;2800;2800;2900;3000;3100;3200;3300;3400;3400;3500;3500;3600;3600;3700;3700;3600;3500;3400;3400;3300;3200;3100;3100;3000;3000;2900;2900;2800;2700;2700;2600;2500;2400;2300;2200;2200;2100;2000;2000;1900;1800;1800;1700;1700;1600;1600;1500;1500;1600;1600;1700;1700"/>
<animate attributeName="visibility" dur="45.92s" keyTimes="0.0;0.0060606061;1.0" repeatCount="indefinite" values="visible;visible;visible"/> </circle>
<circle cx="3000" cy="-1900" fill="#2e6f9e" r="35"> <animate attributeName="cy" dur="45.92s" keyTimes="0.0;0.0060606061;0.0121212121;0.0181818182;0.0242424242;0.0303030303;0.0363636364;0.0424242424;0.0484848485;0.0545454545;0.0606060606;0.0666666667;0.0727272727;0.0787878788;0.0848484848;0.1333333333;0.1393939394;0.2242424242;0.2303030303;0.2363636364;0.2727272727;0.2787878788;0.2848484848;0.296969697;0.303030303;0.3090909091;0.3151515152;0.3454545455;0.3515151515;0.3575757576;0.3818181818;0.3878787879;0.3939393939;0.4;0.4121212121;0.4181818182;0.4363636364;0.4424242424;0.4484848485;0.4545454545;0.4606060606;0.4666666667;0.4727272727;0.4787878788;0.4848484848;0.4909090909;0.496969697;0.503030303;0.5090909091;0.5151515152;0.5212121212;0.5272727273;0.5333333333;0.5393939394;0.5454545455;0.5515151515;0.5575757576;0.5636363636;0.5696969697;0.5757575758;0.5818181818;0.5878787879;0.5939393939;0.6;0.6060606061;0.6121212121;0.6181818182;0.6424242424;0.6484848485;0.6545454545;0.6606060606;0.7212121212;0.7272727273;0.7333333333;0.7393939394;0.7454545455;0.7515151515;0.7575757576;0.7818181818;0.7878787879;0.8;0.8060606061;0.8484848485;0.8545454545;0.8606060606;0.9454545455;0.9515151515;0.9575757576;1.0" repeatCount="indefinite" values="-1900;-1900;-2000;-2000;-2100;-2100;-2200;-2300;-2400;-2400;-2500;-2600;-2600;-2700;-2600;-2600;-2700;-2700;-2800;-2900;-2900;-3000;-2900;-2900;-2800;-2800;-2900;-2900;-2800;-2700;-2700;-2800;-2800;-2900;-2900;-2800;-2800;-2700;-2600;-2500;-2400;-2300;-2200;-2100;-2000;-1900;-1800;-1700;-1600;-1500;-1400;-1500;-1400;-1300;-1200;-1300;-1300;-1400;-1400;-1500;-1600;-1700;-1800;-1900;-2000;-2100;-2200;-2200;-2300;-2300;-2400;-2400;-2500;-2600;-2500;-2600;-2500;-2400;-2400;-2300;-2300;-2400;-2400;-2300;-2200;-2200;-2300;-2200;-2200"/>
<animate attributeName="cx" dur="45.92s" keyTimes="0.0;0.0060606061;0.0121212121;0.0181818182;0.0242424242;0.0303030303;0.0484848485;0.0545454545;0.0666666667;0.0727272727;0.103030303;0.1090909091;0.1151515152;0.1212121212;0.1272727273;0.1333333333;0.1393939394;0.1454545455;0.1515151515;0.1575757576;0.1636363636;0.1696969697;0.1757575758;0.1818181818;0.1878787879;0.1939393939;0.2;0.2060606061;0.2121212121;0.2181818182;0.2242424242;0.2363636364;0.2424242424;0.2484848485;0.2545454545;0.2606060606;0.2666666667;0.2727272727;0.2848484848;0.2909090909;0.296969697;0.303030303;0.3090909091;0.3151515152;0.3212121212;0.3272727273;0.3333333333;0.3393939394;0.3454545455;0.3575757576;0.3636363636;0.3696969697;0.3757575758;0.3818181818;0.3878787879;0.3939393939;0.4;0.4060606061;0.4121212121;0.4242424242;0.4303030303;0.4363636364;0.5515151515;0.5575757576;0.5636363636;0.5696969697;0.6181818182;0.6242424242;0.6303030303;0.6363636364;0.6424242424;0.6484848485;0.6545454545;0.6606060606;0.6666666667;0.6727272727;0.6787878788;0.6848484848;0.6909090909;0.696969697;0.703030303;0.7090909091;0.7151515152;0.7212121212;0.7575757576;0.7636363636;0.7696969697;0.7757575758;0.7818181818;0.7878787879;0.7939393939;0.8;0.8060606061;0.8121212121;0.8181818182;0.8242424242;0.8303030303;0.8363636364;0.8424242424;0.8484848485;0.8606060606;0.8666666667;0.8727272727;0.8787878788;0.8848484848;0.8909090909;0.896969697;0.903030303;0.9090909091;0.9151515152;0.9212121212;0.9272727273;0.9333333333;0.9393939394;0.9454545455;0.9575757576;0.9636363636;0.9696969697;0.9757575758;0.9818181818;0.9878787879;0.9939393939;1.0" repeatCount="indefinite" values="3000;3000;3000;3100;3100;3000;3000;2900;2900;2800;2800;2700;2600;2600;2500;2400;2400;2300;2200;2100;2000;1900;1800;1700;1700;1600;1500;1400;1300;1200;1100;1100;1000;900;800;700;700;600;600;700;800;800;900;900;1000;900;1000;1100;1200;1200;1300;1400;1500;1600;1600;1700;1700;1800;1900;1900;1800;1700;1700;1600;1600;1700;1700;1800;1900;2000;2100;2100;2200;2200;2300;2400;2500;2600;2700;2800;2900;3000;3100;3200;3200;3100;3000;2900;2800;2800;2700;2600;2600;2500;2400;2300;2200;2300;2200;2100;2100;2000;1900;1800;1700;1600;1500;1400;1300;1200;1300;1400;1500;1600;1700;1700;1800;1900;2000;2100;2200;2300;2300"/>
<animate attributeName="visibility" dur="45.92s" keyTimes="0.0;0.0060606061;1.0" repeatCount="indefinite" values="visible;visible;visible"/> </circle>
<circle cx="3500" cy="-3000" fill="none" r="35" stroke="#c1433c" stroke-width="10"> <animate attributeName="cy" dur="45.92s" keyTimes="0.0;0.0060606061;0.1818181818;0.1878787879;0.3454545455;0.3515151515;0.5878787879;0.5939393939;0.8848484848;0.8909090909;1.0" repeatCount="indefinite" values="-3000;-3000;-3000;-2400;-2400;-700;-700;-3400;-3400;-600;-600"/>
<animate attributeName="cx" dur="45.92s" keyTimes="0.0;0.0060606061;0.1818181818;0.1878787879;0.3454545455;0.3515151515;0.5878787879;0.5939393939;0.8848484848;0.8909090909;1.0" repeatCount="indefinite" values="3500;3500;3500;1400;1400;3700;3700;1500;1500;2100;2100"/>
<animate attributeName="visibility" dur="45.92s" keyTimes="0.0;0.0060606061;1.0" repeatCount="indefinite" values="visible;visible;visible"/> </circle>
<circle cx="2600" cy="-2600" fill="none" r="35" stroke="#2e6f9e" stroke-width="10"> <animate attributeName="cy" dur="45.92s" keyTimes="0.0;0.0060606061;0.1090909091;0.1151515152;0.2727272727;0.2787878788;0.4060606061;0.4121212121;0.5393939394;0.5454545455;0.7272727273;0.7333333333;0.9090909091;0.9151515152;1.0" repeatCount="indefinite" values="-2600;-2600;-2600;-3000;-3000;-2900;-2900;-1200;-1200;-2600;-2600;-2200;-2200;-1400;-1400"/>
<animate attributeName="cx" dur="45.92s" keyTimes="0.0;0.0060606061;0.1090909091;0.1151515152;0.2727272727;0.2787878788;0.4060606061;0.4121212121;0.5393939394;0.5454545455;0.7272727273;0.7333333333;0.9090909091;0.9151515152;1.0" repeatCount="indefinite" values="2600;2600;2600;600;600;1900;1900;1700;1700;3200;3200;1200;1200;2300;2300"/>
<animate attributeName="visibility" dur="45.92s" keyTimes="0.0;0.0060606061;1.0" repeatCount="indefinite" values="visible;visible;visible"/> </circle>
</svg>