<?xml version="1.0" encoding="UTF-8"?>
        <svg xmlns="http://www.w3.org/2000/svg" xmlns:xlink="http://www.w3.org/1999/xlink"
             width="512" height="512" viewBox="0 -3500 3500 3500">
<defs>

        <rect id="obstacle" width="70" height="70" fill="#84A1AE" rx="15"/>
        <style>
        .line {stroke: #84A1AE; stroke-width: 10;}
        .agent {r: 35;}
        .target {fill: none; stroke-width: 10; r: 35;}
        </style>
        
</defs>

<line class="line" x1="-50.0" x2="-50.0" y1="0" y2="-3500" />
<line class="line" x1="50.0" x2="50.0" y1="0" y2="-3500" />
<line class="line" x1="150.0" x2="150.0" y1="0" y2="-3500" />
<line class="line" x1="250.0" x2="250.0" y1="0" y2="-3500" />
<line class="line" x1="350.0" x2="350.0" y1="0" y2="-3500" />
<line class="line" x1="450.0" x2="450.0" y1="0" y2="-3500" />
<line class="line" x1="550.0" x2="550.0" y1="0" y2="-3500" />
<line class="line" x1="650.0" x2="650.0" y1="0" y2="-3500" />
<line class="line" x1="750.0" x2="750.0" y1="0" y2="-3500" />
<line class="line" x1="850.0" x2="850.0" y1="0" y2="-3500" />
<line class="line" x1="950.0" x2="950.0" y1="0" y2="-3500" />
<line class="line" x1="1050.0" x2="1050.0" y1="0" y2="-3500" />
<line class="line" x1="1150.0" x2="1150.0" y1="0" y2="-3500" />
<line class="line" x1="1250.0" x2="1250.0" y1="0" y2="-3500" />
<line class="line" x1="1350.0" x2="1350.0" y1="0" y2="-3500" />
<line class="line" x1="1450.0" x2="1450.0" y1="0" y2="-3500" />
<line class="line" x1="1550.0" x2="1550.0" y1="0" y2="-3500" />
<line class="line" x1="1650.0" x2="1650.0" y1="0" y2="-3500" />
<line class="line" x1="1750.0" x2="1750.0" y1="0" y2="-3500" />
<line class="line" x1="1850.0" x2="1850.0" y1="0" y2="-3500" />
<line class="line" x1="1950.0" x2="1950.0" y1="0" y2="-3500" />
<line class="line" x1="2050.0" x2="2050.0" y1="0" y2="-3500" />
<line class="line" x1="2150.0" x2="2150.0" y1="0" y2="-3500" />
<line class="line" x1="2250.0" x2="2250.0" y1="0" y2="-3500" />
<line class="line" x1="2350.0" x2="2350.0" y1="0" y2="-3500" />
<line class="line" x1="2450.0" x2="2450.0" y1="0" y2="-3500" />
<line class="line" x1="2550.0" x2="2550.0" y1="0" y2="-3500" />
<line class="line" x1="2650.0" x2="2650.0" y1="0" y2="-3500" />
<line class="line" x1="2750.0" x2="2750.0" y1="0" y2="-3500" />
<line class="line" x1="2850.0" x2="2850.0" y1="0" y2="-3500" />
<line class="line" x1="2950.0" x2="2950.0" y1="0" y2="-3500" />
<line class="line" x1="3050.0" x2="3050.0" y1="0" y2="-3500" />
<line class="line" x1="3150.0" x2="3150.0" y1="0" y2="-3500" />
<line class="line" x1="3250.0" x2="3250.0" y1="0" y2="-3500" />
<line class="line" x1="3350.0" x2="3350.0" y1="0" y2="-3500" />
<line class="line" x1="3450.0" x2="3450.0" y1="0" y2="-3500" />
<line class="line" x1="0" x2="3500" y1="50.0" y2="50.0" />
<line class="line" x1="0" x2="3500" y1="-50.0" y2="-50.0" />
<line class="line" x1="0" x2="3500" y1="-150.0" y2="-150.0" />
<line class="line" x1="0" x2="3500" y1="-250.0" y2="-250.0" />
<line class="line" x1="0" x2="3500" y1="-350.0" y2="-350.0" />
<line class="line" x1="0" x2="3500" y1="-450.0" y2="-450.0" />
<line class="line" x1="0" x2="3500" y1="-550.0" y2="-550.0" />
<line class="line" x1="0" x2="3500" y1="-650.0" y2="-650.0" />
<line class="line" x1="0" x2="3500" y1="-750.0" y2="-750.0" />
<line class="line" x1="0" x2="3500" y1="-850.0" y2="-850.0" />
<line class="line" x1="0" x2="3500" y1="-950.0" y2="-950.0" />
<line class="line" x1="0" x2="3500" y1="-1050.0" y2="-1050.0" />
<line class="line" x1="0" x2="3500" y1="-1150.0" y2="-1150.0" />
<line class="line" x1="0" x2="3500" y1="-1250.0" y2="-1250.0" />
<line class="line" x1="0" x2="3500" y1="-1350.0" y2="-1350.0" />
<line class="line" x1="0" x2="3500" y1="-1450.0" y2="-1450.0" />
<line class="line" x1="0" x2="3500" y1="-1550.0" y2="-1550.0" />
<line class="line" x1="0" x2="3500" y1="-1650.0" y2="-1650.0" />
<line class="line" x1="0" x2="3500" y1="-1750.0" y2="-1750.0" />
<line class="line" x1="0" x2="3500" y1="-1850.0" y2="-1850.0" />
<line class="line" x1="0" x2="3500" y1="-1950.0" y2="-1950.0" />
<line class="line" x1="0" x2="3500" y1="-2050.0" y2="-2050.0" />
<line class="line" x1="0" x2="3500" y1="-2150.0" y2="-2150.0" />
<line class="line" x1="0" x2="3500" y1="-2250.0" y2="-2250.0" />
<line class="line" x1="0" x2="3500" y1="-2350.0" y2="-2350.0" />
<line class="line" x1="0" x2="3500" y1="-2450.0" y2="-2450.0" />
<line class="line" x1="0" x2="3500" y1="-2550.0" y2="-2550.0" />
<line class="line" x1="0" x2="3500" y1="-2650.0" y2="-2650.0" />
<line class="line" x1="0" x2="3500" y1="-2750.0" y2="-2750.0" />
<line class="line" x1="0" x2="3500" y1="-2850.0" y2="-2850.0" />
<line class="line" x1="0" x2="3500" y1="-2950.0" y2="-2950.0" />
<line class="line" x1="0" x2="3500" y1="-3050.0" y2="-3050.0" />
<line class="line" x1="0" x2="3500" y1="-3150.0" y2="-3150.0" />
<line class="line" x1="0" x2="3500" y1="-3250.0" y2="-3250.0" />
<line class="line" x1="0" x2="3500" y1="-3350.0" y2="-3350.0" />
<line class="line" x1="0" x2="3500" y1="-3450.0" y2="-3450.0" />
<use href="#obstacle" x="65" y="-135" />
<use href="#obstacle" x="65" y="-235" />
<use href="#obstacle" x="65" y="-335" />
<use href="#obstacle" x="65" y="-435" />
<use href="#obstacle" x="65" y="-535" />
<use href="#obstacle" x="65" y="-635" />
<use href="#obstacle" x="65" y="-735" />
<use href="#obstacle" x="65" y="-835" />
<use href="#obstacle" x="65" y="-935" />
<use href="#obstacle" x="65" y="-1035" />
<use href="#obstacle" x="65" y="-1135" />
<use href="#obstacle" x="65" y="-1235" />
<use href="#obstacle" x="65" y="-1335" />
<use href="#obstacle" x="65" y="-1435" />
<use href="#obstacle" x="65" y="-1535" />
<use href="#obstacle" x="65" y="-1635" />
<use href="#obstacle" x="65" y="-1735" />
<use href="#obstacle" x="65" y="-1835" />
<use href="#obstacle" x="65" y="-1935" />
<use href="#obstacle" x="65" y="-2035" />
<use href="#obstacle" x="65" y="-2135" />
<use href="#obstacle" x="65" y="-2235" />
<use href="#obstacle" x="65" y="-2335" />
<use href="#obstacle" x="65" y="-2435" />
<use href="#obstacle" x="65" y="-2535" />
<use href="#obstacle" x="65" y="-2635" />
<use href="#obstacle" x="65" y="-2735" />
<use href="#obstacle" x="65" y="-2835" />
<use href="#obstacle" x="65" y="-2935" />
<use href="#obstacle" x="65" y="-3035" />
<use href="#obstacle" x="65" y="-3135" />
<use href="#obstacle" x="65" y="-3235" />
<use href="#obstacle" x="65" y="-3335" />
<use href="#obstacle" x="65" y="-3435" />
<use href="#obstacle" x="165" y="-135" />
<use href="#obstacle" x="165" y="-335" />
<use href="#obstacle" x="165" y="-735" />
<use href="#obstacle" x="165" y="-1335" />
<use href="#obstacle" x="165" y="-1435" />
<use href="#obstacle" x="165" y="-1735" />
<use href="#obstacle" x="165" y="-2135" />
<use href="#obstacle" x="165" y="-2235" />
<use href="#obstacle" x="165" y="-2435" />
<use href="#obstacle" x="165" y="-2735" />
<use href="#obstacle" x="165" y="-2835" />
<use href="#obstacle" x="165" y="-2935" />
<use href="#obstacle" x="165" y="-3035" />
<use href="#obstacle" x="165" y="-3435" />
<use href="#obstacle" x="265" y="-135" />
<use href="#obstacle" x="265" y="-435" />
<use href="#obstacle" x="265" y="-535" />
<use href="#obstacle" x="265" y="-1035" />
<use href="#obstacle" x="265" y="-1135" />
<use href="#obstacle" x="265" y="-1235" />
<use href="#obstacle" x="265" y="-1435" />
<use href="#obstacle" x="265" y="-1735" />
<use href="#obstacle" x="265" y="-2035" />
<use href="#obstacle" x="265" y="-2435" />
<use href="#obstacle" x="265" y="-3435" />
<use href="#obstacle" x="365" y="-135" />
<use href="#obstacle" x="365" y="-335" />
<use href="#obstacle" x="365" y="-435" />
<use href="#obstacle" x="365" y="-735" />
<use href="#obstacle" x="365" y="-835" />
<use href="#obstacle" x="365" y="-935" />
<use href="#obstacle" x="365" y="-1235" />
<use href="#obstacle" x="365" y="-1735" />
<use href="#obstacle" x="365" y="-1935" />
<use href="#obstacle" x="365" y="-3035" />
<use href="#obstacle" x="365" y="-3135" />
<use href="#obstacle" x="365" y="-3335" />
<use href="#obstacle" x="365" y="-3435" />
<use href="#obstacle" x="465" y="-135" />
<use href="#obstacle" x="465" y="-635" />
<use href="#obstacle" x="465" y="-735" />
<use href="#obstacle" x="465" y="-1435" />
<use href="#obstacle" x="465" y="-1635" />
<use href="#obstacle" x="465" y="-1735" />
<use href="#obstacle" x="465" y="-2135" />
<use href="#obstacle" x="465" y="-2435" />
<use href="#obstacle" x="465" y="-2535" />
<use href="#obstacle" x="465" y="-2835" />
<use href="#obstacle" x="465" y="-2935" />
<use href="#obstacle" x="465" y="-3035" />
<use href="#obstacle" x="465" y="-3335" />
<use href="#obstacle" x="465" y="-3435" />
<use href="#obstacle" x="565" y="-135" />
<use href="#obstacle" x="565" y="-335" />
<use href="#obstacle" x="565" y="-1135" />
<use href="#obstacle" x="565" y="-2035" />
<use href="#obstacle" x="565" y="-2135" />
<use href="#obstacle" x="565" y="-2235" />
<use href="#obstacle" x="565" y="-2535" />
<use href="#obstacle" x="565" y="-3135" />
<use href="#obstacle" x="565" y="-3435" />
<use href="#obstacle" x="665" y="-135" />
<use href="#obstacle" x="665" y="-535" />
<use href="#obstacle" x="665" y="-635" />
<use href="#obstacle" x="665" y="-835" />
<use href="#obstacle" x="665" y="-1035" />
<use href="#obstacle" x="665" y="-1635" />
<use href="#obstacle" x="665" y="-1735" />
<use href="#obstacle" x="665" y="-2035" />
<use href="#obstacle" x="665" y="-2135" />
<use href="#obstacle" x="665" y="-2335" />
<use href="#obstacle" x="665" y="-2435" />
<use href="#obstacle" x="665" y="-2635" />
<use href="#obstacle" x="665" y="-3235" />
<use href="#obstacle" x="665" y="-3435" />
<use href="#obstacle" x="765" y="-135" />
<use href="#obstacle" x="765" y="-335" />
<use href="#obstacle" x="765" y="-735" />
<use href="#obstacle" x="765" y="-1235" />
<use href="#obstacle" x="765" y="-1935" />
<use href="#obstacle" x="765" y="-2235" />
<use href="#obstacle" x="765" y="-2635" />
<use href="#obstacle" x="765" y="-3235" />
<use href="#obstacle" x="765" y="-3335" />
<use href="#obstacle" x="765" y="-3435" />
<use href="#obstacle" x="865" y="-135" />
<use href="#obstacle" x="865" y="-735" />
<use href="#obstacle" x="865" y="-835" />
<use href="#obstacle" x="865" y="-1835" />
<use href="#obstacle" x="865" y="-2435" />
<use href="#obstacle" x="865" y="-2735" />
<use href="#obstacle" x="865" y="-2835" />
<use href="#obstacle" x="865" y="-3435" />
<use href="#obstacle" x="965" y="-135" />
<use href="#obstacle" x="965" y="-235" />
<use href="#obstacle" x="965" y="-835" />
<use href="#obstacle" x="965" y="-1435" />
<use href="#obstacle" x="965" y="-1735" />
<use href="#obstacle" x="965" y="-2035" />
<use href="#obstacle" x="965" y="-2635" />
<use href="#obstacle" x="965" y="-2735" />
<use href="#obstacle" x="965" y="-3135" />
<use href="#obstacle" x="965" y="-3235" />
<use href="#obstacle" x="965" y="-3335" />
<use href="#obstacle" x="965" y="-3435" />
<use href="#obstacle" x="1065" y="-135" />
<use href="#obstacle" x="1065" y="-835" />
<use href="#obstacle" x="1065" y="-935" />
<use href="#obstacle" x="1065" y="-1635" />
<use href="#obstacle" x="1065" y="-1735" />
<use href="#obstacle" x="1065" y="-2535" />
<use href="#obstacle" x="1065" y="-3035" />
<use href="#obstacle" x="1065" y="-3435" />
<use href="#obstacle" x="1165" y="-135" />
<use href="#obstacle" x="1165" y="-235" />
<use href="#obstacle" x="1165" y="-535" />
<use href="#obstacle" x="1165" y="-1435" />
<use href="#obstacle" x="1165" y="-1535" />
<use href="#obstacle" x="1165" y="-1635" />
<use href="#obstacle" x="1165" y="-1835" />
<use href="#obstacle" x="1165" y="-2035" />
<use href="#obstacle" x="1165" y="-2135" />
<use href="#obstacle" x="1165" y="-2535" />
<use href="#obstacle" x="1165" y="-2635" />
<use href="#obstacle" x="1165" y="-2935" />
<use href="#obstacle" x="1165" y="-3035" />
<use href="#obstacle" x="1165" y="-3135" />
<use href="#obstacle" x="1165" y="-3435" />
<use href="#obstacle" x="1265" y="-135" />
<use href="#obstacle" x="1265" y="-835" />
<use href="#obstacle" x="1265" y="-1135" />
<use href="#obstacle" x="1265" y="-1635" />
<use href="#obstacle" x="1265" y="-2035" />
<use href="#obstacle" x="1265" y="-2235" />
<use href="#obstacle" x="1265" y="-2535" />
<use href="#obstacle" x="1265" y="-2935" />
<use href="#obstacle" x="1265" y="-3435" />
<use href="#obstacle" x="1365" y="-135" />
<use href="#obstacle" x="1365" y="-335" />
<use href="#obstacle" x="1365" y="-635" />
<use href="#obstacle" x="1365" y="-1035" />
<use href="#obstacle" x="1365" y="-1135" />
<use href="#obstacle" x="1365" y="-1235" />
<use href="#obstacle" x="1365" y="-1335" />
<use href="#obstacle" x="1365" y="-1435" />
<use href="#obstacle" x="1365" y="-1635" />
<use href="#obstacle" x="1365" y="-2035" />
<use href="#obstacle" x="1365" y="-2335" />
<use href="#obstacle" x="1365" y="-2835" />
<use href="#obstacle" x="1365" y="-3435" />
<use href="#obstacle" x="1465" y="-135" />
<use href="#obstacle" x="1465" y="-935" />
<use href="#obstacle" x="1465" y="-1135" />
<use href="#obstacle" x="1465" y="-1335" />
<use href="#obstacle" x="1465" y="-1535" />
<use href="#obstacle" x="1465" y="-1835" />
<use href="#obstacle" x="1465" y="-2035" />
<use href="#obstacle" x="1465" y="-2335" />
<use href="#obstacle" x="1465" y="-2435" />
<use href="#obstacle" x="1465" y="-2535" />
<use href="#obstacle" x="1465" y="-2735" />
<use href="#obstacle" x="1465" y="-3135" />
<use href="#obstacle" x="1465" y="-3235" />
<use href="#obstacle" x="1465" y="-3335" />
<use href="#obstacle" x="1465" y="-3435" />
<use href="#obstacle" x="1565" y="-135" />
<use href="#obstacle" x="1565" y="-735" />
<use href="#obstacle" x="1565" y="-1035" />
<use href="#obstacle" x="1565" y="-1235" />
<use href="#obstacle" x="1565" y="-2235" />
<use href="#obstacle" x="1565" y="-2635" />
<use href="#obstacle" x="1565" y="-2735" />
<use href="#obstacle" x="1565" y="-3435" />
<use href="#obstacle" x="1665" y="-135" />
<use href="#obstacle" x="1665" y="-535" />
<use href="#obstacle" x="1665" y="-635" />
<use href="#obstacle" x="1665" y="-935" />
<use href="#obstacle" x="1665" y="-1135" />
<use href="#obstacle" x="1665" y="-1235" />
<use href="#obstacle" x="1665" y="-1735" />
<use href="#obstacle" x="1665" y="-1935" />
<use href="#obstacle" x="1665" y="-2135" />
<use href="#obstacle" x="1665" y="-2835" />
<use href="#obstacle" x="1665" y="-3235" />
<use href="#obstacle" x="1665" y="-3435" />
<use href="#obstacle" x="1765" y="-135" />
<use href="#obstacle" x="1765" y="-535" />
<use href="#obstacle" x="1765" y="-735" />
<use href="#obstacle" x="1765" y="-1035" />
<use href="#obstacle" x="1765" y="-1235" />
<use href="#obstacle" x="1765" y="-1335" />
<use href="#obstacle" x="1765" y="-1635" />
<use href="#obstacle" x="1765" y="-1835" />
<use href="#obstacle" x="1765" y="-2435" />
<use href="#obstacle" x="1765" y="-2535" />
<use href="#obstacle" x="1765" y="-2735" />
<use href="#obstacle" x="1765" y="-2835" />
<use href="#obstacle" x="1765" y="-2935" />
<use href="#obstacle" x="1765" y="-3035" />
<use href="#obstacle" x="1765" y="-3435" />
<use href="#obstacle" x="1865" y="-135" />
<use href="#obstacle" x="1865" y="-435" />
<use href="#obstacle" x="1865" y="-1335" />
<use href="#obstacle" x="1865" y="-1735" />
<use href="#obstacle" x="1865" y="-1935" />
<use href="#obstacle" x="1865" y="-2335" />
<use href="#obstacle" x="1865" y="-2435" />
<use href="#obstacle" x="1865" y="-2535" />
<use href="#obstacle" x="1865" y="-2635" />
<use href="#obstacle" x="1865" y="-2835" />
<use href="#obstacle" x="1865" y="-2935" />
<use href="#obstacle" x="1865" y="-3435" />
<use href="#obstacle" x="1965" y="-135" />
<use href="#obstacle" x="1965" y="-1035" />
<use href="#obstacle" x="1965" y="-1835" />
<use href="#obstacle" x="1965" y="-2135" />
<use href="#obstacle" x="1965" y="-2435" />
<use href="#obstacle" x="1965" y="-2735" />
<use href="#obstacle" x="1965" y="-3135" />
<use href="#obstacle" x="1965" y="-3435" />
<use href="#obstacle" x="2065" y="-135" />
<use href="#obstacle" x="2065" y="-2135" />
<use href="#obstacle" x="2065" y="-2635" />
<use href="#obstacle" x="2065" y="-2735" />
<use href="#obstacle" x="2065" y="-3335" />
<use href="#obstacle" x="2065" y="-3435" />
<use href="#obstacle" x="2165" y="-135" />
<use href="#obstacle" x="2165" y="-235" />
<use href="#obstacle" x="2165" y="-1135" />
<use href="#obstacle" x="2165" y="-1235" />
<use href="#obstacle" x="2165" y="-2535" />
<use href="#obstacle" x="2165" y="-2635" />
<use href="#obstacle" x="2165" y="-2735" />
<use href="#obstacle" x="2165" y="-3435" />
<use href="#obstacle" x="2265" y="-135" />
<use href="#obstacle" x="2265" y="-435" />
<use href="#obstacle" x="2265" y="-835" />
<use href="#obstacle" x="2265" y="-935" />
<use href="#obstacle" x="2265" y="-1235" />
<use href="#obstacle" x="2265" y="-1335" />
<use href="#obstacle" x="2265" y="-1535" />
<use href="#obstacle" x="2265" y="-1635" />
<use href="#obstacle" x="2265" y="-1835" />
<use href="#obstacle" x="2265" y="-2035" />
<use href="#obstacle" x="2265" y="-2135" />
<use href="#obstacle" x="2265" y="-2335" />
<use href="#obstacle" x="2265" y="-3335" />
<use href="#obstacle" x="2265" y="-3435" />
<use href="#obstacle" x="2365" y="-135" />
<use href="#obstacle" x="2365" y="-735" />
<use href="#obstacle" x="2365" y="-835" />
<use href="#obstacle" x="2365" y="-1035" />
<use href="#obstacle" x="2365" y="-1135" />
<use href="#obstacle" x="2365" y="-1235" />
<use href="#obstacle" x="2365" y="-1335" />
<use href="#obstacle" x="2365" y="-2035" />
<use href="#obstacle" x="2365" y="-2135" />
<use href="#obstacle" x="2365" y="-2335" />
<use href="#obstacle" x="2365" y="-2735" />
<use href="#obstacle" x="2365" y="-3435" />
<use href="#obstacle" x="2465" y="-135" />
<use href="#obstacle" x="2465" y="-735" />
<use href="#obstacle" x="2465" y="-1035" />
<use href="#obstacle" x="2465" y="-1135" />
<use href="#obstacle" x="2465" y="-1735" />
<use href="#obstacle" x="2465" y="-1835" />
<use href="#obstacle" x="2465" y="-2035" />
<use href="#obstacle" x="2465" y="-2935" />
<use href="#obstacle" x="2465" y="-3035" />
<use href="#obstacle" x="2465" y="-3135" />
<use href="#obstacle" x="2465" y="-3335" />
<use href="#obstacle" x="2465" y="-3435" />
<use href="#obstacle" x="2565" y="-135" />
<use href="#obstacle" x="2565" y="-435" />
<use href="#obstacle" x="2565" y="-635" />
<use href="#obstacle" x="2565" y="-835" />
<use href="#obstacle" x="2565" y="-1535" />
<use href="#obstacle" x="2565" y="-1635" />
<use href="#obstacle" x="2565" y="-1735" />
<use href="#obstacle" x="2565" y="-1835" />
<use href="#obstacle" x="2565" y="-2035" />
<use href="#obstacle" x="2565" y="-2835" />
<use href="#obstacle" x="2565" y="-3035" />
<use href="#obstacle" x="2565" y="-3135" />
<use href="#obstacle" x="2565" y="-3335" />
<use href="#obstacle" x="2565" y="-3435" />
<use href="#obstacle" x="2665" y="-135" />
<use href="#obstacle" x="2665" y="-635" />
<use href="#obstacle" x="2665" y="-1135" />
<use href="#obstacle" x="2665" y="-1335" />
<use href="#obstacle" x="2665" y="-1435" />
<use href="#obstacle" x="2665" y="-2235" />
<use href="#obstacle" x="2665" y="-2335" />
<use href="#obstacle" x="2665" y="-3035" />
<use href="#obstacle" x="2665" y="-3135" />
<use href="#obstacle" x="2665" y="-3235" />
<use href="#obstacle" x="2665" y="-3435" />
<use href="#obstacle" x="2765" y="-135" />
<use href="#obstacle" x="2765" y="-335" />
<use href="#obstacle" x="2765" y="-835" />
<use href="#obstacle" x="2765" y="-935" />
<use href="#obstacle" x="2765" y="-1235" />
<use href="#obstacle" x="2765" y="-1535" />
<use href="#obstacle" x="2765" y="-1635" />
<use href="#obstacle" x="2765" y="-1935" />
<use href="#obstacle" x="2765" y="-2035" />
<use href="#obstacle" x="2765" y="-3435" />
<use href="#obstacle" x="2865" y="-135" />
<use href="#obstacle" x="2865" y="-835" />
<use href="#obstacle" x="2865" y="-1035" />
<use href="#obstacle" x="2865" y="-1135" />
<use href="#obstacle" x="2865" y="-1435" />
<use href="#obstacle" x="2865" y="-1635" />
<use href="#obstacle" x="2865" y="-2035" />
<use href="#obstacle" x="2865" y="-2135" />
<use href="#obstacle" x="2865" y="-3035" />
<use href="#obstacle" x="2865" y="-3335" />
<use href="#obstacle" x="2865" y="-3435" />
<use href="#obstacle" x="2965" y="-135" />
<use href="#obstacle" x="2965" y="-435" />
<use href="#obstacle" x="2965" y="-635" />
<use href="#obstacle" x="2965" y="-1035" />
<use href="#obstacle" x="2965" y="-1235" />
<use href="#obstacle" x="2965" y="-1735" />
<use href="#obstacle" x="2965" y="-2035" />
<use href="#obstacle" x="2965" y="-2435" />
<use href="#obstacle" x="2965" y="-2835" />
<use href="#obstacle" x="2965" y="-3135" />
<use href="#obstacle" x="2965" y="-3235" />
<use href="#obstacle" x="2965" y="-3435" />
<use href="#obstacle" x="3065" y="-135" />
<use href="#obstacle" x="3065" y="-435" />
<use href="#obstacle" x="3065" y="-535" />
<use href="#obstacle" x="3065" y="-735" />
<use href="#obstacle" x="3065" y="-1735" />
<use href="#obstacle" x="3065" y="-2235" />
<use href="#obstacle" x="3065" y="-2335" />
<use href="#obstacle" x="3065" y="-2435" />
<use href="#obstacle" x="3065" y="-2535" />
<use href="#obstacle" x="3065" y="-3435" />
<use href="#obstacle" x="3165" y="-135" />
<use href="#obstacle" x="3165" y="-235" />
<use href="#obstacle" x="3165" y="-535" />
<use href="#obstacle" x="3165" y="-1135" />
<use href="#obstacle" x="3165" y="-1635" />
<use href="#obstacle" x="3165" y="-2335" />
<use href="#obstacle" x="3165" y="-2435" />
<use href="#obstacle" x="3165" y="-2735" />
<use href="#obstacle" x="3165" y="-2835" />
<use href="#obstacle" x="3165" y="-2935" />
<use href="#obstacle" x="3165" y="-3435" />
<use href="#obstacle" x="3265" y="-135" />
<use href="#obstacle" x="3265" y="-535" />
<use href="#obstacle" x="3265" y="-1135" />
<use href="#obstacle" x="3265" y="-1235" />
<use href="#obstacle" x="3265" y="-2035" />
<use href="#obstacle" x="3265" y="-2735" />
<use href="#obstacle" x="3265" y="-2835" />
<use href="#obstacle" x="3265" y="-2935" />
<use href="#obstacle" x="3265" y="-3035" />
<use href="#obstacle" x="3265" y="-3435" />
<use href="#obstacle" x="3365" y="-135" />
<use href="#obstacle" x="3365" y="-235" />
<use href="#obstacle" x="3365" y="-335" />
<use href="#obstacle" x="3365" y="-435" />
<use href="#obstacle" x="3365" y="-535" />
<use href="#obstacle" x="3365" y="-635" />
<use href="#obstacle" x="3365" y="-735" />
<use href="#obstacle" x="3365" y="-835" />
<use href="#obstacle" x="3365" y="-935" />
<use href="#obstacle" x="3365" y="-1035" />
<use href="#obstacle" x="3365" y="-1135" />
<use href="#obstacle" x="3365" y="-1235" />
<use href="#obstacle" x="3365" y="-1335" />
<use href="#obstacle" x="3365" y="-1435" />
<use href="#obstacle" x="3365" y="-1535" />
<use href="#obstacle" x="3365" y="-1635" />
<use href="#obstacle" x="3365" y="-1735" />
<use href="#obstacle" x="3365" y="-1835" />
<use href="#obstacle" x="3365" y="-1935" />
<use href="#obstacle" x="3365" y="-2035" />
<use href="#obstacle" x="3365" y="-2135" />
<use href="#obstacle" x="3365" y="-2235" />
<use href="#obstacle" x="3365" y="-2335" />
<use href="#obstacle" x="3365" y="-2435" />
<use href="#obstacle" x="3365" y="-2535" />
<use href="#obstacle" x="3365" y="-2635" />
<use href="#obstacle" x="3365" y="-2735" />
<use href="#obstacle" x="3365" y="-2835" />
<use href="#obstacle" x="3365" y="-2935" />
<use href="#obstacle" x="3365" y="-3035" />
<use href="#obstacle" x="3365" y="-3135" />
<use href="#obstacle" x="3365" y="-3235" />
<use href="#obstacle" x="3365" y="-3335" />
<use href="#obstacle" x="3365" y="-3435" />
<circle class="agent" cx="400" cy="-1800" fill="#c1433c" r="35"> <animate attributeName="cy" dur="25.0s" keyTimes="0.0;0.0099009901;0.099009901;0.1089108911;0.1188118812;0.1287128713;0.1683168317;0.1782178218;0.1881188119;0.198019802;0.2079207921;0.2178217822;0.2376237624;0.2475247525;0.2574257426;0.3069306931;0.3168316832;0.3267326733;0.3366336634;0.4356435644;0.4455445545;0.4554455446;0.4653465347;0.4752475248;0.504950495;0.5148514851;0.5247524752;0.5346534653;0.5445544554;0.6435643564;0.6534653465;0.6633663366;0.6732673267;0.6831683168;0.6930693069;0.7524752475;0.7623762376;0.801980198;0.8118811881;0.8415841584;0.8514851485;0.9207920792;0.9306930693;0.9405940594;0.9504950495;0.9801980198;0.9900990099;1.0" repeatCount="indefinite" values="-1800;-1800;-1800;-1700;-1700;-1600;-1600;-1500;-1500;-1400;-1300;-1200;-1200;-1100;-1000;-1000;-900;-900;-800;-800;-900;-900;-1000;-1100;-1100;-1200;-1200;-1300;-1400;-1400;-1500;-1600;-1700;-1800;-1900;-1900;-1800;-1800;-1700;-1700;-1800;-1800;-1700;-1600;-1500;-1500;-1400;-1400"/>
<animate attributeName="cx" dur="25.0s" keyTimes="0.0;0.0099009901;0.0297029703;0.0396039604;0.0495049505;0.0594059406;0.0693069307;0.1089108911;0.1188118812;0.1287128713;0.1386138614;0.1782178218;0.1881188119;0.2871287129;0.297029703;0.3069306931;0.3168316832;0.3267326733;0.3663366337;0.3762376238;0.3861386139;0.396039604;0.4059405941;0.4455445545;0.4554455446;0.5148514851;0.5247524752;0.5742574257;0.5841584158;0.5940594059;0.603960396;0.6138613861;0.6930693069;0.702970297;0.7128712871;0.7425742574;0.7524752475;0.7623762376;0.7722772277;0.7821782178;0.8514851485;0.8613861386;0.8712871287;0.8811881188;0.9108910891;0.9207920792;1.0" repeatCount="indefinite" values="400;400;400;500;600;700;800;800;900;900;1000;1000;1100;1100;1200;1300;1300;1400;1400;1500;1600;1700;1800;1800;1900;1900;2000;2000;2100;2200;2300;2400;2400;2500;2600;2600;2700;2700;2800;2900;2900;3000;3100;3200;3200;3300;3300"/>
<animate attributeName="visibility" dur="25.0s" keyTimes="0.0;0.0099009901;1.0" repeatCount="indefinite" values="visible;visible;visible"/> </circle>
<circle class="agent" cx="1700" cy="-400" fill="#2e6f9e" r="35"> <animate attributeName="cy" dur="25.0s" keyTimes="0.0;0.0099009901;0.0792079208;0.0891089109;0.099009901;0.1089108911;1.0" repeatCount="indefinite" values="-400;-400;-400;-500;-500;-600;-600"/>
<animate attributeName="cx" dur="25.0s" keyTimes="0.0;0.0099009901;0.0198019802;0.0297029703;0.0396039604;0.0495049505;0.0594059406;0.0693069307;0.0792079208;0.0891089109;0.099009901;1.0" repeatCount="indefinite" values="1700;1700;1600;1500;1400;1300;1200;1100;1000;1000;900;900"/>
<animate attributeName="visibility" dur="25.0s" keyTimes="0.0;0.0099009901;1.0" repeatCount="indefinite" values="visible;visible;visible"/> </circle>
<circle class="target" cx="3300" cy="-1400" r="35" stroke="#c1433c"> <animate attributeName="visibility" dur="25.0s" keyTimes="0.0;0.0099009901;1.0" repeatCount="indefinite" values="visible;visible;visible"/> </circle>
<circle class="target" cx="900" cy="-600" r="35" stroke="#2e6f9e"> <animate attributeName="visibility" dur="25.0s" keyTimes="0.0;0.0099009901;1.0" repeatCount="indefinite" values="visible;visible;visible"/> </circle>
</svg>