<?xml version="1.0" encoding="UTF-8"?>
        <svg xmlns="http://www.w3.org/2000/svg" xmlns:xlink="http://www.w3.org/1999/xlink"
             width="430" height="430" viewBox="0 -4300 4300 4300">

<defs>

</defs>

<rect fill="#84A1AE" height="70" rx="15" width="70" x="465" y="-535" />
<rect fill="#84A1AE" height="70" rx="15" width="70" x="465" y="-635" />
<rect fill="#84A1AE" height="70" rx="15" width="70" x="465" y="-735" />
<rect fill="#84A1AE" height="70" rx="15" width="70" x="465" y="-835" />
<rect fill="#84A1AE" height="70" rx="15" width="70" x="465" y="-935" />
<rect fill="#84A1AE" height="70" rx="15" width="70" x="465" y="-1035" />
<rect fill="#84A1AE" height="70" rx="15" width="70" x="465" y="-1135" />
<rect fill="#84A1AE" height="70" rx="15" width="70" x="465" y="-1235" />
<rect fill="#84A1AE" height="70" rx="15" width="70" x="465" y="-1335" />
<rect fill="#84A1AE" height="70" rx="15" width="70" x="465" y="-1435" />
<rect fill="#84A1AE" height="70" rx="15" width="70" x="465" y="-1535" />
<rect fill="#84A1AE" height="70" rx="15" width="70" x="465" y="-1635" />
<rect fill="#84A1AE" height="70" rx="15" width="70" x="465" y="-1735" />
<rect fill="#84A1AE" height="70" rx="15" width="70" x="465" y="-1835" />
<rect fill="#84A1AE" height="70" rx="15" width="70" x="465" y="-1935" />
<rect fill="#84A1AE" height="70" rx="15" width="70" x="465" y="-2035" />
<rect fill="#84A1AE" height="70" rx="15" width="70" x="465" y="-2135" />
<rect fill="#84A1AE" height="70" rx="15" width="70" x="465" y="-2235" />
<rect fill="#84A1AE" height="70" rx="15" width="70" x="465" y="-2335" />
<rect fill="#84A1AE" height="70" rx="15" width="70" x="465" y="-2435" />
<rect fill="#84A1AE" height="70" rx="15" width="70" x="465" y="-2535" />
<rect fill="#84A1AE" height="70" rx="15" width="70" x="465" y="-2635" />
<rect fill="#84A1AE" height="70" rx="15" width="70" x="465" y="-2735" />
<rect fill="#84A1AE" height="70" rx="15" width="70" x="465" y="-2835" />
<rect fill="#84A1AE" height="70" rx="15" width="70" x="465" y="-2935" />
<rect fill="#84A1AE" height="70" rx="15" width="70" x="465" y="-3035" />
<rect fill="#84A1AE" height="70" rx="15" width="70" x="465" y="-3135" />
<rect fill="#84A1AE" height="70" rx="15" width="70" x="465" y="-3235" />
<rect fill="#84A1AE" height="70" rx="15" width="70" x="465" y="-3335" />
<rect fill="#84A1AE" height="70" rx="15" width="70" x="465" y="-3435" />
<rect fill="#84A1AE" height="70" rx="15" width="70" x="465" y="-3535" />
<rect fill="#84A1AE" height="70" rx="15" width="70" x="465" y="-3635" />
<rect fill="#84A1AE" height="70" rx="15" width="70" x="465" y="-3735" />
<rect fill="#84A1AE" height="70" rx="15" width="70" x="465" y="-3835" />
<rect fill="#84A1AE" height="70" rx="15" width="70" x="565" y="-535" />
<rect fill="#84A1AE" height="70" rx="15" width="70" x="565" y="-1635" />
<rect fill="#84A1AE" height="70" rx="15" width="70" x="565" y="-1935" />
<rect fill="#84A1AE" height="70" rx="15" width="70" x="565" y="-2735" />
<rect fill="#84A1AE" height="70" rx="15" width="70" x="565" y="-3835" />
<rect fill="#84A1AE" height="70" rx="15" width="70" x="665" y="-535" />
<rect fill="#84A1AE" height="70" rx="15" width="70" x="665" y="-1035" />
<rect fill="#84A1AE" height="70" rx="15" width="70" x="665" y="-2535" />
<rect fill="#84A1AE" height="70" rx="15" width="70" x="665" y="-3035" />
<rect fill="#84A1AE" height="70" rx="15" width="70" x="665" y="-3235" />
<rect fill="#84A1AE" height="70" rx="15" width="70" x="665" y="-3835" />
<rect fill="#84A1AE" height="70" rx="15" width="70" x="765" y="-535" />
<rect fill="#84A1AE" height="70" rx="15" width="70" x="765" y="-635" />
<rect fill="#84A1AE" height="70" rx="15" width="70" x="765" y="-3835" />
<rect fill="#84A1AE" height="70" rx="15" width="70" x="865" y="-535" />
<rect fill="#84A1AE" height="70" rx="15" width="70" x="865" y="-2435" />
<rect fill="#84A1AE" height="70" rx="15" width="70" x="865" y="-2535" />
<rect fill="#84A1AE" height="70" rx="15" width="70" x="865" y="-3335" />
<rect fill="#84A1AE" height="70" rx="15" width="70" x="865" y="-3435" />
<rect fill="#84A1AE" height="70" rx="15" width="70" x="865" y="-3835" />
<rect fill="#84A1AE" height="70" rx="15" width="70" x="965" y="-535" />
<rect fill="#84A1AE" height="70" rx="15" width="70" x="965" y="-735" />
<rect fill="#84A1AE" height="70" rx="15" width="70" x="965" y="-1635" />
<rect fill="#84A1AE" height="70" rx="15" width="70" x="965" y="-1835" />
<rect fill="#84A1AE" height="70" rx="15" width="70" x="965" y="-2835" />
<rect fill="#84A1AE" height="70" rx="15" width="70" x="965" y="-3435" />
<rect fill="#84A1AE" height="70" rx="15" width="70" x="965" y="-3835" />
<rect fill="#84A1AE" height="70" rx="15" width="70" x="1065" y="-535" />
<rect fill="#84A1AE" height="70" rx="15" width="70" x="1065" y="-1135" />
<rect fill="#84A1AE" height="70" rx="15" width="70" x="1065" y="-1835" />
<rect fill="#84A1AE" height="70" rx="15" width="70" x="1065" y="-3735" />
<rect fill="#84A1AE" height="70" rx="15" width="70" x="1065" y="-3835" />
<rect fill="#84A1AE" height="70" rx="15" width="70" x="1165" y="-535" />
<rect fill="#84A1AE" height="70" rx="15" width="70" x="1165" y="-635" />
<rect fill="#84A1AE" height="70" rx="15" width="70" x="1165" y="-735" />
<rect fill="#84A1AE" height="70" rx="15" width="70" x="1165" y="-1535" />
<rect fill="#84A1AE" height="70" rx="15" width="70" x="1165" y="-3835" />
<rect fill="#84A1AE" height="70" rx="15" width="70" x="1265" y="-535" />
<rect fill="#84A1AE" height="70" rx="15" width="70" x="1265" y="-2835" />
<rect fill="#84A1AE" height="70" rx="15" width="70" x="1265" y="-3435" />
<rect fill="#84A1AE" height="70" rx="15" width="70" x="1265" y="-3835" />
<rect fill="#84A1AE" height="70" rx="15" width="70" x="1365" y="-535" />
<rect fill="#84A1AE" height="70" rx="15" width="70" x="1365" y="-835" />
<rect fill="#84A1AE" height="70" rx="15" width="70" x="1365" y="-935" />
<rect fill="#84A1AE" height="70" rx="15" width="70" x="1365" y="-1035" />
<rect fill="#84A1AE" height="70" rx="15" width="70" x="1365" y="-1935" />
<rect fill="#84A1AE" height="70" rx="15" width="70" x="1365" y="-2335" />
<rect fill="#84A1AE" height="70" rx="15" width="70" x="1365" y="-2635" />
<rect fill="#84A1AE" height="70" rx="15" width="70" x="1365" y="-2835" />
<rect fill="#84A1AE" height="70" rx="15" width="70" x="1365" y="-2935" />
<rect fill="#84A1AE" height="70" rx="15" width="70" x="1365" y="-3035" />
<rect fill="#84A1AE" height="70" rx="15" width="70" x="1365" y="-3335" />
<rect fill="#84A1AE" height="70" rx="15" width="70" x="1365" y="-3835" />
<rect fill="#84A1AE" height="70" rx="15" width="70" x="1465" y="-535" />
<rect fill="#84A1AE" height="70" rx="15" width="70" x="1465" y="-1235" />
<rect fill="#84A1AE" height="70" rx="15" width="70" x="1465" y="-1535" />
<rect fill="#84A1AE" height="70" rx="15" width="70" x="1465" y="-2035" />
<rect fill="#84A1AE" height="70" rx="15" width="70" x="1465" y="-3135" />
<rect fill="#84A1AE" height="70" rx="15" width="70" x="1465" y="-3235" />
<rect fill="#84A1AE" height="70" rx="15" width="70" x="1465" y="-3835" />
<rect fill="#84A1AE" height="70" rx="15" width="70" x="1565" y="-535" />
<rect fill="#84A1AE" height="70" rx="15" width="70" x="1565" y="-3035" />
<rect fill="#84A1AE" height="70" rx="15" width="70" x="1565" y="-3835" />
<rect fill="#84A1AE" height="70" rx="15" width="70" x="1665" y="-535" />
<rect fill="#84A1AE" height="70" rx="15" width="70" x="1665" y="-3735" />
<rect fill="#84A1AE" height="70" rx="15" width="70" x="1665" y="-3835" />
<rect fill="#84A1AE" height="70" rx="15" width="70" x="1765" y="-535" />
<rect fill="#84A1AE" height="70" rx="15" width="70" x="1765" y="-1235" />
<rect fill="#84A1AE" height="70" rx="15" width="70" x="1765" y="-3835" />
<rect fill="#84A1AE" height="70" rx="15" width="70" x="1865" y="-535" />
<rect fill="#84A1AE" height="70" rx="15" width="70" x="1865" y="-735" />
<rect fill="#84A1AE" height="70" rx="15" width="70" x="1865" y="-1335" />
<rect fill="#84A1AE" height="70" rx="15" width="70" x="1865" y="-3235" />
<rect fill="#84A1AE" height="70" rx="15" width="70" x="1865" y="-3435" />
<rect fill="#84A1AE" height="70" rx="15" width="70" x="1865" y="-3835" />
<rect fill="#84A1AE" height="70" rx="15" width="70" x="1965" y="-535" />
<rect fill="#84A1AE" height="70" rx="15" width="70" x="1965" y="-635" />
<rect fill="#84A1AE" height="70" rx="15" width="70" x="1965" y="-1835" />
<rect fill="#84A1AE" height="70" rx="15" width="70" x="1965" y="-1935" />
<rect fill="#84A1AE" height="70" rx="15" width="70" x="1965" y="-2135" />
<rect fill="#84A1AE" height="70" rx="15" width="70" x="1965" y="-2335" />
<rect fill="#84A1AE" height="70" rx="15" width="70" x="1965" y="-2435" />
<rect fill="#84A1AE" height="70" rx="15" width="70" x="1965" y="-3335" />
<rect fill="#84A1AE" height="70" rx="15" width="70" x="1965" y="-3835" />
<rect fill="#84A1AE" height="70" rx="15" width="70" x="2065" y="-535" />
<rect fill="#84A1AE" height="70" rx="15" width="70" x="2065" y="-1535" />
<rect fill="#84A1AE" height="70" rx="15" width="70" x="2065" y="-1635" />
<rect fill="#84A1AE" height="70" rx="15" width="70" x="2065" y="-2135" />
<rect fill="#84A1AE" height="70" rx="15" width="70" x="2065" y="-3835" />
<rect fill="#84A1AE" height="70" rx="15" width="70" x="2165" y="-535" />
<rect fill="#84A1AE" height="70" rx="15" width="70" x="2165" y="-935" />
<rect fill="#84A1AE" height="70" rx="15" width="70" x="2165" y="-1335" />
<rect fill="#84A1AE" height="70" rx="15" width="70" x="2165" y="-1835" />
<rect fill="#84A1AE" height="70" rx="15" width="70" x="2165" y="-3835" />
<rect fill="#84A1AE" height="70" rx="15" width="70" x="2265" y="-535" />
<rect fill="#84A1AE" height="70" rx="15" width="70" x="2265" y="-935" />
<rect fill="#84A1AE" height="70" rx="15" width="70" x="2265" y="-1135" />
<rect fill="#84A1AE" height="70" rx="15" width="70" x="2265" y="-2535" />
<rect fill="#84A1AE" height="70" rx="15" width="70" x="2265" y="-3235" />
<rect fill="#84A1AE" height="70" rx="15" width="70" x="2265" y="-3835" />
<rect fill="#84A1AE" height="70" rx="15" width="70" x="2365" y="-535" />
<rect fill="#84A1AE" height="70" rx="15" width="70" x="2365" y="-935" />
<rect fill="#84A1AE" height="70" rx="15" width="70" x="2365" y="-1035" />
<rect fill="#84A1AE" height="70" rx="15" width="70" x="2365" y="-3835" />
<rect fill="#84A1AE" height="70" rx="15" width="70" x="2465" y="-535" />
<rect fill="#84A1AE" height="70" rx="15" width="70" x="2465" y="-935" />
<rect fill="#84A1AE" height="70" rx="15" width="70" x="2465" y="-1535" />
<rect fill="#84A1AE" height="70" rx="15" width="70" x="2465" y="-2335" />
<rect fill="#84A1AE" height="70" rx="15" width="70" x="2465" y="-2735" />
<rect fill="#84A1AE" height="70" rx="15" width="70" x="2465" y="-3835" />
<rect fill="#84A1AE" height="70" rx="15" width="70" x="2565" y="-535" />
<rect fill="#84A1AE" height="70" rx="15" width="70" x="2565" y="-735" />
<rect fill="#84A1AE" height="70" rx="15" width="70" x="2565" y="-2535" />
<rect fill="#84A1AE" height="70" rx="15" width="70" x="2565" y="-3835" />
<rect fill="#84A1AE" height="70" rx="15" width="70" x="2665" y="-535" />
<rect fill="#84A1AE" height="70" rx="15" width="70" x="2665" y="-635" />
<rect fill="#84A1AE" height="70" rx="15" width="70" x="2665" y="-1135" />
<rect fill="#84A1AE" height="70" rx="15" width="70" x="2665" y="-1435" />
<rect fill="#84A1AE" height="70" rx="15" width="70" x="2665" y="-2735" />
<rect fill="#84A1AE" height="70" rx="15" width="70" x="2665" y="-3835" />
<rect fill="#84A1AE" height="70" rx="15" width="70" x="2765" y="-535" />
<rect fill="#84A1AE" height="70" rx="15" width="70" x="2765" y="-1635" />
<rect fill="#84A1AE" height="70" rx="15" width="70" x="2765" y="-1835" />
<rect fill="#84A1AE" height="70" rx="15" width="70" x="2765" y="-1935" />
<rect fill="#84A1AE" height="70" rx="15" width="70" x="2765" y="-2235" />
<rect fill="#84A1AE" height="70" rx="15" width="70" x="2765" y="-3735" />
<rect fill="#84A1AE" height="70" rx="15" width="70" x="2765" y="-3835" />
<rect fill="#84A1AE" height="70" rx="15" width="70" x="2865" y="-535" />
<rect fill="#84A1AE" height="70" rx="15" width="70" x="2865" y="-3835" />
<rect fill="#84A1AE" height="70" rx="15" width="70" x="2965" y="-535" />
<rect fill="#84A1AE" height="70" rx="15" width="70" x="2965" y="-2635" />
<rect fill="#84A1AE" height="70" rx="15" width="70" x="2965" y="-3835" />
<rect fill="#84A1AE" height="70" rx="15" width="70" x="3065" y="-535" />
<rect fill="#84A1AE" height="70" rx="15" width="70" x="3065" y="-735" />
<rect fill="#84A1AE" height="70" rx="15" width="70" x="3065" y="-2535" />
<rect fill="#84A1AE" height="70" rx="15" width="70" x="3065" y="-3835" />
<rect fill="#84A1AE" height="70" rx="15" width="70" x="3165" y="-535" />
<rect fill="#84A1AE" height="70" rx="15" width="70" x="3165" y="-835" />
<rect fill="#84A1AE" height="70" rx="15" width="70" x="3165" y="-1935" />
<rect fill="#84A1AE" height="70" rx="15" width="70" x="3165" y="-2735" />
<rect fill="#84A1AE" height="70" rx="15" width="70" x="3165" y="-3135" />
<rect fill="#84A1AE" height="70" rx="15" width="70" x="3165" y="-3835" />
<rect fill="#84A1AE" height="70" rx="15" width="70" x="3265" y="-535" />
<rect fill="#84A1AE" height="70" rx="15" width="70" x="3265" y="-1035" />
<rect fill="#84A1AE" height="70" rx="15" width="70" x="3265" y="-1735" />
<rect fill="#84A1AE" height="70" rx="15" width="70" x="3265" y="-3835" />
<rect fill="#84A1AE" height="70" rx="15" width="70" x="3365" y="-535" />
<rect fill="#84A1AE" height="70" rx="15" width="70" x="3365" y="-1435" />
<rect fill="#84A1AE" height="70" rx="15" width="70" x="3365" y="-1935" />
<rect fill="#84A1AE" height="70" rx="15" width="70" x="3365" y="-2135" />
<rect fill="#84A1AE" height="70" rx="15" width="70" x="3365" y="-3835" />
<rect fill="#84A1AE" height="70" rx="15" width="70" x="3465" y="-535" />
<rect fill="#84A1AE" height="70" rx="15" width="70" x="3465" y="-2635" />
<rect fill="#84A1AE" height="70" rx="15" width="70" x="3465" y="-3835" />
<rect fill="#84A1AE" height="70" rx="15" width="70" x="3565" y="-535" />
<rect fill="#84A1AE" height="70" rx="15" width="70" x="3565" y="-635" />
<rect fill="#84A1AE" height="70" rx="15" width="70" x="3565" y="-2435" />
<rect fill="#84A1AE" height="70" rx="15" width="70" x="3565" y="-3235" />
<rect fill="#84A1AE" height="70" rx="15" width="70" x="3565" y="-3835" />
<rect fill="#84A1AE" height="70" rx="15" width="70" x="3665" y="-535" />
<rect fill="#84A1AE" height="70" rx="15" width="70" x="3665" y="-2135" />
<rect fill="#84A1AE" height="70" rx="15" width="70" x="3665" y="-2835" />
<rect fill="#84A1AE" height="70" rx="15" width="70" x="3665" y="-3135" />
<rect fill="#84A1AE" height="70" rx="15" width="70" x="3665" y="-3735" />
<rect fill="#84A1AE" height="70" rx="15" width="70" x="3665" y="-3835" />
<rect fill="#84A1AE" height="70" rx="15" width="70" x="3765" y="-535" />
<rect fill="#84A1AE" height="70" rx="15" width="70" x="3765" y="-635" />
<rect fill="#84A1AE" height="70" rx="15" width="70" x="3765" y="-735" />
<rect fill="#84A1AE" height="70" rx="15" width="70" x="3765" y="-835" />
<rect fill="#84A1AE" height="70" rx="15" width="70" x="3765" y="-935" />
<rect fill="#84A1AE" height="70" rx="15" width="70" x="3765" y="-1035" />
<rect fill="#84A1AE" height="70" rx="15" width="70" x="3765" y="-1135" />
<rect fill="#84A1AE" height="70" rx="15" width="70" x="3765" y="-1235" />
<rect fill="#84A1AE" height="70" rx="15" width="70" x="3765" y="-1335" />
<rect fill="#84A1AE" height="70" rx="15" width="70" x="3765" y="-1435" />
<rect fill="#84A1AE" height="70" rx="15" width="70" x="3765" y="-1535" />
<rect fill="#84A1AE" height="70" rx="15" width="70" x="3765" y="-1635" />
<rect fill="#84A1AE" height="70" rx="15" width="70" x="3765" y="-1735" />
<rect fill="#84A1AE" height="70" rx="15" width="70" x="3765" y="-1835" />
<rect fill="#84A1AE" height="70" rx="15" width="70" x="3765" y="-1935" />
<rect fill="#84A1AE" height="70" rx="15" width="70" x="3765" y="-2035" />
<rect fill="#84A1AE" height="70" rx="15" width="70" x="3765" y="-2135" />
<rect fill="#84A1AE" height="70" rx="15" width="70" x="3765" y="-2235" />
<rect fill="#84A1AE" height="70" rx="15" width="70" x="3765" y="-2335" />
<rect fill="#84A1AE" height="70" rx="15" width="70" x="3765" y="-2435" />
<rect fill="#84A1AE" height="70" rx="15" width="70" x="3765" y="-2535" />
<rect fill="#84A1AE" height="70" rx="15" width="70" x="3765" y="-2635" />
<rect fill="#84A1AE" height="70" rx="15" width="70" x="3765" y="-2735" />
<rect fill="#84A1AE" height="70" rx="15" width="70" x="3765" y="-2835" />
<rect fill="#84A1AE" height="70" rx="15" width="70" x="3765" y="-2935" />
<rect fill="#84A1AE" height="70" rx="15" width="70" x="3765" y="-3035" />
<rect fill="#84A1AE" height="70" rx="15" width="70" x="3765" y="-3135" />
<rect fill="#84A1AE" height="70" rx="15" width="70" x="3765" y="-3235" />
<rect fill="#84A1AE" height="70" rx="15" width="70" x="3765" y="-3335" />
<rect fill="#84A1AE" height="70" rx="15" width="70" x="3765" y="-3435" />
<rect fill="#84A1AE" height="70" rx="15" width="70" x="3765" y="-3535" />
<rect fill="#84A1AE" height="70" rx="15" width="70" x="3765" y="-3635" />
<rect fill="#84A1AE" height="70" rx="15" width="70" x="3765" y="-3735" />
<rect fill="#84A1AE" height="70" rx="15" width="70" x="3765" y="-3835" />
<circle cx="2500" cy="-1400" fill="#c1433c" r="35"> <animate attributeName="cy" dur="140.28s" keyTimes="0.0;0.0019920319;0.0039840637;0.0059760956;0.0079681275;0.0099601594;0.0119521912;0.0139442231;0.015936255;0.0179282869;0.0199203187;0.0219123506;0.0239043825;0.0258964143;0.0278884462;0.0298804781;0.03187251;0.0338645418;0.0358565737;0.0378486056;0.0398406375;0.0597609562;0.061752988;0.0637450199;0.0657370518;0.0677290837;0.0697211155;0.0717131474;0.0737051793;0.0756972112;0.077689243;0.0796812749;0.0816733068;0.0856573705;0.0876494024;0.0956175299;0.0976095618;0.0996015936;0.1015936255;0.1035856574;0.1055776892;0.1075697211;0.109561753;0.1115537849;0.1135458167;0.1155378486;0.1175298805;0.1195219124;0.1215139442;0.1235059761;0.125498008;0.1274900398;0.1294820717;0.1314741036;0.1334661355;0.1354581673;0.1374501992;0.1394422311;0.1414342629;0.1434262948;0.1454183267;0.1513944223;0.1533864542;0.1553784861;0.1573705179;0.1593625498;0.1613545817;0.1633466135;0.1653386454;0.1673306773;0.1693227092;0.171314741;0.1733067729;0.1752988048;0.1772908367;0.1812749004;0.1832669323;0.1992031873;0.2011952191;0.2051792829;0.2071713147;0.2171314741;0.219123506;0.2211155378;0.2231075697;0.2250996016;0.2270916335;0.2290836653;0.2310756972;0.2330677291;0.235059761;0.2370517928;0.2390438247;0.2430278884;0.2450199203;0.2470119522;0.2490039841;0.2509960159;0.264940239;0.2669322709;0.2689243028;0.2729083665;0.2749003984;0.2768924303;0.280876494;0.2828685259;0.2848605578;0.2868525896;0.2948207171;0.296812749;0.2988047809;0.3007968127;0.3027888446;0.3047808765;0.3067729084;0.3087649402;0.3107569721;0.312749004;0.3147410359;0.3167330677;0.3187250996;0.3505976096;0.3525896414;0.3804780876;0.3824701195;0.4143426295;0.4163346614;0.4243027888;0.4262948207;0.4282868526;0.4302788845;0.4322709163;0.4342629482;0.4362549801;0.438247012;0.4402390438;0.4442231076;0.4462151394;0.4482071713;0.4501992032;0.4521912351;0.4541832669;0.4561752988;0.4581673307;0.4601593625;0.4621513944;0.4641434263;0.4661354582;0.46812749;0.4701195219;0.4721115538;0.4741035857;0.4760956175;0.4780876494;0.4800796813;0.4820717131;0.484063745;0.4860557769;0.4880478088;0.4900398406;0.4920318725;0.4940239044;0.4960159363;0.4980079681;0.5;0.5019920319;0.5039840637;0.5059760956;0.5079681275;0.5099601594;0.5119521912;0.5139442231;0.5179282869;0.5199203187;0.5219123506;0.5239043825;0.5378486056;0.5398406375;0.5438247012;0.5458167331;0.5577689243;0.5597609562;0.561752988;0.5637450199;0.5717131474;0.5737051793;0.5756972112;0.577689243;0.5796812749;0.5816733068;0.5836653386;0.5956175299;0.5976095618;0.5996015936;0.6015936255;0.6035856574;0.6055776892;0.6075697211;0.609561753;0.6175298805;0.6195219124;0.6215139442;0.6235059761;0.625498008;0.6274900398;0.6294820717;0.6314741036;0.6334661355;0.6374501992;0.6394422311;0.6434262948;0.6454183267;0.6474103586;0.6952191235;0.6972111554;0.6992031873;0.7011952191;0.703187251;0.7051792829;0.7071713147;0.7091633466;0.7390438247;0.7410358566;0.7430278884;0.7450199203;0.7470119522;0.8844621514;0.8864541833;0.8884462151;0.890438247;0.8924302789;0.8944223108;0.8964143426;0.8984063745;0.9003984064;0.9023904382;0.9043824701;0.906374502;0.9083665339;0.9103585657;0.9123505976;0.9143426295;0.9163346614;0.9183266932;0.9203187251;0.9362549801;0.938247012;0.9402390438;0.9422310757;0.9442231076;0.9482071713;0.9501992032;0.9521912351;0.9541832669;0.9561752988;0.9581673307;0.9601593625;0.9621513944;0.9641434263;0.9661354582;0.96812749;0.9701195219;0.9721115538;0.9741035857;0.9760956175;0.9780876494;0.9800796813;0.9820717131;0.984063745;0.9860557769;0.9880478088;0.9900398406;0.9920318725;0.9940239044;0.9960159363;0.9980079681;1.0" repeatCount="indefinite" values="-1400;-1400;-1400;-1500;-1600;-1700;-1800;-1900;-2000;-2100;-2200;-2300;-2300;-2400;-2500;-2500;-2600;-2700;-2800;-2900;-3000;-3000;-2900;-2800;-2700;-2600;-2500;-2400;-2300;-2300;-2200;-2200;-2100;-2100;-2000;-2000;-1900;-1800;-1700;-1600;-1500;-1400;-1300;-1400;-1500;-1600;-1700;-1800;-1900;-2000;-2100;-2200;-2300;-2400;-2400;-2500;-2600;-2700;-2800;-2900;-3000;-3000;-3100;-3200;-3300;-3300;-3400;-3500;-3600;-3600;-3500;-3500;-3400;-3400;-3500;-3500;-3600;-3600;-3500;-3500;-3600;-3600;-3500;-3500;-3600;-3600;-3700;-3700;-3600;-3500;-3400;-3400;-3300;-3300;-3200;-3100;-3000;-2900;-2900;-2800;-2700;-2700;-2600;-2500;-2500;-2400;-2300;-2200;-2200;-2100;-2000;-1900;-1800;-1700;-1600;-1700;-1800;-1900;-2000;-2100;-2200;-2200;-2300;-2300;-2200;-2200;-2100;-2100;-2000;-1900;-1800;-1700;-1600;-1600;-1500;-1400;-1400;-1300;-1300;-1200;-1100;-1000;-900;-800;-900;-1000;-1100;-1200;-1300;-1300;-1400;-1500;-1600;-1600;-1700;-1800;-1900;-2000;-2100;-2200;-2300;-2400;-2400;-2500;-2600;-2700;-2800;-2900;-3000;-3100;-3200;-3300;-3300;-3400;-3400;-3300;-3300;-3200;-3200;-3300;-3300;-3200;-3200;-3100;-3100;-3000;-3000;-2900;-2900;-2800;-2700;-2700;-2800;-2700;-2700;-2600;-2500;-2400;-2300;-2300;-2200;-2200;-2100;-2000;-1900;-2000;-2000;-2100;-2100;-2000;-2000;-2100;-2200;-2200;-2100;-2000;-1900;-1800;-1700;-1600;-1500;-1500;-1400;-1300;-1200;-1300;-1300;-1400;-1500;-1500;-1600;-1700;-1800;-1900;-2000;-2100;-2200;-2300;-2400;-2500;-2600;-2600;-2700;-2800;-2900;-2900;-2800;-2700;-2700;-2600;-2600;-2500;-2400;-2400;-2300;-2200;-2100;-2000;-1900;-1800;-1700;-1600;-1500;-1500;-1400;-1300;-1200;-1100;-1000;-900;-800;-700;-800;-900;-1000;-1100;-1100"/>
<animate attributeName="cx" dur="140.28s" keyTimes="0.0;0.0019920319;0.0039840637;0.0219123506;0.0239043825;0.0278884462;0.0298804781;0.0398406375;0.0418326693;0.0438247012;0.0458167331;0.0478087649;0.0498007968;0.0517928287;0.0537848606;0.0557768924;0.0577689243;0.0597609562;0.0737051793;0.0756972112;0.077689243;0.0796812749;0.0816733068;0.0836653386;0.0856573705;0.0876494024;0.0896414343;0.0916334661;0.093625498;0.0956175299;0.1314741036;0.1334661355;0.1474103586;0.1494023904;0.1513944223;0.1573705179;0.1593625498;0.1653386454;0.1673306773;0.1693227092;0.171314741;0.1733067729;0.1752988048;0.1772908367;0.1792828685;0.1832669323;0.1852589641;0.187250996;0.1892430279;0.1912350598;0.1932270916;0.1952191235;0.1972111554;0.1992031873;0.2011952191;0.203187251;0.2051792829;0.2071713147;0.2091633466;0.2111553785;0.2131474104;0.2151394422;0.2171314741;0.2231075697;0.2250996016;0.2270916335;0.2290836653;0.235059761;0.2370517928;0.2390438247;0.2410358566;0.2430278884;0.2509960159;0.2529880478;0.2549800797;0.2569721116;0.2589641434;0.2609561753;0.2629482072;0.264940239;0.2709163347;0.2729083665;0.2888446215;0.2908366534;0.2928286853;0.2948207171;0.3187250996;0.3207171315;0.3227091633;0.3247011952;0.3266932271;0.328685259;0.3306772908;0.3326693227;0.3346613546;0.3366533865;0.3386454183;0.3406374502;0.3426294821;0.3446215139;0.3466135458;0.3486055777;0.3505976096;0.3525896414;0.3545816733;0.3565737052;0.3585657371;0.3605577689;0.3625498008;0.3645418327;0.3665338645;0.3685258964;0.3705179283;0.3725099602;0.374501992;0.3764940239;0.3784860558;0.3804780876;0.3824701195;0.3844621514;0.3864541833;0.3884462151;0.390438247;0.3924302789;0.3944223108;0.3964143426;0.3984063745;0.4003984064;0.4023904382;0.4043824701;0.406374502;0.4083665339;0.4103585657;0.4123505976;0.4143426295;0.4163346614;0.4183266932;0.4203187251;0.422310757;0.4243027888;0.4342629482;0.4362549801;0.4402390438;0.4422310757;0.4462151394;0.4482071713;0.46812749;0.4701195219;0.4940239044;0.4960159363;0.5139442231;0.515936255;0.5179282869;0.5199203187;0.5219123506;0.5239043825;0.5258964143;0.5278884462;0.5298804781;0.53187251;0.5338645418;0.5358565737;0.5378486056;0.5398406375;0.5418326693;0.5438247012;0.5458167331;0.5478087649;0.5498007968;0.5517928287;0.5537848606;0.5557768924;0.5577689243;0.5597609562;0.561752988;0.5637450199;0.5657370518;0.5677290837;0.5697211155;0.5717131474;0.577689243;0.5796812749;0.5836653386;0.5856573705;0.5876494024;0.5896414343;0.5916334661;0.593625498;0.5956175299;0.5996015936;0.6015936255;0.609561753;0.6115537849;0.6135458167;0.6155378486;0.6294820717;0.6314741036;0.6334661355;0.6354581673;0.6374501992;0.6394422311;0.6414342629;0.6434262948;0.6474103586;0.6494023904;0.6513944223;0.6533864542;0.6553784861;0.6573705179;0.6593625498;0.6613545817;0.6633466135;0.6653386454;0.6673306773;0.6693227092;0.671314741;0.6733067729;0.6752988048;0.6772908367;0.6792828685;0.6812749004;0.6832669323;0.6852589641;0.687250996;0.6892430279;0.6912350598;0.6932270916;0.7370517928;0.7390438247;0.7470119522;0.7490039841;0.780876494;0.7828685259;0.7848605578;0.8466135458;0.8486055777;0.8505976096;0.8525896414;0.8545816733;0.8665338645;0.8685258964;0.8705179283;0.8725099602;0.874501992;0.8824701195;0.8844621514;0.8884462151;0.890438247;0.9123505976;0.9143426295;0.9203187251;0.922310757;0.9243027888;0.9262948207;0.9282868526;0.9302788845;0.9322709163;0.9342629482;0.9362549801;0.9402390438;0.9422310757;0.9442231076;0.9462151394;0.9482071713;0.9721115538;0.9741035857;1.0" repeatCount="indefinite" values="2500;2500;2600;2600;2700;2700;2800;2800;2900;3000;3100;3200;3300;3400;3500;3600;3500;3400;3400;3500;3500;3600;3600;3500;3600;3600;3500;3600;3600;3500;3500;3400;3400;3500;3400;3400;3500;3500;3600;3600;3700;3700;3600;3600;3700;3700;3600;3500;3400;3300;3200;3100;3000;2900;2900;2800;2700;2700;2600;2500;2400;2300;2200;2200;2300;2300;2400;2400;2500;2500;2600;2700;2700;2600;2500;2400;2300;2200;2100;2000;2000;2100;2100;2000;1900;1800;1800;1900;2000;2100;2200;2300;2200;2100;2000;1900;1800;1700;1700;1600;1500;1400;1300;1300;1200;1100;1000;900;800;700;700;800;900;1000;1100;1200;1300;1200;1200;1300;1400;1400;1500;1600;1700;1800;1900;2000;2100;2200;2300;2400;2500;2600;2700;2700;2800;2900;3000;3100;3100;3200;3200;3300;3300;3400;3400;3500;3500;3400;3400;3500;3600;3600;3700;3700;3600;3500;3400;3300;3200;3100;3000;3000;2900;2800;2800;2700;2600;2500;2400;2300;2200;2200;2100;2100;2000;1900;1800;1700;1700;1600;1600;1500;1400;1300;1300;1200;1100;1100;1000;1000;1100;1000;900;900;800;800;900;1000;1000;1100;1200;1200;1100;1000;900;800;900;1000;1100;1200;1300;1400;1500;1600;1700;1800;1900;2000;2100;2200;2300;2400;2500;2600;2700;2700;2800;2800;2700;2700;2600;2700;2700;2600;2500;2600;2700;2700;2600;2700;2600;2700;2700;2800;2800;2700;2700;2600;2600;2500;2400;2300;2200;2100;2000;1900;1800;1800;1700;1700;1800;1900;1900;2000;2000"/>
<animate attributeName="visibility" dur="140.28s" keyTimes="0.0;0.0019920319;1.0" repeatCount="indefinite" values="visible;visible;visible"/> </circle>
<circle cx="3000" cy="-1900" fill="#2e6f9e" r="35"> <animate attributeName="cy" dur="140.28s" keyTimes="0.0;0.0019920319;0.0039840637;0.0059760956;0.0079681275;0.0099601594;0.0119521912;0.0139442231;0.015936255;0.0179282869;0.0199203187;0.0219123506;0.0398406375;0.0418326693;0.0438247012;0.0458167331;0.0478087649;0.0498007968;0.0517928287;0.0537848606;0.0557768924;0.0577689243;0.0597609562;0.061752988;0.0637450199;0.0657370518;0.0677290837;0.0697211155;0.0717131474;0.0737051793;0.0756972112;0.077689243;0.0856573705;0.0876494024;0.0896414343;0.0916334661;0.093625498;0.0956175299;0.0976095618;0.0996015936;0.1015936255;0.1035856574;0.1055776892;0.1075697211;0.109561753;0.1175298805;0.1195219124;0.1215139442;0.1235059761;0.125498008;0.1274900398;0.1294820717;0.1314741036;0.1334661355;0.1354581673;0.1374501992;0.1394422311;0.1434262948;0.1454183267;0.1474103586;0.1494023904;0.1513944223;0.1533864542;0.1573705179;0.1593625498;0.1633466135;0.1653386454;0.1673306773;0.1693227092;0.1752988048;0.1772908367;0.1792828685;0.1812749004;0.1852589641;0.187250996;0.1912350598;0.1932270916;0.1952191235;0.1972111554;0.1992031873;0.2011952191;0.203187251;0.2071713147;0.2091633466;0.2131474104;0.2151394422;0.2171314741;0.219123506;0.2211155378;0.2231075697;0.2250996016;0.2270916335;0.2290836653;0.2310756972;0.2330677291;0.235059761;0.2370517928;0.2390438247;0.2410358566;0.2430278884;0.2450199203;0.2470119522;0.2490039841;0.2509960159;0.2529880478;0.2549800797;0.2569721116;0.2589641434;0.2629482072;0.264940239;0.2689243028;0.2709163347;0.2729083665;0.2749003984;0.2768924303;0.2788844622;0.280876494;0.2828685259;0.2848605578;0.2868525896;0.2888446215;0.2908366534;0.2928286853;0.3007968127;0.3027888446;0.3047808765;0.3067729084;0.3087649402;0.3107569721;0.312749004;0.3147410359;0.3247011952;0.3266932271;0.328685259;0.3525896414;0.3545816733;0.3585657371;0.3605577689;0.3625498008;0.3844621514;0.3864541833;0.3884462151;0.390438247;0.3924302789;0.3944223108;0.3964143426;0.3984063745;0.4003984064;0.4023904382;0.4043824701;0.406374502;0.4083665339;0.4103585657;0.4123505976;0.4143426295;0.4163346614;0.4183266932;0.4203187251;0.422310757;0.4243027888;0.4262948207;0.4282868526;0.4302788845;0.4322709163;0.4342629482;0.4362549801;0.438247012;0.4402390438;0.4422310757;0.4482071713;0.4501992032;0.4521912351;0.4541832669;0.4621513944;0.4641434263;0.4661354582;0.46812749;0.4701195219;0.4721115538;0.4741035857;0.4760956175;0.4780876494;0.4800796813;0.4820717131;0.484063745;0.4860557769;0.4880478088;0.4900398406;0.5039840637;0.5059760956;0.5079681275;0.5099601594;0.5119521912;0.5139442231;0.515936255;0.5179282869;0.5199203187;0.5219123506;0.5239043825;0.5258964143;0.5278884462;0.5298804781;0.53187251;0.5338645418;0.5358565737;0.5378486056;0.5398406375;0.5418326693;0.5438247012;0.5458167331;0.5478087649;0.5517928287;0.5537848606;0.5557768924;0.5577689243;0.5597609562;0.5637450199;0.5657370518;0.5677290837;0.5697211155;0.5717131474;0.5737051793;0.5756972112;0.577689243;0.5796812749;0.5836653386;0.5856573705;0.5876494024;0.5896414343;0.5916334661;0.593625498;0.5956175299;0.5976095618;0.5996015936;0.6015936255;0.6035856574;0.6055776892;0.6075697211;0.609561753;0.6115537849;0.6135458167;0.6155378486;0.6175298805;0.6314741036;0.6334661355;0.6354581673;0.6374501992;0.6394422311;0.6414342629;0.6434262948;0.6454183267;0.6474103586;0.6494023904;0.6513944223;0.6533864542;0.6553784861;0.6573705179;0.6593625498;0.6613545817;0.6633466135;0.6653386454;0.6673306773;0.6693227092;0.671314741;0.6733067729;0.6752988048;0.6772908367;0.6792828685;0.6812749004;0.6832669323;0.6852589641;0.687250996;0.6892430279;0.6912350598;0.6932270916;0.6952191235;0.6972111554;0.6992031873;0.7011952191;0.703187251;0.7270916335;0.7290836653;0.7310756972;0.7330677291;0.735059761;0.7370517928;0.7390438247;0.7410358566;0.7450199203;0.7470119522;0.7490039841;0.7529880478;0.7549800797;0.7569721116;0.7589641434;0.7609561753;0.7629482072;0.764940239;0.7669322709;0.7689243028;0.7709163347;0.7729083665;0.7749003984;0.7768924303;0.7788844622;0.780876494;0.7828685259;0.7848605578;0.7888446215;0.7908366534;0.8067729084;0.8087649402;0.828685259;0.8306772908;0.8386454183;0.8406374502;0.8486055777;0.8505976096;0.8525896414;0.8545816733;0.8725099602;0.874501992;0.8764940239;0.8784860558;0.8804780876;0.8824701195;0.8844621514;0.8864541833;0.8884462151;0.8944223108;0.8964143426;0.8984063745;0.9023904382;0.9043824701;0.906374502;0.9083665339;0.9103585657;0.9123505976;0.9262948207;0.9282868526;0.9402390438;0.9422310757;0.9442231076;0.9462151394;0.9880478088;0.9900398406;0.9920318725;0.9940239044;0.9960159363;0.9980079681;1.0" repeatCount="indefinite" values="-1900;-1900;-1900;-2000;-2100;-2200;-2300;-2400;-2400;-2500;-2500;-2600;-2600;-2700;-2600;-2500;-2400;-2300;-2200;-2100;-2000;-2000;-1900;-1800;-1700;-1600;-1500;-1500;-1400;-1300;-1300;-1200;-1200;-1100;-1100;-1000;-900;-900;-800;-800;-900;-1000;-1000;-1100;-1200;-1200;-1300;-1300;-1400;-1500;-1600;-1600;-1700;-1800;-1800;-1900;-2000;-2000;-2100;-2200;-2200;-2300;-2400;-2400;-2500;-2500;-2400;-2300;-2200;-2200;-2100;-2100;-2000;-2000;-1900;-1900;-1800;-1700;-1700;-1600;-1500;-1400;-1400;-1300;-1300;-1200;-1100;-1000;-1000;-900;-900;-800;-900;-1000;-1100;-1200;-1300;-1400;-1500;-1600;-1700;-1800;-1900;-2000;-2100;-2200;-2200;-2300;-2300;-2400;-2400;-2500;-2600;-2500;-2400;-2400;-2300;-2200;-2100;-2000;-1900;-1800;-1700;-1700;-1600;-1600;-1500;-1500;-1400;-1400;-1300;-1300;-1200;-1100;-1100;-1000;-1000;-900;-800;-800;-700;-600;-700;-800;-900;-1000;-1100;-1100;-1200;-1300;-1400;-1500;-1600;-1700;-1800;-1900;-2000;-2100;-2200;-2300;-2400;-2500;-2600;-2700;-2800;-2900;-2900;-3000;-3100;-3100;-3200;-3200;-3300;-3300;-3200;-3100;-3000;-2900;-2900;-2800;-2700;-2600;-2600;-2500;-2400;-2300;-2200;-2100;-2100;-2000;-2000;-1900;-1800;-1700;-1700;-1600;-1500;-1400;-1300;-1200;-1300;-1400;-1400;-1500;-1600;-1700;-1800;-1800;-1900;-2000;-2100;-2100;-2200;-2300;-2300;-2400;-2400;-2500;-2600;-2600;-2700;-2800;-2800;-2900;-3000;-3000;-3100;-3100;-3200;-3300;-3400;-3300;-3200;-3100;-3000;-2900;-2800;-2700;-2600;-2500;-2400;-2300;-2200;-2200;-2100;-2000;-2000;-1900;-1800;-1700;-1700;-1600;-1500;-1500;-1400;-1500;-1600;-1700;-1800;-1800;-1900;-1900;-2000;-2100;-2200;-2300;-2400;-2500;-2600;-2700;-2800;-2900;-2900;-3000;-3100;-3200;-3300;-3400;-3500;-3600;-3600;-3500;-3400;-3300;-3200;-3100;-3000;-2900;-2900;-2800;-2700;-2700;-2600;-2500;-2400;-2300;-2200;-2100;-2000;-1900;-1800;-1700;-1600;-1500;-1400;-1400;-1300;-1200;-1200;-1100;-1100;-1200;-1200;-1100;-1100;-1200;-1200;-1300;-1300;-1400;-1400;-1500;-1500;-1600;-1600;-1700;-1800;-1900;-2000;-2000;-2100;-2200;-2200;-2300;-2300;-2400;-2500;-2600;-2600;-2500;-2500;-2400;-2300;-2200;-2200;-2100;-2000;-1900;-1800;-1700;-1700"/>
<animate attributeName="cx" dur="140.28s" keyTimes="0.0;0.0019920319;0.0039840637;0.0139442231;0.015936255;0.0179282869;0.0199203187;0.0219123506;0.0239043825;0.0258964143;0.0278884462;0.0298804781;0.03187251;0.0338645418;0.0358565737;0.0378486056;0.0398406375;0.0557768924;0.0577689243;0.0677290837;0.0697211155;0.0737051793;0.0756972112;0.077689243;0.0796812749;0.0816733068;0.0836653386;0.0856573705;0.0876494024;0.0896414343;0.093625498;0.0956175299;0.0976095618;0.0996015936;0.1035856574;0.1055776892;0.109561753;0.1115537849;0.1135458167;0.1155378486;0.1175298805;0.1195219124;0.1215139442;0.1274900398;0.1294820717;0.1334661355;0.1354581673;0.1394422311;0.1414342629;0.1434262948;0.1474103586;0.1494023904;0.1533864542;0.1553784861;0.1573705179;0.1593625498;0.1613545817;0.1633466135;0.1693227092;0.171314741;0.1733067729;0.1752988048;0.1772908367;0.1792828685;0.1812749004;0.1832669323;0.1852589641;0.187250996;0.1892430279;0.1912350598;0.1952191235;0.1972111554;0.203187251;0.2051792829;0.2071713147;0.2091633466;0.2111553785;0.2131474104;0.219123506;0.2211155378;0.2231075697;0.2250996016;0.2549800797;0.2569721116;0.2589641434;0.2609561753;0.2629482072;0.264940239;0.2669322709;0.2689243028;0.2768924303;0.2788844622;0.2928286853;0.2948207171;0.296812749;0.2988047809;0.3007968127;0.3027888446;0.3047808765;0.3067729084;0.3087649402;0.3107569721;0.312749004;0.3147410359;0.3167330677;0.3187250996;0.3207171315;0.3227091633;0.3247011952;0.328685259;0.3306772908;0.3326693227;0.3346613546;0.3366533865;0.3386454183;0.3406374502;0.3426294821;0.3446215139;0.3466135458;0.3486055777;0.3505976096;0.3525896414;0.3545816733;0.3565737052;0.3585657371;0.3625498008;0.3645418327;0.3665338645;0.3685258964;0.3705179283;0.3725099602;0.374501992;0.3764940239;0.3784860558;0.3804780876;0.3824701195;0.3844621514;0.3984063745;0.4003984064;0.4362549801;0.438247012;0.4422310757;0.4442231076;0.4462151394;0.4482071713;0.4501992032;0.4521912351;0.4541832669;0.4561752988;0.4581673307;0.4601593625;0.4621513944;0.4701195219;0.4721115538;0.4780876494;0.4800796813;0.4900398406;0.4920318725;0.4940239044;0.4960159363;0.4980079681;0.5;0.5019920319;0.5039840637;0.5059760956;0.5079681275;0.5139442231;0.515936255;0.5298804781;0.53187251;0.5398406375;0.5418326693;0.5478087649;0.5498007968;0.5517928287;0.5557768924;0.5577689243;0.5597609562;0.561752988;0.5637450199;0.5677290837;0.5697211155;0.5737051793;0.5756972112;0.5796812749;0.5816733068;0.5836653386;0.5856573705;0.5876494024;0.6215139442;0.6235059761;0.625498008;0.6274900398;0.6294820717;0.6314741036;0.6354581673;0.6374501992;0.6434262948;0.6454183267;0.6494023904;0.6513944223;0.6613545817;0.6633466135;0.6653386454;0.6673306773;0.687250996;0.6892430279;0.703187251;0.7051792829;0.7071713147;0.7091633466;0.7111553785;0.7131474104;0.7151394422;0.7171314741;0.719123506;0.7211155378;0.7231075697;0.7250996016;0.7270916335;0.7410358566;0.7430278884;0.7450199203;0.7490039841;0.7509960159;0.7529880478;0.7788844622;0.780876494;0.7848605578;0.7868525896;0.7888446215;0.7908366534;0.7928286853;0.7948207171;0.796812749;0.7988047809;0.8007968127;0.8027888446;0.8047808765;0.8067729084;0.8087649402;0.8107569721;0.812749004;0.8147410359;0.8167330677;0.8187250996;0.8207171315;0.8227091633;0.8247011952;0.8266932271;0.828685259;0.8306772908;0.8326693227;0.8346613546;0.8366533865;0.8386454183;0.8406374502;0.8426294821;0.8446215139;0.8466135458;0.8486055777;0.8505976096;0.8525896414;0.8545816733;0.8565737052;0.8585657371;0.8605577689;0.8625498008;0.8645418327;0.8665338645;0.8685258964;0.8705179283;0.8725099602;0.874501992;0.8764940239;0.8784860558;0.8804780876;0.8884462151;0.890438247;0.8924302789;0.8944223108;0.8984063745;0.9003984064;0.9023904382;0.9043824701;0.906374502;0.9123505976;0.9143426295;0.9163346614;0.9183266932;0.9203187251;0.922310757;0.9243027888;0.9262948207;0.9282868526;0.9302788845;0.9322709163;0.9342629482;0.9362549801;0.938247012;0.9402390438;0.9462151394;0.9482071713;0.9501992032;0.9521912351;0.9541832669;0.9561752988;0.9581673307;0.9601593625;0.9621513944;0.9641434263;0.9661354582;0.96812749;0.9701195219;0.9721115538;0.9741035857;0.9760956175;0.9780876494;0.9800796813;0.9820717131;0.984063745;0.9860557769;0.9880478088;1.0" repeatCount="indefinite" values="3000;3000;2900;2900;2800;2800;2700;2700;2600;2500;2400;2300;2200;2100;2000;1900;1800;1800;1900;1900;2000;2000;2100;2100;2200;2300;2400;2500;2500;2600;2600;2700;2700;2600;2600;2500;2500;2400;2300;2200;2100;2100;2000;2000;1900;1900;1800;1800;1700;1600;1600;1500;1500;1400;1300;1300;1400;1500;1500;1600;1700;1800;1800;1900;1900;2000;2100;2100;2200;2300;2300;2400;2400;2500;2600;2600;2700;2800;2800;2900;2900;3000;3000;2900;2900;2800;2700;2700;2600;2500;2500;2600;2600;2700;2800;2900;3000;3000;3100;3100;3200;3200;3300;3300;3400;3500;3400;3300;3200;3200;3300;3400;3500;3600;3500;3400;3300;3200;3100;3000;2900;2800;2800;2700;2600;2600;2500;2400;2300;2200;2100;2000;1900;1800;1700;1600;1500;1500;1600;1600;1700;1700;1800;1900;2000;2000;2100;2100;2200;2300;2400;2500;2500;2600;2600;2700;2700;2800;2700;2600;2500;2400;2300;2200;2200;2100;2100;2000;2000;1900;1900;1800;1800;1700;1600;1600;1500;1500;1400;1300;1300;1200;1200;1100;1100;1000;900;900;800;800;700;800;900;1000;1100;1100;1200;1200;1300;1300;1400;1400;1500;1500;1600;1600;1700;1700;1800;1900;2000;2100;2200;2300;2200;2100;2000;1900;1800;1700;1700;1600;1500;1500;1400;1300;1300;1200;1200;1300;1400;1400;1500;1600;1700;1800;1900;2000;2100;2200;2200;2300;2400;2500;2600;2700;2800;2900;3000;3100;3200;3200;3100;3000;2900;2800;2800;2700;2600;2500;2400;2400;2300;2300;2200;2100;2000;1900;1800;1700;1600;1500;1400;1400;1300;1300;1200;1200;1100;1000;900;900;800;700;700;600;600;700;800;900;1000;1100;1200;1300;1300;1400;1500;1600;1700;1800;1900;1900;2000;2100;2200;2300;2400;2500;2600;2500;2400;2300;2200;2100;2000;1900;1800;1700;1600;1500;1400;1300;1200;1200"/>
<animate attributeName="visibility" dur="140.28s" keyTimes="0.0;0.0019920319;1.0" repeatCount="indefinite" values="visible;visible;visible"/> </circle>
<circle cx="3500" cy="-3000" fill="none" r="35" stroke="#c1433c" stroke-width="10"> <animate attributeName="cy" dur="140.28s" keyTimes="0.0;0.0019920319;0.0517928287;0.0537848606;0.1075697211;0.109561753;0.1812749004;0.1832669323;0.2171314741;0.219123506;0.2490039841;0.2509960159;0.2888446215;0.2908366534;0.3047808765;0.3067729084;0.3266932271;0.328685259;0.3625498008;0.3645418327;0.4561752988;0.4581673307;0.5219123506;0.5239043825;0.625498008;0.6274900398;0.6414342629;0.6434262948;0.6533864542;0.6553784861;0.7430278884;0.7450199203;0.9322709163;0.9342629482;0.9880478088;0.9900398406;1.0" repeatCount="indefinite" values="-3000;-3000;-3000;-1300;-1300;-3600;-3600;-3500;-3500;-2900;-2900;-2200;-2200;-1600;-1600;-2200;-2200;-2300;-2300;-800;-800;-3300;-3300;-1900;-1900;-2000;-2000;-2200;-2200;-1200;-1200;-2900;-2900;-700;-700;-2700;-2700"/>
<animate attributeName="cx" dur="140.28s" keyTimes="0.0;0.0019920319;0.1075697211;0.109561753;0.1812749004;0.1832669323;0.2171314741;0.219123506;0.2490039841;0.2509960159;0.2888446215;0.2908366534;0.3047808765;0.3067729084;0.3266932271;0.328685259;0.3625498008;0.3645418327;0.4561752988;0.4581673307;0.5219123506;0.5239043825;0.625498008;0.6274900398;0.6414342629;0.6434262948;0.6533864542;0.6553784861;0.7430278884;0.7450199203;0.9322709163;0.9342629482;1.0" repeatCount="indefinite" values="3500;3500;3500;3700;3700;2200;2200;2700;2700;2000;2000;1800;1800;2300;2300;700;700;3400;3400;3700;3700;900;900;1200;1200;800;800;2800;2800;1900;1900;2000;2000"/>
<animate attributeName="visibility" dur="140.28s" keyTimes="0.0;0.0019920319;1.0" repeatCount="indefinite" values="visible;visible;visible"/> </circle>
<circle cx="2600" cy="-2600" fill="none" r="35" stroke="#2e6f9e" stroke-width="10"> <animate attributeName="cy" dur="140.28s" keyTimes="0.0;0.0019920319;0.0219123506;0.0239043825;0.0398406375;0.0418326693;0.0956175299;0.0976095618;0.1354581673;0.1374501992;0.1573705179;0.1593625498;0.2250996016;0.2270916335;0.2709163347;0.2729083665;0.2868525896;0.2888446215;0.3167330677;0.3187250996;0.3346613546;0.3366533865;0.3864541833;0.3884462151;0.4601593625;0.4621513944;0.4900398406;0.4920318725;0.5239043825;0.5258964143;0.5916334661;0.593625498;0.6513944223;0.6533864542;0.7131474104;0.7151394422;0.7828685259;0.7848605578;0.828685259;0.8306772908;0.8625498008;0.8645418327;0.8804780876;0.8824701195;0.9103585657;0.9123505976;0.9581673307;0.9601593625;1.0" repeatCount="indefinite" values="-2600;-2600;-2600;-2700;-2700;-800;-800;-1900;-1900;-2500;-2500;-800;-800;-2600;-2600;-1900;-1900;-1300;-1300;-1100;-1100;-600;-600;-3300;-3300;-2100;-2100;-1200;-1200;-3400;-3400;-1400;-1400;-3600;-3600;-1200;-1200;-1100;-1100;-1400;-1400;-1700;-1700;-2600;-2600;-2200;-2200;-1500;-1500"/>
<animate attributeName="cx" dur="140.28s" keyTimes="0.0;0.0019920319;0.0219123506;0.0239043825;0.0398406375;0.0418326693;0.0956175299;0.0976095618;0.1354581673;0.1374501992;0.1573705179;0.1593625498;0.2250996016;0.2270916335;0.2709163347;0.2729083665;0.2868525896;0.2888446215;0.3167330677;0.3187250996;0.3266932271;0.328685259;0.3346613546;0.3366533865;0.3864541833;0.3884462151;0.4601593625;0.4621513944;0.4900398406;0.4920318725;0.5239043825;0.5258964143;0.5916334661;0.593625498;0.6513944223;0.6533864542;0.7131474104;0.7151394422;0.7828685259;0.7848605578;0.828685259;0.8306772908;0.8625498008;0.8645418327;0.8804780876;0.8824701195;0.9103585657;0.9123505976;0.9581673307;0.9601593625;1.0" repeatCount="indefinite" values="2600;2600;2600;1800;1800;2700;2700;1800;1800;1300;1300;3000;3000;2500;2500;2600;2600;3500;3500;3200;3200;3600;3600;1500;1500;2500;2500;2800;2800;2000;2000;800;800;1400;1400;2300;2300;1200;1200;3200;3200;1800;1800;1200;1200;600;600;2600;2600;1000;1000"/>
<animate attributeName="visibility" dur="140.28s" keyTimes="0.0;0.0019920319;1.0" repeatCount="indefinite" values="visible;visible;visible"/> </circle>
</svg>