<?xml version="1.0" encoding="UTF-8"?>
        <svg xmlns="http://www.w3.org/2000/svg" xmlns:xlink="http://www.w3.org/1999/xlink"
             width="430" height="430" viewBox="0 -4300 4300 4300">

<defs>

</defs>

<rect fill="#84A1AE" height="70" rx="15" width="70" x="465" y="-535" />
<rect fill="#84A1AE" height="70" rx="15" width="70" x="465" y="-635" />
<rect fill="#84A1AE" height="70" rx="15" width="70" x="465" y="-735" />
<rect fill="#84A1AE" height="70" rx="15" width="70" x="465" y="-835" />
<rect fill="#84A1AE" height="70" rx="15" width="70" x="465" y="-935" />
<rect fill="#84A1AE" height="70" rx="15" width="70" x="465" y="-1035" />
<rect fill="#84A1AE" height="70" rx="15" width="70" x="465" y="-1135" />
<rect fill="#84A1AE" height="70" rx="15" width="70" x="465" y="-1235" />
<rect fill="#84A1AE" height="70" rx="15" width="70" x="465" y="-1335" />
<rect fill="#84A1AE" height="70" rx="15" width="70" x="465" y="-1435" />
<rect fill="#84A1AE" height="70" rx="15" width="70" x="465" y="-1535" />
<rect fill="#84A1AE" height="70" rx="15" width="70" x="465" y="-1635" />
<rect fill="#84A1AE" height="70" rx="15" width="70" x="465" y="-1735" />
<rect fill="#84A1AE" height="70" rx="15" width="70" x="465" y="-1835" />
<rect fill="#84A1AE" height="70" rx="15" width="70" x="465" y="-1935" />
<rect fill="#84A1AE" height="70" rx="15" width="70" x="465" y="-2035" />
<rect fill="#84A1AE" height="70" rx="15" width="70" x="465" y="-2135" />
<rect fill="#84A1AE" height="70" rx="15" width="70" x="465" y="-2235" />
<rect fill="#84A1AE" height="70" rx="15" width="70" x="465" y="-2335" />
<rect fill="#84A1AE" height="70" rx="15" width="70" x="465" y="-2435" />
<rect fill="#84A1AE" height="70" rx="15" width="70" x="465" y="-2535" />
<rect fill="#84A1AE" height="70" rx="15" width="70" x="465" y="-2635" />
<rect fill="#84A1AE" height="70" rx="15" width="70" x="465" y="-2735" />
<rect fill="#84A1AE" height="70" rx="15" width="70" x="465" y="-2835" />
<rect fill="#84A1AE" height="70" rx="15" width="70" x="465" y="-2935" />
<rect fill="#84A1AE" height="70" rx="15" width="70" x="465" y="-3035" />
<rect fill="#84A1AE" height="70" rx="15" width="70" x="465" y="-3135" />
<rect fill="#84A1AE" height="70" rx="15" width="70" x="465" y="-3235" />
<rect fill="#84A1AE" height="70" rx="15" width="70" x="465" y="-3335" />
<rect fill="#84A1AE" height="70" rx="15" width="70" x="465" y="-3435" />
<rect fill="#84A1AE" height="70" rx="15" width="70" x="465" y="-3535" />
<rect fill="#84A1AE" height="70" rx="15" width="70" x="465" y="-3635" />
<rect fill="#84A1AE" height="70" rx="15" width="70" x="465" y="-3735" />
<rect fill="#84A1AE" height="70" rx="15" width="70" x="465" y="-3835" />
<rect fill="#84A1AE" height="70" rx="15" width="70" x="565" y="-535" />
<rect fill="#84A1AE" height="70" rx="15" width="70" x="565" y="-1635" />
<rect fill="#84A1AE" height="70" rx="15" width="70" x="565" y="-1935" />
<rect fill="#84A1AE" height="70" rx="15" width="70" x="565" y="-2735" />
<rect fill="#84A1AE" height="70" rx="15" width="70" x="565" y="-3835" />
<rect fill="#84A1AE" height="70" rx="15" width="70" x="665" y="-535" />
<rect fill="#84A1AE" height="70" rx="15" width="70" x="665" y="-1035" />
<rect fill="#84A1AE" height="70" rx="15" width="70" x="665" y="-2535" />
<rect fill="#84A1AE" height="70" rx="15" width="70" x="665" y="-3035" />
<rect fill="#84A1AE" height="70" rx="15" width="70" x="665" y="-3235" />
<rect fill="#84A1AE" height="70" rx="15" width="70" x="665" y="-3835" />
<rect fill="#84A1AE" height="70" rx="15" width="70" x="765" y="-535" />
<rect fill="#84A1AE" height="70" rx="15" width="70" x="765" y="-635" />
<rect fill="#84A1AE" height="70" rx="15" width="70" x="765" y="-3835" />
<rect fill="#84A1AE" height="70" rx="15" width="70" x="865" y="-535" />
<rect fill="#84A1AE" height="70" rx="15" width="70" x="865" y="-2435" />
<rect fill="#84A1AE" height="70" rx="15" width="70" x="865" y="-2535" />
<rect fill="#84A1AE" height="70" rx="15" width="70" x="865" y="-3335" />
<rect fill="#84A1AE" height="70" rx="15" width="70" x="865" y="-3435" />
<rect fill="#84A1AE" height="70" rx="15" width="70" x="865" y="-3835" />
<rect fill="#84A1AE" height="70" rx="15" width="70" x="965" y="-535" />
<rect fill="#84A1AE" height="70" rx="15" width="70" x="965" y="-735" />
<rect fill="#84A1AE" height="70" rx="15" width="70" x="965" y="-1635" />
<rect fill="#84A1AE" height="70" rx="15" width="70" x="965" y="-1835" />
<rect fill="#84A1AE" height="70" rx="15" width="70" x="965" y="-2835" />
<rect fill="#84A1AE" height="70" rx="15" width="70" x="965" y="-3435" />
<rect fill="#84A1AE" height="70" rx="15" width="70" x="965" y="-3835" />
<rect fill="#84A1AE" height="70" rx="15" width="70" x="1065" y="-535" />
<rect fill="#84A1AE" height="70" rx="15" width="70" x="1065" y="-1135" />
<rect fill="#84A1AE" height="70" rx="15" width="70" x="1065" y="-1835" />
<rect fill="#84A1AE" height="70" rx="15" width="70" x="1065" y="-3735" />
<rect fill="#84A1AE" height="70" rx="15" width="70" x="1065" y="-3835" />
<rect fill="#84A1AE" height="70" rx="15" width="70" x="1165" y="-535" />
<rect fill="#84A1AE" height="70" rx="15" width="70" x="1165" y="-635" />
<rect fill="#84A1AE" height="70" rx="15" width="70" x="1165" y="-735" />
<rect fill="#84A1AE" height="70" rx="15" width="70" x="1165" y="-1535" />
<rect fill="#84A1AE" height="70" rx="15" width="70" x="1165" y="-3835" />
<rect fill="#84A1AE" height="70" rx="15" width="70" x="1265" y="-535" />
<rect fill="#84A1AE" height="70" rx="15" width="70" x="1265" y="-2835" />
<rect fill="#84A1AE" height="70" rx="15" width="70" x="1265" y="-3435" />
<rect fill="#84A1AE" height="70" rx="15" width="70" x="1265" y="-3835" />
<rect fill="#84A1AE" height="70" rx="15" width="70" x="1365" y="-535" />
<rect fill="#84A1AE" height="70" rx="15" width="70" x="1365" y="-835" />
<rect fill="#84A1AE" height="70" rx="15" width="70" x="1365" y="-935" />
<rect fill="#84A1AE" height="70" rx="15" width="70" x="1365" y="-1035" />
<rect fill="#84A1AE" height="70" rx="15" width="70" x="1365" y="-1935" />
<rect fill="#84A1AE" height="70" rx="15" width="70" x="1365" y="-2335" />
<rect fill="#84A1AE" height="70" rx="15" width="70" x="1365" y="-2635" />
<rect fill="#84A1AE" height="70" rx="15" width="70" x="1365" y="-2835" />
<rect fill="#84A1AE" height="70" rx="15" width="70" x="1365" y="-2935" />
<rect fill="#84A1AE" height="70" rx="15" width="70" x="1365" y="-3035" />
<rect fill="#84A1AE" height="70" rx="15" width="70" x="1365" y="-3335" />
<rect fill="#84A1AE" height="70" rx="15" width="70" x="1365" y="-3835" />
<rect fill="#84A1AE" height="70" rx="15" width="70" x="1465" y="-535" />
<rect fill="#84A1AE" height="70" rx="15" width="70" x="1465" y="-1235" />
<rect fill="#84A1AE" height="70" rx="15" width="70" x="1465" y="-1535" />
<rect fill="#84A1AE" height="70" rx="15" width="70" x="1465" y="-2035" />
<rect fill="#84A1AE" height="70" rx="15" width="70" x="1465" y="-3135" />
<rect fill="#84A1AE" height="70" rx="15" width="70" x="1465" y="-3235" />
<rect fill="#84A1AE" height="70" rx="15" width="70" x="1465" y="-3835" />
<rect fill="#84A1AE" height="70" rx="15" width="70" x="1565" y="-535" />
<rect fill="#84A1AE" height="70" rx="15" width="70" x="1565" y="-3035" />
<rect fill="#84A1AE" height="70" rx="15" width="70" x="1565" y="-3835" />
<rect fill="#84A1AE" height="70" rx="15" width="70" x="1665" y="-535" />
<rect fill="#84A1AE" height="70" rx="15" width="70" x="1665" y="-3735" />
<rect fill="#84A1AE" height="70" rx="15" width="70" x="1665" y="-3835" />
<rect fill="#84A1AE" height="70" rx="15" width="70" x="1765" y="-535" />
<rect fill="#84A1AE" height="70" rx="15" width="70" x="1765" y="-1235" />
<rect fill="#84A1AE" height="70" rx="15" width="70" x="1765" y="-3835" />
<rect fill="#84A1AE" height="70" rx="15" width="70" x="1865" y="-535" />
<rect fill="#84A1AE" height="70" rx="15" width="70" x="1865" y="-735" />
<rect fill="#84A1AE" height="70" rx="15" width="70" x="1865" y="-1335" />
<rect fill="#84A1AE" height="70" rx="15" width="70" x="1865" y="-3235" />
<rect fill="#84A1AE" height="70" rx="15" width="70" x="1865" y="-3435" />
<rect fill="#84A1AE" height="70" rx="15" width="70" x="1865" y="-3835" />
<rect fill="#84A1AE" height="70" rx="15" width="70" x="1965" y="-535" />
<rect fill="#84A1AE" height="70" rx="15" width="70" x="1965" y="-635" />
<rect fill="#84A1AE" height="70" rx="15" width="70" x="1965" y="-1835" />
<rect fill="#84A1AE" height="70" rx="15" width="70" x="1965" y="-1935" />
<rect fill="#84A1AE" height="70" rx="15" width="70" x="1965" y="-2135" />
<rect fill="#84A1AE" height="70" rx="15" width="70" x="1965" y="-2335" />
<rect fill="#84A1AE" height="70" rx="15" width="70" x="1965" y="-2435" />
<rect fill="#84A1AE" height="70" rx="15" width="70" x="1965" y="-3335" />
<rect fill="#84A1AE" height="70" rx="15" width="70" x="1965" y="-3835" />
<rect fill="#84A1AE" height="70" rx="15" width="70" x="2065" y="-535" />
<rect fill="#84A1AE" height="70" rx="15" width="70" x="2065" y="-1535" />
<rect fill="#84A1AE" height="70" rx="15" width="70" x="2065" y="-1635" />
<rect fill="#84A1AE" height="70" rx="15" width="70" x="2065" y="-2135" />
<rect fill="#84A1AE" height="70" rx="15" width="70" x="2065" y="-3835" />
<rect fill="#84A1AE" height="70" rx="15" width="70" x="2165" y="-535" />
<rect fill="#84A1AE" height="70" rx="15" width="70" x="2165" y="-935" />
<rect fill="#84A1AE" height="70" rx="15" width="70" x="2165" y="-1335" />
<rect fill="#84A1AE" height="70" rx="15" width="70" x="2165" y="-1835" />
<rect fill="#84A1AE" height="70" rx="15" width="70" x="2165" y="-3835" />
<rect fill="#84A1AE" height="70" rx="15" width="70" x="2265" y="-535" />
<rect fill="#84A1AE" height="70" rx="15" width="70" x="2265" y="-935" />
<rect fill="#84A1AE" height="70" rx="15" width="70" x="2265" y="-1135" />
<rect fill="#84A1AE" height="70" rx="15" width="70" x="2265" y="-2535" />
<rect fill="#84A1AE" height="70" rx="15" width="70" x="2265" y="-3235" />
<rect fill="#84A1AE" height="70" rx="15" width="70" x="2265" y="-3835" />
<rect fill="#84A1AE" height="70" rx="15" width="70" x="2365" y="-535" />
<rect fill="#84A1AE" height="70" rx="15" width="70" x="2365" y="-935" />
<rect fill="#84A1AE" height="70" rx="15" width="70" x="2365" y="-1035" />
<rect fill="#84A1AE" height="70" rx="15" width="70" x="2365" y="-3835" />
<rect fill="#84A1AE" height="70" rx="15" width="70" x="2465" y="-535" />
<rect fill="#84A1AE" height="70" rx="15" width="70" x="2465" y="-935" />
<rect fill="#84A1AE" height="70" rx="15" width="70" x="2465" y="-1535" />
<rect fill="#84A1AE" height="70" rx="15" width="70" x="2465" y="-2335" />
<rect fill="#84A1AE" height="70" rx="15" width="70" x="2465" y="-2735" />
<rect fill="#84A1AE" height="70" rx="15" width="70" x="2465" y="-3835" />
<rect fill="#84A1AE" height="70" rx="15" width="70" x="2565" y="-535" />
<rect fill="#84A1AE" height="70" rx="15" width="70" x="2565" y="-735" />
<rect fill="#84A1AE" height="70" rx="15" width="70" x="2565" y="-2535" />
<rect fill="#84A1AE" height="70" rx="15" width="70" x="2565" y="-3835" />
<rect fill="#84A1AE" height="70" rx="15" width="70" x="2665" y="-535" />
<rect fill="#84A1AE" height="70" rx="15" width="70" x="2665" y="-635" />
<rect fill="#84A1AE" height="70" rx="15" width="70" x="2665" y="-1135" />
<rect fill="#84A1AE" height="70" rx="15" width="70" x="2665" y="-1435" />
<rect fill="#84A1AE" height="70" rx="15" width="70" x="2665" y="-2735" />
<rect fill="#84A1AE" height="70" rx="15" width="70" x="2665" y="-3835" />
<rect fill="#84A1AE" height="70" rx="15" width="70" x="2765" y="-535" />
<rect fill="#84A1AE" height="70" rx="15" width="70" x="2765" y="-1635" />
<rect fill="#84A1AE" height="70" rx="15" width="70" x="2765" y="-1835" />
<rect fill="#84A1AE" height="70" rx="15" width="70" x="2765" y="-1935" />
<rect fill="#84A1AE" height="70" rx="15" width="70" x="2765" y="-2235" />
<rect fill="#84A1AE" height="70" rx="15" width="70" x="2765" y="-3735" />
<rect fill="#84A1AE" height="70" rx="15" width="70" x="2765" y="-3835" />
<rect fill="#84A1AE" height="70" rx="15" width="70" x="2865" y="-535" />
<rect fill="#84A1AE" height="70" rx="15" width="70" x="2865" y="-3835" />
<rect fill="#84A1AE" height="70" rx="15" width="70" x="2965" y="-535" />
<rect fill="#84A1AE" height="70" rx="15" width="70" x="2965" y="-2635" />
<rect fill="#84A1AE" height="70" rx="15" width="70" x="2965" y="-3835" />
<rect fill="#84A1AE" height="70" rx="15" width="70" x="3065" y="-535" />
<rect fill="#84A1AE" height="70" rx="15" width="70" x="3065" y="-735" />
<rect fill="#84A1AE" height="70" rx="15" width="70" x="3065" y="-2535" />
<rect fill="#84A1AE" height="70" rx="15" width="70" x="3065" y="-3835" />
<rect fill="#84A1AE" height="70" rx="15" width="70" x="3165" y="-535" />
<rect fill="#84A1AE" height="70" rx="15" width="70" x="3165" y="-835" />
<rect fill="#84A1AE" height="70" rx="15" width="70" x="3165" y="-1935" />
<rect fill="#84A1AE" height="70" rx="15" width="70" x="3165" y="-2735" />
<rect fill="#84A1AE" height="70" rx="15" width="70" x="3165" y="-3135" />
<rect fill="#84A1AE" height="70" rx="15" width="70" x="3165" y="-3835" />
<rect fill="#84A1AE" height="70" rx="15" width="70" x="3265" y="-535" />
<rect fill="#84A1AE" height="70" rx="15" width="70" x="3265" y="-1035" />
<rect fill="#84A1AE" height="70" rx="15" width="70" x="3265" y="-1735" />
<rect fill="#84A1AE" height="70" rx="15" width="70" x="3265" y="-3835" />
<rect fill="#84A1AE" height="70" rx="15" width="70" x="3365" y="-535" />
<rect fill="#84A1AE" height="70" rx="15" width="70" x="3365" y="-1435" />
<rect fill="#84A1AE" height="70" rx="15" width="70" x="3365" y="-1935" />
<rect fill="#84A1AE" height="70" rx="15" width="70" x="3365" y="-2135" />
<rect fill="#84A1AE" height="70" rx="15" width="70" x="3365" y="-3835" />
<rect fill="#84A1AE" height="70" rx="15" width="70" x="3465" y="-535" />
<rect fill="#84A1AE" height="70" rx="15" width="70" x="3465" y="-2635" />
<rect fill="#84A1AE" height="70" rx="15" width="70" x="3465" y="-3835" />
<rect fill="#84A1AE" height="70" rx="15" width="70" x="3565" y="-535" />
<rect fill="#84A1AE" height="70" rx="15" width="70" x="3565" y="-635" />
<rect fill="#84A1AE" height="70" rx="15" width="70" x="3565" y="-2435" />
<rect fill="#84A1AE" height="70" rx="15" width="70" x="3565" y="-3235" />
<rect fill="#84A1AE" height="70" rx="15" width="70" x="3565" y="-3835" />
<rect fill="#84A1AE" height="70" rx="15" width="70" x="3665" y="-535" />
<rect fill="#84A1AE" height="70" rx="15" width="70" x="3665" y="-2135" />
<rect fill="#84A1AE" height="70" rx="15" width="70" x="3665" y="-2835" />
<rect fill="#84A1AE" height="70" rx="15" width="70" x="3665" y="-3135" />
<rect fill="#84A1AE" height="70" rx="15" width="70" x="3665" y="-3735" />
<rect fill="#84A1AE" height="70" rx="15" width="70" x="3665" y="-3835" />
<rect fill="#84A1AE" height="70" rx="15" width="70" x="3765" y="-535" />
<rect fill="#84A1AE" height="70" rx="15" width="70" x="3765" y="-635" />
<rect fill="#84A1AE" height="70" rx="15" width="70" x="3765" y="-735" />
<rect fill="#84A1AE" height="70" rx="15" width="70" x="3765" y="-835" />
<rect fill="#84A1AE" height="70" rx="15" width="70" x="3765" y="-935" />
<rect fill="#84A1AE" height="70" rx="15" width="70" x="3765" y="-1035" />
<rect fill="#84A1AE" height="70" rx="15" width="70" x="3765" y="-1135" />
<rect fill="#84A1AE" height="70" rx="15" width="70" x="3765" y="-1235" />
<rect fill="#84A1AE" height="70" rx="15" width="70" x="3765" y="-1335" />
<rect fill="#84A1AE" height="70" rx="15" width="70" x="3765" y="-1435" />
<rect fill="#84A1AE" height="70" rx="15" width="70" x="3765" y="-1535" />
<rect fill="#84A1AE" height="70" rx="15" width="70" x="3765" y="-1635" />
<rect fill="#84A1AE" height="70" rx="15" width="70" x="3765" y="-1735" />
<rect fill="#84A1AE" height="70" rx="15" width="70" x="3765" y="-1835" />
<rect fill="#84A1AE" height="70" rx="15" width="70" x="3765" y="-1935" />
<rect fill="#84A1AE" height="70" rx="15" width="70" x="3765" y="-2035" />
<rect fill="#84A1AE" height="70" rx="15" width="70" x="3765" y="-2135" />
<rect fill="#84A1AE" height="70" rx="15" width="70" x="3765" y="-2235" />
<rect fill="#84A1AE" height="70" rx="15" width="70" x="3765" y="-2335" />
<rect fill="#84A1AE" height="70" rx="15" width="70" x="3765" y="-2435" />
<rect fill="#84A1AE" height="70" rx="15" width="70" x="3765" y="-2535" />
<rect fill="#84A1AE" height="70" rx="15" width="70" x="3765" y="-2635" />
<rect fill="#84A1AE" height="70" rx="15" width="70" x="3765" y="-2735" />
<rect fill="#84A1AE" height="70" rx="15" width="70" x="3765" y="-2835" />
<rect fill="#84A1AE" height="70" rx="15" width="70" x="3765" y="-2935" />
<rect fill="#84A1AE" height="70" rx="15" width="70" x="3765" y="-3035" />
<rect fill="#84A1AE" height="70" rx="15" width="70" x="3765" y="-3135" />
<rect fill="#84A1AE" height="70" rx="15" width="70" x="3765" y="-3235" />
<rect fill="#84A1AE" height="70" rx="15" width="70" x="3765" y="-3335" />
<rect fill="#84A1AE" height="70" rx="15" width="70" x="3765" y="-3435" />
<rect fill="#84A1AE" height="70" rx="15" width="70" x="3765" y="-3535" />
<rect fill="#84A1AE" height="70" rx="15" width="70" x="3765" y="-3635" />
<rect fill="#84A1AE" height="70" rx="15" width="70" x="3765" y="-3735" />
<rect fill="#84A1AE" height="70" rx="15" width="70" x="3765" y="-3835" />
<circle cx="2500" cy="-1400" fill="#c1433c" r="35"> <animate attributeName="cy" dur="120.68s" keyTimes="0.0;0.0023148148;0.0046296296;0.0069444444;0.0092592593;0.0115740741;0.0138888889;0.0162037037;0.0185185185;0.0208333333;0.0231481481;0.025462963;0.0277777778;0.0300925926;0.0324074074;0.0347222222;0.037037037;0.0393518519;0.0416666667;0.0439814815;0.0462962963;0.1041666667;0.1064814815;0.1111111111;0.1134259259;0.1157407407;0.1319444444;0.1342592593;0.1365740741;0.1388888889;0.1736111111;0.1759259259;0.1875;0.1898148148;0.1921296296;0.1944444444;0.2037037037;0.2060185185;0.2083333333;0.2106481481;0.212962963;0.2152777778;0.2175925926;0.2199074074;0.2222222222;0.224537037;0.2268518519;0.2291666667;0.2314814815;0.2337962963;0.2361111111;0.2384259259;0.2685185185;0.2708333333;0.2731481481;0.275462963;0.2777777778;0.2800925926;0.2824074074;0.2847222222;0.287037037;0.2893518519;0.2916666667;0.2939814815;0.3009259259;0.3032407407;0.3055555556;0.3078703704;0.337962963;0.3402777778;0.3518518519;0.3541666667;0.3564814815;0.3587962963;0.3657407407;0.3680555556;0.3819444444;0.3842592593;0.3865740741;0.3888888889;0.3935185185;0.3958333333;0.3981481481;0.400462963;0.4027777778;0.4050925926;0.4074074074;0.4097222222;0.412037037;0.4143518519;0.4166666667;0.4189814815;0.4212962963;0.4236111111;0.4259259259;0.4282407407;0.4305555556;0.4328703704;0.4351851852;0.4606481481;0.462962963;0.4652777778;0.4675925926;0.4699074074;0.4722222222;0.474537037;0.4768518519;0.4791666667;0.4814814815;0.4837962963;0.4861111111;0.4884259259;0.4907407407;0.4930555556;0.4953703704;0.4976851852;0.5;0.5138888889;0.5162037037;0.5324074074;0.5347222222;0.537037037;0.5393518519;0.5416666667;0.5439814815;0.5462962963;0.5486111111;0.5509259259;0.5532407407;0.5555555556;0.5578703704;0.5601851852;0.5625;0.5648148148;0.5671296296;0.5694444444;0.5717592593;0.5740740741;0.5763888889;0.5787037037;0.5810185185;0.5833333333;0.5856481481;0.587962963;0.5902777778;0.5925925926;0.5949074074;0.5972222222;0.6041666667;0.6064814815;0.6111111111;0.6134259259;0.6157407407;0.6180555556;0.6203703704;0.6226851852;0.625;0.6273148148;0.6296296296;0.6319444444;0.6342592593;0.6365740741;0.6388888889;0.6412037037;0.6435185185;0.6458333333;0.6481481481;0.650462963;0.6527777778;0.6759259259;0.6782407407;0.6805555556;0.6828703704;0.6851851852;0.6875;0.6898148148;0.6921296296;0.6944444444;0.6967592593;0.6990740741;0.7013888889;0.7037037037;0.7060185185;0.7083333333;0.7106481481;0.7569444444;0.7592592593;0.7615740741;0.7777777778;0.7800925926;0.7824074074;0.7847222222;0.787037037;0.7893518519;0.7916666667;0.8055555556;0.8078703704;0.8101851852;0.8125;0.8171296296;0.8194444444;0.8240740741;0.8263888889;0.849537037;0.8518518519;0.8541666667;0.8564814815;0.8587962963;0.8611111111;0.8634259259;0.8657407407;0.8680555556;0.8703703704;0.8726851852;0.875;0.8773148148;0.8796296296;0.8842592593;0.8865740741;0.8888888889;0.8912037037;0.8935185185;0.8958333333;0.8981481481;0.900462963;0.9027777778;0.9050925926;0.9074074074;0.912037037;0.9143518519;0.9166666667;0.9189814815;0.9212962963;0.9236111111;0.9305555556;0.9328703704;0.9375;0.9398148148;0.9421296296;0.9490740741;0.9513888889;0.9537037037;0.9560185185;0.9583333333;0.9675925926;0.9699074074;0.9722222222;0.974537037;0.9768518519;0.9791666667;0.9814814815;0.9837962963;0.9861111111;0.9884259259;0.9953703704;0.9976851852;1.0" repeatCount="indefinite" values="-1400;-1400;-1400;-1500;-1600;-1700;-1800;-1900;-2000;-2100;-2200;-2300;-2400;-2400;-2500;-2600;-2600;-2700;-2800;-2900;-3000;-3000;-2900;-2900;-2800;-2700;-2700;-2800;-2800;-2700;-2700;-2800;-2800;-2700;-2700;-2600;-2600;-2500;-2400;-2300;-2200;-2100;-2000;-2100;-2200;-2300;-2400;-2500;-2600;-2700;-2800;-2900;-2900;-2800;-2700;-2600;-2500;-2400;-2300;-2200;-2100;-2000;-1900;-1800;-1800;-1900;-1900;-2000;-2000;-2100;-2100;-2200;-2200;-2300;-2300;-2200;-2200;-2100;-2100;-2000;-2000;-1900;-1800;-1900;-2000;-2000;-2100;-2200;-2300;-2400;-2500;-2600;-2700;-2800;-2900;-3000;-3100;-3200;-3300;-3300;-3200;-3100;-3000;-2900;-2800;-2700;-2600;-2500;-2400;-2400;-2300;-2300;-2200;-2100;-2000;-1900;-1800;-1800;-1700;-1700;-1600;-1500;-1400;-1400;-1300;-1200;-1100;-1000;-900;-800;-900;-1000;-1100;-1200;-1300;-1300;-1400;-1400;-1500;-1600;-1700;-1800;-1800;-1900;-2000;-2100;-2200;-2300;-2300;-2400;-2400;-2500;-2600;-2600;-2700;-2800;-2900;-3000;-3100;-3200;-3200;-3300;-3200;-3100;-3000;-2900;-2800;-2800;-2700;-2700;-2600;-2500;-2400;-2300;-2300;-2200;-2100;-2000;-1900;-1800;-1700;-1600;-1500;-1600;-1700;-1700;-1800;-1700;-1700;-1600;-1700;-1700;-1800;-1900;-2000;-2000;-1900;-1800;-1700;-1700;-1600;-1600;-1700;-1700;-1800;-1900;-2000;-2100;-2200;-2300;-2400;-2500;-2600;-2700;-2800;-2900;-3000;-3000;-3100;-3200;-3200;-3300;-3300;-3400;-3400;-3500;-3500;-3400;-3400;-3300;-3200;-3100;-3000;-2900;-2900;-2800;-2800;-2700;-2600;-2600;-2500;-2400;-2400;-2300;-2300;-2200;-2100;-2100;-2000;-1900;-1800;-1700;-1700;-1600;-1600;-1500;-1500"/>
<animate attributeName="cx" dur="120.68s" keyTimes="0.0;0.0023148148;0.0046296296;0.0277777778;0.0300925926;0.0347222222;0.037037037;0.0462962963;0.0486111111;0.0509259259;0.0532407407;0.0555555556;0.0578703704;0.0601851852;0.0625;0.0648148148;0.0671296296;0.0694444444;0.0717592593;0.0740740741;0.0763888889;0.0787037037;0.0810185185;0.0833333333;0.0856481481;0.087962963;0.0902777778;0.0925925926;0.0949074074;0.0972222222;0.099537037;0.1018518519;0.1041666667;0.1064814815;0.1087962963;0.1111111111;0.1157407407;0.1180555556;0.1203703704;0.1226851852;0.125;0.1273148148;0.1296296296;0.1319444444;0.1342592593;0.1365740741;0.1388888889;0.1412037037;0.1435185185;0.1458333333;0.1481481481;0.150462963;0.1527777778;0.1550925926;0.1574074074;0.1597222222;0.162037037;0.1643518519;0.1666666667;0.1689814815;0.1712962963;0.1736111111;0.1759259259;0.1782407407;0.1805555556;0.1828703704;0.1851851852;0.1875;0.1898148148;0.1921296296;0.1944444444;0.1967592593;0.1990740741;0.2013888889;0.2037037037;0.2384259259;0.2407407407;0.2430555556;0.2453703704;0.2476851852;0.25;0.2523148148;0.2546296296;0.2569444444;0.2592592593;0.2615740741;0.2638888889;0.2662037037;0.2685185185;0.2939814815;0.2962962963;0.2986111111;0.3009259259;0.3032407407;0.3055555556;0.3078703704;0.3101851852;0.3125;0.3148148148;0.3171296296;0.3194444444;0.3217592593;0.3240740741;0.3263888889;0.3287037037;0.3310185185;0.3333333333;0.3356481481;0.337962963;0.3402777778;0.3425925926;0.3449074074;0.3472222222;0.349537037;0.3518518519;0.3541666667;0.3564814815;0.3587962963;0.3611111111;0.3634259259;0.3657407407;0.3680555556;0.3703703704;0.3726851852;0.375;0.3773148148;0.3796296296;0.3819444444;0.3842592593;0.3865740741;0.3888888889;0.3912037037;0.3935185185;0.4027777778;0.4050925926;0.4351851852;0.4375;0.4398148148;0.4421296296;0.4444444444;0.4467592593;0.4490740741;0.4513888889;0.4537037037;0.4560185185;0.4583333333;0.4606481481;0.4814814815;0.4837962963;0.4861111111;0.4884259259;0.5;0.5023148148;0.5046296296;0.5069444444;0.5092592593;0.5115740741;0.5138888889;0.5162037037;0.5185185185;0.5208333333;0.5231481481;0.525462963;0.5277777778;0.5300925926;0.5324074074;0.5393518519;0.5416666667;0.5671296296;0.5694444444;0.5717592593;0.5740740741;0.5833333333;0.5856481481;0.5972222222;0.599537037;0.6018518519;0.6041666667;0.6064814815;0.6087962963;0.6111111111;0.6157407407;0.6180555556;0.6319444444;0.6342592593;0.6481481481;0.650462963;0.6527777778;0.6550925926;0.6574074074;0.6597222222;0.662037037;0.6643518519;0.6666666667;0.6689814815;0.6712962963;0.6736111111;0.6759259259;0.6851851852;0.6875;0.7106481481;0.712962963;0.7152777778;0.7175925926;0.7199074074;0.7222222222;0.724537037;0.7268518519;0.7291666667;0.7314814815;0.7337962963;0.7361111111;0.7384259259;0.7407407407;0.7430555556;0.7453703704;0.7476851852;0.75;0.7523148148;0.7546296296;0.7569444444;0.7615740741;0.7638888889;0.7662037037;0.7685185185;0.7708333333;0.7731481481;0.775462963;0.7777777778;0.7824074074;0.7847222222;0.7916666667;0.7939814815;0.7962962963;0.7986111111;0.8009259259;0.8032407407;0.8055555556;0.8125;0.8148148148;0.8171296296;0.8194444444;0.8217592593;0.8240740741;0.8263888889;0.8287037037;0.8310185185;0.8333333333;0.8356481481;0.837962963;0.8402777778;0.8425925926;0.8449074074;0.8472222222;0.849537037;0.8796296296;0.8819444444;0.8842592593;0.8888888889;0.8912037037;0.8935185185;0.8958333333;0.8981481481;0.900462963;0.9027777778;0.9050925926;0.9074074074;0.9097222222;0.912037037;0.9236111111;0.9259259259;0.9282407407;0.9305555556;0.9328703704;0.9351851852;0.9375;0.9421296296;0.9444444444;0.9467592593;0.9490740741;0.9537037037;0.9560185185;0.9583333333;0.9606481481;0.962962963;0.9652777778;0.9675925926;0.9722222222;0.974537037;0.9837962963;0.9861111111;0.9884259259;0.9907407407;0.9930555556;0.9953703704;1.0" repeatCount="indefinite" values="2500;2500;2600;2600;2700;2700;2800;2800;2900;3000;3100;3200;3300;3400;3500;3400;3300;3200;3100;3000;2900;2800;2700;2600;2500;2400;2300;2200;2100;2000;1900;1800;1700;1700;1600;1500;1500;1400;1300;1200;1100;1000;900;800;800;900;900;1000;1100;1200;1300;1400;1500;1600;1700;1800;1900;2000;2100;2200;2300;2400;2400;2500;2600;2700;2800;2900;2900;2800;2800;2700;2600;2500;2400;2400;2500;2600;2700;2800;2900;3000;3100;3200;3300;3400;3500;3400;3300;3300;3200;3100;3000;3000;2900;2900;2800;2700;2600;2500;2400;2300;2200;2100;2000;1900;1800;1700;1600;1600;1500;1400;1300;1200;1100;1100;1000;1000;1100;1200;1300;1300;1400;1500;1500;1600;1700;1800;1800;1900;1900;2000;2100;2100;2200;2200;2300;2400;2500;2600;2700;2800;2900;3000;3100;3200;3300;3300;3400;3400;3500;3500;3400;3300;3200;3100;3000;2900;2900;2800;2700;2600;2500;2400;2300;2200;2200;2100;2100;2000;2000;1900;1900;1800;1800;1700;1600;1500;1500;1400;1300;1300;1200;1200;1100;1100;1200;1200;1300;1400;1500;1600;1500;1400;1300;1200;1100;1000;1000;900;900;1000;1100;1200;1300;1400;1500;1600;1700;1800;1900;2000;2100;2200;2300;2400;2500;2600;2700;2800;2900;2900;2800;2700;2600;2500;2400;2300;2200;2200;2300;2300;2400;2500;2600;2700;2800;2900;2900;3000;3100;3100;3000;2900;2900;2800;2700;2600;2500;2400;2300;2200;2100;2000;1900;1900;1800;1700;1700;1600;1600;1500;1500;1400;1400;1500;1500;1600;1700;1700;1800;1900;2000;2000;2100;2200;2200;2300;2400;2500;2500;2600;2600;2700;2800;2900;3000;3000;3100;3100;3200;3200;3300;3400;3500;3500"/>
<animate attributeName="visibility" dur="120.68s" keyTimes="0.0;0.0023148148;1.0" repeatCount="indefinite" values="visible;visible;visible"/> </circle>
<circle cx="3000" cy="-1900" fill="#2e6f9e" r="35"> <animate attributeName="cy" dur="120.68s" keyTimes="0.0;0.0023148148;0.0046296296;0.0069444444;0.0092592593;0.0115740741;0.0138888889;0.0162037037;0.0185185185;0.0231481481;0.025462963;0.0300925926;0.0324074074;0.0347222222;0.0439814815;0.0462962963;0.0486111111;0.0509259259;0.0532407407;0.0555555556;0.0578703704;0.0601851852;0.0625;0.0648148148;0.0671296296;0.0694444444;0.0717592593;0.0740740741;0.0763888889;0.0810185185;0.0833333333;0.0856481481;0.087962963;0.0902777778;0.0925925926;0.0949074074;0.0972222222;0.099537037;0.1018518519;0.1134259259;0.1157407407;0.125;0.1273148148;0.1296296296;0.1319444444;0.1342592593;0.1365740741;0.1388888889;0.1412037037;0.1435185185;0.1458333333;0.1481481481;0.1759259259;0.1782407407;0.1805555556;0.1828703704;0.1851851852;0.1921296296;0.1944444444;0.212962963;0.2152777778;0.2175925926;0.2199074074;0.2222222222;0.224537037;0.2268518519;0.2291666667;0.2314814815;0.2337962963;0.2361111111;0.2384259259;0.2407407407;0.2430555556;0.2453703704;0.2476851852;0.25;0.2523148148;0.2546296296;0.2569444444;0.2592592593;0.2615740741;0.2638888889;0.2662037037;0.2685185185;0.275462963;0.2777777778;0.3101851852;0.3125;0.3217592593;0.3240740741;0.3333333333;0.3356481481;0.337962963;0.3402777778;0.3425925926;0.3449074074;0.3472222222;0.349537037;0.3518518519;0.3541666667;0.3564814815;0.3587962963;0.3611111111;0.3634259259;0.3657407407;0.3680555556;0.3703703704;0.3726851852;0.375;0.3773148148;0.3796296296;0.3819444444;0.3842592593;0.3912037037;0.3935185185;0.3958333333;0.3981481481;0.400462963;0.4027777778;0.4050925926;0.4074074074;0.4097222222;0.412037037;0.4143518519;0.4166666667;0.4490740741;0.4513888889;0.4537037037;0.4560185185;0.4583333333;0.4606481481;0.462962963;0.4652777778;0.4675925926;0.4699074074;0.4722222222;0.474537037;0.4768518519;0.4791666667;0.4814814815;0.4837962963;0.4861111111;0.4884259259;0.4907407407;0.4930555556;0.4953703704;0.4976851852;0.5;0.5069444444;0.5092592593;0.5115740741;0.5138888889;0.5162037037;0.5208333333;0.5231481481;0.525462963;0.5277777778;0.5300925926;0.5324074074;0.5347222222;0.537037037;0.5393518519;0.5416666667;0.5439814815;0.5462962963;0.5486111111;0.5509259259;0.5532407407;0.5555555556;0.5578703704;0.5601851852;0.5625;0.5648148148;0.5671296296;0.5694444444;0.5717592593;0.5740740741;0.5763888889;0.5787037037;0.5810185185;0.5833333333;0.5856481481;0.587962963;0.5902777778;0.5925925926;0.5949074074;0.5972222222;0.599537037;0.6018518519;0.6041666667;0.6064814815;0.6087962963;0.6111111111;0.6134259259;0.6157407407;0.6180555556;0.6203703704;0.6226851852;0.625;0.6273148148;0.6319444444;0.6342592593;0.6365740741;0.6388888889;0.6412037037;0.6435185185;0.6458333333;0.6481481481;0.650462963;0.6527777778;0.6550925926;0.6574074074;0.6597222222;0.662037037;0.6643518519;0.6689814815;0.6712962963;0.6851851852;0.6875;0.6967592593;0.6990740741;0.7083333333;0.7106481481;0.712962963;0.7152777778;0.7175925926;0.7199074074;0.7222222222;0.724537037;0.7268518519;0.7291666667;0.7314814815;0.7337962963;0.7361111111;0.7384259259;0.7407407407;0.7430555556;0.7453703704;0.7476851852;0.75;0.7523148148;0.7546296296;0.7569444444;0.7592592593;0.7615740741;0.7662037037;0.7685185185;0.7916666667;0.7939814815;0.8032407407;0.8055555556;0.8078703704;0.8101851852;0.8125;0.8148148148;0.8171296296;0.8194444444;0.8217592593;0.8240740741;0.8263888889;0.8541666667;0.8564814815;0.8587962963;0.8611111111;0.8634259259;0.8657407407;0.8680555556;0.8703703704;0.8726851852;0.8773148148;0.8796296296;0.8819444444;0.8842592593;0.8865740741;0.8888888889;0.8912037037;0.8935185185;0.8958333333;0.8981481481;0.900462963;0.9027777778;0.9050925926;0.9074074074;0.9097222222;0.912037037;0.9143518519;0.9166666667;0.9189814815;0.9212962963;0.9375;0.9398148148;0.9421296296;0.9444444444;0.9467592593;0.9490740741;0.9513888889;0.9537037037;0.9560185185;0.9583333333;0.9606481481;0.962962963;0.9652777778;0.9675925926;0.9699074074;0.9722222222;0.974537037;0.9768518519;0.9791666667;0.9814814815;0.9837962963;0.9861111111;0.9907407407;0.9930555556;0.9953703704;1.0" repeatCount="indefinite" values="-1900;-1900;-2000;-2100;-2200;-2300;-2400;-2400;-2500;-2500;-2600;-2600;-2700;-2800;-2800;-2700;-2600;-2600;-2500;-2400;-2300;-2200;-2100;-2000;-1900;-1900;-1800;-1800;-1700;-1700;-1800;-1900;-2000;-1900;-2000;-2100;-2200;-2300;-2400;-2400;-2500;-2500;-2600;-2700;-2800;-2900;-3000;-3100;-3200;-3300;-3400;-3500;-3500;-3400;-3300;-3200;-3100;-3100;-3000;-3000;-2900;-2900;-2800;-2700;-2600;-2500;-2500;-2400;-2300;-2300;-2200;-2100;-2000;-1900;-1800;-1700;-1600;-1500;-1400;-1300;-1200;-1300;-1200;-1100;-1100;-1200;-1200;-1100;-1100;-1000;-1000;-900;-1000;-1100;-1100;-1200;-1300;-1400;-1500;-1500;-1600;-1600;-1700;-1800;-1900;-2000;-2100;-2200;-2300;-2400;-2500;-2600;-2700;-2700;-2600;-2600;-2500;-2400;-2300;-2200;-2100;-2000;-1900;-1800;-1700;-1700;-1600;-1600;-1500;-1400;-1300;-1200;-1200;-1300;-1300;-1400;-1500;-1600;-1600;-1700;-1700;-1800;-1900;-2000;-2100;-2200;-2300;-2400;-2400;-2500;-2600;-2600;-2700;-2700;-2600;-2500;-2400;-2300;-2200;-2100;-2000;-1900;-1900;-1800;-1800;-1700;-1600;-1500;-1500;-1400;-1300;-1200;-1100;-1000;-1000;-900;-800;-900;-1000;-1000;-1100;-1200;-1300;-1200;-1100;-1200;-1300;-1400;-1500;-1600;-1700;-1800;-1900;-2000;-2100;-2000;-2100;-2200;-2300;-2400;-2400;-2500;-2600;-2600;-2500;-2600;-2700;-2800;-2900;-3000;-3100;-3200;-3300;-3400;-3500;-3500;-3600;-3600;-3700;-3700;-3600;-3600;-3500;-3400;-3300;-3200;-3100;-3000;-2900;-2800;-2700;-2600;-2500;-2400;-2300;-2300;-2200;-2100;-2100;-2000;-1900;-1900;-1800;-1900;-2000;-2000;-2100;-2100;-2000;-2000;-2100;-2100;-2000;-1900;-1800;-1700;-1600;-1500;-1400;-1300;-1300;-1200;-1300;-1400;-1300;-1400;-1500;-1600;-1700;-1700;-1800;-1900;-2000;-2100;-2200;-2300;-2300;-2400;-2500;-2500;-2600;-2700;-2800;-2900;-3000;-3000;-3100;-3200;-3300;-3300;-3400;-3400;-3300;-3300;-3200;-3100;-3000;-2900;-2800;-2700;-2600;-2600;-2500;-2400;-2400;-2300;-2400;-2300;-2200;-2100;-2000;-2000;-2100;-2200;-2200"/>
<animate attributeName="cx" dur="120.68s" keyTimes="0.0;0.0023148148;0.0138888889;0.0162037037;0.0208333333;0.0231481481;0.025462963;0.0277777778;0.0300925926;0.0347222222;0.037037037;0.0393518519;0.0416666667;0.0439814815;0.0486111111;0.0509259259;0.0671296296;0.0694444444;0.0717592593;0.0740740741;0.0763888889;0.0787037037;0.0810185185;0.1018518519;0.1041666667;0.1064814815;0.1087962963;0.1111111111;0.1134259259;0.1157407407;0.1180555556;0.1203703704;0.1226851852;0.125;0.1481481481;0.150462963;0.1527777778;0.1550925926;0.1574074074;0.1597222222;0.162037037;0.1643518519;0.1666666667;0.1689814815;0.1712962963;0.1736111111;0.1759259259;0.1851851852;0.1875;0.1898148148;0.1921296296;0.1944444444;0.1967592593;0.1990740741;0.2013888889;0.2037037037;0.2060185185;0.2083333333;0.2106481481;0.212962963;0.2152777778;0.2175925926;0.2268518519;0.2291666667;0.2337962963;0.2361111111;0.2685185185;0.2708333333;0.2731481481;0.275462963;0.2777777778;0.2800925926;0.2824074074;0.2847222222;0.287037037;0.2893518519;0.2916666667;0.2939814815;0.2962962963;0.2986111111;0.3009259259;0.3032407407;0.3055555556;0.3078703704;0.3101851852;0.3125;0.3148148148;0.3171296296;0.3194444444;0.3217592593;0.3240740741;0.3263888889;0.3287037037;0.3310185185;0.3333333333;0.3402777778;0.3425925926;0.3518518519;0.3541666667;0.3564814815;0.3587962963;0.3842592593;0.3865740741;0.3888888889;0.3912037037;0.3935185185;0.3958333333;0.4166666667;0.4189814815;0.4212962963;0.4236111111;0.4259259259;0.4282407407;0.4305555556;0.4328703704;0.4351851852;0.4375;0.4398148148;0.4421296296;0.4444444444;0.4467592593;0.4490740741;0.4513888889;0.4537037037;0.462962963;0.4652777778;0.4675925926;0.4699074074;0.4768518519;0.4791666667;0.4814814815;0.4837962963;0.5;0.5023148148;0.5046296296;0.5069444444;0.5115740741;0.5138888889;0.5162037037;0.5185185185;0.5208333333;0.5393518519;0.5416666667;0.5439814815;0.5462962963;0.5532407407;0.5555555556;0.5671296296;0.5694444444;0.5787037037;0.5810185185;0.6296296296;0.6319444444;0.6365740741;0.6388888889;0.6643518519;0.6666666667;0.6689814815;0.6712962963;0.6736111111;0.6759259259;0.6782407407;0.6805555556;0.6828703704;0.6851851852;0.6875;0.6898148148;0.6921296296;0.6944444444;0.6967592593;0.6990740741;0.7013888889;0.7037037037;0.7060185185;0.7083333333;0.7384259259;0.7407407407;0.7453703704;0.7476851852;0.7523148148;0.7546296296;0.7615740741;0.7638888889;0.7662037037;0.7685185185;0.7708333333;0.7731481481;0.775462963;0.7777777778;0.7800925926;0.7824074074;0.7847222222;0.787037037;0.7893518519;0.7916666667;0.7939814815;0.7962962963;0.7986111111;0.8009259259;0.8032407407;0.8055555556;0.8078703704;0.8263888889;0.8287037037;0.8310185185;0.8333333333;0.8356481481;0.837962963;0.8402777778;0.8425925926;0.8449074074;0.8472222222;0.849537037;0.8518518519;0.8541666667;0.8726851852;0.875;0.8773148148;0.8912037037;0.8935185185;0.8981481481;0.900462963;0.9236111111;0.9259259259;0.9282407407;0.9305555556;0.9328703704;0.9351851852;0.9375;0.9398148148;0.9421296296;0.9444444444;0.9467592593;0.962962963;0.9652777778;0.9699074074;0.9722222222;0.9861111111;0.9884259259;0.9907407407;0.9953703704;0.9976851852;1.0" repeatCount="indefinite" values="3000;3000;3000;2900;2900;2800;2800;2700;2600;2600;2500;2400;2500;2600;2600;2700;2700;2600;2600;2700;2700;2800;2700;2700;2800;2900;3000;3100;3200;3200;3300;3400;3500;3400;3400;3300;3200;3100;3000;2900;2800;2700;2600;2500;2400;2300;2200;2200;2300;2400;2500;2500;2600;2700;2800;2900;3000;3100;3200;3300;3300;3400;3400;3500;3500;3600;3600;3500;3400;3300;3300;3200;3100;3000;2900;2800;2700;2600;2500;2400;2300;2200;2100;2000;1900;1900;1800;1900;1800;1700;1700;1800;1700;1600;1500;1500;1600;1600;1700;1700;1600;1600;1700;1800;1700;1700;1800;1800;1900;2000;2100;2200;2300;2400;2500;2600;2700;2800;2900;3000;3100;3200;3200;3300;3300;3400;3400;3300;3300;3200;3200;3100;3100;3200;3100;3200;3200;3100;3100;3000;2900;2900;3000;3000;2900;2900;2800;2800;2700;2700;2600;2600;2500;2500;2400;2400;2300;2200;2200;2100;2000;1900;1800;1700;1600;1600;1500;1400;1300;1200;1200;1100;1000;900;800;800;700;700;800;800;700;700;800;900;900;1000;1100;1200;1300;1400;1500;1600;1700;1800;1900;1900;2000;2100;2200;2300;2300;2400;2400;2500;2600;2700;2800;2900;3000;3100;3200;3300;3400;3500;3600;3600;3700;3600;3600;3500;3500;3400;3400;3300;3200;3100;3000;2900;2800;2800;2700;2700;2600;2600;2500;2500;2600;2600;2500;2400;2400;2300;2300"/>
<animate attributeName="visibility" dur="120.68s" keyTimes="0.0;0.0023148148;1.0" repeatCount="indefinite" values="visible;visible;visible"/> </circle>
<circle cx="3500" cy="-3000" fill="none" r="35" stroke="#c1433c" stroke-width="10"> <animate attributeName="cy" dur="120.68s" keyTimes="0.0;0.0023148148;0.0648148148;0.0671296296;0.1319444444;0.1342592593;0.1875;0.1898148148;0.2152777778;0.2175925926;0.2615740741;0.2638888889;0.2916666667;0.2939814815;0.3564814815;0.3587962963;0.3958333333;0.3981481481;0.4560185185;0.4583333333;0.4976851852;0.5;0.5532407407;0.5555555556;0.6342592593;0.6365740741;0.6597222222;0.662037037;0.7037037037;0.7060185185;0.7569444444;0.7592592593;0.7777777778;0.7800925926;0.8032407407;0.8055555556;0.8171296296;0.8194444444;0.849537037;0.8518518519;0.900462963;0.9027777778;1.0" repeatCount="indefinite" values="-3000;-3000;-3000;-2800;-2800;-2700;-2700;-2000;-2000;-2900;-2900;-1800;-1800;-2300;-2300;-1800;-1800;-3300;-3300;-1800;-1800;-800;-800;-3300;-3300;-2700;-2700;-1500;-1500;-1800;-1800;-1600;-1600;-2000;-2000;-1600;-1600;-1800;-1800;-3500;-3500;-1400;-1400"/>
<animate attributeName="cx" dur="120.68s" keyTimes="0.0;0.0023148148;0.0601851852;0.0625;0.0648148148;0.0671296296;0.1319444444;0.1342592593;0.1875;0.1898148148;0.2152777778;0.2175925926;0.2615740741;0.2638888889;0.2916666667;0.2939814815;0.3564814815;0.3587962963;0.3958333333;0.3981481481;0.4560185185;0.4583333333;0.4976851852;0.5;0.5532407407;0.5555555556;0.6342592593;0.6365740741;0.6597222222;0.662037037;0.7037037037;0.7060185185;0.7569444444;0.7592592593;0.7777777778;0.7800925926;0.8032407407;0.8055555556;0.8171296296;0.8194444444;0.849537037;0.8518518519;0.900462963;0.9027777778;1.0" repeatCount="indefinite" values="3500;3500;3500;3300;3300;800;800;2900;2900;2400;2400;3500;3500;3300;3300;1000;1000;2100;2100;3200;3200;3500;3500;2100;2100;1100;1100;1600;1600;900;900;2900;2900;2200;2200;2900;2900;3100;3100;1900;1900;1400;1400;3600;3600"/>
<animate attributeName="visibility" dur="120.68s" keyTimes="0.0;0.0023148148;1.0" repeatCount="indefinite" values="visible;visible;visible"/> </circle>
<circle cx="2600" cy="-2600" fill="none" r="35" stroke="#2e6f9e" stroke-width="10"> <animate attributeName="cy" dur="120.68s" keyTimes="0.0;0.0023148148;0.0277777778;0.0300925926;0.037037037;0.0393518519;0.0763888889;0.0787037037;0.0949074074;0.0972222222;0.1203703704;0.1226851852;0.1481481481;0.150462963;0.1828703704;0.1851851852;0.2662037037;0.2685185185;0.3333333333;0.3356481481;0.3865740741;0.3888888889;0.4143518519;0.4166666667;0.462962963;0.4652777778;0.5138888889;0.5162037037;0.5717592593;0.5740740741;0.6851851852;0.6875;0.7546296296;0.7569444444;0.7962962963;0.7986111111;0.8240740741;0.8263888889;0.8541666667;0.8564814815;0.9421296296;0.9444444444;0.9837962963;0.9861111111;1.0" repeatCount="indefinite" values="-2600;-2600;-2600;-2800;-2800;-1700;-1700;-2200;-2200;-2500;-2500;-3500;-3500;-3100;-3100;-1100;-1100;-900;-900;-2700;-2700;-1700;-1700;-1200;-1200;-2700;-2700;-800;-800;-3700;-3700;-1800;-1800;-2000;-2000;-1300;-1300;-1200;-1200;-3300;-3300;-2000;-2000;-2400;-2400"/>
<animate attributeName="cx" dur="120.68s" keyTimes="0.0;0.0023148148;0.0277777778;0.0300925926;0.037037037;0.0393518519;0.0763888889;0.0787037037;0.0949074074;0.0972222222;0.1203703704;0.1226851852;0.1481481481;0.150462963;0.1828703704;0.1851851852;0.2662037037;0.2685185185;0.3333333333;0.3356481481;0.4143518519;0.4166666667;0.462962963;0.4652777778;0.5138888889;0.5162037037;0.5717592593;0.5740740741;0.6851851852;0.6875;0.7546296296;0.7569444444;0.7962962963;0.7986111111;0.8240740741;0.8263888889;0.8541666667;0.8564814815;0.9421296296;0.9444444444;0.9837962963;0.9861111111;1.0" repeatCount="indefinite" values="2600;2600;2600;2400;2400;2800;2800;2700;2700;3500;3500;3300;3300;2200;2200;3600;3600;1500;1500;1800;1800;3400;3400;3100;3100;2700;2700;1600;1600;700;700;2100;2100;2400;2400;3600;3600;2700;2700;2600;2600;600;600"/>
<animate attributeName="visibility" dur="120.68s" keyTimes="0.0;0.0023148148;1.0" repeatCount="indefinite" values="visible;visible;visible"/> </circle>
</svg>