<?xml version="1.0" encoding="UTF-8"?>
        <svg xmlns="http://www.w3.org/2000/svg" xmlns:xlink="http://www.w3.org/1999/xlink"
             width="430" height="430" viewBox="0 -4300 4300 4300">

<defs>

</defs>

<rect fill="#84A1AE" height="70" rx="15" width="70" x="465" y="-535" />
<rect fill="#84A1AE" height="70" rx="15" width="70" x="465" y="-635" />
<rect fill="#84A1AE" height="70" rx="15" width="70" x="465" y="-735" />
<rect fill="#84A1AE" height="70" rx="15" width="70" x="465" y="-835" />
<rect fill="#84A1AE" height="70" rx="15" width="70" x="465" y="-935" />
<rect fill="#84A1AE" height="70" rx="15" width="70" x="465" y="-1035" />
<rect fill="#84A1AE" height="70" rx="15" width="70" x="465" y="-1135" />
<rect fill="#84A1AE" height="70" rx="15" width="70" x="465" y="-1235" />
<rect fill="#84A1AE" height="70" rx="15" width="70" x="465" y="-1335" />
<rect fill="#84A1AE" height="70" rx="15" width="70" x="465" y="-1435" />
<rect fill="#84A1AE" height="70" rx="15" width="70" x="465" y="-1535" />
<rect fill="#84A1AE" height="70" rx="15" width="70" x="465" y="-1635" />
<rect fill="#84A1AE" height="70" rx="15" width="70" x="465" y="-1735" />
<rect fill="#84A1AE" height="70" rx="15" width="70" x="465" y="-1835" />
<rect fill="#84A1AE" height="70" rx="15" width="70" x="465" y="-1935" />
<rect fill="#84A1AE" height="70" rx="15" width="70" x="465" y="-2035" />
<rect fill="#84A1AE" height="70" rx="15" width="70" x="465" y="-2135" />
<rect fill="#84A1AE" height="70" rx="15" width="70" x="465" y="-2235" />
<rect fill="#84A1AE" height="70" rx="15" width="70" x="465" y="-2335" />
<rect fill="#84A1AE" height="70" rx="15" width="70" x="465" y="-2435" />
<rect fill="#84A1AE" height="70" rx="15" width="70" x="465" y="-2535" />
<rect fill="#84A1AE" height="70" rx="15" width="70" x="465" y="-2635" />
<rect fill="#84A1AE" height="70" rx="15" width="70" x="465" y="-2735" />
<rect fill="#84A1AE" height="70" rx="15" width="70" x="465" y="-2835" />
<rect fill="#84A1AE" height="70" rx="15" width="70" x="465" y="-2935" />
<rect fill="#84A1AE" height="70" rx="15" width="70" x="465" y="-3035" />
<rect fill="#84A1AE" height="70" rx="15" width="70" x="465" y="-3135" />
<rect fill="#84A1AE" height="70" rx="15" width="70" x="465" y="-3235" />
<rect fill="#84A1AE" height="70" rx="15" width="70" x="465" y="-3335" />
<rect fill="#84A1AE" height="70" rx="15" width="70" x="465" y="-3435" />
<rect fill="#84A1AE" height="70" rx="15" width="70" x="465" y="-3535" />
<rect fill="#84A1AE" height="70" rx="15" width="70" x="465" y="-3635" />
<rect fill="#84A1AE" height="70" rx="15" width="70" x="465" y="-3735" />
<rect fill="#84A1AE" height="70" rx="15" width="70" x="465" y="-3835" />
<rect fill="#84A1AE" height="70" rx="15" width="70" x="565" y="-535" />
<rect fill="#84A1AE" height="70" rx="15" width="70" x="565" y="-1635" />
<rect fill="#84A1AE" height="70" rx="15" width="70" x="565" y="-1935" />
<rect fill="#84A1AE" height="70" rx="15" width="70" x="565" y="-2735" />
<rect fill="#84A1AE" height="70" rx="15" width="70" x="565" y="-3835" />
<rect fill="#84A1AE" height="70" rx="15" width="70" x="665" y="-535" />
<rect fill="#84A1AE" height="70" rx="15" width="70" x="665" y="-1035" />
<rect fill="#84A1AE" height="70" rx="15" width="70" x="665" y="-2535" />
<rect fill="#84A1AE" height="70" rx="15" width="70" x="665" y="-3035" />
<rect fill="#84A1AE" height="70" rx="15" width="70" x="665" y="-3235" />
<rect fill="#84A1AE" height="70" rx="15" width="70" x="665" y="-3835" />
<rect fill="#84A1AE" height="70" rx="15" width="70" x="765" y="-535" />
<rect fill="#84A1AE" height="70" rx="15" width="70" x="765" y="-635" />
<rect fill="#84A1AE" height="70" rx="15" width="70" x="765" y="-3835" />
<rect fill="#84A1AE" height="70" rx="15" width="70" x="865" y="-535" />
<rect fill="#84A1AE" height="70" rx="15" width="70" x="865" y="-2435" />
<rect fill="#84A1AE" height="70" rx="15" width="70" x="865" y="-2535" />
<rect fill="#84A1AE" height="70" rx="15" width="70" x="865" y="-3335" />
<rect fill="#84A1AE" height="70" rx="15" width="70" x="865" y="-3435" />
<rect fill="#84A1AE" height="70" rx="15" width="70" x="865" y="-3835" />
<rect fill="#84A1AE" height="70" rx="15" width="70" x="965" y="-535" />
<rect fill="#84A1AE" height="70" rx="15" width="70" x="965" y="-735" />
<rect fill="#84A1AE" height="70" rx="15" width="70" x="965" y="-1635" />
<rect fill="#84A1AE" height="70" rx="15" width="70" x="965" y="-1835" />
<rect fill="#84A1AE" height="70" rx="15" width="70" x="965" y="-2835" />
<rect fill="#84A1AE" height="70" rx="15" width="70" x="965" y="-3435" />
<rect fill="#84A1AE" height="70" rx="15" width="70" x="965" y="-3835" />
<rect fill="#84A1AE" height="70" rx="15" width="70" x="1065" y="-535" />
<rect fill="#84A1AE" height="70" rx="15" width="70" x="1065" y="-1135" />
<rect fill="#84A1AE" height="70" rx="15" width="70" x="1065" y="-1835" />
<rect fill="#84A1AE" height="70" rx="15" width="70" x="1065" y="-3735" />
<rect fill="#84A1AE" height="70" rx="15" width="70" x="1065" y="-3835" />
<rect fill="#84A1AE" height="70" rx="15" width="70" x="1165" y="-535" />
<rect fill="#84A1AE" height="70" rx="15" width="70" x="1165" y="-635" />
<rect fill="#84A1AE" height="70" rx="15" width="70" x="1165" y="-735" />
<rect fill="#84A1AE" height="70" rx="15" width="70" x="1165" y="-1535" />
<rect fill="#84A1AE" height="70" rx="15" width="70" x="1165" y="-3835" />
<rect fill="#84A1AE" height="70" rx="15" width="70" x="1265" y="-535" />
<rect fill="#84A1AE" height="70" rx="15" width="70" x="1265" y="-2835" />
<rect fill="#84A1AE" height="70" rx="15" width="70" x="1265" y="-3435" />
<rect fill="#84A1AE" height="70" rx="15" width="70" x="1265" y="-3835" />
<rect fill="#84A1AE" height="70" rx="15" width="70" x="1365" y="-535" />
<rect fill="#84A1AE" height="70" rx="15" width="70" x="1365" y="-835" />
<rect fill="#84A1AE" height="70" rx="15" width="70" x="1365" y="-935" />
<rect fill="#84A1AE" height="70" rx="15" width="70" x="1365" y="-1035" />
<rect fill="#84A1AE" height="70" rx="15" width="70" x="1365" y="-1935" />
<rect fill="#84A1AE" height="70" rx="15" width="70" x="1365" y="-2335" />
<rect fill="#84A1AE" height="70" rx="15" width="70" x="1365" y="-2635" />
<rect fill="#84A1AE" height="70" rx="15" width="70" x="1365" y="-2835" />
<rect fill="#84A1AE" height="70" rx="15" width="70" x="1365" y="-2935" />
<rect fill="#84A1AE" height="70" rx="15" width="70" x="1365" y="-3035" />
<rect fill="#84A1AE" height="70" rx="15" width="70" x="1365" y="-3335" />
<rect fill="#84A1AE" height="70" rx="15" width="70" x="1365" y="-3835" />
<rect fill="#84A1AE" height="70" rx="15" width="70" x="1465" y="-535" />
<rect fill="#84A1AE" height="70" rx="15" width="70" x="1465" y="-1235" />
<rect fill="#84A1AE" height="70" rx="15" width="70" x="1465" y="-1535" />
<rect fill="#84A1AE" height="70" rx="15" width="70" x="1465" y="-2035" />
<rect fill="#84A1AE" height="70" rx="15" width="70" x="1465" y="-3135" />
<rect fill="#84A1AE" height="70" rx="15" width="70" x="1465" y="-3235" />
<rect fill="#84A1AE" height="70" rx="15" width="70" x="1465" y="-3835" />
<rect fill="#84A1AE" height="70" rx="15" width="70" x="1565" y="-535" />
<rect fill="#84A1AE" height="70" rx="15" width="70" x="1565" y="-3035" />
<rect fill="#84A1AE" height="70" rx="15" width="70" x="1565" y="-3835" />
<rect fill="#84A1AE" height="70" rx="15" width="70" x="1665" y="-535" />
<rect fill="#84A1AE" height="70" rx="15" width="70" x="1665" y="-3735" />
<rect fill="#84A1AE" height="70" rx="15" width="70" x="1665" y="-3835" />
<rect fill="#84A1AE" height="70" rx="15" width="70" x="1765" y="-535" />
<rect fill="#84A1AE" height="70" rx="15" width="70" x="1765" y="-1235" />
<rect fill="#84A1AE" height="70" rx="15" width="70" x="1765" y="-3835" />
<rect fill="#84A1AE" height="70" rx="15" width="70" x="1865" y="-535" />
<rect fill="#84A1AE" height="70" rx="15" width="70" x="1865" y="-735" />
<rect fill="#84A1AE" height="70" rx="15" width="70" x="1865" y="-1335" />
<rect fill="#84A1AE" height="70" rx="15" width="70" x="1865" y="-3235" />
<rect fill="#84A1AE" height="70" rx="15" width="70" x="1865" y="-3435" />
<rect fill="#84A1AE" height="70" rx="15" width="70" x="1865" y="-3835" />
<rect fill="#84A1AE" height="70" rx="15" width="70" x="1965" y="-535" />
<rect fill="#84A1AE" height="70" rx="15" width="70" x="1965" y="-635" />
<rect fill="#84A1AE" height="70" rx="15" width="70" x="1965" y="-1835" />
<rect fill="#84A1AE" height="70" rx="15" width="70" x="1965" y="-1935" />
<rect fill="#84A1AE" height="70" rx="15" width="70" x="1965" y="-2135" />
<rect fill="#84A1AE" height="70" rx="15" width="70" x="1965" y="-2335" />
<rect fill="#84A1AE" height="70" rx="15" width="70" x="1965" y="-2435" />
<rect fill="#84A1AE" height="70" rx="15" width="70" x="1965" y="-3335" />
<rect fill="#84A1AE" height="70" rx="15" width="70" x="1965" y="-3835" />
<rect fill="#84A1AE" height="70" rx="15" width="70" x="2065" y="-535" />
<rect fill="#84A1AE" height="70" rx="15" width="70" x="2065" y="-1535" />
<rect fill="#84A1AE" height="70" rx="15" width="70" x="2065" y="-1635" />
<rect fill="#84A1AE" height="70" rx="15" width="70" x="2065" y="-2135" />
<rect fill="#84A1AE" height="70" rx="15" width="70" x="2065" y="-3835" />
<rect fill="#84A1AE" height="70" rx="15" width="70" x="2165" y="-535" />
<rect fill="#84A1AE" height="70" rx="15" width="70" x="2165" y="-935" />
<rect fill="#84A1AE" height="70" rx="15" width="70" x="2165" y="-1335" />
<rect fill="#84A1AE" height="70" rx="15" width="70" x="2165" y="-1835" />
<rect fill="#84A1AE" height="70" rx="15" width="70" x="2165" y="-3835" />
<rect fill="#84A1AE" height="70" rx="15" width="70" x="2265" y="-535" />
<rect fill="#84A1AE" height="70" rx="15" width="70" x="2265" y="-935" />
<rect fill="#84A1AE" height="70" rx="15" width="70" x="2265" y="-1135" />
<rect fill="#84A1AE" height="70" rx="15" width="70" x="2265" y="-2535" />
<rect fill="#84A1AE" height="70" rx="15" width="70" x="2265" y="-3235" />
<rect fill="#84A1AE" height="70" rx="15" width="70" x="2265" y="-3835" />
<rect fill="#84A1AE" height="70" rx="15" width="70" x="2365" y="-535" />
<rect fill="#84A1AE" height="70" rx="15" width="70" x="2365" y="-935" />
<rect fill="#84A1AE" height="70" rx="15" width="70" x="2365" y="-1035" />
<rect fill="#84A1AE" height="70" rx="15" width="70" x="2365" y="-3835" />
<rect fill="#84A1AE" height="70" rx="15" width="70" x="2465" y="-535" />
<rect fill="#84A1AE" height="70" rx="15" width="70" x="2465" y="-935" />
<rect fill="#84A1AE" height="70" rx="15" width="70" x="2465" y="-1535" />
<rect fill="#84A1AE" height="70" rx="15" width="70" x="2465" y="-2335" />
<rect fill="#84A1AE" height="70" rx="15" width="70" x="2465" y="-2735" />
<rect fill="#84A1AE" height="70" rx="15" width="70" x="2465" y="-3835" />
<rect fill="#84A1AE" height="70" rx="15" width="70" x="2565" y="-535" />
<rect fill="#84A1AE" height="70" rx="15" width="70" x="2565" y="-735" />
<rect fill="#84A1AE" height="70" rx="15" width="70" x="2565" y="-2535" />
<rect fill="#84A1AE" height="70" rx="15" width="70" x="2565" y="-3835" />
<rect fill="#84A1AE" height="70" rx="15" width="70" x="2665" y="-535" />
<rect fill="#84A1AE" height="70" rx="15" width="70" x="2665" y="-635" />
<rect fill="#84A1AE" height="70" rx="15" width="70" x="2665" y="-1135" />
<rect fill="#84A1AE" height="70" rx="15" width="70" x="2665" y="-1435" />
<rect fill="#84A1AE" height="70" rx="15" width="70" x="2665" y="-2735" />
<rect fill="#84A1AE" height="70" rx="15" width="70" x="2665" y="-3835" />
<rect fill="#84A1AE" height="70" rx="15" width="70" x="2765" y="-535" />
<rect fill="#84A1AE" height="70" rx="15" width="70" x="2765" y="-1635" />
<rect fill="#84A1AE" height="70" rx="15" width="70" x="2765" y="-1835" />
<rect fill="#84A1AE" height="70" rx="15" width="70" x="2765" y="-1935" />
<rect fill="#84A1AE" height="70" rx="15" width="70" x="2765" y="-2235" />
<rect fill="#84A1AE" height="70" rx="15" width="70" x="2765" y="-3735" />
<rect fill="#84A1AE" height="70" rx="15" width="70" x="2765" y="-3835" />
<rect fill="#84A1AE" height="70" rx="15" width="70" x="2865" y="-535" />
<rect fill="#84A1AE" height="70" rx="15" width="70" x="2865" y="-3835" />
<rect fill="#84A1AE" height="70" rx="15" width="70" x="2965" y="-535" />
<rect fill="#84A1AE" height="70" rx="15" width="70" x="2965" y="-2635" />
<rect fill="#84A1AE" height="70" rx="15" width="70" x="2965" y="-3835" />
<rect fill="#84A1AE" height="70" rx="15" width="70" x="3065" y="-535" />
<rect fill="#84A1AE" height="70" rx="15" width="70" x="3065" y="-735" />
<rect fill="#84A1AE" height="70" rx="15" width="70" x="3065" y="-2535" />
<rect fill="#84A1AE" height="70" rx="15" width="70" x="3065" y="-3835" />
<rect fill="#84A1AE" height="70" rx="15" width="70" x="3165" y="-535" />
<rect fill="#84A1AE" height="70" rx="15" width="70" x="3165" y="-835" />
<rect fill="#84A1AE" height="70" rx="15" width="70" x="3165" y="-1935" />
<rect fill="#84A1AE" height="70" rx="15" width="70" x="3165" y="-2735" />
<rect fill="#84A1AE" height="70" rx="15" width="70" x="3165" y="-3135" />
<rect fill="#84A1AE" height="70" rx="15" width="70" x="3165" y="-3835" />
<rect fill="#84A1AE" height="70" rx="15" width="70" x="3265" y="-535" />
<rect fill="#84A1AE" height="70" rx="15" width="70" x="3265" y="-1035" />
<rect fill="#84A1AE" height="70" rx="15" width="70" x="3265" y="-1735" />
<rect fill="#84A1AE" height="70" rx="15" width="70" x="3265" y="-3835" />
<rect fill="#84A1AE" height="70" rx="15" width="70" x="3365" y="-535" />
<rect fill="#84A1AE" height="70" rx="15" width="70" x="3365" y="-1435" />
<rect fill="#84A1AE" height="70" rx="15" width="70" x="3365" y="-1935" />
<rect fill="#84A1AE" height="70" rx="15" width="70" x="3365" y="-2135" />
<rect fill="#84A1AE" height="70" rx="15" width="70" x="3365" y="-3835" />
<rect fill="#84A1AE" height="70" rx="15" width="70" x="3465" y="-535" />
<rect fill="#84A1AE" height="70" rx="15" width="70" x="3465" y="-2635" />
<rect fill="#84A1AE" height="70" rx="15" width="70" x="3465" y="-3835" />
<rect fill="#84A1AE" height="70" rx="15" width="70" x="3565" y="-535" />
<rect fill="#84A1AE" height="70" rx="15" width="70" x="3565" y="-635" />
<rect fill="#84A1AE" height="70" rx="15" width="70" x="3565" y="-2435" />
<rect fill="#84A1AE" height="70" rx="15" width="70" x="3565" y="-3235" />
<rect fill="#84A1AE" height="70" rx="15" width="70" x="3565" y="-3835" />
<rect fill="#84A1AE" height="70" rx="15" width="70" x="3665" y="-535" />
<rect fill="#84A1AE" height="70" rx="15" width="70" x="3665" y="-2135" />
<rect fill="#84A1AE" height="70" rx="15" width="70" x="3665" y="-2835" />
<rect fill="#84A1AE" height="70" rx="15" width="70" x="3665" y="-3135" />
<rect fill="#84A1AE" height="70" rx="15" width="70" x="3665" y="-3735" />
<rect fill="#84A1AE" height="70" rx="15" width="70" x="3665" y="-3835" />
<rect fill="#84A1AE" height="70" rx="15" width="70" x="3765" y="-535" />
<rect fill="#84A1AE" height="70" rx="15" width="70" x="3765" y="-635" />
<rect fill="#84A1AE" height="70" rx="15" width="70" x="3765" y="-735" />
<rect fill="#84A1AE" height="70" rx="15" width="70" x="3765" y="-835" />
<rect fill="#84A1AE" height="70" rx="15" width="70" x="3765" y="-935" />
<rect fill="#84A1AE" height="70" rx="15" width="70" x="3765" y="-1035" />
<rect fill="#84A1AE" height="70" rx="15" width="70" x="3765" y="-1135" />
<rect fill="#84A1AE" height="70" rx="15" width="70" x="3765" y="-1235" />
<rect fill="#84A1AE" height="70" rx="15" width="70" x="3765" y="-1335" />
<rect fill="#84A1AE" height="70" rx="15" width="70" x="3765" y="-1435" />
<rect fill="#84A1AE" height="70" rx="15" width="70" x="3765" y="-1535" />
<rect fill="#84A1AE" height="70" rx="15" width="70" x="3765" y="-1635" />
<rect fill="#84A1AE" height="70" rx="15" width="70" x="3765" y="-1735" />
<rect fill="#84A1AE" height="70" rx="15" width="70" x="3765" y="-1835" />
<rect fill="#84A1AE" height="70" rx="15" width="70" x="3765" y="-1935" />
<rect fill="#84A1AE" height="70" rx="15" width="70" x="3765" y="-2035" />
<rect fill="#84A1AE" height="70" rx="15" width="70" x="3765" y="-2135" />
<rect fill="#84A1AE" height="70" rx="15" width="70" x="3765" y="-2235" />
<rect fill="#84A1AE" height="70" rx="15" width="70" x="3765" y="-2335" />
<rect fill="#84A1AE" height="70" rx="15" width="70" x="3765" y="-2435" />
<rect fill="#84A1AE" height="70" rx="15" width="70" x="3765" y="-2535" />
<rect fill="#84A1AE" height="70" rx="15" width="70" x="3765" y="-2635" />
<rect fill="#84A1AE" height="70" rx="15" width="70" x="3765" y="-2735" />
<rect fill="#84A1AE" height="70" rx="15" width="70" x="3765" y="-2835" />
<rect fill="#84A1AE" height="70" rx="15" width="70" x="3765" y="-2935" />
<rect fill="#84A1AE" height="70" rx="15" width="70" x="3765" y="-3035" />
<rect fill="#84A1AE" height="70" rx="15" width="70" x="3765" y="-3135" />
<rect fill="#84A1AE" height="70" rx="15" width="70" x="3765" y="-3235" />
<rect fill="#84A1AE" height="70" rx="15" width="70" x="3765" y="-3335" />
<rect fill="#84A1AE" height="70" rx="15" width="70" x="3765" y="-3435" />
<rect fill="#84A1AE" height="70" rx="15" width="70" x="3765" y="-3535" />
<rect fill="#84A1AE" height="70" rx="15" width="70" x="3765" y="-3635" />
<rect fill="#84A1AE" height="70" rx="15" width="70" x="3765" y="-3735" />
<rect fill="#84A1AE" height="70" rx="15" width="70" x="3765" y="-3835" />
<circle cx="2500" cy="-1400" fill="#c1433c" r="35"> <animate attributeName="cy" dur="64.96000000000001s" keyTimes="0.0;0.0042918455;0.008583691;0.0128755365;0.017167382;0.0214592275;0.025751073;0.0300429185;0.0343347639;0.0386266094;0.0429184549;0.0472103004;0.0515021459;0.0557939914;0.0600858369;0.0643776824;0.0686695279;0.0729613734;0.0772532189;0.0815450644;0.0858369099;0.1416309013;0.1459227468;0.1502145923;0.1545064378;0.1587982833;0.1630901288;0.1673819742;0.1716738197;0.1759656652;0.1802575107;0.1845493562;0.1888412017;0.1931330472;0.1974248927;0.2017167382;0.2060085837;0.2145922747;0.2188841202;0.2231759657;0.2317596567;0.2360515021;0.2403433476;0.2446351931;0.2489270386;0.2532188841;0.2575107296;0.2618025751;0.2660944206;0.2703862661;0.2746781116;0.2789699571;0.2832618026;0.3090128755;0.313304721;0.3175965665;0.330472103;0.3347639485;0.339055794;0.3433476395;0.347639485;0.3519313305;0.356223176;0.3605150215;0.364806867;0.3690987124;0.3733905579;0.3776824034;0.3819742489;0.3862660944;0.3905579399;0.3948497854;0.4034334764;0.4077253219;0.4120171674;0.4163090129;0.4206008584;0.4248927039;0.4291845494;0.4334763948;0.4420600858;0.4463519313;0.4506437768;0.4549356223;0.4678111588;0.4721030043;0.4763948498;0.4806866953;0.4849785408;0.4892703863;0.4935622318;0.4978540773;0.5021459227;0.5064377682;0.5278969957;0.5321888412;0.5407725322;0.5450643777;0.5493562232;0.5536480687;0.5836909871;0.5879828326;0.5922746781;0.5965665236;0.6008583691;0.6051502146;0.6094420601;0.6180257511;0.6223175966;0.6266094421;0.6309012876;0.635193133;0.6394849785;0.643776824;0.6480686695;0.652360515;0.6566523605;0.660944206;0.6652360515;0.669527897;0.6738197425;0.678111588;0.686695279;0.6909871245;0.69527897;0.6995708155;0.7038626609;0.7081545064;0.7124463519;0.7210300429;0.7253218884;0.7296137339;0.7339055794;0.7381974249;0.7424892704;0.7467811159;0.7510729614;0.7553648069;0.7639484979;0.7682403433;0.7725321888;0.7768240343;0.7811158798;0.7854077253;0.7896995708;0.7939914163;0.8068669528;0.8111587983;0.8154506438;0.8197424893;0.8240343348;0.8283261803;0.8326180258;0.8369098712;0.8412017167;0.8454935622;0.8497854077;0.8540772532;0.8669527897;0.8712446352;0.8755364807;0.8798283262;0.8884120172;0.8927038627;0.8969957082;0.9012875536;0.9399141631;0.9442060086;0.9484978541;0.9527896996;0.9570815451;0.9613733906;0.9656652361;0.9699570815;0.974248927;0.9785407725;0.982832618;0.9871244635;0.991416309;0.9957081545;1.0" repeatCount="indefinite" values="-1400;-1400;-1400;-1500;-1600;-1700;-1800;-1900;-2000;-2100;-2200;-2300;-2400;-2400;-2500;-2600;-2600;-2700;-2800;-2900;-3000;-3000;-2900;-2800;-2700;-2600;-2500;-2400;-2300;-2200;-2100;-2000;-1900;-1800;-1700;-1600;-1500;-1500;-1600;-1700;-1700;-1800;-1800;-1900;-2000;-2000;-2100;-2100;-2200;-2200;-2300;-2400;-2500;-2500;-2600;-2700;-2700;-2800;-2900;-3000;-3100;-3100;-3200;-3100;-3000;-2900;-2800;-2700;-2700;-2600;-2600;-2500;-2500;-2400;-2300;-2200;-2200;-2100;-2000;-1900;-1900;-1800;-1800;-1700;-1700;-1600;-1500;-1500;-1400;-1300;-1300;-1200;-1100;-1200;-1200;-1100;-1100;-1000;-900;-800;-800;-700;-700;-600;-600;-700;-800;-800;-900;-1000;-1100;-1200;-1300;-1400;-1500;-1600;-1700;-1800;-1900;-2000;-2000;-2100;-2100;-2200;-2300;-2300;-2400;-2500;-2600;-2600;-2700;-2700;-2800;-2900;-2900;-3000;-3000;-3100;-3100;-3000;-2900;-2800;-2700;-2700;-2600;-2500;-2500;-2400;-2300;-2300;-2200;-2100;-2000;-2000;-1900;-1800;-1700;-1600;-1600;-1500;-1400;-1300;-1300;-1200;-1100;-1200;-1200;-1100;-1100;-1000;-900;-900;-800;-800;-700;-600;-700;-800;-900;-1000;-1000"/>
<animate attributeName="cx" dur="64.96000000000001s" keyTimes="0.0;0.0042918455;0.008583691;0.0515021459;0.0557939914;0.0643776824;0.0686695279;0.0858369099;0.0901287554;0.0944206009;0.0987124464;0.1030042918;0.1072961373;0.1115879828;0.1158798283;0.1201716738;0.1244635193;0.1287553648;0.1330472103;0.1373390558;0.1416309013;0.2060085837;0.2103004292;0.2145922747;0.2231759657;0.2274678112;0.2317596567;0.2360515021;0.2403433476;0.2489270386;0.2532188841;0.2575107296;0.2618025751;0.2660944206;0.2703862661;0.2832618026;0.2875536481;0.2918454936;0.2961373391;0.3004291845;0.30472103;0.3090128755;0.3175965665;0.321888412;0.3261802575;0.330472103;0.347639485;0.3519313305;0.3776824034;0.3819742489;0.3862660944;0.3905579399;0.3948497854;0.3991416309;0.4034334764;0.4163090129;0.4206008584;0.4334763948;0.4377682403;0.4420600858;0.4463519313;0.4506437768;0.4549356223;0.4592274678;0.4635193133;0.4678111588;0.4763948498;0.4806866953;0.4892703863;0.4935622318;0.5064377682;0.5107296137;0.5150214592;0.5193133047;0.5236051502;0.5278969957;0.5321888412;0.5364806867;0.5407725322;0.5536480687;0.5579399142;0.5622317597;0.5665236052;0.5708154506;0.5751072961;0.5793991416;0.5836909871;0.5879828326;0.5922746781;0.5965665236;0.6008583691;0.6094420601;0.6137339056;0.6180257511;0.669527897;0.6738197425;0.678111588;0.6824034335;0.686695279;0.69527897;0.6995708155;0.7124463519;0.7167381974;0.7210300429;0.7253218884;0.7296137339;0.7381974249;0.7424892704;0.7467811159;0.7510729614;0.7553648069;0.7596566524;0.7639484979;0.7811158798;0.7854077253;0.7939914163;0.7982832618;0.8025751073;0.8068669528;0.8154506438;0.8197424893;0.8326180258;0.8369098712;0.8540772532;0.8583690987;0.8626609442;0.8669527897;0.8798283262;0.8841201717;0.8884120172;0.9012875536;0.9055793991;0.9098712446;0.9141630901;0.9184549356;0.9227467811;0.9270386266;0.9313304721;0.9356223176;0.9399141631;0.9442060086;0.9484978541;0.9570815451;0.9613733906;0.9656652361;0.9699570815;1.0" repeatCount="indefinite" values="2500;2500;2600;2600;2700;2700;2800;2800;2900;3000;3100;3200;3300;3400;3500;3400;3300;3200;3100;3000;2900;2900;2800;2700;2700;2600;2500;2500;2400;2400;2300;2300;2200;2200;2100;2100;2000;1900;1800;1700;1600;1500;1500;1400;1300;1200;1200;1100;1100;1200;1200;1300;1300;1400;1500;1500;1600;1600;1700;1800;1800;1900;1900;2000;2100;2200;2200;2300;2300;2400;2400;2300;2200;2100;2000;1900;1900;1800;1700;1700;1800;1900;2000;2100;2200;2300;2400;2400;2500;2500;2400;2400;2500;2600;2600;2500;2500;2400;2300;2300;2200;2200;2100;2000;2000;1900;1900;1800;1800;1700;1700;1600;1700;1700;1800;1800;1900;2000;2100;2100;2200;2200;2300;2300;2400;2500;2600;2600;2700;2800;2800;2700;2600;2500;2400;2300;2200;2300;2400;2500;2500;2600;2600;2700;2700;2800;2800"/>
<animate attributeName="visibility" dur="64.96000000000001s" keyTimes="0.0;0.0042918455;1.0" repeatCount="indefinite" values="visible;visible;visible"/> </circle>
<circle cx="3000" cy="-1900" fill="#2e6f9e" r="35"> <animate attributeName="cy" dur="64.96000000000001s" keyTimes="0.0;0.0042918455;0.008583691;0.0128755365;0.017167382;0.0214592275;0.025751073;0.0300429185;0.0343347639;0.0386266094;0.0643776824;0.0686695279;0.0729613734;0.0772532189;0.0815450644;0.0858369099;0.0901287554;0.0944206009;0.0987124464;0.1030042918;0.1072961373;0.1115879828;0.1158798283;0.1201716738;0.1244635193;0.1287553648;0.1330472103;0.1373390558;0.1416309013;0.1459227468;0.1502145923;0.1545064378;0.1587982833;0.1630901288;0.1673819742;0.1716738197;0.1759656652;0.1802575107;0.1845493562;0.1888412017;0.1931330472;0.1974248927;0.2017167382;0.2060085837;0.2103004292;0.2145922747;0.2188841202;0.2274678112;0.2317596567;0.2360515021;0.2403433476;0.2446351931;0.2489270386;0.2875536481;0.2918454936;0.3004291845;0.30472103;0.3605150215;0.364806867;0.3690987124;0.3733905579;0.3776824034;0.3819742489;0.3862660944;0.4077253219;0.4120171674;0.4163090129;0.4206008584;0.4248927039;0.4291845494;0.4506437768;0.4549356223;0.5450643777;0.5493562232;0.5536480687;0.5579399142;0.5622317597;0.5665236052;0.5708154506;0.5793991416;0.5836909871;0.5879828326;0.5922746781;0.5965665236;0.6008583691;0.6051502146;0.6094420601;0.6137339056;0.6180257511;0.6223175966;0.6266094421;0.6309012876;0.635193133;0.6394849785;0.643776824;0.6480686695;0.652360515;0.6566523605;0.660944206;0.6652360515;0.669527897;0.6738197425;0.678111588;0.6824034335;0.7081545064;0.7124463519;0.7167381974;0.7854077253;0.7896995708;0.7982832618;0.8025751073;0.8068669528;0.8111587983;0.8154506438;0.8197424893;0.8240343348;0.8283261803;0.8326180258;0.8369098712;0.8412017167;0.8454935622;0.8497854077;0.8540772532;0.8583690987;0.8626609442;0.8669527897;0.8712446352;0.8755364807;0.8798283262;0.8884120172;0.8927038627;0.8969957082;0.9012875536;0.9055793991;0.9098712446;0.9141630901;0.9184549356;0.9227467811;0.9270386266;0.9313304721;0.9356223176;0.9399141631;0.9442060086;0.9484978541;0.9527896996;1.0" repeatCount="indefinite" values="-1900;-1900;-2000;-2100;-2200;-2300;-2400;-2400;-2500;-2600;-2600;-2500;-2400;-2300;-2300;-2200;-2100;-2000;-1900;-1800;-1700;-1600;-1500;-1400;-1300;-1200;-1300;-1400;-1500;-1600;-1700;-1800;-1900;-2000;-2100;-2200;-2300;-2400;-2400;-2500;-2600;-2700;-2600;-2700;-2800;-2900;-3000;-3000;-3100;-3200;-3300;-3400;-3500;-3500;-3600;-3600;-3500;-3500;-3600;-3600;-3500;-3400;-3300;-3200;-3200;-3100;-3000;-2900;-2800;-2700;-2700;-2800;-2800;-2700;-2600;-2500;-2400;-2300;-2400;-2400;-2300;-2200;-2100;-2200;-2200;-2100;-2000;-1900;-1800;-1700;-1600;-1500;-1400;-1500;-1600;-1700;-1800;-1900;-2000;-2100;-2200;-2300;-2300;-2400;-2400;-2500;-2600;-2600;-2500;-2500;-2400;-2300;-2200;-2100;-2000;-2000;-1900;-1900;-1800;-1800;-1700;-1600;-1500;-1400;-1300;-1300;-1200;-1100;-1000;-1000;-900;-1000;-1100;-1200;-1300;-1300;-1400;-1500;-1600;-1700;-1800;-1900;-2000;-2100;-2200;-2200"/>
<animate attributeName="cx" dur="64.96000000000001s" keyTimes="0.0;0.0042918455;0.025751073;0.0300429185;0.0386266094;0.0429184549;0.0472103004;0.0515021459;0.0557939914;0.0600858369;0.0643776824;0.0772532189;0.0815450644;0.1802575107;0.1845493562;0.2188841202;0.2231759657;0.2274678112;0.2489270386;0.2532188841;0.2575107296;0.2618025751;0.2660944206;0.2703862661;0.2746781116;0.2789699571;0.2832618026;0.2875536481;0.2918454936;0.2961373391;0.3004291845;0.30472103;0.3090128755;0.313304721;0.3175965665;0.321888412;0.3261802575;0.330472103;0.3347639485;0.339055794;0.3433476395;0.347639485;0.3519313305;0.356223176;0.3605150215;0.364806867;0.3690987124;0.3862660944;0.3905579399;0.3948497854;0.3991416309;0.4034334764;0.4077253219;0.4291845494;0.4334763948;0.4377682403;0.4420600858;0.4463519313;0.4506437768;0.4549356223;0.4592274678;0.4635193133;0.4678111588;0.4721030043;0.4763948498;0.4806866953;0.4849785408;0.4892703863;0.4935622318;0.4978540773;0.5021459227;0.5064377682;0.5107296137;0.5150214592;0.5193133047;0.5236051502;0.5278969957;0.5321888412;0.5364806867;0.5407725322;0.5450643777;0.5708154506;0.5751072961;0.5965665236;0.6008583691;0.6738197425;0.678111588;0.6824034335;0.686695279;0.6909871245;0.69527897;0.6995708155;0.7038626609;0.7081545064;0.7167381974;0.7210300429;0.7253218884;0.7296137339;0.7339055794;0.7381974249;0.7424892704;0.7467811159;0.7510729614;0.7553648069;0.7596566524;0.7639484979;0.7682403433;0.7725321888;0.7768240343;0.7811158798;0.7854077253;0.7896995708;0.7939914163;0.7982832618;0.8283261803;0.8326180258;0.8369098712;0.8412017167;0.8626609442;0.8669527897;0.8798283262;0.8841201717;0.8884120172;0.9098712446;0.9141630901;0.9527896996;0.9570815451;0.9613733906;0.9656652361;0.9699570815;0.974248927;0.9785407725;0.982832618;0.9871244635;0.991416309;0.9957081545;1.0" repeatCount="indefinite" values="3000;3000;3000;2900;2900;2800;2700;2600;2700;2800;2900;2900;3000;3000;2900;2900;3000;3100;3100;3000;2900;2800;2700;2600;2500;2400;2300;2200;2200;2300;2200;2200;2100;2000;1900;1800;1700;1600;1500;1400;1300;1200;1100;1000;900;900;800;800;900;900;1000;1100;1200;1200;1300;1200;1300;1400;1500;1500;1600;1700;1800;1900;2000;2100;2200;2300;2400;2500;2600;2700;2800;2900;3000;3100;3200;3300;3400;3500;3400;3400;3500;3500;3600;3600;3500;3500;3400;3300;3200;3100;3000;2900;2900;2800;2700;2700;2600;2600;2500;2400;2300;2200;2100;2000;1900;1800;1700;1600;1500;1500;1400;1300;1300;1200;1200;1300;1300;1200;1200;1100;1200;1200;1300;1300;1400;1500;1600;1700;1800;1900;2000;2100;2200;2300;2300"/>
<animate attributeName="visibility" dur="64.96000000000001s" keyTimes="0.0;0.0042918455;1.0" repeatCount="indefinite" values="visible;visible;visible"/> </circle>
<circle cx="3500" cy="-3000" fill="none" r="35" stroke="#c1433c" stroke-width="10"> <animate attributeName="cy" dur="64.96000000000001s" keyTimes="0.0;0.0042918455;0.1115879828;0.1158798283;0.2017167382;0.2060085837;0.3519313305;0.356223176;0.4034334764;0.4077253219;0.4978540773;0.5021459227;0.5493562232;0.5536480687;0.5922746781;0.5965665236;0.6008583691;0.6051502146;0.6652360515;0.669527897;0.7553648069;0.7596566524;0.8927038627;0.8969957082;0.9227467811;0.9270386266;0.974248927;0.9785407725;1.0" repeatCount="indefinite" values="-3000;-3000;-3000;-1500;-1500;-3200;-3200;-2400;-2400;-1100;-1100;-800;-800;-600;-600;-700;-700;-2000;-2000;-3100;-3100;-1100;-1100;-1200;-1200;-600;-600;-1700;-1700"/>
<animate attributeName="cx" dur="64.96000000000001s" keyTimes="0.0;0.0042918455;0.1115879828;0.1158798283;0.2017167382;0.2060085837;0.3519313305;0.356223176;0.4034334764;0.4077253219;0.4978540773;0.5021459227;0.5493562232;0.5536480687;0.5922746781;0.5965665236;0.6008583691;0.6051502146;0.6652360515;0.669527897;0.7553648069;0.7596566524;0.8927038627;0.8969957082;0.9227467811;0.9270386266;1.0" repeatCount="indefinite" values="3500;3500;3500;2900;2900;1100;1100;1500;1500;2400;2400;1700;1700;2500;2500;2400;2400;2600;2600;1600;1600;2800;2800;2200;2200;2800;2800"/>
<animate attributeName="visibility" dur="64.96000000000001s" keyTimes="0.0;0.0042918455;1.0" repeatCount="indefinite" values="visible;visible;visible"/> </circle>
<circle cx="2600" cy="-2600" fill="none" r="35" stroke="#2e6f9e" stroke-width="10"> <animate attributeName="cy" dur="64.96000000000001s" keyTimes="0.0;0.0042918455;0.0472103004;0.0515021459;0.1244635193;0.1287553648;0.2231759657;0.2274678112;0.3776824034;0.3819742489;0.5364806867;0.5407725322;0.6309012876;0.635193133;0.7467811159;0.7510729614;0.8798283262;0.8841201717;1.0" repeatCount="indefinite" values="-2600;-2600;-2600;-1200;-1200;-3000;-3000;-3300;-3300;-2800;-2800;-1400;-1400;-2600;-2600;-1000;-1000;-2300;-2300"/>
<animate attributeName="cx" dur="64.96000000000001s" keyTimes="0.0;0.0042918455;0.0472103004;0.0515021459;0.1244635193;0.1287553648;0.2231759657;0.2274678112;0.3776824034;0.3819742489;0.5364806867;0.5407725322;0.6309012876;0.635193133;0.7467811159;0.7510729614;0.8798283262;0.8841201717;1.0" repeatCount="indefinite" values="2600;2600;2600;3000;3000;3100;3100;800;800;3500;3500;3600;3600;2300;2300;1100;1100;3300;3300"/>
<animate attributeName="visibility" dur="64.96000000000001s" keyTimes="0.0;0.0042918455;1.0" repeatCount="indefinite" values="visible;visible;visible"/> </circle>
</svg>