<?xml version="1.0" encoding="UTF-8"?>
        <svg xmlns="http://www.w3.org/2000/svg" xmlns:xlink="http://www.w3.org/1999/xlink"
             width="430" height="430" viewBox="0 -4300 4300 4300">

<defs>

</defs>

<rect fill="#84A1AE" height="70" rx="15" width="70" x="465" y="-535" />
<rect fill="#84A1AE" height="70" rx="15" width="70" x="465" y="-635" />
<rect fill="#84A1AE" height="70" rx="15" width="70" x="465" y="-735" />
<rect fill="#84A1AE" height="70" rx="15" width="70" x="465" y="-835" />
<rect fill="#84A1AE" height="70" rx="15" width="70" x="465" y="-935" />
<rect fill="#84A1AE" height="70" rx="15" width="70" x="465" y="-1035" />
<rect fill="#84A1AE" height="70" rx="15" width="70" x="465" y="-1135" />
<rect fill="#84A1AE" height="70" rx="15" width="70" x="465" y="-1235" />
<rect fill="#84A1AE" height="70" rx="15" width="70" x="465" y="-1335" />
<rect fill="#84A1AE" height="70" rx="15" width="70" x="465" y="-1435" />
<rect fill="#84A1AE" height="70" rx="15" width="70" x="465" y="-1535" />
<rect fill="#84A1AE" height="70" rx="15" width="70" x="465" y="-1635" />
<rect fill="#84A1AE" height="70" rx="15" width="70" x="465" y="-1735" />
<rect fill="#84A1AE" height="70" rx="15" width="70" x="465" y="-1835" />
<rect fill="#84A1AE" height="70" rx="15" width="70" x="465" y="-1935" />
<rect fill="#84A1AE" height="70" rx="15" width="70" x="465" y="-2035" />
<rect fill="#84A1AE" height="70" rx="15" width="70" x="465" y="-2135" />
<rect fill="#84A1AE" height="70" rx="15" width="70" x="465" y="-2235" />
<rect fill="#84A1AE" height="70" rx="15" width="70" x="465" y="-2335" />
<rect fill="#84A1AE" height="70" rx="15" width="70" x="465" y="-2435" />
<rect fill="#84A1AE" height="70" rx="15" width="70" x="465" y="-2535" />
<rect fill="#84A1AE" height="70" rx="15" width="70" x="465" y="-2635" />
<rect fill="#84A1AE" height="70" rx="15" width="70" x="465" y="-2735" />
<rect fill="#84A1AE" height="70" rx="15" width="70" x="465" y="-2835" />
<rect fill="#84A1AE" height="70" rx="15" width="70" x="465" y="-2935" />
<rect fill="#84A1AE" height="70" rx="15" width="70" x="465" y="-3035" />
<rect fill="#84A1AE" height="70" rx="15" width="70" x="465" y="-3135" />
<rect fill="#84A1AE" height="70" rx="15" width="70" x="465" y="-3235" />
<rect fill="#84A1AE" height="70" rx="15" width="70" x="465" y="-3335" />
<rect fill="#84A1AE" height="70" rx="15" width="70" x="465" y="-3435" />
<rect fill="#84A1AE" height="70" rx="15" width="70" x="465" y="-3535" />
<rect fill="#84A1AE" height="70" rx="15" width="70" x="465" y="-3635" />
<rect fill="#84A1AE" height="70" rx="15" width="70" x="465" y="-3735" />
<rect fill="#84A1AE" height="70" rx="15" width="70" x="465" y="-3835" />
<rect fill="#84A1AE" height="70" rx="15" width="70" x="565" y="-535" />
<rect fill="#84A1AE" height="70" rx="15" width="70" x="565" y="-1635" />
<rect fill="#84A1AE" height="70" rx="15" width="70" x="565" y="-1935" />
<rect fill="#84A1AE" height="70" rx="15" width="70" x="565" y="-2735" />
<rect fill="#84A1AE" height="70" rx="15" width="70" x="565" y="-3835" />
<rect fill="#84A1AE" height="70" rx="15" width="70" x="665" y="-535" />
<rect fill="#84A1AE" height="70" rx="15" width="70" x="665" y="-1035" />
<rect fill="#84A1AE" height="70" rx="15" width="70" x="665" y="-2535" />
<rect fill="#84A1AE" height="70" rx="15" width="70" x="665" y="-3035" />
<rect fill="#84A1AE" height="70" rx="15" width="70" x="665" y="-3235" />
<rect fill="#84A1AE" height="70" rx="15" width="70" x="665" y="-3835" />
<rect fill="#84A1AE" height="70" rx="15" width="70" x="765" y="-535" />
<rect fill="#84A1AE" height="70" rx="15" width="70" x="765" y="-635" />
<rect fill="#84A1AE" height="70" rx="15" width="70" x="765" y="-3835" />
<rect fill="#84A1AE" height="70" rx="15" width="70" x="865" y="-535" />
<rect fill="#84A1AE" height="70" rx="15" width="70" x="865" y="-2435" />
<rect fill="#84A1AE" height="70" rx="15" width="70" x="865" y="-2535" />
<rect fill="#84A1AE" height="70" rx="15" width="70" x="865" y="-3335" />
<rect fill="#84A1AE" height="70" rx="15" width="70" x="865" y="-3435" />
<rect fill="#84A1AE" height="70" rx="15" width="70" x="865" y="-3835" />
<rect fill="#84A1AE" height="70" rx="15" width="70" x="965" y="-535" />
<rect fill="#84A1AE" height="70" rx="15" width="70" x="965" y="-735" />
<rect fill="#84A1AE" height="70" rx="15" width="70" x="965" y="-1635" />
<rect fill="#84A1AE" height="70" rx="15" width="70" x="965" y="-1835" />
<rect fill="#84A1AE" height="70" rx="15" width="70" x="965" y="-2835" />
<rect fill="#84A1AE" height="70" rx="15" width="70" x="965" y="-3435" />
<rect fill="#84A1AE" height="70" rx="15" width="70" x="965" y="-3835" />
<rect fill="#84A1AE" height="70" rx="15" width="70" x="1065" y="-535" />
<rect fill="#84A1AE" height="70" rx="15" width="70" x="1065" y="-1135" />
<rect fill="#84A1AE" height="70" rx="15" width="70" x="1065" y="-1835" />
<rect fill="#84A1AE" height="70" rx="15" width="70" x="1065" y="-3735" />
<rect fill="#84A1AE" height="70" rx="15" width="70" x="1065" y="-3835" />
<rect fill="#84A1AE" height="70" rx="15" width="70" x="1165" y="-535" />
<rect fill="#84A1AE" height="70" rx="15" width="70" x="1165" y="-635" />
<rect fill="#84A1AE" height="70" rx="15" width="70" x="1165" y="-735" />
<rect fill="#84A1AE" height="70" rx="15" width="70" x="1165" y="-1535" />
<rect fill="#84A1AE" height="70" rx="15" width="70" x="1165" y="-3835" />
<rect fill="#84A1AE" height="70" rx="15" width="70" x="1265" y="-535" />
<rect fill="#84A1AE" height="70" rx="15" width="70" x="1265" y="-2835" />
<rect fill="#84A1AE" height="70" rx="15" width="70" x="1265" y="-3435" />
<rect fill="#84A1AE" height="70" rx="15" width="70" x="1265" y="-3835" />
<rect fill="#84A1AE" height="70" rx="15" width="70" x="1365" y="-535" />
<rect fill="#84A1AE" height="70" rx="15" width="70" x="1365" y="-835" />
<rect fill="#84A1AE" height="70" rx="15" width="70" x="1365" y="-935" />
<rect fill="#84A1AE" height="70" rx="15" width="70" x="1365" y="-1035" />
<rect fill="#84A1AE" height="70" rx="15" width="70" x="1365" y="-1935" />
<rect fill="#84A1AE" height="70" rx="15" width="70" x="1365" y="-2335" />
<rect fill="#84A1AE" height="70" rx="15" width="70" x="1365" y="-2635" />
<rect fill="#84A1AE" height="70" rx="15" width="70" x="1365" y="-2835" />
<rect fill="#84A1AE" height="70" rx="15" width="70" x="1365" y="-2935" />
<rect fill="#84A1AE" height="70" rx="15" width="70" x="1365" y="-3035" />
<rect fill="#84A1AE" height="70" rx="15" width="70" x="1365" y="-3335" />
<rect fill="#84A1AE" height="70" rx="15" width="70" x="1365" y="-3835" />
<rect fill="#84A1AE" height="70" rx="15" width="70" x="1465" y="-535" />
<rect fill="#84A1AE" height="70" rx="15" width="70" x="1465" y="-1235" />
<rect fill="#84A1AE" height="70" rx="15" width="70" x="1465" y="-1535" />
<rect fill="#84A1AE" height="70" rx="15" width="70" x="1465" y="-2035" />
<rect fill="#84A1AE" height="70" rx="15" width="70" x="1465" y="-3135" />
<rect fill="#84A1AE" height="70" rx="15" width="70" x="1465" y="-3235" />
<rect fill="#84A1AE" height="70" rx="15" width="70" x="1465" y="-3835" />
<rect fill="#84A1AE" height="70" rx="15" width="70" x="1565" y="-535" />
<rect fill="#84A1AE" height="70" rx="15" width="70" x="1565" y="-3035" />
<rect fill="#84A1AE" height="70" rx="15" width="70" x="1565" y="-3835" />
<rect fill="#84A1AE" height="70" rx="15" width="70" x="1665" y="-535" />
<rect fill="#84A1AE" height="70" rx="15" width="70" x="1665" y="-3735" />
<rect fill="#84A1AE" height="70" rx="15" width="70" x="1665" y="-3835" />
<rect fill="#84A1AE" height="70" rx="15" width="70" x="1765" y="-535" />
<rect fill="#84A1AE" height="70" rx="15" width="70" x="1765" y="-1235" />
<rect fill="#84A1AE" height="70" rx="15" width="70" x="1765" y="-3835" />
<rect fill="#84A1AE" height="70" rx="15" width="70" x="1865" y="-535" />
<rect fill="#84A1AE" height="70" rx="15" width="70" x="1865" y="-735" />
<rect fill="#84A1AE" height="70" rx="15" width="70" x="1865" y="-1335" />
<rect fill="#84A1AE" height="70" rx="15" width="70" x="1865" y="-3235" />
<rect fill="#84A1AE" height="70" rx="15" width="70" x="1865" y="-3435" />
<rect fill="#84A1AE" height="70" rx="15" width="70" x="1865" y="-3835" />
<rect fill="#84A1AE" height="70" rx="15" width="70" x="1965" y="-535" />
<rect fill="#84A1AE" height="70" rx="15" width="70" x="1965" y="-635" />
<rect fill="#84A1AE" height="70" rx="15" width="70" x="1965" y="-1835" />
<rect fill="#84A1AE" height="70" rx="15" width="70" x="1965" y="-1935" />
<rect fill="#84A1AE" height="70" rx="15" width="70" x="1965" y="-2135" />
<rect fill="#84A1AE" height="70" rx="15" width="70" x="1965" y="-2335" />
<rect fill="#84A1AE" height="70" rx="15" width="70" x="1965" y="-2435" />
<rect fill="#84A1AE" height="70" rx="15" width="70" x="1965" y="-3335" />
<rect fill="#84A1AE" height="70" rx="15" width="70" x="1965" y="-3835" />
<rect fill="#84A1AE" height="70" rx="15" width="70" x="2065" y="-535" />
<rect fill="#84A1AE" height="70" rx="15" width="70" x="2065" y="-1535" />
<rect fill="#84A1AE" height="70" rx="15" width="70" x="2065" y="-1635" />
<rect fill="#84A1AE" height="70" rx="15" width="70" x="2065" y="-2135" />
<rect fill="#84A1AE" height="70" rx="15" width="70" x="2065" y="-3835" />
<rect fill="#84A1AE" height="70" rx="15" width="70" x="2165" y="-535" />
<rect fill="#84A1AE" height="70" rx="15" width="70" x="2165" y="-935" />
<rect fill="#84A1AE" height="70" rx="15" width="70" x="2165" y="-1335" />
<rect fill="#84A1AE" height="70" rx="15" width="70" x="2165" y="-1835" />
<rect fill="#84A1AE" height="70" rx="15" width="70" x="2165" y="-3835" />
<rect fill="#84A1AE" height="70" rx="15" width="70" x="2265" y="-535" />
<rect fill="#84A1AE" height="70" rx="15" width="70" x="2265" y="-935" />
<rect fill="#84A1AE" height="70" rx="15" width="70" x="2265" y="-1135" />
<rect fill="#84A1AE" height="70" rx="15" width="70" x="2265" y="-2535" />
<rect fill="#84A1AE" height="70" rx="15" width="70" x="2265" y="-3235" />
<rect fill="#84A1AE" height="70" rx="15" width="70" x="2265" y="-3835" />
<rect fill="#84A1AE" height="70" rx="15" width="70" x="2365" y="-535" />
<rect fill="#84A1AE" height="70" rx="15" width="70" x="2365" y="-935" />
<rect fill="#84A1AE" height="70" rx="15" width="70" x="2365" y="-1035" />
<rect fill="#84A1AE" height="70" rx="15" width="70" x="2365" y="-3835" />
<rect fill="#84A1AE" height="70" rx="15" width="70" x="2465" y="-535" />
<rect fill="#84A1AE" height="70" rx="15" width="70" x="2465" y="-935" />
<rect fill="#84A1AE" height="70" rx="15" width="70" x="2465" y="-1535" />
<rect fill="#84A1AE" height="70" rx="15" width="70" x="2465" y="-2335" />
<rect fill="#84A1AE" height="70" rx="15" width="70" x="2465" y="-2735" />
<rect fill="#84A1AE" height="70" rx="15" width="70" x="2465" y="-3835" />
<rect fill="#84A1AE" height="70" rx="15" width="70" x="2565" y="-535" />
<rect fill="#84A1AE" height="70" rx="15" width="70" x="2565" y="-735" />
<rect fill="#84A1AE" height="70" rx="15" width="70" x="2565" y="-2535" />
<rect fill="#84A1AE" height="70" rx="15" width="70" x="2565" y="-3835" />
<rect fill="#84A1AE" height="70" rx="15" width="70" x="2665" y="-535" />
<rect fill="#84A1AE" height="70" rx="15" width="70" x="2665" y="-635" />
<rect fill="#84A1AE" height="70" rx="15" width="70" x="2665" y="-1135" />
<rect fill="#84A1AE" height="70" rx="15" width="70" x="2665" y="-1435" />
<rect fill="#84A1AE" height="70" rx="15" width="70" x="2665" y="-2735" />
<rect fill="#84A1AE" height="70" rx="15" width="70" x="2665" y="-3835" />
<rect fill="#84A1AE" height="70" rx="15" width="70" x="2765" y="-535" />
<rect fill="#84A1AE" height="70" rx="15" width="70" x="2765" y="-1635" />
<rect fill="#84A1AE" height="70" rx="15" width="70" x="2765" y="-1835" />
<rect fill="#84A1AE" height="70" rx="15" width="70" x="2765" y="-1935" />
<rect fill="#84A1AE" height="70" rx="15" width="70" x="2765" y="-2235" />
<rect fill="#84A1AE" height="70" rx="15" width="70" x="2765" y="-3735" />
<rect fill="#84A1AE" height="70" rx="15" width="70" x="2765" y="-3835" />
<rect fill="#84A1AE" height="70" rx="15" width="70" x="2865" y="-535" />
<rect fill="#84A1AE" height="70" rx="15" width="70" x="2865" y="-3835" />
<rect fill="#84A1AE" height="70" rx="15" width="70" x="2965" y="-535" />
<rect fill="#84A1AE" height="70" rx="15" width="70" x="2965" y="-2635" />
<rect fill="#84A1AE" height="70" rx="15" width="70" x="2965" y="-3835" />
<rect fill="#84A1AE" height="70" rx="15" width="70" x="3065" y="-535" />
<rect fill="#84A1AE" height="70" rx="15" width="70" x="3065" y="-735" />
<rect fill="#84A1AE" height="70" rx="15" width="70" x="3065" y="-2535" />
<rect fill="#84A1AE" height="70" rx="15" width="70" x="3065" y="-3835" />
<rect fill="#84A1AE" height="70" rx="15" width="70" x="3165" y="-535" />
<rect fill="#84A1AE" height="70" rx="15" width="70" x="3165" y="-835" />
<rect fill="#84A1AE" height="70" rx="15" width="70" x="3165" y="-1935" />
<rect fill="#84A1AE" height="70" rx="15" width="70" x="3165" y="-2735" />
<rect fill="#84A1AE" height="70" rx="15" width="70" x="3165" y="-3135" />
<rect fill="#84A1AE" height="70" rx="15" width="70" x="3165" y="-3835" />
<rect fill="#84A1AE" height="70" rx="15" width="70" x="3265" y="-535" />
<rect fill="#84A1AE" height="70" rx="15" width="70" x="3265" y="-1035" />
<rect fill="#84A1AE" height="70" rx="15" width="70" x="3265" y="-1735" />
<rect fill="#84A1AE" height="70" rx="15" width="70" x="3265" y="-3835" />
<rect fill="#84A1AE" height="70" rx="15" width="70" x="3365" y="-535" />
<rect fill="#84A1AE" height="70" rx="15" width="70" x="3365" y="-1435" />
<rect fill="#84A1AE" height="70" rx="15" width="70" x="3365" y="-1935" />
<rect fill="#84A1AE" height="70" rx="15" width="70" x="3365" y="-2135" />
<rect fill="#84A1AE" height="70" rx="15" width="70" x="3365" y="-3835" />
<rect fill="#84A1AE" height="70" rx="15" width="70" x="3465" y="-535" />
<rect fill="#84A1AE" height="70" rx="15" width="70" x="3465" y="-2635" />
<rect fill="#84A1AE" height="70" rx="15" width="70" x="3465" y="-3835" />
<rect fill="#84A1AE" height="70" rx="15" width="70" x="3565" y="-535" />
<rect fill="#84A1AE" height="70" rx="15" width="70" x="3565" y="-635" />
<rect fill="#84A1AE" height="70" rx="15" width="70" x="3565" y="-2435" />
<rect fill="#84A1AE" height="70" rx="15" width="70" x="3565" y="-3235" />
<rect fill="#84A1AE" height="70" rx="15" width="70" x="3565" y="-3835" />
<rect fill="#84A1AE" height="70" rx="15" width="70" x="3665" y="-535" />
<rect fill="#84A1AE" height="70" rx="15" width="70" x="3665" y="-2135" />
<rect fill="#84A1AE" height="70" rx="15" width="70" x="3665" y="-2835" />
<rect fill="#84A1AE" height="70" rx="15" width="70" x="3665" y="-3135" />
<rect fill="#84A1AE" height="70" rx="15" width="70" x="3665" y="-3735" />
<rect fill="#84A1AE" height="70" rx="15" width="70" x="3665" y="-3835" />
<rect fill="#84A1AE" height="70" rx="15" width="70" x="3765" y="-535" />
<rect fill="#84A1AE" height="70" rx="15" width="70" x="3765" y="-635" />
<rect fill="#84A1AE" height="70" rx="15" width="70" x="3765" y="-735" />
<rect fill="#84A1AE" height="70" rx="15" width="70" x="3765" y="-835" />
<rect fill="#84A1AE" height="70" rx="15" width="70" x="3765" y="-935" />
<rect fill="#84A1AE" height="70" rx="15" width="70" x="3765" y="-1035" />
<rect fill="#84A1AE" height="70" rx="15" width="70" x="3765" y="-1135" />
<rect fill="#84A1AE" height="70" rx="15" width="70" x="3765" y="-1235" />
<rect fill="#84A1AE" height="70" rx="15" width="70" x="3765" y="-1335" />
<rect fill="#84A1AE" height="70" rx="15" width="70" x="3765" y="-1435" />
<rect fill="#84A1AE" height="70" rx="15" width="70" x="3765" y="-1535" />
<rect fill="#84A1AE" height="70" rx="15" width="70" x="3765" y="-1635" />
<rect fill="#84A1AE" height="70" rx="15" width="70" x="3765" y="-1735" />
<rect fill="#84A1AE" height="70" rx="15" width="70" x="3765" y="-1835" />
<rect fill="#84A1AE" height="70" rx="15" width="70" x="3765" y="-1935" />
<rect fill="#84A1AE" height="70" rx="15" width="70" x="3765" y="-2035" />
<rect fill="#84A1AE" height="70" rx="15" width="70" x="3765" y="-2135" />
<rect fill="#84A1AE" height="70" rx="15" width="70" x="3765" y="-2235" />
<rect fill="#84A1AE" height="70" rx="15" width="70" x="3765" y="-2335" />
<rect fill="#84A1AE" height="70" rx="15" width="70" x="3765" y="-2435" />
<rect fill="#84A1AE" height="70" rx="15" width="70" x="3765" y="-2535" />
<rect fill="#84A1AE" height="70" rx="15" width="70" x="3765" y="-2635" />
<rect fill="#84A1AE" height="70" rx="15" width="70" x="3765" y="-2735" />
<rect fill="#84A1AE" height="70" rx="15" width="70" x="3765" y="-2835" />
<rect fill="#84A1AE" height="70" rx="15" width="70" x="3765" y="-2935" />
<rect fill="#84A1AE" height="70" rx="15" width="70" x="3765" y="-3035" />
<rect fill="#84A1AE" height="70" rx="15" width="70" x="3765" y="-3135" />
<rect fill="#84A1AE" height="70" rx="15" width="70" x="3765" y="-3235" />
<rect fill="#84A1AE" height="70" rx="15" width="70" x="3765" y="-3335" />
<rect fill="#84A1AE" height="70" rx="15" width="70" x="3765" y="-3435" />
<rect fill="#84A1AE" height="70" rx="15" width="70" x="3765" y="-3535" />
<rect fill="#84A1AE" height="70" rx="15" width="70" x="3765" y="-3635" />
<rect fill="#84A1AE" height="70" rx="15" width="70" x="3765" y="-3735" />
<rect fill="#84A1AE" height="70" rx="15" width="70" x="3765" y="-3835" />
<circle cx="2500" cy="-1400" fill="#c1433c" r="35"> <animate attributeName="cy" dur="134.68s" keyTimes="0.0;0.0020746888;0.0041493776;0.0062240664;0.0082987552;0.010373444;0.0124481328;0.0145228216;0.0165975104;0.0186721992;0.020746888;0.0228215768;0.0248962656;0.0269709544;0.0290456432;0.031120332;0.0331950207;0.0352697095;0.0373443983;0.0394190871;0.0414937759;0.0809128631;0.0829875519;0.0912863071;0.0933609959;0.0954356846;0.0975103734;0.0995850622;0.101659751;0.1037344398;0.1058091286;0.1078838174;0.1099585062;0.112033195;0.1141078838;0.1161825726;0.1182572614;0.1203319502;0.122406639;0.1244813278;0.1265560166;0.1286307054;0.1307053942;0.132780083;0.1348547718;0.1369294606;0.1390041494;0.1410788382;0.143153527;0.1452282158;0.1473029046;0.1493775934;0.1784232365;0.1804979253;0.1825726141;0.1846473029;0.1867219917;0.1887966805;0.1908713693;0.1929460581;0.1950207469;0.1970954357;0.1991701245;0.2012448133;0.2033195021;0.2053941909;0.2074688797;0.2095435685;0.2116182573;0.2136929461;0.2157676349;0.2178423237;0.2572614108;0.2593360996;0.2614107884;0.2634854772;0.265560166;0.2676348548;0.2697095436;0.2717842324;0.2738589212;0.27593361;0.2780082988;0.2800829876;0.2821576763;0.2842323651;0.2863070539;0.2883817427;0.2904564315;0.2925311203;0.2946058091;0.3485477178;0.3506224066;0.3526970954;0.3547717842;0.356846473;0.3589211618;0.3609958506;0.3630705394;0.3651452282;0.367219917;0.3692946058;0.3713692946;0.3734439834;0.3755186722;0.377593361;0.3796680498;0.3817427386;0.3838174274;0.3858921162;0.387966805;0.3900414938;0.3921161826;0.3941908714;0.3962655602;0.398340249;0.4004149378;0.4024896266;0.4045643154;0.4066390041;0.4087136929;0.4107883817;0.4128630705;0.4149377593;0.4170124481;0.4190871369;0.4211618257;0.4232365145;0.4253112033;0.4336099585;0.4356846473;0.4419087137;0.4439834025;0.4460580913;0.4481327801;0.4502074689;0.4522821577;0.4543568465;0.4564315353;0.4585062241;0.4605809129;0.4626556017;0.4647302905;0.4668049793;0.468879668;0.4709543568;0.4730290456;0.4751037344;0.4771784232;0.479253112;0.4813278008;0.4834024896;0.4854771784;0.4875518672;0.489626556;0.4917012448;0.4937759336;0.4958506224;0.4979253112;0.5;0.5020746888;0.5041493776;0.5062240664;0.5082987552;0.510373444;0.5124481328;0.5145228216;0.5165975104;0.5477178423;0.5497925311;0.5518672199;0.5539419087;0.5560165975;0.5580912863;0.5601659751;0.5622406639;0.5643153527;0.5663900415;0.5684647303;0.5705394191;0.5726141079;0.5746887967;0.5767634855;0.5788381743;0.5809128631;0.5829875519;0.5850622407;0.5871369295;0.5892116183;0.5912863071;0.5933609959;0.5954356846;0.5975103734;0.5995850622;0.601659751;0.6037344398;0.6058091286;0.6078838174;0.6099585062;0.612033195;0.6452282158;0.6473029046;0.6597510373;0.6618257261;0.6639004149;0.6659751037;0.6680497925;0.6887966805;0.6908713693;0.6929460581;0.6950207469;0.6970954357;0.6991701245;0.7012448133;0.7033195021;0.7053941909;0.7074688797;0.7095435685;0.7116182573;0.7136929461;0.7157676349;0.7178423237;0.7199170124;0.7219917012;0.72406639;0.7261410788;0.7282157676;0.7302904564;0.7323651452;0.734439834;0.7365145228;0.7385892116;0.7531120332;0.755186722;0.7572614108;0.7614107884;0.7634854772;0.765560166;0.7717842324;0.7738589212;0.77593361;0.7780082988;0.7800829876;0.7821576763;0.7842323651;0.7863070539;0.7883817427;0.7904564315;0.7925311203;0.7946058091;0.7966804979;0.7987551867;0.8008298755;0.8029045643;0.8049792531;0.8070539419;0.8091286307;0.8112033195;0.8132780083;0.8153526971;0.8174273859;0.8195020747;0.8215767635;0.8236514523;0.8257261411;0.8278008299;0.8298755187;0.8319502075;0.8340248963;0.8360995851;0.8381742739;0.8402489627;0.846473029;0.8485477178;0.856846473;0.8589211618;0.8630705394;0.8651452282;0.867219917;0.8692946058;0.8713692946;0.8734439834;0.8755186722;0.877593361;0.8796680498;0.8817427386;0.8838174274;0.8858921162;0.887966805;0.8900414938;0.8921161826;0.9107883817;0.9128630705;0.9149377593;0.9170124481;0.9190871369;0.9211618257;0.9232365145;0.9253112033;0.9273858921;0.9294605809;0.9315352697;0.9336099585;0.9377593361;0.9398340249;0.9419087137;0.9439834025;0.9460580913;0.9481327801;0.9502074689;0.9522821577;0.9543568465;0.9647302905;0.9668049793;0.968879668;0.9854771784;0.9875518672;0.989626556;0.9917012448;0.9937759336;0.9958506224;0.9979253112;1.0" repeatCount="indefinite" values="-1400;-1400;-1400;-1500;-1600;-1700;-1800;-1900;-2000;-2100;-2200;-2300;-2400;-2400;-2500;-2600;-2600;-2700;-2800;-2900;-3000;-3000;-2900;-2900;-2800;-2700;-2600;-2500;-2400;-2400;-2300;-2200;-2100;-2000;-1900;-2000;-2100;-2200;-2300;-2400;-2400;-2500;-2600;-2700;-2800;-2900;-3000;-3100;-3200;-3300;-3400;-3500;-3500;-3400;-3300;-3200;-3100;-3000;-2900;-2800;-2700;-2600;-2600;-2500;-2400;-2300;-2200;-2100;-2000;-1900;-1800;-1700;-1700;-1800;-1900;-2000;-2100;-2200;-2300;-2400;-2500;-2600;-2700;-2800;-2900;-3000;-3100;-3200;-3300;-3400;-3500;-3500;-3400;-3300;-3200;-3100;-3000;-2900;-2800;-2700;-2600;-2500;-2400;-2300;-2200;-2100;-2000;-1900;-1800;-1700;-1700;-1600;-1500;-1500;-1400;-1300;-1400;-1500;-1500;-1600;-1700;-1700;-1800;-1900;-2000;-2100;-2200;-2300;-2400;-2400;-2300;-2300;-2200;-2100;-2000;-1900;-1800;-1700;-1600;-1500;-1400;-1300;-1200;-1300;-1400;-1500;-1600;-1700;-1800;-1900;-2000;-2100;-2200;-2300;-2400;-2400;-2500;-2600;-2700;-2800;-2900;-3000;-3100;-3200;-3300;-3400;-3500;-3600;-3600;-3500;-3500;-3400;-3400;-3300;-3300;-3200;-3100;-3000;-2900;-2800;-2700;-2600;-2600;-2500;-2400;-2400;-2300;-2200;-2300;-2400;-2400;-2500;-2600;-2600;-2700;-2800;-2900;-3000;-3100;-3200;-3200;-3100;-3100;-3000;-2900;-2800;-2700;-2700;-2600;-2500;-2400;-2400;-2300;-2200;-2100;-2000;-1900;-1800;-1700;-1600;-1700;-1800;-1900;-2000;-2100;-2200;-2300;-2400;-2400;-2500;-2600;-2700;-2700;-2800;-2900;-2900;-3000;-3100;-3100;-3200;-3200;-3300;-3300;-3200;-3100;-3000;-2900;-2800;-2700;-2600;-2500;-2400;-2300;-2200;-2100;-2000;-2000;-1900;-1800;-1800;-1700;-1700;-1600;-1600;-1700;-1700;-1800;-1900;-2000;-2100;-2100;-2200;-2200;-2300;-2300;-2400;-2400;-2500;-2600;-2600;-2700;-2800;-2900;-3000;-3100;-3200;-3300;-3300;-3400;-3400;-3500;-3500;-3400;-3300;-3200;-3100;-3000;-2900;-2800;-2700;-2600;-2500;-2400;-2400;-2300;-2300;-2200;-2100;-2100;-2000;-2000;-1900;-1900;-1800;-1700;-1700;-1600;-1500;-1400;-1300;-1200;-1300;-1300"/>
<animate attributeName="cx" dur="134.68s" keyTimes="0.0;0.0020746888;0.0041493776;0.0248962656;0.0269709544;0.031120332;0.0331950207;0.0414937759;0.0435684647;0.0456431535;0.0477178423;0.0497925311;0.0518672199;0.0539419087;0.0560165975;0.0580912863;0.0601659751;0.0622406639;0.0643153527;0.0663900415;0.0684647303;0.0705394191;0.0726141079;0.0746887967;0.0767634855;0.0829875519;0.0850622407;0.0871369295;0.0892116183;0.0912863071;0.101659751;0.1037344398;0.1244813278;0.1265560166;0.1493775934;0.1514522822;0.153526971;0.1556016598;0.1576763485;0.1597510373;0.1618257261;0.1639004149;0.1659751037;0.1680497925;0.1701244813;0.1721991701;0.1742738589;0.1763485477;0.1784232365;0.1970954357;0.1991701245;0.2178423237;0.2199170124;0.2219917012;0.22406639;0.2261410788;0.2282157676;0.2302904564;0.2323651452;0.234439834;0.2365145228;0.2385892116;0.2406639004;0.2427385892;0.244813278;0.2468879668;0.2489626556;0.2510373444;0.2531120332;0.255186722;0.2572614108;0.2946058091;0.2966804979;0.2987551867;0.3008298755;0.3029045643;0.3049792531;0.3070539419;0.3091286307;0.3112033195;0.3132780083;0.3153526971;0.3174273859;0.3195020747;0.3215767635;0.3236514523;0.3257261411;0.3278008299;0.3298755187;0.3319502075;0.3340248963;0.3360995851;0.3381742739;0.3402489627;0.3423236515;0.3443983402;0.346473029;0.3485477178;0.3858921162;0.387966805;0.3921161826;0.3941908714;0.4024896266;0.4045643154;0.4087136929;0.4107883817;0.4253112033;0.4273858921;0.4294605809;0.4315352697;0.4336099585;0.4356846473;0.4377593361;0.4398340249;0.4419087137;0.489626556;0.4917012448;0.5165975104;0.5186721992;0.520746888;0.5228215768;0.5248962656;0.5269709544;0.5290456432;0.531120332;0.5331950207;0.5352697095;0.5373443983;0.5394190871;0.5414937759;0.5435684647;0.5456431535;0.5477178423;0.5497925311;0.5518672199;0.5539419087;0.5560165975;0.5580912863;0.5601659751;0.5746887967;0.5767634855;0.5809128631;0.5829875519;0.5912863071;0.5933609959;0.5975103734;0.5995850622;0.612033195;0.6141078838;0.6161825726;0.6182572614;0.6203319502;0.622406639;0.6244813278;0.6265560166;0.6286307054;0.6307053942;0.632780083;0.6348547718;0.6369294606;0.6390041494;0.6410788382;0.643153527;0.6452282158;0.6473029046;0.6493775934;0.6514522822;0.653526971;0.6556016598;0.6576763485;0.6597510373;0.6680497925;0.6701244813;0.6721991701;0.6742738589;0.6763485477;0.6784232365;0.6804979253;0.6825726141;0.6846473029;0.6867219917;0.6887966805;0.6950207469;0.6970954357;0.7302904564;0.7323651452;0.7385892116;0.7406639004;0.7427385892;0.744813278;0.7468879668;0.7489626556;0.7510373444;0.7531120332;0.7572614108;0.7593360996;0.7614107884;0.765560166;0.7676348548;0.7697095436;0.7717842324;0.7738589212;0.77593361;0.7780082988;0.7800829876;0.8070539419;0.8091286307;0.8132780083;0.8153526971;0.8174273859;0.8195020747;0.8215767635;0.8236514523;0.8257261411;0.8278008299;0.8360995851;0.8381742739;0.8402489627;0.8423236515;0.8443983402;0.846473029;0.8485477178;0.8506224066;0.8526970954;0.8547717842;0.856846473;0.8589211618;0.8609958506;0.8630705394;0.867219917;0.8692946058;0.8838174274;0.8858921162;0.887966805;0.8900414938;0.8921161826;0.8941908714;0.8962655602;0.898340249;0.9004149378;0.9024896266;0.9045643154;0.9066390041;0.9087136929;0.9107883817;0.9336099585;0.9356846473;0.9377593361;0.9398340249;0.9419087137;0.9460580913;0.9481327801;0.9502074689;0.9522821577;0.9543568465;0.9564315353;0.9585062241;0.9605809129;0.9626556017;0.9647302905;0.968879668;0.9709543568;0.9730290456;0.9751037344;0.9771784232;0.979253112;0.9813278008;0.9834024896;0.9854771784;1.0" repeatCount="indefinite" values="2500;2500;2600;2600;2700;2700;2800;2800;2900;3000;3100;3200;3300;3400;3500;3400;3300;3200;3100;3000;2900;2800;2700;2700;2800;2800;2700;2600;2500;2400;2400;2300;2300;2400;2400;2500;2600;2700;2800;2900;3000;3100;3200;3300;3200;3100;3000;2900;2800;2800;2700;2700;2600;2500;2400;2300;2200;2100;2000;1900;1800;1700;1600;1500;1400;1300;1200;1100;1000;900;800;800;900;1000;1100;1200;1300;1400;1500;1600;1700;1800;1900;2000;2100;2200;2300;2200;2100;2000;1900;1800;1700;1600;1500;1400;1300;1200;1200;1100;1100;1000;1000;1100;1100;1200;1200;1300;1200;1100;1000;1000;900;800;700;700;800;800;900;1000;1100;1200;1300;1400;1500;1600;1700;1800;1900;2000;2100;2200;2300;2300;2400;2400;2500;2500;2600;2600;2500;2500;2600;2600;2700;2700;2800;2800;2900;3000;3100;3200;3300;3400;3300;3200;3100;3000;2900;2800;2700;2600;2500;2400;2400;2300;2200;2100;2000;1900;1800;1800;1700;1600;1500;1400;1300;1200;1100;1000;900;800;800;700;700;800;800;900;1000;1100;1200;1300;1400;1500;1500;1600;1700;1700;1800;1900;2000;2000;2100;2100;2200;2200;2300;2300;2400;2400;2500;2500;2400;2400;2300;2300;2200;2200;2100;2000;1900;1900;1800;1700;1600;1500;1500;1400;1300;1300;1200;1200;1100;1100;1200;1200;1300;1400;1500;1600;1700;1800;1900;2000;2100;2100;2200;2300;2300;2400;2400;2500;2500;2600;2600;2500;2400;2300;2200;2100;2100;2000;1900;1800;1700;1600;1500;1400;1300;1300"/>
<animate attributeName="visibility" dur="134.68s" keyTimes="0.0;0.0020746888;1.0" repeatCount="indefinite" values="visible;visible;visible"/> </circle>
<circle cx="3000" cy="-1900" fill="#2e6f9e" r="35"> <animate attributeName="cy" dur="134.68s" keyTimes="0.0;0.0020746888;0.0041493776;0.0062240664;0.0082987552;0.010373444;0.0124481328;0.0145228216;0.0165975104;0.0186721992;0.0394190871;0.0414937759;0.0435684647;0.0456431535;0.0477178423;0.0497925311;0.0518672199;0.0580912863;0.0601659751;0.0622406639;0.0954356846;0.0975103734;0.0995850622;0.101659751;0.1037344398;0.1058091286;0.1078838174;0.1348547718;0.1369294606;0.1390041494;0.1410788382;0.1556016598;0.1576763485;0.1597510373;0.1618257261;0.1639004149;0.1659751037;0.1680497925;0.1701244813;0.1721991701;0.1742738589;0.1763485477;0.1784232365;0.1804979253;0.1825726141;0.1846473029;0.1867219917;0.1887966805;0.1908713693;0.1929460581;0.1950207469;0.1970954357;0.1991701245;0.2012448133;0.2033195021;0.2116182573;0.2136929461;0.2157676349;0.2178423237;0.2199170124;0.2219917012;0.22406639;0.2261410788;0.2282157676;0.2323651452;0.234439834;0.2365145228;0.2385892116;0.2406639004;0.244813278;0.2468879668;0.2489626556;0.2510373444;0.2531120332;0.255186722;0.2572614108;0.2593360996;0.2614107884;0.2634854772;0.265560166;0.2697095436;0.2717842324;0.2738589212;0.27593361;0.2780082988;0.2800829876;0.2821576763;0.2842323651;0.2863070539;0.2883817427;0.2904564315;0.2925311203;0.2946058091;0.2966804979;0.2987551867;0.3008298755;0.3070539419;0.3091286307;0.3112033195;0.3132780083;0.3153526971;0.3174273859;0.3195020747;0.3257261411;0.3278008299;0.3298755187;0.3319502075;0.3340248963;0.3360995851;0.3381742739;0.3485477178;0.3506224066;0.3526970954;0.3547717842;0.356846473;0.3589211618;0.3609958506;0.3630705394;0.3651452282;0.367219917;0.3692946058;0.3713692946;0.3796680498;0.3817427386;0.4170124481;0.4190871369;0.4211618257;0.4232365145;0.4253112033;0.4273858921;0.4315352697;0.4336099585;0.4522821577;0.4543568465;0.4564315353;0.4585062241;0.4605809129;0.4668049793;0.468879668;0.4709543568;0.4730290456;0.4751037344;0.4813278008;0.4834024896;0.5;0.5020746888;0.5082987552;0.510373444;0.5124481328;0.5145228216;0.5165975104;0.5248962656;0.5269709544;0.5290456432;0.531120332;0.5394190871;0.5414937759;0.5497925311;0.5518672199;0.5539419087;0.5601659751;0.5622406639;0.5643153527;0.5663900415;0.5684647303;0.5705394191;0.5726141079;0.5746887967;0.5767634855;0.5788381743;0.5809128631;0.5829875519;0.6058091286;0.6078838174;0.7468879668;0.7489626556;0.7510373444;0.7531120332;0.755186722;0.7614107884;0.7634854772;0.765560166;0.7676348548;0.7697095436;0.7904564315;0.7925311203;0.7966804979;0.7987551867;0.8008298755;0.8029045643;0.8049792531;0.8070539419;0.8091286307;0.8132780083;0.8153526971;0.8174273859;0.8195020747;0.8215767635;0.8236514523;0.8257261411;0.8278008299;0.8298755187;0.8319502075;0.8340248963;0.8360995851;0.8381742739;0.8402489627;0.8423236515;0.8443983402;0.846473029;0.8485477178;0.8506224066;0.8526970954;0.8547717842;0.856846473;0.8589211618;0.8609958506;0.8630705394;0.8651452282;0.867219917;0.8692946058;0.8713692946;0.8734439834;0.9190871369;0.9211618257;0.9232365145;0.9253112033;0.9273858921;0.9294605809;0.9315352697;0.9336099585;0.9356846473;0.9377593361;0.9398340249;0.9419087137;0.9439834025;0.9460580913;0.9481327801;0.9502074689;0.9522821577;0.9543568465;0.9564315353;0.9585062241;0.9605809129;0.9626556017;0.9647302905;0.9668049793;0.968879668;0.9709543568;0.9730290456;0.9751037344;0.9771784232;0.979253112;0.9813278008;0.9834024896;0.9854771784;0.9875518672;0.989626556;0.9917012448;0.9937759336;0.9958506224;1.0" repeatCount="indefinite" values="-1900;-1900;-2000;-2100;-2200;-2300;-2400;-2400;-2500;-2600;-2600;-2500;-2600;-2600;-2700;-2700;-2800;-2800;-2900;-3000;-3000;-3100;-3100;-3200;-3300;-3400;-3500;-3500;-3600;-3600;-3500;-3500;-3400;-3300;-3200;-3100;-3000;-2900;-2800;-2700;-2600;-2600;-2500;-2400;-2300;-2200;-2100;-2000;-1900;-1800;-1700;-1600;-1500;-1400;-1300;-1300;-1400;-1300;-1200;-1100;-1100;-1000;-900;-800;-800;-700;-700;-800;-700;-700;-800;-800;-900;-1000;-1100;-1000;-1100;-1200;-1300;-1400;-1400;-1500;-1600;-1600;-1700;-1700;-1800;-1900;-2000;-2100;-2200;-2300;-2400;-2500;-2600;-2700;-2700;-2800;-2800;-2900;-2800;-2800;-2700;-2700;-2800;-2900;-3000;-3000;-3100;-3200;-3200;-3100;-3100;-3000;-2900;-2800;-2700;-2600;-2600;-2500;-2600;-2700;-2700;-2800;-2800;-2900;-3000;-3100;-3200;-3300;-3300;-3400;-3400;-3300;-3300;-3200;-3300;-3300;-3200;-3300;-3200;-3100;-3100;-3000;-3000;-2900;-2900;-2800;-2800;-2900;-3000;-3000;-2900;-2800;-2700;-2700;-2600;-2600;-2700;-2600;-2600;-2500;-2400;-2500;-2600;-2700;-2800;-2900;-3000;-3000;-3100;-3200;-3200;-3300;-3300;-3400;-3500;-3500;-3400;-3400;-3300;-3300;-3200;-3300;-3300;-3200;-3200;-3300;-3400;-3400;-3300;-3300;-3200;-3200;-3300;-3200;-3300;-3200;-3300;-3200;-3300;-3200;-3300;-3200;-3300;-3200;-3300;-3200;-3300;-3200;-3300;-3200;-3300;-3200;-3100;-3100;-3200;-3300;-3400;-3500;-3600;-3600;-3500;-3500;-3600;-3700;-3600;-3500;-3400;-3500;-3400;-3300;-3200;-3200;-3100;-3000;-2900;-2800;-2700;-2600;-2600;-2500;-2400;-2400;-2300;-2300;-2200;-2100;-2100;-2000;-1900;-1800;-1700;-1600;-1500;-1400;-1400;-1300;-1200;-1300;-1400;-1400"/>
<animate attributeName="cx" dur="134.68s" keyTimes="0.0;0.0020746888;0.0124481328;0.0145228216;0.0186721992;0.020746888;0.0228215768;0.0248962656;0.0269709544;0.0290456432;0.031120332;0.0331950207;0.0352697095;0.0373443983;0.0394190871;0.0435684647;0.0456431535;0.0477178423;0.0497925311;0.0518672199;0.0539419087;0.0560165975;0.0580912863;0.0622406639;0.0643153527;0.0663900415;0.0684647303;0.0705394191;0.0746887967;0.0767634855;0.0809128631;0.0829875519;0.0850622407;0.0871369295;0.0892116183;0.0912863071;0.0933609959;0.0954356846;0.1078838174;0.1099585062;0.112033195;0.1141078838;0.1161825726;0.1182572614;0.1203319502;0.122406639;0.1244813278;0.1265560166;0.1286307054;0.1307053942;0.132780083;0.1348547718;0.1369294606;0.1390041494;0.1410788382;0.143153527;0.1452282158;0.1473029046;0.1493775934;0.1514522822;0.153526971;0.1556016598;0.2033195021;0.2053941909;0.2074688797;0.2095435685;0.2116182573;0.2199170124;0.2219917012;0.2282157676;0.2302904564;0.2323651452;0.2406639004;0.2427385892;0.244813278;0.2468879668;0.2489626556;0.2676348548;0.2697095436;0.2738589212;0.27593361;0.3008298755;0.3029045643;0.3049792531;0.3070539419;0.3091286307;0.3112033195;0.3195020747;0.3215767635;0.3236514523;0.3257261411;0.3381742739;0.3402489627;0.3423236515;0.3443983402;0.346473029;0.3485477178;0.3506224066;0.3526970954;0.3630705394;0.3651452282;0.3713692946;0.3734439834;0.3755186722;0.377593361;0.3796680498;0.3817427386;0.3838174274;0.3858921162;0.387966805;0.3900414938;0.3921161826;0.3941908714;0.3962655602;0.398340249;0.4004149378;0.4024896266;0.4045643154;0.4066390041;0.4087136929;0.4107883817;0.4128630705;0.4149377593;0.4170124481;0.4273858921;0.4294605809;0.4315352697;0.4356846473;0.4377593361;0.4398340249;0.4419087137;0.4439834025;0.4460580913;0.4481327801;0.4502074689;0.4522821577;0.4543568465;0.4564315353;0.4605809129;0.4626556017;0.4647302905;0.4668049793;0.4751037344;0.4771784232;0.479253112;0.4813278008;0.4834024896;0.4854771784;0.4875518672;0.489626556;0.4917012448;0.4937759336;0.4958506224;0.4979253112;0.5;0.5020746888;0.5041493776;0.5062240664;0.5082987552;0.5165975104;0.5186721992;0.520746888;0.5228215768;0.531120332;0.5331950207;0.5352697095;0.5373443983;0.5394190871;0.5414937759;0.5435684647;0.5456431535;0.5477178423;0.5497925311;0.5539419087;0.5560165975;0.5580912863;0.5601659751;0.5767634855;0.5788381743;0.6037344398;0.6058091286;0.744813278;0.7468879668;0.7510373444;0.7531120332;0.7634854772;0.765560166;0.7925311203;0.7946058091;0.7966804979;0.8008298755;0.8029045643;0.8049792531;0.8070539419;0.8091286307;0.8112033195;0.8132780083;0.856846473;0.8589211618;0.8692946058;0.8713692946;0.8734439834;0.8755186722;0.877593361;0.8796680498;0.8817427386;0.8838174274;0.8858921162;0.887966805;0.8900414938;0.8921161826;0.8941908714;0.8962655602;0.898340249;0.9004149378;0.9024896266;0.9045643154;0.9066390041;0.9087136929;0.9107883817;0.9128630705;0.9149377593;0.9170124481;0.9190871369;0.9377593361;0.9398340249;0.9626556017;0.9647302905;0.968879668;0.9709543568;0.9958506224;0.9979253112;1.0" repeatCount="indefinite" values="3000;3000;3000;2900;2900;2800;2700;2600;2500;2400;2300;2200;2100;2000;1900;1900;1800;1800;1900;1900;2000;2100;2200;2200;2300;2400;2500;2600;2600;2700;2700;2800;2900;3000;3100;3200;3300;3400;3400;3300;3200;3100;3000;2900;2800;2700;2600;2500;2400;2300;2200;2100;2100;2200;2200;2300;2400;2500;2600;2700;2800;2900;2900;2800;2700;2600;2500;2500;2600;2600;2500;2400;2400;2300;2200;2200;2100;2100;2000;2000;1900;1900;1800;1700;1600;1600;1500;1500;1400;1300;1200;1200;1100;1000;900;1000;1100;1100;1200;1200;1300;1300;1400;1500;1600;1700;1700;1800;1900;2000;2100;2200;2300;2400;2500;2600;2700;2800;2900;3000;3100;3200;3300;3400;3400;3300;3200;3200;3100;3000;2900;2800;2700;2600;2500;2400;2400;2500;2500;2600;2700;2800;2800;2900;3000;3100;3100;3000;2900;2800;2700;2600;2500;2400;2300;2300;2200;2100;2000;2000;1900;1800;1700;1700;1600;1500;1400;1300;1300;1200;1100;1000;900;900;1000;900;800;800;900;900;1000;1000;1100;1100;1200;1200;1300;1300;1200;1100;1100;1200;1200;1300;1300;1400;1300;1300;1200;1200;1300;1300;1400;1500;1600;1700;1800;1900;2000;2100;2100;2200;2300;2400;2500;2600;2700;2700;2800;2900;3000;3100;3200;3300;3300;3400;3400;3500;3500;3600;3600;3700;3700"/>
<animate attributeName="visibility" dur="134.68s" keyTimes="0.0;0.0020746888;1.0" repeatCount="indefinite" values="visible;visible;visible"/> </circle>
<circle cx="3500" cy="-3000" fill="none" r="35" stroke="#c1433c" stroke-width="10"> <animate attributeName="cy" dur="134.68s" keyTimes="0.0;0.0020746888;0.0539419087;0.0560165975;0.112033195;0.1141078838;0.1659751037;0.1680497925;0.255186722;0.2572614108;0.3236514523;0.3257261411;0.3962655602;0.398340249;0.4253112033;0.4273858921;0.4626556017;0.4647302905;0.531120332;0.5331950207;0.5601659751;0.5622406639;0.5850622407;0.5871369295;0.622406639;0.6244813278;0.6659751037;0.6680497925;0.7116182573;0.7136929461;0.7780082988;0.7800829876;0.8195020747;0.8215767635;0.8858921162;0.887966805;0.9149377593;0.9170124481;0.9522821577;0.9543568465;0.9937759336;0.9958506224;1.0" repeatCount="indefinite" values="-3000;-3000;-3000;-1900;-1900;-3500;-3500;-1700;-1700;-3500;-3500;-1300;-1300;-2400;-2400;-1200;-1200;-3600;-3600;-3200;-3200;-2200;-2200;-3200;-3200;-2700;-2700;-1600;-1600;-3300;-3300;-1600;-1600;-3400;-3400;-3200;-3200;-1900;-1900;-1200;-1200;-3200;-3200"/>
<animate attributeName="cx" dur="134.68s" keyTimes="0.0;0.0020746888;0.0539419087;0.0560165975;0.112033195;0.1141078838;0.1659751037;0.1680497925;0.2157676349;0.2178423237;0.255186722;0.2572614108;0.3236514523;0.3257261411;0.3962655602;0.398340249;0.4253112033;0.4273858921;0.4626556017;0.4647302905;0.531120332;0.5331950207;0.5850622407;0.5871369295;0.622406639;0.6244813278;0.6659751037;0.6680497925;0.7116182573;0.7136929461;0.7780082988;0.7800829876;0.8195020747;0.8215767635;0.8858921162;0.887966805;0.9149377593;0.9170124481;0.9522821577;0.9543568465;0.9937759336;0.9958506224;1.0" repeatCount="indefinite" values="3500;3500;3500;2300;2300;3300;3300;2700;2700;800;800;2300;2300;1000;1000;1300;1300;700;700;1600;1600;2600;2600;3400;3400;1800;1800;700;700;2200;2200;2500;2500;1100;1100;2100;2100;2600;2600;1300;1300;1600;1600"/>
<animate attributeName="visibility" dur="134.68s" keyTimes="0.0;0.0020746888;1.0" repeatCount="indefinite" values="visible;visible;visible"/> </circle>
<circle cx="2600" cy="-2600" fill="none" r="35" stroke="#2e6f9e" stroke-width="10"> <animate attributeName="cy" dur="134.68s" keyTimes="0.0;0.0020746888;0.0228215768;0.0248962656;0.0394190871;0.0414937759;0.0954356846;0.0975103734;0.132780083;0.1348547718;0.2012448133;0.2033195021;0.2323651452;0.234439834;0.3423236515;0.3443983402;0.3692946058;0.3713692946;0.4149377593;0.4170124481;0.4502074689;0.4522821577;0.4730290456;0.4751037344;0.4813278008;0.4834024896;0.5622406639;0.5643153527;0.8713692946;0.8734439834;0.989626556;0.9917012448;1.0" repeatCount="indefinite" values="-2600;-2600;-2600;-2500;-2500;-3100;-3100;-3500;-3500;-1300;-1300;-700;-700;-3200;-3200;-2700;-2700;-2800;-2800;-3400;-3400;-3100;-3100;-3000;-3000;-2400;-2400;-3500;-3500;-1200;-1200;-2000;-2000"/>
<animate attributeName="cx" dur="134.68s" keyTimes="0.0;0.0020746888;0.0228215768;0.0248962656;0.0394190871;0.0414937759;0.0954356846;0.0975103734;0.132780083;0.1348547718;0.2012448133;0.2033195021;0.2323651452;0.234439834;0.3423236515;0.3443983402;0.3692946058;0.3713692946;0.4149377593;0.4170124481;0.4502074689;0.4522821577;0.4730290456;0.4751037344;0.4813278008;0.4834024896;0.5622406639;0.5643153527;0.8713692946;0.8734439834;0.989626556;0.9917012448;1.0" repeatCount="indefinite" values="2600;2600;2600;1900;1900;3400;3400;2100;2100;2900;2900;2400;2400;900;900;1300;1300;3400;3400;2400;2400;2800;2800;3100;3100;800;800;1300;1300;3600;3600;3000;3000"/>
<animate attributeName="visibility" dur="134.68s" keyTimes="0.0;0.0020746888;1.0" repeatCount="indefinite" values="visible;visible;visible"/> </circle>
</svg>