<?xml version="1.0" encoding="UTF-8"?>
        <svg xmlns="http://www.w3.org/2000/svg" xmlns:xlink="http://www.w3.org/1999/xlink"
             width="430" height="430" viewBox="0 -4300 4300 4300">

<defs>

</defs>

<rect fill="#84A1AE" height="70" rx="15" width="70" x="465" y="-535" />
<rect fill="#84A1AE" height="70" rx="15" width="70" x="465" y="-635" />
<rect fill="#84A1AE" height="70" rx="15" width="70" x="465" y="-735" />
<rect fill="#84A1AE" height="70" rx="15" width="70" x="465" y="-835" />
<rect fill="#84A1AE" height="70" rx="15" width="70" x="465" y="-935" />
<rect fill="#84A1AE" height="70" rx="15" width="70" x="465" y="-1035" />
<rect fill="#84A1AE" height="70" rx="15" width="70" x="465" y="-1135" />
<rect fill="#84A1AE" height="70" rx="15" width="70" x="465" y="-1235" />
<rect fill="#84A1AE" height="70" rx="15" width="70" x="465" y="-1335" />
<rect fill="#84A1AE" height="70" rx="15" width="70" x="465" y="-1435" />
<rect fill="#84A1AE" height="70" rx="15" width="70" x="465" y="-1535" />
<rect fill="#84A1AE" height="70" rx="15" width="70" x="465" y="-1635" />
<rect fill="#84A1AE" height="70" rx="15" width="70" x="465" y="-1735" />
<rect fill="#84A1AE" height="70" rx="15" width="70" x="465" y="-1835" />
<rect fill="#84A1AE" height="70" rx="15" width="70" x="465" y="-1935" />
<rect fill="#84A1AE" height="70" rx="15" width="70" x="465" y="-2035" />
<rect fill="#84A1AE" height="70" rx="15" width="70" x="465" y="-2135" />
<rect fill="#84A1AE" height="70" rx="15" width="70" x="465" y="-2235" />
<rect fill="#84A1AE" height="70" rx="15" width="70" x="465" y="-2335" />
<rect fill="#84A1AE" height="70" rx="15" width="70" x="465" y="-2435" />
<rect fill="#84A1AE" height="70" rx="15" width="70" x="465" y="-2535" />
<rect fill="#84A1AE" height="70" rx="15" width="70" x="465" y="-2635" />
<rect fill="#84A1AE" height="70" rx="15" width="70" x="465" y="-2735" />
<rect fill="#84A1AE" height="70" rx="15" width="70" x="465" y="-2835" />
<rect fill="#84A1AE" height="70" rx="15" width="70" x="465" y="-2935" />
<rect fill="#84A1AE" height="70" rx="15" width="70" x="465" y="-3035" />
<rect fill="#84A1AE" height="70" rx="15" width="70" x="465" y="-3135" />
<rect fill="#84A1AE" height="70" rx="15" width="70" x="465" y="-3235" />
<rect fill="#84A1AE" height="70" rx="15" width="70" x="465" y="-3335" />
<rect fill="#84A1AE" height="70" rx="15" width="70" x="465" y="-3435" />
<rect fill="#84A1AE" height="70" rx="15" width="70" x="465" y="-3535" />
<rect fill="#84A1AE" height="70" rx="15" width="70" x="465" y="-3635" />
<rect fill="#84A1AE" height="70" rx="15" width="70" x="465" y="-3735" />
<rect fill="#84A1AE" height="70" rx="15" width="70" x="465" y="-3835" />
<rect fill="#84A1AE" height="70" rx="15" width="70" x="565" y="-535" />
<rect fill="#84A1AE" height="70" rx="15" width="70" x="565" y="-1635" />
<rect fill="#84A1AE" height="70" rx="15" width="70" x="565" y="-1935" />
<rect fill="#84A1AE" height="70" rx="15" width="70" x="565" y="-2735" />
<rect fill="#84A1AE" height="70" rx="15" width="70" x="565" y="-3835" />
<rect fill="#84A1AE" height="70" rx="15" width="70" x="665" y="-535" />
<rect fill="#84A1AE" height="70" rx="15" width="70" x="665" y="-1035" />
<rect fill="#84A1AE" height="70" rx="15" width="70" x="665" y="-2535" />
<rect fill="#84A1AE" height="70" rx="15" width="70" x="665" y="-3035" />
<rect fill="#84A1AE" height="70" rx="15" width="70" x="665" y="-3235" />
<rect fill="#84A1AE" height="70" rx="15" width="70" x="665" y="-3835" />
<rect fill="#84A1AE" height="70" rx="15" width="70" x="765" y="-535" />
<rect fill="#84A1AE" height="70" rx="15" width="70" x="765" y="-635" />
<rect fill="#84A1AE" height="70" rx="15" width="70" x="765" y="-3835" />
<rect fill="#84A1AE" height="70" rx="15" width="70" x="865" y="-535" />
<rect fill="#84A1AE" height="70" rx="15" width="70" x="865" y="-2435" />
<rect fill="#84A1AE" height="70" rx="15" width="70" x="865" y="-2535" />
<rect fill="#84A1AE" height="70" rx="15" width="70" x="865" y="-3335" />
<rect fill="#84A1AE" height="70" rx="15" width="70" x="865" y="-3435" />
<rect fill="#84A1AE" height="70" rx="15" width="70" x="865" y="-3835" />
<rect fill="#84A1AE" height="70" rx="15" width="70" x="965" y="-535" />
<rect fill="#84A1AE" height="70" rx="15" width="70" x="965" y="-735" />
<rect fill="#84A1AE" height="70" rx="15" width="70" x="965" y="-1635" />
<rect fill="#84A1AE" height="70" rx="15" width="70" x="965" y="-1835" />
<rect fill="#84A1AE" height="70" rx="15" width="70" x="965" y="-2835" />
<rect fill="#84A1AE" height="70" rx="15" width="70" x="965" y="-3435" />
<rect fill="#84A1AE" height="70" rx="15" width="70" x="965" y="-3835" />
<rect fill="#84A1AE" height="70" rx="15" width="70" x="1065" y="-535" />
<rect fill="#84A1AE" height="70" rx="15" width="70" x="1065" y="-1135" />
<rect fill="#84A1AE" height="70" rx="15" width="70" x="1065" y="-1835" />
<rect fill="#84A1AE" height="70" rx="15" width="70" x="1065" y="-3735" />
<rect fill="#84A1AE" height="70" rx="15" width="70" x="1065" y="-3835" />
<rect fill="#84A1AE" height="70" rx="15" width="70" x="1165" y="-535" />
<rect fill="#84A1AE" height="70" rx="15" width="70" x="1165" y="-635" />
<rect fill="#84A1AE" height="70" rx="15" width="70" x="1165" y="-735" />
<rect fill="#84A1AE" height="70" rx="15" width="70" x="1165" y="-1535" />
<rect fill="#84A1AE" height="70" rx="15" width="70" x="1165" y="-3835" />
<rect fill="#84A1AE" height="70" rx="15" width="70" x="1265" y="-535" />
<rect fill="#84A1AE" height="70" rx="15" width="70" x="1265" y="-2835" />
<rect fill="#84A1AE" height="70" rx="15" width="70" x="1265" y="-3435" />
<rect fill="#84A1AE" height="70" rx="15" width="70" x="1265" y="-3835" />
<rect fill="#84A1AE" height="70" rx="15" width="70" x="1365" y="-535" />
<rect fill="#84A1AE" height="70" rx="15" width="70" x="1365" y="-835" />
<rect fill="#84A1AE" height="70" rx="15" width="70" x="1365" y="-935" />
<rect fill="#84A1AE" height="70" rx="15" width="70" x="1365" y="-1035" />
<rect fill="#84A1AE" height="70" rx="15" width="70" x="1365" y="-1935" />
<rect fill="#84A1AE" height="70" rx="15" width="70" x="1365" y="-2335" />
<rect fill="#84A1AE" height="70" rx="15" width="70" x="1365" y="-2635" />
<rect fill="#84A1AE" height="70" rx="15" width="70" x="1365" y="-2835" />
<rect fill="#84A1AE" height="70" rx="15" width="70" x="1365" y="-2935" />
<rect fill="#84A1AE" height="70" rx="15" width="70" x="1365" y="-3035" />
<rect fill="#84A1AE" height="70" rx="15" width="70" x="1365" y="-3335" />
<rect fill="#84A1AE" height="70" rx="15" width="70" x="1365" y="-3835" />
<rect fill="#84A1AE" height="70" rx="15" width="70" x="1465" y="-535" />
<rect fill="#84A1AE" height="70" rx="15" width="70" x="1465" y="-1235" />
<rect fill="#84A1AE" height="70" rx="15" width="70" x="1465" y="-1535" />
<rect fill="#84A1AE" height="70" rx="15" width="70" x="1465" y="-2035" />
<rect fill="#84A1AE" height="70" rx="15" width="70" x="1465" y="-3135" />
<rect fill="#84A1AE" height="70" rx="15" width="70" x="1465" y="-3235" />
<rect fill="#84A1AE" height="70" rx="15" width="70" x="1465" y="-3835" />
<rect fill="#84A1AE" height="70" rx="15" width="70" x="1565" y="-535" />
<rect fill="#84A1AE" height="70" rx="15" width="70" x="1565" y="-3035" />
<rect fill="#84A1AE" height="70" rx="15" width="70" x="1565" y="-3835" />
<rect fill="#84A1AE" height="70" rx="15" width="70" x="1665" y="-535" />
<rect fill="#84A1AE" height="70" rx="15" width="70" x="1665" y="-3735" />
<rect fill="#84A1AE" height="70" rx="15" width="70" x="1665" y="-3835" />
<rect fill="#84A1AE" height="70" rx="15" width="70" x="1765" y="-535" />
<rect fill="#84A1AE" height="70" rx="15" width="70" x="1765" y="-1235" />
<rect fill="#84A1AE" height="70" rx="15" width="70" x="1765" y="-3835" />
<rect fill="#84A1AE" height="70" rx="15" width="70" x="1865" y="-535" />
<rect fill="#84A1AE" height="70" rx="15" width="70" x="1865" y="-735" />
<rect fill="#84A1AE" height="70" rx="15" width="70" x="1865" y="-1335" />
<rect fill="#84A1AE" height="70" rx="15" width="70" x="1865" y="-3235" />
<rect fill="#84A1AE" height="70" rx="15" width="70" x="1865" y="-3435" />
<rect fill="#84A1AE" height="70" rx="15" width="70" x="1865" y="-3835" />
<rect fill="#84A1AE" height="70" rx="15" width="70" x="1965" y="-535" />
<rect fill="#84A1AE" height="70" rx="15" width="70" x="1965" y="-635" />
<rect fill="#84A1AE" height="70" rx="15" width="70" x="1965" y="-1835" />
<rect fill="#84A1AE" height="70" rx="15" width="70" x="1965" y="-1935" />
<rect fill="#84A1AE" height="70" rx="15" width="70" x="1965" y="-2135" />
<rect fill="#84A1AE" height="70" rx="15" width="70" x="1965" y="-2335" />
<rect fill="#84A1AE" height="70" rx="15" width="70" x="1965" y="-2435" />
<rect fill="#84A1AE" height="70" rx="15" width="70" x="1965" y="-3335" />
<rect fill="#84A1AE" height="70" rx="15" width="70" x="1965" y="-3835" />
<rect fill="#84A1AE" height="70" rx="15" width="70" x="2065" y="-535" />
<rect fill="#84A1AE" height="70" rx="15" width="70" x="2065" y="-1535" />
<rect fill="#84A1AE" height="70" rx="15" width="70" x="2065" y="-1635" />
<rect fill="#84A1AE" height="70" rx="15" width="70" x="2065" y="-2135" />
<rect fill="#84A1AE" height="70" rx="15" width="70" x="2065" y="-3835" />
<rect fill="#84A1AE" height="70" rx="15" width="70" x="2165" y="-535" />
<rect fill="#84A1AE" height="70" rx="15" width="70" x="2165" y="-935" />
<rect fill="#84A1AE" height="70" rx="15" width="70" x="2165" y="-1335" />
<rect fill="#84A1AE" height="70" rx="15" width="70" x="2165" y="-1835" />
<rect fill="#84A1AE" height="70" rx="15" width="70" x="2165" y="-3835" />
<rect fill="#84A1AE" height="70" rx="15" width="70" x="2265" y="-535" />
<rect fill="#84A1AE" height="70" rx="15" width="70" x="2265" y="-935" />
<rect fill="#84A1AE" height="70" rx="15" width="70" x="2265" y="-1135" />
<rect fill="#84A1AE" height="70" rx="15" width="70" x="2265" y="-2535" />
<rect fill="#84A1AE" height="70" rx="15" width="70" x="2265" y="-3235" />
<rect fill="#84A1AE" height="70" rx="15" width="70" x="2265" y="-3835" />
<rect fill="#84A1AE" height="70" rx="15" width="70" x="2365" y="-535" />
<rect fill="#84A1AE" height="70" rx="15" width="70" x="2365" y="-935" />
<rect fill="#84A1AE" height="70" rx="15" width="70" x="2365" y="-1035" />
<rect fill="#84A1AE" height="70" rx="15" width="70" x="2365" y="-3835" />
<rect fill="#84A1AE" height="70" rx="15" width="70" x="2465" y="-535" />
<rect fill="#84A1AE" height="70" rx="15" width="70" x="2465" y="-935" />
<rect fill="#84A1AE" height="70" rx="15" width="70" x="2465" y="-1535" />
<rect fill="#84A1AE" height="70" rx="15" width="70" x="2465" y="-2335" />
<rect fill="#84A1AE" height="70" rx="15" width="70" x="2465" y="-2735" />
<rect fill="#84A1AE" height="70" rx="15" width="70" x="2465" y="-3835" />
<rect fill="#84A1AE" height="70" rx="15" width="70" x="2565" y="-535" />
<rect fill="#84A1AE" height="70" rx="15" width="70" x="2565" y="-735" />
<rect fill="#84A1AE" height="70" rx="15" width="70" x="2565" y="-2535" />
<rect fill="#84A1AE" height="70" rx="15" width="70" x="2565" y="-3835" />
<rect fill="#84A1AE" height="70" rx="15" width="70" x="2665" y="-535" />
<rect fill="#84A1AE" height="70" rx="15" width="70" x="2665" y="-635" />
<rect fill="#84A1AE" height="70" rx="15" width="70" x="2665" y="-1135" />
<rect fill="#84A1AE" height="70" rx="15" width="70" x="2665" y="-1435" />
<rect fill="#84A1AE" height="70" rx="15" width="70" x="2665" y="-2735" />
<rect fill="#84A1AE" height="70" rx="15" width="70" x="2665" y="-3835" />
<rect fill="#84A1AE" height="70" rx="15" width="70" x="2765" y="-535" />
<rect fill="#84A1AE" height="70" rx="15" width="70" x="2765" y="-1635" />
<rect fill="#84A1AE" height="70" rx="15" width="70" x="2765" y="-1835" />
<rect fill="#84A1AE" height="70" rx="15" width="70" x="2765" y="-1935" />
<rect fill="#84A1AE" height="70" rx="15" width="70" x="2765" y="-2235" />
<rect fill="#84A1AE" height="70" rx="15" width="70" x="2765" y="-3735" />
<rect fill="#84A1AE" height="70" rx="15" width="70" x="2765" y="-3835" />
<rect fill="#84A1AE" height="70" rx="15" width="70" x="2865" y="-535" />
<rect fill="#84A1AE" height="70" rx="15" width="70" x="2865" y="-3835" />
<rect fill="#84A1AE" height="70" rx="15" width="70" x="2965" y="-535" />
<rect fill="#84A1AE" height="70" rx="15" width="70" x="2965" y="-2635" />
<rect fill="#84A1AE" height="70" rx="15" width="70" x="2965" y="-3835" />
<rect fill="#84A1AE" height="70" rx="15" width="70" x="3065" y="-535" />
<rect fill="#84A1AE" height="70" rx="15" width="70" x="3065" y="-735" />
<rect fill="#84A1AE" height="70" rx="15" width="70" x="3065" y="-2535" />
<rect fill="#84A1AE" height="70" rx="15" width="70" x="3065" y="-3835" />
<rect fill="#84A1AE" height="70" rx="15" width="70" x="3165" y="-535" />
<rect fill="#84A1AE" height="70" rx="15" width="70" x="3165" y="-835" />
<rect fill="#84A1AE" height="70" rx="15" width="70" x="3165" y="-1935" />
<rect fill="#84A1AE" height="70" rx="15" width="70" x="3165" y="-2735" />
<rect fill="#84A1AE" height="70" rx="15" width="70" x="3165" y="-3135" />
<rect fill="#84A1AE" height="70" rx="15" width="70" x="3165" y="-3835" />
<rect fill="#84A1AE" height="70" rx="15" width="70" x="3265" y="-535" />
<rect fill="#84A1AE" height="70" rx="15" width="70" x="3265" y="-1035" />
<rect fill="#84A1AE" height="70" rx="15" width="70" x="3265" y="-1735" />
<rect fill="#84A1AE" height="70" rx="15" width="70" x="3265" y="-3835" />
<rect fill="#84A1AE" height="70" rx="15" width="70" x="3365" y="-535" />
<rect fill="#84A1AE" height="70" rx="15" width="70" x="3365" y="-1435" />
<rect fill="#84A1AE" height="70" rx="15" width="70" x="3365" y="-1935" />
<rect fill="#84A1AE" height="70" rx="15" width="70" x="3365" y="-2135" />
<rect fill="#84A1AE" height="70" rx="15" width="70" x="3365" y="-3835" />
<rect fill="#84A1AE" height="70" rx="15" width="70" x="3465" y="-535" />
<rect fill="#84A1AE" height="70" rx="15" width="70" x="3465" y="-2635" />
<rect fill="#84A1AE" height="70" rx="15" width="70" x="3465" y="-3835" />
<rect fill="#84A1AE" height="70" rx="15" width="70" x="3565" y="-535" />
<rect fill="#84A1AE" height="70" rx="15" width="70" x="3565" y="-635" />
<rect fill="#84A1AE" height="70" rx="15" width="70" x="3565" y="-2435" />
<rect fill="#84A1AE" height="70" rx="15" width="70" x="3565" y="-3235" />
<rect fill="#84A1AE" height="70" rx="15" width="70" x="3565" y="-3835" />
<rect fill="#84A1AE" height="70" rx="15" width="70" x="3665" y="-535" />
<rect fill="#84A1AE" height="70" rx="15" width="70" x="3665" y="-2135" />
<rect fill="#84A1AE" height="70" rx="15" width="70" x="3665" y="-2835" />
<rect fill="#84A1AE" height="70" rx="15" width="70" x="3665" y="-3135" />
<rect fill="#84A1AE" height="70" rx="15" width="70" x="3665" y="-3735" />
<rect fill="#84A1AE" height="70" rx="15" width="70" x="3665" y="-3835" />
<rect fill="#84A1AE" height="70" rx="15" width="70" x="3765" y="-535" />
<rect fill="#84A1AE" height="70" rx="15" width="70" x="3765" y="-635" />
<rect fill="#84A1AE" height="70" rx="15" width="70" x="3765" y="-735" />
<rect fill="#84A1AE" height="70" rx="15" width="70" x="3765" y="-835" />
<rect fill="#84A1AE" height="70" rx="15" width="70" x="3765" y="-935" />
<rect fill="#84A1AE" height="70" rx="15" width="70" x="3765" y="-1035" />
<rect fill="#84A1AE" height="70" rx="15" width="70" x="3765" y="-1135" />
<rect fill="#84A1AE" height="70" rx="15" width="70" x="3765" y="-1235" />
<rect fill="#84A1AE" height="70" rx="15" width="70" x="3765" y="-1335" />
<rect fill="#84A1AE" height="70" rx="15" width="70" x="3765" y="-1435" />
<rect fill="#84A1AE" height="70" rx="15" width="70" x="3765" y="-1535" />
<rect fill="#84A1AE" height="70" rx="15" width="70" x="3765" y="-1635" />
<rect fill="#84A1AE" height="70" rx="15" width="70" x="3765" y="-1735" />
<rect fill="#84A1AE" height="70" rx="15" width="70" x="3765" y="-1835" />
<rect fill="#84A1AE" height="70" rx="15" width="70" x="3765" y="-1935" />
<rect fill="#84A1AE" height="70" rx="15" width="70" x="3765" y="-2035" />
<rect fill="#84A1AE" height="70" rx="15" width="70" x="3765" y="-2135" />
<rect fill="#84A1AE" height="70" rx="15" width="70" x="3765" y="-2235" />
<rect fill="#84A1AE" height="70" rx="15" width="70" x="3765" y="-2335" />
<rect fill="#84A1AE" height="70" rx="15" width="70" x="3765" y="-2435" />
<rect fill="#84A1AE" height="70" rx="15" width="70" x="3765" y="-2535" />
<rect fill="#84A1AE" height="70" rx="15" width="70" x="3765" y="-2635" />
<rect fill="#84A1AE" height="70" rx="15" width="70" x="3765" y="-2735" />
<rect fill="#84A1AE" height="70" rx="15" width="70" x="3765" y="-2835" />
<rect fill="#84A1AE" height="70" rx="15" width="70" x="3765" y="-2935" />
<rect fill="#84A1AE" height="70" rx="15" width="70" x="3765" y="-3035" />
<rect fill="#84A1AE" height="70" rx="15" width="70" x="3765" y="-3135" />
<rect fill="#84A1AE" height="70" rx="15" width="70" x="3765" y="-3235" />
<rect fill="#84A1AE" height="70" rx="15" width="70" x="3765" y="-3335" />
<rect fill="#84A1AE" height="70" rx="15" width="70" x="3765" y="-3435" />
<rect fill="#84A1AE" height="70" rx="15" width="70" x="3765" y="-3535" />
<rect fill="#84A1AE" height="70" rx="15" width="70" x="3765" y="-3635" />
<rect fill="#84A1AE" height="70" rx="15" width="70" x="3765" y="-3735" />
<rect fill="#84A1AE" height="70" rx="15" width="70" x="3765" y="-3835" />
<circle cx="2500" cy="-1400" fill="#c1433c" r="35"> <animate attributeName="cy" dur="70.28s" keyTimes="0.0;0.003968254;0.0079365079;0.0119047619;0.0158730159;0.0198412698;0.0238095238;0.0277777778;0.0317460317;0.0357142857;0.0396825397;0.0436507937;0.0476190476;0.0515873016;0.0555555556;0.0595238095;0.0634920635;0.0674603175;0.0714285714;0.0753968254;0.0793650794;0.1150793651;0.119047619;0.123015873;0.126984127;0.130952381;0.1349206349;0.1388888889;0.1428571429;0.1468253968;0.1507936508;0.1547619048;0.1587301587;0.1626984127;0.1666666667;0.1706349206;0.1746031746;0.1785714286;0.1825396825;0.1865079365;0.1904761905;0.2222222222;0.2261904762;0.2698412698;0.2738095238;0.2817460317;0.2857142857;0.2896825397;0.2936507937;0.2976190476;0.3015873016;0.3055555556;0.3095238095;0.3134920635;0.3174603175;0.3214285714;0.3253968254;0.3293650794;0.3333333333;0.3373015873;0.3412698413;0.3452380952;0.3492063492;0.3531746032;0.3571428571;0.3611111111;0.369047619;0.373015873;0.376984127;0.380952381;0.3849206349;0.3888888889;0.3928571429;0.4285714286;0.4325396825;0.4682539683;0.4722222222;0.4761904762;0.4801587302;0.4920634921;0.496031746;0.503968254;0.5079365079;0.5119047619;0.5158730159;0.5198412698;0.5277777778;0.5317460317;0.5357142857;0.5396825397;0.5436507937;0.5476190476;0.5515873016;0.5555555556;0.5595238095;0.5634920635;0.5753968254;0.5793650794;0.5833333333;0.5873015873;0.5912698413;0.5952380952;0.5992063492;0.6031746032;0.6111111111;0.6150793651;0.619047619;0.623015873;0.626984127;0.630952381;0.6349206349;0.6388888889;0.6428571429;0.6468253968;0.6507936508;0.6547619048;0.6587301587;0.6626984127;0.6666666667;0.6706349206;0.6746031746;0.6785714286;0.6825396825;0.6865079365;0.6904761905;0.6944444444;0.6984126984;0.7023809524;0.7063492063;0.7103174603;0.7142857143;0.7182539683;0.7222222222;0.7261904762;0.7380952381;0.7420634921;0.746031746;0.75;0.7976190476;0.8015873016;0.8055555556;0.8095238095;0.8134920635;0.8174603175;0.8214285714;0.8253968254;0.8293650794;0.8333333333;0.8373015873;0.8412698413;0.8452380952;0.8492063492;0.8531746032;0.8571428571;0.8611111111;0.8650793651;0.869047619;0.873015873;0.876984127;0.880952381;0.8849206349;0.8888888889;0.9047619048;0.9087301587;0.9206349206;0.9246031746;0.9484126984;0.9523809524;0.9563492063;0.9603174603;0.9642857143;0.9682539683;0.9722222222;0.9761904762;0.9801587302;0.9841269841;0.9880952381;0.9920634921;1.0" repeatCount="indefinite" values="-1400;-1400;-1400;-1500;-1600;-1700;-1800;-1900;-2000;-2100;-2200;-2300;-2400;-2400;-2500;-2600;-2600;-2700;-2800;-2900;-3000;-3000;-2900;-2800;-2700;-2600;-2600;-2500;-2400;-2400;-2300;-2200;-2100;-2000;-1900;-1800;-1700;-1600;-1500;-1400;-1300;-1300;-1400;-1400;-1300;-1300;-1400;-1400;-1500;-1600;-1700;-1800;-1900;-2000;-2100;-2200;-2300;-2300;-2400;-2500;-2600;-2700;-2800;-2900;-3000;-3100;-3100;-3000;-3000;-2900;-2800;-2800;-2700;-2700;-2600;-2600;-2500;-2500;-2400;-2400;-2300;-2300;-2200;-2300;-2300;-2400;-2400;-2500;-2500;-2600;-2600;-2700;-2800;-2800;-2900;-3000;-3000;-3100;-3200;-3300;-3300;-3400;-3400;-3500;-3500;-3600;-3600;-3500;-3400;-3300;-3200;-3100;-3000;-2900;-2800;-2700;-2600;-2500;-2400;-2300;-2200;-2100;-2000;-2100;-2200;-2300;-2400;-2500;-2600;-2700;-2800;-2900;-3000;-3100;-3100;-3200;-3200;-3300;-3300;-3200;-3100;-3000;-2900;-2800;-2700;-2600;-2500;-2400;-2300;-2200;-2100;-2000;-1900;-1800;-1700;-1600;-1500;-1500;-1400;-1500;-1500;-1600;-1600;-1500;-1500;-1400;-1400;-1300;-1200;-1200;-1100;-1000;-900;-800;-900;-1000;-1100;-1200;-1200"/>
<animate attributeName="cx" dur="70.28s" keyTimes="0.0;0.003968254;0.0079365079;0.0476190476;0.0515873016;0.0595238095;0.0634920635;0.0793650794;0.0833333333;0.0873015873;0.0912698413;0.0952380952;0.0992063492;0.1031746032;0.1071428571;0.1111111111;0.1150793651;0.130952381;0.1349206349;0.1428571429;0.1468253968;0.1904761905;0.1944444444;0.1984126984;0.2023809524;0.2063492063;0.2103174603;0.2142857143;0.2182539683;0.2222222222;0.2261904762;0.2301587302;0.2341269841;0.2380952381;0.2420634921;0.246031746;0.25;0.253968254;0.2579365079;0.2619047619;0.2658730159;0.2698412698;0.2738095238;0.2777777778;0.2817460317;0.2857142857;0.2896825397;0.3253968254;0.3293650794;0.3611111111;0.3650793651;0.369047619;0.373015873;0.376984127;0.3849206349;0.3888888889;0.3928571429;0.3968253968;0.4007936508;0.4047619048;0.4087301587;0.4126984127;0.4166666667;0.4206349206;0.4246031746;0.4285714286;0.4325396825;0.4365079365;0.4404761905;0.4444444444;0.4484126984;0.4523809524;0.4563492063;0.4603174603;0.4642857143;0.4682539683;0.4722222222;0.4761904762;0.4801587302;0.4841269841;0.4880952381;0.4920634921;0.496031746;0.5;0.503968254;0.5119047619;0.5158730159;0.5198412698;0.5238095238;0.5277777778;0.5317460317;0.5357142857;0.5396825397;0.5436507937;0.5515873016;0.5555555556;0.5634920635;0.5674603175;0.5714285714;0.5753968254;0.5873015873;0.5912698413;0.5952380952;0.5992063492;0.6031746032;0.6071428571;0.6111111111;0.6150793651;0.619047619;0.7261904762;0.7301587302;0.7341269841;0.7380952381;0.7420634921;0.746031746;0.75;0.753968254;0.7579365079;0.7619047619;0.7658730159;0.7698412698;0.7738095238;0.7777777778;0.7817460317;0.7857142857;0.7896825397;0.7936507937;0.7976190476;0.869047619;0.873015873;0.880952381;0.8849206349;0.8888888889;0.8928571429;0.8968253968;0.9007936508;0.9047619048;0.9087301587;0.9126984127;0.9166666667;0.9206349206;0.9246031746;0.9285714286;0.9325396825;0.9365079365;0.9404761905;0.9444444444;0.9484126984;0.9563492063;0.9603174603;0.9920634921;0.996031746;1.0" repeatCount="indefinite" values="2500;2500;2600;2600;2700;2700;2800;2800;2900;3000;3100;3200;3300;3400;3500;3400;3300;3300;3200;3200;3100;3100;3000;2900;2800;2700;2600;2500;2400;2300;2300;2200;2100;2000;1900;1800;1700;1600;1500;1400;1300;1200;1200;1100;1000;1000;900;900;800;800;900;1000;1000;1100;1100;1200;1200;1300;1400;1500;1600;1700;1800;1900;2000;2100;2100;2200;2300;2400;2500;2600;2700;2700;2800;2900;2900;3000;3000;3100;3200;3300;3300;3200;3100;3100;3000;3000;2900;2800;2800;2700;2700;2600;2600;2500;2500;2400;2300;2200;2200;2100;2100;2000;2000;1900;1800;1800;1700;1700;1800;1900;2000;2000;2100;2100;2200;2300;2400;2500;2600;2700;2800;2900;3000;3100;3000;2900;2900;2800;2800;2900;2900;3000;3100;3000;2900;2900;2800;2700;2600;2600;2500;2400;2300;2200;2100;2000;2000;1900;1900;2000;2000"/>
<animate attributeName="visibility" dur="70.28s" keyTimes="0.0;0.003968254;1.0" repeatCount="indefinite" values="visible;visible;visible"/> </circle>
<circle cx="3000" cy="-1900" fill="#2e6f9e" r="35"> <animate attributeName="cy" dur="70.28s" keyTimes="0.0;0.003968254;0.0079365079;0.0119047619;0.0158730159;0.0198412698;0.0277777778;0.0317460317;0.0515873016;0.0555555556;0.0595238095;0.0634920635;0.0674603175;0.0714285714;0.0753968254;0.0793650794;0.0833333333;0.0992063492;0.1031746032;0.1111111111;0.1150793651;0.119047619;0.126984127;0.130952381;0.1349206349;0.1388888889;0.1428571429;0.1468253968;0.1507936508;0.1547619048;0.1587301587;0.1626984127;0.1666666667;0.1706349206;0.1746031746;0.1785714286;0.1825396825;0.1865079365;0.1904761905;0.1944444444;0.1984126984;0.2023809524;0.2063492063;0.2103174603;0.2182539683;0.2222222222;0.2261904762;0.2420634921;0.246031746;0.253968254;0.2579365079;0.2698412698;0.2738095238;0.2896825397;0.2936507937;0.2976190476;0.3015873016;0.3055555556;0.3333333333;0.3373015873;0.3412698413;0.3452380952;0.3492063492;0.3531746032;0.3571428571;0.373015873;0.376984127;0.380952381;0.3849206349;0.3968253968;0.4007936508;0.4126984127;0.4166666667;0.4246031746;0.4285714286;0.4325396825;0.4563492063;0.4603174603;0.4642857143;0.4682539683;0.4801587302;0.4841269841;0.4880952381;0.4920634921;0.496031746;0.5;0.503968254;0.5158730159;0.5198412698;0.5277777778;0.5317460317;0.5357142857;0.5396825397;0.5436507937;0.5515873016;0.5555555556;0.5595238095;0.5634920635;0.5674603175;0.5912698413;0.5952380952;0.5992063492;0.6031746032;0.6071428571;0.6150793651;0.619047619;0.626984127;0.630952381;0.6388888889;0.6428571429;0.6468253968;0.6626984127;0.6666666667;0.6706349206;0.6785714286;0.6825396825;0.6865079365;0.6904761905;0.6944444444;0.6984126984;0.7023809524;0.7301587302;0.7341269841;0.75;0.753968254;0.7619047619;0.7658730159;0.7698412698;0.7738095238;0.7777777778;0.7896825397;0.7936507937;0.7976190476;0.8015873016;0.8174603175;0.8214285714;0.8253968254;0.8293650794;0.8373015873;0.8412698413;0.8452380952;0.8492063492;0.8531746032;0.8571428571;0.876984127;0.880952381;0.8849206349;0.9047619048;0.9087301587;0.9166666667;0.9206349206;0.9246031746;0.9285714286;0.9325396825;0.9365079365;0.9404761905;0.9444444444;0.9484126984;0.9523809524;0.9563492063;0.9801587302;0.9841269841;1.0" repeatCount="indefinite" values="-1900;-1900;-1800;-1800;-1900;-2000;-2000;-2100;-2100;-2200;-2200;-2300;-2300;-2400;-2300;-2300;-2200;-2200;-2300;-2300;-2200;-2300;-2300;-2400;-2400;-2500;-2600;-2500;-2600;-2500;-2500;-2600;-2500;-2600;-2500;-2500;-2600;-2600;-2500;-2400;-2300;-2200;-2300;-2200;-2200;-2300;-2400;-2400;-2300;-2300;-2200;-2200;-2100;-2100;-2200;-2300;-2300;-2400;-2400;-2500;-2400;-2300;-2300;-2400;-2500;-2500;-2600;-2500;-2600;-2600;-2500;-2500;-2600;-2600;-2500;-2600;-2600;-2500;-2500;-2400;-2400;-2500;-2500;-2600;-2600;-2500;-2400;-2400;-2300;-2300;-2400;-2500;-2500;-2600;-2600;-2700;-2700;-2600;-2500;-2500;-2400;-2300;-2400;-2500;-2500;-2600;-2600;-2500;-2500;-2600;-2700;-2700;-2600;-2500;-2500;-2400;-2400;-2300;-2300;-2200;-2100;-2100;-2200;-2200;-2300;-2300;-2200;-2100;-2200;-2100;-2100;-2200;-2200;-2100;-2100;-2200;-2200;-2100;-2100;-2000;-2100;-2000;-2100;-2000;-2000;-2100;-2000;-2000;-2100;-2100;-2000;-2000;-1900;-1800;-1800;-1900;-1900;-2000;-2000;-2100;-2100;-2200;-2200"/>
<animate attributeName="cx" dur="70.28s" keyTimes="0.0;0.003968254;0.0198412698;0.0238095238;0.0317460317;0.0357142857;0.0436507937;0.0476190476;0.0515873016;0.0555555556;0.0595238095;0.0753968254;0.0793650794;0.0833333333;0.0873015873;0.0912698413;0.0952380952;0.0992063492;0.1031746032;0.1071428571;0.1111111111;0.123015873;0.126984127;0.130952381;0.1349206349;0.1547619048;0.1587301587;0.2103174603;0.2142857143;0.2182539683;0.2261904762;0.2301587302;0.2341269841;0.2380952381;0.2420634921;0.246031746;0.25;0.253968254;0.2579365079;0.2619047619;0.2658730159;0.2698412698;0.2817460317;0.2857142857;0.2896825397;0.2976190476;0.3015873016;0.3055555556;0.3095238095;0.3134920635;0.3174603175;0.3214285714;0.3253968254;0.3293650794;0.3333333333;0.3452380952;0.3492063492;0.3571428571;0.3611111111;0.3650793651;0.369047619;0.3849206349;0.3888888889;0.3928571429;0.3968253968;0.4007936508;0.4047619048;0.4087301587;0.4126984127;0.4206349206;0.4246031746;0.4444444444;0.4484126984;0.4603174603;0.4642857143;0.4722222222;0.4761904762;0.4801587302;0.4920634921;0.496031746;0.503968254;0.5079365079;0.5119047619;0.5198412698;0.5238095238;0.5436507937;0.5476190476;0.5515873016;0.5555555556;0.5595238095;0.5674603175;0.5714285714;0.5753968254;0.5793650794;0.5833333333;0.5873015873;0.5912698413;0.6111111111;0.6150793651;0.619047619;0.623015873;0.626984127;0.630952381;0.6349206349;0.6388888889;0.6468253968;0.6507936508;0.6547619048;0.6587301587;0.6626984127;0.6706349206;0.6746031746;0.6825396825;0.6865079365;0.6904761905;0.6944444444;0.7142857143;0.7182539683;0.7261904762;0.7301587302;0.7341269841;0.7380952381;0.746031746;0.75;0.753968254;0.7579365079;0.7619047619;0.7857142857;0.7896825397;0.7936507937;0.7976190476;0.8214285714;0.8253968254;0.8293650794;0.8333333333;0.8373015873;0.8968253968;0.9007936508;0.9087301587;0.9126984127;0.9166666667;0.9206349206;0.9246031746;0.9325396825;0.9365079365;0.9484126984;0.9523809524;0.9563492063;0.9603174603;0.9642857143;0.9682539683;0.9761904762;0.9801587302;0.9880952381;0.9920634921;0.996031746;1.0" repeatCount="indefinite" values="3000;3000;3000;2900;2900;2800;2800;2900;3000;3000;2900;2900;3000;3000;3100;3000;3000;3100;3100;3200;3300;3300;3200;3200;3300;3300;3200;3200;3100;3200;3200;3100;3200;3300;3400;3400;3300;3200;3200;3100;3100;3000;3000;3100;3200;3200;3100;3100;3000;2900;3000;2900;2900;3000;2900;2900;2800;2800;2900;2800;2700;2700;2600;2600;2700;2700;2800;2700;2800;2800;2900;2900;2800;2800;2700;2700;2600;2500;2500;2400;2400;2300;2200;2200;2100;2100;2200;2100;2100;2200;2200;2100;2000;1900;1800;1700;1600;1600;1700;1700;1600;1500;1500;1600;1500;1500;1600;1600;1700;1600;1600;1700;1700;1600;1600;1500;1500;1400;1400;1500;1500;1400;1400;1300;1300;1200;1300;1300;1400;1400;1500;1500;1400;1400;1300;1400;1400;1300;1300;1200;1300;1300;1200;1200;1300;1300;1400;1400;1500;1600;1700;1700;1800;1800;1700;1600;1600"/>
<animate attributeName="visibility" dur="70.28s" keyTimes="0.0;0.003968254;1.0" repeatCount="indefinite" values="visible;visible;visible"/> </circle>
<circle cx="3500" cy="-3000" fill="none" r="35" stroke="#c1433c" stroke-width="10"> <animate attributeName="cy" dur="70.28s" keyTimes="0.0;0.003968254;0.1031746032;0.1071428571;0.2698412698;0.2738095238;0.3611111111;0.3650793651;0.4285714286;0.4325396825;0.4920634921;0.496031746;0.503968254;0.5079365079;0.6111111111;0.6150793651;0.6785714286;0.6825396825;0.7857142857;0.7896825397;0.873015873;0.876984127;0.8928571429;0.8968253968;0.9722222222;0.9761904762;1.0" repeatCount="indefinite" values="-3000;-3000;-3000;-1300;-1300;-3100;-3100;-2600;-2600;-2300;-2300;-2200;-2200;-3600;-3600;-2000;-2000;-3300;-3300;-1400;-1400;-1600;-1600;-800;-800;-1400;-1400"/>
<animate attributeName="cx" dur="70.28s" keyTimes="0.0;0.003968254;0.1031746032;0.1071428571;0.1865079365;0.1904761905;0.2698412698;0.2738095238;0.3611111111;0.3650793651;0.4285714286;0.4325396825;0.4920634921;0.496031746;0.503968254;0.5079365079;0.6111111111;0.6150793651;0.6785714286;0.6825396825;0.7857142857;0.7896825397;0.873015873;0.876984127;0.8928571429;0.8968253968;0.9722222222;0.9761904762;1.0" repeatCount="indefinite" values="3500;3500;3500;3100;3100;1200;1200;900;900;2100;2100;3300;3300;3100;3100;1800;1800;1700;1700;3100;3100;2800;2800;3100;3100;1900;1900;2900;2900"/>
<animate attributeName="visibility" dur="70.28s" keyTimes="0.0;0.003968254;1.0" repeatCount="indefinite" values="visible;visible;visible"/> </circle>
<circle cx="2600" cy="-2600" fill="none" r="35" stroke="#2e6f9e" stroke-width="10"> <animate attributeName="cy" dur="70.28s" keyTimes="0.0;0.003968254;0.3849206349;0.3888888889;1.0" repeatCount="indefinite" values="-2600;-2600;-2600;-1500;-1500"/>
<animate attributeName="cx" dur="70.28s" keyTimes="0.0;0.003968254;0.3849206349;0.3888888889;1.0" repeatCount="indefinite" values="2600;2600;2600;1300;1300"/>
<animate attributeName="visibility" dur="70.28s" keyTimes="0.0;0.003968254;1.0" repeatCount="indefinite" values="visible;visible;visible"/> </circle>
</svg>