<?xml version="1.0" encoding="UTF-8"?>
        <svg xmlns="http://www.w3.org/2000/svg" xmlns:xlink="http://www.w3.org/1999/xlink"
             width="430" height="430" viewBox="0 -4300 4300 4300">

<defs>

</defs>

<rect fill="#84A1AE" height="70" rx="15" width="70" x="465" y="-535" />
<rect fill="#84A1AE" height="70" rx="15" width="70" x="465" y="-635" />
<rect fill="#84A1AE" height="70" rx="15" width="70" x="465" y="-735" />
<rect fill="#84A1AE" height="70" rx="15" width="70" x="465" y="-835" />
<rect fill="#84A1AE" height="70" rx="15" width="70" x="465" y="-935" />
<rect fill="#84A1AE" height="70" rx="15" width="70" x="465" y="-1035" />
<rect fill="#84A1AE" height="70" rx="15" width="70" x="465" y="-1135" />
<rect fill="#84A1AE" height="70" rx="15" width="70" x="465" y="-1235" />
<rect fill="#84A1AE" height="70" rx="15" width="70" x="465" y="-1335" />
<rect fill="#84A1AE" height="70" rx="15" width="70" x="465" y="-1435" />
<rect fill="#84A1AE" height="70" rx="15" width="70" x="465" y="-1535" />
<rect fill="#84A1AE" height="70" rx="15" width="70" x="465" y="-1635" />
<rect fill="#84A1AE" height="70" rx="15" width="70" x="465" y="-1735" />
<rect fill="#84A1AE" height="70" rx="15" width="70" x="465" y="-1835" />
<rect fill="#84A1AE" height="70" rx="15" width="70" x="465" y="-1935" />
<rect fill="#84A1AE" height="70" rx="15" width="70" x="465" y="-2035" />
<rect fill="#84A1AE" height="70" rx="15" width="70" x="465" y="-2135" />
<rect fill="#84A1AE" height="70" rx="15" width="70" x="465" y="-2235" />
<rect fill="#84A1AE" height="70" rx="15" width="70" x="465" y="-2335" />
<rect fill="#84A1AE" height="70" rx="15" width="70" x="465" y="-2435" />
<rect fill="#84A1AE" height="70" rx="15" width="70" x="465" y="-2535" />
<rect fill="#84A1AE" height="70" rx="15" width="70" x="465" y="-2635" />
<rect fill="#84A1AE" height="70" rx="15" width="70" x="465" y="-2735" />
<rect fill="#84A1AE" height="70" rx="15" width="70" x="465" y="-2835" />
<rect fill="#84A1AE" height="70" rx="15" width="70" x="465" y="-2935" />
<rect fill="#84A1AE" height="70" rx="15" width="70" x="465" y="-3035" />
<rect fill="#84A1AE" height="70" rx="15" width="70" x="465" y="-3135" />
<rect fill="#84A1AE" height="70" rx="15" width="70" x="465" y="-3235" />
<rect fill="#84A1AE" height="70" rx="15" width="70" x="465" y="-3335" />
<rect fill="#84A1AE" height="70" rx="15" width="70" x="465" y="-3435" />
<rect fill="#84A1AE" height="70" rx="15" width="70" x="465" y="-3535" />
<rect fill="#84A1AE" height="70" rx="15" width="70" x="465" y="-3635" />
<rect fill="#84A1AE" height="70" rx="15" width="70" x="465" y="-3735" />
<rect fill="#84A1AE" height="70" rx="15" width="70" x="465" y="-3835" />
<rect fill="#84A1AE" height="70" rx="15" width="70" x="565" y="-535" />
<rect fill="#84A1AE" height="70" rx="15" width="70" x="565" y="-1635" />
<rect fill="#84A1AE" height="70" rx="15" width="70" x="565" y="-1935" />
<rect fill="#84A1AE" height="70" rx="15" width="70" x="565" y="-2735" />
<rect fill="#84A1AE" height="70" rx="15" width="70" x="565" y="-3835" />
<rect fill="#84A1AE" height="70" rx="15" width="70" x="665" y="-535" />
<rect fill="#84A1AE" height="70" rx="15" width="70" x="665" y="-1035" />
<rect fill="#84A1AE" height="70" rx="15" width="70" x="665" y="-2535" />
<rect fill="#84A1AE" height="70" rx="15" width="70" x="665" y="-3035" />
<rect fill="#84A1AE" height="70" rx="15" width="70" x="665" y="-3235" />
<rect fill="#84A1AE" height="70" rx="15" width="70" x="665" y="-3835" />
<rect fill="#84A1AE" height="70" rx="15" width="70" x="765" y="-535" />
<rect fill="#84A1AE" height="70" rx="15" width="70" x="765" y="-635" />
<rect fill="#84A1AE" height="70" rx="15" width="70" x="765" y="-3835" />
<rect fill="#84A1AE" height="70" rx="15" width="70" x="865" y="-535" />
<rect fill="#84A1AE" height="70" rx="15" width="70" x="865" y="-2435" />
<rect fill="#84A1AE" height="70" rx="15" width="70" x="865" y="-2535" />
<rect fill="#84A1AE" height="70" rx="15" width="70" x="865" y="-3335" />
<rect fill="#84A1AE" height="70" rx="15" width="70" x="865" y="-3435" />
<rect fill="#84A1AE" height="70" rx="15" width="70" x="865" y="-3835" />
<rect fill="#84A1AE" height="70" rx="15" width="70" x="965" y="-535" />
<rect fill="#84A1AE" height="70" rx="15" width="70" x="965" y="-735" />
<rect fill="#84A1AE" height="70" rx="15" width="70" x="965" y="-1635" />
<rect fill="#84A1AE" height="70" rx="15" width="70" x="965" y="-1835" />
<rect fill="#84A1AE" height="70" rx="15" width="70" x="965" y="-2835" />
<rect fill="#84A1AE" height="70" rx="15" width="70" x="965" y="-3435" />
<rect fill="#84A1AE" height="70" rx="15" width="70" x="965" y="-3835" />
<rect fill="#84A1AE" height="70" rx="15" width="70" x="1065" y="-535" />
<rect fill="#84A1AE" height="70" rx="15" width="70" x="1065" y="-1135" />
<rect fill="#84A1AE" height="70" rx="15" width="70" x="1065" y="-1835" />
<rect fill="#84A1AE" height="70" rx="15" width="70" x="1065" y="-3735" />
<rect fill="#84A1AE" height="70" rx="15" width="70" x="1065" y="-3835" />
<rect fill="#84A1AE" height="70" rx="15" width="70" x="1165" y="-535" />
<rect fill="#84A1AE" height="70" rx="15" width="70" x="1165" y="-635" />
<rect fill="#84A1AE" height="70" rx="15" width="70" x="1165" y="-735" />
<rect fill="#84A1AE" height="70" rx="15" width="70" x="1165" y="-1535" />
<rect fill="#84A1AE" height="70" rx="15" width="70" x="1165" y="-3835" />
<rect fill="#84A1AE" height="70" rx="15" width="70" x="1265" y="-535" />
<rect fill="#84A1AE" height="70" rx="15" width="70" x="1265" y="-2835" />
<rect fill="#84A1AE" height="70" rx="15" width="70" x="1265" y="-3435" />
<rect fill="#84A1AE" height="70" rx="15" width="70" x="1265" y="-3835" />
<rect fill="#84A1AE" height="70" rx="15" width="70" x="1365" y="-535" />
<rect fill="#84A1AE" height="70" rx="15" width="70" x="1365" y="-835" />
<rect fill="#84A1AE" height="70" rx="15" width="70" x="1365" y="-935" />
<rect fill="#84A1AE" height="70" rx="15" width="70" x="1365" y="-1035" />
<rect fill="#84A1AE" height="70" rx="15" width="70" x="1365" y="-1935" />
<rect fill="#84A1AE" height="70" rx="15" width="70" x="1365" y="-2335" />
<rect fill="#84A1AE" height="70" rx="15" width="70" x="1365" y="-2635" />
<rect fill="#84A1AE" height="70" rx="15" width="70" x="1365" y="-2835" />
<rect fill="#84A1AE" height="70" rx="15" width="70" x="1365" y="-2935" />
<rect fill="#84A1AE" height="70" rx="15" width="70" x="1365" y="-3035" />
<rect fill="#84A1AE" height="70" rx="15" width="70" x="1365" y="-3335" />
<rect fill="#84A1AE" height="70" rx="15" width="70" x="1365" y="-3835" />
<rect fill="#84A1AE" height="70" rx="15" width="70" x="1465" y="-535" />
<rect fill="#84A1AE" height="70" rx="15" width="70" x="1465" y="-1235" />
<rect fill="#84A1AE" height="70" rx="15" width="70" x="1465" y="-1535" />
<rect fill="#84A1AE" height="70" rx="15" width="70" x="1465" y="-2035" />
<rect fill="#84A1AE" height="70" rx="15" width="70" x="1465" y="-3135" />
<rect fill="#84A1AE" height="70" rx="15" width="70" x="1465" y="-3235" />
<rect fill="#84A1AE" height="70" rx="15" width="70" x="1465" y="-3835" />
<rect fill="#84A1AE" height="70" rx="15" width="70" x="1565" y="-535" />
<rect fill="#84A1AE" height="70" rx="15" width="70" x="1565" y="-3035" />
<rect fill="#84A1AE" height="70" rx="15" width="70" x="1565" y="-3835" />
<rect fill="#84A1AE" height="70" rx="15" width="70" x="1665" y="-535" />
<rect fill="#84A1AE" height="70" rx="15" width="70" x="1665" y="-3735" />
<rect fill="#84A1AE" height="70" rx="15" width="70" x="1665" y="-3835" />
<rect fill="#84A1AE" height="70" rx="15" width="70" x="1765" y="-535" />
<rect fill="#84A1AE" height="70" rx="15" width="70" x="1765" y="-1235" />
<rect fill="#84A1AE" height="70" rx="15" width="70" x="1765" y="-3835" />
<rect fill="#84A1AE" height="70" rx="15" width="70" x="1865" y="-535" />
<rect fill="#84A1AE" height="70" rx="15" width="70" x="1865" y="-735" />
<rect fill="#84A1AE" height="70" rx="15" width="70" x="1865" y="-1335" />
<rect fill="#84A1AE" height="70" rx="15" width="70" x="1865" y="-3235" />
<rect fill="#84A1AE" height="70" rx="15" width="70" x="1865" y="-3435" />
<rect fill="#84A1AE" height="70" rx="15" width="70" x="1865" y="-3835" />
<rect fill="#84A1AE" height="70" rx="15" width="70" x="1965" y="-535" />
<rect fill="#84A1AE" height="70" rx="15" width="70" x="1965" y="-635" />
<rect fill="#84A1AE" height="70" rx="15" width="70" x="1965" y="-1835" />
<rect fill="#84A1AE" height="70" rx="15" width="70" x="1965" y="-1935" />
<rect fill="#84A1AE" height="70" rx="15" width="70" x="1965" y="-2135" />
<rect fill="#84A1AE" height="70" rx="15" width="70" x="1965" y="-2335" />
<rect fill="#84A1AE" height="70" rx="15" width="70" x="1965" y="-2435" />
<rect fill="#84A1AE" height="70" rx="15" width="70" x="1965" y="-3335" />
<rect fill="#84A1AE" height="70" rx="15" width="70" x="1965" y="-3835" />
<rect fill="#84A1AE" height="70" rx="15" width="70" x="2065" y="-535" />
<rect fill="#84A1AE" height="70" rx="15" width="70" x="2065" y="-1535" />
<rect fill="#84A1AE" height="70" rx="15" width="70" x="2065" y="-1635" />
<rect fill="#84A1AE" height="70" rx="15" width="70" x="2065" y="-2135" />
<rect fill="#84A1AE" height="70" rx="15" width="70" x="2065" y="-3835" />
<rect fill="#84A1AE" height="70" rx="15" width="70" x="2165" y="-535" />
<rect fill="#84A1AE" height="70" rx="15" width="70" x="2165" y="-935" />
<rect fill="#84A1AE" height="70" rx="15" width="70" x="2165" y="-1335" />
<rect fill="#84A1AE" height="70" rx="15" width="70" x="2165" y="-1835" />
<rect fill="#84A1AE" height="70" rx="15" width="70" x="2165" y="-3835" />
<rect fill="#84A1AE" height="70" rx="15" width="70" x="2265" y="-535" />
<rect fill="#84A1AE" height="70" rx="15" width="70" x="2265" y="-935" />
<rect fill="#84A1AE" height="70" rx="15" width="70" x="2265" y="-1135" />
<rect fill="#84A1AE" height="70" rx="15" width="70" x="2265" y="-2535" />
<rect fill="#84A1AE" height="70" rx="15" width="70" x="2265" y="-3235" />
<rect fill="#84A1AE" height="70" rx="15" width="70" x="2265" y="-3835" />
<rect fill="#84A1AE" height="70" rx="15" width="70" x="2365" y="-535" />
<rect fill="#84A1AE" height="70" rx="15" width="70" x="2365" y="-935" />
<rect fill="#84A1AE" height="70" rx="15" width="70" x="2365" y="-1035" />
<rect fill="#84A1AE" height="70" rx="15" width="70" x="2365" y="-3835" />
<rect fill="#84A1AE" height="70" rx="15" width="70" x="2465" y="-535" />
<rect fill="#84A1AE" height="70" rx="15" width="70" x="2465" y="-935" />
<rect fill="#84A1AE" height="70" rx="15" width="70" x="2465" y="-1535" />
<rect fill="#84A1AE" height="70" rx="15" width="70" x="2465" y="-2335" />
<rect fill="#84A1AE" height="70" rx="15" width="70" x="2465" y="-2735" />
<rect fill="#84A1AE" height="70" rx="15" width="70" x="2465" y="-3835" />
<rect fill="#84A1AE" height="70" rx="15" width="70" x="2565" y="-535" />
<rect fill="#84A1AE" height="70" rx="15" width="70" x="2565" y="-735" />
<rect fill="#84A1AE" height="70" rx="15" width="70" x="2565" y="-2535" />
<rect fill="#84A1AE" height="70" rx="15" width="70" x="2565" y="-3835" />
<rect fill="#84A1AE" height="70" rx="15" width="70" x="2665" y="-535" />
<rect fill="#84A1AE" height="70" rx="15" width="70" x="2665" y="-635" />
<rect fill="#84A1AE" height="70" rx="15" width="70" x="2665" y="-1135" />
<rect fill="#84A1AE" height="70" rx="15" width="70" x="2665" y="-1435" />
<rect fill="#84A1AE" height="70" rx="15" width="70" x="2665" y="-2735" />
<rect fill="#84A1AE" height="70" rx="15" width="70" x="2665" y="-3835" />
<rect fill="#84A1AE" height="70" rx="15" width="70" x="2765" y="-535" />
<rect fill="#84A1AE" height="70" rx="15" width="70" x="2765" y="-1635" />
<rect fill="#84A1AE" height="70" rx="15" width="70" x="2765" y="-1835" />
<rect fill="#84A1AE" height="70" rx="15" width="70" x="2765" y="-1935" />
<rect fill="#84A1AE" height="70" rx="15" width="70" x="2765" y="-2235" />
<rect fill="#84A1AE" height="70" rx="15" width="70" x="2765" y="-3735" />
<rect fill="#84A1AE" height="70" rx="15" width="70" x="2765" y="-3835" />
<rect fill="#84A1AE" height="70" rx="15" width="70" x="2865" y="-535" />
<rect fill="#84A1AE" height="70" rx="15" width="70" x="2865" y="-3835" />
<rect fill="#84A1AE" height="70" rx="15" width="70" x="2965" y="-535" />
<rect fill="#84A1AE" height="70" rx="15" width="70" x="2965" y="-2635" />
<rect fill="#84A1AE" height="70" rx="15" width="70" x="2965" y="-3835" />
<rect fill="#84A1AE" height="70" rx="15" width="70" x="3065" y="-535" />
<rect fill="#84A1AE" height="70" rx="15" width="70" x="3065" y="-735" />
<rect fill="#84A1AE" height="70" rx="15" width="70" x="3065" y="-2535" />
<rect fill="#84A1AE" height="70" rx="15" width="70" x="3065" y="-3835" />
<rect fill="#84A1AE" height="70" rx="15" width="70" x="3165" y="-535" />
<rect fill="#84A1AE" height="70" rx="15" width="70" x="3165" y="-835" />
<rect fill="#84A1AE" height="70" rx="15" width="70" x="3165" y="-1935" />
<rect fill="#84A1AE" height="70" rx="15" width="70" x="3165" y="-2735" />
<rect fill="#84A1AE" height="70" rx="15" width="70" x="3165" y="-3135" />
<rect fill="#84A1AE" height="70" rx="15" width="70" x="3165" y="-3835" />
<rect fill="#84A1AE" height="70" rx="15" width="70" x="3265" y="-535" />
<rect fill="#84A1AE" height="70" rx="15" width="70" x="3265" y="-1035" />
<rect fill="#84A1AE" height="70" rx="15" width="70" x="3265" y="-1735" />
<rect fill="#84A1AE" height="70" rx="15" width="70" x="3265" y="-3835" />
<rect fill="#84A1AE" height="70" rx="15" width="70" x="3365" y="-535" />
<rect fill="#84A1AE" height="70" rx="15" width="70" x="3365" y="-1435" />
<rect fill="#84A1AE" height="70" rx="15" width="70" x="3365" y="-1935" />
<rect fill="#84A1AE" height="70" rx="15" width="70" x="3365" y="-2135" />
<rect fill="#84A1AE" height="70" rx="15" width="70" x="3365" y="-3835" />
<rect fill="#84A1AE" height="70" rx="15" width="70" x="3465" y="-535" />
<rect fill="#84A1AE" height="70" rx="15" width="70" x="3465" y="-2635" />
<rect fill="#84A1AE" height="70" rx="15" width="70" x="3465" y="-3835" />
<rect fill="#84A1AE" height="70" rx="15" width="70" x="3565" y="-535" />
<rect fill="#84A1AE" height="70" rx="15" width="70" x="3565" y="-635" />
<rect fill="#84A1AE" height="70" rx="15" width="70" x="3565" y="-2435" />
<rect fill="#84A1AE" height="70" rx="15" width="70" x="3565" y="-3235" />
<rect fill="#84A1AE" height="70" rx="15" width="70" x="3565" y="-3835" />
<rect fill="#84A1AE" height="70" rx="15" width="70" x="3665" y="-535" />
<rect fill="#84A1AE" height="70" rx="15" width="70" x="3665" y="-2135" />
<rect fill="#84A1AE" height="70" rx="15" width="70" x="3665" y="-2835" />
<rect fill="#84A1AE" height="70" rx="15" width="70" x="3665" y="-3135" />
<rect fill="#84A1AE" height="70" rx="15" width="70" x="3665" y="-3735" />
<rect fill="#84A1AE" height="70" rx="15" width="70" x="3665" y="-3835" />
<rect fill="#84A1AE" height="70" rx="15" width="70" x="3765" y="-535" />
<rect fill="#84A1AE" height="70" rx="15" width="70" x="3765" y="-635" />
<rect fill="#84A1AE" height="70" rx="15" width="70" x="3765" y="-735" />
<rect fill="#84A1AE" height="70" rx="15" width="70" x="3765" y="-835" />
<rect fill="#84A1AE" height="70" rx="15" width="70" x="3765" y="-935" />
<rect fill="#84A1AE" height="70" rx="15" width="70" x="3765" y="-1035" />
<rect fill="#84A1AE" height="70" rx="15" width="70" x="3765" y="-1135" />
<rect fill="#84A1AE" height="70" rx="15" width="70" x="3765" y="-1235" />
<rect fill="#84A1AE" height="70" rx="15" width="70" x="3765" y="-1335" />
<rect fill="#84A1AE" height="70" rx="15" width="70" x="3765" y="-1435" />
<rect fill="#84A1AE" height="70" rx="15" width="70" x="3765" y="-1535" />
<rect fill="#84A1AE" height="70" rx="15" width="70" x="3765" y="-1635" />
<rect fill="#84A1AE" height="70" rx="15" width="70" x="3765" y="-1735" />
<rect fill="#84A1AE" height="70" rx="15" width="70" x="3765" y="-1835" />
<rect fill="#84A1AE" height="70" rx="15" width="70" x="3765" y="-1935" />
<rect fill="#84A1AE" height="70" rx="15" width="70" x="3765" y="-2035" />
<rect fill="#84A1AE" height="70" rx="15" width="70" x="3765" y="-2135" />
<rect fill="#84A1AE" height="70" rx="15" width="70" x="3765" y="-2235" />
<rect fill="#84A1AE" height="70" rx="15" width="70" x="3765" y="-2335" />
<rect fill="#84A1AE" height="70" rx="15" width="70" x="3765" y="-2435" />
<rect fill="#84A1AE" height="70" rx="15" width="70" x="3765" y="-2535" />
<rect fill="#84A1AE" height="70" rx="15" width="70" x="3765" y="-2635" />
<rect fill="#84A1AE" height="70" rx="15" width="70" x="3765" y="-2735" />
<rect fill="#84A1AE" height="70" rx="15" width="70" x="3765" y="-2835" />
<rect fill="#84A1AE" height="70" rx="15" width="70" x="3765" y="-2935" />
<rect fill="#84A1AE" height="70" rx="15" width="70" x="3765" y="-3035" />
<rect fill="#84A1AE" height="70" rx="15" width="70" x="3765" y="-3135" />
<rect fill="#84A1AE" height="70" rx="15" width="70" x="3765" y="-3235" />
<rect fill="#84A1AE" height="70" rx="15" width="70" x="3765" y="-3335" />
<rect fill="#84A1AE" height="70" rx="15" width="70" x="3765" y="-3435" />
<rect fill="#84A1AE" height="70" rx="15" width="70" x="3765" y="-3535" />
<rect fill="#84A1AE" height="70" rx="15" width="70" x="3765" y="-3635" />
<rect fill="#84A1AE" height="70" rx="15" width="70" x="3765" y="-3735" />
<rect fill="#84A1AE" height="70" rx="15" width="70" x="3765" y="-3835" />
<circle cx="2500" cy="-1400" fill="#c1433c" r="35"> <animate attributeName="cy" dur="53.480000000000004s" keyTimes="0.0;0.0052083333;0.0104166667;0.015625;0.0208333333;0.0260416667;0.03125;0.0364583333;0.0416666667;0.046875;0.0520833333;0.0572916667;0.0625;0.0677083333;0.0729166667;0.078125;0.0833333333;0.0885416667;0.09375;0.0989583333;0.1041666667;0.171875;0.1770833333;0.1822916667;0.1875;0.1927083333;0.1979166667;0.203125;0.2083333333;0.2135416667;0.21875;0.2239583333;0.2291666667;0.234375;0.2395833333;0.2447916667;0.25;0.2552083333;0.2604166667;0.265625;0.2708333333;0.2760416667;0.28125;0.2916666667;0.296875;0.3020833333;0.3072916667;0.3125;0.3177083333;0.328125;0.3333333333;0.3385416667;0.34375;0.3541666667;0.359375;0.375;0.3802083333;0.3854166667;0.390625;0.3958333333;0.4010416667;0.4166666667;0.421875;0.4635416667;0.46875;0.5;0.5052083333;0.515625;0.5208333333;0.5260416667;0.53125;0.5364583333;0.5416666667;0.546875;0.5520833333;0.5572916667;0.5625;0.5677083333;0.5729166667;0.578125;0.5833333333;0.59375;0.5989583333;0.6041666667;0.609375;0.6145833333;0.6197916667;0.625;0.6302083333;0.6354166667;0.640625;0.6458333333;0.6510416667;0.65625;0.6614583333;0.6666666667;0.671875;0.6770833333;0.6822916667;0.6875;0.6927083333;0.6979166667;0.703125;0.7083333333;0.7135416667;0.71875;0.7239583333;0.7291666667;0.7604166667;0.765625;0.7708333333;0.7760416667;0.78125;0.7864583333;0.8697916667;0.875;0.8854166667;0.890625;0.8958333333;0.9010416667;0.90625;0.9114583333;0.9166666667;0.921875;0.9270833333;0.9322916667;0.9375;0.9427083333;0.9479166667;0.953125;1.0" repeatCount="indefinite" values="-1400;-1400;-1400;-1500;-1600;-1700;-1800;-1900;-2000;-2100;-2200;-2300;-2400;-2400;-2500;-2600;-2600;-2700;-2800;-2900;-3000;-3000;-2900;-2800;-2700;-2600;-2500;-2400;-2300;-2200;-2100;-2000;-1900;-1800;-1700;-1600;-1500;-1400;-1300;-1200;-1100;-1100;-1200;-1200;-1300;-1400;-1500;-1600;-1700;-1700;-1800;-1800;-1900;-1900;-2000;-2000;-2100;-2100;-2200;-2200;-2300;-2300;-2200;-2200;-2300;-2300;-2200;-2200;-2300;-2300;-2400;-2400;-2500;-2500;-2600;-2700;-2800;-2900;-3000;-3100;-3200;-3200;-3100;-3000;-2900;-2800;-2700;-2600;-2600;-2500;-2400;-2400;-2300;-2200;-2100;-2000;-1900;-1800;-1700;-1600;-1500;-1400;-1300;-1200;-1100;-1000;-900;-800;-800;-900;-1000;-1100;-1200;-1300;-1300;-1400;-1400;-1500;-1500;-1600;-1600;-1700;-1700;-1800;-1900;-2000;-2100;-2200;-2300;-2400;-2400"/>
<animate attributeName="cx" dur="53.480000000000004s" keyTimes="0.0;0.0052083333;0.0104166667;0.0625;0.0677083333;0.078125;0.0833333333;0.1041666667;0.109375;0.1145833333;0.1197916667;0.125;0.1302083333;0.1354166667;0.140625;0.1458333333;0.1510416667;0.15625;0.1614583333;0.1666666667;0.171875;0.2708333333;0.2760416667;0.28125;0.2864583333;0.2916666667;0.3177083333;0.3229166667;0.328125;0.3333333333;0.3385416667;0.34375;0.3489583333;0.3541666667;0.359375;0.3645833333;0.3697916667;0.375;0.3802083333;0.3854166667;0.390625;0.3958333333;0.4010416667;0.40625;0.4114583333;0.4166666667;0.421875;0.4270833333;0.4322916667;0.4375;0.4427083333;0.4479166667;0.453125;0.4583333333;0.4635416667;0.46875;0.4739583333;0.4791666667;0.484375;0.4895833333;0.4947916667;0.5;0.5052083333;0.5104166667;0.515625;0.5208333333;0.5260416667;0.53125;0.5364583333;0.5416666667;0.546875;0.5833333333;0.5885416667;0.59375;0.625;0.6302083333;0.640625;0.6458333333;0.7291666667;0.734375;0.7395833333;0.7447916667;0.75;0.7552083333;0.7604166667;0.7864583333;0.7916666667;0.796875;0.8020833333;0.8072916667;0.8125;0.8177083333;0.8229166667;0.828125;0.8333333333;0.8385416667;0.84375;0.8489583333;0.8541666667;0.859375;0.8645833333;0.8697916667;0.875;0.8802083333;0.8854166667;0.890625;0.8958333333;0.9010416667;0.90625;0.9114583333;0.9166666667;0.953125;0.9583333333;0.9635416667;0.96875;0.9739583333;0.9791666667;0.984375;0.9895833333;0.9947916667;1.0" repeatCount="indefinite" values="2500;2500;2600;2600;2700;2700;2800;2800;2900;3000;3100;3200;3300;3400;3500;3400;3300;3200;3100;3000;2900;2900;2800;2800;2700;2600;2600;2500;2400;2400;2300;2300;2200;2100;2100;2000;1900;1800;1800;1700;1700;1600;1600;1700;1800;1900;1900;2000;2100;2200;2300;2400;2500;2600;2700;2700;2800;2900;3000;3100;3200;3300;3300;3200;3100;3100;3000;3000;2900;2900;2800;2800;2900;2800;2800;2700;2700;2600;2600;2500;2400;2300;2400;2500;2600;2600;2700;2800;2900;3000;3100;3200;3300;3400;3300;3200;3100;3000;2900;2800;2700;2600;2600;2500;2400;2400;2300;2300;2200;2200;2300;2300;2400;2500;2600;2700;2800;2900;3000;3100;3100"/>
<animate attributeName="visibility" dur="53.480000000000004s" keyTimes="0.0;0.0052083333;1.0" repeatCount="indefinite" values="visible;visible;visible"/> </circle>
<circle cx="3000" cy="-1900" fill="#2e6f9e" r="35"> <animate attributeName="cy" dur="53.480000000000004s" keyTimes="0.0;0.0052083333;0.0104166667;0.015625;0.0208333333;0.0260416667;0.046875;0.0520833333;0.0572916667;0.0625;0.0677083333;0.0833333333;0.0885416667;0.09375;0.1145833333;0.1197916667;0.125;0.1302083333;0.1354166667;0.140625;0.1510416667;0.15625;0.1822916667;0.1875;0.1927083333;0.21875;0.2239583333;0.2291666667;0.234375;0.2395833333;0.2447916667;0.25;0.2552083333;0.2604166667;0.265625;0.2708333333;0.2760416667;0.3229166667;0.328125;0.3333333333;0.3385416667;0.34375;0.3489583333;0.3645833333;0.3697916667;0.3802083333;0.3854166667;0.390625;0.4375;0.4427083333;0.4479166667;0.453125;0.4583333333;0.4635416667;0.46875;0.4739583333;0.4791666667;0.484375;0.4895833333;0.4947916667;0.5;0.5052083333;0.5104166667;0.515625;0.5208333333;0.5260416667;0.53125;0.5520833333;0.5572916667;0.5625;0.5677083333;0.5729166667;0.5833333333;0.5885416667;0.59375;0.6041666667;0.609375;0.6354166667;0.640625;0.6458333333;0.6510416667;0.6666666667;0.671875;0.703125;0.7083333333;0.7135416667;0.71875;0.7239583333;0.734375;0.7395833333;0.7447916667;0.75;0.7864583333;0.7916666667;0.796875;0.8020833333;0.8072916667;0.8125;0.8177083333;0.8229166667;0.8385416667;0.84375;0.859375;0.8645833333;0.875;0.8802083333;0.8854166667;0.8958333333;0.9010416667;0.90625;0.9114583333;0.921875;0.9270833333;0.9322916667;0.9479166667;0.953125;0.9583333333;0.9635416667;0.96875;0.9739583333;0.9791666667;0.984375;0.9895833333;1.0" repeatCount="indefinite" values="-1900;-1900;-1800;-1900;-1900;-2000;-2000;-2100;-2200;-2300;-2400;-2400;-2500;-2600;-2600;-2500;-2600;-2700;-2700;-2800;-2800;-2700;-2700;-2800;-2700;-2700;-2800;-2800;-2900;-2800;-2800;-2900;-2900;-2800;-2800;-2700;-2800;-2800;-2700;-2700;-2800;-2800;-2900;-2900;-2800;-2800;-2900;-2800;-2800;-2700;-2800;-2700;-2700;-2800;-2700;-2800;-2800;-2900;-3000;-3000;-2900;-2900;-3000;-3100;-3100;-3000;-3100;-3100;-3200;-3200;-3300;-3400;-3400;-3500;-3400;-3400;-3300;-3300;-3200;-3200;-3100;-3100;-3000;-3000;-3100;-3200;-3300;-3400;-3400;-3500;-3500;-3400;-3400;-3500;-3600;-3600;-3500;-3600;-3600;-3500;-3500;-3600;-3600;-3500;-3500;-3600;-3700;-3700;-3600;-3600;-3500;-3500;-3400;-3300;-3300;-3400;-3400;-3500;-3400;-3400;-3500;-3500;-3600;-3600"/>
<animate attributeName="cx" dur="53.480000000000004s" keyTimes="0.0;0.0052083333;0.0260416667;0.03125;0.0364583333;0.0416666667;0.046875;0.0677083333;0.0729166667;0.078125;0.0833333333;0.09375;0.0989583333;0.1041666667;0.109375;0.1145833333;0.140625;0.1458333333;0.1510416667;0.1666666667;0.171875;0.1770833333;0.1927083333;0.1979166667;0.2083333333;0.2135416667;0.2239583333;0.2291666667;0.2604166667;0.265625;0.2760416667;0.28125;0.2864583333;0.2916666667;0.296875;0.3020833333;0.3072916667;0.3125;0.3177083333;0.3229166667;0.328125;0.3333333333;0.3489583333;0.3541666667;0.359375;0.3645833333;0.3697916667;0.375;0.3802083333;0.3958333333;0.4010416667;0.40625;0.4114583333;0.4166666667;0.421875;0.4270833333;0.4322916667;0.4375;0.453125;0.4583333333;0.4895833333;0.4947916667;0.5;0.5052083333;0.515625;0.5208333333;0.53125;0.5364583333;0.5416666667;0.546875;0.5729166667;0.578125;0.5833333333;0.59375;0.5989583333;0.6041666667;0.609375;0.6145833333;0.640625;0.6458333333;0.6510416667;0.65625;0.6614583333;0.6666666667;0.671875;0.6770833333;0.6822916667;0.6875;0.6927083333;0.6979166667;0.703125;0.7239583333;0.7291666667;0.734375;0.7395833333;0.7447916667;0.7552083333;0.7604166667;0.765625;0.7708333333;0.7760416667;0.78125;0.796875;0.8020833333;0.8125;0.8177083333;0.8229166667;0.828125;0.84375;0.8489583333;0.8541666667;0.859375;0.8854166667;0.890625;0.9010416667;0.90625;0.9166666667;0.921875;0.9375;0.9427083333;0.953125;0.9583333333;0.96875;0.9739583333;0.9791666667;0.984375;0.9895833333;0.9947916667;1.0" repeatCount="indefinite" values="3000;3000;3000;3100;3000;3100;3000;3000;3100;3000;2900;2900;2800;2800;2900;2800;2800;2900;2800;2800;2900;3000;3000;2900;2900;2800;2800;2700;2700;2600;2600;2700;2700;2600;2600;2500;2500;2400;2300;2200;2200;2300;2300;2200;2300;2200;2200;2100;2000;2000;2100;2000;2100;2100;2000;2100;2200;2300;2300;2400;2400;2500;2500;2600;2600;2500;2500;2600;2500;2400;2400;2300;2200;2200;2100;2200;2200;2100;2100;2200;2200;2300;2300;2200;2200;2300;2200;2100;2100;2200;2100;2100;2000;2100;2100;2200;2200;2300;2300;2200;2100;2000;2000;2100;2100;2000;2000;1900;1900;2000;2100;2000;2000;1900;1900;1800;1800;1700;1700;1600;1600;1700;1700;1600;1600;1700;1700;1600;1600"/>
<animate attributeName="visibility" dur="53.480000000000004s" keyTimes="0.0;0.0052083333;1.0" repeatCount="indefinite" values="visible;visible;visible"/> </circle>
<circle cx="3500" cy="-3000" fill="none" r="35" stroke="#c1433c" stroke-width="10"> <animate attributeName="cy" dur="53.480000000000004s" keyTimes="0.0;0.0052083333;0.1354166667;0.140625;0.265625;0.2708333333;0.3958333333;0.4010416667;0.5;0.5052083333;0.546875;0.5520833333;0.5833333333;0.5885416667;0.7395833333;0.7447916667;0.8229166667;0.828125;0.90625;0.9114583333;1.0" repeatCount="indefinite" values="-3000;-3000;-3000;-1100;-1100;-2300;-2300;-2200;-2200;-2600;-2600;-3200;-3200;-800;-800;-1300;-1300;-1700;-1700;-2500;-2500"/>
<animate attributeName="cx" dur="53.480000000000004s" keyTimes="0.0;0.0052083333;0.1354166667;0.140625;0.265625;0.2708333333;0.3958333333;0.4010416667;0.5;0.5052083333;0.546875;0.5520833333;0.5833333333;0.5885416667;0.7395833333;0.7447916667;0.8229166667;0.828125;0.90625;0.9114583333;1.0" repeatCount="indefinite" values="3500;3500;3500;2900;2900;1600;1600;3300;3300;2800;2800;2900;2900;2300;2300;3400;3400;2200;2200;3200;3200"/>
<animate attributeName="visibility" dur="53.480000000000004s" keyTimes="0.0;0.0052083333;1.0" repeatCount="indefinite" values="visible;visible;visible"/> </circle>
<circle cx="2600" cy="-2600" fill="none" r="35" stroke="#2e6f9e" stroke-width="10"> <animate attributeName="cy" dur="53.480000000000004s" keyTimes="0.0;0.0052083333;1.0" repeatCount="indefinite" values="-2600;-2600;-2600"/>
<animate attributeName="cx" dur="53.480000000000004s" keyTimes="0.0;0.0052083333;1.0" repeatCount="indefinite" values="2600;2600;2600"/>
<animate attributeName="visibility" dur="53.480000000000004s" keyTimes="0.0;0.0052083333;1.0" repeatCount="indefinite" values="visible;visible;visible"/> </circle>
</svg>