<?xml version="1.0" encoding="UTF-8"?>
        <svg xmlns="http://www.w3.org/2000/svg" xmlns:xlink="http://www.w3.org/1999/xlink"
             width="512" height="512" viewBox="0 -3500 3500 3500">
<defs>

        <rect id="obstacle" width="70" height="70" fill="#84A1AE" rx="15"/>
        <style>
        .line {stroke: #84A1AE; stroke-width: 10;}
        .agent {r: 35;}
        .target {fill: none; stroke-width: 10; r: 35;}
        </style>
        
</defs>

<line class="line" x1="-50.0" x2="-50.0" y1="0" y2="-3500" />
<line class="line" x1="50.0" x2="50.0" y1="0" y2="-3500" />
<line class="line" x1="150.0" x2="150.0" y1="0" y2="-3500" />
<line class="line" x1="250.0" x2="250.0" y1="0" y2="-3500" />
<line class="line" x1="350.0" x2="350.0" y1="0" y2="-3500" />
<line class="line" x1="450.0" x2="450.0" y1="0" y2="-3500" />
<line class="line" x1="550.0" x2="550.0" y1="0" y2="-3500" />
<line class="line" x1="650.0" x2="650.0" y1="0" y2="-3500" />
<line class="line" x1="750.0" x2="750.0" y1="0" y2="-3500" />
<line class="line" x1="850.0" x2="850.0" y1="0" y2="-3500" />
<line class="line" x1="950.0" x2="950.0" y1="0" y2="-3500" />
<line class="line" x1="1050.0" x2="1050.0" y1="0" y2="-3500" />
<line class="line" x1="1150.0" x2="1150.0" y1="0" y2="-3500" />
<line class="line" x1="1250.0" x2="1250.0" y1="0" y2="-3500" />
<line class="line" x1="1350.0" x2="1350.0" y1="0" y2="-3500" />
<line class="line" x1="1450.0" x2="1450.0" y1="0" y2="-3500" />
<line class="line" x1="1550.0" x2="1550.0" y1="0" y2="-3500" />
<line class="line" x1="1650.0" x2="1650.0" y1="0" y2="-3500" />
<line class="line" x1="1750.0" x2="1750.0" y1="0" y2="-3500" />
<line class="line" x1="1850.0" x2="1850.0" y1="0" y2="-3500" />
<line class="line" x1="1950.0" x2="1950.0" y1="0" y2="-3500" />
<line class="line" x1="2050.0" x2="2050.0" y1="0" y2="-3500" />
<line class="line" x1="2150.0" x2="2150.0" y1="0" y2="-3500" />
<line class="line" x1="2250.0" x2="2250.0" y1="0" y2="-3500" />
<line class="line" x1="2350.0" x2="2350.0" y1="0" y2="-3500" />
<line class="line" x1="2450.0" x2="2450.0" y1="0" y2="-3500" />
<line class="line" x1="2550.0" x2="2550.0" y1="0" y2="-3500" />
<line class="line" x1="2650.0" x2="2650.0" y1="0" y2="-3500" />
<line class="line" x1="2750.0" x2="2750.0" y1="0" y2="-3500" />
<line class="line" x1="2850.0" x2="2850.0" y1="0" y2="-3500" />
<line class="line" x1="2950.0" x2="2950.0" y1="0" y2="-3500" />
<line class="line" x1="3050.0" x2="3050.0" y1="0" y2="-3500" />
<line class="line" x1="3150.0" x2="3150.0" y1="0" y2="-3500" />
<line class="line" x1="3250.0" x2="3250.0" y1="0" y2="-3500" />
<line class="line" x1="3350.0" x2="3350.0" y1="0" y2="-3500" />
<line class="line" x1="3450.0" x2="3450.0" y1="0" y2="-3500" />
<line class="line" x1="0" x2="3500" y1="50.0" y2="50.0" />
<line class="line" x1="0" x2="3500" y1="-50.0" y2="-50.0" />
<line class="line" x1="0" x2="3500" y1="-150.0" y2="-150.0" />
<line class="line" x1="0" x2="3500" y1="-250.0" y2="-250.0" />
<line class="line" x1="0" x2="3500" y1="-350.0" y2="-350.0" />
<line class="line" x1="0" x2="3500" y1="-450.0" y2="-450.0" />
<line class="line" x1="0" x2="3500" y1="-550.0" y2="-550.0" />
<line class="line" x1="0" x2="3500" y1="-650.0" y2="-650.0" />
<line class="line" x1="0" x2="3500" y1="-750.0" y2="-750.0" />
<line class="line" x1="0" x2="3500" y1="-850.0" y2="-850.0" />
<line class="line" x1="0" x2="3500" y1="-950.0" y2="-950.0" />
<line class="line" x1="0" x2="3500" y1="-1050.0" y2="-1050.0" />
<line class="line" x1="0" x2="3500" y1="-1150.0" y2="-1150.0" />
<line class="line" x1="0" x2="3500" y1="-1250.0" y2="-1250.0" />
<line class="line" x1="0" x2="3500" y1="-1350.0" y2="-1350.0" />
<line class="line" x1="0" x2="3500" y1="-1450.0" y2="-1450.0" />
<line class="line" x1="0" x2="3500" y1="-1550.0" y2="-1550.0" />
<line class="line" x1="0" x2="3500" y1="-1650.0" y2="-1650.0" />
<line class="line" x1="0" x2="3500" y1="-1750.0" y2="-1750.0" />
<line class="line" x1="0" x2="3500" y1="-1850.0" y2="-1850.0" />
<line class="line" x1="0" x2="3500" y1="-1950.0" y2="-1950.0" />
<line class="line" x1="0" x2="3500" y1="-2050.0" y2="-2050.0" />
<line class="line" x1="0" x2="3500" y1="-2150.0" y2="-2150.0" />
<line class="line" x1="0" x2="3500" y1="-2250.0" y2="-2250.0" />
<line class="line" x1="0" x2="3500" y1="-2350.0" y2="-2350.0" />
<line class="line" x1="0" x2="3500" y1="-2450.0" y2="-2450.0" />
<line class="line" x1="0" x2="3500" y1="-2550.0" y2="-2550.0" />
<line class="line" x1="0" x2="3500" y1="-2650.0" y2="-2650.0" />
<line class="line" x1="0" x2="3500" y1="-2750.0" y2="-2750.0" />
<line class="line" x1="0" x2="3500" y1="-2850.0" y2="-2850.0" />
<line class="line" x1="0" x2="3500" y1="-2950.0" y2="-2950.0" />
<line class="line" x1="0" x2="3500" y1="-3050.0" y2="-3050.0" />
<line class="line" x1="0" x2="3500" y1="-3150.0" y2="-3150.0" />
<line class="line" x1="0" x2="3500" y1="-3250.0" y2="-3250.0" />
<line class="line" x1="0" x2="3500" y1="-3350.0" y2="-3350.0" />
<line class="line" x1="0" x2="3500" y1="-3450.0" y2="-3450.0" />
<use href="#obstacle" x="65" y="-135" />
<use href="#obstacle" x="65" y="-235" />
<use href="#obstacle" x="65" y="-335" />
<use href="#obstacle" x="65" y="-435" />
<use href="#obstacle" x="65" y="-535" />
<use href="#obstacle" x="65" y="-635" />
<use href="#obstacle" x="65" y="-735" />
<use href="#obstacle" x="65" y="-835" />
<use href="#obstacle" x="65" y="-935" />
<use href="#obstacle" x="65" y="-1035" />
<use href="#obstacle" x="65" y="-1135" />
<use href="#obstacle" x="65" y="-1235" />
<use href="#obstacle" x="65" y="-1335" />
<use href="#obstacle" x="65" y="-1435" />
<use href="#obstacle" x="65" y="-1535" />
<use href="#obstacle" x="65" y="-1635" />
<use href="#obstacle" x="65" y="-1735" />
<use href="#obstacle" x="65" y="-1835" />
<use href="#obstacle" x="65" y="-1935" />
<use href="#obstacle" x="65" y="-2035" />
<use href="#obstacle" x="65" y="-2135" />
<use href="#obstacle" x="65" y="-2235" />
<use href="#obstacle" x="65" y="-2335" />
<use href="#obstacle" x="65" y="-2435" />
<use href="#obstacle" x="65" y="-2535" />
<use href="#obstacle" x="65" y="-2635" />
<use href="#obstacle" x="65" y="-2735" />
<use href="#obstacle" x="65" y="-2835" />
<use href="#obstacle" x="65" y="-2935" />
<use href="#obstacle" x="65" y="-3035" />
<use href="#obstacle" x="65" y="-3135" />
<use href="#obstacle" x="65" y="-3235" />
<use href="#obstacle" x="65" y="-3335" />
<use href="#obstacle" x="65" y="-3435" />
<use href="#obstacle" x="165" y="-135" />
<use href="#obstacle" x="165" y="-335" />
<use href="#obstacle" x="165" y="-435" />
<use href="#obstacle" x="165" y="-635" />
<use href="#obstacle" x="165" y="-1535" />
<use href="#obstacle" x="165" y="-1835" />
<use href="#obstacle" x="165" y="-2235" />
<use href="#obstacle" x="165" y="-2335" />
<use href="#obstacle" x="165" y="-2435" />
<use href="#obstacle" x="165" y="-2535" />
<use href="#obstacle" x="165" y="-3235" />
<use href="#obstacle" x="165" y="-3435" />
<use href="#obstacle" x="265" y="-135" />
<use href="#obstacle" x="265" y="-535" />
<use href="#obstacle" x="265" y="-635" />
<use href="#obstacle" x="265" y="-735" />
<use href="#obstacle" x="265" y="-835" />
<use href="#obstacle" x="265" y="-1335" />
<use href="#obstacle" x="265" y="-1935" />
<use href="#obstacle" x="265" y="-2035" />
<use href="#obstacle" x="265" y="-2235" />
<use href="#obstacle" x="265" y="-3135" />
<use href="#obstacle" x="265" y="-3335" />
<use href="#obstacle" x="265" y="-3435" />
<use href="#obstacle" x="365" y="-135" />
<use href="#obstacle" x="365" y="-1035" />
<use href="#obstacle" x="365" y="-1435" />
<use href="#obstacle" x="365" y="-1535" />
<use href="#obstacle" x="365" y="-1835" />
<use href="#obstacle" x="365" y="-2735" />
<use href="#obstacle" x="365" y="-3235" />
<use href="#obstacle" x="365" y="-3335" />
<use href="#obstacle" x="365" y="-3435" />
<use href="#obstacle" x="465" y="-135" />
<use href="#obstacle" x="465" y="-335" />
<use href="#obstacle" x="465" y="-835" />
<use href="#obstacle" x="465" y="-1235" />
<use href="#obstacle" x="465" y="-1535" />
<use href="#obstacle" x="465" y="-1635" />
<use href="#obstacle" x="465" y="-1735" />
<use href="#obstacle" x="465" y="-2435" />
<use href="#obstacle" x="465" y="-2735" />
<use href="#obstacle" x="465" y="-2935" />
<use href="#obstacle" x="465" y="-3335" />
<use href="#obstacle" x="465" y="-3435" />
<use href="#obstacle" x="565" y="-135" />
<use href="#obstacle" x="565" y="-335" />
<use href="#obstacle" x="565" y="-535" />
<use href="#obstacle" x="565" y="-3335" />
<use href="#obstacle" x="565" y="-3435" />
<use href="#obstacle" x="665" y="-135" />
<use href="#obstacle" x="665" y="-535" />
<use href="#obstacle" x="665" y="-635" />
<use href="#obstacle" x="665" y="-1335" />
<use href="#obstacle" x="665" y="-1435" />
<use href="#obstacle" x="665" y="-1535" />
<use href="#obstacle" x="665" y="-1635" />
<use href="#obstacle" x="665" y="-1735" />
<use href="#obstacle" x="665" y="-1835" />
<use href="#obstacle" x="665" y="-2335" />
<use href="#obstacle" x="665" y="-2935" />
<use href="#obstacle" x="665" y="-3335" />
<use href="#obstacle" x="665" y="-3435" />
<use href="#obstacle" x="765" y="-135" />
<use href="#obstacle" x="765" y="-235" />
<use href="#obstacle" x="765" y="-1035" />
<use href="#obstacle" x="765" y="-1435" />
<use href="#obstacle" x="765" y="-1735" />
<use href="#obstacle" x="765" y="-2635" />
<use href="#obstacle" x="765" y="-3135" />
<use href="#obstacle" x="765" y="-3435" />
<use href="#obstacle" x="865" y="-135" />
<use href="#obstacle" x="865" y="-335" />
<use href="#obstacle" x="865" y="-435" />
<use href="#obstacle" x="865" y="-1135" />
<use href="#obstacle" x="865" y="-1535" />
<use href="#obstacle" x="865" y="-1635" />
<use href="#obstacle" x="865" y="-2135" />
<use href="#obstacle" x="865" y="-2335" />
<use href="#obstacle" x="865" y="-2635" />
<use href="#obstacle" x="865" y="-2735" />
<use href="#obstacle" x="865" y="-2835" />
<use href="#obstacle" x="865" y="-3335" />
<use href="#obstacle" x="865" y="-3435" />
<use href="#obstacle" x="965" y="-135" />
<use href="#obstacle" x="965" y="-635" />
<use href="#obstacle" x="965" y="-1335" />
<use href="#obstacle" x="965" y="-1435" />
<use href="#obstacle" x="965" y="-1635" />
<use href="#obstacle" x="965" y="-2635" />
<use href="#obstacle" x="965" y="-3435" />
<use href="#obstacle" x="1065" y="-135" />
<use href="#obstacle" x="1065" y="-335" />
<use href="#obstacle" x="1065" y="-735" />
<use href="#obstacle" x="1065" y="-1335" />
<use href="#obstacle" x="1065" y="-1435" />
<use href="#obstacle" x="1065" y="-1735" />
<use href="#obstacle" x="1065" y="-1935" />
<use href="#obstacle" x="1065" y="-2035" />
<use href="#obstacle" x="1065" y="-2135" />
<use href="#obstacle" x="1065" y="-2735" />
<use href="#obstacle" x="1065" y="-3435" />
<use href="#obstacle" x="1165" y="-135" />
<use href="#obstacle" x="1165" y="-235" />
<use href="#obstacle" x="1165" y="-635" />
<use href="#obstacle" x="1165" y="-1235" />
<use href="#obstacle" x="1165" y="-1335" />
<use href="#obstacle" x="1165" y="-1635" />
<use href="#obstacle" x="1165" y="-1735" />
<use href="#obstacle" x="1165" y="-1935" />
<use href="#obstacle" x="1165" y="-2535" />
<use href="#obstacle" x="1165" y="-2835" />
<use href="#obstacle" x="1165" y="-2935" />
<use href="#obstacle" x="1165" y="-3035" />
<use href="#obstacle" x="1165" y="-3235" />
<use href="#obstacle" x="1165" y="-3335" />
<use href="#obstacle" x="1165" y="-3435" />
<use href="#obstacle" x="1265" y="-135" />
<use href="#obstacle" x="1265" y="-635" />
<use href="#obstacle" x="1265" y="-735" />
<use href="#obstacle" x="1265" y="-1035" />
<use href="#obstacle" x="1265" y="-1135" />
<use href="#obstacle" x="1265" y="-1635" />
<use href="#obstacle" x="1265" y="-2135" />
<use href="#obstacle" x="1265" y="-2235" />
<use href="#obstacle" x="1265" y="-2335" />
<use href="#obstacle" x="1265" y="-2635" />
<use href="#obstacle" x="1265" y="-3235" />
<use href="#obstacle" x="1265" y="-3435" />
<use href="#obstacle" x="1365" y="-135" />
<use href="#obstacle" x="1365" y="-335" />
<use href="#obstacle" x="1365" y="-535" />
<use href="#obstacle" x="1365" y="-635" />
<use href="#obstacle" x="1365" y="-835" />
<use href="#obstacle" x="1365" y="-935" />
<use href="#obstacle" x="1365" y="-1335" />
<use href="#obstacle" x="1365" y="-1735" />
<use href="#obstacle" x="1365" y="-2035" />
<use href="#obstacle" x="1365" y="-2135" />
<use href="#obstacle" x="1365" y="-2235" />
<use href="#obstacle" x="1365" y="-2335" />
<use href="#obstacle" x="1365" y="-2635" />
<use href="#obstacle" x="1365" y="-2735" />
<use href="#obstacle" x="1365" y="-2935" />
<use href="#obstacle" x="1365" y="-3235" />
<use href="#obstacle" x="1365" y="-3435" />
<use href="#obstacle" x="1465" y="-135" />
<use href="#obstacle" x="1465" y="-435" />
<use href="#obstacle" x="1465" y="-935" />
<use href="#obstacle" x="1465" y="-1035" />
<use href="#obstacle" x="1465" y="-1135" />
<use href="#obstacle" x="1465" y="-1235" />
<use href="#obstacle" x="1465" y="-1535" />
<use href="#obstacle" x="1465" y="-1935" />
<use href="#obstacle" x="1465" y="-2035" />
<use href="#obstacle" x="1465" y="-2635" />
<use href="#obstacle" x="1465" y="-2935" />
<use href="#obstacle" x="1465" y="-3435" />
<use href="#obstacle" x="1565" y="-135" />
<use href="#obstacle" x="1565" y="-1035" />
<use href="#obstacle" x="1565" y="-1335" />
<use href="#obstacle" x="1565" y="-1635" />
<use href="#obstacle" x="1565" y="-1735" />
<use href="#obstacle" x="1565" y="-2935" />
<use href="#obstacle" x="1565" y="-3435" />
<use href="#obstacle" x="1665" y="-135" />
<use href="#obstacle" x="1665" y="-635" />
<use href="#obstacle" x="1665" y="-735" />
<use href="#obstacle" x="1665" y="-835" />
<use href="#obstacle" x="1665" y="-1535" />
<use href="#obstacle" x="1665" y="-1735" />
<use href="#obstacle" x="1665" y="-2635" />
<use href="#obstacle" x="1665" y="-2835" />
<use href="#obstacle" x="1665" y="-2935" />
<use href="#obstacle" x="1665" y="-3435" />
<use href="#obstacle" x="1765" y="-135" />
<use href="#obstacle" x="1765" y="-1235" />
<use href="#obstacle" x="1765" y="-1535" />
<use href="#obstacle" x="1765" y="-1935" />
<use href="#obstacle" x="1765" y="-2535" />
<use href="#obstacle" x="1765" y="-2835" />
<use href="#obstacle" x="1765" y="-3435" />
<use href="#obstacle" x="1865" y="-135" />
<use href="#obstacle" x="1865" y="-735" />
<use href="#obstacle" x="1865" y="-1135" />
<use href="#obstacle" x="1865" y="-1335" />
<use href="#obstacle" x="1865" y="-1835" />
<use href="#obstacle" x="1865" y="-2335" />
<use href="#obstacle" x="1865" y="-3435" />
<use href="#obstacle" x="1965" y="-135" />
<use href="#obstacle" x="1965" y="-435" />
<use href="#obstacle" x="1965" y="-635" />
<use href="#obstacle" x="1965" y="-935" />
<use href="#obstacle" x="1965" y="-1035" />
<use href="#obstacle" x="1965" y="-1735" />
<use href="#obstacle" x="1965" y="-2035" />
<use href="#obstacle" x="1965" y="-2435" />
<use href="#obstacle" x="1965" y="-2535" />
<use href="#obstacle" x="1965" y="-2935" />
<use href="#obstacle" x="1965" y="-3335" />
<use href="#obstacle" x="1965" y="-3435" />
<use href="#obstacle" x="2065" y="-135" />
<use href="#obstacle" x="2065" y="-635" />
<use href="#obstacle" x="2065" y="-835" />
<use href="#obstacle" x="2065" y="-1035" />
<use href="#obstacle" x="2065" y="-1135" />
<use href="#obstacle" x="2065" y="-1235" />
<use href="#obstacle" x="2065" y="-1435" />
<use href="#obstacle" x="2065" y="-1635" />
<use href="#obstacle" x="2065" y="-1935" />
<use href="#obstacle" x="2065" y="-2035" />
<use href="#obstacle" x="2065" y="-2735" />
<use href="#obstacle" x="2065" y="-2835" />
<use href="#obstacle" x="2065" y="-3335" />
<use href="#obstacle" x="2065" y="-3435" />
<use href="#obstacle" x="2165" y="-135" />
<use href="#obstacle" x="2165" y="-1235" />
<use href="#obstacle" x="2165" y="-1535" />
<use href="#obstacle" x="2165" y="-2035" />
<use href="#obstacle" x="2165" y="-2135" />
<use href="#obstacle" x="2165" y="-2235" />
<use href="#obstacle" x="2165" y="-2335" />
<use href="#obstacle" x="2165" y="-2435" />
<use href="#obstacle" x="2165" y="-3435" />
<use href="#obstacle" x="2265" y="-135" />
<use href="#obstacle" x="2265" y="-535" />
<use href="#obstacle" x="2265" y="-1035" />
<use href="#obstacle" x="2265" y="-1135" />
<use href="#obstacle" x="2265" y="-1335" />
<use href="#obstacle" x="2265" y="-1535" />
<use href="#obstacle" x="2265" y="-1635" />
<use href="#obstacle" x="2265" y="-1935" />
<use href="#obstacle" x="2265" y="-2535" />
<use href="#obstacle" x="2265" y="-2635" />
<use href="#obstacle" x="2265" y="-2735" />
<use href="#obstacle" x="2265" y="-2835" />
<use href="#obstacle" x="2265" y="-3035" />
<use href="#obstacle" x="2265" y="-3135" />
<use href="#obstacle" x="2265" y="-3435" />
<use href="#obstacle" x="2365" y="-135" />
<use href="#obstacle" x="2365" y="-435" />
<use href="#obstacle" x="2365" y="-635" />
<use href="#obstacle" x="2365" y="-1735" />
<use href="#obstacle" x="2365" y="-2035" />
<use href="#obstacle" x="2365" y="-2235" />
<use href="#obstacle" x="2365" y="-2535" />
<use href="#obstacle" x="2365" y="-2635" />
<use href="#obstacle" x="2365" y="-2835" />
<use href="#obstacle" x="2365" y="-3435" />
<use href="#obstacle" x="2465" y="-135" />
<use href="#obstacle" x="2465" y="-635" />
<use href="#obstacle" x="2465" y="-735" />
<use href="#obstacle" x="2465" y="-935" />
<use href="#obstacle" x="2465" y="-1335" />
<use href="#obstacle" x="2465" y="-2035" />
<use href="#obstacle" x="2465" y="-2135" />
<use href="#obstacle" x="2465" y="-2735" />
<use href="#obstacle" x="2465" y="-2835" />
<use href="#obstacle" x="2465" y="-3135" />
<use href="#obstacle" x="2465" y="-3235" />
<use href="#obstacle" x="2465" y="-3335" />
<use href="#obstacle" x="2465" y="-3435" />
<use href="#obstacle" x="2565" y="-135" />
<use href="#obstacle" x="2565" y="-235" />
<use href="#obstacle" x="2565" y="-335" />
<use href="#obstacle" x="2565" y="-535" />
<use href="#obstacle" x="2565" y="-1135" />
<use href="#obstacle" x="2565" y="-1535" />
<use href="#obstacle" x="2565" y="-1935" />
<use href="#obstacle" x="2565" y="-2435" />
<use href="#obstacle" x="2565" y="-2535" />
<use href="#obstacle" x="2565" y="-2635" />
<use href="#obstacle" x="2565" y="-3435" />
<use href="#obstacle" x="2665" y="-135" />
<use href="#obstacle" x="2665" y="-235" />
<use href="#obstacle" x="2665" y="-735" />
<use href="#obstacle" x="2665" y="-1035" />
<use href="#obstacle" x="2665" y="-1235" />
<use href="#obstacle" x="2665" y="-1335" />
<use href="#obstacle" x="2665" y="-1435" />
<use href="#obstacle" x="2665" y="-1635" />
<use href="#obstacle" x="2665" y="-2135" />
<use href="#obstacle" x="2665" y="-2435" />
<use href="#obstacle" x="2665" y="-3335" />
<use href="#obstacle" x="2665" y="-3435" />
<use href="#obstacle" x="2765" y="-135" />
<use href="#obstacle" x="2765" y="-735" />
<use href="#obstacle" x="2765" y="-835" />
<use href="#obstacle" x="2765" y="-1035" />
<use href="#obstacle" x="2765" y="-1135" />
<use href="#obstacle" x="2765" y="-2035" />
<use href="#obstacle" x="2765" y="-2135" />
<use href="#obstacle" x="2765" y="-2335" />
<use href="#obstacle" x="2765" y="-2635" />
<use href="#obstacle" x="2765" y="-2735" />
<use href="#obstacle" x="2765" y="-3035" />
<use href="#obstacle" x="2765" y="-3135" />
<use href="#obstacle" x="2765" y="-3235" />
<use href="#obstacle" x="2765" y="-3435" />
<use href="#obstacle" x="2865" y="-135" />
<use href="#obstacle" x="2865" y="-535" />
<use href="#obstacle" x="2865" y="-1135" />
<use href="#obstacle" x="2865" y="-1235" />
<use href="#obstacle" x="2865" y="-1335" />
<use href="#obstacle" x="2865" y="-3235" />
<use href="#obstacle" x="2865" y="-3435" />
<use href="#obstacle" x="2965" y="-135" />
<use href="#obstacle" x="2965" y="-335" />
<use href="#obstacle" x="2965" y="-735" />
<use href="#obstacle" x="2965" y="-1235" />
<use href="#obstacle" x="2965" y="-1535" />
<use href="#obstacle" x="2965" y="-1635" />
<use href="#obstacle" x="2965" y="-2035" />
<use href="#obstacle" x="2965" y="-2435" />
<use href="#obstacle" x="2965" y="-2635" />
<use href="#obstacle" x="2965" y="-2935" />
<use href="#obstacle" x="2965" y="-3235" />
<use href="#obstacle" x="2965" y="-3335" />
<use href="#obstacle" x="2965" y="-3435" />
<use href="#obstacle" x="3065" y="-135" />
<use href="#obstacle" x="3065" y="-535" />
<use href="#obstacle" x="3065" y="-635" />
<use href="#obstacle" x="3065" y="-935" />
<use href="#obstacle" x="3065" y="-1035" />
<use href="#obstacle" x="3065" y="-1135" />
<use href="#obstacle" x="3065" y="-1335" />
<use href="#obstacle" x="3065" y="-2635" />
<use href="#obstacle" x="3065" y="-2735" />
<use href="#obstacle" x="3065" y="-3035" />
<use href="#obstacle" x="3065" y="-3235" />
<use href="#obstacle" x="3065" y="-3335" />
<use href="#obstacle" x="3065" y="-3435" />
<use href="#obstacle" x="3165" y="-135" />
<use href="#obstacle" x="3165" y="-435" />
<use href="#obstacle" x="3165" y="-835" />
<use href="#obstacle" x="3165" y="-1535" />
<use href="#obstacle" x="3165" y="-2235" />
<use href="#obstacle" x="3165" y="-2335" />
<use href="#obstacle" x="3165" y="-2535" />
<use href="#obstacle" x="3165" y="-2835" />
<use href="#obstacle" x="3165" y="-3435" />
<use href="#obstacle" x="3265" y="-135" />
<use href="#obstacle" x="3265" y="-635" />
<use href="#obstacle" x="3265" y="-1235" />
<use href="#obstacle" x="3265" y="-1535" />
<use href="#obstacle" x="3265" y="-1635" />
<use href="#obstacle" x="3265" y="-2235" />
<use href="#obstacle" x="3265" y="-2335" />
<use href="#obstacle" x="3265" y="-2435" />
<use href="#obstacle" x="3265" y="-2535" />
<use href="#obstacle" x="3265" y="-2635" />
<use href="#obstacle" x="3265" y="-2735" />
<use href="#obstacle" x="3265" y="-2835" />
<use href="#obstacle" x="3265" y="-3435" />
<use href="#obstacle" x="3365" y="-135" />
<use href="#obstacle" x="3365" y="-235" />
<use href="#obstacle" x="3365" y="-335" />
<use href="#obstacle" x="3365" y="-435" />
<use href="#obstacle" x="3365" y="-535" />
<use href="#obstacle" x="3365" y="-635" />
<use href="#obstacle" x="3365" y="-735" />
<use href="#obstacle" x="3365" y="-835" />
<use href="#obstacle" x="3365" y="-935" />
<use href="#obstacle" x="3365" y="-1035" />
<use href="#obstacle" x="3365" y="-1135" />
<use href="#obstacle" x="3365" y="-1235" />
<use href="#obstacle" x="3365" y="-1335" />
<use href="#obstacle" x="3365" y="-1435" />
<use href="#obstacle" x="3365" y="-1535" />
<use href="#obstacle" x="3365" y="-1635" />
<use href="#obstacle" x="3365" y="-1735" />
<use href="#obstacle" x="3365" y="-1835" />
<use href="#obstacle" x="3365" y="-1935" />
<use href="#obstacle" x="3365" y="-2035" />
<use href="#obstacle" x="3365" y="-2135" />
<use href="#obstacle" x="3365" y="-2235" />
<use href="#obstacle" x="3365" y="-2335" />
<use href="#obstacle" x="3365" y="-2435" />
<use href="#obstacle" x="3365" y="-2535" />
<use href="#obstacle" x="3365" y="-2635" />
<use href="#obstacle" x="3365" y="-2735" />
<use href="#obstacle" x="3365" y="-2835" />
<use href="#obstacle" x="3365" y="-2935" />
<use href="#obstacle" x="3365" y="-3035" />
<use href="#obstacle" x="3365" y="-3135" />
<use href="#obstacle" x="3365" y="-3235" />
<use href="#obstacle" x="3365" y="-3335" />
<use href="#obstacle" x="3365" y="-3435" />
<circle class="agent" cx="1200" cy="-3100" fill="#c1433c" r="35"> <animate attributeName="cy" dur="14.0s" keyTimes="0.0;0.0175438596;0.0350877193;0.0526315789;0.0701754386;0.0877192982;0.1052631579;0.1403508772;0.1578947368;0.2105263158;0.2280701754;0.2456140351;0.2631578947;0.2807017544;0.298245614;0.3157894737;0.3333333333;0.350877193;0.3684210526;0.3859649123;0.4210526316;0.4385964912;0.4561403509;0.4736842105;0.4912280702;0.5087719298;0.5263157895;0.5438596491;0.5614035088;0.5789473684;0.6140350877;0.6315789474;0.649122807;0.6842105263;0.701754386;0.7368421053;0.7543859649;0.7719298246;0.7894736842;0.8070175439;0.8245614035;0.8596491228;0.8771929825;0.8947368421;0.9122807018;0.9298245614;0.9473684211;0.9649122807;0.9824561404;1.0" repeatCount="indefinite" values="-3100;-3100;-3100;-3000;-2900;-2800;-2700;-2700;-2800;-2800;-2700;-2600;-2500;-2400;-2300;-2200;-2100;-2000;-1900;-1800;-1800;-1700;-1600;-1600;-1500;-1400;-1400;-1300;-1200;-1100;-1100;-1200;-1300;-1300;-1400;-1400;-1300;-1200;-1100;-1000;-900;-900;-800;-700;-600;-500;-400;-300;-200;-200"/>
<animate attributeName="cx" dur="14.0s" keyTimes="0.0;0.0175438596;0.0350877193;0.1578947368;0.1754385965;0.1929824561;0.2105263158;0.3859649123;0.4035087719;0.4210526316;0.4561403509;0.4736842105;0.5087719298;0.5263157895;0.649122807;0.6666666667;0.6842105263;0.701754386;0.7192982456;0.7368421053;0.8245614035;0.8421052632;0.8596491228;1.0" repeatCount="indefinite" values="1200;1200;1300;1300;1400;1500;1600;1600;1700;1800;1800;1900;1900;2000;2000;2100;2200;2200;2300;2400;2400;2300;2200;2200"/>
<animate attributeName="visibility" dur="14.0s" keyTimes="0.0;0.0175438596;1.0" repeatCount="indefinite" values="visible;visible;visible"/> </circle>
<circle class="agent" cx="1800" cy="-1000" fill="#2e6f9e" r="35"> <animate attributeName="cy" dur="14.0s" keyTimes="0.0;0.0175438596;0.0350877193;0.0526315789;0.0701754386;0.0877192982;0.1052631579;0.1403508772;0.1578947368;0.2456140351;0.2631578947;0.3157894737;0.3333333333;1.0" repeatCount="indefinite" values="-1000;-1000;-900;-900;-800;-800;-700;-700;-800;-800;-900;-900;-800;-800"/>
<animate attributeName="cx" dur="14.0s" keyTimes="0.0;0.0175438596;0.0350877193;0.0526315789;0.0701754386;0.0877192982;0.1052631579;0.1228070175;0.1403508772;0.1578947368;0.1754385965;0.1929824561;0.2105263158;0.2280701754;0.2456140351;0.2631578947;0.2807017544;0.298245614;0.3157894737;1.0" repeatCount="indefinite" values="1800;1800;1800;1900;1900;2000;2000;2100;2200;2200;2300;2400;2500;2600;2700;2700;2800;2900;3000;3000"/>
<animate attributeName="visibility" dur="14.0s" keyTimes="0.0;0.0175438596;1.0" repeatCount="indefinite" values="visible;visible;visible"/> </circle>
<circle class="agent" cx="900" cy="-2400" fill="#6e81af" r="35"> <animate attributeName="cy" dur="14.0s" keyTimes="0.0;0.0175438596;0.1929824561;0.2105263158;0.2280701754;0.2807017544;0.298245614;0.3157894737;0.3333333333;0.4210526316;0.4385964912;0.4561403509;0.4736842105;0.4912280702;1.0" repeatCount="indefinite" values="-2400;-2400;-2400;-2500;-2600;-2600;-2700;-2800;-2900;-2900;-2800;-2700;-2600;-2500;-2500"/>
<animate attributeName="cx" dur="14.0s" keyTimes="0.0;0.0175438596;0.0350877193;0.0526315789;0.0701754386;0.0877192982;0.1052631579;0.1228070175;0.1403508772;0.1578947368;0.1754385965;0.1929824561;0.2280701754;0.2456140351;0.2631578947;0.2807017544;0.3333333333;0.350877193;0.3684210526;0.3859649123;0.4035087719;0.4210526316;0.4912280702;0.5087719298;0.5263157895;0.5438596491;1.0" repeatCount="indefinite" values="900;900;1000;1100;1200;1300;1400;1500;1600;1700;1800;1900;1900;2000;2100;2200;2200;2300;2400;2500;2600;2700;2700;2800;2900;3000;3000"/>
<animate attributeName="visibility" dur="14.0s" keyTimes="0.0;0.0175438596;1.0" repeatCount="indefinite" values="visible;visible;visible"/> </circle>
<circle class="agent" cx="3100" cy="-2300" fill="#00b9c8" r="35"> <animate attributeName="cy" dur="14.0s" keyTimes="0.0;0.0175438596;1.0" repeatCount="indefinite" values="-2300;-2300;-2300"/>
<animate attributeName="cx" dur="14.0s" keyTimes="0.0;0.0175438596;0.0350877193;0.0526315789;1.0" repeatCount="indefinite" values="3100;3100;3000;2900;2900"/>
<animate attributeName="visibility" dur="14.0s" keyTimes="0.0;0.0175438596;1.0" repeatCount="indefinite" values="visible;visible;visible"/> </circle>
<circle class="target" cx="2200" cy="-200" r="35" stroke="#c1433c"> <animate attributeName="visibility" dur="14.0s" keyTimes="0.0;0.0175438596;1.0" repeatCount="indefinite" values="visible;visible;visible"/> </circle>
<circle class="target" cx="3000" cy="-800" r="35" stroke="#2e6f9e"> <animate attributeName="visibility" dur="14.0s" keyTimes="0.0;0.0175438596;1.0" repeatCount="indefinite" values="visible;visible;visible"/> </circle>
<circle class="target" cx="3000" cy="-2500" r="35" stroke="#6e81af"> <animate attributeName="visibility" dur="14.0s" keyTimes="0.0;0.0175438596;1.0" repeatCount="indefinite" values="visible;visible;visible"/> </circle>
<circle class="target" cx="2900" cy="-2300" r="35" stroke="#00b9c8"> <animate attributeName="visibility" dur="14.0s" keyTimes="0.0;0.0175438596;1.0" repeatCount="indefinite" values="visible;visible;visible"/> </circle>
</svg>