<?xml version="1.0" encoding="UTF-8"?>
        <svg xmlns="http://www.w3.org/2000/svg" xmlns:xlink="http://www.w3.org/1999/xlink"
             width="430" height="430" viewBox="0 -4300 4300 4300">

<defs>

</defs>

<rect fill="#84A1AE" height="70" rx="15" width="70" x="465" y="-535" />
<rect fill="#84A1AE" height="70" rx="15" width="70" x="465" y="-635" />
<rect fill="#84A1AE" height="70" rx="15" width="70" x="465" y="-735" />
<rect fill="#84A1AE" height="70" rx="15" width="70" x="465" y="-835" />
<rect fill="#84A1AE" height="70" rx="15" width="70" x="465" y="-935" />
<rect fill="#84A1AE" height="70" rx="15" width="70" x="465" y="-1035" />
<rect fill="#84A1AE" height="70" rx="15" width="70" x="465" y="-1135" />
<rect fill="#84A1AE" height="70" rx="15" width="70" x="465" y="-1235" />
<rect fill="#84A1AE" height="70" rx="15" width="70" x="465" y="-1335" />
<rect fill="#84A1AE" height="70" rx="15" width="70" x="465" y="-1435" />
<rect fill="#84A1AE" height="70" rx="15" width="70" x="465" y="-1535" />
<rect fill="#84A1AE" height="70" rx="15" width="70" x="465" y="-1635" />
<rect fill="#84A1AE" height="70" rx="15" width="70" x="465" y="-1735" />
<rect fill="#84A1AE" height="70" rx="15" width="70" x="465" y="-1835" />
<rect fill="#84A1AE" height="70" rx="15" width="70" x="465" y="-1935" />
<rect fill="#84A1AE" height="70" rx="15" width="70" x="465" y="-2035" />
<rect fill="#84A1AE" height="70" rx="15" width="70" x="465" y="-2135" />
<rect fill="#84A1AE" height="70" rx="15" width="70" x="465" y="-2235" />
<rect fill="#84A1AE" height="70" rx="15" width="70" x="465" y="-2335" />
<rect fill="#84A1AE" height="70" rx="15" width="70" x="465" y="-2435" />
<rect fill="#84A1AE" height="70" rx="15" width="70" x="465" y="-2535" />
<rect fill="#84A1AE" height="70" rx="15" width="70" x="465" y="-2635" />
<rect fill="#84A1AE" height="70" rx="15" width="70" x="465" y="-2735" />
<rect fill="#84A1AE" height="70" rx="15" width="70" x="465" y="-2835" />
<rect fill="#84A1AE" height="70" rx="15" width="70" x="465" y="-2935" />
<rect fill="#84A1AE" height="70" rx="15" width="70" x="465" y="-3035" />
<rect fill="#84A1AE" height="70" rx="15" width="70" x="465" y="-3135" />
<rect fill="#84A1AE" height="70" rx="15" width="70" x="465" y="-3235" />
<rect fill="#84A1AE" height="70" rx="15" width="70" x="465" y="-3335" />
<rect fill="#84A1AE" height="70" rx="15" width="70" x="465" y="-3435" />
<rect fill="#84A1AE" height="70" rx="15" width="70" x="465" y="-3535" />
<rect fill="#84A1AE" height="70" rx="15" width="70" x="465" y="-3635" />
<rect fill="#84A1AE" height="70" rx="15" width="70" x="465" y="-3735" />
<rect fill="#84A1AE" height="70" rx="15" width="70" x="465" y="-3835" />
<rect fill="#84A1AE" height="70" rx="15" width="70" x="565" y="-535" />
<rect fill="#84A1AE" height="70" rx="15" width="70" x="565" y="-1635" />
<rect fill="#84A1AE" height="70" rx="15" width="70" x="565" y="-1935" />
<rect fill="#84A1AE" height="70" rx="15" width="70" x="565" y="-2735" />
<rect fill="#84A1AE" height="70" rx="15" width="70" x="565" y="-3835" />
<rect fill="#84A1AE" height="70" rx="15" width="70" x="665" y="-535" />
<rect fill="#84A1AE" height="70" rx="15" width="70" x="665" y="-1035" />
<rect fill="#84A1AE" height="70" rx="15" width="70" x="665" y="-2535" />
<rect fill="#84A1AE" height="70" rx="15" width="70" x="665" y="-3035" />
<rect fill="#84A1AE" height="70" rx="15" width="70" x="665" y="-3235" />
<rect fill="#84A1AE" height="70" rx="15" width="70" x="665" y="-3835" />
<rect fill="#84A1AE" height="70" rx="15" width="70" x="765" y="-535" />
<rect fill="#84A1AE" height="70" rx="15" width="70" x="765" y="-635" />
<rect fill="#84A1AE" height="70" rx="15" width="70" x="765" y="-3835" />
<rect fill="#84A1AE" height="70" rx="15" width="70" x="865" y="-535" />
<rect fill="#84A1AE" height="70" rx="15" width="70" x="865" y="-2435" />
<rect fill="#84A1AE" height="70" rx="15" width="70" x="865" y="-2535" />
<rect fill="#84A1AE" height="70" rx="15" width="70" x="865" y="-3335" />
<rect fill="#84A1AE" height="70" rx="15" width="70" x="865" y="-3435" />
<rect fill="#84A1AE" height="70" rx="15" width="70" x="865" y="-3835" />
<rect fill="#84A1AE" height="70" rx="15" width="70" x="965" y="-535" />
<rect fill="#84A1AE" height="70" rx="15" width="70" x="965" y="-735" />
<rect fill="#84A1AE" height="70" rx="15" width="70" x="965" y="-1635" />
<rect fill="#84A1AE" height="70" rx="15" width="70" x="965" y="-1835" />
<rect fill="#84A1AE" height="70" rx="15" width="70" x="965" y="-2835" />
<rect fill="#84A1AE" height="70" rx="15" width="70" x="965" y="-3435" />
<rect fill="#84A1AE" height="70" rx="15" width="70" x="965" y="-3835" />
<rect fill="#84A1AE" height="70" rx="15" width="70" x="1065" y="-535" />
<rect fill="#84A1AE" height="70" rx="15" width="70" x="1065" y="-1135" />
<rect fill="#84A1AE" height="70" rx="15" width="70" x="1065" y="-1835" />
<rect fill="#84A1AE" height="70" rx="15" width="70" x="1065" y="-3735" />
<rect fill="#84A1AE" height="70" rx="15" width="70" x="1065" y="-3835" />
<rect fill="#84A1AE" height="70" rx="15" width="70" x="1165" y="-535" />
<rect fill="#84A1AE" height="70" rx="15" width="70" x="1165" y="-635" />
<rect fill="#84A1AE" height="70" rx="15" width="70" x="1165" y="-735" />
<rect fill="#84A1AE" height="70" rx="15" width="70" x="1165" y="-1535" />
<rect fill="#84A1AE" height="70" rx="15" width="70" x="1165" y="-3835" />
<rect fill="#84A1AE" height="70" rx="15" width="70" x="1265" y="-535" />
<rect fill="#84A1AE" height="70" rx="15" width="70" x="1265" y="-2835" />
<rect fill="#84A1AE" height="70" rx="15" width="70" x="1265" y="-3435" />
<rect fill="#84A1AE" height="70" rx="15" width="70" x="1265" y="-3835" />
<rect fill="#84A1AE" height="70" rx="15" width="70" x="1365" y="-535" />
<rect fill="#84A1AE" height="70" rx="15" width="70" x="1365" y="-835" />
<rect fill="#84A1AE" height="70" rx="15" width="70" x="1365" y="-935" />
<rect fill="#84A1AE" height="70" rx="15" width="70" x="1365" y="-1035" />
<rect fill="#84A1AE" height="70" rx="15" width="70" x="1365" y="-1935" />
<rect fill="#84A1AE" height="70" rx="15" width="70" x="1365" y="-2335" />
<rect fill="#84A1AE" height="70" rx="15" width="70" x="1365" y="-2635" />
<rect fill="#84A1AE" height="70" rx="15" width="70" x="1365" y="-2835" />
<rect fill="#84A1AE" height="70" rx="15" width="70" x="1365" y="-2935" />
<rect fill="#84A1AE" height="70" rx="15" width="70" x="1365" y="-3035" />
<rect fill="#84A1AE" height="70" rx="15" width="70" x="1365" y="-3335" />
<rect fill="#84A1AE" height="70" rx="15" width="70" x="1365" y="-3835" />
<rect fill="#84A1AE" height="70" rx="15" width="70" x="1465" y="-535" />
<rect fill="#84A1AE" height="70" rx="15" width="70" x="1465" y="-1235" />
<rect fill="#84A1AE" height="70" rx="15" width="70" x="1465" y="-1535" />
<rect fill="#84A1AE" height="70" rx="15" width="70" x="1465" y="-2035" />
<rect fill="#84A1AE" height="70" rx="15" width="70" x="1465" y="-3135" />
<rect fill="#84A1AE" height="70" rx="15" width="70" x="1465" y="-3235" />
<rect fill="#84A1AE" height="70" rx="15" width="70" x="1465" y="-3835" />
<rect fill="#84A1AE" height="70" rx="15" width="70" x="1565" y="-535" />
<rect fill="#84A1AE" height="70" rx="15" width="70" x="1565" y="-3035" />
<rect fill="#84A1AE" height="70" rx="15" width="70" x="1565" y="-3835" />
<rect fill="#84A1AE" height="70" rx="15" width="70" x="1665" y="-535" />
<rect fill="#84A1AE" height="70" rx="15" width="70" x="1665" y="-3735" />
<rect fill="#84A1AE" height="70" rx="15" width="70" x="1665" y="-3835" />
<rect fill="#84A1AE" height="70" rx="15" width="70" x="1765" y="-535" />
<rect fill="#84A1AE" height="70" rx="15" width="70" x="1765" y="-1235" />
<rect fill="#84A1AE" height="70" rx="15" width="70" x="1765" y="-3835" />
<rect fill="#84A1AE" height="70" rx="15" width="70" x="1865" y="-535" />
<rect fill="#84A1AE" height="70" rx="15" width="70" x="1865" y="-735" />
<rect fill="#84A1AE" height="70" rx="15" width="70" x="1865" y="-1335" />
<rect fill="#84A1AE" height="70" rx="15" width="70" x="1865" y="-3235" />
<rect fill="#84A1AE" height="70" rx="15" width="70" x="1865" y="-3435" />
<rect fill="#84A1AE" height="70" rx="15" width="70" x="1865" y="-3835" />
<rect fill="#84A1AE" height="70" rx="15" width="70" x="1965" y="-535" />
<rect fill="#84A1AE" height="70" rx="15" width="70" x="1965" y="-635" />
<rect fill="#84A1AE" height="70" rx="15" width="70" x="1965" y="-1835" />
<rect fill="#84A1AE" height="70" rx="15" width="70" x="1965" y="-1935" />
<rect fill="#84A1AE" height="70" rx="15" width="70" x="1965" y="-2135" />
<rect fill="#84A1AE" height="70" rx="15" width="70" x="1965" y="-2335" />
<rect fill="#84A1AE" height="70" rx="15" width="70" x="1965" y="-2435" />
<rect fill="#84A1AE" height="70" rx="15" width="70" x="1965" y="-3335" />
<rect fill="#84A1AE" height="70" rx="15" width="70" x="1965" y="-3835" />
<rect fill="#84A1AE" height="70" rx="15" width="70" x="2065" y="-535" />
<rect fill="#84A1AE" height="70" rx="15" width="70" x="2065" y="-1535" />
<rect fill="#84A1AE" height="70" rx="15" width="70" x="2065" y="-1635" />
<rect fill="#84A1AE" height="70" rx="15" width="70" x="2065" y="-2135" />
<rect fill="#84A1AE" height="70" rx="15" width="70" x="2065" y="-3835" />
<rect fill="#84A1AE" height="70" rx="15" width="70" x="2165" y="-535" />
<rect fill="#84A1AE" height="70" rx="15" width="70" x="2165" y="-935" />
<rect fill="#84A1AE" height="70" rx="15" width="70" x="2165" y="-1335" />
<rect fill="#84A1AE" height="70" rx="15" width="70" x="2165" y="-1835" />
<rect fill="#84A1AE" height="70" rx="15" width="70" x="2165" y="-3835" />
<rect fill="#84A1AE" height="70" rx="15" width="70" x="2265" y="-535" />
<rect fill="#84A1AE" height="70" rx="15" width="70" x="2265" y="-935" />
<rect fill="#84A1AE" height="70" rx="15" width="70" x="2265" y="-1135" />
<rect fill="#84A1AE" height="70" rx="15" width="70" x="2265" y="-2535" />
<rect fill="#84A1AE" height="70" rx="15" width="70" x="2265" y="-3235" />
<rect fill="#84A1AE" height="70" rx="15" width="70" x="2265" y="-3835" />
<rect fill="#84A1AE" height="70" rx="15" width="70" x="2365" y="-535" />
<rect fill="#84A1AE" height="70" rx="15" width="70" x="2365" y="-935" />
<rect fill="#84A1AE" height="70" rx="15" width="70" x="2365" y="-1035" />
<rect fill="#84A1AE" height="70" rx="15" width="70" x="2365" y="-3835" />
<rect fill="#84A1AE" height="70" rx="15" width="70" x="2465" y="-535" />
<rect fill="#84A1AE" height="70" rx="15" width="70" x="2465" y="-935" />
<rect fill="#84A1AE" height="70" rx="15" width="70" x="2465" y="-1535" />
<rect fill="#84A1AE" height="70" rx="15" width="70" x="2465" y="-2335" />
<rect fill="#84A1AE" height="70" rx="15" width="70" x="2465" y="-2735" />
<rect fill="#84A1AE" height="70" rx="15" width="70" x="2465" y="-3835" />
<rect fill="#84A1AE" height="70" rx="15" width="70" x="2565" y="-535" />
<rect fill="#84A1AE" height="70" rx="15" width="70" x="2565" y="-735" />
<rect fill="#84A1AE" height="70" rx="15" width="70" x="2565" y="-2535" />
<rect fill="#84A1AE" height="70" rx="15" width="70" x="2565" y="-3835" />
<rect fill="#84A1AE" height="70" rx="15" width="70" x="2665" y="-535" />
<rect fill="#84A1AE" height="70" rx="15" width="70" x="2665" y="-635" />
<rect fill="#84A1AE" height="70" rx="15" width="70" x="2665" y="-1135" />
<rect fill="#84A1AE" height="70" rx="15" width="70" x="2665" y="-1435" />
<rect fill="#84A1AE" height="70" rx="15" width="70" x="2665" y="-2735" />
<rect fill="#84A1AE" height="70" rx="15" width="70" x="2665" y="-3835" />
<rect fill="#84A1AE" height="70" rx="15" width="70" x="2765" y="-535" />
<rect fill="#84A1AE" height="70" rx="15" width="70" x="2765" y="-1635" />
<rect fill="#84A1AE" height="70" rx="15" width="70" x="2765" y="-1835" />
<rect fill="#84A1AE" height="70" rx="15" width="70" x="2765" y="-1935" />
<rect fill="#84A1AE" height="70" rx="15" width="70" x="2765" y="-2235" />
<rect fill="#84A1AE" height="70" rx="15" width="70" x="2765" y="-3735" />
<rect fill="#84A1AE" height="70" rx="15" width="70" x="2765" y="-3835" />
<rect fill="#84A1AE" height="70" rx="15" width="70" x="2865" y="-535" />
<rect fill="#84A1AE" height="70" rx="15" width="70" x="2865" y="-3835" />
<rect fill="#84A1AE" height="70" rx="15" width="70" x="2965" y="-535" />
<rect fill="#84A1AE" height="70" rx="15" width="70" x="2965" y="-2635" />
<rect fill="#84A1AE" height="70" rx="15" width="70" x="2965" y="-3835" />
<rect fill="#84A1AE" height="70" rx="15" width="70" x="3065" y="-535" />
<rect fill="#84A1AE" height="70" rx="15" width="70" x="3065" y="-735" />
<rect fill="#84A1AE" height="70" rx="15" width="70" x="3065" y="-2535" />
<rect fill="#84A1AE" height="70" rx="15" width="70" x="3065" y="-3835" />
<rect fill="#84A1AE" height="70" rx="15" width="70" x="3165" y="-535" />
<rect fill="#84A1AE" height="70" rx="15" width="70" x="3165" y="-835" />
<rect fill="#84A1AE" height="70" rx="15" width="70" x="3165" y="-1935" />
<rect fill="#84A1AE" height="70" rx="15" width="70" x="3165" y="-2735" />
<rect fill="#84A1AE" height="70" rx="15" width="70" x="3165" y="-3135" />
<rect fill="#84A1AE" height="70" rx="15" width="70" x="3165" y="-3835" />
<rect fill="#84A1AE" height="70" rx="15" width="70" x="3265" y="-535" />
<rect fill="#84A1AE" height="70" rx="15" width="70" x="3265" y="-1035" />
<rect fill="#84A1AE" height="70" rx="15" width="70" x="3265" y="-1735" />
<rect fill="#84A1AE" height="70" rx="15" width="70" x="3265" y="-3835" />
<rect fill="#84A1AE" height="70" rx="15" width="70" x="3365" y="-535" />
<rect fill="#84A1AE" height="70" rx="15" width="70" x="3365" y="-1435" />
<rect fill="#84A1AE" height="70" rx="15" width="70" x="3365" y="-1935" />
<rect fill="#84A1AE" height="70" rx="15" width="70" x="3365" y="-2135" />
<rect fill="#84A1AE" height="70" rx="15" width="70" x="3365" y="-3835" />
<rect fill="#84A1AE" height="70" rx="15" width="70" x="3465" y="-535" />
<rect fill="#84A1AE" height="70" rx="15" width="70" x="3465" y="-2635" />
<rect fill="#84A1AE" height="70" rx="15" width="70" x="3465" y="-3835" />
<rect fill="#84A1AE" height="70" rx="15" width="70" x="3565" y="-535" />
<rect fill="#84A1AE" height="70" rx="15" width="70" x="3565" y="-635" />
<rect fill="#84A1AE" height="70" rx="15" width="70" x="3565" y="-2435" />
<rect fill="#84A1AE" height="70" rx="15" width="70" x="3565" y="-3235" />
<rect fill="#84A1AE" height="70" rx="15" width="70" x="3565" y="-3835" />
<rect fill="#84A1AE" height="70" rx="15" width="70" x="3665" y="-535" />
<rect fill="#84A1AE" height="70" rx="15" width="70" x="3665" y="-2135" />
<rect fill="#84A1AE" height="70" rx="15" width="70" x="3665" y="-2835" />
<rect fill="#84A1AE" height="70" rx="15" width="70" x="3665" y="-3135" />
<rect fill="#84A1AE" height="70" rx="15" width="70" x="3665" y="-3735" />
<rect fill="#84A1AE" height="70" rx="15" width="70" x="3665" y="-3835" />
<rect fill="#84A1AE" height="70" rx="15" width="70" x="3765" y="-535" />
<rect fill="#84A1AE" height="70" rx="15" width="70" x="3765" y="-635" />
<rect fill="#84A1AE" height="70" rx="15" width="70" x="3765" y="-735" />
<rect fill="#84A1AE" height="70" rx="15" width="70" x="3765" y="-835" />
<rect fill="#84A1AE" height="70" rx="15" width="70" x="3765" y="-935" />
<rect fill="#84A1AE" height="70" rx="15" width="70" x="3765" y="-1035" />
<rect fill="#84A1AE" height="70" rx="15" width="70" x="3765" y="-1135" />
<rect fill="#84A1AE" height="70" rx="15" width="70" x="3765" y="-1235" />
<rect fill="#84A1AE" height="70" rx="15" width="70" x="3765" y="-1335" />
<rect fill="#84A1AE" height="70" rx="15" width="70" x="3765" y="-1435" />
<rect fill="#84A1AE" height="70" rx="15" width="70" x="3765" y="-1535" />
<rect fill="#84A1AE" height="70" rx="15" width="70" x="3765" y="-1635" />
<rect fill="#84A1AE" height="70" rx="15" width="70" x="3765" y="-1735" />
<rect fill="#84A1AE" height="70" rx="15" width="70" x="3765" y="-1835" />
<rect fill="#84A1AE" height="70" rx="15" width="70" x="3765" y="-1935" />
<rect fill="#84A1AE" height="70" rx="15" width="70" x="3765" y="-2035" />
<rect fill="#84A1AE" height="70" rx="15" width="70" x="3765" y="-2135" />
<rect fill="#84A1AE" height="70" rx="15" width="70" x="3765" y="-2235" />
<rect fill="#84A1AE" height="70" rx="15" width="70" x="3765" y="-2335" />
<rect fill="#84A1AE" height="70" rx="15" width="70" x="3765" y="-2435" />
<rect fill="#84A1AE" height="70" rx="15" width="70" x="3765" y="-2535" />
<rect fill="#84A1AE" height="70" rx="15" width="70" x="3765" y="-2635" />
<rect fill="#84A1AE" height="70" rx="15" width="70" x="3765" y="-2735" />
<rect fill="#84A1AE" height="70" rx="15" width="70" x="3765" y="-2835" />
<rect fill="#84A1AE" height="70" rx="15" width="70" x="3765" y="-2935" />
<rect fill="#84A1AE" height="70" rx="15" width="70" x="3765" y="-3035" />
<rect fill="#84A1AE" height="70" rx="15" width="70" x="3765" y="-3135" />
<rect fill="#84A1AE" height="70" rx="15" width="70" x="3765" y="-3235" />
<rect fill="#84A1AE" height="70" rx="15" width="70" x="3765" y="-3335" />
<rect fill="#84A1AE" height="70" rx="15" width="70" x="3765" y="-3435" />
<rect fill="#84A1AE" height="70" rx="15" width="70" x="3765" y="-3535" />
<rect fill="#84A1AE" height="70" rx="15" width="70" x="3765" y="-3635" />
<rect fill="#84A1AE" height="70" rx="15" width="70" x="3765" y="-3735" />
<rect fill="#84A1AE" height="70" rx="15" width="70" x="3765" y="-3835" />
<circle cx="2500" cy="-1400" fill="#c1433c" r="35"> <animate attributeName="cy" dur="129.08s" keyTimes="0.0;0.0021645022;0.0043290043;0.0064935065;0.0086580087;0.0108225108;0.012987013;0.0151515152;0.0173160173;0.0194805195;0.0216450216;0.0238095238;0.025974026;0.0281385281;0.0303030303;0.0324675325;0.0346320346;0.0367965368;0.0411255411;0.0432900433;0.0454545455;0.0476190476;0.0497835498;0.0519480519;0.0541125541;0.0562770563;0.0584415584;0.0606060606;0.0627705628;0.0649350649;0.0670995671;0.0692640693;0.0714285714;0.0865800866;0.0887445887;0.0909090909;0.0930735931;0.0952380952;0.0974025974;0.0995670996;0.1147186147;0.1168831169;0.119047619;0.1212121212;0.1233766234;0.1255411255;0.1277056277;0.1298701299;0.1341991342;0.1363636364;0.1385281385;0.1406926407;0.1428571429;0.145021645;0.1471861472;0.1493506494;0.1515151515;0.1536796537;0.1558441558;0.158008658;0.1601731602;0.1623376623;0.1645021645;0.1666666667;0.1688311688;0.170995671;0.1731601732;0.1753246753;0.1774891775;0.1796536797;0.1818181818;0.183982684;0.1861471861;0.1883116883;0.1904761905;0.1926406926;0.196969697;0.1991341991;0.2056277056;0.2077922078;0.20995671;0.2121212121;0.2272727273;0.2294372294;0.2532467532;0.2554112554;0.2575757576;0.2597402597;0.3852813853;0.3874458874;0.3896103896;0.4264069264;0.4285714286;0.4545454545;0.4567099567;0.4761904762;0.4783549784;0.4848484848;0.487012987;0.4891774892;0.4913419913;0.4935064935;0.4956709957;0.4978354978;0.5;0.5021645022;0.5086580087;0.5108225108;0.512987013;0.5151515152;0.5324675325;0.5346320346;0.5432900433;0.5454545455;0.5476190476;0.5800865801;0.5822510823;0.5844155844;0.5865800866;0.5887445887;0.5909090909;0.5930735931;0.5952380952;0.5974025974;0.5995670996;0.6017316017;0.6038961039;0.6060606061;0.6082251082;0.6103896104;0.6125541126;0.619047619;0.6212121212;0.6233766234;0.6255411255;0.6277056277;0.632034632;0.6341991342;0.6363636364;0.6385281385;0.6428571429;0.645021645;0.6536796537;0.6558441558;0.658008658;0.6623376623;0.6645021645;0.6666666667;0.6688311688;0.670995671;0.6731601732;0.6753246753;0.6774891775;0.6796536797;0.6818181818;0.683982684;0.6861471861;0.6883116883;0.6904761905;0.6926406926;0.6948051948;0.7012987013;0.7034632035;0.7056277056;0.7077922078;0.70995671;0.7121212121;0.7142857143;0.7164502165;0.7186147186;0.7207792208;0.7229437229;0.7251082251;0.7272727273;0.7294372294;0.7316017316;0.7337662338;0.7359307359;0.7380952381;0.7402597403;0.7424242424;0.7445887446;0.7467532468;0.7489177489;0.7510822511;0.7619047619;0.7640692641;0.7662337662;0.7683982684;0.7943722944;0.7965367965;0.7987012987;0.8008658009;0.803030303;0.8051948052;0.8073593074;0.8311688312;0.8333333333;0.8354978355;0.8376623377;0.8398268398;0.8571428571;0.8593073593;0.8744588745;0.8766233766;0.880952381;0.8831168831;0.8852813853;0.8874458874;0.8896103896;0.8917748918;0.8939393939;0.8961038961;0.8982683983;0.9004329004;0.9025974026;0.9047619048;0.9069264069;0.9090909091;0.9112554113;0.9155844156;0.9177489177;0.9502164502;0.9523809524;0.9545454545;0.9696969697;0.9718614719;0.974025974;0.9761904762;0.9783549784;0.9805194805;0.9826839827;0.9848484848;0.987012987;0.9891774892;0.9913419913;0.9935064935;0.9956709957;0.9978354978;1.0" repeatCount="indefinite" values="-1400;-1400;-1400;-1500;-1600;-1700;-1800;-1900;-1800;-1700;-1600;-1700;-1800;-1900;-2000;-1900;-2000;-2100;-2100;-2200;-2200;-2100;-2200;-2300;-2400;-2500;-2500;-2600;-2700;-2800;-2900;-2900;-3000;-3000;-2900;-2900;-2800;-2700;-2700;-2600;-2600;-2500;-2400;-2300;-2200;-2100;-2100;-2000;-2000;-2100;-2000;-1900;-1800;-1700;-1800;-1700;-1600;-1600;-1500;-1500;-1400;-1300;-1300;-1400;-1500;-1500;-1600;-1600;-1700;-1800;-1900;-2000;-2100;-2200;-2300;-2400;-2400;-2300;-2300;-2400;-2500;-2600;-2600;-2700;-2700;-2800;-2800;-2900;-2900;-2800;-2700;-2700;-2600;-2600;-2500;-2500;-2400;-2400;-2300;-2200;-2100;-2000;-1900;-2000;-1900;-1800;-1800;-1700;-1600;-1500;-1500;-1400;-1400;-1500;-1400;-1400;-1300;-1200;-1300;-1400;-1500;-1600;-1700;-1800;-1900;-1800;-1900;-2000;-2100;-2200;-2100;-2100;-2200;-2300;-2300;-2200;-2200;-2100;-2100;-2200;-2200;-2300;-2300;-2200;-2100;-2100;-2000;-1900;-1800;-1700;-1600;-1600;-1500;-1400;-1300;-1300;-1400;-1400;-1500;-1600;-1700;-1700;-1800;-1900;-2000;-2000;-2100;-2100;-2200;-2300;-2400;-2500;-2600;-2700;-2800;-2900;-3000;-3100;-3200;-3300;-3400;-3500;-3500;-3600;-3500;-3500;-3600;-3600;-3500;-3500;-3600;-3600;-3500;-3500;-3400;-3500;-3500;-3400;-3500;-3400;-3500;-3500;-3400;-3400;-3500;-3500;-3400;-3300;-3200;-3100;-3000;-2900;-2800;-2700;-2600;-2600;-2500;-2400;-2400;-2300;-2300;-2200;-2200;-2100;-2000;-2000;-1900;-1800;-1800;-1700;-1600;-1500;-1400;-1300;-1200;-1100;-1000;-900;-1000;-1000"/>
<animate attributeName="cx" dur="129.08s" keyTimes="0.0;0.0021645022;0.0043290043;0.0367965368;0.038961039;0.0411255411;0.0432900433;0.0454545455;0.0562770563;0.0584415584;0.0670995671;0.0692640693;0.0714285714;0.0735930736;0.0757575758;0.0779220779;0.0800865801;0.0822510823;0.0844155844;0.0865800866;0.0887445887;0.0909090909;0.0952380952;0.0974025974;0.0995670996;0.1017316017;0.1038961039;0.1060606061;0.1082251082;0.1125541126;0.1147186147;0.1298701299;0.132034632;0.1341991342;0.1515151515;0.1536796537;0.1558441558;0.158008658;0.1623376623;0.1645021645;0.1688311688;0.170995671;0.1731601732;0.1753246753;0.1948051948;0.196969697;0.1991341991;0.2012987013;0.2034632035;0.2056277056;0.2121212121;0.2142857143;0.2164502165;0.2186147186;0.2207792208;0.2229437229;0.2251082251;0.2272727273;0.2294372294;0.2316017316;0.2337662338;0.2359307359;0.2380952381;0.2402597403;0.2424242424;0.2445887446;0.2467532468;0.2489177489;0.2510822511;0.2532467532;0.2554112554;0.2575757576;0.2597402597;0.2619047619;0.3831168831;0.3852813853;0.3896103896;0.3917748918;0.3939393939;0.3961038961;0.3982683983;0.4004329004;0.4025974026;0.4047619048;0.4069264069;0.4090909091;0.4112554113;0.4134199134;0.4155844156;0.4177489177;0.4199134199;0.4220779221;0.4242424242;0.4264069264;0.4285714286;0.4307359307;0.4329004329;0.4350649351;0.4372294372;0.4393939394;0.4458874459;0.4480519481;0.4502164502;0.4523809524;0.4545454545;0.4567099567;0.4588744589;0.4783549784;0.4805194805;0.4826839827;0.4848484848;0.5064935065;0.5086580087;0.5151515152;0.5173160173;0.5194805195;0.5216450216;0.5238095238;0.525974026;0.5281385281;0.5303030303;0.5324675325;0.5346320346;0.5367965368;0.538961039;0.5411255411;0.5432900433;0.5476190476;0.5497835498;0.5519480519;0.5541125541;0.5562770563;0.5584415584;0.5606060606;0.5627705628;0.5649350649;0.5670995671;0.5692640693;0.5714285714;0.5735930736;0.5757575758;0.5779220779;0.5800865801;0.6125541126;0.6147186147;0.6168831169;0.619047619;0.6233766234;0.6255411255;0.6277056277;0.6298701299;0.632034632;0.6341991342;0.6363636364;0.6385281385;0.6406926407;0.6428571429;0.645021645;0.6471861472;0.6493506494;0.6515151515;0.6536796537;0.658008658;0.6601731602;0.6731601732;0.6753246753;0.6818181818;0.683982684;0.6861471861;0.6883116883;0.6948051948;0.696969697;0.6991341991;0.7012987013;0.7121212121;0.7142857143;0.7445887446;0.7467532468;0.7510822511;0.7532467532;0.7554112554;0.7575757576;0.7597402597;0.7619047619;0.7640692641;0.7662337662;0.7683982684;0.7705627706;0.7727272727;0.7748917749;0.7770562771;0.7792207792;0.7813852814;0.7835497835;0.7857142857;0.7878787879;0.79004329;0.7922077922;0.7943722944;0.7965367965;0.7987012987;0.8008658009;0.803030303;0.8073593074;0.8095238095;0.8116883117;0.8138528139;0.816017316;0.8181818182;0.8203463203;0.8225108225;0.8246753247;0.8268398268;0.829004329;0.8311688312;0.8398268398;0.841991342;0.8441558442;0.8463203463;0.8484848485;0.8506493506;0.8528138528;0.854978355;0.8571428571;0.8766233766;0.8787878788;0.880952381;0.9004329004;0.9025974026;0.9069264069;0.9090909091;0.9112554113;0.9134199134;0.9155844156;0.9177489177;0.9199134199;0.9220779221;0.9242424242;0.9264069264;0.9285714286;0.9307359307;0.9329004329;0.9350649351;0.9372294372;0.9393939394;0.9415584416;0.9437229437;0.9458874459;0.9480519481;0.9502164502;0.9567099567;0.9588744589;0.961038961;0.9632034632;0.9653679654;0.9675324675;0.9696969697;0.974025974;0.9761904762;1.0" repeatCount="indefinite" values="2500;2500;2600;2600;2500;2600;2600;2700;2700;2800;2800;2900;2900;3000;3100;3200;3300;3400;3500;3400;3400;3300;3300;3400;3400;3300;3200;3200;3100;3100;3200;3200;3100;3000;3000;3100;3100;3200;3200;3100;3100;3000;3000;3100;3100;3000;3000;3100;3000;2900;2900;2800;2700;2600;2500;2400;2300;2200;2200;2100;2000;1900;1800;1700;1600;1500;1400;1300;1200;1100;1100;1200;1200;1300;1300;1200;1200;1300;1400;1300;1400;1400;1300;1400;1500;1600;1700;1800;1900;2000;2100;2200;2300;2400;2400;2500;2600;2700;2800;2900;2900;2800;2900;2800;2900;2900;3000;3000;3100;3200;3300;3300;3400;3400;3300;3200;3100;3000;2900;2800;2700;2600;2600;2500;2400;2300;2200;2200;2100;2000;1900;1800;1700;1600;1500;1400;1500;1400;1300;1200;1100;1000;900;900;1000;900;1000;1000;1100;1100;1200;1300;1300;1400;1400;1500;1600;1600;1500;1600;1700;1800;1800;1900;1900;2000;2000;2100;2100;2200;2200;2300;2200;2300;2300;2400;2400;2300;2300;2200;2100;2000;1900;2000;2000;2100;2100;2200;2300;2400;2500;2600;2700;2800;2900;3000;3100;3200;3300;3300;3400;3400;3300;3300;3200;3100;3000;2900;2800;2700;2600;2500;2400;2300;2200;2200;2100;2000;1900;1800;1700;1600;1500;1400;1400;1300;1200;1200;1100;1100;1200;1200;1300;1200;1200;1300;1400;1500;1600;1700;1800;1900;2000;2100;2200;2300;2400;2500;2600;2700;2700;2600;2700;2800;2900;3000;3100;3100;3200;3200"/>
<animate attributeName="visibility" dur="129.08s" keyTimes="0.0;0.0021645022;1.0" repeatCount="indefinite" values="visible;visible;visible"/> </circle>
<circle cx="3000" cy="-1900" fill="#2e6f9e" r="35"> <animate attributeName="cy" dur="129.08s" keyTimes="0.0;0.0021645022;0.0043290043;0.0064935065;0.0086580087;0.0108225108;0.012987013;0.0151515152;0.0173160173;0.0194805195;0.0216450216;0.0238095238;0.0281385281;0.0303030303;0.0324675325;0.0346320346;0.038961039;0.0411255411;0.0432900433;0.0454545455;0.0476190476;0.0497835498;0.0519480519;0.0541125541;0.0562770563;0.0584415584;0.0606060606;0.0627705628;0.0649350649;0.0670995671;0.0692640693;0.0714285714;0.0757575758;0.0779220779;0.0930735931;0.0952380952;0.1147186147;0.1168831169;0.132034632;0.1341991342;0.1363636364;0.1385281385;0.1406926407;0.1428571429;0.145021645;0.1471861472;0.1536796537;0.1558441558;0.1623376623;0.1645021645;0.1666666667;0.1688311688;0.170995671;0.1731601732;0.1753246753;0.1774891775;0.1796536797;0.1818181818;0.1926406926;0.1948051948;0.196969697;0.1991341991;0.2012987013;0.2034632035;0.2056277056;0.2077922078;0.20995671;0.2121212121;0.2142857143;0.2164502165;0.2186147186;0.2207792208;0.2229437229;0.2251082251;0.2272727273;0.2294372294;0.2510822511;0.2532467532;0.2554112554;0.2575757576;0.2597402597;0.2727272727;0.2748917749;0.2770562771;0.2792207792;0.2813852814;0.3051948052;0.3073593074;0.3095238095;0.3354978355;0.3376623377;0.3398268398;0.341991342;0.3441558442;0.3463203463;0.3484848485;0.3506493506;0.3528138528;0.354978355;0.3571428571;0.3593073593;0.3614718615;0.3636363636;0.3658008658;0.367965368;0.3701298701;0.3722943723;0.3744588745;0.3766233766;0.3787878788;0.380952381;0.3831168831;0.3852813853;0.3874458874;0.3896103896;0.3917748918;0.3939393939;0.3961038961;0.3982683983;0.4004329004;0.4025974026;0.4047619048;0.4069264069;0.4090909091;0.4112554113;0.4134199134;0.4155844156;0.4177489177;0.4285714286;0.4307359307;0.4329004329;0.4372294372;0.4393939394;0.4415584416;0.4567099567;0.4588744589;0.4761904762;0.4783549784;0.4805194805;0.4826839827;0.4848484848;0.487012987;0.4891774892;0.4913419913;0.4935064935;0.4956709957;0.4978354978;0.5;0.5021645022;0.5043290043;0.5064935065;0.5086580087;0.5108225108;0.512987013;0.5151515152;0.5173160173;0.5194805195;0.5216450216;0.5238095238;0.525974026;0.5281385281;0.5303030303;0.5324675325;0.5346320346;0.5367965368;0.538961039;0.5432900433;0.5454545455;0.5497835498;0.5519480519;0.5541125541;0.5562770563;0.5584415584;0.5606060606;0.5627705628;0.5649350649;0.5670995671;0.5692640693;0.5714285714;0.5735930736;0.5757575758;0.5779220779;0.5800865801;0.5822510823;0.5844155844;0.5865800866;0.5887445887;0.5909090909;0.5930735931;0.5952380952;0.5974025974;0.5995670996;0.6017316017;0.6038961039;0.6082251082;0.6103896104;0.6125541126;0.6147186147;0.6168831169;0.619047619;0.6212121212;0.6233766234;0.6255411255;0.6277056277;0.6298701299;0.632034632;0.6341991342;0.6363636364;0.6385281385;0.6406926407;0.6428571429;0.645021645;0.6471861472;0.6493506494;0.6536796537;0.6558441558;0.658008658;0.6601731602;0.6688311688;0.670995671;0.6731601732;0.6753246753;0.6774891775;0.6796536797;0.6818181818;0.683982684;0.6861471861;0.6883116883;0.6904761905;0.6926406926;0.696969697;0.6991341991;0.7012987013;0.7034632035;0.7056277056;0.7077922078;0.70995671;0.7121212121;0.7142857143;0.7164502165;0.7186147186;0.7207792208;0.7229437229;0.7251082251;0.7272727273;0.7294372294;0.7316017316;0.7337662338;0.7683982684;0.7705627706;0.7727272727;0.7965367965;0.7987012987;0.8008658009;0.803030303;0.8051948052;0.8073593074;0.8095238095;0.8116883117;0.8138528139;0.816017316;0.8181818182;0.8203463203;0.8225108225;0.8246753247;0.8268398268;0.829004329;0.8311688312;0.8333333333;0.8354978355;0.8376623377;0.8398268398;0.841991342;0.8441558442;0.854978355;0.8571428571;0.8636363636;0.8658008658;0.867965368;0.8701298701;0.8722943723;0.8744588745;0.8766233766;0.8787878788;0.880952381;0.8831168831;0.8852813853;0.8874458874;0.8896103896;0.8917748918;0.8939393939;0.8961038961;0.8982683983;0.9004329004;0.9025974026;0.9047619048;0.9069264069;0.9090909091;0.9112554113;0.9134199134;0.9242424242;0.9264069264;0.9285714286;0.9783549784;0.9805194805;0.9826839827;0.9848484848;0.987012987;0.9891774892;0.9913419913;0.9935064935;0.9956709957;0.9978354978;1.0" repeatCount="indefinite" values="-1900;-1900;-1900;-2000;-2100;-2200;-2300;-2400;-2400;-2500;-2500;-2600;-2600;-2500;-2400;-2300;-2300;-2200;-2100;-2100;-2000;-1900;-1900;-1800;-1700;-1700;-1600;-1500;-1400;-1400;-1300;-1200;-1200;-1100;-1100;-1200;-1200;-1100;-1100;-1200;-1300;-1400;-1400;-1500;-1600;-1700;-1700;-1600;-1600;-1500;-1500;-1400;-1300;-1200;-1200;-1100;-1100;-1000;-1000;-1100;-1200;-1200;-1300;-1400;-1500;-1600;-1700;-1700;-1800;-1900;-2000;-2000;-2100;-2200;-2300;-2400;-2400;-2500;-2600;-2600;-2700;-2700;-2600;-2600;-2500;-2400;-2400;-2300;-2200;-2200;-2100;-2000;-1900;-1800;-1700;-1600;-1500;-1400;-1300;-1200;-1100;-1000;-900;-800;-700;-600;-700;-800;-900;-1000;-1100;-1200;-1300;-1400;-1500;-1600;-1700;-1800;-1900;-2000;-2100;-2200;-2300;-2300;-2400;-2500;-2600;-2700;-2700;-2800;-2900;-2900;-3000;-3100;-3100;-3200;-3200;-3100;-3000;-2900;-2800;-2700;-2600;-2600;-2500;-2400;-2400;-2300;-2200;-2100;-2000;-1900;-1800;-1700;-1600;-1500;-1400;-1300;-1200;-1100;-1000;-900;-800;-800;-700;-600;-600;-700;-700;-800;-900;-1000;-1100;-1200;-1300;-1300;-1400;-1500;-1600;-1600;-1700;-1800;-1900;-2000;-2100;-2200;-2300;-2400;-2500;-2600;-2700;-2800;-2900;-3000;-3000;-3100;-3200;-3300;-3400;-3500;-3500;-3600;-3700;-3600;-3500;-3400;-3300;-3200;-3200;-3100;-3000;-2900;-2800;-2700;-2700;-2600;-2600;-2500;-2500;-2400;-2300;-2200;-2100;-2000;-1900;-1800;-1700;-1600;-1500;-1400;-1400;-1500;-1600;-1700;-1800;-1900;-2000;-2100;-2200;-2300;-2400;-2500;-2600;-2700;-2800;-2900;-2900;-3000;-3000;-3100;-3000;-3000;-2900;-2800;-2700;-2600;-2500;-2400;-2300;-2200;-2100;-2000;-2000;-1900;-1800;-1700;-1700;-1600;-1500;-1400;-1300;-1200;-1100;-1000;-1000;-1100;-1100;-1000;-900;-800;-900;-1000;-1100;-1200;-1300;-1400;-1400;-1500;-1600;-1700;-1800;-1900;-2000;-2100;-2200;-2300;-2400;-2500;-2600;-2700;-2700;-2800;-2900;-2900;-2800;-2700;-2600;-2500;-2400;-2300;-2200;-2100;-2000;-2000"/>
<animate attributeName="cx" dur="129.08s" keyTimes="0.0;0.0021645022;0.0043290043;0.0151515152;0.0173160173;0.0194805195;0.0216450216;0.0238095238;0.025974026;0.0281385281;0.0346320346;0.0367965368;0.038961039;0.0432900433;0.0454545455;0.0497835498;0.0519480519;0.0562770563;0.0584415584;0.0649350649;0.0670995671;0.0714285714;0.0735930736;0.0757575758;0.0779220779;0.0800865801;0.0822510823;0.0844155844;0.0865800866;0.0887445887;0.0909090909;0.0930735931;0.0952380952;0.0974025974;0.0995670996;0.1017316017;0.1038961039;0.1060606061;0.1082251082;0.1103896104;0.1125541126;0.1147186147;0.1168831169;0.119047619;0.1212121212;0.1233766234;0.1255411255;0.1277056277;0.1298701299;0.132034632;0.1385281385;0.1406926407;0.1471861472;0.1493506494;0.1515151515;0.1536796537;0.1558441558;0.158008658;0.1601731602;0.1623376623;0.1645021645;0.1666666667;0.1731601732;0.1753246753;0.1774891775;0.1796536797;0.1818181818;0.183982684;0.1861471861;0.1883116883;0.1904761905;0.1926406926;0.196969697;0.1991341991;0.20995671;0.2121212121;0.2186147186;0.2207792208;0.2294372294;0.2316017316;0.2337662338;0.2359307359;0.2380952381;0.2402597403;0.2424242424;0.2445887446;0.2467532468;0.2489177489;0.2510822511;0.2554112554;0.2575757576;0.2597402597;0.2619047619;0.2640692641;0.2662337662;0.2683982684;0.2705627706;0.2727272727;0.2748917749;0.2770562771;0.2813852814;0.2835497835;0.2857142857;0.2878787879;0.29004329;0.2922077922;0.2943722944;0.2965367965;0.2987012987;0.3008658009;0.303030303;0.3051948052;0.3095238095;0.3116883117;0.3138528139;0.316017316;0.3181818182;0.3203463203;0.3225108225;0.3246753247;0.3268398268;0.329004329;0.3311688312;0.3333333333;0.3354978355;0.4069264069;0.4090909091;0.4177489177;0.4199134199;0.4220779221;0.4242424242;0.4264069264;0.4285714286;0.4329004329;0.4350649351;0.4372294372;0.4415584416;0.4437229437;0.4458874459;0.4480519481;0.4502164502;0.4523809524;0.4545454545;0.4567099567;0.4588744589;0.461038961;0.4632034632;0.4653679654;0.4675324675;0.4696969697;0.4718614719;0.474025974;0.4761904762;0.4891774892;0.4913419913;0.4956709957;0.4978354978;0.5324675325;0.5346320346;0.538961039;0.5411255411;0.5432900433;0.5454545455;0.5476190476;0.5497835498;0.5627705628;0.5649350649;0.5714285714;0.5735930736;0.6038961039;0.6060606061;0.6082251082;0.619047619;0.6212121212;0.6363636364;0.6385281385;0.6493506494;0.6515151515;0.6536796537;0.6558441558;0.658008658;0.6601731602;0.6623376623;0.6645021645;0.6666666667;0.6688311688;0.6926406926;0.6948051948;0.696969697;0.7294372294;0.7316017316;0.7337662338;0.7359307359;0.7380952381;0.7402597403;0.7424242424;0.7445887446;0.7467532468;0.7489177489;0.7510822511;0.7532467532;0.7554112554;0.7575757576;0.7597402597;0.7619047619;0.7640692641;0.7662337662;0.7683982684;0.7727272727;0.7748917749;0.7770562771;0.7792207792;0.7813852814;0.7835497835;0.7857142857;0.7878787879;0.79004329;0.7922077922;0.7943722944;0.7965367965;0.8181818182;0.8203463203;0.8268398268;0.829004329;0.8441558442;0.8463203463;0.8484848485;0.8506493506;0.8528138528;0.854978355;0.8571428571;0.8593073593;0.8614718615;0.8636363636;0.8831168831;0.8852813853;0.9134199134;0.9155844156;0.9177489177;0.9199134199;0.9220779221;0.9242424242;0.9285714286;0.9307359307;0.9329004329;0.9350649351;0.9372294372;0.9393939394;0.9415584416;0.9437229437;0.9458874459;0.9480519481;0.9502164502;0.9523809524;0.9545454545;0.9567099567;0.9588744589;0.961038961;0.9632034632;0.9653679654;0.9675324675;0.9696969697;0.9718614719;0.974025974;0.9761904762;0.9783549784;1.0" repeatCount="indefinite" values="3000;3000;2900;2900;2800;2800;2700;2700;2600;2700;2700;2800;2900;2900;3000;3000;3100;3100;3200;3200;3300;3300;3400;3500;3500;3400;3300;3200;3100;3000;2900;2800;2800;2700;2600;2500;2400;2300;2200;2100;2000;1900;1900;1800;1700;1600;1500;1400;1300;1200;1200;1300;1300;1400;1500;1600;1600;1700;1800;1900;1900;2000;2000;2100;2100;2200;2200;2300;2200;2100;2000;1900;1900;2000;2000;2100;2100;2200;2200;2300;2400;2500;2600;2700;2800;2900;3000;3100;3200;3200;3300;3300;3400;3500;3600;3500;3400;3300;3300;3200;3200;3100;3000;2900;2800;2700;2600;2500;2400;2300;2200;2100;2100;2000;1900;1800;1700;1600;1500;1400;1300;1200;1100;1000;900;900;1000;1000;1100;1200;1300;1400;1500;1500;1600;1700;1700;1800;1900;2000;2100;2200;2300;2400;2400;2500;2600;2700;2800;2900;3000;2900;2800;2800;2700;2700;2600;2600;2500;2500;2400;2300;2300;2200;2100;2100;2000;2000;1900;1900;1800;1700;1700;1600;1600;1700;1700;1800;1900;1900;2000;2000;1900;1800;1700;1600;1600;1500;1600;1600;1700;1700;1800;1900;2000;2100;2200;2300;2400;2500;2600;2700;2800;2900;3000;3100;3200;3300;3300;3200;3100;3000;2900;2800;2700;2600;2500;2400;2300;2200;2200;2100;2100;2000;2000;1900;1800;1700;1600;1500;1500;1400;1300;1200;1200;1300;1300;1400;1500;1600;1700;1800;1800;1900;2000;2100;2200;2300;2400;2500;2600;2700;2800;2900;3000;3100;3200;3300;3400;3500;3400;3300;3200;3100;3000;2900;2900"/>
<animate attributeName="visibility" dur="129.08s" keyTimes="0.0;0.0021645022;1.0" repeatCount="indefinite" values="visible;visible;visible"/> </circle>
<circle cx="3500" cy="-3000" fill="none" r="35" stroke="#c1433c" stroke-width="10"> <animate attributeName="cy" dur="129.08s" keyTimes="0.0;0.0021645022;0.0822510823;0.0844155844;0.1623376623;0.1645021645;0.2597402597;0.2619047619;0.512987013;0.5151515152;0.5822510823;0.5844155844;0.645021645;0.6471861472;0.683982684;0.6861471861;0.7294372294;0.7316017316;0.7987012987;0.8008658009;0.9090909091;0.9112554113;0.9935064935;0.9956709957;1.0" repeatCount="indefinite" values="-3000;-3000;-3000;-1300;-1300;-2900;-2900;-1500;-1500;-1200;-1200;-2300;-2300;-1400;-1400;-2900;-2900;-3500;-3500;-2300;-2300;-900;-900;-3400;-3400"/>
<animate attributeName="cx" dur="129.08s" keyTimes="0.0;0.0021645022;0.0822510823;0.0844155844;0.1623376623;0.1645021645;0.2597402597;0.2619047619;0.512987013;0.5151515152;0.5822510823;0.5844155844;0.645021645;0.6471861472;0.683982684;0.6861471861;0.7294372294;0.7316017316;0.7575757576;0.7597402597;0.7987012987;0.8008658009;0.9090909091;0.9112554113;0.9935064935;0.9956709957;1.0" repeatCount="indefinite" values="3500;3500;3500;3100;3100;1300;1300;3400;3400;900;900;1500;1500;2100;2100;2400;2400;1900;1900;3400;3400;1200;1200;3200;3200;3500;3500"/>
<animate attributeName="visibility" dur="129.08s" keyTimes="0.0;0.0021645022;1.0" repeatCount="indefinite" values="visible;visible;visible"/> </circle>
<circle cx="2600" cy="-2600" fill="none" r="35" stroke="#2e6f9e" stroke-width="10"> <animate attributeName="cy" dur="129.08s" keyTimes="0.0;0.0021645022;0.0238095238;0.025974026;0.0757575758;0.0779220779;0.132034632;0.1341991342;0.1493506494;0.1515151515;0.1818181818;0.183982684;0.1926406926;0.1948051948;0.2640692641;0.2662337662;0.367965368;0.3701298701;0.4696969697;0.4718614719;0.5367965368;0.538961039;0.6233766234;0.6255411255;0.658008658;0.6601731602;0.6926406926;0.6948051948;0.7532467532;0.7554112554;0.7683982684;0.7705627706;0.841991342;0.8441558442;0.867965368;0.8701298701;0.9220779221;0.9242424242;0.9632034632;0.9653679654;1.0" repeatCount="indefinite" values="-2600;-2600;-2600;-1100;-1100;-1200;-1200;-1700;-1700;-1000;-1000;-1100;-1100;-2700;-2700;-600;-600;-3200;-3200;-600;-600;-3700;-3700;-2500;-2500;-1400;-1400;-3000;-3000;-3100;-3100;-1000;-1000;-800;-800;-2700;-2700;-2900;-2900;-1200;-1200"/>
<animate attributeName="cx" dur="129.08s" keyTimes="0.0;0.0021645022;0.0238095238;0.025974026;0.0757575758;0.0779220779;0.132034632;0.1341991342;0.1493506494;0.1515151515;0.1818181818;0.183982684;0.1926406926;0.1948051948;0.2640692641;0.2662337662;0.367965368;0.3701298701;0.4696969697;0.4718614719;0.5367965368;0.538961039;0.6233766234;0.6255411255;0.658008658;0.6601731602;0.6926406926;0.6948051948;0.7532467532;0.7554112554;0.7683982684;0.7705627706;0.841991342;0.8441558442;0.867965368;0.8701298701;0.9220779221;0.9242424242;0.9632034632;0.9653679654;1.0" repeatCount="indefinite" values="2600;2600;2600;3500;3500;1200;1200;1500;1500;2300;2300;1900;1900;3600;3600;900;900;3000;3000;2500;2500;1600;1600;2000;2000;1500;1500;2700;2700;3300;3300;2000;2000;1200;1200;1800;1800;3500;3500;2700;2700"/>
<animate attributeName="visibility" dur="129.08s" keyTimes="0.0;0.0021645022;1.0" repeatCount="indefinite" values="visible;visible;visible"/> </circle>
</svg>