<?xml version="1.0" encoding="UTF-8"?>
        <svg xmlns="http://www.w3.org/2000/svg" xmlns:xlink="http://www.w3.org/1999/xlink"
             width="430" height="430" viewBox="0 -4300 4300 4300">

<defs>

</defs>

<rect fill="#84A1AE" height="70" rx="15" width="70" x="465" y="-535" />
<rect fill="#84A1AE" height="70" rx="15" width="70" x="465" y="-635" />
<rect fill="#84A1AE" height="70" rx="15" width="70" x="465" y="-735" />
<rect fill="#84A1AE" height="70" rx="15" width="70" x="465" y="-835" />
<rect fill="#84A1AE" height="70" rx="15" width="70" x="465" y="-935" />
<rect fill="#84A1AE" height="70" rx="15" width="70" x="465" y="-1035" />
<rect fill="#84A1AE" height="70" rx="15" width="70" x="465" y="-1135" />
<rect fill="#84A1AE" height="70" rx="15" width="70" x="465" y="-1235" />
<rect fill="#84A1AE" height="70" rx="15" width="70" x="465" y="-1335" />
<rect fill="#84A1AE" height="70" rx="15" width="70" x="465" y="-1435" />
<rect fill="#84A1AE" height="70" rx="15" width="70" x="465" y="-1535" />
<rect fill="#84A1AE" height="70" rx="15" width="70" x="465" y="-1635" />
<rect fill="#84A1AE" height="70" rx="15" width="70" x="465" y="-1735" />
<rect fill="#84A1AE" height="70" rx="15" width="70" x="465" y="-1835" />
<rect fill="#84A1AE" height="70" rx="15" width="70" x="465" y="-1935" />
<rect fill="#84A1AE" height="70" rx="15" width="70" x="465" y="-2035" />
<rect fill="#84A1AE" height="70" rx="15" width="70" x="465" y="-2135" />
<rect fill="#84A1AE" height="70" rx="15" width="70" x="465" y="-2235" />
<rect fill="#84A1AE" height="70" rx="15" width="70" x="465" y="-2335" />
<rect fill="#84A1AE" height="70" rx="15" width="70" x="465" y="-2435" />
<rect fill="#84A1AE" height="70" rx="15" width="70" x="465" y="-2535" />
<rect fill="#84A1AE" height="70" rx="15" width="70" x="465" y="-2635" />
<rect fill="#84A1AE" height="70" rx="15" width="70" x="465" y="-2735" />
<rect fill="#84A1AE" height="70" rx="15" width="70" x="465" y="-2835" />
<rect fill="#84A1AE" height="70" rx="15" width="70" x="465" y="-2935" />
<rect fill="#84A1AE" height="70" rx="15" width="70" x="465" y="-3035" />
<rect fill="#84A1AE" height="70" rx="15" width="70" x="465" y="-3135" />
<rect fill="#84A1AE" height="70" rx="15" width="70" x="465" y="-3235" />
<rect fill="#84A1AE" height="70" rx="15" width="70" x="465" y="-3335" />
<rect fill="#84A1AE" height="70" rx="15" width="70" x="465" y="-3435" />
<rect fill="#84A1AE" height="70" rx="15" width="70" x="465" y="-3535" />
<rect fill="#84A1AE" height="70" rx="15" width="70" x="465" y="-3635" />
<rect fill="#84A1AE" height="70" rx="15" width="70" x="465" y="-3735" />
<rect fill="#84A1AE" height="70" rx="15" width="70" x="465" y="-3835" />
<rect fill="#84A1AE" height="70" rx="15" width="70" x="565" y="-535" />
<rect fill="#84A1AE" height="70" rx="15" width="70" x="565" y="-1635" />
<rect fill="#84A1AE" height="70" rx="15" width="70" x="565" y="-1935" />
<rect fill="#84A1AE" height="70" rx="15" width="70" x="565" y="-2735" />
<rect fill="#84A1AE" height="70" rx="15" width="70" x="565" y="-3835" />
<rect fill="#84A1AE" height="70" rx="15" width="70" x="665" y="-535" />
<rect fill="#84A1AE" height="70" rx="15" width="70" x="665" y="-1035" />
<rect fill="#84A1AE" height="70" rx="15" width="70" x="665" y="-2535" />
<rect fill="#84A1AE" height="70" rx="15" width="70" x="665" y="-3035" />
<rect fill="#84A1AE" height="70" rx="15" width="70" x="665" y="-3235" />
<rect fill="#84A1AE" height="70" rx="15" width="70" x="665" y="-3835" />
<rect fill="#84A1AE" height="70" rx="15" width="70" x="765" y="-535" />
<rect fill="#84A1AE" height="70" rx="15" width="70" x="765" y="-635" />
<rect fill="#84A1AE" height="70" rx="15" width="70" x="765" y="-3835" />
<rect fill="#84A1AE" height="70" rx="15" width="70" x="865" y="-535" />
<rect fill="#84A1AE" height="70" rx="15" width="70" x="865" y="-2435" />
<rect fill="#84A1AE" height="70" rx="15" width="70" x="865" y="-2535" />
<rect fill="#84A1AE" height="70" rx="15" width="70" x="865" y="-3335" />
<rect fill="#84A1AE" height="70" rx="15" width="70" x="865" y="-3435" />
<rect fill="#84A1AE" height="70" rx="15" width="70" x="865" y="-3835" />
<rect fill="#84A1AE" height="70" rx="15" width="70" x="965" y="-535" />
<rect fill="#84A1AE" height="70" rx="15" width="70" x="965" y="-735" />
<rect fill="#84A1AE" height="70" rx="15" width="70" x="965" y="-1635" />
<rect fill="#84A1AE" height="70" rx="15" width="70" x="965" y="-1835" />
<rect fill="#84A1AE" height="70" rx="15" width="70" x="965" y="-2835" />
<rect fill="#84A1AE" height="70" rx="15" width="70" x="965" y="-3435" />
<rect fill="#84A1AE" height="70" rx="15" width="70" x="965" y="-3835" />
<rect fill="#84A1AE" height="70" rx="15" width="70" x="1065" y="-535" />
<rect fill="#84A1AE" height="70" rx="15" width="70" x="1065" y="-1135" />
<rect fill="#84A1AE" height="70" rx="15" width="70" x="1065" y="-1835" />
<rect fill="#84A1AE" height="70" rx="15" width="70" x="1065" y="-3735" />
<rect fill="#84A1AE" height="70" rx="15" width="70" x="1065" y="-3835" />
<rect fill="#84A1AE" height="70" rx="15" width="70" x="1165" y="-535" />
<rect fill="#84A1AE" height="70" rx="15" width="70" x="1165" y="-635" />
<rect fill="#84A1AE" height="70" rx="15" width="70" x="1165" y="-735" />
<rect fill="#84A1AE" height="70" rx="15" width="70" x="1165" y="-1535" />
<rect fill="#84A1AE" height="70" rx="15" width="70" x="1165" y="-3835" />
<rect fill="#84A1AE" height="70" rx="15" width="70" x="1265" y="-535" />
<rect fill="#84A1AE" height="70" rx="15" width="70" x="1265" y="-2835" />
<rect fill="#84A1AE" height="70" rx="15" width="70" x="1265" y="-3435" />
<rect fill="#84A1AE" height="70" rx="15" width="70" x="1265" y="-3835" />
<rect fill="#84A1AE" height="70" rx="15" width="70" x="1365" y="-535" />
<rect fill="#84A1AE" height="70" rx="15" width="70" x="1365" y="-835" />
<rect fill="#84A1AE" height="70" rx="15" width="70" x="1365" y="-935" />
<rect fill="#84A1AE" height="70" rx="15" width="70" x="1365" y="-1035" />
<rect fill="#84A1AE" height="70" rx="15" width="70" x="1365" y="-1935" />
<rect fill="#84A1AE" height="70" rx="15" width="70" x="1365" y="-2335" />
<rect fill="#84A1AE" height="70" rx="15" width="70" x="1365" y="-2635" />
<rect fill="#84A1AE" height="70" rx="15" width="70" x="1365" y="-2835" />
<rect fill="#84A1AE" height="70" rx="15" width="70" x="1365" y="-2935" />
<rect fill="#84A1AE" height="70" rx="15" width="70" x="1365" y="-3035" />
<rect fill="#84A1AE" height="70" rx="15" width="70" x="1365" y="-3335" />
<rect fill="#84A1AE" height="70" rx="15" width="70" x="1365" y="-3835" />
<rect fill="#84A1AE" height="70" rx="15" width="70" x="1465" y="-535" />
<rect fill="#84A1AE" height="70" rx="15" width="70" x="1465" y="-1235" />
<rect fill="#84A1AE" height="70" rx="15" width="70" x="1465" y="-1535" />
<rect fill="#84A1AE" height="70" rx="15" width="70" x="1465" y="-2035" />
<rect fill="#84A1AE" height="70" rx="15" width="70" x="1465" y="-3135" />
<rect fill="#84A1AE" height="70" rx="15" width="70" x="1465" y="-3235" />
<rect fill="#84A1AE" height="70" rx="15" width="70" x="1465" y="-3835" />
<rect fill="#84A1AE" height="70" rx="15" width="70" x="1565" y="-535" />
<rect fill="#84A1AE" height="70" rx="15" width="70" x="1565" y="-3035" />
<rect fill="#84A1AE" height="70" rx="15" width="70" x="1565" y="-3835" />
<rect fill="#84A1AE" height="70" rx="15" width="70" x="1665" y="-535" />
<rect fill="#84A1AE" height="70" rx="15" width="70" x="1665" y="-3735" />
<rect fill="#84A1AE" height="70" rx="15" width="70" x="1665" y="-3835" />
<rect fill="#84A1AE" height="70" rx="15" width="70" x="1765" y="-535" />
<rect fill="#84A1AE" height="70" rx="15" width="70" x="1765" y="-1235" />
<rect fill="#84A1AE" height="70" rx="15" width="70" x="1765" y="-3835" />
<rect fill="#84A1AE" height="70" rx="15" width="70" x="1865" y="-535" />
<rect fill="#84A1AE" height="70" rx="15" width="70" x="1865" y="-735" />
<rect fill="#84A1AE" height="70" rx="15" width="70" x="1865" y="-1335" />
<rect fill="#84A1AE" height="70" rx="15" width="70" x="1865" y="-3235" />
<rect fill="#84A1AE" height="70" rx="15" width="70" x="1865" y="-3435" />
<rect fill="#84A1AE" height="70" rx="15" width="70" x="1865" y="-3835" />
<rect fill="#84A1AE" height="70" rx="15" width="70" x="1965" y="-535" />
<rect fill="#84A1AE" height="70" rx="15" width="70" x="1965" y="-635" />
<rect fill="#84A1AE" height="70" rx="15" width="70" x="1965" y="-1835" />
<rect fill="#84A1AE" height="70" rx="15" width="70" x="1965" y="-1935" />
<rect fill="#84A1AE" height="70" rx="15" width="70" x="1965" y="-2135" />
<rect fill="#84A1AE" height="70" rx="15" width="70" x="1965" y="-2335" />
<rect fill="#84A1AE" height="70" rx="15" width="70" x="1965" y="-2435" />
<rect fill="#84A1AE" height="70" rx="15" width="70" x="1965" y="-3335" />
<rect fill="#84A1AE" height="70" rx="15" width="70" x="1965" y="-3835" />
<rect fill="#84A1AE" height="70" rx="15" width="70" x="2065" y="-535" />
<rect fill="#84A1AE" height="70" rx="15" width="70" x="2065" y="-1535" />
<rect fill="#84A1AE" height="70" rx="15" width="70" x="2065" y="-1635" />
<rect fill="#84A1AE" height="70" rx="15" width="70" x="2065" y="-2135" />
<rect fill="#84A1AE" height="70" rx="15" width="70" x="2065" y="-3835" />
<rect fill="#84A1AE" height="70" rx="15" width="70" x="2165" y="-535" />
<rect fill="#84A1AE" height="70" rx="15" width="70" x="2165" y="-935" />
<rect fill="#84A1AE" height="70" rx="15" width="70" x="2165" y="-1335" />
<rect fill="#84A1AE" height="70" rx="15" width="70" x="2165" y="-1835" />
<rect fill="#84A1AE" height="70" rx="15" width="70" x="2165" y="-3835" />
<rect fill="#84A1AE" height="70" rx="15" width="70" x="2265" y="-535" />
<rect fill="#84A1AE" height="70" rx="15" width="70" x="2265" y="-935" />
<rect fill="#84A1AE" height="70" rx="15" width="70" x="2265" y="-1135" />
<rect fill="#84A1AE" height="70" rx="15" width="70" x="2265" y="-2535" />
<rect fill="#84A1AE" height="70" rx="15" width="70" x="2265" y="-3235" />
<rect fill="#84A1AE" height="70" rx="15" width="70" x="2265" y="-3835" />
<rect fill="#84A1AE" height="70" rx="15" width="70" x="2365" y="-535" />
<rect fill="#84A1AE" height="70" rx="15" width="70" x="2365" y="-935" />
<rect fill="#84A1AE" height="70" rx="15" width="70" x="2365" y="-1035" />
<rect fill="#84A1AE" height="70" rx="15" width="70" x="2365" y="-3835" />
<rect fill="#84A1AE" height="70" rx="15" width="70" x="2465" y="-535" />
<rect fill="#84A1AE" height="70" rx="15" width="70" x="2465" y="-935" />
<rect fill="#84A1AE" height="70" rx="15" width="70" x="2465" y="-1535" />
<rect fill="#84A1AE" height="70" rx="15" width="70" x="2465" y="-2335" />
<rect fill="#84A1AE" height="70" rx="15" width="70" x="2465" y="-2735" />
<rect fill="#84A1AE" height="70" rx="15" width="70" x="2465" y="-3835" />
<rect fill="#84A1AE" height="70" rx="15" width="70" x="2565" y="-535" />
<rect fill="#84A1AE" height="70" rx="15" width="70" x="2565" y="-735" />
<rect fill="#84A1AE" height="70" rx="15" width="70" x="2565" y="-2535" />
<rect fill="#84A1AE" height="70" rx="15" width="70" x="2565" y="-3835" />
<rect fill="#84A1AE" height="70" rx="15" width="70" x="2665" y="-535" />
<rect fill="#84A1AE" height="70" rx="15" width="70" x="2665" y="-635" />
<rect fill="#84A1AE" height="70" rx="15" width="70" x="2665" y="-1135" />
<rect fill="#84A1AE" height="70" rx="15" width="70" x="2665" y="-1435" />
<rect fill="#84A1AE" height="70" rx="15" width="70" x="2665" y="-2735" />
<rect fill="#84A1AE" height="70" rx="15" width="70" x="2665" y="-3835" />
<rect fill="#84A1AE" height="70" rx="15" width="70" x="2765" y="-535" />
<rect fill="#84A1AE" height="70" rx="15" width="70" x="2765" y="-1635" />
<rect fill="#84A1AE" height="70" rx="15" width="70" x="2765" y="-1835" />
<rect fill="#84A1AE" height="70" rx="15" width="70" x="2765" y="-1935" />
<rect fill="#84A1AE" height="70" rx="15" width="70" x="2765" y="-2235" />
<rect fill="#84A1AE" height="70" rx="15" width="70" x="2765" y="-3735" />
<rect fill="#84A1AE" height="70" rx="15" width="70" x="2765" y="-3835" />
<rect fill="#84A1AE" height="70" rx="15" width="70" x="2865" y="-535" />
<rect fill="#84A1AE" height="70" rx="15" width="70" x="2865" y="-3835" />
<rect fill="#84A1AE" height="70" rx="15" width="70" x="2965" y="-535" />
<rect fill="#84A1AE" height="70" rx="15" width="70" x="2965" y="-2635" />
<rect fill="#84A1AE" height="70" rx="15" width="70" x="2965" y="-3835" />
<rect fill="#84A1AE" height="70" rx="15" width="70" x="3065" y="-535" />
<rect fill="#84A1AE" height="70" rx="15" width="70" x="3065" y="-735" />
<rect fill="#84A1AE" height="70" rx="15" width="70" x="3065" y="-2535" />
<rect fill="#84A1AE" height="70" rx="15" width="70" x="3065" y="-3835" />
<rect fill="#84A1AE" height="70" rx="15" width="70" x="3165" y="-535" />
<rect fill="#84A1AE" height="70" rx="15" width="70" x="3165" y="-835" />
<rect fill="#84A1AE" height="70" rx="15" width="70" x="3165" y="-1935" />
<rect fill="#84A1AE" height="70" rx="15" width="70" x="3165" y="-2735" />
<rect fill="#84A1AE" height="70" rx="15" width="70" x="3165" y="-3135" />
<rect fill="#84A1AE" height="70" rx="15" width="70" x="3165" y="-3835" />
<rect fill="#84A1AE" height="70" rx="15" width="70" x="3265" y="-535" />
<rect fill="#84A1AE" height="70" rx="15" width="70" x="3265" y="-1035" />
<rect fill="#84A1AE" height="70" rx="15" width="70" x="3265" y="-1735" />
<rect fill="#84A1AE" height="70" rx="15" width="70" x="3265" y="-3835" />
<rect fill="#84A1AE" height="70" rx="15" width="70" x="3365" y="-535" />
<rect fill="#84A1AE" height="70" rx="15" width="70" x="3365" y="-1435" />
<rect fill="#84A1AE" height="70" rx="15" width="70" x="3365" y="-1935" />
<rect fill="#84A1AE" height="70" rx="15" width="70" x="3365" y="-2135" />
<rect fill="#84A1AE" height="70" rx="15" width="70" x="3365" y="-3835" />
<rect fill="#84A1AE" height="70" rx="15" width="70" x="3465" y="-535" />
<rect fill="#84A1AE" height="70" rx="15" width="70" x="3465" y="-2635" />
<rect fill="#84A1AE" height="70" rx="15" width="70" x="3465" y="-3835" />
<rect fill="#84A1AE" height="70" rx="15" width="70" x="3565" y="-535" />
<rect fill="#84A1AE" height="70" rx="15" width="70" x="3565" y="-635" />
<rect fill="#84A1AE" height="70" rx="15" width="70" x="3565" y="-2435" />
<rect fill="#84A1AE" height="70" rx="15" width="70" x="3565" y="-3235" />
<rect fill="#84A1AE" height="70" rx="15" width="70" x="3565" y="-3835" />
<rect fill="#84A1AE" height="70" rx="15" width="70" x="3665" y="-535" />
<rect fill="#84A1AE" height="70" rx="15" width="70" x="3665" y="-2135" />
<rect fill="#84A1AE" height="70" rx="15" width="70" x="3665" y="-2835" />
<rect fill="#84A1AE" height="70" rx="15" width="70" x="3665" y="-3135" />
<rect fill="#84A1AE" height="70" rx="15" width="70" x="3665" y="-3735" />
<rect fill="#84A1AE" height="70" rx="15" width="70" x="3665" y="-3835" />
<rect fill="#84A1AE" height="70" rx="15" width="70" x="3765" y="-535" />
<rect fill="#84A1AE" height="70" rx="15" width="70" x="3765" y="-635" />
<rect fill="#84A1AE" height="70" rx="15" width="70" x="3765" y="-735" />
<rect fill="#84A1AE" height="70" rx="15" width="70" x="3765" y="-835" />
<rect fill="#84A1AE" height="70" rx="15" width="70" x="3765" y="-935" />
<rect fill="#84A1AE" height="70" rx="15" width="70" x="3765" y="-1035" />
<rect fill="#84A1AE" height="70" rx="15" width="70" x="3765" y="-1135" />
<rect fill="#84A1AE" height="70" rx="15" width="70" x="3765" y="-1235" />
<rect fill="#84A1AE" height="70" rx="15" width="70" x="3765" y="-1335" />
<rect fill="#84A1AE" height="70" rx="15" width="70" x="3765" y="-1435" />
<rect fill="#84A1AE" height="70" rx="15" width="70" x="3765" y="-1535" />
<rect fill="#84A1AE" height="70" rx="15" width="70" x="3765" y="-1635" />
<rect fill="#84A1AE" height="70" rx="15" width="70" x="3765" y="-1735" />
<rect fill="#84A1AE" height="70" rx="15" width="70" x="3765" y="-1835" />
<rect fill="#84A1AE" height="70" rx="15" width="70" x="3765" y="-1935" />
<rect fill="#84A1AE" height="70" rx="15" width="70" x="3765" y="-2035" />
<rect fill="#84A1AE" height="70" rx="15" width="70" x="3765" y="-2135" />
<rect fill="#84A1AE" height="70" rx="15" width="70" x="3765" y="-2235" />
<rect fill="#84A1AE" height="70" rx="15" width="70" x="3765" y="-2335" />
<rect fill="#84A1AE" height="70" rx="15" width="70" x="3765" y="-2435" />
<rect fill="#84A1AE" height="70" rx="15" width="70" x="3765" y="-2535" />
<rect fill="#84A1AE" height="70" rx="15" width="70" x="3765" y="-2635" />
<rect fill="#84A1AE" height="70" rx="15" width="70" x="3765" y="-2735" />
<rect fill="#84A1AE" height="70" rx="15" width="70" x="3765" y="-2835" />
<rect fill="#84A1AE" height="70" rx="15" width="70" x="3765" y="-2935" />
<rect fill="#84A1AE" height="70" rx="15" width="70" x="3765" y="-3035" />
<rect fill="#84A1AE" height="70" rx="15" width="70" x="3765" y="-3135" />
<rect fill="#84A1AE" height="70" rx="15" width="70" x="3765" y="-3235" />
<rect fill="#84A1AE" height="70" rx="15" width="70" x="3765" y="-3335" />
<rect fill="#84A1AE" height="70" rx="15" width="70" x="3765" y="-3435" />
<rect fill="#84A1AE" height="70" rx="15" width="70" x="3765" y="-3535" />
<rect fill="#84A1AE" height="70" rx="15" width="70" x="3765" y="-3635" />
<rect fill="#84A1AE" height="70" rx="15" width="70" x="3765" y="-3735" />
<rect fill="#84A1AE" height="70" rx="15" width="70" x="3765" y="-3835" />
<circle cx="2500" cy="-1400" fill="#c1433c" r="35"> <animate attributeName="cy" dur="75.88000000000001s" keyTimes="0.0;0.0036764706;0.0073529412;0.0110294118;0.0147058824;0.0183823529;0.0220588235;0.0257352941;0.0294117647;0.0330882353;0.0367647059;0.0404411765;0.0441176471;0.0477941176;0.0514705882;0.0551470588;0.0588235294;0.0625;0.0661764706;0.0698529412;0.0735294118;0.1654411765;0.1691176471;0.1764705882;0.1801470588;0.1838235294;0.2095588235;0.2132352941;0.2169117647;0.2205882353;0.2242647059;0.2279411765;0.2316176471;0.2573529412;0.2610294118;0.2647058824;0.2904411765;0.2941176471;0.2977941176;0.3014705882;0.3051470588;0.3088235294;0.3125;0.3161764706;0.3198529412;0.3235294118;0.3272058824;0.3308823529;0.3419117647;0.3455882353;0.3492647059;0.3529411765;0.3566176471;0.3676470588;0.3713235294;0.375;0.3786764706;0.3860294118;0.3897058824;0.3933823529;0.3970588235;0.4007352941;0.4044117647;0.4080882353;0.4117647059;0.4154411765;0.4191176471;0.4264705882;0.4301470588;0.4338235294;0.4375;0.4411764706;0.4448529412;0.4485294118;0.4522058824;0.4595588235;0.4632352941;0.4669117647;0.4705882353;0.4742647059;0.4779411765;0.4816176471;0.5036764706;0.5073529412;0.5110294118;0.5147058824;0.5183823529;0.5220588235;0.5257352941;0.5330882353;0.5367647059;0.5404411765;0.5441176471;0.5477941176;0.5514705882;0.5551470588;0.5588235294;0.5625;0.5661764706;0.5698529412;0.5735294118;0.5772058824;0.6139705882;0.6176470588;0.6213235294;0.625;0.6286764706;0.6360294118;0.6397058824;0.6433823529;0.6470588235;0.6507352941;0.6580882353;0.6617647059;0.6654411765;0.6691176471;0.7095588235;0.7132352941;0.75;0.7536764706;0.7573529412;0.7610294118;0.7647058824;0.7683823529;0.7720588235;0.7757352941;0.7794117647;0.7830882353;0.7867647059;0.7904411765;0.7941176471;0.7977941176;0.8014705882;0.8051470588;0.8088235294;0.8125;0.8161764706;0.8198529412;0.8235294118;0.8272058824;0.8308823529;0.8345588235;0.8382352941;0.8419117647;0.8455882353;0.8492647059;0.8529411765;0.8566176471;0.8602941176;0.8860294118;0.8897058824;0.9375;0.9411764706;0.9448529412;0.9485294118;0.9522058824;0.9558823529;0.9595588235;0.9632352941;0.9669117647;0.9705882353;0.9779411765;0.9816176471;0.9852941176;0.9926470588;0.9963235294;1.0" repeatCount="indefinite" values="-1400;-1400;-1400;-1500;-1600;-1700;-1800;-1900;-2000;-2100;-2200;-2300;-2400;-2400;-2500;-2600;-2600;-2700;-2800;-2900;-3000;-3000;-2900;-2900;-2800;-2700;-2700;-2600;-2500;-2400;-2500;-2600;-2700;-2700;-2600;-2500;-2500;-2400;-2300;-2200;-2100;-2000;-2000;-1900;-1800;-1800;-1700;-1600;-1600;-1500;-1500;-1400;-1300;-1300;-1200;-1200;-1100;-1100;-1000;-900;-1000;-1100;-1200;-1200;-1300;-1400;-1500;-1500;-1600;-1700;-1800;-1900;-2000;-2100;-2200;-2200;-2300;-2400;-2400;-2500;-2500;-2600;-2600;-2700;-2700;-2800;-2800;-2900;-3000;-3000;-3100;-3200;-3300;-3400;-3400;-3500;-3500;-3400;-3300;-3200;-3200;-3100;-3100;-3000;-3000;-2900;-2800;-2800;-2700;-2600;-2600;-2500;-2500;-2400;-2400;-2300;-2300;-2200;-2200;-2100;-2000;-1900;-1800;-1700;-1600;-1500;-1400;-1300;-1200;-1300;-1400;-1500;-1600;-1700;-1800;-1900;-2000;-2100;-2200;-2300;-2400;-2500;-2600;-2700;-2800;-2900;-2900;-3000;-3100;-3100;-3200;-3200;-3100;-3000;-2900;-2800;-2700;-2600;-2600;-2500;-2400;-2400;-2300;-2400;-2400;-2500;-2500"/>
<animate attributeName="cx" dur="75.88000000000001s" keyTimes="0.0;0.0036764706;0.0073529412;0.0441176471;0.0477941176;0.0551470588;0.0588235294;0.0735294118;0.0772058824;0.0808823529;0.0845588235;0.0882352941;0.0919117647;0.0955882353;0.0992647059;0.1029411765;0.1066176471;0.1102941176;0.1139705882;0.1176470588;0.1213235294;0.125;0.1286764706;0.1323529412;0.1360294118;0.1397058824;0.1433823529;0.1470588235;0.1507352941;0.1544117647;0.1580882353;0.1617647059;0.1654411765;0.1691176471;0.1727941176;0.1764705882;0.1838235294;0.1875;0.1911764706;0.1948529412;0.1985294118;0.2022058824;0.2058823529;0.2095588235;0.2316176471;0.2352941176;0.2389705882;0.2426470588;0.2463235294;0.25;0.2536764706;0.2573529412;0.2647058824;0.2683823529;0.2720588235;0.2757352941;0.2794117647;0.2830882353;0.2867647059;0.2904411765;0.3088235294;0.3125;0.3198529412;0.3235294118;0.3308823529;0.3345588235;0.3382352941;0.3419117647;0.3455882353;0.3492647059;0.3566176471;0.3602941176;0.3639705882;0.3676470588;0.3713235294;0.375;0.3786764706;0.3823529412;0.3860294118;0.4044117647;0.4080882353;0.4191176471;0.4227941176;0.4264705882;0.4522058824;0.4558823529;0.4595588235;0.4669117647;0.4705882353;0.4742647059;0.4779411765;0.4816176471;0.4852941176;0.4889705882;0.4926470588;0.4963235294;0.5;0.5036764706;0.5073529412;0.5110294118;0.5147058824;0.5183823529;0.5257352941;0.5294117647;0.5330882353;0.5477941176;0.5514705882;0.5551470588;0.5588235294;0.5698529412;0.5735294118;0.5772058824;0.5808823529;0.5845588235;0.5882352941;0.5919117647;0.5955882353;0.5992647059;0.6029411765;0.6066176471;0.6102941176;0.6139705882;0.6176470588;0.6213235294;0.6286764706;0.6323529412;0.6360294118;0.6433823529;0.6470588235;0.6507352941;0.6544117647;0.6580882353;0.6617647059;0.6654411765;0.6691176471;0.6727941176;0.6764705882;0.6801470588;0.6838235294;0.6875;0.6911764706;0.6948529412;0.6985294118;0.7022058824;0.7058823529;0.7095588235;0.7132352941;0.7169117647;0.7205882353;0.7242647059;0.7279411765;0.7316176471;0.7352941176;0.7389705882;0.7426470588;0.7463235294;0.75;0.8492647059;0.8529411765;0.8602941176;0.8639705882;0.8676470588;0.8713235294;0.875;0.8786764706;0.8823529412;0.8860294118;0.8897058824;0.8933823529;0.8970588235;0.9007352941;0.9044117647;0.9080882353;0.9117647059;0.9154411765;0.9191176471;0.9227941176;0.9264705882;0.9301470588;0.9338235294;0.9375;0.9595588235;0.9632352941;0.9705882353;0.9742647059;0.9779411765;0.9852941176;0.9889705882;0.9926470588;1.0" repeatCount="indefinite" values="2500;2500;2600;2600;2700;2700;2800;2800;2900;3000;3100;3200;3300;3400;3500;3400;3300;3200;3100;3000;2900;2800;2700;2600;2500;2400;2300;2200;2100;2000;1900;1800;1700;1700;1600;1500;1500;1400;1300;1200;1100;1000;900;800;800;900;1000;1100;1200;1300;1400;1500;1500;1600;1700;1800;1900;2000;2100;2200;2200;2300;2300;2400;2400;2500;2600;2700;2700;2800;2800;2900;3000;3100;3100;3200;3200;3300;3400;3400;3300;3300;3200;3100;3100;3000;2900;2900;2800;2800;2700;2700;2600;2500;2400;2300;2200;2100;2100;2000;2000;1900;1900;1800;1700;1700;1600;1600;1700;1700;1800;1800;1900;2000;2100;2200;2300;2400;2500;2600;2700;2800;2800;2900;2900;3000;3100;3100;3200;3200;3300;3400;3400;3500;3500;3600;3500;3400;3300;3200;3100;3000;2900;2800;2700;2600;2600;2500;2400;2300;2200;2100;2000;1900;1800;1700;1600;1600;1700;1700;1800;1900;2000;2100;2200;2300;2400;2400;2500;2600;2700;2800;2900;3000;3100;3200;3300;3400;3500;3400;3300;3300;3200;3200;3100;3000;3000;3100;3200;3200"/>
<animate attributeName="visibility" dur="75.88000000000001s" keyTimes="0.0;0.0036764706;1.0" repeatCount="indefinite" values="visible;visible;visible"/> </circle>
<circle cx="3000" cy="-1900" fill="#2e6f9e" r="35"> <animate attributeName="cy" dur="75.88000000000001s" keyTimes="0.0;0.0036764706;0.0183823529;0.0220588235;0.0294117647;0.0330882353;0.0367647059;0.0404411765;0.0661764706;0.0698529412;0.0735294118;0.0772058824;0.0808823529;0.0845588235;0.0882352941;0.0919117647;0.0955882353;0.0992647059;0.1102941176;0.1139705882;0.1286764706;0.1323529412;0.1360294118;0.1397058824;0.1580882353;0.1617647059;0.1801470588;0.1838235294;0.1911764706;0.1948529412;0.2022058824;0.2058823529;0.2132352941;0.2169117647;0.2205882353;0.2242647059;0.2279411765;0.2316176471;0.2389705882;0.2426470588;0.2536764706;0.2573529412;0.2610294118;0.2647058824;0.2683823529;0.2720588235;0.2757352941;0.2830882353;0.2867647059;0.2904411765;0.2941176471;0.2977941176;0.3014705882;0.3051470588;0.3088235294;0.3125;0.3198529412;0.3235294118;0.3272058824;0.3529411765;0.3566176471;0.3676470588;0.3713235294;0.375;0.3786764706;0.3823529412;0.3860294118;0.3897058824;0.3933823529;0.4007352941;0.4044117647;0.4080882353;0.4117647059;0.4154411765;0.4191176471;0.4227941176;0.4264705882;0.4301470588;0.4338235294;0.4485294118;0.4522058824;0.4558823529;0.4742647059;0.4779411765;0.5;0.5036764706;0.5073529412;0.5110294118;0.5147058824;0.5183823529;0.5220588235;0.5257352941;0.5294117647;0.5330882353;0.5367647059;0.5404411765;0.5477941176;0.5514705882;0.5551470588;0.5735294118;0.5772058824;0.5808823529;0.5845588235;0.5882352941;0.5955882353;0.5992647059;0.6029411765;0.6066176471;0.6102941176;0.625;0.6286764706;0.6323529412;0.6507352941;0.6544117647;0.6580882353;0.6617647059;0.6691176471;0.6727941176;0.6764705882;0.6801470588;0.6838235294;0.6875;0.6911764706;0.6948529412;0.6985294118;0.7058823529;0.7095588235;0.7132352941;0.7169117647;0.7205882353;0.7279411765;0.7316176471;0.7352941176;0.7389705882;0.7426470588;0.7610294118;0.7647058824;0.7683823529;0.7720588235;0.7757352941;0.7794117647;0.7830882353;0.7904411765;0.7941176471;0.7977941176;0.8014705882;0.8125;0.8161764706;0.8198529412;0.8235294118;0.8272058824;0.8308823529;0.8382352941;0.8419117647;0.8602941176;0.8639705882;0.8676470588;0.8713235294;0.875;0.8823529412;0.8860294118;0.8933823529;0.8970588235;0.9007352941;0.9044117647;0.9080882353;0.9117647059;0.9154411765;0.9191176471;0.9264705882;0.9301470588;0.9338235294;0.9375;0.9411764706;0.9448529412;0.9485294118;0.9522058824;0.9558823529;0.9595588235;0.9632352941;0.9742647059;0.9779411765;0.9816176471;0.9852941176;0.9889705882;0.9926470588;1.0" repeatCount="indefinite" values="-1900;-1900;-1900;-1800;-1800;-1900;-1900;-2000;-2000;-2100;-2000;-2000;-2100;-2200;-2300;-2400;-2400;-2300;-2300;-2400;-2400;-2500;-2500;-2600;-2600;-2500;-2500;-2400;-2400;-2500;-2500;-2600;-2600;-2700;-2800;-2700;-2700;-2800;-2800;-2900;-2900;-3000;-3000;-2900;-3000;-2900;-2800;-2800;-2900;-2800;-2900;-2900;-2800;-2700;-2600;-2700;-2700;-2600;-2500;-2500;-2600;-2600;-2700;-2600;-2600;-2700;-2800;-2800;-2700;-2700;-2800;-2800;-2700;-2800;-2700;-2800;-2700;-2600;-2500;-2500;-2600;-2500;-2500;-2600;-2600;-2500;-2600;-2500;-2600;-2500;-2500;-2400;-2400;-2500;-2600;-2700;-2700;-2800;-2700;-2700;-2600;-2700;-2800;-2900;-2900;-3000;-2900;-2900;-3000;-3000;-2900;-2800;-2800;-2900;-2900;-2800;-2800;-2900;-2800;-2800;-2900;-3000;-3000;-3100;-3200;-3200;-3300;-3400;-3500;-3600;-3600;-3700;-3700;-3600;-3500;-3500;-3600;-3600;-3700;-3600;-3600;-3700;-3700;-3600;-3600;-3500;-3500;-3400;-3300;-3200;-3200;-3100;-3100;-3200;-3200;-3300;-3300;-3400;-3300;-3300;-3400;-3400;-3300;-3300;-3200;-3200;-3300;-3400;-3500;-3500;-3400;-3300;-3300;-3200;-3300;-3200;-3200;-3100;-3000;-2900;-2900;-2800;-2800;-2900;-3000;-3100;-3100"/>
<animate attributeName="cx" dur="75.88000000000001s" keyTimes="0.0;0.0036764706;0.0073529412;0.0110294118;0.0147058824;0.0183823529;0.0220588235;0.0257352941;0.0294117647;0.0330882353;0.0367647059;0.0441176471;0.0477941176;0.0514705882;0.0551470588;0.0588235294;0.0625;0.0661764706;0.0735294118;0.0772058824;0.0919117647;0.0955882353;0.0992647059;0.1029411765;0.1066176471;0.1102941176;0.1139705882;0.1176470588;0.1213235294;0.125;0.1286764706;0.1323529412;0.1360294118;0.1397058824;0.1433823529;0.1470588235;0.1507352941;0.1544117647;0.1580882353;0.1838235294;0.1875;0.1911764706;0.1985294118;0.2022058824;0.2058823529;0.2095588235;0.2132352941;0.2316176471;0.2352941176;0.2389705882;0.2426470588;0.2463235294;0.25;0.2536764706;0.2573529412;0.2610294118;0.2757352941;0.2794117647;0.2830882353;0.2941176471;0.2977941176;0.3125;0.3161764706;0.3272058824;0.3308823529;0.3345588235;0.3382352941;0.3419117647;0.3455882353;0.3492647059;0.3529411765;0.3566176471;0.3602941176;0.3639705882;0.375;0.3786764706;0.3860294118;0.3897058824;0.3970588235;0.4007352941;0.4044117647;0.4080882353;0.4375;0.4411764706;0.4448529412;0.4558823529;0.4595588235;0.4632352941;0.4669117647;0.4705882353;0.4742647059;0.4779411765;0.4816176471;0.4852941176;0.4889705882;0.4926470588;0.4963235294;0.5;0.5183823529;0.5220588235;0.5257352941;0.5294117647;0.5404411765;0.5441176471;0.5477941176;0.5551470588;0.5588235294;0.5625;0.5661764706;0.5698529412;0.5735294118;0.6029411765;0.6066176471;0.6102941176;0.6139705882;0.6176470588;0.6213235294;0.6323529412;0.6360294118;0.6397058824;0.6433823529;0.6470588235;0.6544117647;0.6580882353;0.6617647059;0.6654411765;0.6764705882;0.6801470588;0.6875;0.6911764706;0.7022058824;0.7058823529;0.7205882353;0.7242647059;0.7279411765;0.7316176471;0.7352941176;0.75;0.7536764706;0.7573529412;0.7610294118;0.7757352941;0.7794117647;0.7830882353;0.7867647059;0.7904411765;0.7941176471;0.7977941176;0.8014705882;0.8051470588;0.8088235294;0.8235294118;0.8272058824;0.8308823529;0.8345588235;0.8382352941;0.8492647059;0.8529411765;0.8566176471;0.8602941176;0.8786764706;0.8823529412;0.8970588235;0.9007352941;0.9044117647;0.9080882353;0.9191176471;0.9227941176;0.9264705882;0.9669117647;0.9705882353;0.9742647059;0.9779411765;0.9816176471;0.9926470588;0.9963235294;1.0" repeatCount="indefinite" values="3000;3000;3100;3000;3000;3100;3100;3000;2900;2900;3000;3000;2900;3000;2900;3000;3000;2900;2900;3000;3000;2900;2900;2800;2700;2800;2800;2900;2800;2700;2800;2800;2700;2700;2800;2700;2700;2600;2700;2700;2600;2500;2500;2400;2400;2500;2600;2600;2500;2400;2400;2300;2200;2100;2100;2000;2000;1900;2000;2000;1900;1900;2000;2000;1900;1900;2000;2000;1900;1900;1800;1800;1700;1800;1800;1900;1900;2000;2000;2100;2100;2000;2000;1900;1800;1800;1700;1800;1700;1600;1500;1500;1600;1700;1600;1500;1600;1700;1700;1800;1800;1900;1900;1800;1700;1700;1800;1700;1800;1800;1700;1700;1800;1800;1900;1800;1900;1900;1800;1700;1600;1700;1700;1600;1600;1700;1700;1800;1800;1700;1700;1800;1800;1900;1800;1800;1900;1900;2000;2000;2100;2100;2200;2200;2300;2400;2400;2300;2300;2400;2500;2500;2400;2400;2300;2200;2200;2100;2200;2100;2100;2200;2200;2100;2100;2200;2200;2100;2200;2200;2100;2000;2000;1900;1900;2000;2000"/>
<animate attributeName="visibility" dur="75.88000000000001s" keyTimes="0.0;0.0036764706;1.0" repeatCount="indefinite" values="visible;visible;visible"/> </circle>
<circle cx="3500" cy="-3000" fill="none" r="35" stroke="#c1433c" stroke-width="10"> <animate attributeName="cy" dur="75.88000000000001s" keyTimes="0.0;0.0036764706;0.0955882353;0.0992647059;0.2169117647;0.2205882353;0.25;0.2536764706;0.3897058824;0.3933823529;0.4779411765;0.4816176471;0.5514705882;0.5551470588;0.6691176471;0.6727941176;0.7830882353;0.7867647059;0.9264705882;0.9301470588;0.9779411765;0.9816176471;1.0" repeatCount="indefinite" values="-3000;-3000;-3000;-2400;-2400;-2700;-2700;-900;-900;-2600;-2600;-3500;-3500;-2300;-2300;-1200;-1200;-3200;-3200;-2300;-2300;-3400;-3400"/>
<animate attributeName="cx" dur="75.88000000000001s" keyTimes="0.0;0.0036764706;0.0955882353;0.0992647059;0.2169117647;0.2205882353;0.25;0.2536764706;0.3897058824;0.3933823529;0.4779411765;0.4816176471;0.5514705882;0.5551470588;0.6691176471;0.6727941176;0.7830882353;0.7867647059;0.9264705882;0.9301470588;0.9779411765;0.9816176471;1.0" repeatCount="indefinite" values="3500;3500;3500;800;800;1400;1400;3400;3400;2700;2700;1600;1600;3600;3600;1600;1600;3500;3500;3000;3000;3700;3700"/>
<animate attributeName="visibility" dur="75.88000000000001s" keyTimes="0.0;0.0036764706;1.0" repeatCount="indefinite" values="visible;visible;visible"/> </circle>
<circle cx="2600" cy="-2600" fill="none" r="35" stroke="#2e6f9e" stroke-width="10"> <animate attributeName="cy" dur="75.88000000000001s" keyTimes="0.0;0.0036764706;0.1507352941;0.1544117647;0.4558823529;0.4595588235;0.9154411765;0.9191176471;1.0" repeatCount="indefinite" values="-2600;-2600;-2600;-2500;-2500;-3500;-3500;-3200;-3200"/>
<animate attributeName="cx" dur="75.88000000000001s" keyTimes="0.0;0.0036764706;0.1507352941;0.1544117647;0.4558823529;0.4595588235;0.9154411765;0.9191176471;1.0" repeatCount="indefinite" values="2600;2600;2600;1700;1700;2200;2200;2100;2100"/>
<animate attributeName="visibility" dur="75.88000000000001s" keyTimes="0.0;0.0036764706;1.0" repeatCount="indefinite" values="visible;visible;visible"/> </circle>
</svg>