<?xml version="1.0" encoding="UTF-8"?>
        <svg xmlns="http://www.w3.org/2000/svg" xmlns:xlink="http://www.w3.org/1999/xlink"
             width="430" height="430" viewBox="0 -4300 4300 4300">

<defs>

</defs>

<rect fill="#84A1AE" height="70" rx="15" width="70" x="465" y="-535" />
<rect fill="#84A1AE" height="70" rx="15" width="70" x="465" y="-635" />
<rect fill="#84A1AE" height="70" rx="15" width="70" x="465" y="-735" />
<rect fill="#84A1AE" height="70" rx="15" width="70" x="465" y="-835" />
<rect fill="#84A1AE" height="70" rx="15" width="70" x="465" y="-935" />
<rect fill="#84A1AE" height="70" rx="15" width="70" x="465" y="-1035" />
<rect fill="#84A1AE" height="70" rx="15" width="70" x="465" y="-1135" />
<rect fill="#84A1AE" height="70" rx="15" width="70" x="465" y="-1235" />
<rect fill="#84A1AE" height="70" rx="15" width="70" x="465" y="-1335" />
<rect fill="#84A1AE" height="70" rx="15" width="70" x="465" y="-1435" />
<rect fill="#84A1AE" height="70" rx="15" width="70" x="465" y="-1535" />
<rect fill="#84A1AE" height="70" rx="15" width="70" x="465" y="-1635" />
<rect fill="#84A1AE" height="70" rx="15" width="70" x="465" y="-1735" />
<rect fill="#84A1AE" height="70" rx="15" width="70" x="465" y="-1835" />
<rect fill="#84A1AE" height="70" rx="15" width="70" x="465" y="-1935" />
<rect fill="#84A1AE" height="70" rx="15" width="70" x="465" y="-2035" />
<rect fill="#84A1AE" height="70" rx="15" width="70" x="465" y="-2135" />
<rect fill="#84A1AE" height="70" rx="15" width="70" x="465" y="-2235" />
<rect fill="#84A1AE" height="70" rx="15" width="70" x="465" y="-2335" />
<rect fill="#84A1AE" height="70" rx="15" width="70" x="465" y="-2435" />
<rect fill="#84A1AE" height="70" rx="15" width="70" x="465" y="-2535" />
<rect fill="#84A1AE" height="70" rx="15" width="70" x="465" y="-2635" />
<rect fill="#84A1AE" height="70" rx="15" width="70" x="465" y="-2735" />
<rect fill="#84A1AE" height="70" rx="15" width="70" x="465" y="-2835" />
<rect fill="#84A1AE" height="70" rx="15" width="70" x="465" y="-2935" />
<rect fill="#84A1AE" height="70" rx="15" width="70" x="465" y="-3035" />
<rect fill="#84A1AE" height="70" rx="15" width="70" x="465" y="-3135" />
<rect fill="#84A1AE" height="70" rx="15" width="70" x="465" y="-3235" />
<rect fill="#84A1AE" height="70" rx="15" width="70" x="465" y="-3335" />
<rect fill="#84A1AE" height="70" rx="15" width="70" x="465" y="-3435" />
<rect fill="#84A1AE" height="70" rx="15" width="70" x="465" y="-3535" />
<rect fill="#84A1AE" height="70" rx="15" width="70" x="465" y="-3635" />
<rect fill="#84A1AE" height="70" rx="15" width="70" x="465" y="-3735" />
<rect fill="#84A1AE" height="70" rx="15" width="70" x="465" y="-3835" />
<rect fill="#84A1AE" height="70" rx="15" width="70" x="565" y="-535" />
<rect fill="#84A1AE" height="70" rx="15" width="70" x="565" y="-1635" />
<rect fill="#84A1AE" height="70" rx="15" width="70" x="565" y="-1935" />
<rect fill="#84A1AE" height="70" rx="15" width="70" x="565" y="-2735" />
<rect fill="#84A1AE" height="70" rx="15" width="70" x="565" y="-3835" />
<rect fill="#84A1AE" height="70" rx="15" width="70" x="665" y="-535" />
<rect fill="#84A1AE" height="70" rx="15" width="70" x="665" y="-1035" />
<rect fill="#84A1AE" height="70" rx="15" width="70" x="665" y="-2535" />
<rect fill="#84A1AE" height="70" rx="15" width="70" x="665" y="-3035" />
<rect fill="#84A1AE" height="70" rx="15" width="70" x="665" y="-3235" />
<rect fill="#84A1AE" height="70" rx="15" width="70" x="665" y="-3835" />
<rect fill="#84A1AE" height="70" rx="15" width="70" x="765" y="-535" />
<rect fill="#84A1AE" height="70" rx="15" width="70" x="765" y="-635" />
<rect fill="#84A1AE" height="70" rx="15" width="70" x="765" y="-3835" />
<rect fill="#84A1AE" height="70" rx="15" width="70" x="865" y="-535" />
<rect fill="#84A1AE" height="70" rx="15" width="70" x="865" y="-2435" />
<rect fill="#84A1AE" height="70" rx="15" width="70" x="865" y="-2535" />
<rect fill="#84A1AE" height="70" rx="15" width="70" x="865" y="-3335" />
<rect fill="#84A1AE" height="70" rx="15" width="70" x="865" y="-3435" />
<rect fill="#84A1AE" height="70" rx="15" width="70" x="865" y="-3835" />
<rect fill="#84A1AE" height="70" rx="15" width="70" x="965" y="-535" />
<rect fill="#84A1AE" height="70" rx="15" width="70" x="965" y="-735" />
<rect fill="#84A1AE" height="70" rx="15" width="70" x="965" y="-1635" />
<rect fill="#84A1AE" height="70" rx="15" width="70" x="965" y="-1835" />
<rect fill="#84A1AE" height="70" rx="15" width="70" x="965" y="-2835" />
<rect fill="#84A1AE" height="70" rx="15" width="70" x="965" y="-3435" />
<rect fill="#84A1AE" height="70" rx="15" width="70" x="965" y="-3835" />
<rect fill="#84A1AE" height="70" rx="15" width="70" x="1065" y="-535" />
<rect fill="#84A1AE" height="70" rx="15" width="70" x="1065" y="-1135" />
<rect fill="#84A1AE" height="70" rx="15" width="70" x="1065" y="-1835" />
<rect fill="#84A1AE" height="70" rx="15" width="70" x="1065" y="-3735" />
<rect fill="#84A1AE" height="70" rx="15" width="70" x="1065" y="-3835" />
<rect fill="#84A1AE" height="70" rx="15" width="70" x="1165" y="-535" />
<rect fill="#84A1AE" height="70" rx="15" width="70" x="1165" y="-635" />
<rect fill="#84A1AE" height="70" rx="15" width="70" x="1165" y="-735" />
<rect fill="#84A1AE" height="70" rx="15" width="70" x="1165" y="-1535" />
<rect fill="#84A1AE" height="70" rx="15" width="70" x="1165" y="-3835" />
<rect fill="#84A1AE" height="70" rx="15" width="70" x="1265" y="-535" />
<rect fill="#84A1AE" height="70" rx="15" width="70" x="1265" y="-2835" />
<rect fill="#84A1AE" height="70" rx="15" width="70" x="1265" y="-3435" />
<rect fill="#84A1AE" height="70" rx="15" width="70" x="1265" y="-3835" />
<rect fill="#84A1AE" height="70" rx="15" width="70" x="1365" y="-535" />
<rect fill="#84A1AE" height="70" rx="15" width="70" x="1365" y="-835" />
<rect fill="#84A1AE" height="70" rx="15" width="70" x="1365" y="-935" />
<rect fill="#84A1AE" height="70" rx="15" width="70" x="1365" y="-1035" />
<rect fill="#84A1AE" height="70" rx="15" width="70" x="1365" y="-1935" />
<rect fill="#84A1AE" height="70" rx="15" width="70" x="1365" y="-2335" />
<rect fill="#84A1AE" height="70" rx="15" width="70" x="1365" y="-2635" />
<rect fill="#84A1AE" height="70" rx="15" width="70" x="1365" y="-2835" />
<rect fill="#84A1AE" height="70" rx="15" width="70" x="1365" y="-2935" />
<rect fill="#84A1AE" height="70" rx="15" width="70" x="1365" y="-3035" />
<rect fill="#84A1AE" height="70" rx="15" width="70" x="1365" y="-3335" />
<rect fill="#84A1AE" height="70" rx="15" width="70" x="1365" y="-3835" />
<rect fill="#84A1AE" height="70" rx="15" width="70" x="1465" y="-535" />
<rect fill="#84A1AE" height="70" rx="15" width="70" x="1465" y="-1235" />
<rect fill="#84A1AE" height="70" rx="15" width="70" x="1465" y="-1535" />
<rect fill="#84A1AE" height="70" rx="15" width="70" x="1465" y="-2035" />
<rect fill="#84A1AE" height="70" rx="15" width="70" x="1465" y="-3135" />
<rect fill="#84A1AE" height="70" rx="15" width="70" x="1465" y="-3235" />
<rect fill="#84A1AE" height="70" rx="15" width="70" x="1465" y="-3835" />
<rect fill="#84A1AE" height="70" rx="15" width="70" x="1565" y="-535" />
<rect fill="#84A1AE" height="70" rx="15" width="70" x="1565" y="-3035" />
<rect fill="#84A1AE" height="70" rx="15" width="70" x="1565" y="-3835" />
<rect fill="#84A1AE" height="70" rx="15" width="70" x="1665" y="-535" />
<rect fill="#84A1AE" height="70" rx="15" width="70" x="1665" y="-3735" />
<rect fill="#84A1AE" height="70" rx="15" width="70" x="1665" y="-3835" />
<rect fill="#84A1AE" height="70" rx="15" width="70" x="1765" y="-535" />
<rect fill="#84A1AE" height="70" rx="15" width="70" x="1765" y="-1235" />
<rect fill="#84A1AE" height="70" rx="15" width="70" x="1765" y="-3835" />
<rect fill="#84A1AE" height="70" rx="15" width="70" x="1865" y="-535" />
<rect fill="#84A1AE" height="70" rx="15" width="70" x="1865" y="-735" />
<rect fill="#84A1AE" height="70" rx="15" width="70" x="1865" y="-1335" />
<rect fill="#84A1AE" height="70" rx="15" width="70" x="1865" y="-3235" />
<rect fill="#84A1AE" height="70" rx="15" width="70" x="1865" y="-3435" />
<rect fill="#84A1AE" height="70" rx="15" width="70" x="1865" y="-3835" />
<rect fill="#84A1AE" height="70" rx="15" width="70" x="1965" y="-535" />
<rect fill="#84A1AE" height="70" rx="15" width="70" x="1965" y="-635" />
<rect fill="#84A1AE" height="70" rx="15" width="70" x="1965" y="-1835" />
<rect fill="#84A1AE" height="70" rx="15" width="70" x="1965" y="-1935" />
<rect fill="#84A1AE" height="70" rx="15" width="70" x="1965" y="-2135" />
<rect fill="#84A1AE" height="70" rx="15" width="70" x="1965" y="-2335" />
<rect fill="#84A1AE" height="70" rx="15" width="70" x="1965" y="-2435" />
<rect fill="#84A1AE" height="70" rx="15" width="70" x="1965" y="-3335" />
<rect fill="#84A1AE" height="70" rx="15" width="70" x="1965" y="-3835" />
<rect fill="#84A1AE" height="70" rx="15" width="70" x="2065" y="-535" />
<rect fill="#84A1AE" height="70" rx="15" width="70" x="2065" y="-1535" />
<rect fill="#84A1AE" height="70" rx="15" width="70" x="2065" y="-1635" />
<rect fill="#84A1AE" height="70" rx="15" width="70" x="2065" y="-2135" />
<rect fill="#84A1AE" height="70" rx="15" width="70" x="2065" y="-3835" />
<rect fill="#84A1AE" height="70" rx="15" width="70" x="2165" y="-535" />
<rect fill="#84A1AE" height="70" rx="15" width="70" x="2165" y="-935" />
<rect fill="#84A1AE" height="70" rx="15" width="70" x="2165" y="-1335" />
<rect fill="#84A1AE" height="70" rx="15" width="70" x="2165" y="-1835" />
<rect fill="#84A1AE" height="70" rx="15" width="70" x="2165" y="-3835" />
<rect fill="#84A1AE" height="70" rx="15" width="70" x="2265" y="-535" />
<rect fill="#84A1AE" height="70" rx="15" width="70" x="2265" y="-935" />
<rect fill="#84A1AE" height="70" rx="15" width="70" x="2265" y="-1135" />
<rect fill="#84A1AE" height="70" rx="15" width="70" x="2265" y="-2535" />
<rect fill="#84A1AE" height="70" rx="15" width="70" x="2265" y="-3235" />
<rect fill="#84A1AE" height="70" rx="15" width="70" x="2265" y="-3835" />
<rect fill="#84A1AE" height="70" rx="15" width="70" x="2365" y="-535" />
<rect fill="#84A1AE" height="70" rx="15" width="70" x="2365" y="-935" />
<rect fill="#84A1AE" height="70" rx="15" width="70" x="2365" y="-1035" />
<rect fill="#84A1AE" height="70" rx="15" width="70" x="2365" y="-3835" />
<rect fill="#84A1AE" height="70" rx="15" width="70" x="2465" y="-535" />
<rect fill="#84A1AE" height="70" rx="15" width="70" x="2465" y="-935" />
<rect fill="#84A1AE" height="70" rx="15" width="70" x="2465" y="-1535" />
<rect fill="#84A1AE" height="70" rx="15" width="70" x="2465" y="-2335" />
<rect fill="#84A1AE" height="70" rx="15" width="70" x="2465" y="-2735" />
<rect fill="#84A1AE" height="70" rx="15" width="70" x="2465" y="-3835" />
<rect fill="#84A1AE" height="70" rx="15" width="70" x="2565" y="-535" />
<rect fill="#84A1AE" height="70" rx="15" width="70" x="2565" y="-735" />
<rect fill="#84A1AE" height="70" rx="15" width="70" x="2565" y="-2535" />
<rect fill="#84A1AE" height="70" rx="15" width="70" x="2565" y="-3835" />
<rect fill="#84A1AE" height="70" rx="15" width="70" x="2665" y="-535" />
<rect fill="#84A1AE" height="70" rx="15" width="70" x="2665" y="-635" />
<rect fill="#84A1AE" height="70" rx="15" width="70" x="2665" y="-1135" />
<rect fill="#84A1AE" height="70" rx="15" width="70" x="2665" y="-1435" />
<rect fill="#84A1AE" height="70" rx="15" width="70" x="2665" y="-2735" />
<rect fill="#84A1AE" height="70" rx="15" width="70" x="2665" y="-3835" />
<rect fill="#84A1AE" height="70" rx="15" width="70" x="2765" y="-535" />
<rect fill="#84A1AE" height="70" rx="15" width="70" x="2765" y="-1635" />
<rect fill="#84A1AE" height="70" rx="15" width="70" x="2765" y="-1835" />
<rect fill="#84A1AE" height="70" rx="15" width="70" x="2765" y="-1935" />
<rect fill="#84A1AE" height="70" rx="15" width="70" x="2765" y="-2235" />
<rect fill="#84A1AE" height="70" rx="15" width="70" x="2765" y="-3735" />
<rect fill="#84A1AE" height="70" rx="15" width="70" x="2765" y="-3835" />
<rect fill="#84A1AE" height="70" rx="15" width="70" x="2865" y="-535" />
<rect fill="#84A1AE" height="70" rx="15" width="70" x="2865" y="-3835" />
<rect fill="#84A1AE" height="70" rx="15" width="70" x="2965" y="-535" />
<rect fill="#84A1AE" height="70" rx="15" width="70" x="2965" y="-2635" />
<rect fill="#84A1AE" height="70" rx="15" width="70" x="2965" y="-3835" />
<rect fill="#84A1AE" height="70" rx="15" width="70" x="3065" y="-535" />
<rect fill="#84A1AE" height="70" rx="15" width="70" x="3065" y="-735" />
<rect fill="#84A1AE" height="70" rx="15" width="70" x="3065" y="-2535" />
<rect fill="#84A1AE" height="70" rx="15" width="70" x="3065" y="-3835" />
<rect fill="#84A1AE" height="70" rx="15" width="70" x="3165" y="-535" />
<rect fill="#84A1AE" height="70" rx="15" width="70" x="3165" y="-835" />
<rect fill="#84A1AE" height="70" rx="15" width="70" x="3165" y="-1935" />
<rect fill="#84A1AE" height="70" rx="15" width="70" x="3165" y="-2735" />
<rect fill="#84A1AE" height="70" rx="15" width="70" x="3165" y="-3135" />
<rect fill="#84A1AE" height="70" rx="15" width="70" x="3165" y="-3835" />
<rect fill="#84A1AE" height="70" rx="15" width="70" x="3265" y="-535" />
<rect fill="#84A1AE" height="70" rx="15" width="70" x="3265" y="-1035" />
<rect fill="#84A1AE" height="70" rx="15" width="70" x="3265" y="-1735" />
<rect fill="#84A1AE" height="70" rx="15" width="70" x="3265" y="-3835" />
<rect fill="#84A1AE" height="70" rx="15" width="70" x="3365" y="-535" />
<rect fill="#84A1AE" height="70" rx="15" width="70" x="3365" y="-1435" />
<rect fill="#84A1AE" height="70" rx="15" width="70" x="3365" y="-1935" />
<rect fill="#84A1AE" height="70" rx="15" width="70" x="3365" y="-2135" />
<rect fill="#84A1AE" height="70" rx="15" width="70" x="3365" y="-3835" />
<rect fill="#84A1AE" height="70" rx="15" width="70" x="3465" y="-535" />
<rect fill="#84A1AE" height="70" rx="15" width="70" x="3465" y="-2635" />
<rect fill="#84A1AE" height="70" rx="15" width="70" x="3465" y="-3835" />
<rect fill="#84A1AE" height="70" rx="15" width="70" x="3565" y="-535" />
<rect fill="#84A1AE" height="70" rx="15" width="70" x="3565" y="-635" />
<rect fill="#84A1AE" height="70" rx="15" width="70" x="3565" y="-2435" />
<rect fill="#84A1AE" height="70" rx="15" width="70" x="3565" y="-3235" />
<rect fill="#84A1AE" height="70" rx="15" width="70" x="3565" y="-3835" />
<rect fill="#84A1AE" height="70" rx="15" width="70" x="3665" y="-535" />
<rect fill="#84A1AE" height="70" rx="15" width="70" x="3665" y="-2135" />
<rect fill="#84A1AE" height="70" rx="15" width="70" x="3665" y="-2835" />
<rect fill="#84A1AE" height="70" rx="15" width="70" x="3665" y="-3135" />
<rect fill="#84A1AE" height="70" rx="15" width="70" x="3665" y="-3735" />
<rect fill="#84A1AE" height="70" rx="15" width="70" x="3665" y="-3835" />
<rect fill="#84A1AE" height="70" rx="15" width="70" x="3765" y="-535" />
<rect fill="#84A1AE" height="70" rx="15" width="70" x="3765" y="-635" />
<rect fill="#84A1AE" height="70" rx="15" width="70" x="3765" y="-735" />
<rect fill="#84A1AE" height="70" rx="15" width="70" x="3765" y="-835" />
<rect fill="#84A1AE" height="70" rx="15" width="70" x="3765" y="-935" />
<rect fill="#84A1AE" height="70" rx="15" width="70" x="3765" y="-1035" />
<rect fill="#84A1AE" height="70" rx="15" width="70" x="3765" y="-1135" />
<rect fill="#84A1AE" height="70" rx="15" width="70" x="3765" y="-1235" />
<rect fill="#84A1AE" height="70" rx="15" width="70" x="3765" y="-1335" />
<rect fill="#84A1AE" height="70" rx="15" width="70" x="3765" y="-1435" />
<rect fill="#84A1AE" height="70" rx="15" width="70" x="3765" y="-1535" />
<rect fill="#84A1AE" height="70" rx="15" width="70" x="3765" y="-1635" />
<rect fill="#84A1AE" height="70" rx="15" width="70" x="3765" y="-1735" />
<rect fill="#84A1AE" height="70" rx="15" width="70" x="3765" y="-1835" />
<rect fill="#84A1AE" height="70" rx="15" width="70" x="3765" y="-1935" />
<rect fill="#84A1AE" height="70" rx="15" width="70" x="3765" y="-2035" />
<rect fill="#84A1AE" height="70" rx="15" width="70" x="3765" y="-2135" />
<rect fill="#84A1AE" height="70" rx="15" width="70" x="3765" y="-2235" />
<rect fill="#84A1AE" height="70" rx="15" width="70" x="3765" y="-2335" />
<rect fill="#84A1AE" height="70" rx="15" width="70" x="3765" y="-2435" />
<rect fill="#84A1AE" height="70" rx="15" width="70" x="3765" y="-2535" />
<rect fill="#84A1AE" height="70" rx="15" width="70" x="3765" y="-2635" />
<rect fill="#84A1AE" height="70" rx="15" width="70" x="3765" y="-2735" />
<rect fill="#84A1AE" height="70" rx="15" width="70" x="3765" y="-2835" />
<rect fill="#84A1AE" height="70" rx="15" width="70" x="3765" y="-2935" />
<rect fill="#84A1AE" height="70" rx="15" width="70" x="3765" y="-3035" />
<rect fill="#84A1AE" height="70" rx="15" width="70" x="3765" y="-3135" />
<rect fill="#84A1AE" height="70" rx="15" width="70" x="3765" y="-3235" />
<rect fill="#84A1AE" height="70" rx="15" width="70" x="3765" y="-3335" />
<rect fill="#84A1AE" height="70" rx="15" width="70" x="3765" y="-3435" />
<rect fill="#84A1AE" height="70" rx="15" width="70" x="3765" y="-3535" />
<rect fill="#84A1AE" height="70" rx="15" width="70" x="3765" y="-3635" />
<rect fill="#84A1AE" height="70" rx="15" width="70" x="3765" y="-3735" />
<rect fill="#84A1AE" height="70" rx="15" width="70" x="3765" y="-3835" />
<circle cx="2500" cy="-1400" fill="#c1433c" r="35"> <animate attributeName="cy" dur="124.88000000000001s" keyTimes="0.0;0.0022371365;0.0044742729;0.0067114094;0.0089485459;0.0111856823;0.0134228188;0.0156599553;0.0178970917;0.0201342282;0.0223713647;0.0246085011;0.0268456376;0.029082774;0.0313199105;0.0357941834;0.0380313199;0.0402684564;0.0425055928;0.0447427293;0.0469798658;0.0984340045;0.1006711409;0.1029082774;0.1051454139;0.1096196868;0.1118568233;0.1140939597;0.1163310962;0.1185682327;0.1208053691;0.1230425056;0.1252796421;0.1275167785;0.129753915;0.1364653244;0.1387024609;0.1409395973;0.1431767338;0.1454138702;0.1476510067;0.1498881432;0.1521252796;0.1543624161;0.1565995526;0.158836689;0.1610738255;0.163310962;0.1655480984;0.1677852349;0.1700223714;0.1722595078;0.1744966443;0.1767337808;0.1812080537;0.1834451902;0.1856823266;0.1879194631;0.1901565996;0.192393736;0.1946308725;0.1968680089;0.1991051454;0.2013422819;0.2035794183;0.2058165548;0.2080536913;0.2102908277;0.2125279642;0.2147651007;0.2170022371;0.2192393736;0.2214765101;0.2237136465;0.225950783;0.2281879195;0.2393736018;0.2416107383;0.2460850112;0.2483221477;0.2527964206;0.255033557;0.25950783;0.2617449664;0.2706935123;0.2729306488;0.2751677852;0.2774049217;0.2796420582;0.2975391499;0.2997762864;0.3020134228;0.3064876957;0.3087248322;0.3109619687;0.3131991051;0.3154362416;0.3176733781;0.3199105145;0.322147651;0.3243847875;0.3266219239;0.3288590604;0.3310961969;0.3333333333;0.3355704698;0.3378076063;0.3400447427;0.3422818792;0.3445190157;0.3467561521;0.3489932886;0.3512304251;0.3534675615;0.355704698;0.3579418345;0.3601789709;0.3624161074;0.3691275168;0.3713646532;0.3736017897;0.384787472;0.3870246085;0.389261745;0.3914988814;0.3937360179;0.3959731544;0.4004474273;0.4026845638;0.4049217002;0.4071588367;0.4093959732;0.4116331096;0.4138702461;0.4161073826;0.418344519;0.4205816555;0.4228187919;0.4250559284;0.4272930649;0.4295302013;0.4317673378;0.4340044743;0.4362416107;0.4496644295;0.451901566;0.4608501119;0.4630872483;0.4653243848;0.4742729306;0.4765100671;0.4899328859;0.4921700224;0.4944071588;0.4966442953;0.4988814318;0.5011185682;0.5033557047;0.5055928412;0.5078299776;0.5100671141;0.5123042506;0.514541387;0.5167785235;0.51901566;0.5212527964;0.5234899329;0.5637583893;0.5659955257;0.5682326622;0.5704697987;0.5727069351;0.5749440716;0.5771812081;0.5794183445;0.581655481;0.6085011186;0.610738255;0.615212528;0.6174496644;0.6196868009;0.6219239374;0.6241610738;0.6263982103;0.6286353468;0.6308724832;0.6331096197;0.6353467562;0.6375838926;0.6398210291;0.6420581655;0.644295302;0.6465324385;0.6487695749;0.6510067114;0.6532438479;0.6554809843;0.6577181208;0.6599552573;0.6621923937;0.6666666667;0.6689038031;0.6711409396;0.7248322148;0.7270693512;0.7293064877;0.7360178971;0.7382550336;0.74049217;0.7427293065;0.744966443;0.7472035794;0.7494407159;0.7516778523;0.7539149888;0.7561521253;0.7583892617;0.7606263982;0.7628635347;0.7651006711;0.7673378076;0.7695749441;0.7718120805;0.774049217;0.7762863535;0.7785234899;0.7807606264;0.7829977629;0.8008948546;0.8031319911;0.807606264;0.8098434004;0.8120805369;0.8143176734;0.8165548098;0.8187919463;0.8210290828;0.8232662192;0.8255033557;0.8277404922;0.8299776286;0.8434004474;0.8456375839;0.8612975391;0.8635346756;0.8680089485;0.870246085;0.8791946309;0.8814317673;0.8881431767;0.8903803132;0.8926174497;0.8948545861;0.8970917226;0.8993288591;0.903803132;0.9060402685;0.9127516779;0.9149888143;0.9239373602;0.9261744966;0.9284116331;0.9306487696;0.932885906;0.9351230425;0.937360179;0.9395973154;0.9418344519;0.9440715884;0.9463087248;0.9485458613;0.9507829978;0.9530201342;0.9552572707;0.9574944072;0.9597315436;0.9686800895;0.970917226;0.9888143177;0.9910514541;0.9932885906;0.9955257271;0.9977628635;1.0" repeatCount="indefinite" values="-1400;-1400;-1400;-1500;-1600;-1700;-1800;-1900;-2000;-2100;-2200;-2300;-2400;-2400;-2500;-2500;-2600;-2700;-2800;-2900;-3000;-3000;-3100;-3100;-3000;-3000;-2900;-2900;-2800;-2700;-2700;-2600;-2600;-2500;-2400;-2400;-2300;-2300;-2200;-2100;-2000;-1900;-1800;-1700;-1600;-1500;-1500;-1400;-1500;-1500;-1600;-1700;-1800;-1900;-1900;-2000;-2000;-2100;-2100;-2200;-2200;-2300;-2400;-2500;-2600;-2700;-2800;-2900;-3000;-3100;-3200;-3300;-3400;-3500;-3600;-3700;-3700;-3600;-3600;-3700;-3700;-3600;-3600;-3500;-3500;-3400;-3300;-3200;-3100;-3100;-3000;-2900;-2900;-2800;-2700;-2600;-2500;-2400;-2300;-2200;-2100;-2100;-2000;-1900;-1800;-1700;-1600;-1500;-1400;-1300;-1200;-1100;-1100;-1000;-900;-800;-700;-600;-600;-700;-800;-800;-700;-700;-600;-700;-800;-800;-900;-1000;-1100;-1200;-1300;-1400;-1500;-1600;-1700;-1800;-1900;-2000;-2100;-2200;-2300;-2400;-2400;-2500;-2500;-2600;-2500;-2500;-2400;-2400;-2300;-2200;-2100;-2000;-1900;-1800;-1700;-1600;-1500;-1400;-1300;-1200;-1300;-1400;-1500;-1500;-1400;-1300;-1200;-1100;-1000;-1000;-900;-800;-800;-700;-700;-800;-900;-1000;-1100;-1100;-1200;-1200;-1300;-1300;-1400;-1400;-1500;-1600;-1600;-1700;-1800;-1900;-2000;-2100;-2200;-2300;-2300;-2400;-2500;-2500;-2400;-2300;-2300;-2200;-2100;-2000;-1900;-1800;-1800;-1700;-1800;-1800;-1900;-2000;-2100;-2200;-2300;-2400;-2400;-2500;-2600;-2700;-2700;-2600;-2600;-2500;-2500;-2400;-2300;-2200;-2200;-2100;-2000;-2000;-1900;-1900;-1800;-1800;-1900;-1900;-1800;-1800;-1900;-1900;-2000;-2000;-2100;-2200;-2200;-2300;-2400;-2400;-2500;-2500;-2600;-2600;-2500;-2400;-2500;-2600;-2600;-2700;-2800;-2900;-2900;-3000;-3100;-3200;-3300;-3400;-3500;-3600;-3600;-3700;-3700;-3600;-3500;-3400;-3300;-3300"/>
<animate attributeName="cx" dur="124.88000000000001s" keyTimes="0.0;0.0022371365;0.0044742729;0.0268456376;0.029082774;0.033557047;0.0357941834;0.0469798658;0.0492170022;0.0514541387;0.0536912752;0.0559284116;0.0581655481;0.0604026846;0.062639821;0.0648769575;0.067114094;0.0693512304;0.0715883669;0.0738255034;0.0760626398;0.0782997763;0.0805369128;0.0827740492;0.0850111857;0.0872483221;0.0894854586;0.0917225951;0.0939597315;0.096196868;0.0984340045;0.1006711409;0.1029082774;0.1051454139;0.1073825503;0.1096196868;0.1118568233;0.1140939597;0.1185682327;0.1208053691;0.1230425056;0.1252796421;0.129753915;0.1319910515;0.1342281879;0.1364653244;0.1387024609;0.1409395973;0.158836689;0.1610738255;0.1655480984;0.1677852349;0.1767337808;0.1789709172;0.1812080537;0.1834451902;0.1856823266;0.1879194631;0.1901565996;0.192393736;0.1946308725;0.2281879195;0.2304250559;0.2326621924;0.2348993289;0.2371364653;0.2393736018;0.2416107383;0.2438478747;0.2460850112;0.2483221477;0.2505592841;0.2527964206;0.2617449664;0.2639821029;0.2662192394;0.2684563758;0.2706935123;0.2796420582;0.2818791946;0.2841163311;0.2863534676;0.288590604;0.2908277405;0.293064877;0.2953020134;0.2975391499;0.3020134228;0.3042505593;0.3064876957;0.3243847875;0.3266219239;0.3489932886;0.3512304251;0.3624161074;0.3646532438;0.3668903803;0.3691275168;0.3736017897;0.3758389262;0.3780760626;0.3803131991;0.3825503356;0.384787472;0.3870246085;0.389261745;0.3959731544;0.3982102908;0.4004474273;0.4362416107;0.4384787472;0.4407158837;0.4429530201;0.4451901566;0.4474272931;0.4496644295;0.451901566;0.4541387025;0.4563758389;0.4586129754;0.4608501119;0.4653243848;0.4675615213;0.4697986577;0.4720357942;0.4742729306;0.4765100671;0.4787472036;0.48098434;0.4832214765;0.485458613;0.4876957494;0.4899328859;0.5234899329;0.5257270694;0.5279642058;0.5302013423;0.5324384787;0.5346756152;0.5369127517;0.5391498881;0.5413870246;0.5436241611;0.5458612975;0.548098434;0.5503355705;0.5525727069;0.5548098434;0.5570469799;0.5592841163;0.5615212528;0.5637583893;0.5749440716;0.5771812081;0.581655481;0.5838926174;0.5861297539;0.5883668904;0.5906040268;0.5928411633;0.5950782998;0.5973154362;0.5995525727;0.6017897092;0.6040268456;0.6062639821;0.6085011186;0.610738255;0.6129753915;0.615212528;0.6241610738;0.6263982103;0.6286353468;0.6308724832;0.6331096197;0.6353467562;0.6375838926;0.6398210291;0.644295302;0.6465324385;0.6621923937;0.6644295302;0.6666666667;0.6711409396;0.6733780761;0.6756152125;0.677852349;0.6800894855;0.6823266219;0.6845637584;0.6868008949;0.6890380313;0.6912751678;0.6935123043;0.6957494407;0.6979865772;0.7002237136;0.7024608501;0.7046979866;0.706935123;0.7091722595;0.711409396;0.7136465324;0.7158836689;0.7181208054;0.7203579418;0.7225950783;0.7248322148;0.7293064877;0.7315436242;0.7337807606;0.7360178971;0.7472035794;0.7494407159;0.7539149888;0.7561521253;0.7695749441;0.7718120805;0.7785234899;0.7807606264;0.7829977629;0.7852348993;0.7874720358;0.7897091723;0.7919463087;0.7941834452;0.7964205817;0.7986577181;0.8008948546;0.8031319911;0.8053691275;0.807606264;0.8143176734;0.8165548098;0.8210290828;0.8232662192;0.8255033557;0.8277404922;0.8299776286;0.8322147651;0.8344519016;0.836689038;0.8389261745;0.841163311;0.8434004474;0.8456375839;0.8478747204;0.8501118568;0.8523489933;0.8545861298;0.8568232662;0.8590604027;0.8612975391;0.8635346756;0.8657718121;0.8680089485;0.870246085;0.8724832215;0.8747203579;0.8769574944;0.8791946309;0.8814317673;0.8836689038;0.8859060403;0.8881431767;0.8926174497;0.8948545861;0.8993288591;0.9015659955;0.903803132;0.9060402685;0.9082774049;0.9105145414;0.9127516779;0.9149888143;0.9172259508;0.9194630872;0.9217002237;0.9239373602;0.932885906;0.9351230425;0.9418344519;0.9440715884;0.9597315436;0.9619686801;0.9642058166;0.966442953;0.9686800895;0.970917226;0.9731543624;0.9753914989;0.9776286353;0.9798657718;0.9821029083;0.9843400447;0.9865771812;0.9888143177;1.0" repeatCount="indefinite" values="2500;2500;2600;2600;2700;2700;2800;2800;2900;3000;3100;3200;3300;3400;3500;3400;3300;3200;3100;3000;2900;2800;2700;2600;2500;2400;2300;2200;2100;2000;1900;1900;2000;2000;2100;2200;2200;2300;2300;2400;2400;2500;2500;2600;2700;2800;2800;2700;2700;2800;2800;2700;2700;2600;2500;2500;2400;2400;2300;2300;2200;2200;2300;2400;2500;2600;2700;2700;2800;2900;2900;3000;2900;2900;2800;2700;2600;2500;2500;2400;2300;2200;2100;2000;1900;1800;1700;1700;1600;1500;1500;1600;1600;1500;1500;1600;1700;1800;1800;1900;2000;2100;2200;2300;2300;2400;2400;2500;2600;2600;2700;2800;2900;3000;3100;3200;3200;3300;3400;3500;3600;3600;3500;3400;3300;3200;3200;3100;3000;2900;2800;2700;2600;2600;2700;2800;2900;3000;3100;3200;3300;3400;3500;3600;3500;3400;3300;3200;3100;3000;2900;2800;2800;2700;2700;2600;2500;2400;2300;2200;2100;2000;1900;1800;1700;1600;1500;1500;1400;1300;1300;1200;1200;1100;1100;1000;1000;900;900;800;800;900;1000;1000;1100;1200;1300;1400;1500;1600;1700;1800;1900;2000;2100;2200;2100;2000;1900;1800;1700;1600;1500;1400;1300;1200;1100;1000;1000;900;800;700;700;600;600;700;700;800;800;700;700;600;700;800;900;1000;1100;1200;1300;1300;1400;1500;1500;1600;1600;1700;1700;1800;1800;1700;1600;1500;1400;1300;1200;1200;1100;1000;900;1000;1100;1200;1300;1300;1400;1500;1500;1600;1700;1800;1900;1900;1800;1700;1600;1600;1500;1500;1400;1300;1300;1200;1100;1000;1000;900;800;700;600;600;700;700;800;800;900;1000;1100;1200;1200;1300;1400;1500;1600;1500;1400;1300;1200;1200"/>
<animate attributeName="visibility" dur="124.88000000000001s" keyTimes="0.0;0.0022371365;1.0" repeatCount="indefinite" values="visible;visible;visible"/> </circle>
<circle cx="3000" cy="-1900" fill="#2e6f9e" r="35"> <animate attributeName="cy" dur="124.88000000000001s" keyTimes="0.0;0.0022371365;0.0044742729;0.0067114094;0.0089485459;0.0111856823;0.0134228188;0.0156599553;0.0178970917;0.0223713647;0.0246085011;0.0268456376;0.0380313199;0.0402684564;0.0425055928;0.0447427293;0.0469798658;0.0492170022;0.0514541387;0.0536912752;0.0559284116;0.0581655481;0.0604026846;0.062639821;0.0648769575;0.1006711409;0.1029082774;0.1051454139;0.1073825503;0.1096196868;0.1118568233;0.1140939597;0.1163310962;0.1185682327;0.1208053691;0.1230425056;0.1252796421;0.1275167785;0.129753915;0.1319910515;0.1342281879;0.1364653244;0.1476510067;0.1498881432;0.1521252796;0.1543624161;0.1565995526;0.158836689;0.163310962;0.1655480984;0.1677852349;0.1700223714;0.1968680089;0.1991051454;0.2013422819;0.2035794183;0.2058165548;0.2080536913;0.2102908277;0.2125279642;0.2147651007;0.2170022371;0.2192393736;0.2214765101;0.2237136465;0.225950783;0.2281879195;0.2304250559;0.2326621924;0.2348993289;0.2371364653;0.2393736018;0.2416107383;0.2438478747;0.2460850112;0.2751677852;0.2774049217;0.2863534676;0.288590604;0.2975391499;0.2997762864;0.3064876957;0.3087248322;0.3109619687;0.3131991051;0.3176733781;0.3199105145;0.322147651;0.3243847875;0.3333333333;0.3355704698;0.3378076063;0.3400447427;0.3422818792;0.3445190157;0.3467561521;0.3489932886;0.3512304251;0.3534675615;0.355704698;0.3601789709;0.3624161074;0.3646532438;0.3691275168;0.3713646532;0.3736017897;0.3758389262;0.3780760626;0.3803131991;0.3825503356;0.384787472;0.3870246085;0.389261745;0.3914988814;0.3937360179;0.3959731544;0.3982102908;0.4004474273;0.4026845638;0.4049217002;0.4116331096;0.4138702461;0.418344519;0.4205816555;0.4228187919;0.4250559284;0.4272930649;0.4295302013;0.4317673378;0.4340044743;0.4362416107;0.4384787472;0.4407158837;0.4429530201;0.4451901566;0.4474272931;0.4496644295;0.451901566;0.4541387025;0.4586129754;0.4608501119;0.4630872483;0.4653243848;0.4675615213;0.4742729306;0.4765100671;0.4787472036;0.485458613;0.4876957494;0.4899328859;0.4921700224;0.4966442953;0.4988814318;0.5011185682;0.5033557047;0.5055928412;0.5078299776;0.5100671141;0.5123042506;0.514541387;0.5167785235;0.51901566;0.5212527964;0.5234899329;0.5257270694;0.5279642058;0.5302013423;0.5324384787;0.5346756152;0.5369127517;0.5391498881;0.5413870246;0.5436241611;0.5458612975;0.548098434;0.5503355705;0.5525727069;0.5548098434;0.5570469799;0.5592841163;0.5615212528;0.5637583893;0.5659955257;0.5682326622;0.5704697987;0.5727069351;0.5749440716;0.5771812081;0.5794183445;0.581655481;0.5838926174;0.5861297539;0.5883668904;0.5906040268;0.5928411633;0.6845637584;0.6868008949;0.6979865772;0.7002237136;0.7046979866;0.706935123;0.7091722595;0.711409396;0.7136465324;0.7203579418;0.7225950783;0.7248322148;0.7270693512;0.7293064877;0.7315436242;0.744966443;0.7472035794;0.7494407159;0.7516778523;0.7539149888;0.7561521253;0.7583892617;0.7606263982;0.7628635347;0.7651006711;0.7695749441;0.7718120805;0.774049217;0.7762863535;0.7829977629;0.7852348993;0.7941834452;0.7964205817;0.7986577181;0.8008948546;0.8031319911;0.8053691275;0.8456375839;0.8478747204;0.8523489933;0.8545861298;0.8612975391;0.8635346756;0.8657718121;0.8680089485;0.870246085;0.8724832215;0.8747203579;0.8769574944;0.8791946309;0.8814317673;0.8836689038;0.8859060403;0.8881431767;0.8903803132;0.8926174497;0.8948545861;0.8970917226;0.8993288591;0.9015659955;0.903803132;0.9060402685;0.9082774049;0.9105145414;0.9127516779;0.9149888143;0.9172259508;0.9194630872;0.9217002237;0.9239373602;0.9261744966;0.9284116331;0.9306487696;0.932885906;0.937360179;0.9395973154;0.9440715884;0.9463087248;0.966442953;0.9686800895;0.970917226;0.9731543624;0.9753914989;0.9776286353;0.9821029083;0.9843400447;0.9865771812;0.9888143177;0.9955257271;0.9977628635;1.0" repeatCount="indefinite" values="-1900;-1900;-2000;-2100;-2000;-2100;-2200;-2300;-2400;-2400;-2500;-2600;-2600;-2500;-2500;-2400;-2300;-2200;-2100;-2200;-2300;-2400;-2500;-2600;-2700;-2700;-2800;-2800;-2700;-2600;-2500;-2400;-2300;-2200;-2200;-2100;-2000;-1900;-1800;-1700;-1600;-1700;-1700;-1800;-1800;-1900;-1900;-1800;-1800;-1900;-1900;-2000;-2000;-2100;-2200;-2300;-2200;-2300;-2400;-2400;-2500;-2600;-2500;-2600;-2600;-2700;-2800;-2900;-3000;-3100;-3200;-3300;-3400;-3500;-3600;-3600;-3500;-3500;-3400;-3400;-3500;-3500;-3400;-3400;-3500;-3500;-3600;-3600;-3500;-3500;-3600;-3500;-3500;-3400;-3400;-3300;-3200;-3100;-3000;-2900;-2900;-2800;-2700;-2700;-2600;-2500;-2400;-2300;-2200;-2100;-2000;-1900;-1800;-1700;-1600;-1500;-1400;-1300;-1200;-1100;-1100;-1000;-1000;-1100;-1200;-1300;-1400;-1400;-1500;-1600;-1600;-1700;-1800;-1900;-2000;-2100;-2100;-2200;-2300;-2300;-2400;-2500;-2600;-2700;-2700;-2800;-2900;-2900;-3000;-3100;-3200;-3200;-3300;-3400;-3300;-3200;-3200;-3100;-3100;-3000;-2900;-2800;-2700;-2700;-2600;-2500;-2400;-2300;-2300;-2200;-2100;-2000;-2000;-1900;-1800;-1700;-1600;-1500;-1400;-1500;-1500;-1600;-1700;-1800;-1900;-2000;-2100;-2200;-2300;-2400;-2500;-2600;-2600;-2700;-2800;-2800;-2700;-2700;-2600;-2600;-2500;-2400;-2300;-2200;-2200;-2100;-2000;-1900;-1800;-1700;-1700;-1600;-1500;-1600;-1500;-1400;-1300;-1400;-1500;-1600;-1600;-1700;-1600;-1700;-1700;-1800;-1800;-1900;-2000;-2100;-2100;-2000;-2000;-1900;-1900;-1800;-1800;-1700;-1600;-1600;-1500;-1500;-1400;-1300;-1200;-1100;-1000;-1100;-1200;-1100;-1200;-1300;-1400;-1400;-1500;-1500;-1600;-1700;-1700;-1800;-1900;-1900;-2000;-2100;-2200;-2300;-2300;-2400;-2500;-2500;-2400;-2400;-2500;-2500;-2400;-2400;-2300;-2300;-2400;-2400;-2300;-2200;-2100;-2100;-2200;-2200"/>
<animate attributeName="cx" dur="124.88000000000001s" keyTimes="0.0;0.0022371365;0.0201342282;0.0223713647;0.0268456376;0.029082774;0.0313199105;0.033557047;0.0357941834;0.0402684564;0.0425055928;0.0648769575;0.067114094;0.0693512304;0.0715883669;0.0738255034;0.0760626398;0.0782997763;0.0805369128;0.0827740492;0.0850111857;0.0872483221;0.0894854586;0.0917225951;0.0939597315;0.096196868;0.0984340045;0.1006711409;0.1029082774;0.1051454139;0.1185682327;0.1208053691;0.1364653244;0.1387024609;0.1409395973;0.1431767338;0.1454138702;0.1476510067;0.1498881432;0.1521252796;0.158836689;0.1610738255;0.163310962;0.1655480984;0.1677852349;0.1722595078;0.1744966443;0.1767337808;0.1789709172;0.1812080537;0.1834451902;0.1856823266;0.1879194631;0.1901565996;0.192393736;0.1946308725;0.1968680089;0.2102908277;0.2125279642;0.2214765101;0.2237136465;0.2460850112;0.2483221477;0.2505592841;0.2527964206;0.255033557;0.25950783;0.2617449664;0.2639821029;0.2662192394;0.2684563758;0.2706935123;0.2729306488;0.2751677852;0.2774049217;0.2796420582;0.2818791946;0.2841163311;0.2863534676;0.288590604;0.2908277405;0.293064877;0.2953020134;0.2975391499;0.2997762864;0.3020134228;0.3042505593;0.3064876957;0.3087248322;0.3109619687;0.3131991051;0.3154362416;0.3176733781;0.3199105145;0.322147651;0.3243847875;0.3266219239;0.3288590604;0.3310961969;0.3333333333;0.3378076063;0.3400447427;0.3422818792;0.3445190157;0.355704698;0.3579418345;0.3601789709;0.3646532438;0.3668903803;0.3691275168;0.4049217002;0.4071588367;0.4093959732;0.4116331096;0.4138702461;0.4161073826;0.418344519;0.4474272931;0.4496644295;0.4541387025;0.4563758389;0.4675615213;0.4697986577;0.4720357942;0.4742729306;0.4787472036;0.48098434;0.4832214765;0.485458613;0.4921700224;0.4944071588;0.4966442953;0.5055928412;0.5078299776;0.5100671141;0.5123042506;0.5324384787;0.5346756152;0.5413870246;0.5436241611;0.5861297539;0.5883668904;0.5928411633;0.5950782998;0.5973154362;0.5995525727;0.6017897092;0.6040268456;0.6062639821;0.6085011186;0.610738255;0.6129753915;0.615212528;0.6174496644;0.6196868009;0.6219239374;0.6241610738;0.6263982103;0.6286353468;0.6308724832;0.6331096197;0.6353467562;0.6375838926;0.6398210291;0.6420581655;0.644295302;0.6465324385;0.6487695749;0.6510067114;0.6532438479;0.6554809843;0.6577181208;0.6599552573;0.6621923937;0.6644295302;0.6666666667;0.6689038031;0.6711409396;0.6733780761;0.6756152125;0.677852349;0.6800894855;0.6823266219;0.6845637584;0.6868008949;0.6890380313;0.6912751678;0.6935123043;0.6957494407;0.6979865772;0.7002237136;0.7024608501;0.7046979866;0.7136465324;0.7158836689;0.7181208054;0.7203579418;0.7315436242;0.7337807606;0.7360178971;0.7382550336;0.7427293065;0.744966443;0.7651006711;0.7673378076;0.7695749441;0.7762863535;0.7785234899;0.7807606264;0.7829977629;0.7852348993;0.7874720358;0.7897091723;0.7919463087;0.7941834452;0.8008948546;0.8031319911;0.8053691275;0.807606264;0.8098434004;0.8120805369;0.8143176734;0.8165548098;0.8187919463;0.8210290828;0.8232662192;0.8255033557;0.8277404922;0.8299776286;0.8322147651;0.8344519016;0.836689038;0.8389261745;0.841163311;0.8434004474;0.8456375839;0.8478747204;0.8501118568;0.8523489933;0.8545861298;0.8568232662;0.8590604027;0.8612975391;0.8657718121;0.8680089485;0.870246085;0.8724832215;0.9015659955;0.903803132;0.9082774049;0.9105145414;0.9149888143;0.9172259508;0.932885906;0.9351230425;0.937360179;0.9395973154;0.9418344519;0.9440715884;0.9463087248;0.9485458613;0.9507829978;0.9530201342;0.9552572707;0.9574944072;0.9597315436;0.9619686801;0.9642058166;0.966442953;0.9686800895;0.970917226;0.9731543624;0.9753914989;0.9776286353;0.9798657718;0.9821029083;0.9888143177;0.9910514541;0.9932885906;0.9955257271;1.0" repeatCount="indefinite" values="3000;3000;3000;2900;2900;2800;2700;2600;2500;2500;2400;2400;2300;2200;2100;2000;1900;1800;1700;1600;1500;1400;1300;1200;1100;1000;1000;900;900;800;800;700;700;800;900;1000;1100;1200;1200;1300;1300;1400;1500;1500;1600;1600;1700;1800;1800;1900;2000;2100;2200;2300;2400;2500;2600;2600;2500;2500;2400;2400;2500;2600;2700;2800;2800;2900;3000;3100;3200;3300;3400;3500;3500;3400;3300;3200;3100;3100;3000;3000;3100;3000;3000;2900;2800;2700;2700;2600;2600;2500;2400;2400;2300;2300;2200;2100;2000;1900;1900;1800;1800;1700;1700;1600;1500;1500;1400;1300;1300;1400;1400;1300;1300;1200;1300;1300;1200;1200;1300;1300;1400;1500;1600;1600;1700;1600;1700;1700;1600;1700;1700;1600;1600;1700;1700;1800;1800;1700;1700;1800;1800;1900;2000;2100;2200;2300;2400;2500;2600;2700;2700;2800;2900;2900;3000;3100;3200;3300;3400;3500;3600;3500;3400;3300;3200;3100;3000;2900;2800;2700;2600;2500;2400;2300;2200;2100;2000;1900;1800;1700;1600;1500;1500;1400;1300;1200;1100;1000;1000;900;800;800;900;800;700;700;600;700;600;600;700;700;800;900;900;1000;1100;1200;1200;1300;1400;1500;1600;1600;1700;1700;1800;1900;2000;2100;2200;2300;2400;2500;2400;2400;2300;2200;2100;2100;2000;1900;1800;1700;1700;1600;1500;1500;1400;1300;1200;1200;1100;1100;1000;1000;1100;1100;1200;1200;1300;1300;1200;1100;1100;1200;1300;1300;1400;1500;1600;1700;1800;1900;2000;2100;2200;2200;2300;2300;2400;2400;2500;2600;2600;2500;2400;2300;2300"/>
<animate attributeName="visibility" dur="124.88000000000001s" keyTimes="0.0;0.0022371365;1.0" repeatCount="indefinite" values="visible;visible;visible"/> </circle>
<circle cx="3500" cy="-3000" fill="none" r="35" stroke="#c1433c" stroke-width="10"> <animate attributeName="cy" dur="124.88000000000001s" keyTimes="0.0;0.0022371365;0.0604026846;0.062639821;0.0984340045;0.1006711409;0.1342281879;0.1364653244;0.1610738255;0.163310962;0.1946308725;0.1968680089;0.2483221477;0.2505592841;0.2774049217;0.2796420582;0.389261745;0.3914988814;0.4608501119;0.4630872483;0.514541387;0.5167785235;0.5436241611;0.5458612975;0.5794183445;0.581655481;0.6174496644;0.6196868009;0.6465324385;0.6487695749;0.6957494407;0.6979865772;0.7494407159;0.7516778523;0.7762863535;0.7785234899;0.7829977629;0.7852348993;0.8277404922;0.8299776286;0.8769574944;0.8791946309;0.903803132;0.9060402685;0.9261744966;0.9284116331;0.9776286353;0.9798657718;1.0" repeatCount="indefinite" values="-3000;-3000;-3000;-3100;-3100;-2400;-2400;-1400;-1400;-2300;-2300;-3700;-3700;-3100;-3100;-600;-600;-2600;-2600;-1200;-1200;-1500;-1500;-800;-800;-900;-900;-1700;-1700;-2500;-2500;-1700;-1700;-2700;-2700;-2600;-2600;-1800;-1800;-1900;-1900;-2500;-2500;-2400;-2400;-3700;-3700;-1800;-1800"/>
<animate attributeName="cx" dur="124.88000000000001s" keyTimes="0.0;0.0022371365;0.0604026846;0.062639821;0.0984340045;0.1006711409;0.1610738255;0.163310962;0.1946308725;0.1968680089;0.2483221477;0.2505592841;0.2774049217;0.2796420582;0.3601789709;0.3624161074;0.389261745;0.3914988814;0.4608501119;0.4630872483;0.514541387;0.5167785235;0.5436241611;0.5458612975;0.5794183445;0.581655481;0.6174496644;0.6196868009;0.6465324385;0.6487695749;0.6957494407;0.6979865772;0.7494407159;0.7516778523;0.7762863535;0.7785234899;0.7829977629;0.7852348993;0.8277404922;0.8299776286;0.8501118568;0.8523489933;0.8769574944;0.8791946309;0.903803132;0.9060402685;0.9261744966;0.9284116331;0.9776286353;0.9798657718;1.0" repeatCount="indefinite" values="3500;3500;3500;1900;1900;2800;2800;2200;2200;3000;3000;2500;2500;1500;1500;2400;2400;3600;3600;2600;2600;3600;3600;2700;2700;1300;1300;800;800;2200;2200;600;600;800;800;600;600;1800;1800;900;900;1900;1900;1300;1300;600;600;1600;1600;1200;1200"/>
<animate attributeName="visibility" dur="124.88000000000001s" keyTimes="0.0;0.0022371365;1.0" repeatCount="indefinite" values="visible;visible;visible"/> </circle>
<circle cx="2600" cy="-2600" fill="none" r="35" stroke="#2e6f9e" stroke-width="10"> <animate attributeName="cy" dur="124.88000000000001s" keyTimes="0.0;0.0022371365;0.0313199105;0.033557047;0.0492170022;0.0514541387;0.1029082774;0.1051454139;0.1319910515;0.1342281879;0.1946308725;0.1968680089;0.2438478747;0.2460850112;0.2751677852;0.2774049217;0.4116331096;0.4138702461;0.4988814318;0.5011185682;0.5548098434;0.5570469799;0.6353467562;0.6375838926;0.7561521253;0.7583892617;0.8210290828;0.8232662192;0.8814317673;0.8836689038;0.9149888143;0.9172259508;0.9351230425;0.937360179;0.9865771812;0.9888143177;1.0" repeatCount="indefinite" values="-2600;-2600;-2600;-2100;-2100;-2800;-2800;-1600;-1600;-2000;-2000;-3600;-3600;-3500;-3500;-1000;-1000;-3400;-3400;-1400;-1400;-2800;-2800;-1300;-1300;-2000;-2000;-1000;-1000;-1900;-1900;-2500;-2500;-2100;-2100;-2200;-2200"/>
<animate attributeName="cx" dur="124.88000000000001s" keyTimes="0.0;0.0022371365;0.0313199105;0.033557047;0.0492170022;0.0514541387;0.1029082774;0.1051454139;0.1319910515;0.1342281879;0.1946308725;0.1968680089;0.2438478747;0.2460850112;0.2751677852;0.2774049217;0.4116331096;0.4138702461;0.5548098434;0.5570469799;0.6353467562;0.6375838926;0.7561521253;0.7583892617;0.8210290828;0.8232662192;0.8814317673;0.8836689038;0.9149888143;0.9172259508;0.9351230425;0.937360179;0.9865771812;0.9888143177;1.0" repeatCount="indefinite" values="2600;2600;2600;2400;2400;800;800;700;700;2600;2600;2400;2400;3500;3500;1300;1300;1700;1700;3600;3600;700;700;2500;2500;1000;1000;1300;1300;1100;1100;2600;2600;1400;1400"/>
<animate attributeName="visibility" dur="124.88000000000001s" keyTimes="0.0;0.0022371365;1.0" repeatCount="indefinite" values="visible;visible;visible"/> </circle>
</svg>