<?xml version="1.0" encoding="UTF-8"?>
        <svg xmlns="http://www.w3.org/2000/svg" xmlns:xlink="http://www.w3.org/1999/xlink"
             width="430" height="430" viewBox="0 -4300 4300 4300">

<defs>

</defs>

<rect fill="#84A1AE" height="70" rx="15" width="70" x="465" y="-535" />
<rect fill="#84A1AE" height="70" rx="15" width="70" x="465" y="-635" />
<rect fill="#84A1AE" height="70" rx="15" width="70" x="465" y="-735" />
<rect fill="#84A1AE" height="70" rx="15" width="70" x="465" y="-835" />
<rect fill="#84A1AE" height="70" rx="15" width="70" x="465" y="-935" />
<rect fill="#84A1AE" height="70" rx="15" width="70" x="465" y="-1035" />
<rect fill="#84A1AE" height="70" rx="15" width="70" x="465" y="-1135" />
<rect fill="#84A1AE" height="70" rx="15" width="70" x="465" y="-1235" />
<rect fill="#84A1AE" height="70" rx="15" width="70" x="465" y="-1335" />
<rect fill="#84A1AE" height="70" rx="15" width="70" x="465" y="-1435" />
<rect fill="#84A1AE" height="70" rx="15" width="70" x="465" y="-1535" />
<rect fill="#84A1AE" height="70" rx="15" width="70" x="465" y="-1635" />
<rect fill="#84A1AE" height="70" rx="15" width="70" x="465" y="-1735" />
<rect fill="#84A1AE" height="70" rx="15" width="70" x="465" y="-1835" />
<rect fill="#84A1AE" height="70" rx="15" width="70" x="465" y="-1935" />
<rect fill="#84A1AE" height="70" rx="15" width="70" x="465" y="-2035" />
<rect fill="#84A1AE" height="70" rx="15" width="70" x="465" y="-2135" />
<rect fill="#84A1AE" height="70" rx="15" width="70" x="465" y="-2235" />
<rect fill="#84A1AE" height="70" rx="15" width="70" x="465" y="-2335" />
<rect fill="#84A1AE" height="70" rx="15" width="70" x="465" y="-2435" />
<rect fill="#84A1AE" height="70" rx="15" width="70" x="465" y="-2535" />
<rect fill="#84A1AE" height="70" rx="15" width="70" x="465" y="-2635" />
<rect fill="#84A1AE" height="70" rx="15" width="70" x="465" y="-2735" />
<rect fill="#84A1AE" height="70" rx="15" width="70" x="465" y="-2835" />
<rect fill="#84A1AE" height="70" rx="15" width="70" x="465" y="-2935" />
<rect fill="#84A1AE" height="70" rx="15" width="70" x="465" y="-3035" />
<rect fill="#84A1AE" height="70" rx="15" width="70" x="465" y="-3135" />
<rect fill="#84A1AE" height="70" rx="15" width="70" x="465" y="-3235" />
<rect fill="#84A1AE" height="70" rx="15" width="70" x="465" y="-3335" />
<rect fill="#84A1AE" height="70" rx="15" width="70" x="465" y="-3435" />
<rect fill="#84A1AE" height="70" rx="15" width="70" x="465" y="-3535" />
<rect fill="#84A1AE" height="70" rx="15" width="70" x="465" y="-3635" />
<rect fill="#84A1AE" height="70" rx="15" width="70" x="465" y="-3735" />
<rect fill="#84A1AE" height="70" rx="15" width="70" x="465" y="-3835" />
<rect fill="#84A1AE" height="70" rx="15" width="70" x="565" y="-535" />
<rect fill="#84A1AE" height="70" rx="15" width="70" x="565" y="-1635" />
<rect fill="#84A1AE" height="70" rx="15" width="70" x="565" y="-1935" />
<rect fill="#84A1AE" height="70" rx="15" width="70" x="565" y="-2735" />
<rect fill="#84A1AE" height="70" rx="15" width="70" x="565" y="-3835" />
<rect fill="#84A1AE" height="70" rx="15" width="70" x="665" y="-535" />
<rect fill="#84A1AE" height="70" rx="15" width="70" x="665" y="-1035" />
<rect fill="#84A1AE" height="70" rx="15" width="70" x="665" y="-2535" />
<rect fill="#84A1AE" height="70" rx="15" width="70" x="665" y="-3035" />
<rect fill="#84A1AE" height="70" rx="15" width="70" x="665" y="-3235" />
<rect fill="#84A1AE" height="70" rx="15" width="70" x="665" y="-3835" />
<rect fill="#84A1AE" height="70" rx="15" width="70" x="765" y="-535" />
<rect fill="#84A1AE" height="70" rx="15" width="70" x="765" y="-635" />
<rect fill="#84A1AE" height="70" rx="15" width="70" x="765" y="-3835" />
<rect fill="#84A1AE" height="70" rx="15" width="70" x="865" y="-535" />
<rect fill="#84A1AE" height="70" rx="15" width="70" x="865" y="-2435" />
<rect fill="#84A1AE" height="70" rx="15" width="70" x="865" y="-2535" />
<rect fill="#84A1AE" height="70" rx="15" width="70" x="865" y="-3335" />
<rect fill="#84A1AE" height="70" rx="15" width="70" x="865" y="-3435" />
<rect fill="#84A1AE" height="70" rx="15" width="70" x="865" y="-3835" />
<rect fill="#84A1AE" height="70" rx="15" width="70" x="965" y="-535" />
<rect fill="#84A1AE" height="70" rx="15" width="70" x="965" y="-735" />
<rect fill="#84A1AE" height="70" rx="15" width="70" x="965" y="-1635" />
<rect fill="#84A1AE" height="70" rx="15" width="70" x="965" y="-1835" />
<rect fill="#84A1AE" height="70" rx="15" width="70" x="965" y="-2835" />
<rect fill="#84A1AE" height="70" rx="15" width="70" x="965" y="-3435" />
<rect fill="#84A1AE" height="70" rx="15" width="70" x="965" y="-3835" />
<rect fill="#84A1AE" height="70" rx="15" width="70" x="1065" y="-535" />
<rect fill="#84A1AE" height="70" rx="15" width="70" x="1065" y="-1135" />
<rect fill="#84A1AE" height="70" rx="15" width="70" x="1065" y="-1835" />
<rect fill="#84A1AE" height="70" rx="15" width="70" x="1065" y="-3735" />
<rect fill="#84A1AE" height="70" rx="15" width="70" x="1065" y="-3835" />
<rect fill="#84A1AE" height="70" rx="15" width="70" x="1165" y="-535" />
<rect fill="#84A1AE" height="70" rx="15" width="70" x="1165" y="-635" />
<rect fill="#84A1AE" height="70" rx="15" width="70" x="1165" y="-735" />
<rect fill="#84A1AE" height="70" rx="15" width="70" x="1165" y="-1535" />
<rect fill="#84A1AE" height="70" rx="15" width="70" x="1165" y="-3835" />
<rect fill="#84A1AE" height="70" rx="15" width="70" x="1265" y="-535" />
<rect fill="#84A1AE" height="70" rx="15" width="70" x="1265" y="-2835" />
<rect fill="#84A1AE" height="70" rx="15" width="70" x="1265" y="-3435" />
<rect fill="#84A1AE" height="70" rx="15" width="70" x="1265" y="-3835" />
<rect fill="#84A1AE" height="70" rx="15" width="70" x="1365" y="-535" />
<rect fill="#84A1AE" height="70" rx="15" width="70" x="1365" y="-835" />
<rect fill="#84A1AE" height="70" rx="15" width="70" x="1365" y="-935" />
<rect fill="#84A1AE" height="70" rx="15" width="70" x="1365" y="-1035" />
<rect fill="#84A1AE" height="70" rx="15" width="70" x="1365" y="-1935" />
<rect fill="#84A1AE" height="70" rx="15" width="70" x="1365" y="-2335" />
<rect fill="#84A1AE" height="70" rx="15" width="70" x="1365" y="-2635" />
<rect fill="#84A1AE" height="70" rx="15" width="70" x="1365" y="-2835" />
<rect fill="#84A1AE" height="70" rx="15" width="70" x="1365" y="-2935" />
<rect fill="#84A1AE" height="70" rx="15" width="70" x="1365" y="-3035" />
<rect fill="#84A1AE" height="70" rx="15" width="70" x="1365" y="-3335" />
<rect fill="#84A1AE" height="70" rx="15" width="70" x="1365" y="-3835" />
<rect fill="#84A1AE" height="70" rx="15" width="70" x="1465" y="-535" />
<rect fill="#84A1AE" height="70" rx="15" width="70" x="1465" y="-1235" />
<rect fill="#84A1AE" height="70" rx="15" width="70" x="1465" y="-1535" />
<rect fill="#84A1AE" height="70" rx="15" width="70" x="1465" y="-2035" />
<rect fill="#84A1AE" height="70" rx="15" width="70" x="1465" y="-3135" />
<rect fill="#84A1AE" height="70" rx="15" width="70" x="1465" y="-3235" />
<rect fill="#84A1AE" height="70" rx="15" width="70" x="1465" y="-3835" />
<rect fill="#84A1AE" height="70" rx="15" width="70" x="1565" y="-535" />
<rect fill="#84A1AE" height="70" rx="15" width="70" x="1565" y="-3035" />
<rect fill="#84A1AE" height="70" rx="15" width="70" x="1565" y="-3835" />
<rect fill="#84A1AE" height="70" rx="15" width="70" x="1665" y="-535" />
<rect fill="#84A1AE" height="70" rx="15" width="70" x="1665" y="-3735" />
<rect fill="#84A1AE" height="70" rx="15" width="70" x="1665" y="-3835" />
<rect fill="#84A1AE" height="70" rx="15" width="70" x="1765" y="-535" />
<rect fill="#84A1AE" height="70" rx="15" width="70" x="1765" y="-1235" />
<rect fill="#84A1AE" height="70" rx="15" width="70" x="1765" y="-3835" />
<rect fill="#84A1AE" height="70" rx="15" width="70" x="1865" y="-535" />
<rect fill="#84A1AE" height="70" rx="15" width="70" x="1865" y="-735" />
<rect fill="#84A1AE" height="70" rx="15" width="70" x="1865" y="-1335" />
<rect fill="#84A1AE" height="70" rx="15" width="70" x="1865" y="-3235" />
<rect fill="#84A1AE" height="70" rx="15" width="70" x="1865" y="-3435" />
<rect fill="#84A1AE" height="70" rx="15" width="70" x="1865" y="-3835" />
<rect fill="#84A1AE" height="70" rx="15" width="70" x="1965" y="-535" />
<rect fill="#84A1AE" height="70" rx="15" width="70" x="1965" y="-635" />
<rect fill="#84A1AE" height="70" rx="15" width="70" x="1965" y="-1835" />
<rect fill="#84A1AE" height="70" rx="15" width="70" x="1965" y="-1935" />
<rect fill="#84A1AE" height="70" rx="15" width="70" x="1965" y="-2135" />
<rect fill="#84A1AE" height="70" rx="15" width="70" x="1965" y="-2335" />
<rect fill="#84A1AE" height="70" rx="15" width="70" x="1965" y="-2435" />
<rect fill="#84A1AE" height="70" rx="15" width="70" x="1965" y="-3335" />
<rect fill="#84A1AE" height="70" rx="15" width="70" x="1965" y="-3835" />
<rect fill="#84A1AE" height="70" rx="15" width="70" x="2065" y="-535" />
<rect fill="#84A1AE" height="70" rx="15" width="70" x="2065" y="-1535" />
<rect fill="#84A1AE" height="70" rx="15" width="70" x="2065" y="-1635" />
<rect fill="#84A1AE" height="70" rx="15" width="70" x="2065" y="-2135" />
<rect fill="#84A1AE" height="70" rx="15" width="70" x="2065" y="-3835" />
<rect fill="#84A1AE" height="70" rx="15" width="70" x="2165" y="-535" />
<rect fill="#84A1AE" height="70" rx="15" width="70" x="2165" y="-935" />
<rect fill="#84A1AE" height="70" rx="15" width="70" x="2165" y="-1335" />
<rect fill="#84A1AE" height="70" rx="15" width="70" x="2165" y="-1835" />
<rect fill="#84A1AE" height="70" rx="15" width="70" x="2165" y="-3835" />
<rect fill="#84A1AE" height="70" rx="15" width="70" x="2265" y="-535" />
<rect fill="#84A1AE" height="70" rx="15" width="70" x="2265" y="-935" />
<rect fill="#84A1AE" height="70" rx="15" width="70" x="2265" y="-1135" />
<rect fill="#84A1AE" height="70" rx="15" width="70" x="2265" y="-2535" />
<rect fill="#84A1AE" height="70" rx="15" width="70" x="2265" y="-3235" />
<rect fill="#84A1AE" height="70" rx="15" width="70" x="2265" y="-3835" />
<rect fill="#84A1AE" height="70" rx="15" width="70" x="2365" y="-535" />
<rect fill="#84A1AE" height="70" rx="15" width="70" x="2365" y="-935" />
<rect fill="#84A1AE" height="70" rx="15" width="70" x="2365" y="-1035" />
<rect fill="#84A1AE" height="70" rx="15" width="70" x="2365" y="-3835" />
<rect fill="#84A1AE" height="70" rx="15" width="70" x="2465" y="-535" />
<rect fill="#84A1AE" height="70" rx="15" width="70" x="2465" y="-935" />
<rect fill="#84A1AE" height="70" rx="15" width="70" x="2465" y="-1535" />
<rect fill="#84A1AE" height="70" rx="15" width="70" x="2465" y="-2335" />
<rect fill="#84A1AE" height="70" rx="15" width="70" x="2465" y="-2735" />
<rect fill="#84A1AE" height="70" rx="15" width="70" x="2465" y="-3835" />
<rect fill="#84A1AE" height="70" rx="15" width="70" x="2565" y="-535" />
<rect fill="#84A1AE" height="70" rx="15" width="70" x="2565" y="-735" />
<rect fill="#84A1AE" height="70" rx="15" width="70" x="2565" y="-2535" />
<rect fill="#84A1AE" height="70" rx="15" width="70" x="2565" y="-3835" />
<rect fill="#84A1AE" height="70" rx="15" width="70" x="2665" y="-535" />
<rect fill="#84A1AE" height="70" rx="15" width="70" x="2665" y="-635" />
<rect fill="#84A1AE" height="70" rx="15" width="70" x="2665" y="-1135" />
<rect fill="#84A1AE" height="70" rx="15" width="70" x="2665" y="-1435" />
<rect fill="#84A1AE" height="70" rx="15" width="70" x="2665" y="-2735" />
<rect fill="#84A1AE" height="70" rx="15" width="70" x="2665" y="-3835" />
<rect fill="#84A1AE" height="70" rx="15" width="70" x="2765" y="-535" />
<rect fill="#84A1AE" height="70" rx="15" width="70" x="2765" y="-1635" />
<rect fill="#84A1AE" height="70" rx="15" width="70" x="2765" y="-1835" />
<rect fill="#84A1AE" height="70" rx="15" width="70" x="2765" y="-1935" />
<rect fill="#84A1AE" height="70" rx="15" width="70" x="2765" y="-2235" />
<rect fill="#84A1AE" height="70" rx="15" width="70" x="2765" y="-3735" />
<rect fill="#84A1AE" height="70" rx="15" width="70" x="2765" y="-3835" />
<rect fill="#84A1AE" height="70" rx="15" width="70" x="2865" y="-535" />
<rect fill="#84A1AE" height="70" rx="15" width="70" x="2865" y="-3835" />
<rect fill="#84A1AE" height="70" rx="15" width="70" x="2965" y="-535" />
<rect fill="#84A1AE" height="70" rx="15" width="70" x="2965" y="-2635" />
<rect fill="#84A1AE" height="70" rx="15" width="70" x="2965" y="-3835" />
<rect fill="#84A1AE" height="70" rx="15" width="70" x="3065" y="-535" />
<rect fill="#84A1AE" height="70" rx="15" width="70" x="3065" y="-735" />
<rect fill="#84A1AE" height="70" rx="15" width="70" x="3065" y="-2535" />
<rect fill="#84A1AE" height="70" rx="15" width="70" x="3065" y="-3835" />
<rect fill="#84A1AE" height="70" rx="15" width="70" x="3165" y="-535" />
<rect fill="#84A1AE" height="70" rx="15" width="70" x="3165" y="-835" />
<rect fill="#84A1AE" height="70" rx="15" width="70" x="3165" y="-1935" />
<rect fill="#84A1AE" height="70" rx="15" width="70" x="3165" y="-2735" />
<rect fill="#84A1AE" height="70" rx="15" width="70" x="3165" y="-3135" />
<rect fill="#84A1AE" height="70" rx="15" width="70" x="3165" y="-3835" />
<rect fill="#84A1AE" height="70" rx="15" width="70" x="3265" y="-535" />
<rect fill="#84A1AE" height="70" rx="15" width="70" x="3265" y="-1035" />
<rect fill="#84A1AE" height="70" rx="15" width="70" x="3265" y="-1735" />
<rect fill="#84A1AE" height="70" rx="15" width="70" x="3265" y="-3835" />
<rect fill="#84A1AE" height="70" rx="15" width="70" x="3365" y="-535" />
<rect fill="#84A1AE" height="70" rx="15" width="70" x="3365" y="-1435" />
<rect fill="#84A1AE" height="70" rx="15" width="70" x="3365" y="-1935" />
<rect fill="#84A1AE" height="70" rx="15" width="70" x="3365" y="-2135" />
<rect fill="#84A1AE" height="70" rx="15" width="70" x="3365" y="-3835" />
<rect fill="#84A1AE" height="70" rx="15" width="70" x="3465" y="-535" />
<rect fill="#84A1AE" height="70" rx="15" width="70" x="3465" y="-2635" />
<rect fill="#84A1AE" height="70" rx="15" width="70" x="3465" y="-3835" />
<rect fill="#84A1AE" height="70" rx="15" width="70" x="3565" y="-535" />
<rect fill="#84A1AE" height="70" rx="15" width="70" x="3565" y="-635" />
<rect fill="#84A1AE" height="70" rx="15" width="70" x="3565" y="-2435" />
<rect fill="#84A1AE" height="70" rx="15" width="70" x="3565" y="-3235" />
<rect fill="#84A1AE" height="70" rx="15" width="70" x="3565" y="-3835" />
<rect fill="#84A1AE" height="70" rx="15" width="70" x="3665" y="-535" />
<rect fill="#84A1AE" height="70" rx="15" width="70" x="3665" y="-2135" />
<rect fill="#84A1AE" height="70" rx="15" width="70" x="3665" y="-2835" />
<rect fill="#84A1AE" height="70" rx="15" width="70" x="3665" y="-3135" />
<rect fill="#84A1AE" height="70" rx="15" width="70" x="3665" y="-3735" />
<rect fill="#84A1AE" height="70" rx="15" width="70" x="3665" y="-3835" />
<rect fill="#84A1AE" height="70" rx="15" width="70" x="3765" y="-535" />
<rect fill="#84A1AE" height="70" rx="15" width="70" x="3765" y="-635" />
<rect fill="#84A1AE" height="70" rx="15" width="70" x="3765" y="-735" />
<rect fill="#84A1AE" height="70" rx="15" width="70" x="3765" y="-835" />
<rect fill="#84A1AE" height="70" rx="15" width="70" x="3765" y="-935" />
<rect fill="#84A1AE" height="70" rx="15" width="70" x="3765" y="-1035" />
<rect fill="#84A1AE" height="70" rx="15" width="70" x="3765" y="-1135" />
<rect fill="#84A1AE" height="70" rx="15" width="70" x="3765" y="-1235" />
<rect fill="#84A1AE" height="70" rx="15" width="70" x="3765" y="-1335" />
<rect fill="#84A1AE" height="70" rx="15" width="70" x="3765" y="-1435" />
<rect fill="#84A1AE" height="70" rx="15" width="70" x="3765" y="-1535" />
<rect fill="#84A1AE" height="70" rx="15" width="70" x="3765" y="-1635" />
<rect fill="#84A1AE" height="70" rx="15" width="70" x="3765" y="-1735" />
<rect fill="#84A1AE" height="70" rx="15" width="70" x="3765" y="-1835" />
<rect fill="#84A1AE" height="70" rx="15" width="70" x="3765" y="-1935" />
<rect fill="#84A1AE" height="70" rx="15" width="70" x="3765" y="-2035" />
<rect fill="#84A1AE" height="70" rx="15" width="70" x="3765" y="-2135" />
<rect fill="#84A1AE" height="70" rx="15" width="70" x="3765" y="-2235" />
<rect fill="#84A1AE" height="70" rx="15" width="70" x="3765" y="-2335" />
<rect fill="#84A1AE" height="70" rx="15" width="70" x="3765" y="-2435" />
<rect fill="#84A1AE" height="70" rx="15" width="70" x="3765" y="-2535" />
<rect fill="#84A1AE" height="70" rx="15" width="70" x="3765" y="-2635" />
<rect fill="#84A1AE" height="70" rx="15" width="70" x="3765" y="-2735" />
<rect fill="#84A1AE" height="70" rx="15" width="70" x="3765" y="-2835" />
<rect fill="#84A1AE" height="70" rx="15" width="70" x="3765" y="-2935" />
<rect fill="#84A1AE" height="70" rx="15" width="70" x="3765" y="-3035" />
<rect fill="#84A1AE" height="70" rx="15" width="70" x="3765" y="-3135" />
<rect fill="#84A1AE" height="70" rx="15" width="70" x="3765" y="-3235" />
<rect fill="#84A1AE" height="70" rx="15" width="70" x="3765" y="-3335" />
<rect fill="#84A1AE" height="70" rx="15" width="70" x="3765" y="-3435" />
<rect fill="#84A1AE" height="70" rx="15" width="70" x="3765" y="-3535" />
<rect fill="#84A1AE" height="70" rx="15" width="70" x="3765" y="-3635" />
<rect fill="#84A1AE" height="70" rx="15" width="70" x="3765" y="-3735" />
<rect fill="#84A1AE" height="70" rx="15" width="70" x="3765" y="-3835" />
<circle cx="2500" cy="-1400" fill="#c1433c" r="35"> <animate attributeName="cy" dur="79.52000000000001s" keyTimes="0.0;0.0035087719;0.0070175439;0.0105263158;0.0140350877;0.0175438596;0.0210526316;0.0245614035;0.0280701754;0.0315789474;0.0350877193;0.0385964912;0.0421052632;0.0456140351;0.049122807;0.0526315789;0.0596491228;0.0631578947;0.0666666667;0.0701754386;0.0736842105;0.101754386;0.1052631579;0.1087719298;0.1122807018;0.1157894737;0.1192982456;0.1228070175;0.1263157895;0.1298245614;0.1333333333;0.1368421053;0.1403508772;0.1438596491;0.1473684211;0.150877193;0.1543859649;0.1578947368;0.1614035088;0.1649122807;0.1684210526;0.1719298246;0.1754385965;0.1789473684;0.1824561404;0.1894736842;0.1929824561;0.1964912281;0.2;0.2035087719;0.2070175439;0.2105263158;0.2140350877;0.2175438596;0.2210526316;0.2245614035;0.2280701754;0.2315789474;0.2350877193;0.2385964912;0.2421052632;0.2456140351;0.249122807;0.2526315789;0.2561403509;0.2596491228;0.2631578947;0.2666666667;0.2701754386;0.2736842105;0.2771929825;0.2807017544;0.2842105263;0.2877192982;0.2912280702;0.2947368421;0.298245614;0.301754386;0.3052631579;0.3087719298;0.3122807018;0.3157894737;0.3192982456;0.3228070175;0.3263157895;0.3298245614;0.3333333333;0.3368421053;0.3403508772;0.3438596491;0.350877193;0.3543859649;0.3789473684;0.3824561404;0.4035087719;0.4070175439;0.4105263158;0.4140350877;0.4245614035;0.4280701754;0.4315789474;0.4350877193;0.4385964912;0.4421052632;0.4456140351;0.449122807;0.4526315789;0.4631578947;0.4666666667;0.4701754386;0.4736842105;0.4947368421;0.498245614;0.5228070175;0.5263157895;0.5298245614;0.5543859649;0.5578947368;0.5964912281;0.6;0.6035087719;0.6070175439;0.6105263158;0.6140350877;0.6175438596;0.6210526316;0.6245614035;0.6280701754;0.6315789474;0.6421052632;0.6456140351;0.649122807;0.6526315789;0.6561403509;0.6596491228;0.6631578947;0.6666666667;0.6701754386;0.6736842105;0.698245614;0.701754386;0.7052631579;0.7122807018;0.7157894737;0.7473684211;0.750877193;0.7543859649;0.7578947368;0.7614035088;0.7649122807;0.7684210526;0.7719298246;0.7754385965;0.7789473684;0.7824561404;0.7859649123;0.7894736842;0.7929824561;0.7964912281;0.8035087719;0.8070175439;0.8105263158;0.8140350877;0.8175438596;0.8210526316;0.8245614035;0.8280701754;0.8315789474;0.8421052632;0.8456140351;0.9263157895;0.9298245614;0.9473684211;0.950877193;0.9543859649;0.9578947368;0.9614035088;0.9649122807;0.9684210526;0.9719298246;0.9754385965;0.9824561404;0.9859649123;0.9894736842;0.9929824561;0.9964912281;1.0" repeatCount="indefinite" values="-1400;-1400;-1400;-1500;-1600;-1700;-1800;-1900;-2000;-2100;-2200;-2300;-2400;-2400;-2500;-2600;-2600;-2700;-2800;-2900;-3000;-3000;-2900;-2800;-2700;-2600;-2500;-2400;-2300;-2200;-2200;-2100;-2000;-1900;-1800;-1800;-1700;-1600;-1500;-1400;-1300;-1200;-1100;-1000;-900;-900;-800;-900;-1000;-1100;-1200;-1200;-1300;-1400;-1500;-1500;-1600;-1700;-1700;-1800;-1900;-2000;-2100;-2200;-2300;-2300;-2400;-2400;-2500;-2600;-2700;-2800;-2900;-3000;-3100;-3200;-3300;-3200;-3100;-3000;-2900;-2800;-2700;-2600;-2500;-2400;-2400;-2300;-2300;-2200;-2200;-2100;-2100;-2000;-2000;-1900;-1900;-1800;-1800;-1700;-1700;-1600;-1500;-1600;-1700;-1700;-1800;-1800;-1900;-1900;-2000;-2000;-2100;-2100;-2200;-2100;-2100;-2200;-2200;-2300;-2400;-2500;-2600;-2700;-2800;-2900;-3000;-3100;-3200;-3200;-3100;-3000;-2900;-2800;-2700;-2600;-2500;-2600;-2700;-2700;-2800;-2900;-2900;-3000;-3000;-2900;-2800;-2800;-2700;-2700;-2600;-2500;-2500;-2400;-2400;-2300;-2200;-2200;-2100;-2100;-2000;-2000;-1900;-1800;-1800;-1700;-1700;-1600;-1600;-1700;-1700;-1800;-1800;-1900;-2000;-2100;-2200;-2300;-2400;-2500;-2600;-2600;-2500;-2400;-2300;-2200;-2200"/>
<animate attributeName="cx" dur="79.52000000000001s" keyTimes="0.0;0.0035087719;0.0070175439;0.0421052632;0.0456140351;0.0561403509;0.0596491228;0.0736842105;0.0771929825;0.0807017544;0.0842105263;0.0877192982;0.0912280702;0.0947368421;0.098245614;0.101754386;0.1298245614;0.1333333333;0.1473684211;0.150877193;0.1824561404;0.1859649123;0.1894736842;0.2070175439;0.2105263158;0.2210526316;0.2245614035;0.2315789474;0.2350877193;0.2561403509;0.2596491228;0.2631578947;0.2666666667;0.3298245614;0.3333333333;0.3368421053;0.3403508772;0.3438596491;0.3473684211;0.350877193;0.3543859649;0.3578947368;0.3614035088;0.3649122807;0.3684210526;0.3719298246;0.3754385965;0.3789473684;0.3824561404;0.3859649123;0.3894736842;0.3929824561;0.3964912281;0.4;0.4035087719;0.4070175439;0.4105263158;0.4140350877;0.4175438596;0.4210526316;0.4245614035;0.4280701754;0.4315789474;0.4456140351;0.449122807;0.4526315789;0.4561403509;0.4596491228;0.4631578947;0.4666666667;0.4701754386;0.4736842105;0.4771929825;0.4807017544;0.4842105263;0.4877192982;0.4912280702;0.4947368421;0.498245614;0.501754386;0.5052631579;0.5087719298;0.5122807018;0.5157894737;0.5192982456;0.5228070175;0.5298245614;0.5333333333;0.5368421053;0.5403508772;0.5438596491;0.5473684211;0.550877193;0.5543859649;0.5578947368;0.5614035088;0.5649122807;0.5684210526;0.5719298246;0.5754385965;0.5789473684;0.5824561404;0.5859649123;0.5894736842;0.5929824561;0.5964912281;0.6315789474;0.6350877193;0.6385964912;0.6421052632;0.6736842105;0.6771929825;0.6807017544;0.6842105263;0.6877192982;0.6912280702;0.6947368421;0.698245614;0.7052631579;0.7087719298;0.7122807018;0.7157894737;0.7192982456;0.7228070175;0.7263157895;0.7298245614;0.7333333333;0.7368421053;0.7403508772;0.7438596491;0.7473684211;0.7543859649;0.7578947368;0.7614035088;0.7649122807;0.7719298246;0.7754385965;0.7789473684;0.7824561404;0.7894736842;0.7929824561;0.7964912281;0.8;0.8035087719;0.8070175439;0.8105263158;0.8175438596;0.8210526316;0.8245614035;0.8280701754;0.8315789474;0.8350877193;0.8385964912;0.8421052632;0.8456140351;0.849122807;0.8526315789;0.8561403509;0.8596491228;0.8631578947;0.8666666667;0.8701754386;0.8736842105;0.8771929825;0.8807017544;0.8842105263;0.8877192982;0.8912280702;0.8947368421;0.898245614;0.901754386;0.9052631579;0.9087719298;0.9122807018;0.9157894737;0.9192982456;0.9228070175;0.9263157895;0.9298245614;0.9333333333;0.9368421053;0.9403508772;0.9438596491;0.9473684211;0.9754385965;0.9789473684;0.9824561404;1.0" repeatCount="indefinite" values="2500;2500;2600;2600;2700;2700;2800;2800;2900;3000;3100;3200;3300;3400;3500;3400;3400;3300;3300;3200;3200;3300;3400;3400;3300;3300;3200;3200;3100;3100;3000;3000;2900;2900;3000;3000;3100;3100;3000;2900;2900;2800;2700;2600;2500;2400;2300;2200;2200;2100;2000;1900;1800;1700;1600;1600;1500;1500;1400;1300;1200;1200;1100;1100;1200;1200;1300;1400;1500;1500;1600;1600;1700;1800;1900;2000;2100;2200;2200;2300;2400;2500;2600;2700;2800;2900;2900;2800;2700;2600;2500;2400;2300;2200;2200;2100;2000;1900;1800;1700;1600;1500;1400;1300;1200;1100;1100;1000;900;800;800;900;1000;1100;1200;1300;1400;1500;1500;1600;1700;1700;1800;1900;2000;2100;2200;2300;2400;2300;2200;2200;2300;2300;2400;2400;2500;2500;2600;2600;2700;2700;2800;2900;2900;3000;3000;3100;3100;3200;3200;3100;3000;2900;2900;2800;2700;2600;2500;2400;2300;2200;2100;2000;1900;1800;1700;1600;1500;1400;1300;1200;1100;1000;900;1000;1100;1200;1200;1300;1400;1500;1600;1700;1700;1800;1900;1900"/>
<animate attributeName="visibility" dur="79.52000000000001s" keyTimes="0.0;0.0035087719;1.0" repeatCount="indefinite" values="visible;visible;visible"/> </circle>
<circle cx="3000" cy="-1900" fill="#2e6f9e" r="35"> <animate attributeName="cy" dur="79.52000000000001s" keyTimes="0.0;0.0035087719;0.0070175439;0.0105263158;0.0140350877;0.0175438596;0.0210526316;0.0245614035;0.0280701754;0.0315789474;0.0350877193;0.0385964912;0.0421052632;0.0456140351;0.0526315789;0.0561403509;0.0596491228;0.0631578947;0.0666666667;0.0701754386;0.0771929825;0.0807017544;0.0842105263;0.0877192982;0.0912280702;0.098245614;0.101754386;0.1122807018;0.1157894737;0.1192982456;0.1228070175;0.1263157895;0.1333333333;0.1368421053;0.1403508772;0.1438596491;0.1473684211;0.1578947368;0.1614035088;0.1649122807;0.1684210526;0.1719298246;0.1789473684;0.1824561404;0.1859649123;0.1894736842;0.1929824561;0.1964912281;0.2;0.2035087719;0.2070175439;0.2105263158;0.2140350877;0.2175438596;0.2210526316;0.2245614035;0.2280701754;0.2315789474;0.2350877193;0.2385964912;0.2421052632;0.2456140351;0.249122807;0.2526315789;0.2561403509;0.2596491228;0.2631578947;0.2666666667;0.2701754386;0.2736842105;0.2771929825;0.2807017544;0.2842105263;0.2877192982;0.298245614;0.301754386;0.3052631579;0.3122807018;0.3157894737;0.3192982456;0.3228070175;0.3263157895;0.3578947368;0.3614035088;0.4175438596;0.4210526316;0.4245614035;0.4385964912;0.4421052632;0.4456140351;0.449122807;0.4526315789;0.4561403509;0.4666666667;0.4701754386;0.4736842105;0.498245614;0.501754386;0.5052631579;0.5087719298;0.5157894737;0.5192982456;0.5228070175;0.5263157895;0.5298245614;0.5333333333;0.5368421053;0.550877193;0.5543859649;0.5614035088;0.5649122807;0.5684210526;0.5929824561;0.5964912281;0.6;0.6035087719;0.6105263158;0.6140350877;0.6175438596;0.6210526316;0.6245614035;0.6315789474;0.6350877193;0.6385964912;0.6421052632;0.6456140351;0.649122807;0.6526315789;0.6561403509;0.6596491228;0.6631578947;0.6666666667;0.6701754386;0.6736842105;0.6807017544;0.6842105263;0.6877192982;0.6912280702;0.6947368421;0.698245614;0.7087719298;0.7122807018;0.7157894737;0.7298245614;0.7333333333;0.7473684211;0.750877193;0.7649122807;0.7684210526;0.7719298246;0.7859649123;0.7894736842;0.7929824561;0.8035087719;0.8070175439;0.8105263158;0.8140350877;0.8210526316;0.8245614035;0.8315789474;0.8350877193;0.8385964912;0.8421052632;0.8456140351;0.849122807;0.8526315789;0.8561403509;0.8596491228;0.8631578947;0.8666666667;0.8701754386;0.8736842105;0.8771929825;0.8807017544;0.8842105263;0.8877192982;0.8912280702;0.8947368421;0.898245614;0.901754386;0.9122807018;0.9157894737;0.9403508772;0.9438596491;0.9473684211;0.950877193;0.9543859649;0.9578947368;0.9614035088;0.9649122807;0.9684210526;0.9719298246;0.9754385965;0.9789473684;0.9824561404;0.9859649123;0.9894736842;0.9929824561;0.9964912281;1.0" repeatCount="indefinite" values="-1900;-1900;-2000;-2100;-2200;-2200;-2300;-2400;-2500;-2400;-2400;-2500;-2500;-2600;-2600;-2500;-2500;-2600;-2500;-2600;-2600;-2500;-2500;-2400;-2500;-2500;-2400;-2400;-2500;-2500;-2400;-2300;-2300;-2200;-2100;-2100;-2000;-2000;-2100;-2000;-2100;-2000;-2000;-1900;-1800;-1900;-1800;-1800;-1700;-1600;-1600;-1500;-1500;-1400;-1300;-1200;-1100;-1000;-1000;-900;-800;-900;-900;-800;-700;-800;-900;-1000;-1100;-1200;-1300;-1400;-1500;-1600;-1600;-1700;-1800;-1800;-1700;-1600;-1600;-1700;-1700;-1800;-1800;-1700;-1600;-1600;-1700;-1700;-1600;-1600;-1700;-1700;-1800;-1700;-1700;-1600;-1600;-1700;-1700;-1600;-1500;-1500;-1400;-1300;-1200;-1200;-1100;-1100;-1000;-1100;-1100;-1000;-900;-1000;-1000;-900;-900;-800;-700;-700;-600;-700;-700;-800;-800;-700;-700;-800;-800;-900;-900;-800;-800;-900;-1000;-900;-1000;-1100;-1100;-1200;-1300;-1300;-1400;-1400;-1500;-1500;-1600;-1700;-1700;-1600;-1500;-1500;-1600;-1600;-1500;-1500;-1600;-1600;-1700;-1700;-1800;-1900;-1900;-2000;-2100;-2200;-2300;-2400;-2500;-2600;-2600;-2700;-2800;-2900;-3000;-3100;-3100;-3000;-3000;-3100;-3100;-3000;-2900;-2900;-2800;-2800;-2700;-2800;-2800;-2700;-2600;-2600;-2500;-2400;-2400;-2300;-2200;-2200"/>
<animate attributeName="cx" dur="79.52000000000001s" keyTimes="0.0;0.0035087719;0.0140350877;0.0175438596;0.0315789474;0.0350877193;0.0385964912;0.0421052632;0.0456140351;0.049122807;0.0561403509;0.0596491228;0.0701754386;0.0736842105;0.0771929825;0.0807017544;0.0842105263;0.0912280702;0.0947368421;0.098245614;0.101754386;0.1052631579;0.1087719298;0.1157894737;0.1192982456;0.1263157895;0.1298245614;0.1333333333;0.1403508772;0.1438596491;0.1473684211;0.150877193;0.1543859649;0.1719298246;0.1754385965;0.2315789474;0.2350877193;0.2456140351;0.249122807;0.2877192982;0.2912280702;0.2947368421;0.298245614;0.3052631579;0.3087719298;0.3122807018;0.3192982456;0.3228070175;0.3263157895;0.3298245614;0.3333333333;0.3368421053;0.3403508772;0.3438596491;0.3473684211;0.350877193;0.3543859649;0.3578947368;0.3649122807;0.3684210526;0.3719298246;0.3754385965;0.3789473684;0.3824561404;0.3859649123;0.3894736842;0.3929824561;0.3964912281;0.4;0.4035087719;0.4070175439;0.4105263158;0.4140350877;0.4175438596;0.4280701754;0.4315789474;0.4350877193;0.4561403509;0.4596491228;0.4736842105;0.4771929825;0.4807017544;0.4842105263;0.4877192982;0.4912280702;0.4947368421;0.498245614;0.5087719298;0.5122807018;0.5157894737;0.5228070175;0.5263157895;0.5368421053;0.5403508772;0.5438596491;0.5578947368;0.5614035088;0.5684210526;0.5719298246;0.5754385965;0.5789473684;0.5824561404;0.5859649123;0.5894736842;0.5929824561;0.6035087719;0.6070175439;0.6105263158;0.6140350877;0.6175438596;0.6245614035;0.6280701754;0.6315789474;0.6456140351;0.649122807;0.6526315789;0.6561403509;0.6596491228;0.6631578947;0.6666666667;0.6701754386;0.6736842105;0.6771929825;0.6807017544;0.698245614;0.701754386;0.7052631579;0.7087719298;0.7157894737;0.7192982456;0.7228070175;0.7263157895;0.7298245614;0.7368421053;0.7403508772;0.7438596491;0.7473684211;0.7578947368;0.7614035088;0.7649122807;0.7719298246;0.7754385965;0.7789473684;0.7824561404;0.7859649123;0.7929824561;0.7964912281;0.8;0.8035087719;0.8140350877;0.8175438596;0.8210526316;0.8245614035;0.8280701754;0.8315789474;0.8350877193;0.8385964912;0.8456140351;0.849122807;0.8736842105;0.8771929825;0.8947368421;0.898245614;0.9052631579;0.9087719298;0.9122807018;0.9157894737;0.9192982456;0.9228070175;0.9263157895;0.9298245614;0.9333333333;0.9368421053;0.9403508772;0.9473684211;0.950877193;0.9543859649;0.9578947368;0.9649122807;0.9684210526;0.9754385965;0.9789473684;0.9859649123;0.9894736842;1.0" repeatCount="indefinite" values="3000;3000;3000;2900;2900;2800;2800;2700;2700;2800;2800;2700;2700;2600;2700;2700;2800;2800;2900;3000;3000;3100;3200;3200;3300;3300;3400;3500;3500;3600;3600;3500;3600;3600;3700;3700;3600;3600;3700;3700;3600;3500;3400;3400;3300;3200;3200;3100;3100;3000;3100;3000;2900;2900;2800;2700;2600;2500;2500;2400;2500;2400;2500;2400;2500;2400;2500;2400;2500;2400;2500;2400;2500;2400;2400;2300;2200;2200;2100;2100;2000;1900;1800;1800;1700;1600;1500;1500;1400;1300;1300;1400;1400;1300;1400;1400;1300;1300;1400;1500;1600;1700;1800;1900;2000;2000;2100;2000;2000;2100;2100;2200;2300;2300;2400;2400;2500;2500;2600;2600;2700;2700;2800;2900;2900;3000;3000;2900;2900;2800;2700;2600;2500;2500;2400;2300;2200;2200;2300;2200;2200;2100;2000;2000;1900;1900;1800;1700;1600;1600;1700;1600;1600;1500;1400;1400;1500;1500;1600;1600;1700;1700;1800;1800;1900;2000;2000;2100;2200;2300;2300;2400;2500;2400;2400;2300;2300;2200;2200;2300;2300;2200;2200;2300;2300"/>
<animate attributeName="visibility" dur="79.52000000000001s" keyTimes="0.0;0.0035087719;1.0" repeatCount="indefinite" values="visible;visible;visible"/> </circle>
<circle cx="3500" cy="-3000" fill="none" r="35" stroke="#c1433c" stroke-width="10"> <animate attributeName="cy" dur="79.52000000000001s" keyTimes="0.0;0.0035087719;0.0947368421;0.098245614;0.1263157895;0.1298245614;0.1894736842;0.1929824561;0.2947368421;0.298245614;0.3403508772;0.3438596491;0.4350877193;0.4385964912;0.5228070175;0.5263157895;0.5964912281;0.6;0.6280701754;0.6315789474;0.6631578947;0.6666666667;0.7368421053;0.7403508772;0.750877193;0.7543859649;0.8280701754;0.8315789474;0.9122807018;0.9157894737;0.9438596491;0.9473684211;0.9789473684;0.9824561404;1.0" repeatCount="indefinite" values="-3000;-3000;-3000;-2200;-2200;-800;-800;-3300;-3300;-2200;-2200;-1500;-1500;-2200;-2200;-2300;-2300;-3200;-3200;-2500;-2500;-3000;-3000;-2800;-2800;-1600;-1600;-1700;-1700;-1800;-1800;-2600;-2600;-700;-700"/>
<animate attributeName="cx" dur="79.52000000000001s" keyTimes="0.0;0.0035087719;0.0947368421;0.098245614;0.1894736842;0.1929824561;0.2947368421;0.298245614;0.3403508772;0.3438596491;0.4350877193;0.4385964912;0.5228070175;0.5263157895;0.6280701754;0.6315789474;0.6631578947;0.6666666667;0.7368421053;0.7403508772;0.750877193;0.7543859649;0.8280701754;0.8315789474;0.9122807018;0.9157894737;0.9438596491;0.9473684211;0.9789473684;0.9824561404;1.0" repeatCount="indefinite" values="3500;3500;3500;3400;3400;2900;2900;3100;3100;1100;1100;2900;2900;1100;1100;800;800;2400;2400;2200;2200;3200;3200;900;900;1700;1700;1900;1900;2500;2500"/>
<animate attributeName="visibility" dur="79.52000000000001s" keyTimes="0.0;0.0035087719;1.0" repeatCount="indefinite" values="visible;visible;visible"/> </circle>
<circle cx="2600" cy="-2600" fill="none" r="35" stroke="#2e6f9e" stroke-width="10"> <animate attributeName="cy" dur="79.52000000000001s" keyTimes="0.0;0.0035087719;0.0701754386;0.0736842105;0.2526315789;0.2561403509;0.4666666667;0.4701754386;0.5614035088;0.5649122807;0.6771929825;0.6807017544;0.8280701754;0.8315789474;0.9333333333;0.9368421053;0.950877193;0.9543859649;1.0" repeatCount="indefinite" values="-2600;-2600;-2600;-700;-700;-1800;-1800;-1000;-1000;-800;-800;-1600;-1600;-3100;-3100;-2800;-2800;-1200;-1200"/>
<animate attributeName="cx" dur="79.52000000000001s" keyTimes="0.0;0.0035087719;0.0701754386;0.0736842105;0.2526315789;0.2561403509;0.4666666667;0.4701754386;0.5614035088;0.5649122807;0.6771929825;0.6807017544;0.8280701754;0.8315789474;0.9333333333;0.9368421053;0.950877193;0.9543859649;1.0" repeatCount="indefinite" values="2600;2600;2600;3700;3700;2100;2100;1300;1300;2900;2900;1400;1400;2500;2500;2300;2300;2100;2100"/>
<animate attributeName="visibility" dur="79.52000000000001s" keyTimes="0.0;0.0035087719;1.0" repeatCount="indefinite" values="visible;visible;visible"/> </circle>
</svg>