<?xml version="1.0" encoding="UTF-8"?>
        <svg xmlns="http://www.w3.org/2000/svg" xmlns:xlink="http://www.w3.org/1999/xlink"
             width="430" height="430" viewBox="0 -4300 4300 4300">

<defs>

</defs>

<rect fill="#84A1AE" height="70" rx="15" width="70" x="465" y="-535" />
<rect fill="#84A1AE" height="70" rx="15" width="70" x="465" y="-635" />
<rect fill="#84A1AE" height="70" rx="15" width="70" x="465" y="-735" />
<rect fill="#84A1AE" height="70" rx="15" width="70" x="465" y="-835" />
<rect fill="#84A1AE" height="70" rx="15" width="70" x="465" y="-935" />
<rect fill="#84A1AE" height="70" rx="15" width="70" x="465" y="-1035" />
<rect fill="#84A1AE" height="70" rx="15" width="70" x="465" y="-1135" />
<rect fill="#84A1AE" height="70" rx="15" width="70" x="465" y="-1235" />
<rect fill="#84A1AE" height="70" rx="15" width="70" x="465" y="-1335" />
<rect fill="#84A1AE" height="70" rx="15" width="70" x="465" y="-1435" />
<rect fill="#84A1AE" height="70" rx="15" width="70" x="465" y="-1535" />
<rect fill="#84A1AE" height="70" rx="15" width="70" x="465" y="-1635" />
<rect fill="#84A1AE" height="70" rx="15" width="70" x="465" y="-1735" />
<rect fill="#84A1AE" height="70" rx="15" width="70" x="465" y="-1835" />
<rect fill="#84A1AE" height="70" rx="15" width="70" x="465" y="-1935" />
<rect fill="#84A1AE" height="70" rx="15" width="70" x="465" y="-2035" />
<rect fill="#84A1AE" height="70" rx="15" width="70" x="465" y="-2135" />
<rect fill="#84A1AE" height="70" rx="15" width="70" x="465" y="-2235" />
<rect fill="#84A1AE" height="70" rx="15" width="70" x="465" y="-2335" />
<rect fill="#84A1AE" height="70" rx="15" width="70" x="465" y="-2435" />
<rect fill="#84A1AE" height="70" rx="15" width="70" x="465" y="-2535" />
<rect fill="#84A1AE" height="70" rx="15" width="70" x="465" y="-2635" />
<rect fill="#84A1AE" height="70" rx="15" width="70" x="465" y="-2735" />
<rect fill="#84A1AE" height="70" rx="15" width="70" x="465" y="-2835" />
<rect fill="#84A1AE" height="70" rx="15" width="70" x="465" y="-2935" />
<rect fill="#84A1AE" height="70" rx="15" width="70" x="465" y="-3035" />
<rect fill="#84A1AE" height="70" rx="15" width="70" x="465" y="-3135" />
<rect fill="#84A1AE" height="70" rx="15" width="70" x="465" y="-3235" />
<rect fill="#84A1AE" height="70" rx="15" width="70" x="465" y="-3335" />
<rect fill="#84A1AE" height="70" rx="15" width="70" x="465" y="-3435" />
<rect fill="#84A1AE" height="70" rx="15" width="70" x="465" y="-3535" />
<rect fill="#84A1AE" height="70" rx="15" width="70" x="465" y="-3635" />
<rect fill="#84A1AE" height="70" rx="15" width="70" x="465" y="-3735" />
<rect fill="#84A1AE" height="70" rx="15" width="70" x="465" y="-3835" />
<rect fill="#84A1AE" height="70" rx="15" width="70" x="565" y="-535" />
<rect fill="#84A1AE" height="70" rx="15" width="70" x="565" y="-1635" />
<rect fill="#84A1AE" height="70" rx="15" width="70" x="565" y="-1935" />
<rect fill="#84A1AE" height="70" rx="15" width="70" x="565" y="-2735" />
<rect fill="#84A1AE" height="70" rx="15" width="70" x="565" y="-3835" />
<rect fill="#84A1AE" height="70" rx="15" width="70" x="665" y="-535" />
<rect fill="#84A1AE" height="70" rx="15" width="70" x="665" y="-1035" />
<rect fill="#84A1AE" height="70" rx="15" width="70" x="665" y="-2535" />
<rect fill="#84A1AE" height="70" rx="15" width="70" x="665" y="-3035" />
<rect fill="#84A1AE" height="70" rx="15" width="70" x="665" y="-3235" />
<rect fill="#84A1AE" height="70" rx="15" width="70" x="665" y="-3835" />
<rect fill="#84A1AE" height="70" rx="15" width="70" x="765" y="-535" />
<rect fill="#84A1AE" height="70" rx="15" width="70" x="765" y="-635" />
<rect fill="#84A1AE" height="70" rx="15" width="70" x="765" y="-3835" />
<rect fill="#84A1AE" height="70" rx="15" width="70" x="865" y="-535" />
<rect fill="#84A1AE" height="70" rx="15" width="70" x="865" y="-2435" />
<rect fill="#84A1AE" height="70" rx="15" width="70" x="865" y="-2535" />
<rect fill="#84A1AE" height="70" rx="15" width="70" x="865" y="-3335" />
<rect fill="#84A1AE" height="70" rx="15" width="70" x="865" y="-3435" />
<rect fill="#84A1AE" height="70" rx="15" width="70" x="865" y="-3835" />
<rect fill="#84A1AE" height="70" rx="15" width="70" x="965" y="-535" />
<rect fill="#84A1AE" height="70" rx="15" width="70" x="965" y="-735" />
<rect fill="#84A1AE" height="70" rx="15" width="70" x="965" y="-1635" />
<rect fill="#84A1AE" height="70" rx="15" width="70" x="965" y="-1835" />
<rect fill="#84A1AE" height="70" rx="15" width="70" x="965" y="-2835" />
<rect fill="#84A1AE" height="70" rx="15" width="70" x="965" y="-3435" />
<rect fill="#84A1AE" height="70" rx="15" width="70" x="965" y="-3835" />
<rect fill="#84A1AE" height="70" rx="15" width="70" x="1065" y="-535" />
<rect fill="#84A1AE" height="70" rx="15" width="70" x="1065" y="-1135" />
<rect fill="#84A1AE" height="70" rx="15" width="70" x="1065" y="-1835" />
<rect fill="#84A1AE" height="70" rx="15" width="70" x="1065" y="-3735" />
<rect fill="#84A1AE" height="70" rx="15" width="70" x="1065" y="-3835" />
<rect fill="#84A1AE" height="70" rx="15" width="70" x="1165" y="-535" />
<rect fill="#84A1AE" height="70" rx="15" width="70" x="1165" y="-635" />
<rect fill="#84A1AE" height="70" rx="15" width="70" x="1165" y="-735" />
<rect fill="#84A1AE" height="70" rx="15" width="70" x="1165" y="-1535" />
<rect fill="#84A1AE" height="70" rx="15" width="70" x="1165" y="-3835" />
<rect fill="#84A1AE" height="70" rx="15" width="70" x="1265" y="-535" />
<rect fill="#84A1AE" height="70" rx="15" width="70" x="1265" y="-2835" />
<rect fill="#84A1AE" height="70" rx="15" width="70" x="1265" y="-3435" />
<rect fill="#84A1AE" height="70" rx="15" width="70" x="1265" y="-3835" />
<rect fill="#84A1AE" height="70" rx="15" width="70" x="1365" y="-535" />
<rect fill="#84A1AE" height="70" rx="15" width="70" x="1365" y="-835" />
<rect fill="#84A1AE" height="70" rx="15" width="70" x="1365" y="-935" />
<rect fill="#84A1AE" height="70" rx="15" width="70" x="1365" y="-1035" />
<rect fill="#84A1AE" height="70" rx="15" width="70" x="1365" y="-1935" />
<rect fill="#84A1AE" height="70" rx="15" width="70" x="1365" y="-2335" />
<rect fill="#84A1AE" height="70" rx="15" width="70" x="1365" y="-2635" />
<rect fill="#84A1AE" height="70" rx="15" width="70" x="1365" y="-2835" />
<rect fill="#84A1AE" height="70" rx="15" width="70" x="1365" y="-2935" />
<rect fill="#84A1AE" height="70" rx="15" width="70" x="1365" y="-3035" />
<rect fill="#84A1AE" height="70" rx="15" width="70" x="1365" y="-3335" />
<rect fill="#84A1AE" height="70" rx="15" width="70" x="1365" y="-3835" />
<rect fill="#84A1AE" height="70" rx="15" width="70" x="1465" y="-535" />
<rect fill="#84A1AE" height="70" rx="15" width="70" x="1465" y="-1235" />
<rect fill="#84A1AE" height="70" rx="15" width="70" x="1465" y="-1535" />
<rect fill="#84A1AE" height="70" rx="15" width="70" x="1465" y="-2035" />
<rect fill="#84A1AE" height="70" rx="15" width="70" x="1465" y="-3135" />
<rect fill="#84A1AE" height="70" rx="15" width="70" x="1465" y="-3235" />
<rect fill="#84A1AE" height="70" rx="15" width="70" x="1465" y="-3835" />
<rect fill="#84A1AE" height="70" rx="15" width="70" x="1565" y="-535" />
<rect fill="#84A1AE" height="70" rx="15" width="70" x="1565" y="-3035" />
<rect fill="#84A1AE" height="70" rx="15" width="70" x="1565" y="-3835" />
<rect fill="#84A1AE" height="70" rx="15" width="70" x="1665" y="-535" />
<rect fill="#84A1AE" height="70" rx="15" width="70" x="1665" y="-3735" />
<rect fill="#84A1AE" height="70" rx="15" width="70" x="1665" y="-3835" />
<rect fill="#84A1AE" height="70" rx="15" width="70" x="1765" y="-535" />
<rect fill="#84A1AE" height="70" rx="15" width="70" x="1765" y="-1235" />
<rect fill="#84A1AE" height="70" rx="15" width="70" x="1765" y="-3835" />
<rect fill="#84A1AE" height="70" rx="15" width="70" x="1865" y="-535" />
<rect fill="#84A1AE" height="70" rx="15" width="70" x="1865" y="-735" />
<rect fill="#84A1AE" height="70" rx="15" width="70" x="1865" y="-1335" />
<rect fill="#84A1AE" height="70" rx="15" width="70" x="1865" y="-3235" />
<rect fill="#84A1AE" height="70" rx="15" width="70" x="1865" y="-3435" />
<rect fill="#84A1AE" height="70" rx="15" width="70" x="1865" y="-3835" />
<rect fill="#84A1AE" height="70" rx="15" width="70" x="1965" y="-535" />
<rect fill="#84A1AE" height="70" rx="15" width="70" x="1965" y="-635" />
<rect fill="#84A1AE" height="70" rx="15" width="70" x="1965" y="-1835" />
<rect fill="#84A1AE" height="70" rx="15" width="70" x="1965" y="-1935" />
<rect fill="#84A1AE" height="70" rx="15" width="70" x="1965" y="-2135" />
<rect fill="#84A1AE" height="70" rx="15" width="70" x="1965" y="-2335" />
<rect fill="#84A1AE" height="70" rx="15" width="70" x="1965" y="-2435" />
<rect fill="#84A1AE" height="70" rx="15" width="70" x="1965" y="-3335" />
<rect fill="#84A1AE" height="70" rx="15" width="70" x="1965" y="-3835" />
<rect fill="#84A1AE" height="70" rx="15" width="70" x="2065" y="-535" />
<rect fill="#84A1AE" height="70" rx="15" width="70" x="2065" y="-1535" />
<rect fill="#84A1AE" height="70" rx="15" width="70" x="2065" y="-1635" />
<rect fill="#84A1AE" height="70" rx="15" width="70" x="2065" y="-2135" />
<rect fill="#84A1AE" height="70" rx="15" width="70" x="2065" y="-3835" />
<rect fill="#84A1AE" height="70" rx="15" width="70" x="2165" y="-535" />
<rect fill="#84A1AE" height="70" rx="15" width="70" x="2165" y="-935" />
<rect fill="#84A1AE" height="70" rx="15" width="70" x="2165" y="-1335" />
<rect fill="#84A1AE" height="70" rx="15" width="70" x="2165" y="-1835" />
<rect fill="#84A1AE" height="70" rx="15" width="70" x="2165" y="-3835" />
<rect fill="#84A1AE" height="70" rx="15" width="70" x="2265" y="-535" />
<rect fill="#84A1AE" height="70" rx="15" width="70" x="2265" y="-935" />
<rect fill="#84A1AE" height="70" rx="15" width="70" x="2265" y="-1135" />
<rect fill="#84A1AE" height="70" rx="15" width="70" x="2265" y="-2535" />
<rect fill="#84A1AE" height="70" rx="15" width="70" x="2265" y="-3235" />
<rect fill="#84A1AE" height="70" rx="15" width="70" x="2265" y="-3835" />
<rect fill="#84A1AE" height="70" rx="15" width="70" x="2365" y="-535" />
<rect fill="#84A1AE" height="70" rx="15" width="70" x="2365" y="-935" />
<rect fill="#84A1AE" height="70" rx="15" width="70" x="2365" y="-1035" />
<rect fill="#84A1AE" height="70" rx="15" width="70" x="2365" y="-3835" />
<rect fill="#84A1AE" height="70" rx="15" width="70" x="2465" y="-535" />
<rect fill="#84A1AE" height="70" rx="15" width="70" x="2465" y="-935" />
<rect fill="#84A1AE" height="70" rx="15" width="70" x="2465" y="-1535" />
<rect fill="#84A1AE" height="70" rx="15" width="70" x="2465" y="-2335" />
<rect fill="#84A1AE" height="70" rx="15" width="70" x="2465" y="-2735" />
<rect fill="#84A1AE" height="70" rx="15" width="70" x="2465" y="-3835" />
<rect fill="#84A1AE" height="70" rx="15" width="70" x="2565" y="-535" />
<rect fill="#84A1AE" height="70" rx="15" width="70" x="2565" y="-735" />
<rect fill="#84A1AE" height="70" rx="15" width="70" x="2565" y="-2535" />
<rect fill="#84A1AE" height="70" rx="15" width="70" x="2565" y="-3835" />
<rect fill="#84A1AE" height="70" rx="15" width="70" x="2665" y="-535" />
<rect fill="#84A1AE" height="70" rx="15" width="70" x="2665" y="-635" />
<rect fill="#84A1AE" height="70" rx="15" width="70" x="2665" y="-1135" />
<rect fill="#84A1AE" height="70" rx="15" width="70" x="2665" y="-1435" />
<rect fill="#84A1AE" height="70" rx="15" width="70" x="2665" y="-2735" />
<rect fill="#84A1AE" height="70" rx="15" width="70" x="2665" y="-3835" />
<rect fill="#84A1AE" height="70" rx="15" width="70" x="2765" y="-535" />
<rect fill="#84A1AE" height="70" rx="15" width="70" x="2765" y="-1635" />
<rect fill="#84A1AE" height="70" rx="15" width="70" x="2765" y="-1835" />
<rect fill="#84A1AE" height="70" rx="15" width="70" x="2765" y="-1935" />
<rect fill="#84A1AE" height="70" rx="15" width="70" x="2765" y="-2235" />
<rect fill="#84A1AE" height="70" rx="15" width="70" x="2765" y="-3735" />
<rect fill="#84A1AE" height="70" rx="15" width="70" x="2765" y="-3835" />
<rect fill="#84A1AE" height="70" rx="15" width="70" x="2865" y="-535" />
<rect fill="#84A1AE" height="70" rx="15" width="70" x="2865" y="-3835" />
<rect fill="#84A1AE" height="70" rx="15" width="70" x="2965" y="-535" />
<rect fill="#84A1AE" height="70" rx="15" width="70" x="2965" y="-2635" />
<rect fill="#84A1AE" height="70" rx="15" width="70" x="2965" y="-3835" />
<rect fill="#84A1AE" height="70" rx="15" width="70" x="3065" y="-535" />
<rect fill="#84A1AE" height="70" rx="15" width="70" x="3065" y="-735" />
<rect fill="#84A1AE" height="70" rx="15" width="70" x="3065" y="-2535" />
<rect fill="#84A1AE" height="70" rx="15" width="70" x="3065" y="-3835" />
<rect fill="#84A1AE" height="70" rx="15" width="70" x="3165" y="-535" />
<rect fill="#84A1AE" height="70" rx="15" width="70" x="3165" y="-835" />
<rect fill="#84A1AE" height="70" rx="15" width="70" x="3165" y="-1935" />
<rect fill="#84A1AE" height="70" rx="15" width="70" x="3165" y="-2735" />
<rect fill="#84A1AE" height="70" rx="15" width="70" x="3165" y="-3135" />
<rect fill="#84A1AE" height="70" rx="15" width="70" x="3165" y="-3835" />
<rect fill="#84A1AE" height="70" rx="15" width="70" x="3265" y="-535" />
<rect fill="#84A1AE" height="70" rx="15" width="70" x="3265" y="-1035" />
<rect fill="#84A1AE" height="70" rx="15" width="70" x="3265" y="-1735" />
<rect fill="#84A1AE" height="70" rx="15" width="70" x="3265" y="-3835" />
<rect fill="#84A1AE" height="70" rx="15" width="70" x="3365" y="-535" />
<rect fill="#84A1AE" height="70" rx="15" width="70" x="3365" y="-1435" />
<rect fill="#84A1AE" height="70" rx="15" width="70" x="3365" y="-1935" />
<rect fill="#84A1AE" height="70" rx="15" width="70" x="3365" y="-2135" />
<rect fill="#84A1AE" height="70" rx="15" width="70" x="3365" y="-3835" />
<rect fill="#84A1AE" height="70" rx="15" width="70" x="3465" y="-535" />
<rect fill="#84A1AE" height="70" rx="15" width="70" x="3465" y="-2635" />
<rect fill="#84A1AE" height="70" rx="15" width="70" x="3465" y="-3835" />
<rect fill="#84A1AE" height="70" rx="15" width="70" x="3565" y="-535" />
<rect fill="#84A1AE" height="70" rx="15" width="70" x="3565" y="-635" />
<rect fill="#84A1AE" height="70" rx="15" width="70" x="3565" y="-2435" />
<rect fill="#84A1AE" height="70" rx="15" width="70" x="3565" y="-3235" />
<rect fill="#84A1AE" height="70" rx="15" width="70" x="3565" y="-3835" />
<rect fill="#84A1AE" height="70" rx="15" width="70" x="3665" y="-535" />
<rect fill="#84A1AE" height="70" rx="15" width="70" x="3665" y="-2135" />
<rect fill="#84A1AE" height="70" rx="15" width="70" x="3665" y="-2835" />
<rect fill="#84A1AE" height="70" rx="15" width="70" x="3665" y="-3135" />
<rect fill="#84A1AE" height="70" rx="15" width="70" x="3665" y="-3735" />
<rect fill="#84A1AE" height="70" rx="15" width="70" x="3665" y="-3835" />
<rect fill="#84A1AE" height="70" rx="15" width="70" x="3765" y="-535" />
<rect fill="#84A1AE" height="70" rx="15" width="70" x="3765" y="-635" />
<rect fill="#84A1AE" height="70" rx="15" width="70" x="3765" y="-735" />
<rect fill="#84A1AE" height="70" rx="15" width="70" x="3765" y="-835" />
<rect fill="#84A1AE" height="70" rx="15" width="70" x="3765" y="-935" />
<rect fill="#84A1AE" height="70" rx="15" width="70" x="3765" y="-1035" />
<rect fill="#84A1AE" height="70" rx="15" width="70" x="3765" y="-1135" />
<rect fill="#84A1AE" height="70" rx="15" width="70" x="3765" y="-1235" />
<rect fill="#84A1AE" height="70" rx="15" width="70" x="3765" y="-1335" />
<rect fill="#84A1AE" height="70" rx="15" width="70" x="3765" y="-1435" />
<rect fill="#84A1AE" height="70" rx="15" width="70" x="3765" y="-1535" />
<rect fill="#84A1AE" height="70" rx="15" width="70" x="3765" y="-1635" />
<rect fill="#84A1AE" height="70" rx="15" width="70" x="3765" y="-1735" />
<rect fill="#84A1AE" height="70" rx="15" width="70" x="3765" y="-1835" />
<rect fill="#84A1AE" height="70" rx="15" width="70" x="3765" y="-1935" />
<rect fill="#84A1AE" height="70" rx="15" width="70" x="3765" y="-2035" />
<rect fill="#84A1AE" height="70" rx="15" width="70" x="3765" y="-2135" />
<rect fill="#84A1AE" height="70" rx="15" width="70" x="3765" y="-2235" />
<rect fill="#84A1AE" height="70" rx="15" width="70" x="3765" y="-2335" />
<rect fill="#84A1AE" height="70" rx="15" width="70" x="3765" y="-2435" />
<rect fill="#84A1AE" height="70" rx="15" width="70" x="3765" y="-2535" />
<rect fill="#84A1AE" height="70" rx="15" width="70" x="3765" y="-2635" />
<rect fill="#84A1AE" height="70" rx="15" width="70" x="3765" y="-2735" />
<rect fill="#84A1AE" height="70" rx="15" width="70" x="3765" y="-2835" />
<rect fill="#84A1AE" height="70" rx="15" width="70" x="3765" y="-2935" />
<rect fill="#84A1AE" height="70" rx="15" width="70" x="3765" y="-3035" />
<rect fill="#84A1AE" height="70" rx="15" width="70" x="3765" y="-3135" />
<rect fill="#84A1AE" height="70" rx="15" width="70" x="3765" y="-3235" />
<rect fill="#84A1AE" height="70" rx="15" width="70" x="3765" y="-3335" />
<rect fill="#84A1AE" height="70" rx="15" width="70" x="3765" y="-3435" />
<rect fill="#84A1AE" height="70" rx="15" width="70" x="3765" y="-3535" />
<rect fill="#84A1AE" height="70" rx="15" width="70" x="3765" y="-3635" />
<rect fill="#84A1AE" height="70" rx="15" width="70" x="3765" y="-3735" />
<rect fill="#84A1AE" height="70" rx="15" width="70" x="3765" y="-3835" />
<circle cx="2500" cy="-1400" fill="#c1433c" r="35"> <animate attributeName="cy" dur="137.48000000000002s" keyTimes="0.0;0.0020325203;0.0040650407;0.006097561;0.0081300813;0.0101626016;0.012195122;0.0142276423;0.0162601626;0.0182926829;0.0203252033;0.0223577236;0.0243902439;0.0264227642;0.0284552846;0.0304878049;0.0325203252;0.0345528455;0.0365853659;0.0386178862;0.0406504065;0.0426829268;0.0447154472;0.0467479675;0.0487804878;0.0508130081;0.0528455285;0.1036585366;0.1056910569;0.1077235772;0.1097560976;0.1138211382;0.1158536585;0.1178861789;0.1199186992;0.1219512195;0.1239837398;0.1260162602;0.1280487805;0.1300813008;0.1341463415;0.1361788618;0.1382113821;0.1402439024;0.1422764228;0.1443089431;0.1463414634;0.1483739837;0.1504065041;0.1524390244;0.1544715447;0.156504065;0.1585365854;0.1605691057;0.162601626;0.1646341463;0.1666666667;0.168699187;0.1707317073;0.1849593496;0.1869918699;0.1910569106;0.1930894309;0.1951219512;0.1971544715;0.2215447154;0.2235772358;0.2276422764;0.2296747967;0.2317073171;0.2337398374;0.2357723577;0.237804878;0.2398373984;0.2418699187;0.243902439;0.2459349593;0.2479674797;0.25;0.2520325203;0.2540650407;0.256097561;0.2581300813;0.2601626016;0.262195122;0.2642276423;0.2662601626;0.2682926829;0.2703252033;0.2723577236;0.2743902439;0.3353658537;0.337398374;0.3394308943;0.3414634146;0.343495935;0.3455284553;0.3475609756;0.3495934959;0.3516260163;0.3536585366;0.3556910569;0.3577235772;0.3597560976;0.3617886179;0.3638211382;0.3658536585;0.3678861789;0.3719512195;0.3739837398;0.3760162602;0.3780487805;0.3800813008;0.3821138211;0.3943089431;0.3963414634;0.3983739837;0.4004065041;0.4024390244;0.4044715447;0.4166666667;0.418699187;0.424796748;0.4268292683;0.4288617886;0.4308943089;0.4329268293;0.4349593496;0.4369918699;0.4390243902;0.4410569106;0.4430894309;0.4451219512;0.4471544715;0.4491869919;0.4512195122;0.4532520325;0.4654471545;0.4674796748;0.4695121951;0.4715447154;0.4735772358;0.4756097561;0.4918699187;0.493902439;0.4959349593;0.4979674797;0.5;0.5020325203;0.5040650407;0.506097561;0.5162601626;0.5182926829;0.5203252033;0.5223577236;0.5304878049;0.5325203252;0.5609756098;0.5630081301;0.5650406504;0.5670731707;0.5691056911;0.5711382114;0.5731707317;0.575203252;0.5772357724;0.581300813;0.5833333333;0.5914634146;0.593495935;0.5955284553;0.5975609756;0.5995934959;0.6016260163;0.6036585366;0.6158536585;0.6178861789;0.6219512195;0.6239837398;0.6260162602;0.6280487805;0.6300813008;0.6321138211;0.6341463415;0.6361788618;0.6382113821;0.6402439024;0.6422764228;0.6443089431;0.6463414634;0.6483739837;0.6504065041;0.6524390244;0.6544715447;0.656504065;0.6585365854;0.6707317073;0.6727642276;0.674796748;0.6768292683;0.6788617886;0.6808943089;0.6829268293;0.6849593496;0.6869918699;0.6890243902;0.6910569106;0.6930894309;0.7215447154;0.7235772358;0.7256097561;0.7276422764;0.7520325203;0.7540650407;0.7581300813;0.7601626016;0.762195122;0.7642276423;0.7662601626;0.7865853659;0.7886178862;0.7906504065;0.7987804878;0.8008130081;0.8028455285;0.8048780488;0.8109756098;0.8130081301;0.8150406504;0.8170731707;0.8191056911;0.8211382114;0.8231707317;0.825203252;0.8272357724;0.8292682927;0.831300813;0.8333333333;0.8353658537;0.837398374;0.8394308943;0.8414634146;0.843495935;0.8455284553;0.8495934959;0.8516260163;0.8536585366;0.8556910569;0.8577235772;0.8597560976;0.8617886179;0.8638211382;0.8658536585;0.8678861789;0.8699186992;0.8719512195;0.8739837398;0.8760162602;0.8780487805;0.8800813008;0.8821138211;0.8841463415;0.8861788618;0.8882113821;0.8902439024;0.8922764228;0.8943089431;0.8963414634;0.8983739837;0.9024390244;0.9044715447;0.906504065;0.912601626;0.9146341463;0.9166666667;0.918699187;0.9207317073;0.9227642276;0.924796748;0.9268292683;0.9288617886;0.9308943089;0.9329268293;0.9349593496;0.9369918699;0.9390243902;0.9410569106;0.9430894309;0.9451219512;0.9471544715;0.9491869919;0.9512195122;0.9532520325;0.9634146341;0.9654471545;0.9674796748;0.993902439;0.9959349593;1.0" repeatCount="indefinite" values="-1400;-1400;-1300;-1300;-1400;-1500;-1600;-1700;-1600;-1700;-1800;-1900;-2000;-2000;-2100;-2000;-2100;-2200;-2300;-2400;-2500;-2500;-2600;-2700;-2800;-2900;-3000;-3000;-2900;-2900;-2800;-2800;-2700;-2600;-2600;-2500;-2400;-2300;-2200;-2300;-2300;-2200;-2200;-2100;-2000;-1900;-1800;-1700;-1600;-1500;-1500;-1400;-1300;-1300;-1200;-1100;-1000;-900;-800;-800;-700;-700;-600;-600;-700;-700;-800;-800;-700;-600;-700;-600;-700;-600;-700;-600;-700;-600;-700;-600;-700;-600;-700;-600;-700;-800;-800;-900;-800;-700;-600;-600;-700;-700;-600;-700;-600;-700;-600;-700;-600;-700;-800;-700;-800;-700;-800;-700;-700;-800;-900;-800;-700;-600;-600;-700;-700;-600;-700;-600;-600;-700;-700;-800;-800;-900;-800;-900;-1000;-1100;-1200;-1300;-1400;-1400;-1500;-1600;-1700;-1700;-1800;-1900;-2000;-2100;-2200;-2200;-2300;-2300;-2400;-2500;-2500;-2600;-2700;-2700;-2800;-2800;-2700;-2700;-2800;-2800;-2700;-2600;-2600;-2500;-2400;-2500;-2500;-2600;-2600;-2700;-2700;-2600;-2600;-2500;-2600;-2500;-2400;-2400;-2300;-2300;-2200;-2300;-2300;-2400;-2400;-2500;-2400;-2400;-2300;-2400;-2300;-2200;-2100;-2000;-1900;-1800;-1900;-2000;-2000;-1900;-2000;-2100;-2200;-2300;-2400;-2500;-2500;-2600;-2700;-2800;-2800;-2900;-3000;-3100;-3100;-3200;-3200;-3300;-3400;-3500;-3600;-3600;-3500;-3600;-3600;-3500;-3500;-3600;-3600;-3700;-3700;-3600;-3600;-3500;-3500;-3400;-3300;-3200;-3300;-3200;-3100;-3000;-2900;-2800;-2700;-2600;-2600;-2700;-2600;-2600;-2500;-2400;-2500;-2400;-2400;-2300;-2200;-2100;-2000;-1900;-1800;-1700;-1600;-1500;-1400;-1300;-1200;-1100;-1000;-900;-800;-800;-700;-800;-800;-900;-1000;-1000;-1100;-1200;-1300;-1400;-1500;-1400;-1500;-1600;-1700;-1700;-1800;-1900;-2000;-2100;-2200;-2300;-2400;-2400;-2300;-2200;-2200;-2300;-2300"/>
<animate attributeName="cx" dur="137.48000000000002s" keyTimes="0.0;0.0020325203;0.0040650407;0.006097561;0.0243902439;0.0264227642;0.0406504065;0.0426829268;0.0528455285;0.0548780488;0.0569105691;0.0589430894;0.0609756098;0.0630081301;0.0650406504;0.0670731707;0.0691056911;0.0711382114;0.0731707317;0.075203252;0.0772357724;0.0792682927;0.081300813;0.0833333333;0.0853658537;0.087398374;0.0894308943;0.0914634146;0.093495935;0.0955284553;0.0975609756;0.0995934959;0.1016260163;0.1097560976;0.1117886179;0.1138211382;0.1178861789;0.1199186992;0.1300813008;0.1321138211;0.1341463415;0.1524390244;0.1544715447;0.1585365854;0.1605691057;0.1707317073;0.1727642276;0.174796748;0.1768292683;0.1788617886;0.1808943089;0.1829268293;0.1849593496;0.1869918699;0.1890243902;0.1910569106;0.2032520325;0.2052845528;0.2073170732;0.2093495935;0.2113821138;0.2134146341;0.2154471545;0.2174796748;0.2195121951;0.2215447154;0.2235772358;0.2256097561;0.2276422764;0.2642276423;0.2662601626;0.2743902439;0.2764227642;0.2784552846;0.2804878049;0.2825203252;0.2845528455;0.2865853659;0.2886178862;0.2906504065;0.2926829268;0.2947154472;0.2967479675;0.2987804878;0.3008130081;0.3028455285;0.3048780488;0.3069105691;0.3089430894;0.3109756098;0.3130081301;0.3150406504;0.3170731707;0.3191056911;0.3211382114;0.3231707317;0.325203252;0.3272357724;0.3292682927;0.331300813;0.3333333333;0.3353658537;0.337398374;0.3394308943;0.3678861789;0.3699186992;0.3821138211;0.3841463415;0.3861788618;0.3882113821;0.3902439024;0.3922764228;0.3943089431;0.3963414634;0.3983739837;0.406504065;0.4085365854;0.4105691057;0.4146341463;0.4166666667;0.418699187;0.4207317073;0.4227642276;0.424796748;0.4268292683;0.4288617886;0.4451219512;0.4471544715;0.4552845528;0.4573170732;0.4593495935;0.4613821138;0.4634146341;0.4654471545;0.4756097561;0.4776422764;0.4796747967;0.4817073171;0.4837398374;0.4857723577;0.487804878;0.4898373984;0.4918699187;0.493902439;0.4959349593;0.506097561;0.5081300813;0.5101626016;0.512195122;0.5142276423;0.5162601626;0.5182926829;0.5203252033;0.5223577236;0.5243902439;0.5264227642;0.5284552846;0.5304878049;0.5325203252;0.5345528455;0.5365853659;0.5386178862;0.5406504065;0.5426829268;0.5447154472;0.5467479675;0.5487804878;0.5508130081;0.5528455285;0.5548780488;0.5569105691;0.5589430894;0.5609756098;0.5650406504;0.5670731707;0.5731707317;0.575203252;0.5772357724;0.5792682927;0.5833333333;0.5853658537;0.587398374;0.5894308943;0.5914634146;0.593495935;0.5955284553;0.6036585366;0.6056910569;0.6077235772;0.6097560976;0.6117886179;0.6138211382;0.6158536585;0.6199186992;0.6219512195;0.6260162602;0.6280487805;0.6300813008;0.6321138211;0.6361788618;0.6382113821;0.6585365854;0.6605691057;0.662601626;0.6646341463;0.6666666667;0.668699187;0.6707317073;0.6849593496;0.6869918699;0.6930894309;0.6951219512;0.6971544715;0.6991869919;0.7012195122;0.7032520325;0.7052845528;0.7073170732;0.7093495935;0.7113821138;0.7134146341;0.7154471545;0.7174796748;0.7195121951;0.7215447154;0.7276422764;0.7296747967;0.7317073171;0.75;0.7520325203;0.756097561;0.7581300813;0.7662601626;0.7682926829;0.7703252033;0.7723577236;0.7743902439;0.7764227642;0.7784552846;0.7804878049;0.7825203252;0.7845528455;0.7865853659;0.7906504065;0.7926829268;0.7947154472;0.7967479675;0.7987804878;0.8008130081;0.8028455285;0.8048780488;0.8069105691;0.8089430894;0.8109756098;0.8170731707;0.8191056911;0.8211382114;0.8231707317;0.8455284553;0.8475609756;0.8495934959;0.8536585366;0.8556910569;0.8638211382;0.8658536585;0.8983739837;0.9004065041;0.9024390244;0.906504065;0.9085365854;0.9105691057;0.912601626;0.9166666667;0.918699187;0.9369918699;0.9390243902;0.9532520325;0.9552845528;0.9573170732;0.9593495935;0.9613821138;0.9634146341;0.9674796748;0.9695121951;0.9715447154;0.9735772358;0.9756097561;0.9776422764;0.9796747967;0.9817073171;0.9837398374;0.9857723577;0.987804878;0.9898373984;0.9918699187;0.993902439;0.9959349593;0.9979674797;1.0" repeatCount="indefinite" values="2500;2500;2500;2600;2600;2700;2700;2800;2800;2900;3000;3100;3200;3300;3400;3500;3400;3300;3200;3100;3000;2900;2800;2700;2700;2600;2500;2500;2400;2300;2200;2100;2000;2000;1900;1800;1800;1900;1900;1800;1900;1900;2000;2000;2100;2100;2200;2200;2100;2200;2300;2200;2300;2300;2400;2500;2500;2400;2500;2400;2500;2400;2500;2400;2500;2400;2400;2300;2200;2200;2100;2100;2200;2300;2400;2300;2400;2300;2400;2300;2400;2300;2400;2300;2400;2300;2400;2300;2400;2300;2400;2300;2400;2300;2400;2300;2400;2300;2400;2300;2400;2300;2300;2200;2200;2100;2100;2200;2300;2400;2300;2400;2300;2300;2400;2400;2500;2600;2600;2500;2500;2400;2300;2200;2200;2100;2100;2000;2000;1900;1800;1700;1800;1900;1900;1800;1700;1600;1500;1400;1300;1200;1100;1100;1200;1200;1300;1400;1500;1600;1700;1700;1800;1800;1900;2000;2100;2200;2200;2300;2400;2500;2600;2700;2800;2900;3000;3100;3200;3300;3400;3500;3600;3600;3700;3700;3600;3600;3700;3700;3600;3500;3400;3300;3300;3200;3200;3100;3000;2900;2800;2700;2600;2600;2700;2700;2600;2600;2500;2500;2400;2400;2500;2600;2700;2800;2900;3000;3000;2900;2900;2800;2700;2600;2500;2400;2300;2200;2100;2000;1900;1800;1700;1600;1700;1700;1800;1900;1900;2000;2000;2100;2100;2200;2200;2300;2400;2500;2600;2700;2800;2900;3000;3000;3100;3200;3100;3000;3000;2900;2900;3000;2900;3000;3000;2900;2900;2800;2800;2700;2600;2600;2700;2700;2600;2600;2500;2400;2400;2300;2200;2100;2100;2000;2000;1900;1900;1800;1700;1600;1500;1600;1600;1700;1800;1900;1800;1900;2000;2100;2200;2300;2400;2500;2600;2700;2700;2800;2800"/>
<animate attributeName="visibility" dur="137.48000000000002s" keyTimes="0.0;0.0020325203;1.0" repeatCount="indefinite" values="visible;visible;visible"/> </circle>
<circle cx="3000" cy="-1900" fill="#2e6f9e" r="35"> <animate attributeName="cy" dur="137.48000000000002s" keyTimes="0.0;0.0020325203;0.0040650407;0.006097561;0.0081300813;0.0101626016;0.012195122;0.0142276423;0.0162601626;0.0182926829;0.0203252033;0.0223577236;0.0467479675;0.0487804878;0.0589430894;0.0609756098;0.0630081301;0.0650406504;0.0670731707;0.0691056911;0.0711382114;0.0731707317;0.075203252;0.0772357724;0.0792682927;0.081300813;0.0853658537;0.087398374;0.0894308943;0.093495935;0.0955284553;0.0975609756;0.0995934959;0.1016260163;0.1036585366;0.1056910569;0.1077235772;0.1097560976;0.1117886179;0.1138211382;0.1158536585;0.1178861789;0.1199186992;0.1219512195;0.1239837398;0.1260162602;0.1300813008;0.1321138211;0.1341463415;0.1382113821;0.1402439024;0.1422764228;0.1443089431;0.1463414634;0.1483739837;0.1504065041;0.1524390244;0.1544715447;0.156504065;0.1849593496;0.1869918699;0.1890243902;0.1910569106;0.1930894309;0.1951219512;0.1971544715;0.1991869919;0.2012195122;0.2032520325;0.2052845528;0.2073170732;0.2093495935;0.2113821138;0.2134146341;0.2154471545;0.2174796748;0.2195121951;0.2215447154;0.2235772358;0.2256097561;0.2276422764;0.2296747967;0.2317073171;0.2337398374;0.2357723577;0.237804878;0.2398373984;0.2418699187;0.243902439;0.2459349593;0.2479674797;0.25;0.2520325203;0.2540650407;0.256097561;0.2581300813;0.2601626016;0.262195122;0.2642276423;0.2682926829;0.2703252033;0.2764227642;0.2784552846;0.2804878049;0.2825203252;0.2845528455;0.2865853659;0.2886178862;0.2906504065;0.2926829268;0.3008130081;0.3028455285;0.3048780488;0.3069105691;0.3191056911;0.3211382114;0.3231707317;0.3394308943;0.3414634146;0.343495935;0.3455284553;0.3475609756;0.3495934959;0.3516260163;0.3536585366;0.3556910569;0.3577235772;0.3597560976;0.3617886179;0.3638211382;0.3658536585;0.3678861789;0.3699186992;0.3719512195;0.3739837398;0.3760162602;0.3780487805;0.3902439024;0.3922764228;0.4004065041;0.4024390244;0.4369918699;0.4390243902;0.4410569106;0.4430894309;0.4451219512;0.4471544715;0.4491869919;0.4512195122;0.4532520325;0.4552845528;0.4573170732;0.4593495935;0.4613821138;0.4634146341;0.4654471545;0.4674796748;0.4695121951;0.4715447154;0.4735772358;0.4756097561;0.4776422764;0.4796747967;0.4817073171;0.4837398374;0.4857723577;0.4918699187;0.493902439;0.4959349593;0.4979674797;0.5;0.5020325203;0.5040650407;0.506097561;0.5081300813;0.5162601626;0.5182926829;0.5203252033;0.5223577236;0.5243902439;0.5264227642;0.5284552846;0.5304878049;0.5325203252;0.5345528455;0.5365853659;0.5386178862;0.5426829268;0.5447154472;0.5467479675;0.5487804878;0.5508130081;0.5528455285;0.5548780488;0.5569105691;0.5589430894;0.5609756098;0.5630081301;0.5650406504;0.5670731707;0.5691056911;0.5711382114;0.5731707317;0.575203252;0.5772357724;0.5792682927;0.581300813;0.5833333333;0.587398374;0.5894308943;0.5914634146;0.593495935;0.5955284553;0.5995934959;0.6016260163;0.6036585366;0.6056910569;0.6077235772;0.6117886179;0.6138211382;0.6178861789;0.6199186992;0.6219512195;0.6239837398;0.6260162602;0.6280487805;0.6300813008;0.6382113821;0.6402439024;0.6422764228;0.656504065;0.6585365854;0.6788617886;0.6808943089;0.7032520325;0.7052845528;0.7073170732;0.7235772358;0.7256097561;0.7276422764;0.7296747967;0.7317073171;0.7337398374;0.7357723577;0.737804878;0.7398373984;0.7418699187;0.743902439;0.7459349593;0.7479674797;0.75;0.7520325203;0.7540650407;0.756097561;0.7581300813;0.7601626016;0.762195122;0.7642276423;0.7662601626;0.7682926829;0.7703252033;0.7723577236;0.7743902439;0.7764227642;0.7784552846;0.7804878049;0.7825203252;0.7845528455;0.7865853659;0.7906504065;0.7926829268;0.7947154472;0.7987804878;0.8008130081;0.8028455285;0.8089430894;0.8109756098;0.8130081301;0.8150406504;0.8170731707;0.8272357724;0.8292682927;0.831300813;0.8333333333;0.8353658537;0.837398374;0.8516260163;0.8536585366;0.8556910569;0.8577235772;0.8638211382;0.8658536585;0.8678861789;0.8699186992;0.8719512195;0.8739837398;0.8760162602;0.8780487805;0.8800813008;0.8821138211;0.8841463415;0.8861788618;0.8882113821;0.8902439024;0.8922764228;0.8943089431;0.8963414634;0.8983739837;0.9004065041;0.9044715447;0.906504065;0.9085365854;0.9105691057;0.912601626;0.9166666667;0.918699187;0.9207317073;0.9308943089;0.9329268293;0.9349593496;0.9369918699;0.9390243902;0.9410569106;0.9430894309;0.9451219512;0.9471544715;0.9491869919;0.9512195122;0.9532520325;0.9552845528;0.9573170732;0.9593495935;0.9695121951;0.9715447154;0.9918699187;0.993902439;0.9959349593;0.9979674797;1.0" repeatCount="indefinite" values="-1900;-1900;-1900;-2000;-2100;-2200;-2300;-2400;-2400;-2500;-2500;-2600;-2600;-2500;-2500;-2400;-2300;-2200;-2100;-2000;-1900;-1900;-1800;-1700;-1600;-1500;-1500;-1400;-1300;-1300;-1200;-1300;-1400;-1500;-1600;-1700;-1800;-1900;-2000;-2100;-2200;-2300;-2400;-2500;-2600;-2700;-2700;-2800;-2900;-2900;-3000;-3100;-3200;-3300;-3400;-3500;-3600;-3600;-3700;-3700;-3600;-3600;-3500;-3400;-3300;-3200;-3100;-3000;-2900;-2800;-2700;-2600;-2500;-2400;-2300;-2200;-2100;-2000;-1900;-1800;-1700;-1600;-1700;-1800;-1900;-2000;-2100;-2200;-2300;-2400;-2500;-2600;-2700;-2800;-2900;-3000;-3100;-3100;-3200;-3200;-3100;-3100;-3000;-3000;-2900;-2900;-2800;-2700;-2700;-2600;-2600;-2500;-2500;-2400;-2400;-2300;-2200;-2200;-2100;-2000;-1900;-1800;-1700;-1600;-1500;-1400;-1300;-1200;-1100;-1000;-900;-800;-700;-800;-900;-1000;-1100;-1100;-1200;-1200;-1300;-1300;-1200;-1100;-1000;-900;-900;-800;-700;-600;-700;-800;-900;-900;-1000;-1000;-1100;-1100;-1200;-1200;-1300;-1300;-1400;-1500;-1500;-1600;-1600;-1700;-1800;-1800;-1900;-2000;-2100;-2100;-2200;-2200;-2300;-2300;-2400;-2400;-2300;-2200;-2100;-2000;-1900;-1900;-1800;-1800;-1900;-2000;-2100;-2200;-2300;-2400;-2500;-2600;-2700;-2700;-2800;-2900;-3000;-3100;-3200;-3300;-3400;-3500;-3600;-3700;-3700;-3600;-3500;-3500;-3400;-3400;-3300;-3200;-3200;-3100;-3100;-3000;-3000;-2900;-2800;-2800;-2700;-2700;-2600;-2600;-2500;-2400;-2400;-2500;-2500;-2400;-2400;-2300;-2200;-2200;-2100;-2000;-1900;-1800;-1700;-1600;-1500;-1400;-1300;-1200;-1100;-1000;-900;-1000;-1100;-1200;-1300;-1400;-1500;-1600;-1700;-1800;-1900;-2000;-2100;-2200;-2300;-2400;-2500;-2600;-2700;-2700;-2800;-2900;-2900;-3000;-3100;-3100;-3200;-3200;-3300;-3400;-3400;-3300;-3200;-3100;-3200;-3300;-3300;-3200;-3200;-3100;-3100;-3000;-2900;-2900;-2800;-2700;-2600;-2500;-2400;-2500;-2600;-2700;-2800;-2900;-2900;-3000;-3100;-3200;-3300;-3300;-3200;-3100;-3000;-2900;-2900;-2800;-2700;-2700;-2600;-2500;-2400;-2300;-2200;-2100;-2000;-2100;-2200;-2300;-2400;-2500;-2600;-2700;-2700;-2800;-2800;-2700;-2600;-2500;-2500"/>
<animate attributeName="cx" dur="137.48000000000002s" keyTimes="0.0;0.0020325203;0.0040650407;0.0142276423;0.0162601626;0.0182926829;0.0203252033;0.0223577236;0.0243902439;0.0264227642;0.0284552846;0.0304878049;0.0325203252;0.0345528455;0.0365853659;0.0386178862;0.0406504065;0.0426829268;0.0447154472;0.0467479675;0.0487804878;0.0508130081;0.0528455285;0.0548780488;0.0569105691;0.0589430894;0.0711382114;0.0731707317;0.081300813;0.0833333333;0.0853658537;0.0894308943;0.0914634146;0.093495935;0.1260162602;0.1280487805;0.1300813008;0.1341463415;0.1361788618;0.1382113821;0.1524390244;0.1544715447;0.156504065;0.1585365854;0.1605691057;0.162601626;0.1646341463;0.1666666667;0.168699187;0.1707317073;0.1727642276;0.174796748;0.1768292683;0.1788617886;0.1808943089;0.1829268293;0.1849593496;0.1869918699;0.1890243902;0.2601626016;0.262195122;0.2642276423;0.2662601626;0.2682926829;0.2703252033;0.2723577236;0.2743902439;0.2764227642;0.2784552846;0.2804878049;0.2825203252;0.2845528455;0.2886178862;0.2906504065;0.2926829268;0.2947154472;0.2967479675;0.2987804878;0.3008130081;0.3028455285;0.3048780488;0.3069105691;0.3089430894;0.3109756098;0.3130081301;0.3150406504;0.3170731707;0.3191056911;0.3231707317;0.325203252;0.3272357724;0.3292682927;0.331300813;0.3333333333;0.3353658537;0.337398374;0.3394308943;0.3780487805;0.3800813008;0.3821138211;0.3841463415;0.3861788618;0.3882113821;0.3902439024;0.3922764228;0.3943089431;0.3963414634;0.3983739837;0.4004065041;0.4024390244;0.4044715447;0.406504065;0.4085365854;0.4105691057;0.412601626;0.4146341463;0.4166666667;0.418699187;0.4207317073;0.4227642276;0.424796748;0.4268292683;0.4288617886;0.4308943089;0.4329268293;0.4349593496;0.4369918699;0.4451219512;0.4471544715;0.4593495935;0.4613821138;0.4634146341;0.4654471545;0.4674796748;0.4695121951;0.4715447154;0.4735772358;0.4756097561;0.4776422764;0.4817073171;0.4837398374;0.4857723577;0.487804878;0.4898373984;0.4918699187;0.4959349593;0.4979674797;0.5040650407;0.506097561;0.5081300813;0.5101626016;0.512195122;0.5142276423;0.5162601626;0.5182926829;0.5203252033;0.5223577236;0.5243902439;0.5345528455;0.5365853659;0.5386178862;0.5406504065;0.5426829268;0.5609756098;0.5630081301;0.5833333333;0.5853658537;0.587398374;0.5914634146;0.593495935;0.5955284553;0.5975609756;0.5995934959;0.6036585366;0.6056910569;0.6077235772;0.6097560976;0.6117886179;0.6138211382;0.6158536585;0.6178861789;0.6219512195;0.6239837398;0.6260162602;0.6280487805;0.6300813008;0.6321138211;0.6341463415;0.6361788618;0.6382113821;0.6422764228;0.6443089431;0.6463414634;0.6483739837;0.6504065041;0.6524390244;0.6544715447;0.656504065;0.6585365854;0.6605691057;0.662601626;0.6646341463;0.6666666667;0.668699187;0.6707317073;0.6727642276;0.674796748;0.6768292683;0.6788617886;0.6808943089;0.6829268293;0.6849593496;0.6869918699;0.6890243902;0.6910569106;0.6930894309;0.6951219512;0.6971544715;0.6991869919;0.7012195122;0.7032520325;0.7073170732;0.7093495935;0.7113821138;0.7134146341;0.7154471545;0.7174796748;0.7195121951;0.7215447154;0.7235772358;0.7865853659;0.7886178862;0.7906504065;0.7947154472;0.7967479675;0.7987804878;0.8028455285;0.8048780488;0.8069105691;0.8089430894;0.8109756098;0.8130081301;0.8170731707;0.8191056911;0.8211382114;0.8231707317;0.825203252;0.8272357724;0.837398374;0.8394308943;0.8414634146;0.843495935;0.8455284553;0.8475609756;0.8495934959;0.8516260163;0.8536585366;0.8556910569;0.8577235772;0.8597560976;0.8617886179;0.8638211382;0.8678861789;0.8699186992;0.8902439024;0.8922764228;0.9004065041;0.9024390244;0.9044715447;0.912601626;0.9146341463;0.9166666667;0.9207317073;0.9227642276;0.924796748;0.9268292683;0.9288617886;0.9308943089;0.9593495935;0.9613821138;0.9634146341;0.9654471545;0.9674796748;0.9695121951;0.9715447154;0.9735772358;0.9756097561;0.9776422764;0.9796747967;0.9817073171;0.9837398374;0.9857723577;0.987804878;0.9898373984;0.9918699187;1.0" repeatCount="indefinite" values="3000;3000;2900;2900;2800;2800;2700;2700;2600;2500;2400;2300;2200;2100;2000;1900;1800;1700;1600;1500;1500;1400;1300;1200;1100;1000;1000;900;900;1000;1100;1100;1200;1300;1300;1400;1500;1500;1600;1700;1700;1800;1800;1900;2000;2100;2200;2300;2400;2500;2400;2300;2200;2100;2000;1900;1800;1800;1700;1700;1600;1600;1700;1800;1800;1900;2000;2100;2100;2200;2200;2300;2300;2400;2400;2500;2600;2700;2800;2800;2700;2700;2600;2500;2400;2300;2200;2100;2100;2000;1900;1800;1700;1600;1500;1400;1300;1300;1400;1500;1600;1700;1800;1900;1900;2000;2100;2200;2300;2300;2400;2500;2600;2700;2800;2900;3000;3100;3200;3300;3400;3500;3600;3700;3600;3500;3400;3400;3300;3300;3200;3200;3100;3100;3000;3000;2900;2900;2800;2800;2700;2700;2600;2500;2400;2400;2300;2300;2200;2200;2100;2000;1900;1800;1800;1700;1700;1600;1600;1500;1500;1400;1300;1300;1200;1200;1300;1400;1400;1500;1500;1600;1700;1700;1800;1800;1900;2000;2000;2100;2200;2200;2300;2300;2400;2400;2500;2500;2600;2500;2500;2600;2700;2800;2900;3000;3100;3200;3200;3300;3400;3500;3600;3700;3600;3500;3400;3300;3200;3200;3100;3000;2900;2800;2700;2600;2500;2400;2300;2200;2100;2100;2000;1900;1800;1700;1600;1500;1400;1300;1300;1400;1500;1500;1600;1700;1700;1800;1900;2000;2000;2100;2100;2200;2300;2400;2300;2200;2200;2300;2400;2500;2400;2300;2200;2100;2100;2000;2000;1900;1800;1700;1700;1600;1600;1700;1700;1800;1700;1700;1600;1500;1500;1400;1300;1200;1100;1000;1000;1100;1200;1300;1400;1500;1500;1600;1700;1800;1900;2000;1900;1800;1700;1600;1500;1500"/>
<animate attributeName="visibility" dur="137.48000000000002s" keyTimes="0.0;0.0020325203;1.0" repeatCount="indefinite" values="visible;visible;visible"/> </circle>
<circle cx="3500" cy="-3000" fill="none" r="35" stroke="#c1433c" stroke-width="10"> <animate attributeName="cy" dur="137.48000000000002s" keyTimes="0.0;0.0020325203;0.0650406504;0.0670731707;0.1077235772;0.1097560976;0.168699187;0.1707317073;0.4085365854;0.4105691057;0.4674796748;0.4695121951;0.493902439;0.4959349593;0.581300813;0.5833333333;0.6524390244;0.6544715447;0.6707317073;0.6727642276;0.7174796748;0.7195121951;0.8109756098;0.8130081301;0.825203252;0.8272357724;0.9024390244;0.9044715447;0.9593495935;0.9613821138;0.9654471545;0.9674796748;1.0" repeatCount="indefinite" values="-3000;-3000;-3000;-2800;-2800;-800;-800;-600;-600;-1900;-1900;-2300;-2300;-2700;-2700;-1800;-1800;-1900;-1900;-2800;-2800;-3700;-3700;-3300;-3300;-700;-700;-2400;-2400;-2200;-2200;-2300;-2300"/>
<animate attributeName="cx" dur="137.48000000000002s" keyTimes="0.0;0.0020325203;0.0650406504;0.0670731707;0.1077235772;0.1097560976;0.168699187;0.1707317073;0.4085365854;0.4105691057;0.4674796748;0.4695121951;0.493902439;0.4959349593;0.581300813;0.5833333333;0.6524390244;0.6544715447;0.6707317073;0.6727642276;0.7174796748;0.7195121951;0.8109756098;0.8130081301;0.825203252;0.8272357724;0.9024390244;0.9044715447;0.9593495935;0.9613821138;0.9654471545;0.9674796748;1.0" repeatCount="indefinite" values="3500;3500;3500;2000;2000;2100;2100;2600;2600;1900;1900;1200;1200;3700;3700;2400;2400;3000;3000;1600;1600;3000;3000;2800;2800;2400;2400;1500;1500;1600;1600;3400;3400"/>
<animate attributeName="visibility" dur="137.48000000000002s" keyTimes="0.0;0.0020325203;1.0" repeatCount="indefinite" values="visible;visible;visible"/> </circle>
<circle cx="2600" cy="-2600" fill="none" r="35" stroke="#2e6f9e" stroke-width="10"> <animate attributeName="cy" dur="137.48000000000002s" keyTimes="0.0;0.0020325203;0.0223577236;0.0243902439;0.081300813;0.0833333333;0.093495935;0.0955284553;0.168699187;0.1707317073;0.2276422764;0.2296747967;0.262195122;0.2642276423;0.3008130081;0.3028455285;0.3678861789;0.3699186992;0.4288617886;0.4308943089;0.4512195122;0.4532520325;0.5203252033;0.5223577236;0.5386178862;0.5406504065;0.5833333333;0.5853658537;0.6666666667;0.668699187;0.7479674797;0.75;0.8211382114;0.8231707317;0.831300813;0.8333333333;0.8414634146;0.843495935;0.8780487805;0.8800813008;0.9004065041;0.9024390244;0.9430894309;0.9451219512;0.9796747967;0.9817073171;1.0" repeatCount="indefinite" values="-2600;-2600;-2600;-1500;-1500;-1200;-1200;-3700;-3700;-1600;-1600;-3200;-3200;-2500;-2500;-700;-700;-1300;-1300;-600;-600;-2400;-2400;-1800;-1800;-3700;-3700;-2500;-2500;-900;-900;-3400;-3400;-3100;-3100;-3300;-3300;-2400;-2400;-3300;-3300;-2000;-2000;-2800;-2800;-2100;-2100"/>
<animate attributeName="cx" dur="137.48000000000002s" keyTimes="0.0;0.0020325203;0.0223577236;0.0243902439;0.081300813;0.0833333333;0.093495935;0.0955284553;0.168699187;0.1707317073;0.2276422764;0.2296747967;0.262195122;0.2642276423;0.3008130081;0.3028455285;0.3678861789;0.3699186992;0.4288617886;0.4308943089;0.4512195122;0.4532520325;0.5203252033;0.5223577236;0.5386178862;0.5406504065;0.5833333333;0.5853658537;0.6382113821;0.6402439024;0.6666666667;0.668699187;0.7479674797;0.75;0.8211382114;0.8231707317;0.831300813;0.8333333333;0.8414634146;0.843495935;0.8780487805;0.8800813008;0.9004065041;0.9024390244;0.9430894309;0.9451219512;0.9796747967;0.9817073171;1.0" repeatCount="indefinite" values="2600;2600;2600;1000;1000;1300;1300;2500;2500;1700;1700;1600;1600;2800;2800;1300;1300;3700;3700;3300;3300;1700;1700;1400;1400;1300;1300;2500;2500;3700;3700;1300;1300;2400;2400;2200;2200;2500;2500;1600;1600;1800;1800;1000;1000;2000;2000;1500;1500"/>
<animate attributeName="visibility" dur="137.48000000000002s" keyTimes="0.0;0.0020325203;1.0" repeatCount="indefinite" values="visible;visible;visible"/> </circle>
</svg>