<?xml version="1.0" encoding="UTF-8"?>
        <svg xmlns="http://www.w3.org/2000/svg" xmlns:xlink="http://www.w3.org/1999/xlink"
             width="430" height="430" viewBox="0 -4300 4300 4300">

<defs>

</defs>

<rect fill="#84A1AE" height="70" rx="15" width="70" x="465" y="-535" />
<rect fill="#84A1AE" height="70" rx="15" width="70" x="465" y="-635" />
<rect fill="#84A1AE" height="70" rx="15" width="70" x="465" y="-735" />
<rect fill="#84A1AE" height="70" rx="15" width="70" x="465" y="-835" />
<rect fill="#84A1AE" height="70" rx="15" width="70" x="465" y="-935" />
<rect fill="#84A1AE" height="70" rx="15" width="70" x="465" y="-1035" />
<rect fill="#84A1AE" height="70" rx="15" width="70" x="465" y="-1135" />
<rect fill="#84A1AE" height="70" rx="15" width="70" x="465" y="-1235" />
<rect fill="#84A1AE" height="70" rx="15" width="70" x="465" y="-1335" />
<rect fill="#84A1AE" height="70" rx="15" width="70" x="465" y="-1435" />
<rect fill="#84A1AE" height="70" rx="15" width="70" x="465" y="-1535" />
<rect fill="#84A1AE" height="70" rx="15" width="70" x="465" y="-1635" />
<rect fill="#84A1AE" height="70" rx="15" width="70" x="465" y="-1735" />
<rect fill="#84A1AE" height="70" rx="15" width="70" x="465" y="-1835" />
<rect fill="#84A1AE" height="70" rx="15" width="70" x="465" y="-1935" />
<rect fill="#84A1AE" height="70" rx="15" width="70" x="465" y="-2035" />
<rect fill="#84A1AE" height="70" rx="15" width="70" x="465" y="-2135" />
<rect fill="#84A1AE" height="70" rx="15" width="70" x="465" y="-2235" />
<rect fill="#84A1AE" height="70" rx="15" width="70" x="465" y="-2335" />
<rect fill="#84A1AE" height="70" rx="15" width="70" x="465" y="-2435" />
<rect fill="#84A1AE" height="70" rx="15" width="70" x="465" y="-2535" />
<rect fill="#84A1AE" height="70" rx="15" width="70" x="465" y="-2635" />
<rect fill="#84A1AE" height="70" rx="15" width="70" x="465" y="-2735" />
<rect fill="#84A1AE" height="70" rx="15" width="70" x="465" y="-2835" />
<rect fill="#84A1AE" height="70" rx="15" width="70" x="465" y="-2935" />
<rect fill="#84A1AE" height="70" rx="15" width="70" x="465" y="-3035" />
<rect fill="#84A1AE" height="70" rx="15" width="70" x="465" y="-3135" />
<rect fill="#84A1AE" height="70" rx="15" width="70" x="465" y="-3235" />
<rect fill="#84A1AE" height="70" rx="15" width="70" x="465" y="-3335" />
<rect fill="#84A1AE" height="70" rx="15" width="70" x="465" y="-3435" />
<rect fill="#84A1AE" height="70" rx="15" width="70" x="465" y="-3535" />
<rect fill="#84A1AE" height="70" rx="15" width="70" x="465" y="-3635" />
<rect fill="#84A1AE" height="70" rx="15" width="70" x="465" y="-3735" />
<rect fill="#84A1AE" height="70" rx="15" width="70" x="465" y="-3835" />
<rect fill="#84A1AE" height="70" rx="15" width="70" x="565" y="-535" />
<rect fill="#84A1AE" height="70" rx="15" width="70" x="565" y="-1635" />
<rect fill="#84A1AE" height="70" rx="15" width="70" x="565" y="-1935" />
<rect fill="#84A1AE" height="70" rx="15" width="70" x="565" y="-2735" />
<rect fill="#84A1AE" height="70" rx="15" width="70" x="565" y="-3835" />
<rect fill="#84A1AE" height="70" rx="15" width="70" x="665" y="-535" />
<rect fill="#84A1AE" height="70" rx="15" width="70" x="665" y="-1035" />
<rect fill="#84A1AE" height="70" rx="15" width="70" x="665" y="-2535" />
<rect fill="#84A1AE" height="70" rx="15" width="70" x="665" y="-3035" />
<rect fill="#84A1AE" height="70" rx="15" width="70" x="665" y="-3235" />
<rect fill="#84A1AE" height="70" rx="15" width="70" x="665" y="-3835" />
<rect fill="#84A1AE" height="70" rx="15" width="70" x="765" y="-535" />
<rect fill="#84A1AE" height="70" rx="15" width="70" x="765" y="-635" />
<rect fill="#84A1AE" height="70" rx="15" width="70" x="765" y="-3835" />
<rect fill="#84A1AE" height="70" rx="15" width="70" x="865" y="-535" />
<rect fill="#84A1AE" height="70" rx="15" width="70" x="865" y="-2435" />
<rect fill="#84A1AE" height="70" rx="15" width="70" x="865" y="-2535" />
<rect fill="#84A1AE" height="70" rx="15" width="70" x="865" y="-3335" />
<rect fill="#84A1AE" height="70" rx="15" width="70" x="865" y="-3435" />
<rect fill="#84A1AE" height="70" rx="15" width="70" x="865" y="-3835" />
<rect fill="#84A1AE" height="70" rx="15" width="70" x="965" y="-535" />
<rect fill="#84A1AE" height="70" rx="15" width="70" x="965" y="-735" />
<rect fill="#84A1AE" height="70" rx="15" width="70" x="965" y="-1635" />
<rect fill="#84A1AE" height="70" rx="15" width="70" x="965" y="-1835" />
<rect fill="#84A1AE" height="70" rx="15" width="70" x="965" y="-2835" />
<rect fill="#84A1AE" height="70" rx="15" width="70" x="965" y="-3435" />
<rect fill="#84A1AE" height="70" rx="15" width="70" x="965" y="-3835" />
<rect fill="#84A1AE" height="70" rx="15" width="70" x="1065" y="-535" />
<rect fill="#84A1AE" height="70" rx="15" width="70" x="1065" y="-1135" />
<rect fill="#84A1AE" height="70" rx="15" width="70" x="1065" y="-1835" />
<rect fill="#84A1AE" height="70" rx="15" width="70" x="1065" y="-3735" />
<rect fill="#84A1AE" height="70" rx="15" width="70" x="1065" y="-3835" />
<rect fill="#84A1AE" height="70" rx="15" width="70" x="1165" y="-535" />
<rect fill="#84A1AE" height="70" rx="15" width="70" x="1165" y="-635" />
<rect fill="#84A1AE" height="70" rx="15" width="70" x="1165" y="-735" />
<rect fill="#84A1AE" height="70" rx="15" width="70" x="1165" y="-1535" />
<rect fill="#84A1AE" height="70" rx="15" width="70" x="1165" y="-3835" />
<rect fill="#84A1AE" height="70" rx="15" width="70" x="1265" y="-535" />
<rect fill="#84A1AE" height="70" rx="15" width="70" x="1265" y="-2835" />
<rect fill="#84A1AE" height="70" rx="15" width="70" x="1265" y="-3435" />
<rect fill="#84A1AE" height="70" rx="15" width="70" x="1265" y="-3835" />
<rect fill="#84A1AE" height="70" rx="15" width="70" x="1365" y="-535" />
<rect fill="#84A1AE" height="70" rx="15" width="70" x="1365" y="-835" />
<rect fill="#84A1AE" height="70" rx="15" width="70" x="1365" y="-935" />
<rect fill="#84A1AE" height="70" rx="15" width="70" x="1365" y="-1035" />
<rect fill="#84A1AE" height="70" rx="15" width="70" x="1365" y="-1935" />
<rect fill="#84A1AE" height="70" rx="15" width="70" x="1365" y="-2335" />
<rect fill="#84A1AE" height="70" rx="15" width="70" x="1365" y="-2635" />
<rect fill="#84A1AE" height="70" rx="15" width="70" x="1365" y="-2835" />
<rect fill="#84A1AE" height="70" rx="15" width="70" x="1365" y="-2935" />
<rect fill="#84A1AE" height="70" rx="15" width="70" x="1365" y="-3035" />
<rect fill="#84A1AE" height="70" rx="15" width="70" x="1365" y="-3335" />
<rect fill="#84A1AE" height="70" rx="15" width="70" x="1365" y="-3835" />
<rect fill="#84A1AE" height="70" rx="15" width="70" x="1465" y="-535" />
<rect fill="#84A1AE" height="70" rx="15" width="70" x="1465" y="-1235" />
<rect fill="#84A1AE" height="70" rx="15" width="70" x="1465" y="-1535" />
<rect fill="#84A1AE" height="70" rx="15" width="70" x="1465" y="-2035" />
<rect fill="#84A1AE" height="70" rx="15" width="70" x="1465" y="-3135" />
<rect fill="#84A1AE" height="70" rx="15" width="70" x="1465" y="-3235" />
<rect fill="#84A1AE" height="70" rx="15" width="70" x="1465" y="-3835" />
<rect fill="#84A1AE" height="70" rx="15" width="70" x="1565" y="-535" />
<rect fill="#84A1AE" height="70" rx="15" width="70" x="1565" y="-3035" />
<rect fill="#84A1AE" height="70" rx="15" width="70" x="1565" y="-3835" />
<rect fill="#84A1AE" height="70" rx="15" width="70" x="1665" y="-535" />
<rect fill="#84A1AE" height="70" rx="15" width="70" x="1665" y="-3735" />
<rect fill="#84A1AE" height="70" rx="15" width="70" x="1665" y="-3835" />
<rect fill="#84A1AE" height="70" rx="15" width="70" x="1765" y="-535" />
<rect fill="#84A1AE" height="70" rx="15" width="70" x="1765" y="-1235" />
<rect fill="#84A1AE" height="70" rx="15" width="70" x="1765" y="-3835" />
<rect fill="#84A1AE" height="70" rx="15" width="70" x="1865" y="-535" />
<rect fill="#84A1AE" height="70" rx="15" width="70" x="1865" y="-735" />
<rect fill="#84A1AE" height="70" rx="15" width="70" x="1865" y="-1335" />
<rect fill="#84A1AE" height="70" rx="15" width="70" x="1865" y="-3235" />
<rect fill="#84A1AE" height="70" rx="15" width="70" x="1865" y="-3435" />
<rect fill="#84A1AE" height="70" rx="15" width="70" x="1865" y="-3835" />
<rect fill="#84A1AE" height="70" rx="15" width="70" x="1965" y="-535" />
<rect fill="#84A1AE" height="70" rx="15" width="70" x="1965" y="-635" />
<rect fill="#84A1AE" height="70" rx="15" width="70" x="1965" y="-1835" />
<rect fill="#84A1AE" height="70" rx="15" width="70" x="1965" y="-1935" />
<rect fill="#84A1AE" height="70" rx="15" width="70" x="1965" y="-2135" />
<rect fill="#84A1AE" height="70" rx="15" width="70" x="1965" y="-2335" />
<rect fill="#84A1AE" height="70" rx="15" width="70" x="1965" y="-2435" />
<rect fill="#84A1AE" height="70" rx="15" width="70" x="1965" y="-3335" />
<rect fill="#84A1AE" height="70" rx="15" width="70" x="1965" y="-3835" />
<rect fill="#84A1AE" height="70" rx="15" width="70" x="2065" y="-535" />
<rect fill="#84A1AE" height="70" rx="15" width="70" x="2065" y="-1535" />
<rect fill="#84A1AE" height="70" rx="15" width="70" x="2065" y="-1635" />
<rect fill="#84A1AE" height="70" rx="15" width="70" x="2065" y="-2135" />
<rect fill="#84A1AE" height="70" rx="15" width="70" x="2065" y="-3835" />
<rect fill="#84A1AE" height="70" rx="15" width="70" x="2165" y="-535" />
<rect fill="#84A1AE" height="70" rx="15" width="70" x="2165" y="-935" />
<rect fill="#84A1AE" height="70" rx="15" width="70" x="2165" y="-1335" />
<rect fill="#84A1AE" height="70" rx="15" width="70" x="2165" y="-1835" />
<rect fill="#84A1AE" height="70" rx="15" width="70" x="2165" y="-3835" />
<rect fill="#84A1AE" height="70" rx="15" width="70" x="2265" y="-535" />
<rect fill="#84A1AE" height="70" rx="15" width="70" x="2265" y="-935" />
<rect fill="#84A1AE" height="70" rx="15" width="70" x="2265" y="-1135" />
<rect fill="#84A1AE" height="70" rx="15" width="70" x="2265" y="-2535" />
<rect fill="#84A1AE" height="70" rx="15" width="70" x="2265" y="-3235" />
<rect fill="#84A1AE" height="70" rx="15" width="70" x="2265" y="-3835" />
<rect fill="#84A1AE" height="70" rx="15" width="70" x="2365" y="-535" />
<rect fill="#84A1AE" height="70" rx="15" width="70" x="2365" y="-935" />
<rect fill="#84A1AE" height="70" rx="15" width="70" x="2365" y="-1035" />
<rect fill="#84A1AE" height="70" rx="15" width="70" x="2365" y="-3835" />
<rect fill="#84A1AE" height="70" rx="15" width="70" x="2465" y="-535" />
<rect fill="#84A1AE" height="70" rx="15" width="70" x="2465" y="-935" />
<rect fill="#84A1AE" height="70" rx="15" width="70" x="2465" y="-1535" />
<rect fill="#84A1AE" height="70" rx="15" width="70" x="2465" y="-2335" />
<rect fill="#84A1AE" height="70" rx="15" width="70" x="2465" y="-2735" />
<rect fill="#84A1AE" height="70" rx="15" width="70" x="2465" y="-3835" />
<rect fill="#84A1AE" height="70" rx="15" width="70" x="2565" y="-535" />
<rect fill="#84A1AE" height="70" rx="15" width="70" x="2565" y="-735" />
<rect fill="#84A1AE" height="70" rx="15" width="70" x="2565" y="-2535" />
<rect fill="#84A1AE" height="70" rx="15" width="70" x="2565" y="-3835" />
<rect fill="#84A1AE" height="70" rx="15" width="70" x="2665" y="-535" />
<rect fill="#84A1AE" height="70" rx="15" width="70" x="2665" y="-635" />
<rect fill="#84A1AE" height="70" rx="15" width="70" x="2665" y="-1135" />
<rect fill="#84A1AE" height="70" rx="15" width="70" x="2665" y="-1435" />
<rect fill="#84A1AE" height="70" rx="15" width="70" x="2665" y="-2735" />
<rect fill="#84A1AE" height="70" rx="15" width="70" x="2665" y="-3835" />
<rect fill="#84A1AE" height="70" rx="15" width="70" x="2765" y="-535" />
<rect fill="#84A1AE" height="70" rx="15" width="70" x="2765" y="-1635" />
<rect fill="#84A1AE" height="70" rx="15" width="70" x="2765" y="-1835" />
<rect fill="#84A1AE" height="70" rx="15" width="70" x="2765" y="-1935" />
<rect fill="#84A1AE" height="70" rx="15" width="70" x="2765" y="-2235" />
<rect fill="#84A1AE" height="70" rx="15" width="70" x="2765" y="-3735" />
<rect fill="#84A1AE" height="70" rx="15" width="70" x="2765" y="-3835" />
<rect fill="#84A1AE" height="70" rx="15" width="70" x="2865" y="-535" />
<rect fill="#84A1AE" height="70" rx="15" width="70" x="2865" y="-3835" />
<rect fill="#84A1AE" height="70" rx="15" width="70" x="2965" y="-535" />
<rect fill="#84A1AE" height="70" rx="15" width="70" x="2965" y="-2635" />
<rect fill="#84A1AE" height="70" rx="15" width="70" x="2965" y="-3835" />
<rect fill="#84A1AE" height="70" rx="15" width="70" x="3065" y="-535" />
<rect fill="#84A1AE" height="70" rx="15" width="70" x="3065" y="-735" />
<rect fill="#84A1AE" height="70" rx="15" width="70" x="3065" y="-2535" />
<rect fill="#84A1AE" height="70" rx="15" width="70" x="3065" y="-3835" />
<rect fill="#84A1AE" height="70" rx="15" width="70" x="3165" y="-535" />
<rect fill="#84A1AE" height="70" rx="15" width="70" x="3165" y="-835" />
<rect fill="#84A1AE" height="70" rx="15" width="70" x="3165" y="-1935" />
<rect fill="#84A1AE" height="70" rx="15" width="70" x="3165" y="-2735" />
<rect fill="#84A1AE" height="70" rx="15" width="70" x="3165" y="-3135" />
<rect fill="#84A1AE" height="70" rx="15" width="70" x="3165" y="-3835" />
<rect fill="#84A1AE" height="70" rx="15" width="70" x="3265" y="-535" />
<rect fill="#84A1AE" height="70" rx="15" width="70" x="3265" y="-1035" />
<rect fill="#84A1AE" height="70" rx="15" width="70" x="3265" y="-1735" />
<rect fill="#84A1AE" height="70" rx="15" width="70" x="3265" y="-3835" />
<rect fill="#84A1AE" height="70" rx="15" width="70" x="3365" y="-535" />
<rect fill="#84A1AE" height="70" rx="15" width="70" x="3365" y="-1435" />
<rect fill="#84A1AE" height="70" rx="15" width="70" x="3365" y="-1935" />
<rect fill="#84A1AE" height="70" rx="15" width="70" x="3365" y="-2135" />
<rect fill="#84A1AE" height="70" rx="15" width="70" x="3365" y="-3835" />
<rect fill="#84A1AE" height="70" rx="15" width="70" x="3465" y="-535" />
<rect fill="#84A1AE" height="70" rx="15" width="70" x="3465" y="-2635" />
<rect fill="#84A1AE" height="70" rx="15" width="70" x="3465" y="-3835" />
<rect fill="#84A1AE" height="70" rx="15" width="70" x="3565" y="-535" />
<rect fill="#84A1AE" height="70" rx="15" width="70" x="3565" y="-635" />
<rect fill="#84A1AE" height="70" rx="15" width="70" x="3565" y="-2435" />
<rect fill="#84A1AE" height="70" rx="15" width="70" x="3565" y="-3235" />
<rect fill="#84A1AE" height="70" rx="15" width="70" x="3565" y="-3835" />
<rect fill="#84A1AE" height="70" rx="15" width="70" x="3665" y="-535" />
<rect fill="#84A1AE" height="70" rx="15" width="70" x="3665" y="-2135" />
<rect fill="#84A1AE" height="70" rx="15" width="70" x="3665" y="-2835" />
<rect fill="#84A1AE" height="70" rx="15" width="70" x="3665" y="-3135" />
<rect fill="#84A1AE" height="70" rx="15" width="70" x="3665" y="-3735" />
<rect fill="#84A1AE" height="70" rx="15" width="70" x="3665" y="-3835" />
<rect fill="#84A1AE" height="70" rx="15" width="70" x="3765" y="-535" />
<rect fill="#84A1AE" height="70" rx="15" width="70" x="3765" y="-635" />
<rect fill="#84A1AE" height="70" rx="15" width="70" x="3765" y="-735" />
<rect fill="#84A1AE" height="70" rx="15" width="70" x="3765" y="-835" />
<rect fill="#84A1AE" height="70" rx="15" width="70" x="3765" y="-935" />
<rect fill="#84A1AE" height="70" rx="15" width="70" x="3765" y="-1035" />
<rect fill="#84A1AE" height="70" rx="15" width="70" x="3765" y="-1135" />
<rect fill="#84A1AE" height="70" rx="15" width="70" x="3765" y="-1235" />
<rect fill="#84A1AE" height="70" rx="15" width="70" x="3765" y="-1335" />
<rect fill="#84A1AE" height="70" rx="15" width="70" x="3765" y="-1435" />
<rect fill="#84A1AE" height="70" rx="15" width="70" x="3765" y="-1535" />
<rect fill="#84A1AE" height="70" rx="15" width="70" x="3765" y="-1635" />
<rect fill="#84A1AE" height="70" rx="15" width="70" x="3765" y="-1735" />
<rect fill="#84A1AE" height="70" rx="15" width="70" x="3765" y="-1835" />
<rect fill="#84A1AE" height="70" rx="15" width="70" x="3765" y="-1935" />
<rect fill="#84A1AE" height="70" rx="15" width="70" x="3765" y="-2035" />
<rect fill="#84A1AE" height="70" rx="15" width="70" x="3765" y="-2135" />
<rect fill="#84A1AE" height="70" rx="15" width="70" x="3765" y="-2235" />
<rect fill="#84A1AE" height="70" rx="15" width="70" x="3765" y="-2335" />
<rect fill="#84A1AE" height="70" rx="15" width="70" x="3765" y="-2435" />
<rect fill="#84A1AE" height="70" rx="15" width="70" x="3765" y="-2535" />
<rect fill="#84A1AE" height="70" rx="15" width="70" x="3765" y="-2635" />
<rect fill="#84A1AE" height="70" rx="15" width="70" x="3765" y="-2735" />
<rect fill="#84A1AE" height="70" rx="15" width="70" x="3765" y="-2835" />
<rect fill="#84A1AE" height="70" rx="15" width="70" x="3765" y="-2935" />
<rect fill="#84A1AE" height="70" rx="15" width="70" x="3765" y="-3035" />
<rect fill="#84A1AE" height="70" rx="15" width="70" x="3765" y="-3135" />
<rect fill="#84A1AE" height="70" rx="15" width="70" x="3765" y="-3235" />
<rect fill="#84A1AE" height="70" rx="15" width="70" x="3765" y="-3335" />
<rect fill="#84A1AE" height="70" rx="15" width="70" x="3765" y="-3435" />
<rect fill="#84A1AE" height="70" rx="15" width="70" x="3765" y="-3535" />
<rect fill="#84A1AE" height="70" rx="15" width="70" x="3765" y="-3635" />
<rect fill="#84A1AE" height="70" rx="15" width="70" x="3765" y="-3735" />
<rect fill="#84A1AE" height="70" rx="15" width="70" x="3765" y="-3835" />
<circle cx="2500" cy="-1400" fill="#c1433c" r="35"> <animate attributeName="cy" dur="132.44000000000003s" keyTimes="0.0;0.0021097046;0.0042194093;0.0063291139;0.0084388186;0.0105485232;0.0126582278;0.0147679325;0.0168776371;0.0189873418;0.0210970464;0.0232067511;0.0253164557;0.0274261603;0.029535865;0.0316455696;0.0337552743;0.0358649789;0.0379746835;0.0400843882;0.0421940928;0.0569620253;0.05907173;0.0611814346;0.0632911392;0.0654008439;0.0675105485;0.0696202532;0.0717299578;0.0738396624;0.0759493671;0.0780590717;0.0801687764;0.082278481;0.0843881857;0.0864978903;0.0886075949;0.0907172996;0.0928270042;0.0949367089;0.0970464135;0.0991561181;0.1012658228;0.1033755274;0.1054852321;0.1075949367;0.1097046414;0.111814346;0.1139240506;0.1160337553;0.1181434599;0.1202531646;0.1223628692;0.1308016878;0.1329113924;0.135021097;0.1371308017;0.1392405063;0.141350211;0.1434599156;0.1455696203;0.1476793249;0.1497890295;0.1518987342;0.1540084388;0.1561181435;0.1582278481;0.1624472574;0.164556962;0.1666666667;0.1687763713;0.1708860759;0.1729957806;0.1751054852;0.1772151899;0.1793248945;0.1814345992;0.1835443038;0.1856540084;0.1877637131;0.1898734177;0.1919831224;0.194092827;0.1962025316;0.1983122363;0.2004219409;0.2025316456;0.2046413502;0.2067510549;0.2088607595;0.2109704641;0.2130801688;0.2151898734;0.2172995781;0.2194092827;0.2215189873;0.223628692;0.2257383966;0.2278481013;0.2299578059;0.2320675105;0.2341772152;0.2362869198;0.2383966245;0.2405063291;0.2426160338;0.2447257384;0.246835443;0.2489451477;0.2510548523;0.2573839662;0.2594936709;0.2616033755;0.2637130802;0.276371308;0.2784810127;0.2805907173;0.2827004219;0.2848101266;0.2932489451;0.2953586498;0.2974683544;0.2995780591;0.3016877637;0.3037974684;0.305907173;0.3080168776;0.3101265823;0.3164556962;0.3185654008;0.3691983122;0.3713080169;0.3734177215;0.3755274262;0.3776371308;0.3945147679;0.3966244726;0.4008438819;0.4029535865;0.4050632911;0.4071729958;0.4092827004;0.4113924051;0.4135021097;0.4156118143;0.417721519;0.4198312236;0.4324894515;0.4345991561;0.4367088608;0.4388185654;0.4451476793;0.447257384;0.4556962025;0.4578059072;0.4620253165;0.4641350211;0.4662447257;0.4683544304;0.470464135;0.4725738397;0.4746835443;0.4852320675;0.4873417722;0.4915611814;0.4936708861;0.4957805907;0.4978902954;0.5042194093;0.5063291139;0.5126582278;0.5147679325;0.5210970464;0.5232067511;0.5253164557;0.5274261603;0.529535865;0.5316455696;0.5337552743;0.5358649789;0.5400843882;0.5421940928;0.5443037975;0.5464135021;0.5485232068;0.5506329114;0.552742616;0.5548523207;0.5569620253;0.55907173;0.5611814346;0.5632911392;0.5654008439;0.5675105485;0.5696202532;0.5717299578;0.5738396624;0.5759493671;0.5780590717;0.5801687764;0.582278481;0.5843881857;0.5864978903;0.5886075949;0.5907172996;0.5928270042;0.5949367089;0.5970464135;0.5991561181;0.6012658228;0.6033755274;0.6054852321;0.6075949367;0.6097046414;0.611814346;0.6139240506;0.6160337553;0.6181434599;0.6202531646;0.6223628692;0.6244725738;0.6265822785;0.6286919831;0.6308016878;0.6329113924;0.635021097;0.6371308017;0.6392405063;0.641350211;0.6434599156;0.6455696203;0.6476793249;0.6497890295;0.6518987342;0.6540084388;0.6561181435;0.6582278481;0.6603375527;0.6624472574;0.664556962;0.6666666667;0.6687763713;0.6708860759;0.6729957806;0.6751054852;0.6772151899;0.6793248945;0.6814345992;0.6835443038;0.6856540084;0.6877637131;0.6898734177;0.6919831224;0.694092827;0.6962025316;0.6983122363;0.7004219409;0.7025316456;0.7046413502;0.7067510549;0.7088607595;0.7151898734;0.7172995781;0.7194092827;0.723628692;0.7257383966;0.7278481013;0.7299578059;0.7320675105;0.7341772152;0.7489451477;0.7510548523;0.7700421941;0.7721518987;0.7869198312;0.7890295359;0.7911392405;0.7932489451;0.7953586498;0.7974683544;0.7995780591;0.8016877637;0.8037974684;0.805907173;0.8227848101;0.8248945148;0.8270042194;0.8291139241;0.8312236287;0.8333333333;0.835443038;0.8375527426;0.8396624473;0.8417721519;0.8438818565;0.8459915612;0.8481012658;0.8502109705;0.8523206751;0.8818565401;0.8839662447;0.8860759494;0.888185654;0.8945147679;0.8966244726;0.8987341772;0.9029535865;0.9050632911;0.9071729958;0.9113924051;0.9135021097;0.9156118143;0.9219409283;0.9240506329;0.9261603376;0.9324894515;0.9345991561;0.9367088608;0.9388185654;0.94092827;0.9430379747;0.9451476793;0.9535864979;0.9556962025;0.9578059072;0.9599156118;0.9620253165;0.9641350211;0.9662447257;0.9683544304;0.970464135;0.9725738397;0.9746835443;0.9767932489;0.9789029536;0.9810126582;0.9831223629;0.9852320675;0.9873417722;0.9894514768;0.9915611814;0.9936708861;1.0" repeatCount="indefinite" values="-1400;-1400;-1400;-1500;-1600;-1700;-1800;-1900;-2000;-2100;-2200;-2300;-2400;-2400;-2500;-2600;-2600;-2700;-2800;-2900;-3000;-3000;-3100;-3200;-3300;-3400;-3500;-3500;-3600;-3600;-3700;-3600;-3500;-3400;-3300;-3200;-3100;-3000;-2900;-2800;-2700;-2600;-2600;-2500;-2400;-2400;-2300;-2200;-2100;-2200;-2300;-2300;-2400;-2400;-2500;-2600;-2700;-2700;-2800;-2900;-2900;-3000;-3100;-3200;-3200;-3300;-3400;-3400;-3500;-3500;-3600;-3500;-3400;-3400;-3300;-3200;-3100;-3000;-2900;-2800;-2700;-2600;-2500;-2400;-2300;-2200;-2100;-2000;-1900;-1800;-1700;-1600;-1500;-1400;-1300;-1200;-1200;-1100;-1100;-1000;-900;-900;-800;-800;-900;-1000;-1000;-1100;-1100;-1200;-1200;-1300;-1300;-1400;-1400;-1500;-1600;-1600;-1700;-1700;-1800;-1900;-2000;-2100;-2200;-2300;-2400;-2500;-2500;-2600;-2600;-2500;-2400;-2300;-2200;-2200;-2100;-2100;-2000;-2000;-1900;-1900;-1800;-1800;-1900;-1900;-2000;-2000;-2100;-2100;-2200;-2200;-2300;-2300;-2400;-2400;-2500;-2600;-2600;-2700;-2800;-2900;-2900;-2800;-2800;-2700;-2700;-2600;-2600;-2500;-2500;-2400;-2400;-2500;-2600;-2600;-2700;-2800;-2800;-2900;-2900;-2800;-2700;-2600;-2600;-2500;-2400;-2300;-2200;-2100;-2000;-1900;-1800;-1700;-1600;-1500;-1500;-1400;-1400;-1300;-1400;-1500;-1500;-1600;-1700;-1700;-1800;-1900;-2000;-2100;-2200;-2300;-2400;-2500;-2600;-2700;-2800;-2900;-3000;-3100;-3200;-3300;-3300;-3400;-3300;-3200;-3100;-3000;-2900;-2800;-2700;-2600;-2500;-2400;-2300;-2200;-2100;-2000;-2000;-1900;-1800;-1700;-1700;-1600;-1500;-1400;-1300;-1200;-1200;-1100;-1200;-1300;-1400;-1500;-1600;-1700;-1700;-1800;-1900;-1900;-2000;-2000;-2100;-2200;-2200;-2300;-2300;-2400;-2500;-2600;-2600;-2500;-2500;-2400;-2400;-2300;-2200;-2200;-2100;-2100;-2000;-2100;-2100;-2000;-2000;-2100;-2200;-2300;-2400;-2500;-2600;-2600;-2700;-2800;-2900;-3000;-3100;-3200;-3300;-3300;-3200;-3200;-3100;-3100;-3000;-2900;-2900;-2800;-2700;-2700;-2600;-2500;-2500;-2400;-2300;-2300;-2200;-2100;-2000;-1900;-1800;-1700;-1700;-1600;-1500;-1400;-1300;-1400;-1500;-1600;-1700;-1800;-1900;-2000;-2100;-2200;-2300;-2400;-2400;-2500;-2600;-2700;-2700"/>
<animate attributeName="cx" dur="132.44000000000003s" keyTimes="0.0;0.0021097046;0.0042194093;0.0253164557;0.0274261603;0.0316455696;0.0337552743;0.0421940928;0.0443037975;0.0464135021;0.0485232068;0.0506329114;0.052742616;0.0548523207;0.0569620253;0.0675105485;0.0696202532;0.0717299578;0.0738396624;0.0991561181;0.1012658228;0.1054852321;0.1075949367;0.1181434599;0.1202531646;0.1223628692;0.1244725738;0.1265822785;0.1286919831;0.1308016878;0.1371308017;0.1392405063;0.1434599156;0.1455696203;0.1518987342;0.1540084388;0.1582278481;0.1603375527;0.1624472574;0.164556962;0.1666666667;0.1729957806;0.1751054852;0.2215189873;0.223628692;0.2257383966;0.2278481013;0.2320675105;0.2341772152;0.2362869198;0.2383966245;0.2426160338;0.2447257384;0.246835443;0.2489451477;0.2510548523;0.253164557;0.2552742616;0.2573839662;0.2594936709;0.2616033755;0.2637130802;0.2658227848;0.2679324895;0.2700421941;0.2721518987;0.2742616034;0.276371308;0.2805907173;0.2827004219;0.2848101266;0.2869198312;0.2890295359;0.2911392405;0.2932489451;0.3101265823;0.3122362869;0.3143459916;0.3164556962;0.3185654008;0.3206751055;0.3227848101;0.3248945148;0.3270042194;0.3291139241;0.3312236287;0.3333333333;0.335443038;0.3375527426;0.3396624473;0.3417721519;0.3438818565;0.3459915612;0.3481012658;0.3502109705;0.3523206751;0.3544303797;0.3565400844;0.358649789;0.3607594937;0.3628691983;0.364978903;0.3670886076;0.3691983122;0.3776371308;0.3797468354;0.3818565401;0.3839662447;0.3860759494;0.388185654;0.3902953586;0.3924050633;0.3945147679;0.3966244726;0.3987341772;0.4008438819;0.4029535865;0.4050632911;0.4071729958;0.4092827004;0.4113924051;0.4135021097;0.4156118143;0.417721519;0.4198312236;0.4219409283;0.4240506329;0.4261603376;0.4282700422;0.4303797468;0.4324894515;0.4345991561;0.4367088608;0.4388185654;0.44092827;0.4430379747;0.4451476793;0.447257384;0.4493670886;0.4514767932;0.4535864979;0.4556962025;0.4578059072;0.4599156118;0.4620253165;0.4662447257;0.4683544304;0.4746835443;0.4767932489;0.4789029536;0.4810126582;0.4831223629;0.4852320675;0.4873417722;0.4894514768;0.4915611814;0.4936708861;0.4957805907;0.4978902954;0.5;0.5021097046;0.5042194093;0.5063291139;0.5084388186;0.5105485232;0.5126582278;0.5147679325;0.5168776371;0.5189873418;0.5210970464;0.5253164557;0.5274261603;0.5316455696;0.5337552743;0.5358649789;0.5379746835;0.5400843882;0.5464135021;0.5485232068;0.5717299578;0.5738396624;0.5759493671;0.5780590717;0.5843881857;0.5864978903;0.5907172996;0.5928270042;0.6265822785;0.6286919831;0.6603375527;0.6624472574;0.6687763713;0.6708860759;0.6814345992;0.6835443038;0.6983122363;0.7004219409;0.7046413502;0.7067510549;0.7088607595;0.7109704641;0.7130801688;0.7151898734;0.7194092827;0.7215189873;0.723628692;0.7257383966;0.7278481013;0.7341772152;0.7362869198;0.7383966245;0.7405063291;0.7426160338;0.7447257384;0.746835443;0.7489451477;0.7510548523;0.753164557;0.7552742616;0.7573839662;0.7594936709;0.7616033755;0.7637130802;0.7658227848;0.7679324895;0.7700421941;0.7721518987;0.7742616034;0.776371308;0.7784810127;0.7805907173;0.7827004219;0.7848101266;0.7869198312;0.7911392405;0.7932489451;0.7953586498;0.7974683544;0.8206751055;0.8227848101;0.835443038;0.8375527426;0.8523206751;0.8544303797;0.8565400844;0.858649789;0.8607594937;0.8628691983;0.864978903;0.8670886076;0.8691983122;0.8713080169;0.8734177215;0.8755274262;0.8776371308;0.8797468354;0.8818565401;0.8839662447;0.8860759494;0.888185654;0.8902953586;0.8924050633;0.8945147679;0.8987341772;0.9008438819;0.9029535865;0.9071729958;0.9092827004;0.9113924051;0.9156118143;0.917721519;0.9198312236;0.9219409283;0.9261603376;0.9282700422;0.9303797468;0.9324894515;0.947257384;0.9493670886;0.9514767932;0.9535864979;0.9852320675;0.9873417722;0.9936708861;0.9957805907;0.9978902954;1.0" repeatCount="indefinite" values="2500;2500;2600;2600;2700;2700;2800;2800;2900;3000;3100;3200;3300;3400;3500;3500;3400;3400;3300;3300;3200;3200;3100;3100;3000;3000;2900;2900;3000;2900;2900;2800;2800;2700;2700;2600;2600;2500;2400;2400;2300;2300;2400;2400;2500;2500;2600;2600;2700;2700;2600;2600;2500;2500;2400;2400;2300;2200;2100;2100;2000;2000;1900;1800;1700;1600;1500;1400;1400;1300;1300;1200;1200;1100;1200;1200;1300;1400;1500;1500;1600;1700;1800;1900;2000;2100;2200;2300;2400;2500;2600;2700;2800;2900;2800;2700;2600;2500;2400;2300;2200;2100;2000;1900;1900;2000;2100;2200;2300;2400;2500;2600;2700;2700;2800;2900;2900;3000;3000;3100;3100;3000;3000;2900;2900;2800;2700;2600;2500;2400;2300;2300;2200;2200;2100;2000;1900;1900;1800;1700;1600;1500;1500;1400;1300;1300;1200;1200;1100;1000;900;800;700;700;800;900;900;1000;1000;1100;1200;1300;1300;1400;1500;1600;1600;1500;1400;1300;1300;1200;1200;1100;1100;1000;900;900;800;800;900;900;1000;1000;1100;1100;1200;1200;1100;1100;1200;1200;1300;1300;1400;1400;1300;1300;1200;1200;1100;1000;900;900;800;700;700;600;600;700;800;900;1000;1100;1200;1300;1300;1400;1500;1600;1700;1800;1900;2000;2100;2200;2200;2300;2400;2500;2600;2700;2800;2900;2900;3000;3000;3100;3100;3200;3200;3300;3300;3400;3300;3200;3100;3000;2900;2800;2700;2600;2500;2400;2300;2200;2100;2100;2000;2000;1900;1800;1700;1700;1600;1500;1500;1400;1300;1300;1200;1100;1000;1000;900;800;700;700;600;600;700;700;800;800;900;1000;1000"/>
<animate attributeName="visibility" dur="132.44000000000003s" keyTimes="0.0;0.0021097046;1.0" repeatCount="indefinite" values="visible;visible;visible"/> </circle>
<circle cx="3000" cy="-1900" fill="#2e6f9e" r="35"> <animate attributeName="cy" dur="132.44000000000003s" keyTimes="0.0;0.0021097046;0.0042194093;0.0063291139;0.0084388186;0.0105485232;0.0126582278;0.0147679325;0.0168776371;0.0189873418;0.0274261603;0.029535865;0.0316455696;0.0337552743;0.0358649789;0.0379746835;0.0400843882;0.0421940928;0.0443037975;0.0464135021;0.0485232068;0.0506329114;0.052742616;0.0548523207;0.0569620253;0.05907173;0.0611814346;0.0632911392;0.0654008439;0.0675105485;0.0696202532;0.0717299578;0.0738396624;0.0759493671;0.0780590717;0.0801687764;0.082278481;0.0843881857;0.0864978903;0.0886075949;0.0907172996;0.0928270042;0.0949367089;0.0970464135;0.0991561181;0.1012658228;0.1181434599;0.1202531646;0.1223628692;0.1244725738;0.1286919831;0.1308016878;0.1329113924;0.135021097;0.1371308017;0.1392405063;0.141350211;0.1434599156;0.1455696203;0.1497890295;0.1518987342;0.1540084388;0.1561181435;0.1582278481;0.1603375527;0.1624472574;0.164556962;0.1666666667;0.1687763713;0.1708860759;0.1793248945;0.1814345992;0.1835443038;0.1856540084;0.1877637131;0.1898734177;0.1919831224;0.194092827;0.1962025316;0.1983122363;0.2004219409;0.2025316456;0.2046413502;0.2067510549;0.2088607595;0.2109704641;0.2130801688;0.2151898734;0.2172995781;0.2573839662;0.2594936709;0.2658227848;0.2679324895;0.2700421941;0.2721518987;0.2742616034;0.276371308;0.2784810127;0.2805907173;0.2827004219;0.2848101266;0.2911392405;0.2932489451;0.3164556962;0.3185654008;0.3206751055;0.3776371308;0.3797468354;0.3818565401;0.3839662447;0.3860759494;0.388185654;0.3902953586;0.3924050633;0.3945147679;0.3966244726;0.3987341772;0.4008438819;0.4029535865;0.4050632911;0.4071729958;0.4092827004;0.4113924051;0.4135021097;0.4156118143;0.417721519;0.4198312236;0.4261603376;0.4282700422;0.4303797468;0.4345991561;0.4367088608;0.4388185654;0.44092827;0.447257384;0.4493670886;0.4514767932;0.4599156118;0.4620253165;0.4683544304;0.470464135;0.4725738397;0.4746835443;0.4767932489;0.4789029536;0.4810126582;0.4831223629;0.4852320675;0.4873417722;0.4894514768;0.4915611814;0.4936708861;0.4957805907;0.4978902954;0.5;0.5021097046;0.5042194093;0.5063291139;0.5084388186;0.5105485232;0.5126582278;0.5147679325;0.5443037975;0.5464135021;0.5485232068;0.5506329114;0.5569620253;0.55907173;0.5632911392;0.5654008439;0.5675105485;0.5696202532;0.5717299578;0.5738396624;0.5759493671;0.5780590717;0.5801687764;0.582278481;0.5843881857;0.6075949367;0.6097046414;0.611814346;0.6244725738;0.6265822785;0.6286919831;0.6308016878;0.6392405063;0.641350211;0.6434599156;0.6455696203;0.6476793249;0.6497890295;0.6518987342;0.6540084388;0.6582278481;0.6603375527;0.6624472574;0.664556962;0.6666666667;0.6708860759;0.6729957806;0.6751054852;0.6772151899;0.6793248945;0.6814345992;0.6835443038;0.6856540084;0.6877637131;0.6898734177;0.7004219409;0.7025316456;0.7067510549;0.7088607595;0.7109704641;0.7257383966;0.7278481013;0.7299578059;0.7320675105;0.7341772152;0.7362869198;0.7383966245;0.7405063291;0.7426160338;0.7447257384;0.746835443;0.7552742616;0.7573839662;0.7594936709;0.7700421941;0.7721518987;0.7742616034;0.7784810127;0.7805907173;0.7869198312;0.7890295359;0.7911392405;0.7932489451;0.7953586498;0.7974683544;0.7995780591;0.8037974684;0.805907173;0.8206751055;0.8227848101;0.8291139241;0.8312236287;0.8333333333;0.835443038;0.8375527426;0.8396624473;0.8417721519;0.8438818565;0.8459915612;0.8481012658;0.8502109705;0.8544303797;0.8565400844;0.858649789;0.8755274262;0.8776371308;0.8966244726;0.8987341772;0.9008438819;0.9156118143;0.917721519;0.9219409283;0.9240506329;0.9261603376;0.9303797468;0.9324894515;0.9345991561;0.94092827;0.9430379747;0.947257384;0.9493670886;0.9514767932;0.9556962025;0.9578059072;0.9599156118;0.9620253165;0.9641350211;0.9915611814;0.9936708861;0.9957805907;1.0" repeatCount="indefinite" values="-1900;-1900;-2000;-2100;-2200;-2300;-2400;-2500;-2500;-2600;-2600;-2500;-2400;-2400;-2300;-2200;-2100;-2000;-1900;-1800;-1700;-1600;-1500;-1400;-1300;-1400;-1500;-1600;-1700;-1800;-1700;-1800;-1900;-2000;-2100;-2200;-2300;-2300;-2400;-2400;-2500;-2600;-2600;-2700;-2700;-2800;-2800;-2700;-2600;-2500;-2500;-2400;-2300;-2300;-2200;-2100;-2000;-1900;-1800;-1800;-1700;-1600;-1500;-1500;-1400;-1400;-1300;-1200;-1100;-1200;-1200;-1300;-1400;-1500;-1600;-1700;-1800;-1900;-2000;-2100;-2200;-2300;-2300;-2400;-2500;-2500;-2600;-2700;-2800;-2800;-2700;-2700;-2600;-2500;-2400;-2300;-2200;-2100;-2000;-1900;-1800;-1800;-1900;-1900;-2000;-1900;-1900;-1800;-1700;-1600;-1600;-1700;-1600;-1600;-1700;-1800;-1900;-2000;-2100;-2200;-2100;-2200;-2300;-2400;-2500;-2600;-2700;-2700;-2800;-2900;-2900;-3000;-3000;-3100;-3100;-3200;-3300;-3300;-3400;-3400;-3300;-3200;-3100;-3000;-2900;-2800;-2700;-2600;-2600;-2500;-2400;-2400;-2300;-2200;-2100;-2000;-1900;-1800;-1700;-1600;-1500;-1400;-1400;-1300;-1300;-1400;-1400;-1500;-1500;-1600;-1700;-1800;-1900;-2000;-1900;-2000;-2000;-2100;-2200;-2200;-2300;-2400;-2400;-2500;-2500;-2400;-2400;-2300;-2200;-2100;-2100;-2000;-2000;-1900;-1900;-1800;-1800;-1700;-1600;-1600;-1500;-1400;-1300;-1200;-1200;-1100;-1100;-1200;-1300;-1300;-1400;-1400;-1500;-1400;-1400;-1300;-1400;-1500;-1600;-1700;-1800;-1900;-2000;-2100;-2200;-2200;-2300;-2400;-2400;-2500;-2400;-2400;-2500;-2500;-2400;-2300;-2400;-2400;-2300;-2200;-2200;-2100;-2100;-2000;-2000;-1900;-1800;-1700;-1700;-1600;-1500;-1500;-1400;-1400;-1300;-1300;-1200;-1300;-1300;-1400;-1400;-1500;-1400;-1400;-1500;-1500;-1400;-1500;-1500;-1600;-1500;-1500;-1600;-1600;-1700;-1800;-1800;-1900;-2000;-2100;-2200;-2200;-2300;-2200;-2200"/>
<animate attributeName="cx" dur="132.44000000000003s" keyTimes="0.0;0.0021097046;0.0147679325;0.0168776371;0.0189873418;0.0210970464;0.0232067511;0.0253164557;0.0274261603;0.0316455696;0.0337552743;0.0864978903;0.0886075949;0.0928270042;0.0949367089;0.0970464135;0.0991561181;0.1012658228;0.1033755274;0.1054852321;0.1075949367;0.1097046414;0.111814346;0.1139240506;0.1160337553;0.1181434599;0.1244725738;0.1265822785;0.1329113924;0.135021097;0.1476793249;0.1497890295;0.1561181435;0.1582278481;0.1603375527;0.1624472574;0.1708860759;0.1729957806;0.1751054852;0.1772151899;0.1793248945;0.2025316456;0.2046413502;0.2088607595;0.2109704641;0.2172995781;0.2194092827;0.2215189873;0.223628692;0.2257383966;0.2278481013;0.2299578059;0.2320675105;0.2341772152;0.2362869198;0.2383966245;0.2405063291;0.2426160338;0.2447257384;0.246835443;0.2489451477;0.2510548523;0.253164557;0.2552742616;0.2573839662;0.2594936709;0.2616033755;0.2637130802;0.2658227848;0.2932489451;0.2953586498;0.3333333333;0.335443038;0.3375527426;0.3755274262;0.3776371308;0.3839662447;0.3860759494;0.3902953586;0.3924050633;0.4198312236;0.4219409283;0.4240506329;0.4261603376;0.4303797468;0.4324894515;0.4345991561;0.4367088608;0.4388185654;0.44092827;0.4430379747;0.4451476793;0.447257384;0.4514767932;0.4535864979;0.4556962025;0.4578059072;0.4599156118;0.4620253165;0.4641350211;0.4662447257;0.4683544304;0.4852320675;0.4873417722;0.4915611814;0.4936708861;0.5147679325;0.5168776371;0.5189873418;0.5210970464;0.5232067511;0.5253164557;0.5274261603;0.529535865;0.5316455696;0.5337552743;0.5358649789;0.5379746835;0.5400843882;0.5421940928;0.5443037975;0.5464135021;0.5485232068;0.5506329114;0.552742616;0.5548523207;0.5569620253;0.55907173;0.5611814346;0.5632911392;0.5780590717;0.5801687764;0.5843881857;0.5864978903;0.5886075949;0.5907172996;0.5928270042;0.5949367089;0.5970464135;0.5991561181;0.6012658228;0.6033755274;0.6054852321;0.6075949367;0.611814346;0.6139240506;0.6160337553;0.6181434599;0.6202531646;0.6223628692;0.6244725738;0.6265822785;0.6286919831;0.6308016878;0.6329113924;0.635021097;0.6371308017;0.6392405063;0.6455696203;0.6476793249;0.6497890295;0.6518987342;0.6540084388;0.6561181435;0.6582278481;0.6603375527;0.6624472574;0.6666666667;0.6687763713;0.6708860759;0.6793248945;0.6814345992;0.6835443038;0.6856540084;0.6898734177;0.6919831224;0.694092827;0.6962025316;0.6983122363;0.7004219409;0.7025316456;0.7046413502;0.7067510549;0.7109704641;0.7130801688;0.7151898734;0.7172995781;0.7194092827;0.7215189873;0.723628692;0.7257383966;0.746835443;0.7489451477;0.7510548523;0.753164557;0.7552742616;0.7594936709;0.7616033755;0.7637130802;0.7658227848;0.7679324895;0.7700421941;0.7742616034;0.776371308;0.7784810127;0.7805907173;0.7827004219;0.7848101266;0.7869198312;0.7932489451;0.7953586498;0.8227848101;0.8248945148;0.8270042194;0.8291139241;0.835443038;0.8375527426;0.8417721519;0.8438818565;0.8459915612;0.8481012658;0.8502109705;0.8523206751;0.8544303797;0.858649789;0.8607594937;0.8628691983;0.864978903;0.8670886076;0.8691983122;0.8713080169;0.8734177215;0.8755274262;0.8776371308;0.8797468354;0.8818565401;0.8839662447;0.8860759494;0.888185654;0.8902953586;0.8924050633;0.8945147679;0.8966244726;0.9008438819;0.9029535865;0.9050632911;0.9071729958;0.9092827004;0.9113924051;0.9135021097;0.9156118143;0.917721519;0.9198312236;0.9219409283;0.9261603376;0.9282700422;0.9303797468;0.9345991561;0.9367088608;0.9388185654;0.94092827;0.9514767932;0.9535864979;0.9556962025;0.9641350211;0.9662447257;0.9683544304;0.970464135;0.9725738397;0.9746835443;0.9767932489;0.9789029536;0.9810126582;0.9831223629;0.9852320675;0.9873417722;0.9894514768;0.9915611814;0.9957805907;0.9978902954;1.0" repeatCount="indefinite" values="3000;3000;3000;2900;2900;2800;2700;2600;2500;2500;2600;2600;2500;2500;2400;2400;2300;2300;2200;2300;2400;2500;2600;2700;2800;2900;2900;3000;3000;3100;3100;3200;3200;3300;3300;3200;3200;3300;3400;3500;3600;3600;3500;3500;3400;3400;3300;3200;3100;3000;2900;2800;2700;2600;2500;2400;2300;2200;2100;2000;1900;1800;1700;1600;1500;1500;1400;1300;1200;1200;1100;1100;1000;1100;1100;1200;1200;1100;1100;1200;1200;1300;1400;1500;1500;1600;1700;1700;1800;1800;1900;2000;2100;2100;2200;2300;2400;2500;2500;2600;2700;2600;2600;2500;2500;2600;2600;2500;2500;2400;2500;2400;2300;2200;2100;2000;1900;1800;1700;1600;1500;1500;1400;1400;1300;1200;1100;1100;1000;900;900;1000;1000;1100;1200;1300;1400;1500;1600;1700;1800;1900;2000;2100;2100;2200;2300;2400;2500;2600;2700;2700;2800;2800;2900;3000;3000;3100;3100;3200;3200;3100;3100;3000;3100;3100;3200;3200;3100;3000;3000;3100;3100;3000;3000;2900;2800;2700;2600;2500;2500;2400;2300;2300;2200;2100;2100;2000;1900;1800;1700;1700;1800;1900;2000;2100;2100;2200;2300;2300;2400;2500;2500;2600;2700;2700;2800;2900;3000;3000;3100;3100;3200;3200;3100;3100;3200;3200;3300;3300;3200;3200;3300;3400;3400;3300;3200;3100;3000;2900;2800;2700;2600;2600;2500;2400;2300;2200;2100;2000;1900;1800;1700;1700;1600;1500;1400;1300;1200;1200;1100;1100;1000;900;900;800;700;700;600;600;700;700;800;900;900;1000;1100;1200;1300;1400;1500;1600;1700;1800;1900;2000;2100;2200;2200;2300;2300"/>
<animate attributeName="visibility" dur="132.44000000000003s" keyTimes="0.0;0.0021097046;1.0" repeatCount="indefinite" values="visible;visible;visible"/> </circle>
<circle cx="3500" cy="-3000" fill="none" r="35" stroke="#c1433c" stroke-width="10"> <animate attributeName="cy" dur="132.44000000000003s" keyTimes="0.0;0.0021097046;0.0548523207;0.0569620253;0.0738396624;0.0759493671;0.111814346;0.1139240506;0.1666666667;0.1687763713;0.2341772152;0.2362869198;0.2932489451;0.2953586498;0.3459915612;0.3481012658;0.3755274262;0.3776371308;0.4092827004;0.4113924051;0.4725738397;0.4746835443;0.4852320675;0.4873417722;0.5126582278;0.5147679325;0.5358649789;0.5379746835;0.5780590717;0.5801687764;0.6286919831;0.6308016878;0.6835443038;0.6856540084;0.7320675105;0.7341772152;0.7974683544;0.7995780591;0.8523206751;0.8544303797;0.9135021097;0.9156118143;0.9599156118;0.9620253165;1.0" repeatCount="indefinite" values="-3000;-3000;-3000;-3700;-3700;-2100;-2100;-3600;-3600;-800;-800;-1800;-1800;-2600;-2600;-2200;-2200;-1800;-1800;-2900;-2900;-2800;-2800;-2400;-2400;-2900;-2900;-1300;-1300;-3400;-3400;-1100;-1100;-2600;-2600;-2000;-2000;-3300;-3300;-2500;-2500;-1300;-1300;-2900;-2900"/>
<animate attributeName="cx" dur="132.44000000000003s" keyTimes="0.0;0.0021097046;0.0548523207;0.0569620253;0.0738396624;0.0759493671;0.111814346;0.1139240506;0.1666666667;0.1687763713;0.2341772152;0.2362869198;0.2932489451;0.2953586498;0.3459915612;0.3481012658;0.3755274262;0.3776371308;0.4092827004;0.4113924051;0.4725738397;0.4746835443;0.4852320675;0.4873417722;0.5126582278;0.5147679325;0.5780590717;0.5801687764;0.6286919831;0.6308016878;0.6835443038;0.6856540084;0.7320675105;0.7341772152;0.7974683544;0.7995780591;0.8523206751;0.8544303797;0.9135021097;0.9156118143;0.9599156118;0.9620253165;1.0" repeatCount="indefinite" values="3500;3500;3500;3300;3300;3100;3100;2300;2300;2700;2700;1200;1200;2900;2900;1900;1900;3100;3100;1200;1200;700;700;1600;1600;1000;1000;1100;1100;1400;1400;600;600;3100;3100;3400;3400;1300;1300;700;700;2200;2200"/>
<animate attributeName="visibility" dur="132.44000000000003s" keyTimes="0.0;0.0021097046;1.0" repeatCount="indefinite" values="visible;visible;visible"/> </circle>
<circle cx="2600" cy="-2600" fill="none" r="35" stroke="#2e6f9e" stroke-width="10"> <animate attributeName="cy" dur="132.44000000000003s" keyTimes="0.0;0.0021097046;0.0232067511;0.0253164557;0.0548523207;0.0569620253;0.1012658228;0.1033755274;0.1582278481;0.1603375527;0.1666666667;0.1687763713;0.1772151899;0.1793248945;0.253164557;0.2552742616;0.3839662447;0.3860759494;0.4641350211;0.4662447257;0.5126582278;0.5147679325;0.5632911392;0.5654008439;0.6097046414;0.611814346;0.6624472574;0.664556962;0.6835443038;0.6856540084;0.7257383966;0.7278481013;0.7848101266;0.7869198312;0.8544303797;0.8565400844;0.9345991561;0.9367088608;0.9535864979;0.9556962025;1.0" repeatCount="indefinite" values="-2600;-2600;-2600;-1300;-1300;-2800;-2800;-1400;-1400;-1100;-1100;-1200;-1200;-2800;-2800;-1600;-1600;-3400;-3400;-1400;-1400;-1600;-1600;-2400;-2400;-1700;-1700;-1100;-1100;-1300;-1300;-2500;-2500;-1200;-1200;-1500;-1500;-1800;-1800;-2300;-2300"/>
<animate attributeName="cx" dur="132.44000000000003s" keyTimes="0.0;0.0021097046;0.0548523207;0.0569620253;0.1012658228;0.1033755274;0.1582278481;0.1603375527;0.1666666667;0.1687763713;0.1772151899;0.1793248945;0.253164557;0.2552742616;0.3839662447;0.3860759494;0.4641350211;0.4662447257;0.5126582278;0.5147679325;0.5632911392;0.5654008439;0.6097046414;0.611814346;0.6624472574;0.664556962;0.6835443038;0.6856540084;0.7257383966;0.7278481013;0.7848101266;0.7869198312;0.8544303797;0.8565400844;0.9345991561;0.9367088608;0.9535864979;0.9556962025;1.0" repeatCount="indefinite" values="2600;2600;2600;2200;2200;3300;3300;3200;3200;3600;3600;1600;1600;1100;1100;2700;2700;2600;2600;900;900;2100;2100;3200;3200;3000;3000;1700;1700;3000;3000;3400;3400;600;600;900;900;3200;3200"/>
<animate attributeName="visibility" dur="132.44000000000003s" keyTimes="0.0;0.0021097046;1.0" repeatCount="indefinite" values="visible;visible;visible"/> </circle>
</svg>