<?xml version="1.0" encoding="UTF-8"?>
        <svg xmlns="http://www.w3.org/2000/svg" xmlns:xlink="http://www.w3.org/1999/xlink"
             width="430" height="430" viewBox="0 -4300 4300 4300">

<defs>

</defs>

<rect fill="#84A1AE" height="70" rx="15" width="70" x="465" y="-535" />
<rect fill="#84A1AE" height="70" rx="15" width="70" x="465" y="-635" />
<rect fill="#84A1AE" height="70" rx="15" width="70" x="465" y="-735" />
<rect fill="#84A1AE" height="70" rx="15" width="70" x="465" y="-835" />
<rect fill="#84A1AE" height="70" rx="15" width="70" x="465" y="-935" />
<rect fill="#84A1AE" height="70" rx="15" width="70" x="465" y="-1035" />
<rect fill="#84A1AE" height="70" rx="15" width="70" x="465" y="-1135" />
<rect fill="#84A1AE" height="70" rx="15" width="70" x="465" y="-1235" />
<rect fill="#84A1AE" height="70" rx="15" width="70" x="465" y="-1335" />
<rect fill="#84A1AE" height="70" rx="15" width="70" x="465" y="-1435" />
<rect fill="#84A1AE" height="70" rx="15" width="70" x="465" y="-1535" />
<rect fill="#84A1AE" height="70" rx="15" width="70" x="465" y="-1635" />
<rect fill="#84A1AE" height="70" rx="15" width="70" x="465" y="-1735" />
<rect fill="#84A1AE" height="70" rx="15" width="70" x="465" y="-1835" />
<rect fill="#84A1AE" height="70" rx="15" width="70" x="465" y="-1935" />
<rect fill="#84A1AE" height="70" rx="15" width="70" x="465" y="-2035" />
<rect fill="#84A1AE" height="70" rx="15" width="70" x="465" y="-2135" />
<rect fill="#84A1AE" height="70" rx="15" width="70" x="465" y="-2235" />
<rect fill="#84A1AE" height="70" rx="15" width="70" x="465" y="-2335" />
<rect fill="#84A1AE" height="70" rx="15" width="70" x="465" y="-2435" />
<rect fill="#84A1AE" height="70" rx="15" width="70" x="465" y="-2535" />
<rect fill="#84A1AE" height="70" rx="15" width="70" x="465" y="-2635" />
<rect fill="#84A1AE" height="70" rx="15" width="70" x="465" y="-2735" />
<rect fill="#84A1AE" height="70" rx="15" width="70" x="465" y="-2835" />
<rect fill="#84A1AE" height="70" rx="15" width="70" x="465" y="-2935" />
<rect fill="#84A1AE" height="70" rx="15" width="70" x="465" y="-3035" />
<rect fill="#84A1AE" height="70" rx="15" width="70" x="465" y="-3135" />
<rect fill="#84A1AE" height="70" rx="15" width="70" x="465" y="-3235" />
<rect fill="#84A1AE" height="70" rx="15" width="70" x="465" y="-3335" />
<rect fill="#84A1AE" height="70" rx="15" width="70" x="465" y="-3435" />
<rect fill="#84A1AE" height="70" rx="15" width="70" x="465" y="-3535" />
<rect fill="#84A1AE" height="70" rx="15" width="70" x="465" y="-3635" />
<rect fill="#84A1AE" height="70" rx="15" width="70" x="465" y="-3735" />
<rect fill="#84A1AE" height="70" rx="15" width="70" x="465" y="-3835" />
<rect fill="#84A1AE" height="70" rx="15" width="70" x="565" y="-535" />
<rect fill="#84A1AE" height="70" rx="15" width="70" x="565" y="-1635" />
<rect fill="#84A1AE" height="70" rx="15" width="70" x="565" y="-1935" />
<rect fill="#84A1AE" height="70" rx="15" width="70" x="565" y="-2735" />
<rect fill="#84A1AE" height="70" rx="15" width="70" x="565" y="-3835" />
<rect fill="#84A1AE" height="70" rx="15" width="70" x="665" y="-535" />
<rect fill="#84A1AE" height="70" rx="15" width="70" x="665" y="-1035" />
<rect fill="#84A1AE" height="70" rx="15" width="70" x="665" y="-2535" />
<rect fill="#84A1AE" height="70" rx="15" width="70" x="665" y="-3035" />
<rect fill="#84A1AE" height="70" rx="15" width="70" x="665" y="-3235" />
<rect fill="#84A1AE" height="70" rx="15" width="70" x="665" y="-3835" />
<rect fill="#84A1AE" height="70" rx="15" width="70" x="765" y="-535" />
<rect fill="#84A1AE" height="70" rx="15" width="70" x="765" y="-635" />
<rect fill="#84A1AE" height="70" rx="15" width="70" x="765" y="-3835" />
<rect fill="#84A1AE" height="70" rx="15" width="70" x="865" y="-535" />
<rect fill="#84A1AE" height="70" rx="15" width="70" x="865" y="-2435" />
<rect fill="#84A1AE" height="70" rx="15" width="70" x="865" y="-2535" />
<rect fill="#84A1AE" height="70" rx="15" width="70" x="865" y="-3335" />
<rect fill="#84A1AE" height="70" rx="15" width="70" x="865" y="-3435" />
<rect fill="#84A1AE" height="70" rx="15" width="70" x="865" y="-3835" />
<rect fill="#84A1AE" height="70" rx="15" width="70" x="965" y="-535" />
<rect fill="#84A1AE" height="70" rx="15" width="70" x="965" y="-735" />
<rect fill="#84A1AE" height="70" rx="15" width="70" x="965" y="-1635" />
<rect fill="#84A1AE" height="70" rx="15" width="70" x="965" y="-1835" />
<rect fill="#84A1AE" height="70" rx="15" width="70" x="965" y="-2835" />
<rect fill="#84A1AE" height="70" rx="15" width="70" x="965" y="-3435" />
<rect fill="#84A1AE" height="70" rx="15" width="70" x="965" y="-3835" />
<rect fill="#84A1AE" height="70" rx="15" width="70" x="1065" y="-535" />
<rect fill="#84A1AE" height="70" rx="15" width="70" x="1065" y="-1135" />
<rect fill="#84A1AE" height="70" rx="15" width="70" x="1065" y="-1835" />
<rect fill="#84A1AE" height="70" rx="15" width="70" x="1065" y="-3735" />
<rect fill="#84A1AE" height="70" rx="15" width="70" x="1065" y="-3835" />
<rect fill="#84A1AE" height="70" rx="15" width="70" x="1165" y="-535" />
<rect fill="#84A1AE" height="70" rx="15" width="70" x="1165" y="-635" />
<rect fill="#84A1AE" height="70" rx="15" width="70" x="1165" y="-735" />
<rect fill="#84A1AE" height="70" rx="15" width="70" x="1165" y="-1535" />
<rect fill="#84A1AE" height="70" rx="15" width="70" x="1165" y="-3835" />
<rect fill="#84A1AE" height="70" rx="15" width="70" x="1265" y="-535" />
<rect fill="#84A1AE" height="70" rx="15" width="70" x="1265" y="-2835" />
<rect fill="#84A1AE" height="70" rx="15" width="70" x="1265" y="-3435" />
<rect fill="#84A1AE" height="70" rx="15" width="70" x="1265" y="-3835" />
<rect fill="#84A1AE" height="70" rx="15" width="70" x="1365" y="-535" />
<rect fill="#84A1AE" height="70" rx="15" width="70" x="1365" y="-835" />
<rect fill="#84A1AE" height="70" rx="15" width="70" x="1365" y="-935" />
<rect fill="#84A1AE" height="70" rx="15" width="70" x="1365" y="-1035" />
<rect fill="#84A1AE" height="70" rx="15" width="70" x="1365" y="-1935" />
<rect fill="#84A1AE" height="70" rx="15" width="70" x="1365" y="-2335" />
<rect fill="#84A1AE" height="70" rx="15" width="70" x="1365" y="-2635" />
<rect fill="#84A1AE" height="70" rx="15" width="70" x="1365" y="-2835" />
<rect fill="#84A1AE" height="70" rx="15" width="70" x="1365" y="-2935" />
<rect fill="#84A1AE" height="70" rx="15" width="70" x="1365" y="-3035" />
<rect fill="#84A1AE" height="70" rx="15" width="70" x="1365" y="-3335" />
<rect fill="#84A1AE" height="70" rx="15" width="70" x="1365" y="-3835" />
<rect fill="#84A1AE" height="70" rx="15" width="70" x="1465" y="-535" />
<rect fill="#84A1AE" height="70" rx="15" width="70" x="1465" y="-1235" />
<rect fill="#84A1AE" height="70" rx="15" width="70" x="1465" y="-1535" />
<rect fill="#84A1AE" height="70" rx="15" width="70" x="1465" y="-2035" />
<rect fill="#84A1AE" height="70" rx="15" width="70" x="1465" y="-3135" />
<rect fill="#84A1AE" height="70" rx="15" width="70" x="1465" y="-3235" />
<rect fill="#84A1AE" height="70" rx="15" width="70" x="1465" y="-3835" />
<rect fill="#84A1AE" height="70" rx="15" width="70" x="1565" y="-535" />
<rect fill="#84A1AE" height="70" rx="15" width="70" x="1565" y="-3035" />
<rect fill="#84A1AE" height="70" rx="15" width="70" x="1565" y="-3835" />
<rect fill="#84A1AE" height="70" rx="15" width="70" x="1665" y="-535" />
<rect fill="#84A1AE" height="70" rx="15" width="70" x="1665" y="-3735" />
<rect fill="#84A1AE" height="70" rx="15" width="70" x="1665" y="-3835" />
<rect fill="#84A1AE" height="70" rx="15" width="70" x="1765" y="-535" />
<rect fill="#84A1AE" height="70" rx="15" width="70" x="1765" y="-1235" />
<rect fill="#84A1AE" height="70" rx="15" width="70" x="1765" y="-3835" />
<rect fill="#84A1AE" height="70" rx="15" width="70" x="1865" y="-535" />
<rect fill="#84A1AE" height="70" rx="15" width="70" x="1865" y="-735" />
<rect fill="#84A1AE" height="70" rx="15" width="70" x="1865" y="-1335" />
<rect fill="#84A1AE" height="70" rx="15" width="70" x="1865" y="-3235" />
<rect fill="#84A1AE" height="70" rx="15" width="70" x="1865" y="-3435" />
<rect fill="#84A1AE" height="70" rx="15" width="70" x="1865" y="-3835" />
<rect fill="#84A1AE" height="70" rx="15" width="70" x="1965" y="-535" />
<rect fill="#84A1AE" height="70" rx="15" width="70" x="1965" y="-635" />
<rect fill="#84A1AE" height="70" rx="15" width="70" x="1965" y="-1835" />
<rect fill="#84A1AE" height="70" rx="15" width="70" x="1965" y="-1935" />
<rect fill="#84A1AE" height="70" rx="15" width="70" x="1965" y="-2135" />
<rect fill="#84A1AE" height="70" rx="15" width="70" x="1965" y="-2335" />
<rect fill="#84A1AE" height="70" rx="15" width="70" x="1965" y="-2435" />
<rect fill="#84A1AE" height="70" rx="15" width="70" x="1965" y="-3335" />
<rect fill="#84A1AE" height="70" rx="15" width="70" x="1965" y="-3835" />
<rect fill="#84A1AE" height="70" rx="15" width="70" x="2065" y="-535" />
<rect fill="#84A1AE" height="70" rx="15" width="70" x="2065" y="-1535" />
<rect fill="#84A1AE" height="70" rx="15" width="70" x="2065" y="-1635" />
<rect fill="#84A1AE" height="70" rx="15" width="70" x="2065" y="-2135" />
<rect fill="#84A1AE" height="70" rx="15" width="70" x="2065" y="-3835" />
<rect fill="#84A1AE" height="70" rx="15" width="70" x="2165" y="-535" />
<rect fill="#84A1AE" height="70" rx="15" width="70" x="2165" y="-935" />
<rect fill="#84A1AE" height="70" rx="15" width="70" x="2165" y="-1335" />
<rect fill="#84A1AE" height="70" rx="15" width="70" x="2165" y="-1835" />
<rect fill="#84A1AE" height="70" rx="15" width="70" x="2165" y="-3835" />
<rect fill="#84A1AE" height="70" rx="15" width="70" x="2265" y="-535" />
<rect fill="#84A1AE" height="70" rx="15" width="70" x="2265" y="-935" />
<rect fill="#84A1AE" height="70" rx="15" width="70" x="2265" y="-1135" />
<rect fill="#84A1AE" height="70" rx="15" width="70" x="2265" y="-2535" />
<rect fill="#84A1AE" height="70" rx="15" width="70" x="2265" y="-3235" />
<rect fill="#84A1AE" height="70" rx="15" width="70" x="2265" y="-3835" />
<rect fill="#84A1AE" height="70" rx="15" width="70" x="2365" y="-535" />
<rect fill="#84A1AE" height="70" rx="15" width="70" x="2365" y="-935" />
<rect fill="#84A1AE" height="70" rx="15" width="70" x="2365" y="-1035" />
<rect fill="#84A1AE" height="70" rx="15" width="70" x="2365" y="-3835" />
<rect fill="#84A1AE" height="70" rx="15" width="70" x="2465" y="-535" />
<rect fill="#84A1AE" height="70" rx="15" width="70" x="2465" y="-935" />
<rect fill="#84A1AE" height="70" rx="15" width="70" x="2465" y="-1535" />
<rect fill="#84A1AE" height="70" rx="15" width="70" x="2465" y="-2335" />
<rect fill="#84A1AE" height="70" rx="15" width="70" x="2465" y="-2735" />
<rect fill="#84A1AE" height="70" rx="15" width="70" x="2465" y="-3835" />
<rect fill="#84A1AE" height="70" rx="15" width="70" x="2565" y="-535" />
<rect fill="#84A1AE" height="70" rx="15" width="70" x="2565" y="-735" />
<rect fill="#84A1AE" height="70" rx="15" width="70" x="2565" y="-2535" />
<rect fill="#84A1AE" height="70" rx="15" width="70" x="2565" y="-3835" />
<rect fill="#84A1AE" height="70" rx="15" width="70" x="2665" y="-535" />
<rect fill="#84A1AE" height="70" rx="15" width="70" x="2665" y="-635" />
<rect fill="#84A1AE" height="70" rx="15" width="70" x="2665" y="-1135" />
<rect fill="#84A1AE" height="70" rx="15" width="70" x="2665" y="-1435" />
<rect fill="#84A1AE" height="70" rx="15" width="70" x="2665" y="-2735" />
<rect fill="#84A1AE" height="70" rx="15" width="70" x="2665" y="-3835" />
<rect fill="#84A1AE" height="70" rx="15" width="70" x="2765" y="-535" />
<rect fill="#84A1AE" height="70" rx="15" width="70" x="2765" y="-1635" />
<rect fill="#84A1AE" height="70" rx="15" width="70" x="2765" y="-1835" />
<rect fill="#84A1AE" height="70" rx="15" width="70" x="2765" y="-1935" />
<rect fill="#84A1AE" height="70" rx="15" width="70" x="2765" y="-2235" />
<rect fill="#84A1AE" height="70" rx="15" width="70" x="2765" y="-3735" />
<rect fill="#84A1AE" height="70" rx="15" width="70" x="2765" y="-3835" />
<rect fill="#84A1AE" height="70" rx="15" width="70" x="2865" y="-535" />
<rect fill="#84A1AE" height="70" rx="15" width="70" x="2865" y="-3835" />
<rect fill="#84A1AE" height="70" rx="15" width="70" x="2965" y="-535" />
<rect fill="#84A1AE" height="70" rx="15" width="70" x="2965" y="-2635" />
<rect fill="#84A1AE" height="70" rx="15" width="70" x="2965" y="-3835" />
<rect fill="#84A1AE" height="70" rx="15" width="70" x="3065" y="-535" />
<rect fill="#84A1AE" height="70" rx="15" width="70" x="3065" y="-735" />
<rect fill="#84A1AE" height="70" rx="15" width="70" x="3065" y="-2535" />
<rect fill="#84A1AE" height="70" rx="15" width="70" x="3065" y="-3835" />
<rect fill="#84A1AE" height="70" rx="15" width="70" x="3165" y="-535" />
<rect fill="#84A1AE" height="70" rx="15" width="70" x="3165" y="-835" />
<rect fill="#84A1AE" height="70" rx="15" width="70" x="3165" y="-1935" />
<rect fill="#84A1AE" height="70" rx="15" width="70" x="3165" y="-2735" />
<rect fill="#84A1AE" height="70" rx="15" width="70" x="3165" y="-3135" />
<rect fill="#84A1AE" height="70" rx="15" width="70" x="3165" y="-3835" />
<rect fill="#84A1AE" height="70" rx="15" width="70" x="3265" y="-535" />
<rect fill="#84A1AE" height="70" rx="15" width="70" x="3265" y="-1035" />
<rect fill="#84A1AE" height="70" rx="15" width="70" x="3265" y="-1735" />
<rect fill="#84A1AE" height="70" rx="15" width="70" x="3265" y="-3835" />
<rect fill="#84A1AE" height="70" rx="15" width="70" x="3365" y="-535" />
<rect fill="#84A1AE" height="70" rx="15" width="70" x="3365" y="-1435" />
<rect fill="#84A1AE" height="70" rx="15" width="70" x="3365" y="-1935" />
<rect fill="#84A1AE" height="70" rx="15" width="70" x="3365" y="-2135" />
<rect fill="#84A1AE" height="70" rx="15" width="70" x="3365" y="-3835" />
<rect fill="#84A1AE" height="70" rx="15" width="70" x="3465" y="-535" />
<rect fill="#84A1AE" height="70" rx="15" width="70" x="3465" y="-2635" />
<rect fill="#84A1AE" height="70" rx="15" width="70" x="3465" y="-3835" />
<rect fill="#84A1AE" height="70" rx="15" width="70" x="3565" y="-535" />
<rect fill="#84A1AE" height="70" rx="15" width="70" x="3565" y="-635" />
<rect fill="#84A1AE" height="70" rx="15" width="70" x="3565" y="-2435" />
<rect fill="#84A1AE" height="70" rx="15" width="70" x="3565" y="-3235" />
<rect fill="#84A1AE" height="70" rx="15" width="70" x="3565" y="-3835" />
<rect fill="#84A1AE" height="70" rx="15" width="70" x="3665" y="-535" />
<rect fill="#84A1AE" height="70" rx="15" width="70" x="3665" y="-2135" />
<rect fill="#84A1AE" height="70" rx="15" width="70" x="3665" y="-2835" />
<rect fill="#84A1AE" height="70" rx="15" width="70" x="3665" y="-3135" />
<rect fill="#84A1AE" height="70" rx="15" width="70" x="3665" y="-3735" />
<rect fill="#84A1AE" height="70" rx="15" width="70" x="3665" y="-3835" />
<rect fill="#84A1AE" height="70" rx="15" width="70" x="3765" y="-535" />
<rect fill="#84A1AE" height="70" rx="15" width="70" x="3765" y="-635" />
<rect fill="#84A1AE" height="70" rx="15" width="70" x="3765" y="-735" />
<rect fill="#84A1AE" height="70" rx="15" width="70" x="3765" y="-835" />
<rect fill="#84A1AE" height="70" rx="15" width="70" x="3765" y="-935" />
<rect fill="#84A1AE" height="70" rx="15" width="70" x="3765" y="-1035" />
<rect fill="#84A1AE" height="70" rx="15" width="70" x="3765" y="-1135" />
<rect fill="#84A1AE" height="70" rx="15" width="70" x="3765" y="-1235" />
<rect fill="#84A1AE" height="70" rx="15" width="70" x="3765" y="-1335" />
<rect fill="#84A1AE" height="70" rx="15" width="70" x="3765" y="-1435" />
<rect fill="#84A1AE" height="70" rx="15" width="70" x="3765" y="-1535" />
<rect fill="#84A1AE" height="70" rx="15" width="70" x="3765" y="-1635" />
<rect fill="#84A1AE" height="70" rx="15" width="70" x="3765" y="-1735" />
<rect fill="#84A1AE" height="70" rx="15" width="70" x="3765" y="-1835" />
<rect fill="#84A1AE" height="70" rx="15" width="70" x="3765" y="-1935" />
<rect fill="#84A1AE" height="70" rx="15" width="70" x="3765" y="-2035" />
<rect fill="#84A1AE" height="70" rx="15" width="70" x="3765" y="-2135" />
<rect fill="#84A1AE" height="70" rx="15" width="70" x="3765" y="-2235" />
<rect fill="#84A1AE" height="70" rx="15" width="70" x="3765" y="-2335" />
<rect fill="#84A1AE" height="70" rx="15" width="70" x="3765" y="-2435" />
<rect fill="#84A1AE" height="70" rx="15" width="70" x="3765" y="-2535" />
<rect fill="#84A1AE" height="70" rx="15" width="70" x="3765" y="-2635" />
<rect fill="#84A1AE" height="70" rx="15" width="70" x="3765" y="-2735" />
<rect fill="#84A1AE" height="70" rx="15" width="70" x="3765" y="-2835" />
<rect fill="#84A1AE" height="70" rx="15" width="70" x="3765" y="-2935" />
<rect fill="#84A1AE" height="70" rx="15" width="70" x="3765" y="-3035" />
<rect fill="#84A1AE" height="70" rx="15" width="70" x="3765" y="-3135" />
<rect fill="#84A1AE" height="70" rx="15" width="70" x="3765" y="-3235" />
<rect fill="#84A1AE" height="70" rx="15" width="70" x="3765" y="-3335" />
<rect fill="#84A1AE" height="70" rx="15" width="70" x="3765" y="-3435" />
<rect fill="#84A1AE" height="70" rx="15" width="70" x="3765" y="-3535" />
<rect fill="#84A1AE" height="70" rx="15" width="70" x="3765" y="-3635" />
<rect fill="#84A1AE" height="70" rx="15" width="70" x="3765" y="-3735" />
<rect fill="#84A1AE" height="70" rx="15" width="70" x="3765" y="-3835" />
<circle cx="2500" cy="-1400" fill="#c1433c" r="35"> <animate attributeName="cy" dur="67.48s" keyTimes="0.0;0.0041322314;0.0082644628;0.0123966942;0.0165289256;0.020661157;0.0247933884;0.0289256198;0.0330578512;0.0371900826;0.041322314;0.0454545455;0.0495867769;0.0537190083;0.0578512397;0.0619834711;0.0661157025;0.0702479339;0.0743801653;0.0785123967;0.0826446281;0.1859504132;0.1900826446;0.1983471074;0.2024793388;0.2066115702;0.2272727273;0.2314049587;0.2355371901;0.2396694215;0.2438016529;0.2479338843;0.2520661157;0.2561983471;0.2603305785;0.2644628099;0.2685950413;0.2727272727;0.2768595041;0.2809917355;0.2851239669;0.2892561983;0.2933884298;0.2975206612;0.3223140496;0.326446281;0.3305785124;0.3347107438;0.3388429752;0.3429752066;0.347107438;0.3512396694;0.3553719008;0.3595041322;0.3636363636;0.367768595;0.3719008264;0.3760330579;0.3842975207;0.3884297521;0.3925619835;0.3966942149;0.4008264463;0.4049586777;0.4090909091;0.4132231405;0.4173553719;0.4256198347;0.4297520661;0.4338842975;0.4380165289;0.4421487603;0.4462809917;0.4504132231;0.4545454545;0.458677686;0.4628099174;0.4669421488;0.4710743802;0.4752066116;0.4876033058;0.4917355372;0.4958677686;0.5;0.5289256198;0.5330578512;0.5371900826;0.5454545455;0.5495867769;0.5537190083;0.5619834711;0.5661157025;0.5702479339;0.5743801653;0.5826446281;0.5867768595;0.5909090909;0.5950413223;0.5991735537;0.6033057851;0.6074380165;0.6115702479;0.6157024793;0.6198347107;0.6239669421;0.6487603306;0.652892562;0.6570247934;0.6611570248;0.6652892562;0.6694214876;0.673553719;0.6776859504;0.6818181818;0.6859504132;0.6983471074;0.7024793388;0.7066115702;0.7107438017;0.7314049587;0.7355371901;0.7479338843;0.7520661157;0.7561983471;0.7727272727;0.7768595041;0.7809917355;0.7851239669;0.7892561983;0.7933884298;0.7975206612;0.8016528926;0.8181818182;0.8223140496;0.826446281;0.8305785124;0.8347107438;0.8388429752;0.8429752066;0.847107438;0.8512396694;0.8553719008;0.8595041322;0.8636363636;0.867768595;0.8719008264;0.8760330579;0.8801652893;0.8842975207;0.8884297521;0.8925619835;0.8966942149;0.9008264463;0.9090909091;0.9132231405;0.9173553719;0.9214876033;0.9256198347;0.9297520661;0.9338842975;0.9380165289;0.9421487603;0.9462809917;0.9504132231;0.9545454545;0.958677686;0.9628099174;0.9669421488;0.9710743802;0.9752066116;0.9834710744;0.9876033058;0.9917355372;1.0" repeatCount="indefinite" values="-1400;-1400;-1400;-1500;-1600;-1700;-1800;-1900;-2000;-2100;-2200;-2300;-2400;-2400;-2500;-2600;-2600;-2700;-2800;-2900;-3000;-3000;-2900;-2900;-2800;-2700;-2700;-2600;-2500;-2400;-2300;-2200;-2100;-2000;-1900;-1900;-1800;-1700;-1600;-1500;-1400;-1400;-1300;-1400;-1400;-1500;-1500;-1600;-1700;-1800;-1900;-2000;-2100;-2200;-2200;-2300;-2300;-2400;-2400;-2500;-2500;-2600;-2700;-2800;-2800;-2900;-3000;-3000;-3100;-3100;-3200;-3300;-3400;-3500;-3400;-3300;-3200;-3100;-3000;-2900;-2900;-2800;-2800;-2700;-2700;-2600;-2500;-2500;-2400;-2300;-2300;-2200;-2100;-2000;-2000;-1900;-1800;-1800;-1700;-1700;-1600;-1500;-1500;-1400;-1300;-1300;-1200;-1100;-1000;-1000;-900;-900;-800;-800;-700;-700;-800;-800;-900;-900;-1000;-1000;-1100;-1200;-1200;-1300;-1300;-1400;-1400;-1500;-1500;-1600;-1600;-1700;-1700;-1800;-1900;-2000;-2100;-2100;-2200;-2200;-2300;-2200;-2100;-2000;-2000;-1900;-1900;-1800;-1700;-1700;-1600;-1600;-1500;-1400;-1300;-1200;-1200;-1100;-1100;-1000;-1000;-900;-1000;-1100;-1200;-1200;-1300;-1400;-1400;-1500;-1600;-1600"/>
<animate attributeName="cx" dur="67.48s" keyTimes="0.0;0.0041322314;0.0082644628;0.0495867769;0.0537190083;0.0619834711;0.0661157025;0.0826446281;0.0867768595;0.0909090909;0.0950413223;0.0991735537;0.1033057851;0.1074380165;0.1115702479;0.1157024793;0.1198347107;0.1239669421;0.1280991736;0.132231405;0.1363636364;0.1404958678;0.1446280992;0.1487603306;0.152892562;0.1570247934;0.1611570248;0.1652892562;0.1694214876;0.173553719;0.1776859504;0.1818181818;0.1859504132;0.1900826446;0.194214876;0.1983471074;0.2066115702;0.2107438017;0.2148760331;0.2190082645;0.2231404959;0.2272727273;0.2603305785;0.2644628099;0.2851239669;0.2892561983;0.2975206612;0.3016528926;0.305785124;0.3099173554;0.3140495868;0.3181818182;0.3223140496;0.326446281;0.3305785124;0.3595041322;0.3636363636;0.367768595;0.3719008264;0.3760330579;0.3801652893;0.3842975207;0.3884297521;0.3925619835;0.4049586777;0.4090909091;0.4173553719;0.4214876033;0.4256198347;0.4297520661;0.4338842975;0.4752066116;0.479338843;0.4834710744;0.4876033058;0.4917355372;0.4958677686;0.5;0.5041322314;0.5082644628;0.5123966942;0.5165289256;0.520661157;0.5247933884;0.5289256198;0.5371900826;0.541322314;0.5454545455;0.5537190083;0.5578512397;0.5619834711;0.5743801653;0.5785123967;0.5826446281;0.5909090909;0.5950413223;0.5991735537;0.6033057851;0.6115702479;0.6157024793;0.6239669421;0.6280991736;0.632231405;0.6363636364;0.6404958678;0.6446280992;0.6487603306;0.6611570248;0.6652892562;0.6694214876;0.673553719;0.6776859504;0.6818181818;0.6859504132;0.6900826446;0.694214876;0.6983471074;0.7024793388;0.7066115702;0.7107438017;0.7148760331;0.7190082645;0.7231404959;0.7272727273;0.7314049587;0.7355371901;0.7396694215;0.7438016529;0.7479338843;0.7561983471;0.7603305785;0.7644628099;0.7685950413;0.7727272727;0.7768595041;0.7809917355;0.7851239669;0.7892561983;0.7933884298;0.7975206612;0.8016528926;0.805785124;0.8099173554;0.8140495868;0.8181818182;0.8223140496;0.826446281;0.8429752066;0.847107438;0.8512396694;0.8553719008;0.8719008264;0.8760330579;0.8801652893;0.8842975207;0.8925619835;0.8966942149;0.9008264463;0.9049586777;0.9090909091;0.9256198347;0.9297520661;0.9338842975;0.9380165289;0.9421487603;0.9462809917;0.9628099174;0.9669421488;0.9752066116;0.979338843;0.9834710744;0.9917355372;0.9958677686;1.0" repeatCount="indefinite" values="2500;2500;2600;2600;2700;2700;2800;2800;2900;3000;3100;3200;3300;3400;3500;3400;3300;3200;3100;3000;2900;2800;2700;2600;2500;2400;2300;2200;2100;2000;1900;1800;1700;1700;1600;1500;1500;1400;1300;1200;1100;1000;1000;900;900;1000;1000;1100;1200;1300;1400;1500;1600;1600;1700;1700;1600;1600;1500;1500;1400;1300;1300;1200;1200;1100;1100;1000;900;900;800;800;900;1000;1100;1100;1200;1200;1300;1400;1500;1600;1700;1800;1900;1900;2000;2100;2100;2200;2300;2300;2400;2500;2500;2600;2600;2700;2700;2800;2800;2900;3000;3100;3200;3300;3400;3400;3500;3500;3600;3600;3700;3700;3600;3500;3400;3400;3300;3300;3200;3100;3000;2900;2800;2800;2700;2600;2500;2500;2400;2300;2200;2100;2100;2000;2000;1900;1900;1800;1800;1700;1600;1500;1400;1400;1300;1300;1200;1200;1100;1100;1200;1200;1300;1300;1400;1400;1500;1600;1600;1700;1700;1800;1800;1900;1900;2000;2000;2100;2200;2200;2300;2300"/>
<animate attributeName="visibility" dur="67.48s" keyTimes="0.0;0.0041322314;1.0" repeatCount="indefinite" values="visible;visible;visible"/> </circle>
<circle cx="3000" cy="-1900" fill="#2e6f9e" r="35"> <animate attributeName="cy" dur="67.48s" keyTimes="0.0;0.0041322314;0.0082644628;0.0247933884;0.0289256198;0.0330578512;0.0371900826;0.041322314;0.0454545455;0.0495867769;0.0537190083;0.0578512397;0.0619834711;0.0661157025;0.0702479339;0.0743801653;0.0785123967;0.0950413223;0.0991735537;0.1033057851;0.1074380165;0.1115702479;0.132231405;0.1363636364;0.1404958678;0.1446280992;0.152892562;0.1570247934;0.1652892562;0.1694214876;0.1900826446;0.194214876;0.1983471074;0.2024793388;0.2066115702;0.2107438017;0.2148760331;0.2190082645;0.2231404959;0.2438016529;0.2479338843;0.2561983471;0.2603305785;0.2644628099;0.2685950413;0.2727272727;0.2768595041;0.2809917355;0.2851239669;0.2892561983;0.2933884298;0.2975206612;0.3016528926;0.305785124;0.3099173554;0.3140495868;0.3181818182;0.3223140496;0.326446281;0.3347107438;0.3388429752;0.3429752066;0.347107438;0.3512396694;0.3553719008;0.3595041322;0.3636363636;0.367768595;0.3719008264;0.3760330579;0.3801652893;0.3842975207;0.3884297521;0.3925619835;0.4049586777;0.4090909091;0.4173553719;0.4214876033;0.4256198347;0.4297520661;0.4338842975;0.4380165289;0.4504132231;0.4545454545;0.458677686;0.4628099174;0.4669421488;0.4752066116;0.479338843;0.4876033058;0.4917355372;0.4958677686;0.5;0.520661157;0.5247933884;0.5289256198;0.5330578512;0.5371900826;0.541322314;0.5495867769;0.5537190083;0.5578512397;0.5619834711;0.5661157025;0.5702479339;0.6074380165;0.6115702479;0.6157024793;0.6198347107;0.632231405;0.6363636364;0.6404958678;0.6446280992;0.6487603306;0.652892562;0.6570247934;0.6652892562;0.6694214876;0.673553719;0.6900826446;0.694214876;0.7107438017;0.7148760331;0.7190082645;0.7231404959;0.7272727273;0.7314049587;0.7355371901;0.7396694215;0.7438016529;0.7479338843;0.7520661157;0.7561983471;0.7603305785;0.7644628099;0.7685950413;0.7727272727;0.7768595041;0.7809917355;0.8016528926;0.805785124;0.8181818182;0.8223140496;0.826446281;0.8305785124;0.8347107438;0.8429752066;0.847107438;0.8512396694;0.867768595;0.8719008264;0.8760330579;0.8801652893;0.8842975207;0.8884297521;0.9008264463;0.9049586777;0.9090909091;0.9132231405;0.9173553719;0.9214876033;0.9256198347;0.9297520661;0.9421487603;0.9462809917;0.9504132231;0.9545454545;0.9628099174;0.9669421488;0.9710743802;0.9752066116;0.979338843;0.9917355372;0.9958677686;1.0" repeatCount="indefinite" values="-1900;-1900;-2000;-2000;-2100;-2000;-1900;-2000;-2100;-2200;-2200;-2300;-2200;-2200;-2300;-2400;-2500;-2500;-2600;-2600;-2700;-2600;-2600;-2700;-2700;-2600;-2600;-2700;-2700;-2800;-2800;-2700;-2700;-2600;-2600;-2700;-2800;-2800;-2700;-2700;-2800;-2800;-2700;-2800;-2700;-2800;-2800;-2900;-2900;-2800;-2800;-2700;-2600;-2700;-2800;-2900;-2800;-2900;-3000;-3000;-3100;-3000;-3100;-3100;-3000;-3000;-3100;-3000;-3000;-2900;-2900;-3000;-3000;-3100;-3100;-3000;-3000;-3100;-3100;-3200;-3200;-3300;-3300;-3200;-3300;-3300;-3400;-3400;-3300;-3300;-3400;-3500;-3400;-3400;-3500;-3500;-3600;-3500;-3600;-3600;-3500;-3500;-3400;-3400;-3300;-3300;-3400;-3400;-3300;-3300;-3200;-3100;-3100;-3200;-3200;-3300;-3300;-3400;-3300;-3300;-3200;-3200;-3100;-3000;-2900;-3000;-3000;-2900;-2800;-2700;-2800;-2800;-2900;-2800;-2900;-2800;-2900;-2900;-2800;-2800;-2900;-2900;-2800;-2800;-2700;-2600;-2600;-2500;-2600;-2600;-2700;-2700;-2800;-2800;-2900;-2900;-2800;-2700;-2800;-2800;-2700;-2800;-2700;-2700;-2800;-2900;-2800;-2800;-2900;-2900;-2800;-2900;-2900;-3000;-3000"/>
<animate attributeName="cx" dur="67.48s" keyTimes="0.0;0.0041322314;0.0123966942;0.0165289256;0.020661157;0.0619834711;0.0661157025;0.0785123967;0.0826446281;0.0867768595;0.0991735537;0.1033057851;0.1115702479;0.1157024793;0.1198347107;0.1239669421;0.1280991736;0.132231405;0.1363636364;0.1404958678;0.1446280992;0.1487603306;0.1611570248;0.1652892562;0.1694214876;0.173553719;0.1776859504;0.1818181818;0.1859504132;0.2024793388;0.2066115702;0.2148760331;0.2190082645;0.2231404959;0.2272727273;0.2314049587;0.2355371901;0.2396694215;0.2438016529;0.2479338843;0.2520661157;0.2561983471;0.3305785124;0.3347107438;0.347107438;0.3512396694;0.3553719008;0.3595041322;0.3760330579;0.3801652893;0.3842975207;0.3884297521;0.3925619835;0.3966942149;0.4008264463;0.4049586777;0.4214876033;0.4256198347;0.4297520661;0.4338842975;0.4380165289;0.4421487603;0.4462809917;0.4504132231;0.4710743802;0.4752066116;0.479338843;0.4834710744;0.4876033058;0.5;0.5041322314;0.5165289256;0.520661157;0.541322314;0.5454545455;0.5495867769;0.5537190083;0.5578512397;0.5619834711;0.5661157025;0.5702479339;0.5743801653;0.5785123967;0.5826446281;0.5867768595;0.5909090909;0.5950413223;0.6115702479;0.6157024793;0.6198347107;0.6239669421;0.6280991736;0.632231405;0.6487603306;0.652892562;0.673553719;0.6776859504;0.6818181818;0.6859504132;0.7272727273;0.7314049587;0.7479338843;0.7520661157;0.7727272727;0.7768595041;0.7809917355;0.7851239669;0.7892561983;0.7933884298;0.7975206612;0.8016528926;0.805785124;0.8099173554;0.8223140496;0.826446281;0.8388429752;0.8429752066;0.8719008264;0.8760330579;0.8966942149;0.9008264463;0.9297520661;0.9338842975;0.9380165289;0.958677686;0.9628099174;0.9669421488;0.9710743802;0.979338843;0.9834710744;0.9876033058;0.9917355372;1.0" repeatCount="indefinite" values="3000;3000;3000;3100;3000;3000;2900;2900;2800;2700;2700;2600;2600;2500;2400;2300;2200;2100;2100;2000;2000;2100;2100;2000;2000;1900;1800;1800;1900;1900;1800;1800;1900;1900;1800;1700;1700;1800;1700;1700;1800;1700;1700;1800;1800;1900;1900;1800;1800;1900;1900;2000;2000;1900;1800;1700;1700;1600;1600;1700;1700;1800;1700;1600;1600;1500;1500;1600;1500;1500;1400;1400;1500;1500;1400;1300;1300;1400;1400;1500;1500;1600;1700;1800;1700;1600;1500;1500;1600;1600;1500;1500;1600;1600;1700;1700;1600;1700;1800;1800;1900;1900;1800;1800;1700;1700;1600;1600;1700;1700;1600;1600;1500;1500;1600;1600;1500;1500;1600;1600;1700;1700;1600;1700;1700;1800;1800;1900;1900;2000;2100;2000;2000"/>
<animate attributeName="visibility" dur="67.48s" keyTimes="0.0;0.0041322314;1.0" repeatCount="indefinite" values="visible;visible;visible"/> </circle>
<circle cx="3500" cy="-3000" fill="none" r="35" stroke="#c1433c" stroke-width="10"> <animate attributeName="cy" dur="67.48s" keyTimes="0.0;0.0041322314;0.1074380165;0.1115702479;0.2892561983;0.2933884298;0.326446281;0.3305785124;0.3925619835;0.3966942149;0.4462809917;0.4504132231;0.6818181818;0.6859504132;0.8553719008;0.8595041322;0.9462809917;0.9504132231;1.0" repeatCount="indefinite" values="-3000;-3000;-3000;-1300;-1300;-1500;-1500;-2600;-2600;-3500;-3500;-700;-700;-2300;-2300;-900;-900;-1600;-1600"/>
<animate attributeName="cx" dur="67.48s" keyTimes="0.0;0.0041322314;0.1074380165;0.1115702479;0.2892561983;0.2933884298;0.326446281;0.3305785124;0.3925619835;0.3966942149;0.4462809917;0.4504132231;0.6818181818;0.6859504132;0.8553719008;0.8595041322;0.9462809917;0.9504132231;1.0" repeatCount="indefinite" values="3500;3500;3500;1000;1000;1700;1700;1200;1200;800;800;3700;3700;1100;1100;1900;1900;2500;2500"/>
<animate attributeName="visibility" dur="67.48s" keyTimes="0.0;0.0041322314;1.0" repeatCount="indefinite" values="visible;visible;visible"/> </circle>
<circle cx="2600" cy="-2600" fill="none" r="35" stroke="#2e6f9e" stroke-width="10"> <animate attributeName="cy" dur="67.48s" keyTimes="0.0;0.0041322314;0.0991735537;0.1033057851;0.826446281;0.8305785124;1.0" repeatCount="indefinite" values="-2600;-2600;-2600;-2700;-2700;-3500;-3500"/>
<animate attributeName="cx" dur="67.48s" keyTimes="0.0;0.0041322314;0.0991735537;0.1033057851;0.826446281;0.8305785124;1.0" repeatCount="indefinite" values="2600;2600;2600;1600;1600;3200;3200"/>
<animate attributeName="visibility" dur="67.48s" keyTimes="0.0;0.0041322314;1.0" repeatCount="indefinite" values="visible;visible;visible"/> </circle>
</svg>