<?xml version="1.0" encoding="UTF-8"?>
        <svg xmlns="http://www.w3.org/2000/svg" xmlns:xlink="http://www.w3.org/1999/xlink"
             width="430" height="430" viewBox="0 -4300 4300 4300">

<defs>

</defs>

<rect fill="#84A1AE" height="70" rx="15" width="70" x="465" y="-535" />
<rect fill="#84A1AE" height="70" rx="15" width="70" x="465" y="-635" />
<rect fill="#84A1AE" height="70" rx="15" width="70" x="465" y="-735" />
<rect fill="#84A1AE" height="70" rx="15" width="70" x="465" y="-835" />
<rect fill="#84A1AE" height="70" rx="15" width="70" x="465" y="-935" />
<rect fill="#84A1AE" height="70" rx="15" width="70" x="465" y="-1035" />
<rect fill="#84A1AE" height="70" rx="15" width="70" x="465" y="-1135" />
<rect fill="#84A1AE" height="70" rx="15" width="70" x="465" y="-1235" />
<rect fill="#84A1AE" height="70" rx="15" width="70" x="465" y="-1335" />
<rect fill="#84A1AE" height="70" rx="15" width="70" x="465" y="-1435" />
<rect fill="#84A1AE" height="70" rx="15" width="70" x="465" y="-1535" />
<rect fill="#84A1AE" height="70" rx="15" width="70" x="465" y="-1635" />
<rect fill="#84A1AE" height="70" rx="15" width="70" x="465" y="-1735" />
<rect fill="#84A1AE" height="70" rx="15" width="70" x="465" y="-1835" />
<rect fill="#84A1AE" height="70" rx="15" width="70" x="465" y="-1935" />
<rect fill="#84A1AE" height="70" rx="15" width="70" x="465" y="-2035" />
<rect fill="#84A1AE" height="70" rx="15" width="70" x="465" y="-2135" />
<rect fill="#84A1AE" height="70" rx="15" width="70" x="465" y="-2235" />
<rect fill="#84A1AE" height="70" rx="15" width="70" x="465" y="-2335" />
<rect fill="#84A1AE" height="70" rx="15" width="70" x="465" y="-2435" />
<rect fill="#84A1AE" height="70" rx="15" width="70" x="465" y="-2535" />
<rect fill="#84A1AE" height="70" rx="15" width="70" x="465" y="-2635" />
<rect fill="#84A1AE" height="70" rx="15" width="70" x="465" y="-2735" />
<rect fill="#84A1AE" height="70" rx="15" width="70" x="465" y="-2835" />
<rect fill="#84A1AE" height="70" rx="15" width="70" x="465" y="-2935" />
<rect fill="#84A1AE" height="70" rx="15" width="70" x="465" y="-3035" />
<rect fill="#84A1AE" height="70" rx="15" width="70" x="465" y="-3135" />
<rect fill="#84A1AE" height="70" rx="15" width="70" x="465" y="-3235" />
<rect fill="#84A1AE" height="70" rx="15" width="70" x="465" y="-3335" />
<rect fill="#84A1AE" height="70" rx="15" width="70" x="465" y="-3435" />
<rect fill="#84A1AE" height="70" rx="15" width="70" x="465" y="-3535" />
<rect fill="#84A1AE" height="70" rx="15" width="70" x="465" y="-3635" />
<rect fill="#84A1AE" height="70" rx="15" width="70" x="465" y="-3735" />
<rect fill="#84A1AE" height="70" rx="15" width="70" x="465" y="-3835" />
<rect fill="#84A1AE" height="70" rx="15" width="70" x="565" y="-535" />
<rect fill="#84A1AE" height="70" rx="15" width="70" x="565" y="-1635" />
<rect fill="#84A1AE" height="70" rx="15" width="70" x="565" y="-1935" />
<rect fill="#84A1AE" height="70" rx="15" width="70" x="565" y="-2735" />
<rect fill="#84A1AE" height="70" rx="15" width="70" x="565" y="-3835" />
<rect fill="#84A1AE" height="70" rx="15" width="70" x="665" y="-535" />
<rect fill="#84A1AE" height="70" rx="15" width="70" x="665" y="-1035" />
<rect fill="#84A1AE" height="70" rx="15" width="70" x="665" y="-2535" />
<rect fill="#84A1AE" height="70" rx="15" width="70" x="665" y="-3035" />
<rect fill="#84A1AE" height="70" rx="15" width="70" x="665" y="-3235" />
<rect fill="#84A1AE" height="70" rx="15" width="70" x="665" y="-3835" />
<rect fill="#84A1AE" height="70" rx="15" width="70" x="765" y="-535" />
<rect fill="#84A1AE" height="70" rx="15" width="70" x="765" y="-635" />
<rect fill="#84A1AE" height="70" rx="15" width="70" x="765" y="-3835" />
<rect fill="#84A1AE" height="70" rx="15" width="70" x="865" y="-535" />
<rect fill="#84A1AE" height="70" rx="15" width="70" x="865" y="-2435" />
<rect fill="#84A1AE" height="70" rx="15" width="70" x="865" y="-2535" />
<rect fill="#84A1AE" height="70" rx="15" width="70" x="865" y="-3335" />
<rect fill="#84A1AE" height="70" rx="15" width="70" x="865" y="-3435" />
<rect fill="#84A1AE" height="70" rx="15" width="70" x="865" y="-3835" />
<rect fill="#84A1AE" height="70" rx="15" width="70" x="965" y="-535" />
<rect fill="#84A1AE" height="70" rx="15" width="70" x="965" y="-735" />
<rect fill="#84A1AE" height="70" rx="15" width="70" x="965" y="-1635" />
<rect fill="#84A1AE" height="70" rx="15" width="70" x="965" y="-1835" />
<rect fill="#84A1AE" height="70" rx="15" width="70" x="965" y="-2835" />
<rect fill="#84A1AE" height="70" rx="15" width="70" x="965" y="-3435" />
<rect fill="#84A1AE" height="70" rx="15" width="70" x="965" y="-3835" />
<rect fill="#84A1AE" height="70" rx="15" width="70" x="1065" y="-535" />
<rect fill="#84A1AE" height="70" rx="15" width="70" x="1065" y="-1135" />
<rect fill="#84A1AE" height="70" rx="15" width="70" x="1065" y="-1835" />
<rect fill="#84A1AE" height="70" rx="15" width="70" x="1065" y="-3735" />
<rect fill="#84A1AE" height="70" rx="15" width="70" x="1065" y="-3835" />
<rect fill="#84A1AE" height="70" rx="15" width="70" x="1165" y="-535" />
<rect fill="#84A1AE" height="70" rx="15" width="70" x="1165" y="-635" />
<rect fill="#84A1AE" height="70" rx="15" width="70" x="1165" y="-735" />
<rect fill="#84A1AE" height="70" rx="15" width="70" x="1165" y="-1535" />
<rect fill="#84A1AE" height="70" rx="15" width="70" x="1165" y="-3835" />
<rect fill="#84A1AE" height="70" rx="15" width="70" x="1265" y="-535" />
<rect fill="#84A1AE" height="70" rx="15" width="70" x="1265" y="-2835" />
<rect fill="#84A1AE" height="70" rx="15" width="70" x="1265" y="-3435" />
<rect fill="#84A1AE" height="70" rx="15" width="70" x="1265" y="-3835" />
<rect fill="#84A1AE" height="70" rx="15" width="70" x="1365" y="-535" />
<rect fill="#84A1AE" height="70" rx="15" width="70" x="1365" y="-835" />
<rect fill="#84A1AE" height="70" rx="15" width="70" x="1365" y="-935" />
<rect fill="#84A1AE" height="70" rx="15" width="70" x="1365" y="-1035" />
<rect fill="#84A1AE" height="70" rx="15" width="70" x="1365" y="-1935" />
<rect fill="#84A1AE" height="70" rx="15" width="70" x="1365" y="-2335" />
<rect fill="#84A1AE" height="70" rx="15" width="70" x="1365" y="-2635" />
<rect fill="#84A1AE" height="70" rx="15" width="70" x="1365" y="-2835" />
<rect fill="#84A1AE" height="70" rx="15" width="70" x="1365" y="-2935" />
<rect fill="#84A1AE" height="70" rx="15" width="70" x="1365" y="-3035" />
<rect fill="#84A1AE" height="70" rx="15" width="70" x="1365" y="-3335" />
<rect fill="#84A1AE" height="70" rx="15" width="70" x="1365" y="-3835" />
<rect fill="#84A1AE" height="70" rx="15" width="70" x="1465" y="-535" />
<rect fill="#84A1AE" height="70" rx="15" width="70" x="1465" y="-1235" />
<rect fill="#84A1AE" height="70" rx="15" width="70" x="1465" y="-1535" />
<rect fill="#84A1AE" height="70" rx="15" width="70" x="1465" y="-2035" />
<rect fill="#84A1AE" height="70" rx="15" width="70" x="1465" y="-3135" />
<rect fill="#84A1AE" height="70" rx="15" width="70" x="1465" y="-3235" />
<rect fill="#84A1AE" height="70" rx="15" width="70" x="1465" y="-3835" />
<rect fill="#84A1AE" height="70" rx="15" width="70" x="1565" y="-535" />
<rect fill="#84A1AE" height="70" rx="15" width="70" x="1565" y="-3035" />
<rect fill="#84A1AE" height="70" rx="15" width="70" x="1565" y="-3835" />
<rect fill="#84A1AE" height="70" rx="15" width="70" x="1665" y="-535" />
<rect fill="#84A1AE" height="70" rx="15" width="70" x="1665" y="-3735" />
<rect fill="#84A1AE" height="70" rx="15" width="70" x="1665" y="-3835" />
<rect fill="#84A1AE" height="70" rx="15" width="70" x="1765" y="-535" />
<rect fill="#84A1AE" height="70" rx="15" width="70" x="1765" y="-1235" />
<rect fill="#84A1AE" height="70" rx="15" width="70" x="1765" y="-3835" />
<rect fill="#84A1AE" height="70" rx="15" width="70" x="1865" y="-535" />
<rect fill="#84A1AE" height="70" rx="15" width="70" x="1865" y="-735" />
<rect fill="#84A1AE" height="70" rx="15" width="70" x="1865" y="-1335" />
<rect fill="#84A1AE" height="70" rx="15" width="70" x="1865" y="-3235" />
<rect fill="#84A1AE" height="70" rx="15" width="70" x="1865" y="-3435" />
<rect fill="#84A1AE" height="70" rx="15" width="70" x="1865" y="-3835" />
<rect fill="#84A1AE" height="70" rx="15" width="70" x="1965" y="-535" />
<rect fill="#84A1AE" height="70" rx="15" width="70" x="1965" y="-635" />
<rect fill="#84A1AE" height="70" rx="15" width="70" x="1965" y="-1835" />
<rect fill="#84A1AE" height="70" rx="15" width="70" x="1965" y="-1935" />
<rect fill="#84A1AE" height="70" rx="15" width="70" x="1965" y="-2135" />
<rect fill="#84A1AE" height="70" rx="15" width="70" x="1965" y="-2335" />
<rect fill="#84A1AE" height="70" rx="15" width="70" x="1965" y="-2435" />
<rect fill="#84A1AE" height="70" rx="15" width="70" x="1965" y="-3335" />
<rect fill="#84A1AE" height="70" rx="15" width="70" x="1965" y="-3835" />
<rect fill="#84A1AE" height="70" rx="15" width="70" x="2065" y="-535" />
<rect fill="#84A1AE" height="70" rx="15" width="70" x="2065" y="-1535" />
<rect fill="#84A1AE" height="70" rx="15" width="70" x="2065" y="-1635" />
<rect fill="#84A1AE" height="70" rx="15" width="70" x="2065" y="-2135" />
<rect fill="#84A1AE" height="70" rx="15" width="70" x="2065" y="-3835" />
<rect fill="#84A1AE" height="70" rx="15" width="70" x="2165" y="-535" />
<rect fill="#84A1AE" height="70" rx="15" width="70" x="2165" y="-935" />
<rect fill="#84A1AE" height="70" rx="15" width="70" x="2165" y="-1335" />
<rect fill="#84A1AE" height="70" rx="15" width="70" x="2165" y="-1835" />
<rect fill="#84A1AE" height="70" rx="15" width="70" x="2165" y="-3835" />
<rect fill="#84A1AE" height="70" rx="15" width="70" x="2265" y="-535" />
<rect fill="#84A1AE" height="70" rx="15" width="70" x="2265" y="-935" />
<rect fill="#84A1AE" height="70" rx="15" width="70" x="2265" y="-1135" />
<rect fill="#84A1AE" height="70" rx="15" width="70" x="2265" y="-2535" />
<rect fill="#84A1AE" height="70" rx="15" width="70" x="2265" y="-3235" />
<rect fill="#84A1AE" height="70" rx="15" width="70" x="2265" y="-3835" />
<rect fill="#84A1AE" height="70" rx="15" width="70" x="2365" y="-535" />
<rect fill="#84A1AE" height="70" rx="15" width="70" x="2365" y="-935" />
<rect fill="#84A1AE" height="70" rx="15" width="70" x="2365" y="-1035" />
<rect fill="#84A1AE" height="70" rx="15" width="70" x="2365" y="-3835" />
<rect fill="#84A1AE" height="70" rx="15" width="70" x="2465" y="-535" />
<rect fill="#84A1AE" height="70" rx="15" width="70" x="2465" y="-935" />
<rect fill="#84A1AE" height="70" rx="15" width="70" x="2465" y="-1535" />
<rect fill="#84A1AE" height="70" rx="15" width="70" x="2465" y="-2335" />
<rect fill="#84A1AE" height="70" rx="15" width="70" x="2465" y="-2735" />
<rect fill="#84A1AE" height="70" rx="15" width="70" x="2465" y="-3835" />
<rect fill="#84A1AE" height="70" rx="15" width="70" x="2565" y="-535" />
<rect fill="#84A1AE" height="70" rx="15" width="70" x="2565" y="-735" />
<rect fill="#84A1AE" height="70" rx="15" width="70" x="2565" y="-2535" />
<rect fill="#84A1AE" height="70" rx="15" width="70" x="2565" y="-3835" />
<rect fill="#84A1AE" height="70" rx="15" width="70" x="2665" y="-535" />
<rect fill="#84A1AE" height="70" rx="15" width="70" x="2665" y="-635" />
<rect fill="#84A1AE" height="70" rx="15" width="70" x="2665" y="-1135" />
<rect fill="#84A1AE" height="70" rx="15" width="70" x="2665" y="-1435" />
<rect fill="#84A1AE" height="70" rx="15" width="70" x="2665" y="-2735" />
<rect fill="#84A1AE" height="70" rx="15" width="70" x="2665" y="-3835" />
<rect fill="#84A1AE" height="70" rx="15" width="70" x="2765" y="-535" />
<rect fill="#84A1AE" height="70" rx="15" width="70" x="2765" y="-1635" />
<rect fill="#84A1AE" height="70" rx="15" width="70" x="2765" y="-1835" />
<rect fill="#84A1AE" height="70" rx="15" width="70" x="2765" y="-1935" />
<rect fill="#84A1AE" height="70" rx="15" width="70" x="2765" y="-2235" />
<rect fill="#84A1AE" height="70" rx="15" width="70" x="2765" y="-3735" />
<rect fill="#84A1AE" height="70" rx="15" width="70" x="2765" y="-3835" />
<rect fill="#84A1AE" height="70" rx="15" width="70" x="2865" y="-535" />
<rect fill="#84A1AE" height="70" rx="15" width="70" x="2865" y="-3835" />
<rect fill="#84A1AE" height="70" rx="15" width="70" x="2965" y="-535" />
<rect fill="#84A1AE" height="70" rx="15" width="70" x="2965" y="-2635" />
<rect fill="#84A1AE" height="70" rx="15" width="70" x="2965" y="-3835" />
<rect fill="#84A1AE" height="70" rx="15" width="70" x="3065" y="-535" />
<rect fill="#84A1AE" height="70" rx="15" width="70" x="3065" y="-735" />
<rect fill="#84A1AE" height="70" rx="15" width="70" x="3065" y="-2535" />
<rect fill="#84A1AE" height="70" rx="15" width="70" x="3065" y="-3835" />
<rect fill="#84A1AE" height="70" rx="15" width="70" x="3165" y="-535" />
<rect fill="#84A1AE" height="70" rx="15" width="70" x="3165" y="-835" />
<rect fill="#84A1AE" height="70" rx="15" width="70" x="3165" y="-1935" />
<rect fill="#84A1AE" height="70" rx="15" width="70" x="3165" y="-2735" />
<rect fill="#84A1AE" height="70" rx="15" width="70" x="3165" y="-3135" />
<rect fill="#84A1AE" height="70" rx="15" width="70" x="3165" y="-3835" />
<rect fill="#84A1AE" height="70" rx="15" width="70" x="3265" y="-535" />
<rect fill="#84A1AE" height="70" rx="15" width="70" x="3265" y="-1035" />
<rect fill="#84A1AE" height="70" rx="15" width="70" x="3265" y="-1735" />
<rect fill="#84A1AE" height="70" rx="15" width="70" x="3265" y="-3835" />
<rect fill="#84A1AE" height="70" rx="15" width="70" x="3365" y="-535" />
<rect fill="#84A1AE" height="70" rx="15" width="70" x="3365" y="-1435" />
<rect fill="#84A1AE" height="70" rx="15" width="70" x="3365" y="-1935" />
<rect fill="#84A1AE" height="70" rx="15" width="70" x="3365" y="-2135" />
<rect fill="#84A1AE" height="70" rx="15" width="70" x="3365" y="-3835" />
<rect fill="#84A1AE" height="70" rx="15" width="70" x="3465" y="-535" />
<rect fill="#84A1AE" height="70" rx="15" width="70" x="3465" y="-2635" />
<rect fill="#84A1AE" height="70" rx="15" width="70" x="3465" y="-3835" />
<rect fill="#84A1AE" height="70" rx="15" width="70" x="3565" y="-535" />
<rect fill="#84A1AE" height="70" rx="15" width="70" x="3565" y="-635" />
<rect fill="#84A1AE" height="70" rx="15" width="70" x="3565" y="-2435" />
<rect fill="#84A1AE" height="70" rx="15" width="70" x="3565" y="-3235" />
<rect fill="#84A1AE" height="70" rx="15" width="70" x="3565" y="-3835" />
<rect fill="#84A1AE" height="70" rx="15" width="70" x="3665" y="-535" />
<rect fill="#84A1AE" height="70" rx="15" width="70" x="3665" y="-2135" />
<rect fill="#84A1AE" height="70" rx="15" width="70" x="3665" y="-2835" />
<rect fill="#84A1AE" height="70" rx="15" width="70" x="3665" y="-3135" />
<rect fill="#84A1AE" height="70" rx="15" width="70" x="3665" y="-3735" />
<rect fill="#84A1AE" height="70" rx="15" width="70" x="3665" y="-3835" />
<rect fill="#84A1AE" height="70" rx="15" width="70" x="3765" y="-535" />
<rect fill="#84A1AE" height="70" rx="15" width="70" x="3765" y="-635" />
<rect fill="#84A1AE" height="70" rx="15" width="70" x="3765" y="-735" />
<rect fill="#84A1AE" height="70" rx="15" width="70" x="3765" y="-835" />
<rect fill="#84A1AE" height="70" rx="15" width="70" x="3765" y="-935" />
<rect fill="#84A1AE" height="70" rx="15" width="70" x="3765" y="-1035" />
<rect fill="#84A1AE" height="70" rx="15" width="70" x="3765" y="-1135" />
<rect fill="#84A1AE" height="70" rx="15" width="70" x="3765" y="-1235" />
<rect fill="#84A1AE" height="70" rx="15" width="70" x="3765" y="-1335" />
<rect fill="#84A1AE" height="70" rx="15" width="70" x="3765" y="-1435" />
<rect fill="#84A1AE" height="70" rx="15" width="70" x="3765" y="-1535" />
<rect fill="#84A1AE" height="70" rx="15" width="70" x="3765" y="-1635" />
<rect fill="#84A1AE" height="70" rx="15" width="70" x="3765" y="-1735" />
<rect fill="#84A1AE" height="70" rx="15" width="70" x="3765" y="-1835" />
<rect fill="#84A1AE" height="70" rx="15" width="70" x="3765" y="-1935" />
<rect fill="#84A1AE" height="70" rx="15" width="70" x="3765" y="-2035" />
<rect fill="#84A1AE" height="70" rx="15" width="70" x="3765" y="-2135" />
<rect fill="#84A1AE" height="70" rx="15" width="70" x="3765" y="-2235" />
<rect fill="#84A1AE" height="70" rx="15" width="70" x="3765" y="-2335" />
<rect fill="#84A1AE" height="70" rx="15" width="70" x="3765" y="-2435" />
<rect fill="#84A1AE" height="70" rx="15" width="70" x="3765" y="-2535" />
<rect fill="#84A1AE" height="70" rx="15" width="70" x="3765" y="-2635" />
<rect fill="#84A1AE" height="70" rx="15" width="70" x="3765" y="-2735" />
<rect fill="#84A1AE" height="70" rx="15" width="70" x="3765" y="-2835" />
<rect fill="#84A1AE" height="70" rx="15" width="70" x="3765" y="-2935" />
<rect fill="#84A1AE" height="70" rx="15" width="70" x="3765" y="-3035" />
<rect fill="#84A1AE" height="70" rx="15" width="70" x="3765" y="-3135" />
<rect fill="#84A1AE" height="70" rx="15" width="70" x="3765" y="-3235" />
<rect fill="#84A1AE" height="70" rx="15" width="70" x="3765" y="-3335" />
<rect fill="#84A1AE" height="70" rx="15" width="70" x="3765" y="-3435" />
<rect fill="#84A1AE" height="70" rx="15" width="70" x="3765" y="-3535" />
<rect fill="#84A1AE" height="70" rx="15" width="70" x="3765" y="-3635" />
<rect fill="#84A1AE" height="70" rx="15" width="70" x="3765" y="-3735" />
<rect fill="#84A1AE" height="70" rx="15" width="70" x="3765" y="-3835" />
<circle cx="2500" cy="-1400" fill="#c1433c" r="35"> <animate attributeName="cy" dur="117.88000000000001s" keyTimes="0.0;0.0023696682;0.0047393365;0.0071090047;0.009478673;0.0118483412;0.0142180095;0.0165876777;0.018957346;0.0213270142;0.0236966825;0.0260663507;0.028436019;0.0308056872;0.0331753555;0.0379146919;0.0402843602;0.0473933649;0.0497630332;0.0521327014;0.0545023697;0.0568720379;0.0592417062;0.0829383886;0.0853080569;0.0876777251;0.0900473934;0.0924170616;0.0947867299;0.0971563981;0.0995260664;0.1018957346;0.1066350711;0.1090047393;0.1161137441;0.1184834123;0.1255924171;0.1279620853;0.1303317536;0.1327014218;0.1374407583;0.1398104265;0.154028436;0.1563981043;0.163507109;0.1658767773;0.1682464455;0.172985782;0.1753554502;0.1777251185;0.1895734597;0.191943128;0.1943127962;0.2156398104;0.2180094787;0.2203791469;0.2322274882;0.2345971564;0.2535545024;0.2559241706;0.2630331754;0.2654028436;0.2677725118;0.2701421801;0.2725118483;0.2748815166;0.2772511848;0.2796208531;0.3033175355;0.3056872038;0.3127962085;0.3151658768;0.3222748815;0.3246445498;0.327014218;0.3293838863;0.336492891;0.3388625592;0.3436018957;0.345971564;0.36492891;0.3672985782;0.3696682464;0.3720379147;0.3744075829;0.3767772512;0.3886255924;0.3909952607;0.3933649289;0.3957345972;0.4028436019;0.4052132701;0.4075829384;0.4099526066;0.4123222749;0.4146919431;0.4170616114;0.4194312796;0.4218009479;0.4241706161;0.4265402844;0.4289099526;0.4312796209;0.4336492891;0.4360189573;0.4383886256;0.4407582938;0.4431279621;0.4454976303;0.4478672986;0.4526066351;0.4549763033;0.4573459716;0.4597156398;0.4620853081;0.4644549763;0.4668246445;0.4691943128;0.471563981;0.4739336493;0.4763033175;0.5;0.5023696682;0.5047393365;0.5071090047;0.509478673;0.5118483412;0.5142180095;0.5165876777;0.5213270142;0.5236966825;0.5260663507;0.5331753555;0.5355450237;0.5379146919;0.5402843602;0.5568720379;0.5592417062;0.5616113744;0.5710900474;0.5734597156;0.5758293839;0.5781990521;0.5805687204;0.5900473934;0.5924170616;0.5947867299;0.5971563981;0.5995260664;0.6018957346;0.6042654028;0.6066350711;0.6137440758;0.6161137441;0.6184834123;0.6208530806;0.6232227488;0.6255924171;0.6279620853;0.6303317536;0.6327014218;0.6398104265;0.6421800948;0.6563981043;0.6587677725;0.6611374408;0.663507109;0.6706161137;0.672985782;0.6753554502;0.6777251185;0.6800947867;0.682464455;0.6848341232;0.6872037915;0.6895734597;0.691943128;0.6943127962;0.6966824645;0.6990521327;0.7014218009;0.7109004739;0.7132701422;0.7156398104;0.7180094787;0.7393364929;0.7417061611;0.7440758294;0.7464454976;0.7511848341;0.7535545024;0.7606635071;0.7630331754;0.7654028436;0.7677725118;0.7725118483;0.7748815166;0.86492891;0.8672985782;0.8696682464;0.8957345972;0.8981042654;0.9004739336;0.9075829384;0.9099526066;0.9123222749;0.9146919431;0.9170616114;0.9194312796;0.9218009479;0.9265402844;0.9289099526;0.9312796209;0.9360189573;0.9383886256;0.9431279621;0.9454976303;0.9478672986;0.9502369668;0.9526066351;0.9549763033;0.9620853081;0.9644549763;0.9668246445;0.971563981;0.9739336493;0.9763033175;0.9786729858;0.9881516588;0.990521327;0.9928909953;0.9952606635;1.0" repeatCount="indefinite" values="-1400;-1400;-1400;-1500;-1600;-1700;-1800;-1900;-2000;-1900;-2000;-2100;-2200;-2300;-2400;-2400;-2500;-2500;-2600;-2700;-2800;-2900;-3000;-3000;-2900;-2800;-2700;-2700;-2800;-2900;-3000;-2900;-2900;-3000;-3000;-2900;-2900;-3000;-3000;-3100;-3100;-3000;-3000;-2900;-2900;-2800;-2700;-2700;-2800;-2700;-2700;-2800;-2700;-2700;-2600;-2700;-2700;-2600;-2600;-2500;-2500;-2400;-2300;-2400;-2400;-2500;-2500;-2400;-2400;-2300;-2300;-2400;-2400;-2300;-2300;-2200;-2200;-2100;-2100;-2200;-2200;-2300;-2400;-2400;-2300;-2200;-2200;-2100;-2000;-1900;-1900;-2000;-1900;-1800;-1700;-1800;-1700;-1800;-1700;-1800;-1700;-1600;-1700;-1800;-1800;-1700;-1600;-1700;-1800;-1900;-1900;-2000;-2100;-2200;-2200;-2300;-2400;-2500;-2600;-2600;-2700;-2700;-2800;-2900;-2800;-2900;-2900;-2800;-2900;-2900;-3000;-3100;-3100;-3200;-3300;-3400;-3400;-3300;-3400;-3400;-3300;-3300;-3200;-3300;-3300;-3400;-3400;-3300;-3300;-3200;-3100;-3000;-3000;-3100;-3200;-3300;-3300;-3400;-3400;-3500;-3400;-3400;-3300;-3300;-3400;-3400;-3500;-3500;-3400;-3300;-3200;-3100;-3000;-2900;-2800;-2700;-2600;-2600;-2500;-2400;-2300;-2300;-2200;-2100;-2000;-2000;-2100;-2100;-2000;-2000;-1900;-1900;-2000;-2100;-2000;-2000;-1900;-1900;-1800;-1900;-1900;-1800;-1900;-1900;-1800;-1800;-1900;-1900;-1800;-1900;-1900;-1800;-1900;-1900;-1800;-1800;-1900;-2000;-2100;-2100;-2200;-2200;-2100;-2000;-2000;-2100;-2100;-2000;-2000;-2100;-2100;-2000;-2000"/>
<animate attributeName="cx" dur="117.88000000000001s" keyTimes="0.0;0.0023696682;0.0047393365;0.0331753555;0.0355450237;0.0379146919;0.0450236967;0.0473933649;0.0592417062;0.0616113744;0.0639810427;0.0663507109;0.0687203791;0.0710900474;0.0734597156;0.0758293839;0.0781990521;0.0805687204;0.0900473934;0.0924170616;0.1018957346;0.1042654028;0.1066350711;0.1090047393;0.1113744076;0.1137440758;0.1161137441;0.1184834123;0.1208530806;0.1232227488;0.1255924171;0.1279620853;0.1303317536;0.13507109;0.1374407583;0.1398104265;0.1421800948;0.144549763;0.1469194313;0.1492890995;0.1516587678;0.154028436;0.1563981043;0.1587677725;0.1611374408;0.163507109;0.1682464455;0.1706161137;0.172985782;0.1777251185;0.1800947867;0.182464455;0.1848341232;0.1872037915;0.1895734597;0.1943127962;0.1966824645;0.1990521327;0.2014218009;0.2037914692;0.2061611374;0.2085308057;0.2109004739;0.2132701422;0.2156398104;0.2203791469;0.2227488152;0.2251184834;0.2274881517;0.2298578199;0.2322274882;0.2345971564;0.2369668246;0.2393364929;0.2417061611;0.2440758294;0.2464454976;0.2488151659;0.2511848341;0.2535545024;0.2606635071;0.2630331754;0.2701421801;0.2725118483;0.2796208531;0.2819905213;0.2843601896;0.2867298578;0.2890995261;0.2914691943;0.2938388626;0.2962085308;0.2985781991;0.3009478673;0.308056872;0.3104265403;0.3127962085;0.3151658768;0.317535545;0.3199052133;0.3222748815;0.3246445498;0.327014218;0.3293838863;0.3317535545;0.3341232227;0.336492891;0.3388625592;0.3412322275;0.3436018957;0.345971564;0.3483412322;0.3507109005;0.3530805687;0.355450237;0.3578199052;0.3601895735;0.3625592417;0.36492891;0.3696682464;0.3720379147;0.3767772512;0.3791469194;0.3815165877;0.3838862559;0.3862559242;0.3886255924;0.3957345972;0.3981042654;0.4004739336;0.4028436019;0.4336492891;0.4360189573;0.4478672986;0.4502369668;0.4597156398;0.4620853081;0.471563981;0.4739336493;0.4763033175;0.4786729858;0.481042654;0.4834123223;0.4857819905;0.4881516588;0.490521327;0.4928909953;0.4952606635;0.4976303318;0.5;0.509478673;0.5118483412;0.5165876777;0.518957346;0.5213270142;0.5260663507;0.528436019;0.5308056872;0.5426540284;0.5450236967;0.5473933649;0.5497630332;0.5521327014;0.5545023697;0.5568720379;0.5616113744;0.5639810427;0.5663507109;0.5687203791;0.5710900474;0.5734597156;0.5758293839;0.5805687204;0.5829383886;0.5853080569;0.5876777251;0.5900473934;0.5924170616;0.5947867299;0.5971563981;0.5995260664;0.6066350711;0.6090047393;0.6113744076;0.6208530806;0.6232227488;0.6255924171;0.6279620853;0.6327014218;0.63507109;0.6374407583;0.6398104265;0.6421800948;0.644549763;0.6469194313;0.6492890995;0.6516587678;0.654028436;0.6563981043;0.6587677725;0.6611374408;0.663507109;0.6658767773;0.6682464455;0.6706161137;0.691943128;0.6943127962;0.7014218009;0.7037914692;0.7061611374;0.7085308057;0.7109004739;0.7180094787;0.7203791469;0.7227488152;0.7251184834;0.7274881517;0.7298578199;0.7322274882;0.7345971564;0.7369668246;0.7393364929;0.7417061611;0.7440758294;0.7464454976;0.7488151659;0.7511848341;0.7535545024;0.7559241706;0.7582938389;0.7606635071;0.7748815166;0.7772511848;0.845971564;0.8483412322;0.8507109005;0.8791469194;0.8815165877;0.8838862559;0.8862559242;0.8886255924;0.9383886256;0.9407582938;0.9431279621;0.9502369668;0.9526066351;0.9549763033;0.9573459716;0.9597156398;0.9620853081;0.9668246445;0.9691943128;0.971563981;0.9739336493;0.9763033175;0.9786729858;0.981042654;0.9834123223;0.9857819905;0.9881516588;0.990521327;0.9928909953;1.0" repeatCount="indefinite" values="2500;2500;2600;2600;2700;2800;2800;2900;2900;2800;2900;3000;3100;3200;3200;3300;3400;3500;3500;3400;3400;3300;3200;3200;3100;3000;2900;2900;2800;2700;2600;2600;2500;2500;2400;2400;2300;2200;2100;2000;1900;1800;1800;1700;1600;1500;1500;1600;1500;1500;1400;1300;1200;1100;1200;1200;1300;1400;1300;1400;1500;1600;1700;1800;1900;1900;2000;2100;2200;2300;2400;2400;2300;2400;2500;2600;2700;2800;2900;2800;2800;2900;2900;3000;3000;3100;3000;2900;2800;2700;2600;2500;2400;2300;2300;2200;2300;2300;2200;2100;2200;2200;2300;2300;2200;2300;2400;2400;2300;2200;2200;2100;2000;1900;1800;1700;1800;1700;1600;1600;1500;1500;1400;1300;1200;1100;1000;1000;900;800;700;700;800;800;700;700;800;800;900;900;1000;1100;1200;1200;1300;1400;1500;1600;1700;1600;1600;1700;1700;1800;1900;1900;2000;2100;2100;2200;2300;2400;2500;2600;2700;2700;2800;2900;3000;3100;3100;3200;3200;3100;3200;3300;3200;3200;3300;3300;3400;3400;3500;3400;3400;3500;3500;3400;3400;3300;3200;3100;3100;3000;3100;3000;2900;3000;2900;2900;2800;2800;2900;2900;2800;2800;2900;2900;2800;2700;2600;2700;2700;2600;2600;2500;2400;2300;2200;2100;2000;1900;1900;1800;1800;1700;1600;1600;1500;1500;1600;1600;1500;1500;1600;1500;1500;1600;1500;1600;1500;1500;1400;1300;1300;1200;1200;1100;1200;1100;1100;1000;900;900;800;800;900;800;700;600;600;700;700"/>
<animate attributeName="visibility" dur="117.88000000000001s" keyTimes="0.0;0.0023696682;1.0" repeatCount="indefinite" values="visible;visible;visible"/> </circle>
<circle cx="3000" cy="-1900" fill="#2e6f9e" r="35"> <animate attributeName="cy" dur="117.88000000000001s" keyTimes="0.0;0.0023696682;0.0047393365;0.0071090047;0.009478673;0.0118483412;0.0142180095;0.0165876777;0.018957346;0.0213270142;0.0236966825;0.0260663507;0.0331753555;0.0355450237;0.0379146919;0.0497630332;0.0521327014;0.0545023697;0.0592417062;0.0616113744;0.0639810427;0.0663507109;0.0687203791;0.0710900474;0.0734597156;0.0758293839;0.0781990521;0.0876777251;0.0900473934;0.0947867299;0.0971563981;0.0995260664;0.1018957346;0.1042654028;0.1066350711;0.1090047393;0.1113744076;0.1137440758;0.1161137441;0.1184834123;0.1208530806;0.1232227488;0.1255924171;0.1327014218;0.13507109;0.1374407583;0.1398104265;0.1516587678;0.154028436;0.1563981043;0.1587677725;0.1611374408;0.163507109;0.1658767773;0.1682464455;0.1706161137;0.172985782;0.1753554502;0.1872037915;0.1895734597;0.191943128;0.1943127962;0.1966824645;0.2037914692;0.2061611374;0.2085308057;0.2109004739;0.2132701422;0.2156398104;0.2180094787;0.2203791469;0.2227488152;0.2251184834;0.2298578199;0.2322274882;0.2345971564;0.2393364929;0.2417061611;0.2440758294;0.2464454976;0.2488151659;0.2511848341;0.2535545024;0.2559241706;0.2677725118;0.2701421801;0.3009478673;0.3033175355;0.3127962085;0.3151658768;0.317535545;0.3246445498;0.327014218;0.3293838863;0.3317535545;0.3341232227;0.336492891;0.3388625592;0.3412322275;0.3436018957;0.345971564;0.3483412322;0.3507109005;0.3530805687;0.355450237;0.3625592417;0.36492891;0.3672985782;0.3696682464;0.3720379147;0.3744075829;0.3767772512;0.3791469194;0.3815165877;0.3862559242;0.3886255924;0.3909952607;0.3933649289;0.3957345972;0.3981042654;0.4004739336;0.4028436019;0.4052132701;0.4075829384;0.4099526066;0.4123222749;0.4146919431;0.4170616114;0.4194312796;0.4218009479;0.4241706161;0.4265402844;0.4289099526;0.4312796209;0.4336492891;0.4360189573;0.4383886256;0.4407582938;0.4431279621;0.4454976303;0.4478672986;0.4502369668;0.4526066351;0.4549763033;0.4573459716;0.4597156398;0.4620853081;0.4644549763;0.4668246445;0.4691943128;0.471563981;0.4739336493;0.4763033175;0.4786729858;0.481042654;0.4834123223;0.4857819905;0.5497630332;0.5521327014;0.5545023697;0.5568720379;0.5900473934;0.5924170616;0.5971563981;0.5995260664;0.6018957346;0.6042654028;0.6066350711;0.6137440758;0.6161137441;0.6184834123;0.6208530806;0.6232227488;0.6421800948;0.644549763;0.6469194313;0.6492890995;0.6516587678;0.6563981043;0.6587677725;0.6611374408;0.663507109;0.6682464455;0.6706161137;0.672985782;0.6753554502;0.6777251185;0.6800947867;0.682464455;0.6848341232;0.6872037915;0.6895734597;0.691943128;0.6943127962;0.6966824645;0.6990521327;0.7014218009;0.7037914692;0.7274881517;0.7298578199;0.7322274882;0.7345971564;0.7369668246;0.7393364929;0.7417061611;0.7440758294;0.7464454976;0.7488151659;0.7511848341;0.7535545024;0.7559241706;0.7582938389;0.7606635071;0.7630331754;0.7654028436;0.7677725118;0.7701421801;0.7725118483;0.7748815166;0.7772511848;0.7796208531;0.7819905213;0.7843601896;0.7867298578;0.7890995261;0.7914691943;0.7938388626;0.7962085308;0.7985781991;0.8009478673;0.8033175355;0.8056872038;0.808056872;0.8127962085;0.8151658768;0.817535545;0.8199052133;0.8530805687;0.855450237;0.8578199052;0.8601895735;0.8720379147;0.8744075829;0.8767772512;0.8791469194;0.8815165877;0.8838862559;0.8862559242;0.8886255924;0.8909952607;0.8933649289;0.8957345972;0.8981042654;0.9004739336;0.9028436019;0.9052132701;0.9075829384;0.9099526066;0.9123222749;0.9146919431;0.9170616114;0.9194312796;0.9218009479;0.9265402844;0.9289099526;0.9312796209;0.9336492891;0.9360189573;0.9383886256;0.9407582938;0.9431279621;0.9454976303;0.9502369668;0.9526066351;0.9597156398;0.9620853081;0.9644549763;0.9668246445;0.9691943128;0.971563981;0.9739336493;0.9763033175;0.9786729858;0.981042654;0.9834123223;0.9857819905;0.9881516588;0.990521327;0.9928909953;0.9952606635;0.9976303318;1.0" repeatCount="indefinite" values="-1900;-1900;-1900;-2000;-2100;-2200;-2300;-2400;-2400;-2500;-2500;-2600;-2600;-2700;-2800;-2800;-2900;-3000;-3000;-3100;-3200;-3300;-3400;-3500;-3500;-3600;-3700;-3700;-3600;-3600;-3500;-3500;-3400;-3400;-3300;-3200;-3200;-3100;-3000;-2900;-2800;-2800;-2700;-2700;-2600;-2500;-2400;-2400;-2300;-2200;-2100;-2100;-2000;-1900;-1800;-1700;-1600;-1500;-1500;-1400;-1400;-1300;-1200;-1200;-1100;-1200;-1300;-1400;-1400;-1500;-1600;-1700;-1800;-1800;-1900;-2000;-2000;-2100;-2200;-2300;-2300;-2400;-2400;-2500;-2500;-2600;-2600;-2700;-2700;-2800;-2900;-2900;-3000;-2900;-2800;-2700;-2600;-2500;-2400;-2300;-2200;-2100;-2100;-2000;-1900;-1900;-1800;-1800;-1700;-1600;-1500;-1400;-1400;-1300;-1300;-1200;-1200;-1100;-1100;-1000;-1000;-900;-900;-800;-800;-700;-600;-700;-800;-900;-1000;-1100;-1200;-1300;-1400;-1400;-1500;-1600;-1700;-1700;-1800;-1900;-2000;-2100;-2200;-2300;-2400;-2400;-2500;-2600;-2700;-2800;-2900;-3000;-3100;-3200;-3300;-3300;-3400;-3400;-3500;-3500;-3400;-3400;-3300;-3200;-3100;-3000;-3000;-2900;-2800;-2800;-2700;-2700;-2600;-2600;-2500;-2400;-2400;-2300;-2300;-2200;-2200;-2300;-2400;-2500;-2600;-2700;-2800;-2900;-3000;-3100;-3200;-3300;-3400;-3500;-3600;-3700;-3700;-3600;-3500;-3400;-3300;-3200;-3100;-3000;-2900;-2800;-2700;-2600;-2500;-2400;-2300;-2200;-2100;-2000;-1900;-1800;-1700;-1800;-1900;-2000;-2100;-2200;-2300;-2400;-2500;-2600;-2700;-2800;-2900;-3000;-3100;-3100;-3200;-3200;-3300;-3300;-3400;-3400;-3500;-3500;-3600;-3500;-3400;-3400;-3300;-3200;-3200;-3100;-3000;-2900;-2800;-2700;-2600;-2500;-2400;-2300;-2300;-2200;-2100;-2100;-2000;-2000;-1900;-1800;-1700;-1700;-1600;-1500;-1500;-1400;-1400;-1300;-1300;-1200;-1100;-1000;-900;-1000;-1100;-1200;-1300;-1400;-1500;-1500;-1600;-1700;-1800;-1900;-2000;-2000"/>
<animate attributeName="cx" dur="117.88000000000001s" keyTimes="0.0;0.0023696682;0.0047393365;0.0165876777;0.018957346;0.0213270142;0.0236966825;0.0260663507;0.028436019;0.0308056872;0.0331753555;0.0379146919;0.0402843602;0.0426540284;0.0450236967;0.0473933649;0.0497630332;0.0545023697;0.0568720379;0.0592417062;0.0710900474;0.0734597156;0.0781990521;0.0805687204;0.0829383886;0.0853080569;0.0876777251;0.0900473934;0.0924170616;0.0947867299;0.0971563981;0.0995260664;0.1018957346;0.1042654028;0.1090047393;0.1113744076;0.1208530806;0.1232227488;0.1255924171;0.1279620853;0.1303317536;0.1327014218;0.1398104265;0.1421800948;0.144549763;0.1469194313;0.1492890995;0.1516587678;0.1587677725;0.1611374408;0.1753554502;0.1777251185;0.1800947867;0.182464455;0.1848341232;0.1872037915;0.1895734597;0.191943128;0.1966824645;0.1990521327;0.2014218009;0.2037914692;0.2132701422;0.2156398104;0.2251184834;0.2274881517;0.2298578199;0.2345971564;0.2369668246;0.2393364929;0.2464454976;0.2488151659;0.2511848341;0.2535545024;0.2582938389;0.2606635071;0.2630331754;0.2654028436;0.2677725118;0.2701421801;0.2725118483;0.2748815166;0.2772511848;0.2796208531;0.2819905213;0.2843601896;0.2867298578;0.2890995261;0.2914691943;0.2938388626;0.2962085308;0.2985781991;0.3009478673;0.3033175355;0.3056872038;0.308056872;0.3104265403;0.3127962085;0.317535545;0.3199052133;0.3222748815;0.3246445498;0.3483412322;0.3507109005;0.355450237;0.3578199052;0.3601895735;0.3625592417;0.36492891;0.3672985782;0.3767772512;0.3791469194;0.3815165877;0.3838862559;0.3862559242;0.3886255924;0.3909952607;0.3933649289;0.3957345972;0.3981042654;0.4004739336;0.4028436019;0.4052132701;0.4075829384;0.4099526066;0.4336492891;0.4360189573;0.4431279621;0.4454976303;0.4620853081;0.4644549763;0.4857819905;0.4881516588;0.490521327;0.4928909953;0.4952606635;0.4976303318;0.5;0.5023696682;0.5047393365;0.5071090047;0.509478673;0.5118483412;0.5142180095;0.5165876777;0.518957346;0.5213270142;0.5236966825;0.5260663507;0.528436019;0.5308056872;0.5331753555;0.5355450237;0.5379146919;0.5402843602;0.5426540284;0.5450236967;0.5473933649;0.5497630332;0.5521327014;0.5545023697;0.5568720379;0.5592417062;0.5616113744;0.5639810427;0.5663507109;0.5687203791;0.5710900474;0.5734597156;0.5758293839;0.5781990521;0.5805687204;0.5829383886;0.5853080569;0.5876777251;0.5900473934;0.5924170616;0.5947867299;0.5971563981;0.6066350711;0.6090047393;0.6113744076;0.6137440758;0.6184834123;0.6208530806;0.6232227488;0.6255924171;0.6279620853;0.6303317536;0.6327014218;0.63507109;0.6374407583;0.6398104265;0.6421800948;0.644549763;0.6469194313;0.6516587678;0.654028436;0.6563981043;0.6587677725;0.6611374408;0.663507109;0.6658767773;0.6682464455;0.7037914692;0.7061611374;0.7085308057;0.7109004739;0.7132701422;0.7156398104;0.7180094787;0.7203791469;0.7227488152;0.7251184834;0.7274881517;0.808056872;0.8104265403;0.8127962085;0.8151658768;0.817535545;0.8199052133;0.8222748815;0.8246445498;0.827014218;0.8293838863;0.8317535545;0.8341232227;0.836492891;0.8388625592;0.8412322275;0.8436018957;0.845971564;0.8483412322;0.8507109005;0.8530805687;0.855450237;0.8578199052;0.8601895735;0.8625592417;0.86492891;0.8672985782;0.8696682464;0.8720379147;0.8791469194;0.8815165877;0.8862559242;0.8886255924;0.9099526066;0.9123222749;0.9170616114;0.9194312796;0.9218009479;0.9241706161;0.9265402844;0.9336492891;0.9360189573;0.9407582938;0.9431279621;0.9454976303;0.9478672986;0.9502369668;0.9526066351;0.9549763033;0.9573459716;0.9597156398;0.9834123223;0.9857819905;1.0" repeatCount="indefinite" values="3000;3000;2900;2900;2800;2800;2700;2700;2600;2500;2400;2400;2300;2200;2100;2000;1900;1900;1800;1700;1700;1600;1600;1500;1400;1300;1200;1200;1300;1400;1400;1500;1500;1600;1600;1700;1700;1800;1800;1900;2000;2100;2100;2200;2300;2400;2500;2600;2600;2700;2700;2800;2900;3000;3100;3200;3200;3300;3300;3400;3500;3600;3600;3500;3500;3400;3300;3300;3200;3100;3100;3000;3000;2900;2900;3000;3000;2900;2800;2800;2700;2600;2500;2400;2300;2200;2100;2000;1900;1800;1700;1600;1500;1500;1400;1300;1200;1100;1100;1000;900;800;800;900;900;1000;1100;1200;1200;1300;1300;1400;1400;1500;1600;1600;1700;1700;1800;1800;1900;1900;2000;2000;2100;2100;2200;2200;2300;2300;2400;2400;2500;2600;2700;2800;2900;3000;3100;3200;3300;3400;3500;3600;3500;3400;3300;3200;3100;3000;2900;2800;2700;2600;2500;2400;2300;2200;2100;2100;2000;2000;1900;1800;1700;1600;1500;1400;1300;1200;1100;1000;900;800;700;600;600;700;800;800;900;1000;1100;1100;1200;1200;1300;1400;1500;1600;1700;1800;1900;2000;2000;2100;2100;2200;2300;2300;2400;2400;2500;2400;2400;2500;2600;2500;2400;2300;2200;2100;2000;1900;1800;1800;1900;2000;2000;2100;2100;2200;2300;2400;2500;2600;2700;2800;2700;2600;2500;2400;2300;2200;2100;2100;2000;2000;1900;1800;1700;1600;1500;1500;1600;1600;1700;1700;1800;1800;1900;1900;2000;2100;2100;2200;2200;2300;2300;2400;2500;2500;2600;2700;2800;2800;2900;2900"/>
<animate attributeName="visibility" dur="117.88000000000001s" keyTimes="0.0;0.0023696682;1.0" repeatCount="indefinite" values="visible;visible;visible"/> </circle>
<circle cx="3500" cy="-3000" fill="none" r="35" stroke="#c1433c" stroke-width="10"> <animate attributeName="cy" dur="117.88000000000001s" keyTimes="0.0;0.0023696682;0.0781990521;0.0805687204;0.1895734597;0.191943128;0.2796208531;0.2819905213;0.4383886256;0.4407582938;0.6255924171;0.6279620853;0.7156398104;0.7180094787;0.9881516588;0.990521327;1.0" repeatCount="indefinite" values="-3000;-3000;-3000;-2800;-2800;-2400;-2400;-1600;-1600;-3400;-3400;-2000;-2000;-2100;-2100;-1300;-1300"/>
<animate attributeName="cx" dur="117.88000000000001s" keyTimes="0.0;0.0023696682;0.0781990521;0.0805687204;0.1895734597;0.191943128;0.2796208531;0.2819905213;0.4383886256;0.4407582938;0.6255924171;0.6279620853;0.7156398104;0.7180094787;0.9881516588;0.990521327;1.0" repeatCount="indefinite" values="3500;3500;3500;1200;1200;3100;3100;800;800;3400;3400;2700;2700;600;600;3600;3600"/>
<animate attributeName="visibility" dur="117.88000000000001s" keyTimes="0.0;0.0023696682;1.0" repeatCount="indefinite" values="visible;visible;visible"/> </circle>
<circle cx="2600" cy="-2600" fill="none" r="35" stroke="#2e6f9e" stroke-width="10"> <animate attributeName="cy" dur="117.88000000000001s" keyTimes="0.0;0.0023696682;0.0260663507;0.028436019;0.0355450237;0.0379146919;0.0497630332;0.0521327014;0.0758293839;0.0781990521;0.0876777251;0.0900473934;0.2037914692;0.2061611374;0.2677725118;0.2701421801;0.3246445498;0.327014218;0.4123222749;0.4146919431;0.5118483412;0.5142180095;0.5900473934;0.5924170616;0.663507109;0.6658767773;0.7061611374;0.7085308057;0.7725118483;0.7748815166;0.8341232227;0.836492891;0.8720379147;0.8744075829;0.9668246445;0.9691943128;1.0" repeatCount="indefinite" values="-2600;-2600;-2600;-2800;-2800;-2900;-2900;-3700;-3700;-3600;-3600;-1100;-1100;-2600;-2600;-3000;-3000;-600;-600;-3300;-3300;-3400;-3400;-2200;-2200;-3700;-3700;-1700;-1700;-3300;-3300;-3600;-3600;-900;-900;-3400;-3400"/>
<animate attributeName="cx" dur="117.88000000000001s" keyTimes="0.0;0.0023696682;0.0260663507;0.028436019;0.0355450237;0.0379146919;0.0497630332;0.0521327014;0.0758293839;0.0781990521;0.0876777251;0.0900473934;0.2037914692;0.2061611374;0.2677725118;0.2701421801;0.3246445498;0.327014218;0.4123222749;0.4146919431;0.5118483412;0.5142180095;0.5900473934;0.5924170616;0.663507109;0.6658767773;0.7061611374;0.7085308057;0.7725118483;0.7748815166;0.8341232227;0.836492891;0.8720379147;0.8744075829;0.9668246445;0.9691943128;1.0" repeatCount="indefinite" values="2600;2600;2600;2400;2400;1900;1900;1600;1600;1200;1200;3600;3600;2800;2800;800;800;2100;2100;3600;3600;600;600;2500;2500;2600;2600;1800;1800;2800;2800;1500;1500;2800;2800;3500;3500"/>
<animate attributeName="visibility" dur="117.88000000000001s" keyTimes="0.0;0.0023696682;1.0" repeatCount="indefinite" values="visible;visible;visible"/> </circle>
</svg>