<?xml version="1.0" encoding="UTF-8"?>
        <svg xmlns="http://www.w3.org/2000/svg" xmlns:xlink="http://www.w3.org/1999/xlink"
             width="512" height="512" viewBox="0 -6700 6700 6700">
<defs>

        <rect id="obstacle" width="70" height="70" fill="#84A1AE" rx="15"/>
        <style>
        .line {stroke: #84A1AE; stroke-width: 10;}
        .agent {r: 35;}
        .target {fill: none; stroke-width: 10; r: 35;}
        </style>
        
</defs>

<line class="line" x1="-50.0" x2="-50.0" y1="0" y2="-6700" />
<line class="line" x1="50.0" x2="50.0" y1="0" y2="-6700" />
<line class="line" x1="150.0" x2="150.0" y1="0" y2="-6700" />
<line class="line" x1="250.0" x2="250.0" y1="0" y2="-6700" />
<line class="line" x1="350.0" x2="350.0" y1="0" y2="-6700" />
<line class="line" x1="450.0" x2="450.0" y1="0" y2="-6700" />
<line class="line" x1="550.0" x2="550.0" y1="0" y2="-6700" />
<line class="line" x1="650.0" x2="650.0" y1="0" y2="-6700" />
<line class="line" x1="750.0" x2="750.0" y1="0" y2="-6700" />
<line class="line" x1="850.0" x2="850.0" y1="0" y2="-6700" />
<line class="line" x1="950.0" x2="950.0" y1="0" y2="-6700" />
<line class="line" x1="1050.0" x2="1050.0" y1="0" y2="-6700" />
<line class="line" x1="1150.0" x2="1150.0" y1="0" y2="-6700" />
<line class="line" x1="1250.0" x2="1250.0" y1="0" y2="-6700" />
<line class="line" x1="1350.0" x2="1350.0" y1="0" y2="-6700" />
<line class="line" x1="1450.0" x2="1450.0" y1="0" y2="-6700" />
<line class="line" x1="1550.0" x2="1550.0" y1="0" y2="-6700" />
<line class="line" x1="1650.0" x2="1650.0" y1="0" y2="-6700" />
<line class="line" x1="1750.0" x2="1750.0" y1="0" y2="-6700" />
<line class="line" x1="1850.0" x2="1850.0" y1="0" y2="-6700" />
<line class="line" x1="1950.0" x2="1950.0" y1="0" y2="-6700" />
<line class="line" x1="2050.0" x2="2050.0" y1="0" y2="-6700" />
<line class="line" x1="2150.0" x2="2150.0" y1="0" y2="-6700" />
<line class="line" x1="2250.0" x2="2250.0" y1="0" y2="-6700" />
<line class="line" x1="2350.0" x2="2350.0" y1="0" y2="-6700" />
<line class="line" x1="2450.0" x2="2450.0" y1="0" y2="-6700" />
<line class="line" x1="2550.0" x2="2550.0" y1="0" y2="-6700" />
<line class="line" x1="2650.0" x2="2650.0" y1="0" y2="-6700" />
<line class="line" x1="2750.0" x2="2750.0" y1="0" y2="-6700" />
<line class="line" x1="2850.0" x2="2850.0" y1="0" y2="-6700" />
<line class="line" x1="2950.0" x2="2950.0" y1="0" y2="-6700" />
<line class="line" x1="3050.0" x2="3050.0" y1="0" y2="-6700" />
<line class="line" x1="3150.0" x2="3150.0" y1="0" y2="-6700" />
<line class="line" x1="3250.0" x2="3250.0" y1="0" y2="-6700" />
<line class="line" x1="3350.0" x2="3350.0" y1="0" y2="-6700" />
<line class="line" x1="3450.0" x2="3450.0" y1="0" y2="-6700" />
<line class="line" x1="3550.0" x2="3550.0" y1="0" y2="-6700" />
<line class="line" x1="3650.0" x2="3650.0" y1="0" y2="-6700" />
<line class="line" x1="3750.0" x2="3750.0" y1="0" y2="-6700" />
<line class="line" x1="3850.0" x2="3850.0" y1="0" y2="-6700" />
<line class="line" x1="3950.0" x2="3950.0" y1="0" y2="-6700" />
<line class="line" x1="4050.0" x2="4050.0" y1="0" y2="-6700" />
<line class="line" x1="4150.0" x2="4150.0" y1="0" y2="-6700" />
<line class="line" x1="4250.0" x2="4250.0" y1="0" y2="-6700" />
<line class="line" x1="4350.0" x2="4350.0" y1="0" y2="-6700" />
<line class="line" x1="4450.0" x2="4450.0" y1="0" y2="-6700" />
<line class="line" x1="4550.0" x2="4550.0" y1="0" y2="-6700" />
<line class="line" x1="4650.0" x2="4650.0" y1="0" y2="-6700" />
<line class="line" x1="4750.0" x2="4750.0" y1="0" y2="-6700" />
<line class="line" x1="4850.0" x2="4850.0" y1="0" y2="-6700" />
<line class="line" x1="4950.0" x2="4950.0" y1="0" y2="-6700" />
<line class="line" x1="5050.0" x2="5050.0" y1="0" y2="-6700" />
<line class="line" x1="5150.0" x2="5150.0" y1="0" y2="-6700" />
<line class="line" x1="5250.0" x2="5250.0" y1="0" y2="-6700" />
<line class="line" x1="5350.0" x2="5350.0" y1="0" y2="-6700" />
<line class="line" x1="5450.0" x2="5450.0" y1="0" y2="-6700" />
<line class="line" x1="5550.0" x2="5550.0" y1="0" y2="-6700" />
<line class="line" x1="5650.0" x2="5650.0" y1="0" y2="-6700" />
<line class="line" x1="5750.0" x2="5750.0" y1="0" y2="-6700" />
<line class="line" x1="5850.0" x2="5850.0" y1="0" y2="-6700" />
<line class="line" x1="5950.0" x2="5950.0" y1="0" y2="-6700" />
<line class="line" x1="6050.0" x2="6050.0" y1="0" y2="-6700" />
<line class="line" x1="6150.0" x2="6150.0" y1="0" y2="-6700" />
<line class="line" x1="6250.0" x2="6250.0" y1="0" y2="-6700" />
<line class="line" x1="6350.0" x2="6350.0" y1="0" y2="-6700" />
<line class="line" x1="6450.0" x2="6450.0" y1="0" y2="-6700" />
<line class="line" x1="6550.0" x2="6550.0" y1="0" y2="-6700" />
<line class="line" x1="6650.0" x2="6650.0" y1="0" y2="-6700" />
<line class="line" x1="0" x2="6700" y1="50.0" y2="50.0" />
<line class="line" x1="0" x2="6700" y1="-50.0" y2="-50.0" />
<line class="line" x1="0" x2="6700" y1="-150.0" y2="-150.0" />
<line class="line" x1="0" x2="6700" y1="-250.0" y2="-250.0" />
<line class="line" x1="0" x2="6700" y1="-350.0" y2="-350.0" />
<line class="line" x1="0" x2="6700" y1="-450.0" y2="-450.0" />
<line class="line" x1="0" x2="6700" y1="-550.0" y2="-550.0" />
<line class="line" x1="0" x2="6700" y1="-650.0" y2="-650.0" />
<line class="line" x1="0" x2="6700" y1="-750.0" y2="-750.0" />
<line class="line" x1="0" x2="6700" y1="-850.0" y2="-850.0" />
<line class="line" x1="0" x2="6700" y1="-950.0" y2="-950.0" />
<line class="line" x1="0" x2="6700" y1="-1050.0" y2="-1050.0" />
<line class="line" x1="0" x2="6700" y1="-1150.0" y2="-1150.0" />
<line class="line" x1="0" x2="6700" y1="-1250.0" y2="-1250.0" />
<line class="line" x1="0" x2="6700" y1="-1350.0" y2="-1350.0" />
<line class="line" x1="0" x2="6700" y1="-1450.0" y2="-1450.0" />
<line class="line" x1="0" x2="6700" y1="-1550.0" y2="-1550.0" />
<line class="line" x1="0" x2="6700" y1="-1650.0" y2="-1650.0" />
<line class="line" x1="0" x2="6700" y1="-1750.0" y2="-1750.0" />
<line class="line" x1="0" x2="6700" y1="-1850.0" y2="-1850.0" />
<line class="line" x1="0" x2="6700" y1="-1950.0" y2="-1950.0" />
<line class="line" x1="0" x2="6700" y1="-2050.0" y2="-2050.0" />
<line class="line" x1="0" x2="6700" y1="-2150.0" y2="-2150.0" />
<line class="line" x1="0" x2="6700" y1="-2250.0" y2="-2250.0" />
<line class="line" x1="0" x2="6700" y1="-2350.0" y2="-2350.0" />
<line class="line" x1="0" x2="6700" y1="-2450.0" y2="-2450.0" />
<line class="line" x1="0" x2="6700" y1="-2550.0" y2="-2550.0" />
<line class="line" x1="0" x2="6700" y1="-2650.0" y2="-2650.0" />
<line class="line" x1="0" x2="6700" y1="-2750.0" y2="-2750.0" />
<line class="line" x1="0" x2="6700" y1="-2850.0" y2="-2850.0" />
<line class="line" x1="0" x2="6700" y1="-2950.0" y2="-2950.0" />
<line class="line" x1="0" x2="6700" y1="-3050.0" y2="-3050.0" />
<line class="line" x1="0" x2="6700" y1="-3150.0" y2="-3150.0" />
<line class="line" x1="0" x2="6700" y1="-3250.0" y2="-3250.0" />
<line class="line" x1="0" x2="6700" y1="-3350.0" y2="-3350.0" />
<line class="line" x1="0" x2="6700" y1="-3450.0" y2="-3450.0" />
<line class="line" x1="0" x2="6700" y1="-3550.0" y2="-3550.0" />
<line class="line" x1="0" x2="6700" y1="-3650.0" y2="-3650.0" />
<line class="line" x1="0" x2="6700" y1="-3750.0" y2="-3750.0" />
<line class="line" x1="0" x2="6700" y1="-3850.0" y2="-3850.0" />
<line class="line" x1="0" x2="6700" y1="-3950.0" y2="-3950.0" />
<line class="line" x1="0" x2="6700" y1="-4050.0" y2="-4050.0" />
<line class="line" x1="0" x2="6700" y1="-4150.0" y2="-4150.0" />
<line class="line" x1="0" x2="6700" y1="-4250.0" y2="-4250.0" />
<line class="line" x1="0" x2="6700" y1="-4350.0" y2="-4350.0" />
<line class="line" x1="0" x2="6700" y1="-4450.0" y2="-4450.0" />
<line class="line" x1="0" x2="6700" y1="-4550.0" y2="-4550.0" />
<line class="line" x1="0" x2="6700" y1="-4650.0" y2="-4650.0" />
<line class="line" x1="0" x2="6700" y1="-4750.0" y2="-4750.0" />
<line class="line" x1="0" x2="6700" y1="-4850.0" y2="-4850.0" />
<line class="line" x1="0" x2="6700" y1="-4950.0" y2="-4950.0" />
<line class="line" x1="0" x2="6700" y1="-5050.0" y2="-5050.0" />
<line class="line" x1="0" x2="6700" y1="-5150.0" y2="-5150.0" />
<line class="line" x1="0" x2="6700" y1="-5250.0" y2="-5250.0" />
<line class="line" x1="0" x2="6700" y1="-5350.0" y2="-5350.0" />
<line class="line" x1="0" x2="6700" y1="-5450.0" y2="-5450.0" />
<line class="line" x1="0" x2="6700" y1="-5550.0" y2="-5550.0" />
<line class="line" x1="0" x2="6700" y1="-5650.0" y2="-5650.0" />
<line class="line" x1="0" x2="6700" y1="-5750.0" y2="-5750.0" />
<line class="line" x1="0" x2="6700" y1="-5850.0" y2="-5850.0" />
<line class="line" x1="0" x2="6700" y1="-5950.0" y2="-5950.0" />
<line class="line" x1="0" x2="6700" y1="-6050.0" y2="-6050.0" />
<line class="line" x1="0" x2="6700" y1="-6150.0" y2="-6150.0" />
<line class="line" x1="0" x2="6700" y1="-6250.0" y2="-6250.0" />
<line class="line" x1="0" x2="6700" y1="-6350.0" y2="-6350.0" />
<line class="line" x1="0" x2="6700" y1="-6450.0" y2="-6450.0" />
<line class="line" x1="0" x2="6700" y1="-6550.0" y2="-6550.0" />
<line class="line" x1="0" x2="6700" y1="-6650.0" y2="-6650.0" />
<use href="#obstacle" x="65" y="-135" />
<use href="#obstacle" x="65" y="-235" />
<use href="#obstacle" x="65" y="-335" />
<use href="#obstacle" x="65" y="-435" />
<use href="#obstacle" x="65" y="-535" />
<use href="#obstacle" x="65" y="-635" />
<use href="#obstacle" x="65" y="-735" />
<use href="#obstacle" x="65" y="-835" />
<use href="#obstacle" x="65" y="-935" />
<use href="#obstacle" x="65" y="-1035" />
<use href="#obstacle" x="65" y="-1135" />
<use href="#obstacle" x="65" y="-1235" />
<use href="#obstacle" x="65" y="-1335" />
<use href="#obstacle" x="65" y="-1435" />
<use href="#obstacle" x="65" y="-1535" />
<use href="#obstacle" x="65" y="-1635" />
<use href="#obstacle" x="65" y="-1735" />
<use href="#obstacle" x="65" y="-1835" />
<use href="#obstacle" x="65" y="-1935" />
<use href="#obstacle" x="65" y="-2035" />
<use href="#obstacle" x="65" y="-2135" />
<use href="#obstacle" x="65" y="-2235" />
<use href="#obstacle" x="65" y="-2335" />
<use href="#obstacle" x="65" y="-2435" />
<use href="#obstacle" x="65" y="-2535" />
<use href="#obstacle" x="65" y="-2635" />
<use href="#obstacle" x="65" y="-2735" />
<use href="#obstacle" x="65" y="-2835" />
<use href="#obstacle" x="65" y="-2935" />
<use href="#obstacle" x="65" y="-3035" />
<use href="#obstacle" x="65" y="-3135" />
<use href="#obstacle" x="65" y="-3235" />
<use href="#obstacle" x="65" y="-3335" />
<use href="#obstacle" x="65" y="-3435" />
<use href="#obstacle" x="65" y="-3535" />
<use href="#obstacle" x="65" y="-3635" />
<use href="#obstacle" x="65" y="-3735" />
<use href="#obstacle" x="65" y="-3835" />
<use href="#obstacle" x="65" y="-3935" />
<use href="#obstacle" x="65" y="-4035" />
<use href="#obstacle" x="65" y="-4135" />
<use href="#obstacle" x="65" y="-4235" />
<use href="#obstacle" x="65" y="-4335" />
<use href="#obstacle" x="65" y="-4435" />
<use href="#obstacle" x="65" y="-4535" />
<use href="#obstacle" x="65" y="-4635" />
<use href="#obstacle" x="65" y="-4735" />
<use href="#obstacle" x="65" y="-4835" />
<use href="#obstacle" x="65" y="-4935" />
<use href="#obstacle" x="65" y="-5035" />
<use href="#obstacle" x="65" y="-5135" />
<use href="#obstacle" x="65" y="-5235" />
<use href="#obstacle" x="65" y="-5335" />
<use href="#obstacle" x="65" y="-5435" />
<use href="#obstacle" x="65" y="-5535" />
<use href="#obstacle" x="65" y="-5635" />
<use href="#obstacle" x="65" y="-5735" />
<use href="#obstacle" x="65" y="-5835" />
<use href="#obstacle" x="65" y="-5935" />
<use href="#obstacle" x="65" y="-6035" />
<use href="#obstacle" x="65" y="-6135" />
<use href="#obstacle" x="65" y="-6235" />
<use href="#obstacle" x="65" y="-6335" />
<use href="#obstacle" x="65" y="-6435" />
<use href="#obstacle" x="65" y="-6535" />
<use href="#obstacle" x="65" y="-6635" />
<use href="#obstacle" x="165" y="-135" />
<use href="#obstacle" x="165" y="-1135" />
<use href="#obstacle" x="165" y="-1335" />
<use href="#obstacle" x="165" y="-2435" />
<use href="#obstacle" x="165" y="-2535" />
<use href="#obstacle" x="165" y="-6035" />
<use href="#obstacle" x="165" y="-6235" />
<use href="#obstacle" x="165" y="-6635" />
<use href="#obstacle" x="265" y="-135" />
<use href="#obstacle" x="265" y="-235" />
<use href="#obstacle" x="265" y="-1335" />
<use href="#obstacle" x="265" y="-2235" />
<use href="#obstacle" x="265" y="-3035" />
<use href="#obstacle" x="265" y="-3835" />
<use href="#obstacle" x="265" y="-4035" />
<use href="#obstacle" x="265" y="-4335" />
<use href="#obstacle" x="265" y="-5335" />
<use href="#obstacle" x="265" y="-5735" />
<use href="#obstacle" x="265" y="-6035" />
<use href="#obstacle" x="265" y="-6135" />
<use href="#obstacle" x="265" y="-6635" />
<use href="#obstacle" x="365" y="-135" />
<use href="#obstacle" x="365" y="-935" />
<use href="#obstacle" x="365" y="-1935" />
<use href="#obstacle" x="365" y="-3035" />
<use href="#obstacle" x="365" y="-3835" />
<use href="#obstacle" x="365" y="-4135" />
<use href="#obstacle" x="365" y="-6635" />
<use href="#obstacle" x="465" y="-135" />
<use href="#obstacle" x="465" y="-735" />
<use href="#obstacle" x="465" y="-835" />
<use href="#obstacle" x="465" y="-2035" />
<use href="#obstacle" x="465" y="-3435" />
<use href="#obstacle" x="465" y="-5135" />
<use href="#obstacle" x="465" y="-5835" />
<use href="#obstacle" x="465" y="-6335" />
<use href="#obstacle" x="465" y="-6635" />
<use href="#obstacle" x="565" y="-135" />
<use href="#obstacle" x="565" y="-1135" />
<use href="#obstacle" x="565" y="-1835" />
<use href="#obstacle" x="565" y="-2935" />
<use href="#obstacle" x="565" y="-4235" />
<use href="#obstacle" x="565" y="-6535" />
<use href="#obstacle" x="565" y="-6635" />
<use href="#obstacle" x="665" y="-135" />
<use href="#obstacle" x="665" y="-535" />
<use href="#obstacle" x="665" y="-1935" />
<use href="#obstacle" x="665" y="-5235" />
<use href="#obstacle" x="665" y="-6635" />
<use href="#obstacle" x="765" y="-135" />
<use href="#obstacle" x="765" y="-1935" />
<use href="#obstacle" x="765" y="-2835" />
<use href="#obstacle" x="765" y="-4135" />
<use href="#obstacle" x="765" y="-5535" />
<use href="#obstacle" x="765" y="-6135" />
<use href="#obstacle" x="765" y="-6635" />
<use href="#obstacle" x="865" y="-135" />
<use href="#obstacle" x="865" y="-535" />
<use href="#obstacle" x="865" y="-3135" />
<use href="#obstacle" x="865" y="-3835" />
<use href="#obstacle" x="865" y="-4635" />
<use href="#obstacle" x="865" y="-6635" />
<use href="#obstacle" x="965" y="-135" />
<use href="#obstacle" x="965" y="-3735" />
<use href="#obstacle" x="965" y="-4335" />
<use href="#obstacle" x="965" y="-5135" />
<use href="#obstacle" x="965" y="-5435" />
<use href="#obstacle" x="965" y="-6635" />
<use href="#obstacle" x="1065" y="-135" />
<use href="#obstacle" x="1065" y="-535" />
<use href="#obstacle" x="1065" y="-1535" />
<use href="#obstacle" x="1065" y="-3335" />
<use href="#obstacle" x="1065" y="-5635" />
<use href="#obstacle" x="1065" y="-6635" />
<use href="#obstacle" x="1165" y="-135" />
<use href="#obstacle" x="1165" y="-335" />
<use href="#obstacle" x="1165" y="-1135" />
<use href="#obstacle" x="1165" y="-1335" />
<use href="#obstacle" x="1165" y="-3035" />
<use href="#obstacle" x="1165" y="-4135" />
<use href="#obstacle" x="1165" y="-4435" />
<use href="#obstacle" x="1165" y="-6635" />
<use href="#obstacle" x="1265" y="-135" />
<use href="#obstacle" x="1265" y="-635" />
<use href="#obstacle" x="1265" y="-735" />
<use href="#obstacle" x="1265" y="-1335" />
<use href="#obstacle" x="1265" y="-2735" />
<use href="#obstacle" x="1265" y="-6135" />
<use href="#obstacle" x="1265" y="-6635" />
<use href="#obstacle" x="1365" y="-135" />
<use href="#obstacle" x="1365" y="-935" />
<use href="#obstacle" x="1365" y="-1435" />
<use href="#obstacle" x="1365" y="-2235" />
<use href="#obstacle" x="1365" y="-2535" />
<use href="#obstacle" x="1365" y="-2835" />
<use href="#obstacle" x="1365" y="-4135" />
<use href="#obstacle" x="1365" y="-4335" />
<use href="#obstacle" x="1365" y="-4535" />
<use href="#obstacle" x="1365" y="-4735" />
<use href="#obstacle" x="1365" y="-6035" />
<use href="#obstacle" x="1365" y="-6635" />
<use href="#obstacle" x="1465" y="-135" />
<use href="#obstacle" x="1465" y="-1035" />
<use href="#obstacle" x="1465" y="-1335" />
<use href="#obstacle" x="1465" y="-1535" />
<use href="#obstacle" x="1465" y="-3035" />
<use href="#obstacle" x="1465" y="-4635" />
<use href="#obstacle" x="1465" y="-6435" />
<use href="#obstacle" x="1465" y="-6635" />
<use href="#obstacle" x="1565" y="-135" />
<use href="#obstacle" x="1565" y="-335" />
<use href="#obstacle" x="1565" y="-1235" />
<use href="#obstacle" x="1565" y="-1535" />
<use href="#obstacle" x="1565" y="-1835" />
<use href="#obstacle" x="1565" y="-3535" />
<use href="#obstacle" x="1565" y="-5035" />
<use href="#obstacle" x="1565" y="-5735" />
<use href="#obstacle" x="1565" y="-5835" />
<use href="#obstacle" x="1565" y="-6635" />
<use href="#obstacle" x="1665" y="-135" />
<use href="#obstacle" x="1665" y="-735" />
<use href="#obstacle" x="1665" y="-1235" />
<use href="#obstacle" x="1665" y="-1935" />
<use href="#obstacle" x="1665" y="-3735" />
<use href="#obstacle" x="1665" y="-4635" />
<use href="#obstacle" x="1665" y="-5035" />
<use href="#obstacle" x="1665" y="-6635" />
<use href="#obstacle" x="1765" y="-135" />
<use href="#obstacle" x="1765" y="-2335" />
<use href="#obstacle" x="1765" y="-2735" />
<use href="#obstacle" x="1765" y="-2835" />
<use href="#obstacle" x="1765" y="-3035" />
<use href="#obstacle" x="1765" y="-3435" />
<use href="#obstacle" x="1765" y="-3535" />
<use href="#obstacle" x="1765" y="-4035" />
<use href="#obstacle" x="1765" y="-4335" />
<use href="#obstacle" x="1765" y="-4935" />
<use href="#obstacle" x="1765" y="-5635" />
<use href="#obstacle" x="1765" y="-6135" />
<use href="#obstacle" x="1765" y="-6635" />
<use href="#obstacle" x="1865" y="-135" />
<use href="#obstacle" x="1865" y="-1035" />
<use href="#obstacle" x="1865" y="-2535" />
<use href="#obstacle" x="1865" y="-3835" />
<use href="#obstacle" x="1865" y="-4135" />
<use href="#obstacle" x="1865" y="-5235" />
<use href="#obstacle" x="1865" y="-5935" />
<use href="#obstacle" x="1865" y="-6635" />
<use href="#obstacle" x="1965" y="-135" />
<use href="#obstacle" x="1965" y="-1935" />
<use href="#obstacle" x="1965" y="-3535" />
<use href="#obstacle" x="1965" y="-5235" />
<use href="#obstacle" x="1965" y="-5835" />
<use href="#obstacle" x="1965" y="-6335" />
<use href="#obstacle" x="1965" y="-6635" />
<use href="#obstacle" x="2065" y="-135" />
<use href="#obstacle" x="2065" y="-235" />
<use href="#obstacle" x="2065" y="-335" />
<use href="#obstacle" x="2065" y="-835" />
<use href="#obstacle" x="2065" y="-1435" />
<use href="#obstacle" x="2065" y="-1835" />
<use href="#obstacle" x="2065" y="-4135" />
<use href="#obstacle" x="2065" y="-4735" />
<use href="#obstacle" x="2065" y="-4835" />
<use href="#obstacle" x="2065" y="-5835" />
<use href="#obstacle" x="2065" y="-6635" />
<use href="#obstacle" x="2165" y="-135" />
<use href="#obstacle" x="2165" y="-635" />
<use href="#obstacle" x="2165" y="-4635" />
<use href="#obstacle" x="2165" y="-5035" />
<use href="#obstacle" x="2165" y="-5135" />
<use href="#obstacle" x="2165" y="-6635" />
<use href="#obstacle" x="2265" y="-135" />
<use href="#obstacle" x="2265" y="-335" />
<use href="#obstacle" x="2265" y="-1435" />
<use href="#obstacle" x="2265" y="-5035" />
<use href="#obstacle" x="2265" y="-5235" />
<use href="#obstacle" x="2265" y="-5735" />
<use href="#obstacle" x="2265" y="-6635" />
<use href="#obstacle" x="2365" y="-135" />
<use href="#obstacle" x="2365" y="-1335" />
<use href="#obstacle" x="2365" y="-2035" />
<use href="#obstacle" x="2365" y="-2935" />
<use href="#obstacle" x="2365" y="-3635" />
<use href="#obstacle" x="2365" y="-4235" />
<use href="#obstacle" x="2365" y="-6335" />
<use href="#obstacle" x="2365" y="-6535" />
<use href="#obstacle" x="2365" y="-6635" />
<use href="#obstacle" x="2465" y="-135" />
<use href="#obstacle" x="2465" y="-335" />
<use href="#obstacle" x="2465" y="-4535" />
<use href="#obstacle" x="2465" y="-5035" />
<use href="#obstacle" x="2465" y="-5135" />
<use href="#obstacle" x="2465" y="-6635" />
<use href="#obstacle" x="2565" y="-135" />
<use href="#obstacle" x="2565" y="-2235" />
<use href="#obstacle" x="2565" y="-2835" />
<use href="#obstacle" x="2565" y="-3235" />
<use href="#obstacle" x="2565" y="-3635" />
<use href="#obstacle" x="2565" y="-4035" />
<use href="#obstacle" x="2565" y="-5335" />
<use href="#obstacle" x="2565" y="-5835" />
<use href="#obstacle" x="2565" y="-5935" />
<use href="#obstacle" x="2565" y="-6235" />
<use href="#obstacle" x="2565" y="-6535" />
<use href="#obstacle" x="2565" y="-6635" />
<use href="#obstacle" x="2665" y="-135" />
<use href="#obstacle" x="2665" y="-235" />
<use href="#obstacle" x="2665" y="-1235" />
<use href="#obstacle" x="2665" y="-4835" />
<use href="#obstacle" x="2665" y="-6635" />
<use href="#obstacle" x="2765" y="-135" />
<use href="#obstacle" x="2765" y="-535" />
<use href="#obstacle" x="2765" y="-635" />
<use href="#obstacle" x="2765" y="-1335" />
<use href="#obstacle" x="2765" y="-1535" />
<use href="#obstacle" x="2765" y="-2035" />
<use href="#obstacle" x="2765" y="-4535" />
<use href="#obstacle" x="2765" y="-5335" />
<use href="#obstacle" x="2765" y="-6535" />
<use href="#obstacle" x="2765" y="-6635" />
<use href="#obstacle" x="2865" y="-135" />
<use href="#obstacle" x="2865" y="-2435" />
<use href="#obstacle" x="2865" y="-4235" />
<use href="#obstacle" x="2865" y="-4535" />
<use href="#obstacle" x="2865" y="-6635" />
<use href="#obstacle" x="2965" y="-135" />
<use href="#obstacle" x="2965" y="-735" />
<use href="#obstacle" x="2965" y="-1535" />
<use href="#obstacle" x="2965" y="-2135" />
<use href="#obstacle" x="2965" y="-2935" />
<use href="#obstacle" x="2965" y="-6635" />
<use href="#obstacle" x="3065" y="-135" />
<use href="#obstacle" x="3065" y="-335" />
<use href="#obstacle" x="3065" y="-435" />
<use href="#obstacle" x="3065" y="-535" />
<use href="#obstacle" x="3065" y="-935" />
<use href="#obstacle" x="3065" y="-2035" />
<use href="#obstacle" x="3065" y="-4435" />
<use href="#obstacle" x="3065" y="-4835" />
<use href="#obstacle" x="3065" y="-6635" />
<use href="#obstacle" x="3165" y="-135" />
<use href="#obstacle" x="3165" y="-1535" />
<use href="#obstacle" x="3165" y="-5135" />
<use href="#obstacle" x="3165" y="-5835" />
<use href="#obstacle" x="3165" y="-6235" />
<use href="#obstacle" x="3165" y="-6435" />
<use href="#obstacle" x="3165" y="-6635" />
<use href="#obstacle" x="3265" y="-135" />
<use href="#obstacle" x="3265" y="-535" />
<use href="#obstacle" x="3265" y="-735" />
<use href="#obstacle" x="3265" y="-1835" />
<use href="#obstacle" x="3265" y="-2135" />
<use href="#obstacle" x="3265" y="-2335" />
<use href="#obstacle" x="3265" y="-3435" />
<use href="#obstacle" x="3265" y="-3535" />
<use href="#obstacle" x="3265" y="-3635" />
<use href="#obstacle" x="3265" y="-4035" />
<use href="#obstacle" x="3265" y="-4835" />
<use href="#obstacle" x="3265" y="-6635" />
<use href="#obstacle" x="3365" y="-135" />
<use href="#obstacle" x="3365" y="-1535" />
<use href="#obstacle" x="3365" y="-2235" />
<use href="#obstacle" x="3365" y="-2435" />
<use href="#obstacle" x="3365" y="-2635" />
<use href="#obstacle" x="3365" y="-2935" />
<use href="#obstacle" x="3365" y="-3035" />
<use href="#obstacle" x="3365" y="-3335" />
<use href="#obstacle" x="3365" y="-5435" />
<use href="#obstacle" x="3365" y="-6635" />
<use href="#obstacle" x="3465" y="-135" />
<use href="#obstacle" x="3465" y="-935" />
<use href="#obstacle" x="3465" y="-1235" />
<use href="#obstacle" x="3465" y="-1835" />
<use href="#obstacle" x="3465" y="-4035" />
<use href="#obstacle" x="3465" y="-6235" />
<use href="#obstacle" x="3465" y="-6635" />
<use href="#obstacle" x="3565" y="-135" />
<use href="#obstacle" x="3565" y="-1835" />
<use href="#obstacle" x="3565" y="-3935" />
<use href="#obstacle" x="3565" y="-5035" />
<use href="#obstacle" x="3565" y="-6635" />
<use href="#obstacle" x="3665" y="-135" />
<use href="#obstacle" x="3665" y="-2735" />
<use href="#obstacle" x="3665" y="-2935" />
<use href="#obstacle" x="3665" y="-3435" />
<use href="#obstacle" x="3665" y="-3635" />
<use href="#obstacle" x="3665" y="-5235" />
<use href="#obstacle" x="3665" y="-6235" />
<use href="#obstacle" x="3665" y="-6635" />
<use href="#obstacle" x="3765" y="-135" />
<use href="#obstacle" x="3765" y="-1335" />
<use href="#obstacle" x="3765" y="-1535" />
<use href="#obstacle" x="3765" y="-1835" />
<use href="#obstacle" x="3765" y="-1935" />
<use href="#obstacle" x="3765" y="-3635" />
<use href="#obstacle" x="3765" y="-6435" />
<use href="#obstacle" x="3765" y="-6635" />
<use href="#obstacle" x="3865" y="-135" />
<use href="#obstacle" x="3865" y="-2635" />
<use href="#obstacle" x="3865" y="-3535" />
<use href="#obstacle" x="3865" y="-4035" />
<use href="#obstacle" x="3865" y="-4935" />
<use href="#obstacle" x="3865" y="-5435" />
<use href="#obstacle" x="3865" y="-5935" />
<use href="#obstacle" x="3865" y="-6635" />
<use href="#obstacle" x="3965" y="-135" />
<use href="#obstacle" x="3965" y="-2435" />
<use href="#obstacle" x="3965" y="-3035" />
<use href="#obstacle" x="3965" y="-3335" />
<use href="#obstacle" x="3965" y="-3635" />
<use href="#obstacle" x="3965" y="-3735" />
<use href="#obstacle" x="3965" y="-4735" />
<use href="#obstacle" x="3965" y="-4935" />
<use href="#obstacle" x="3965" y="-6635" />
<use href="#obstacle" x="4065" y="-135" />
<use href="#obstacle" x="4065" y="-1335" />
<use href="#obstacle" x="4065" y="-1735" />
<use href="#obstacle" x="4065" y="-2535" />
<use href="#obstacle" x="4065" y="-3735" />
<use href="#obstacle" x="4065" y="-4535" />
<use href="#obstacle" x="4065" y="-6435" />
<use href="#obstacle" x="4065" y="-6635" />
<use href="#obstacle" x="4165" y="-135" />
<use href="#obstacle" x="4165" y="-1035" />
<use href="#obstacle" x="4165" y="-1135" />
<use href="#obstacle" x="4165" y="-1435" />
<use href="#obstacle" x="4165" y="-3635" />
<use href="#obstacle" x="4165" y="-3735" />
<use href="#obstacle" x="4165" y="-4035" />
<use href="#obstacle" x="4165" y="-5635" />
<use href="#obstacle" x="4165" y="-6035" />
<use href="#obstacle" x="4165" y="-6635" />
<use href="#obstacle" x="4265" y="-135" />
<use href="#obstacle" x="4265" y="-335" />
<use href="#obstacle" x="4265" y="-635" />
<use href="#obstacle" x="4265" y="-1935" />
<use href="#obstacle" x="4265" y="-2535" />
<use href="#obstacle" x="4265" y="-2835" />
<use href="#obstacle" x="4265" y="-3435" />
<use href="#obstacle" x="4265" y="-4235" />
<use href="#obstacle" x="4265" y="-4535" />
<use href="#obstacle" x="4265" y="-5935" />
<use href="#obstacle" x="4265" y="-6435" />
<use href="#obstacle" x="4265" y="-6635" />
<use href="#obstacle" x="4365" y="-135" />
<use href="#obstacle" x="4365" y="-1935" />
<use href="#obstacle" x="4365" y="-2735" />
<use href="#obstacle" x="4365" y="-3535" />
<use href="#obstacle" x="4365" y="-3635" />
<use href="#obstacle" x="4365" y="-4135" />
<use href="#obstacle" x="4365" y="-6335" />
<use href="#obstacle" x="4365" y="-6635" />
<use href="#obstacle" x="4465" y="-135" />
<use href="#obstacle" x="4465" y="-2235" />
<use href="#obstacle" x="4465" y="-2535" />
<use href="#obstacle" x="4465" y="-2635" />
<use href="#obstacle" x="4465" y="-6335" />
<use href="#obstacle" x="4465" y="-6635" />
<use href="#obstacle" x="4565" y="-135" />
<use href="#obstacle" x="4565" y="-2435" />
<use href="#obstacle" x="4565" y="-2535" />
<use href="#obstacle" x="4565" y="-3535" />
<use href="#obstacle" x="4565" y="-3735" />
<use href="#obstacle" x="4565" y="-5235" />
<use href="#obstacle" x="4565" y="-6635" />
<use href="#obstacle" x="4665" y="-135" />
<use href="#obstacle" x="4665" y="-1035" />
<use href="#obstacle" x="4665" y="-2435" />
<use href="#obstacle" x="4665" y="-4135" />
<use href="#obstacle" x="4665" y="-4935" />
<use href="#obstacle" x="4665" y="-6335" />
<use href="#obstacle" x="4665" y="-6635" />
<use href="#obstacle" x="4765" y="-135" />
<use href="#obstacle" x="4765" y="-3235" />
<use href="#obstacle" x="4765" y="-6635" />
<use href="#obstacle" x="4865" y="-135" />
<use href="#obstacle" x="4865" y="-935" />
<use href="#obstacle" x="4865" y="-1235" />
<use href="#obstacle" x="4865" y="-1335" />
<use href="#obstacle" x="4865" y="-3135" />
<use href="#obstacle" x="4865" y="-3335" />
<use href="#obstacle" x="4865" y="-3435" />
<use href="#obstacle" x="4865" y="-5035" />
<use href="#obstacle" x="4865" y="-6635" />
<use href="#obstacle" x="4965" y="-135" />
<use href="#obstacle" x="4965" y="-235" />
<use href="#obstacle" x="4965" y="-735" />
<use href="#obstacle" x="4965" y="-1035" />
<use href="#obstacle" x="4965" y="-4435" />
<use href="#obstacle" x="4965" y="-4835" />
<use href="#obstacle" x="4965" y="-5135" />
<use href="#obstacle" x="4965" y="-5635" />
<use href="#obstacle" x="4965" y="-6635" />
<use href="#obstacle" x="5065" y="-135" />
<use href="#obstacle" x="5065" y="-535" />
<use href="#obstacle" x="5065" y="-1235" />
<use href="#obstacle" x="5065" y="-2535" />
<use href="#obstacle" x="5065" y="-4735" />
<use href="#obstacle" x="5065" y="-5735" />
<use href="#obstacle" x="5065" y="-6635" />
<use href="#obstacle" x="5165" y="-135" />
<use href="#obstacle" x="5165" y="-1335" />
<use href="#obstacle" x="5165" y="-2335" />
<use href="#obstacle" x="5165" y="-2635" />
<use href="#obstacle" x="5165" y="-5735" />
<use href="#obstacle" x="5165" y="-6635" />
<use href="#obstacle" x="5265" y="-135" />
<use href="#obstacle" x="5265" y="-835" />
<use href="#obstacle" x="5265" y="-1635" />
<use href="#obstacle" x="5265" y="-1735" />
<use href="#obstacle" x="5265" y="-2735" />
<use href="#obstacle" x="5265" y="-4035" />
<use href="#obstacle" x="5265" y="-4835" />
<use href="#obstacle" x="5265" y="-4935" />
<use href="#obstacle" x="5265" y="-5435" />
<use href="#obstacle" x="5265" y="-6635" />
<use href="#obstacle" x="5365" y="-135" />
<use href="#obstacle" x="5365" y="-735" />
<use href="#obstacle" x="5365" y="-2635" />
<use href="#obstacle" x="5365" y="-2735" />
<use href="#obstacle" x="5365" y="-3035" />
<use href="#obstacle" x="5365" y="-3135" />
<use href="#obstacle" x="5365" y="-5235" />
<use href="#obstacle" x="5365" y="-6435" />
<use href="#obstacle" x="5365" y="-6635" />
<use href="#obstacle" x="5465" y="-135" />
<use href="#obstacle" x="5465" y="-2335" />
<use href="#obstacle" x="5465" y="-3335" />
<use href="#obstacle" x="5465" y="-4135" />
<use href="#obstacle" x="5465" y="-4235" />
<use href="#obstacle" x="5465" y="-5435" />
<use href="#obstacle" x="5465" y="-6635" />
<use href="#obstacle" x="5565" y="-135" />
<use href="#obstacle" x="5565" y="-735" />
<use href="#obstacle" x="5565" y="-1735" />
<use href="#obstacle" x="5565" y="-1935" />
<use href="#obstacle" x="5565" y="-3035" />
<use href="#obstacle" x="5565" y="-3935" />
<use href="#obstacle" x="5565" y="-4035" />
<use href="#obstacle" x="5565" y="-6135" />
<use href="#obstacle" x="5565" y="-6235" />
<use href="#obstacle" x="5565" y="-6635" />
<use href="#obstacle" x="5665" y="-135" />
<use href="#obstacle" x="5665" y="-1435" />
<use href="#obstacle" x="5665" y="-3635" />
<use href="#obstacle" x="5665" y="-4835" />
<use href="#obstacle" x="5665" y="-5035" />
<use href="#obstacle" x="5665" y="-5135" />
<use href="#obstacle" x="5665" y="-5235" />
<use href="#obstacle" x="5665" y="-5535" />
<use href="#obstacle" x="5665" y="-5635" />
<use href="#obstacle" x="5665" y="-6635" />
<use href="#obstacle" x="5765" y="-135" />
<use href="#obstacle" x="5765" y="-1435" />
<use href="#obstacle" x="5765" y="-3535" />
<use href="#obstacle" x="5765" y="-5435" />
<use href="#obstacle" x="5765" y="-5635" />
<use href="#obstacle" x="5765" y="-5935" />
<use href="#obstacle" x="5765" y="-6635" />
<use href="#obstacle" x="5865" y="-135" />
<use href="#obstacle" x="5865" y="-835" />
<use href="#obstacle" x="5865" y="-1335" />
<use href="#obstacle" x="5865" y="-2235" />
<use href="#obstacle" x="5865" y="-3535" />
<use href="#obstacle" x="5865" y="-4535" />
<use href="#obstacle" x="5865" y="-5335" />
<use href="#obstacle" x="5865" y="-6635" />
<use href="#obstacle" x="5965" y="-135" />
<use href="#obstacle" x="5965" y="-635" />
<use href="#obstacle" x="5965" y="-735" />
<use href="#obstacle" x="5965" y="-2135" />
<use href="#obstacle" x="5965" y="-5935" />
<use href="#obstacle" x="5965" y="-6635" />
<use href="#obstacle" x="6065" y="-135" />
<use href="#obstacle" x="6065" y="-535" />
<use href="#obstacle" x="6065" y="-1535" />
<use href="#obstacle" x="6065" y="-2435" />
<use href="#obstacle" x="6065" y="-2535" />
<use href="#obstacle" x="6065" y="-3235" />
<use href="#obstacle" x="6065" y="-3535" />
<use href="#obstacle" x="6065" y="-3735" />
<use href="#obstacle" x="6065" y="-4735" />
<use href="#obstacle" x="6065" y="-6235" />
<use href="#obstacle" x="6065" y="-6435" />
<use href="#obstacle" x="6065" y="-6635" />
<use href="#obstacle" x="6165" y="-135" />
<use href="#obstacle" x="6165" y="-735" />
<use href="#obstacle" x="6165" y="-1635" />
<use href="#obstacle" x="6165" y="-4235" />
<use href="#obstacle" x="6165" y="-4735" />
<use href="#obstacle" x="6165" y="-6635" />
<use href="#obstacle" x="6265" y="-135" />
<use href="#obstacle" x="6265" y="-535" />
<use href="#obstacle" x="6265" y="-3035" />
<use href="#obstacle" x="6265" y="-3435" />
<use href="#obstacle" x="6265" y="-5435" />
<use href="#obstacle" x="6265" y="-6435" />
<use href="#obstacle" x="6265" y="-6635" />
<use href="#obstacle" x="6365" y="-135" />
<use href="#obstacle" x="6365" y="-935" />
<use href="#obstacle" x="6365" y="-1435" />
<use href="#obstacle" x="6365" y="-2935" />
<use href="#obstacle" x="6365" y="-4535" />
<use href="#obstacle" x="6365" y="-4835" />
<use href="#obstacle" x="6365" y="-5735" />
<use href="#obstacle" x="6365" y="-6635" />
<use href="#obstacle" x="6465" y="-135" />
<use href="#obstacle" x="6465" y="-1635" />
<use href="#obstacle" x="6465" y="-3335" />
<use href="#obstacle" x="6465" y="-3635" />
<use href="#obstacle" x="6465" y="-4935" />
<use href="#obstacle" x="6465" y="-6135" />
<use href="#obstacle" x="6465" y="-6635" />
<use href="#obstacle" x="6565" y="-135" />
<use href="#obstacle" x="6565" y="-235" />
<use href="#obstacle" x="6565" y="-335" />
<use href="#obstacle" x="6565" y="-435" />
<use href="#obstacle" x="6565" y="-535" />
<use href="#obstacle" x="6565" y="-635" />
<use href="#obstacle" x="6565" y="-735" />
<use href="#obstacle" x="6565" y="-835" />
<use href="#obstacle" x="6565" y="-935" />
<use href="#obstacle" x="6565" y="-1035" />
<use href="#obstacle" x="6565" y="-1135" />
<use href="#obstacle" x="6565" y="-1235" />
<use href="#obstacle" x="6565" y="-1335" />
<use href="#obstacle" x="6565" y="-1435" />
<use href="#obstacle" x="6565" y="-1535" />
<use href="#obstacle" x="6565" y="-1635" />
<use href="#obstacle" x="6565" y="-1735" />
<use href="#obstacle" x="6565" y="-1835" />
<use href="#obstacle" x="6565" y="-1935" />
<use href="#obstacle" x="6565" y="-2035" />
<use href="#obstacle" x="6565" y="-2135" />
<use href="#obstacle" x="6565" y="-2235" />
<use href="#obstacle" x="6565" y="-2335" />
<use href="#obstacle" x="6565" y="-2435" />
<use href="#obstacle" x="6565" y="-2535" />
<use href="#obstacle" x="6565" y="-2635" />
<use href="#obstacle" x="6565" y="-2735" />
<use href="#obstacle" x="6565" y="-2835" />
<use href="#obstacle" x="6565" y="-2935" />
<use href="#obstacle" x="6565" y="-3035" />
<use href="#obstacle" x="6565" y="-3135" />
<use href="#obstacle" x="6565" y="-3235" />
<use href="#obstacle" x="6565" y="-3335" />
<use href="#obstacle" x="6565" y="-3435" />
<use href="#obstacle" x="6565" y="-3535" />
<use href="#obstacle" x="6565" y="-3635" />
<use href="#obstacle" x="6565" y="-3735" />
<use href="#obstacle" x="6565" y="-3835" />
<use href="#obstacle" x="6565" y="-3935" />
<use href="#obstacle" x="6565" y="-4035" />
<use href="#obstacle" x="6565" y="-4135" />
<use href="#obstacle" x="6565" y="-4235" />
<use href="#obstacle" x="6565" y="-4335" />
<use href="#obstacle" x="6565" y="-4435" />
<use href="#obstacle" x="6565" y="-4535" />
<use href="#obstacle" x="6565" y="-4635" />
<use href="#obstacle" x="6565" y="-4735" />
<use href="#obstacle" x="6565" y="-4835" />
<use href="#obstacle" x="6565" y="-4935" />
<use href="#obstacle" x="6565" y="-5035" />
<use href="#obstacle" x="6565" y="-5135" />
<use href="#obstacle" x="6565" y="-5235" />
<use href="#obstacle" x="6565" y="-5335" />
<use href="#obstacle" x="6565" y="-5435" />
<use href="#obstacle" x="6565" y="-5535" />
<use href="#obstacle" x="6565" y="-5635" />
<use href="#obstacle" x="6565" y="-5735" />
<use href="#obstacle" x="6565" y="-5835" />
<use href="#obstacle" x="6565" y="-5935" />
<use href="#obstacle" x="6565" y="-6035" />
<use href="#obstacle" x="6565" y="-6135" />
<use href="#obstacle" x="6565" y="-6235" />
<use href="#obstacle" x="6565" y="-6335" />
<use href="#obstacle" x="6565" y="-6435" />
<use href="#obstacle" x="6565" y="-6535" />
<use href="#obstacle" x="6565" y="-6635" />
<circle class="agent" cx="6400" cy="-3500" fill="#c1433c" r="35"> <animate attributeName="cy" dur="64.25s" keyTimes="0.0;0.003875969;0.007751938;0.011627907;0.015503876;0.023255814;0.0271317829;0.0310077519;0.0348837209;0.0465116279;0.0503875969;0.0891472868;0.0930232558;0.0968992248;0.1007751938;0.1046511628;0.1085271318;0.1162790698;0.1201550388;0.1240310078;0.1279069767;0.1317829457;0.1395348837;0.1434108527;0.1472868217;0.1705426357;0.1744186047;0.1782945736;0.1821705426;0.1860465116;0.1899224806;0.2441860465;0.2480620155;0.2713178295;0.2751937984;0.2790697674;0.2829457364;0.2868217054;0.2906976744;0.2945736434;0.3217054264;0.3255813953;0.3527131783;0.3565891473;0.3604651163;0.3643410853;0.3682170543;0.3720930233;0.3759689922;0.3798449612;0.3837209302;0.4496124031;0.4534883721;0.476744186;0.480620155;0.484496124;0.488372093;0.492248062;0.5;0.503875969;0.507751938;0.519379845;0.523255814;0.5271317829;0.5348837209;0.5387596899;0.5426356589;0.5542635659;0.5581395349;0.5620155039;0.5697674419;0.5736434109;0.5775193798;0.5891472868;0.5930232558;0.5968992248;0.6046511628;0.6085271318;0.6124031008;0.6240310078;0.6279069767;0.6317829457;0.6395348837;0.6434108527;0.6472868217;0.6589147287;0.6627906977;0.6666666667;0.6744186047;0.6782945736;0.6821705426;0.6937984496;0.6976744186;0.7015503876;0.7093023256;0.7131782946;0.7170542636;0.7286821705;0.7325581395;0.7364341085;0.7441860465;0.7480620155;0.7519379845;0.7635658915;0.7674418605;0.7713178295;0.7790697674;0.7829457364;0.7868217054;0.7984496124;0.8023255814;0.8062015504;0.8139534884;0.8178294574;0.8217054264;0.8333333333;0.8372093023;0.8410852713;0.8488372093;0.8527131783;0.8565891473;0.8682170543;0.8720930233;0.8759689922;0.8837209302;0.8875968992;0.8914728682;0.9031007752;0.9069767442;0.9108527132;0.9186046512;0.9224806202;0.9263565891;0.9379844961;0.9418604651;0.9457364341;0.9534883721;0.9573643411;0.9612403101;0.9728682171;0.976744186;0.980620155;0.988372093;0.992248062;0.996124031;1.0" repeatCount="indefinite" values="-3500;-3500;-3400;-3400;-3300;-3300;-3200;-3100;-3000;-3000;-3100;-3100;-3000;-2900;-2800;-2700;-2600;-2600;-2700;-2600;-2600;-2500;-2500;-2400;-2300;-2300;-2400;-2300;-2200;-2100;-2000;-2000;-1900;-1900;-2000;-1900;-1800;-1700;-1600;-1500;-1500;-1400;-1400;-1300;-1200;-1100;-1000;-900;-800;-700;-600;-600;-700;-700;-800;-800;-900;-1000;-1000;-900;-800;-800;-900;-1000;-1000;-900;-800;-800;-900;-1000;-1000;-900;-800;-800;-900;-1000;-1000;-900;-800;-800;-900;-1000;-1000;-900;-800;-800;-900;-1000;-1000;-900;-800;-800;-900;-1000;-1000;-900;-800;-800;-900;-1000;-1000;-900;-800;-800;-900;-1000;-1000;-900;-800;-800;-900;-1000;-1000;-900;-800;-800;-900;-1000;-1000;-900;-800;-800;-900;-1000;-1000;-900;-800;-800;-900;-1000;-1000;-900;-800;-800;-900;-1000;-1000;-900;-800;-800;-900;-1000;-1000;-900;-800;-800"/>
<animate attributeName="cx" dur="64.25s" keyTimes="0.0;0.003875969;0.0503875969;0.0542635659;0.0581395349;0.0620155039;0.0736434109;0.0775193798;0.0813953488;0.0852713178;0.0891472868;0.1240310078;0.1279069767;0.1356589147;0.1395348837;0.1589147287;0.1627906977;0.1666666667;0.1705426357;0.2015503876;0.2054263566;0.2093023256;0.2131782946;0.2170542636;0.2286821705;0.2325581395;0.2364341085;0.2403100775;0.2441860465;0.2596899225;0.2635658915;0.2674418605;0.2713178295;0.3062015504;0.3100775194;0.3139534884;0.3178294574;0.3217054264;0.3372093023;0.3410852713;0.3449612403;0.3488372093;0.3527131783;0.3953488372;0.3992248062;0.4031007752;0.4069767442;0.4108527132;0.4224806202;0.4263565891;0.4302325581;0.4341085271;0.4379844961;0.4534883721;0.4573643411;0.4612403101;0.4651162791;0.480620155;0.484496124;1.0" repeatCount="indefinite" values="6400;6400;6400;6300;6200;6100;6100;6000;5900;5800;5700;5700;5800;5800;5900;5900;5800;5700;5600;5600;5500;5400;5300;5200;5200;5100;5000;4900;4800;4800;4700;4600;4500;4500;4400;4300;4200;4100;4100;4000;3900;3800;3700;3700;3600;3500;3400;3300;3300;3200;3100;3000;2900;2900;2800;2700;2600;2600;2500;2500"/>
<animate attributeName="visibility" dur="64.25s" keyTimes="0.0;0.003875969;1.0" repeatCount="indefinite" values="visible;visible;visible"/> </circle>
<circle class="agent" cx="1200" cy="-1800" fill="#2e6f9e" r="35"> <animate attributeName="cy" dur="64.25s" keyTimes="0.0;0.003875969;0.015503876;0.019379845;0.0426356589;0.0465116279;0.0503875969;0.0542635659;0.0581395349;0.0620155039;0.0658914729;0.0697674419;0.0775193798;0.0813953488;1.0" repeatCount="indefinite" values="-1800;-1800;-1800;-1700;-1700;-1600;-1600;-1500;-1400;-1300;-1300;-1200;-1200;-1100;-1100"/>
<animate attributeName="cx" dur="64.25s" keyTimes="0.0;0.003875969;0.007751938;0.011627907;0.015503876;0.019379845;0.023255814;0.0271317829;0.0310077519;0.0348837209;0.0387596899;0.0426356589;0.0465116279;0.0503875969;0.0620155039;0.0658914729;0.0697674419;0.0736434109;0.0775193798;1.0" repeatCount="indefinite" values="1200;1200;1300;1400;1500;1500;1600;1700;1800;1900;2000;2100;2100;2200;2200;2300;2300;2400;2500;2500"/>
<animate attributeName="visibility" dur="64.25s" keyTimes="0.0;0.003875969;1.0" repeatCount="indefinite" values="visible;visible;visible"/> </circle>
<circle class="agent" cx="3000" cy="-1200" fill="#6e81af" r="35"> <animate attributeName="cy" dur="64.25s" keyTimes="0.0;0.003875969;0.007751938;0.011627907;0.015503876;0.019379845;0.023255814;0.0271317829;0.0310077519;0.0348837209;0.0387596899;0.0426356589;0.0465116279;0.0503875969;0.0542635659;0.0581395349;0.0620155039;0.0658914729;0.0697674419;0.0736434109;0.0775193798;0.0813953488;0.0852713178;0.0891472868;0.0930232558;0.0968992248;0.1007751938;0.1046511628;0.1085271318;0.1124031008;0.1240310078;0.1279069767;0.1317829457;0.1356589147;0.1395348837;0.1434108527;0.1472868217;0.1511627907;0.1550387597;0.1627906977;0.1666666667;0.1705426357;0.1744186047;0.1821705426;0.1860465116;0.1899224806;0.1937984496;0.2015503876;0.2054263566;0.2093023256;0.2131782946;0.2170542636;0.2209302326;0.2248062016;0.2286821705;0.2364341085;0.2403100775;0.2441860465;0.2519379845;0.2558139535;1.0" repeatCount="indefinite" values="-1200;-1200;-1300;-1300;-1400;-1500;-1600;-1700;-1800;-1900;-2000;-2100;-2200;-2200;-2300;-2400;-2500;-2600;-2700;-2800;-2900;-3000;-3100;-3200;-3300;-3400;-3400;-3500;-3600;-3700;-3700;-3800;-3900;-4000;-4000;-4100;-4200;-4300;-4400;-4400;-4500;-4500;-4600;-4600;-4700;-4700;-4800;-4800;-4900;-4900;-5000;-5100;-5200;-5200;-5300;-5300;-5400;-5500;-5500;-5600;-5600"/>
<animate attributeName="cx" dur="64.25s" keyTimes="0.0;0.003875969;0.007751938;0.011627907;0.0465116279;0.0503875969;0.0968992248;0.1007751938;0.1124031008;0.1162790698;0.1201550388;0.1240310078;0.1356589147;0.1395348837;0.1550387597;0.1589147287;0.1627906977;0.1666666667;0.1705426357;0.1744186047;0.1782945736;0.1821705426;0.1860465116;0.1899224806;0.1937984496;0.1976744186;0.2015503876;0.2054263566;0.2093023256;0.2209302326;0.2248062016;0.2286821705;0.2325581395;0.2364341085;0.2441860465;0.2480620155;0.2519379845;0.2558139535;0.2596899225;1.0" repeatCount="indefinite" values="3000;3000;3000;2900;2900;2800;2800;2700;2700;2600;2500;2400;2400;2300;2300;2200;2100;2100;2000;2000;1900;1800;1800;1700;1700;1600;1500;1500;1400;1400;1300;1300;1200;1100;1100;1000;900;900;800;800"/>
<animate attributeName="visibility" dur="64.25s" keyTimes="0.0;0.003875969;1.0" repeatCount="indefinite" values="visible;visible;visible"/> </circle>
<circle class="agent" cx="5200" cy="-4500" fill="#00b9c8" r="35"> <animate attributeName="cy" dur="64.25s" keyTimes="0.0;0.003875969;0.0348837209;0.0387596899;0.0852713178;0.0891472868;0.1395348837;0.1434108527;0.1899224806;0.1937984496;0.1976744186;0.2015503876;0.2054263566;0.2093023256;0.2131782946;0.2170542636;0.2209302326;0.2248062016;0.2286821705;0.2325581395;1.0" repeatCount="indefinite" values="-4500;-4500;-4500;-4400;-4400;-4300;-4300;-4200;-4200;-4100;-4000;-3900;-3800;-3700;-3600;-3500;-3400;-3300;-3200;-3100;-3100"/>
<animate attributeName="cx" dur="64.25s" keyTimes="0.0;0.003875969;0.007751938;0.011627907;0.015503876;0.019379845;0.023255814;0.0271317829;0.0310077519;0.0348837209;0.0387596899;0.0426356589;0.0465116279;0.0503875969;0.0542635659;0.0581395349;0.0620155039;0.0658914729;0.0697674419;0.0736434109;0.0775193798;0.0813953488;0.0852713178;0.0891472868;0.0930232558;0.0968992248;0.1007751938;0.1046511628;0.1085271318;0.1124031008;0.1162790698;0.1201550388;0.1240310078;0.1279069767;0.1317829457;0.1356589147;0.1395348837;0.1434108527;0.1472868217;0.1511627907;0.1550387597;0.1589147287;0.1627906977;0.1666666667;0.1705426357;0.1744186047;0.1782945736;0.1821705426;0.1860465116;0.1899224806;1.0" repeatCount="indefinite" values="5200;5200;5100;5000;4900;4800;4700;4600;4500;4400;4400;4300;4200;4100;4000;3900;3800;3700;3600;3500;3400;3300;3200;3200;3100;3000;2900;2800;2700;2600;2500;2400;2300;2200;2100;2000;1900;1900;1800;1700;1600;1500;1400;1300;1200;1100;1000;900;800;700;700"/>
<animate attributeName="visibility" dur="64.25s" keyTimes="0.0;0.003875969;1.0" repeatCount="indefinite" values="visible;visible;visible"/> </circle>
<circle class="target" cx="1100" cy="-2400" r="35" stroke="#c1433c"> <animate attributeName="visibility" dur="64.25s" keyTimes="0.0;0.003875969;1.0" repeatCount="indefinite" values="visible;visible;visible"/> </circle>
<circle class="target" cx="2500" cy="-1100" r="35" stroke="#2e6f9e"> <animate attributeName="visibility" dur="64.25s" keyTimes="0.0;0.003875969;1.0" repeatCount="indefinite" values="visible;visible;visible"/> </circle>
<circle class="target" cx="800" cy="-5600" r="35" stroke="#6e81af"> <animate attributeName="visibility" dur="64.25s" keyTimes="0.0;0.003875969;1.0" repeatCount="indefinite" values="visible;visible;visible"/> </circle>
<circle class="target" cx="700" cy="-3100" r="35" stroke="#00b9c8"> <animate attributeName="visibility" dur="64.25s" keyTimes="0.0;0.003875969;1.0" repeatCount="indefinite" values="visible;visible;visible"/> </circle>
</svg>