<?xml version="1.0" encoding="UTF-8"?>
        <svg xmlns="http://www.w3.org/2000/svg" xmlns:xlink="http://www.w3.org/1999/xlink"
             width="430" height="430" viewBox="0 -4300 4300 4300">

<defs>

</defs>

<rect fill="#84A1AE" height="70" rx="15" width="70" x="465" y="-535" />
<rect fill="#84A1AE" height="70" rx="15" width="70" x="465" y="-635" />
<rect fill="#84A1AE" height="70" rx="15" width="70" x="465" y="-735" />
<rect fill="#84A1AE" height="70" rx="15" width="70" x="465" y="-835" />
<rect fill="#84A1AE" height="70" rx="15" width="70" x="465" y="-935" />
<rect fill="#84A1AE" height="70" rx="15" width="70" x="465" y="-1035" />
<rect fill="#84A1AE" height="70" rx="15" width="70" x="465" y="-1135" />
<rect fill="#84A1AE" height="70" rx="15" width="70" x="465" y="-1235" />
<rect fill="#84A1AE" height="70" rx="15" width="70" x="465" y="-1335" />
<rect fill="#84A1AE" height="70" rx="15" width="70" x="465" y="-1435" />
<rect fill="#84A1AE" height="70" rx="15" width="70" x="465" y="-1535" />
<rect fill="#84A1AE" height="70" rx="15" width="70" x="465" y="-1635" />
<rect fill="#84A1AE" height="70" rx="15" width="70" x="465" y="-1735" />
<rect fill="#84A1AE" height="70" rx="15" width="70" x="465" y="-1835" />
<rect fill="#84A1AE" height="70" rx="15" width="70" x="465" y="-1935" />
<rect fill="#84A1AE" height="70" rx="15" width="70" x="465" y="-2035" />
<rect fill="#84A1AE" height="70" rx="15" width="70" x="465" y="-2135" />
<rect fill="#84A1AE" height="70" rx="15" width="70" x="465" y="-2235" />
<rect fill="#84A1AE" height="70" rx="15" width="70" x="465" y="-2335" />
<rect fill="#84A1AE" height="70" rx="15" width="70" x="465" y="-2435" />
<rect fill="#84A1AE" height="70" rx="15" width="70" x="465" y="-2535" />
<rect fill="#84A1AE" height="70" rx="15" width="70" x="465" y="-2635" />
<rect fill="#84A1AE" height="70" rx="15" width="70" x="465" y="-2735" />
<rect fill="#84A1AE" height="70" rx="15" width="70" x="465" y="-2835" />
<rect fill="#84A1AE" height="70" rx="15" width="70" x="465" y="-2935" />
<rect fill="#84A1AE" height="70" rx="15" width="70" x="465" y="-3035" />
<rect fill="#84A1AE" height="70" rx="15" width="70" x="465" y="-3135" />
<rect fill="#84A1AE" height="70" rx="15" width="70" x="465" y="-3235" />
<rect fill="#84A1AE" height="70" rx="15" width="70" x="465" y="-3335" />
<rect fill="#84A1AE" height="70" rx="15" width="70" x="465" y="-3435" />
<rect fill="#84A1AE" height="70" rx="15" width="70" x="465" y="-3535" />
<rect fill="#84A1AE" height="70" rx="15" width="70" x="465" y="-3635" />
<rect fill="#84A1AE" height="70" rx="15" width="70" x="465" y="-3735" />
<rect fill="#84A1AE" height="70" rx="15" width="70" x="465" y="-3835" />
<rect fill="#84A1AE" height="70" rx="15" width="70" x="565" y="-535" />
<rect fill="#84A1AE" height="70" rx="15" width="70" x="565" y="-1635" />
<rect fill="#84A1AE" height="70" rx="15" width="70" x="565" y="-1935" />
<rect fill="#84A1AE" height="70" rx="15" width="70" x="565" y="-2735" />
<rect fill="#84A1AE" height="70" rx="15" width="70" x="565" y="-3835" />
<rect fill="#84A1AE" height="70" rx="15" width="70" x="665" y="-535" />
<rect fill="#84A1AE" height="70" rx="15" width="70" x="665" y="-1035" />
<rect fill="#84A1AE" height="70" rx="15" width="70" x="665" y="-2535" />
<rect fill="#84A1AE" height="70" rx="15" width="70" x="665" y="-3035" />
<rect fill="#84A1AE" height="70" rx="15" width="70" x="665" y="-3235" />
<rect fill="#84A1AE" height="70" rx="15" width="70" x="665" y="-3835" />
<rect fill="#84A1AE" height="70" rx="15" width="70" x="765" y="-535" />
<rect fill="#84A1AE" height="70" rx="15" width="70" x="765" y="-635" />
<rect fill="#84A1AE" height="70" rx="15" width="70" x="765" y="-3835" />
<rect fill="#84A1AE" height="70" rx="15" width="70" x="865" y="-535" />
<rect fill="#84A1AE" height="70" rx="15" width="70" x="865" y="-2435" />
<rect fill="#84A1AE" height="70" rx="15" width="70" x="865" y="-2535" />
<rect fill="#84A1AE" height="70" rx="15" width="70" x="865" y="-3335" />
<rect fill="#84A1AE" height="70" rx="15" width="70" x="865" y="-3435" />
<rect fill="#84A1AE" height="70" rx="15" width="70" x="865" y="-3835" />
<rect fill="#84A1AE" height="70" rx="15" width="70" x="965" y="-535" />
<rect fill="#84A1AE" height="70" rx="15" width="70" x="965" y="-735" />
<rect fill="#84A1AE" height="70" rx="15" width="70" x="965" y="-1635" />
<rect fill="#84A1AE" height="70" rx="15" width="70" x="965" y="-1835" />
<rect fill="#84A1AE" height="70" rx="15" width="70" x="965" y="-2835" />
<rect fill="#84A1AE" height="70" rx="15" width="70" x="965" y="-3435" />
<rect fill="#84A1AE" height="70" rx="15" width="70" x="965" y="-3835" />
<rect fill="#84A1AE" height="70" rx="15" width="70" x="1065" y="-535" />
<rect fill="#84A1AE" height="70" rx="15" width="70" x="1065" y="-1135" />
<rect fill="#84A1AE" height="70" rx="15" width="70" x="1065" y="-1835" />
<rect fill="#84A1AE" height="70" rx="15" width="70" x="1065" y="-3735" />
<rect fill="#84A1AE" height="70" rx="15" width="70" x="1065" y="-3835" />
<rect fill="#84A1AE" height="70" rx="15" width="70" x="1165" y="-535" />
<rect fill="#84A1AE" height="70" rx="15" width="70" x="1165" y="-635" />
<rect fill="#84A1AE" height="70" rx="15" width="70" x="1165" y="-735" />
<rect fill="#84A1AE" height="70" rx="15" width="70" x="1165" y="-1535" />
<rect fill="#84A1AE" height="70" rx="15" width="70" x="1165" y="-3835" />
<rect fill="#84A1AE" height="70" rx="15" width="70" x="1265" y="-535" />
<rect fill="#84A1AE" height="70" rx="15" width="70" x="1265" y="-2835" />
<rect fill="#84A1AE" height="70" rx="15" width="70" x="1265" y="-3435" />
<rect fill="#84A1AE" height="70" rx="15" width="70" x="1265" y="-3835" />
<rect fill="#84A1AE" height="70" rx="15" width="70" x="1365" y="-535" />
<rect fill="#84A1AE" height="70" rx="15" width="70" x="1365" y="-835" />
<rect fill="#84A1AE" height="70" rx="15" width="70" x="1365" y="-935" />
<rect fill="#84A1AE" height="70" rx="15" width="70" x="1365" y="-1035" />
<rect fill="#84A1AE" height="70" rx="15" width="70" x="1365" y="-1935" />
<rect fill="#84A1AE" height="70" rx="15" width="70" x="1365" y="-2335" />
<rect fill="#84A1AE" height="70" rx="15" width="70" x="1365" y="-2635" />
<rect fill="#84A1AE" height="70" rx="15" width="70" x="1365" y="-2835" />
<rect fill="#84A1AE" height="70" rx="15" width="70" x="1365" y="-2935" />
<rect fill="#84A1AE" height="70" rx="15" width="70" x="1365" y="-3035" />
<rect fill="#84A1AE" height="70" rx="15" width="70" x="1365" y="-3335" />
<rect fill="#84A1AE" height="70" rx="15" width="70" x="1365" y="-3835" />
<rect fill="#84A1AE" height="70" rx="15" width="70" x="1465" y="-535" />
<rect fill="#84A1AE" height="70" rx="15" width="70" x="1465" y="-1235" />
<rect fill="#84A1AE" height="70" rx="15" width="70" x="1465" y="-1535" />
<rect fill="#84A1AE" height="70" rx="15" width="70" x="1465" y="-2035" />
<rect fill="#84A1AE" height="70" rx="15" width="70" x="1465" y="-3135" />
<rect fill="#84A1AE" height="70" rx="15" width="70" x="1465" y="-3235" />
<rect fill="#84A1AE" height="70" rx="15" width="70" x="1465" y="-3835" />
<rect fill="#84A1AE" height="70" rx="15" width="70" x="1565" y="-535" />
<rect fill="#84A1AE" height="70" rx="15" width="70" x="1565" y="-3035" />
<rect fill="#84A1AE" height="70" rx="15" width="70" x="1565" y="-3835" />
<rect fill="#84A1AE" height="70" rx="15" width="70" x="1665" y="-535" />
<rect fill="#84A1AE" height="70" rx="15" width="70" x="1665" y="-3735" />
<rect fill="#84A1AE" height="70" rx="15" width="70" x="1665" y="-3835" />
<rect fill="#84A1AE" height="70" rx="15" width="70" x="1765" y="-535" />
<rect fill="#84A1AE" height="70" rx="15" width="70" x="1765" y="-1235" />
<rect fill="#84A1AE" height="70" rx="15" width="70" x="1765" y="-3835" />
<rect fill="#84A1AE" height="70" rx="15" width="70" x="1865" y="-535" />
<rect fill="#84A1AE" height="70" rx="15" width="70" x="1865" y="-735" />
<rect fill="#84A1AE" height="70" rx="15" width="70" x="1865" y="-1335" />
<rect fill="#84A1AE" height="70" rx="15" width="70" x="1865" y="-3235" />
<rect fill="#84A1AE" height="70" rx="15" width="70" x="1865" y="-3435" />
<rect fill="#84A1AE" height="70" rx="15" width="70" x="1865" y="-3835" />
<rect fill="#84A1AE" height="70" rx="15" width="70" x="1965" y="-535" />
<rect fill="#84A1AE" height="70" rx="15" width="70" x="1965" y="-635" />
<rect fill="#84A1AE" height="70" rx="15" width="70" x="1965" y="-1835" />
<rect fill="#84A1AE" height="70" rx="15" width="70" x="1965" y="-1935" />
<rect fill="#84A1AE" height="70" rx="15" width="70" x="1965" y="-2135" />
<rect fill="#84A1AE" height="70" rx="15" width="70" x="1965" y="-2335" />
<rect fill="#84A1AE" height="70" rx="15" width="70" x="1965" y="-2435" />
<rect fill="#84A1AE" height="70" rx="15" width="70" x="1965" y="-3335" />
<rect fill="#84A1AE" height="70" rx="15" width="70" x="1965" y="-3835" />
<rect fill="#84A1AE" height="70" rx="15" width="70" x="2065" y="-535" />
<rect fill="#84A1AE" height="70" rx="15" width="70" x="2065" y="-1535" />
<rect fill="#84A1AE" height="70" rx="15" width="70" x="2065" y="-1635" />
<rect fill="#84A1AE" height="70" rx="15" width="70" x="2065" y="-2135" />
<rect fill="#84A1AE" height="70" rx="15" width="70" x="2065" y="-3835" />
<rect fill="#84A1AE" height="70" rx="15" width="70" x="2165" y="-535" />
<rect fill="#84A1AE" height="70" rx="15" width="70" x="2165" y="-935" />
<rect fill="#84A1AE" height="70" rx="15" width="70" x="2165" y="-1335" />
<rect fill="#84A1AE" height="70" rx="15" width="70" x="2165" y="-1835" />
<rect fill="#84A1AE" height="70" rx="15" width="70" x="2165" y="-3835" />
<rect fill="#84A1AE" height="70" rx="15" width="70" x="2265" y="-535" />
<rect fill="#84A1AE" height="70" rx="15" width="70" x="2265" y="-935" />
<rect fill="#84A1AE" height="70" rx="15" width="70" x="2265" y="-1135" />
<rect fill="#84A1AE" height="70" rx="15" width="70" x="2265" y="-2535" />
<rect fill="#84A1AE" height="70" rx="15" width="70" x="2265" y="-3235" />
<rect fill="#84A1AE" height="70" rx="15" width="70" x="2265" y="-3835" />
<rect fill="#84A1AE" height="70" rx="15" width="70" x="2365" y="-535" />
<rect fill="#84A1AE" height="70" rx="15" width="70" x="2365" y="-935" />
<rect fill="#84A1AE" height="70" rx="15" width="70" x="2365" y="-1035" />
<rect fill="#84A1AE" height="70" rx="15" width="70" x="2365" y="-3835" />
<rect fill="#84A1AE" height="70" rx="15" width="70" x="2465" y="-535" />
<rect fill="#84A1AE" height="70" rx="15" width="70" x="2465" y="-935" />
<rect fill="#84A1AE" height="70" rx="15" width="70" x="2465" y="-1535" />
<rect fill="#84A1AE" height="70" rx="15" width="70" x="2465" y="-2335" />
<rect fill="#84A1AE" height="70" rx="15" width="70" x="2465" y="-2735" />
<rect fill="#84A1AE" height="70" rx="15" width="70" x="2465" y="-3835" />
<rect fill="#84A1AE" height="70" rx="15" width="70" x="2565" y="-535" />
<rect fill="#84A1AE" height="70" rx="15" width="70" x="2565" y="-735" />
<rect fill="#84A1AE" height="70" rx="15" width="70" x="2565" y="-2535" />
<rect fill="#84A1AE" height="70" rx="15" width="70" x="2565" y="-3835" />
<rect fill="#84A1AE" height="70" rx="15" width="70" x="2665" y="-535" />
<rect fill="#84A1AE" height="70" rx="15" width="70" x="2665" y="-635" />
<rect fill="#84A1AE" height="70" rx="15" width="70" x="2665" y="-1135" />
<rect fill="#84A1AE" height="70" rx="15" width="70" x="2665" y="-1435" />
<rect fill="#84A1AE" height="70" rx="15" width="70" x="2665" y="-2735" />
<rect fill="#84A1AE" height="70" rx="15" width="70" x="2665" y="-3835" />
<rect fill="#84A1AE" height="70" rx="15" width="70" x="2765" y="-535" />
<rect fill="#84A1AE" height="70" rx="15" width="70" x="2765" y="-1635" />
<rect fill="#84A1AE" height="70" rx="15" width="70" x="2765" y="-1835" />
<rect fill="#84A1AE" height="70" rx="15" width="70" x="2765" y="-1935" />
<rect fill="#84A1AE" height="70" rx="15" width="70" x="2765" y="-2235" />
<rect fill="#84A1AE" height="70" rx="15" width="70" x="2765" y="-3735" />
<rect fill="#84A1AE" height="70" rx="15" width="70" x="2765" y="-3835" />
<rect fill="#84A1AE" height="70" rx="15" width="70" x="2865" y="-535" />
<rect fill="#84A1AE" height="70" rx="15" width="70" x="2865" y="-3835" />
<rect fill="#84A1AE" height="70" rx="15" width="70" x="2965" y="-535" />
<rect fill="#84A1AE" height="70" rx="15" width="70" x="2965" y="-2635" />
<rect fill="#84A1AE" height="70" rx="15" width="70" x="2965" y="-3835" />
<rect fill="#84A1AE" height="70" rx="15" width="70" x="3065" y="-535" />
<rect fill="#84A1AE" height="70" rx="15" width="70" x="3065" y="-735" />
<rect fill="#84A1AE" height="70" rx="15" width="70" x="3065" y="-2535" />
<rect fill="#84A1AE" height="70" rx="15" width="70" x="3065" y="-3835" />
<rect fill="#84A1AE" height="70" rx="15" width="70" x="3165" y="-535" />
<rect fill="#84A1AE" height="70" rx="15" width="70" x="3165" y="-835" />
<rect fill="#84A1AE" height="70" rx="15" width="70" x="3165" y="-1935" />
<rect fill="#84A1AE" height="70" rx="15" width="70" x="3165" y="-2735" />
<rect fill="#84A1AE" height="70" rx="15" width="70" x="3165" y="-3135" />
<rect fill="#84A1AE" height="70" rx="15" width="70" x="3165" y="-3835" />
<rect fill="#84A1AE" height="70" rx="15" width="70" x="3265" y="-535" />
<rect fill="#84A1AE" height="70" rx="15" width="70" x="3265" y="-1035" />
<rect fill="#84A1AE" height="70" rx="15" width="70" x="3265" y="-1735" />
<rect fill="#84A1AE" height="70" rx="15" width="70" x="3265" y="-3835" />
<rect fill="#84A1AE" height="70" rx="15" width="70" x="3365" y="-535" />
<rect fill="#84A1AE" height="70" rx="15" width="70" x="3365" y="-1435" />
<rect fill="#84A1AE" height="70" rx="15" width="70" x="3365" y="-1935" />
<rect fill="#84A1AE" height="70" rx="15" width="70" x="3365" y="-2135" />
<rect fill="#84A1AE" height="70" rx="15" width="70" x="3365" y="-3835" />
<rect fill="#84A1AE" height="70" rx="15" width="70" x="3465" y="-535" />
<rect fill="#84A1AE" height="70" rx="15" width="70" x="3465" y="-2635" />
<rect fill="#84A1AE" height="70" rx="15" width="70" x="3465" y="-3835" />
<rect fill="#84A1AE" height="70" rx="15" width="70" x="3565" y="-535" />
<rect fill="#84A1AE" height="70" rx="15" width="70" x="3565" y="-635" />
<rect fill="#84A1AE" height="70" rx="15" width="70" x="3565" y="-2435" />
<rect fill="#84A1AE" height="70" rx="15" width="70" x="3565" y="-3235" />
<rect fill="#84A1AE" height="70" rx="15" width="70" x="3565" y="-3835" />
<rect fill="#84A1AE" height="70" rx="15" width="70" x="3665" y="-535" />
<rect fill="#84A1AE" height="70" rx="15" width="70" x="3665" y="-2135" />
<rect fill="#84A1AE" height="70" rx="15" width="70" x="3665" y="-2835" />
<rect fill="#84A1AE" height="70" rx="15" width="70" x="3665" y="-3135" />
<rect fill="#84A1AE" height="70" rx="15" width="70" x="3665" y="-3735" />
<rect fill="#84A1AE" height="70" rx="15" width="70" x="3665" y="-3835" />
<rect fill="#84A1AE" height="70" rx="15" width="70" x="3765" y="-535" />
<rect fill="#84A1AE" height="70" rx="15" width="70" x="3765" y="-635" />
<rect fill="#84A1AE" height="70" rx="15" width="70" x="3765" y="-735" />
<rect fill="#84A1AE" height="70" rx="15" width="70" x="3765" y="-835" />
<rect fill="#84A1AE" height="70" rx="15" width="70" x="3765" y="-935" />
<rect fill="#84A1AE" height="70" rx="15" width="70" x="3765" y="-1035" />
<rect fill="#84A1AE" height="70" rx="15" width="70" x="3765" y="-1135" />
<rect fill="#84A1AE" height="70" rx="15" width="70" x="3765" y="-1235" />
<rect fill="#84A1AE" height="70" rx="15" width="70" x="3765" y="-1335" />
<rect fill="#84A1AE" height="70" rx="15" width="70" x="3765" y="-1435" />
<rect fill="#84A1AE" height="70" rx="15" width="70" x="3765" y="-1535" />
<rect fill="#84A1AE" height="70" rx="15" width="70" x="3765" y="-1635" />
<rect fill="#84A1AE" height="70" rx="15" width="70" x="3765" y="-1735" />
<rect fill="#84A1AE" height="70" rx="15" width="70" x="3765" y="-1835" />
<rect fill="#84A1AE" height="70" rx="15" width="70" x="3765" y="-1935" />
<rect fill="#84A1AE" height="70" rx="15" width="70" x="3765" y="-2035" />
<rect fill="#84A1AE" height="70" rx="15" width="70" x="3765" y="-2135" />
<rect fill="#84A1AE" height="70" rx="15" width="70" x="3765" y="-2235" />
<rect fill="#84A1AE" height="70" rx="15" width="70" x="3765" y="-2335" />
<rect fill="#84A1AE" height="70" rx="15" width="70" x="3765" y="-2435" />
<rect fill="#84A1AE" height="70" rx="15" width="70" x="3765" y="-2535" />
<rect fill="#84A1AE" height="70" rx="15" width="70" x="3765" y="-2635" />
<rect fill="#84A1AE" height="70" rx="15" width="70" x="3765" y="-2735" />
<rect fill="#84A1AE" height="70" rx="15" width="70" x="3765" y="-2835" />
<rect fill="#84A1AE" height="70" rx="15" width="70" x="3765" y="-2935" />
<rect fill="#84A1AE" height="70" rx="15" width="70" x="3765" y="-3035" />
<rect fill="#84A1AE" height="70" rx="15" width="70" x="3765" y="-3135" />
<rect fill="#84A1AE" height="70" rx="15" width="70" x="3765" y="-3235" />
<rect fill="#84A1AE" height="70" rx="15" width="70" x="3765" y="-3335" />
<rect fill="#84A1AE" height="70" rx="15" width="70" x="3765" y="-3435" />
<rect fill="#84A1AE" height="70" rx="15" width="70" x="3765" y="-3535" />
<rect fill="#84A1AE" height="70" rx="15" width="70" x="3765" y="-3635" />
<rect fill="#84A1AE" height="70" rx="15" width="70" x="3765" y="-3735" />
<rect fill="#84A1AE" height="70" rx="15" width="70" x="3765" y="-3835" />
<circle cx="2500" cy="-1400" fill="#c1433c" r="35"> <animate attributeName="cy" dur="112.84000000000002s" keyTimes="0.0;0.0024752475;0.004950495;0.0074257426;0.0099009901;0.0123762376;0.0148514851;0.0173267327;0.0198019802;0.0222772277;0.0247524752;0.0272277228;0.0297029703;0.0321782178;0.0346534653;0.0371287129;0.0396039604;0.0420792079;0.0445544554;0.047029703;0.0495049505;0.0717821782;0.0742574257;0.0767326733;0.0891089109;0.0915841584;0.0940594059;0.0965346535;0.099009901;0.1014851485;0.103960396;0.1064356436;0.1089108911;0.1113861386;0.1138613861;0.1163366337;0.1188118812;0.1212871287;0.1237623762;0.1262376238;0.1287128713;0.1311881188;0.1336633663;0.1361386139;0.1386138614;0.1410891089;0.1435643564;0.1534653465;0.1559405941;0.1584158416;0.1608910891;0.1633663366;0.1658415842;0.1683168317;0.1707920792;0.1732673267;0.1757425743;0.1782178218;0.1806930693;0.1831683168;0.1856435644;0.1881188119;0.1905940594;0.1930693069;0.1955445545;0.198019802;0.2004950495;0.202970297;0.2054455446;0.2079207921;0.2103960396;0.2128712871;0.2153465347;0.2178217822;0.2202970297;0.2772277228;0.2797029703;0.2821782178;0.2846534653;0.2871287129;0.2896039604;0.2920792079;0.2945544554;0.297029703;0.2995049505;0.301980198;0.3044554455;0.3069306931;0.3094059406;0.3118811881;0.3143564356;0.3168316832;0.3193069307;0.3217821782;0.3242574257;0.3267326733;0.3292079208;0.3316831683;0.3341584158;0.3366336634;0.3391089109;0.353960396;0.3564356436;0.3589108911;0.3613861386;0.3638613861;0.3663366337;0.3688118812;0.3712871287;0.3737623762;0.3762376238;0.3787128713;0.3811881188;0.3836633663;0.3861386139;0.3886138614;0.3910891089;0.4059405941;0.4084158416;0.4158415842;0.4183168317;0.4207920792;0.4232673267;0.4257425743;0.4282178218;0.4306930693;0.4331683168;0.4356435644;0.4381188119;0.4405940594;0.4430693069;0.4455445545;0.448019802;0.4504950495;0.452970297;0.4554455446;0.4579207921;0.4603960396;0.4628712871;0.4653465347;0.4678217822;0.4702970297;0.4727722772;0.4752475248;0.4777227723;0.4801980198;0.4826732673;0.4851485149;0.4876237624;0.4900990099;0.495049505;0.4975247525;0.5;0.5024752475;0.504950495;0.5074257426;0.5099009901;0.5123762376;0.5148514851;0.5198019802;0.5222772277;0.547029703;0.5495049505;0.551980198;0.5544554455;0.5569306931;0.5594059406;0.5618811881;0.5643564356;0.5668316832;0.5693069307;0.5717821782;0.5742574257;0.5767326733;0.5792079208;0.5816831683;0.5940594059;0.5965346535;0.599009901;0.6014851485;0.6089108911;0.6113861386;0.6138613861;0.6188118812;0.6212871287;0.6237623762;0.6287128713;0.6311881188;0.6336633663;0.6361386139;0.6386138614;0.6410891089;0.6435643564;0.646039604;0.6485148515;0.650990099;0.6534653465;0.6806930693;0.6831683168;0.6881188119;0.6905940594;0.7004950495;0.702970297;0.7054455446;0.7079207921;0.7103960396;0.7128712871;0.7153465347;0.7178217822;0.7202970297;0.7227722772;0.7252475248;0.7277227723;0.7301980198;0.7326732673;0.7351485149;0.7376237624;0.7425742574;0.745049505;0.7475247525;0.75;0.754950495;0.7574257426;0.7599009901;0.7623762376;0.7648514851;0.7698019802;0.7722772277;0.7772277228;0.7797029703;0.7846534653;0.7871287129;0.7896039604;0.7920792079;0.7945544554;0.7995049505;0.801980198;0.8044554455;0.8069306931;0.8094059406;0.8118811881;0.8143564356;0.8292079208;0.8316831683;0.8341584158;0.8366336634;0.8391089109;0.8415841584;0.8440594059;0.8465346535;0.849009901;0.8514851485;0.853960396;0.8564356436;0.8589108911;0.8613861386;0.8638613861;0.8663366337;0.8688118812;0.8712871287;0.8737623762;0.8762376238;0.8787128713;0.8811881188;0.8836633663;0.8861386139;0.8886138614;0.8910891089;0.8935643564;0.896039604;0.8985148515;0.900990099;0.9034653465;0.9059405941;0.9084158416;0.9108910891;0.9133663366;0.9306930693;0.9331683168;0.9356435644;0.9405940594;0.9430693069;0.9455445545;0.948019802;0.9504950495;0.952970297;0.9554455446;0.9579207921;0.9603960396;0.9628712871;0.9653465347;0.9678217822;0.9727722772;0.9752475248;0.9777227723;0.9801980198;0.9826732673;0.9851485149;0.9876237624;0.9925742574;0.995049505;1.0" repeatCount="indefinite" values="-1400;-1400;-1400;-1500;-1600;-1700;-1800;-1900;-2000;-2100;-2200;-2300;-2400;-2400;-2500;-2600;-2600;-2700;-2800;-2900;-3000;-3000;-2900;-2800;-2800;-2700;-2600;-2600;-2500;-2400;-2400;-2300;-2200;-2100;-2000;-1900;-1800;-1700;-1600;-1500;-1400;-1300;-1200;-1100;-1000;-900;-800;-800;-700;-800;-800;-900;-1000;-1100;-1200;-1300;-1400;-1400;-1500;-1600;-1700;-1700;-1800;-1900;-2000;-2000;-2100;-2200;-2300;-2400;-2500;-2600;-2700;-2800;-2900;-2900;-2800;-2700;-2600;-2500;-2400;-2300;-2200;-2100;-2000;-1900;-1800;-1700;-1600;-1500;-1500;-1400;-1300;-1200;-1100;-1000;-1000;-900;-800;-700;-800;-800;-900;-1000;-1100;-1200;-1300;-1400;-1400;-1500;-1600;-1700;-1700;-1800;-1900;-2000;-2100;-2100;-2200;-2200;-2300;-2400;-2500;-2600;-2600;-2700;-2800;-2900;-3000;-3100;-3200;-3300;-3400;-3500;-3600;-3700;-3600;-3500;-3400;-3300;-3200;-3100;-3000;-2900;-2800;-2700;-2600;-2600;-2500;-2400;-2400;-2300;-2300;-2200;-2100;-2100;-2000;-2000;-1900;-1900;-2000;-2000;-2100;-2200;-2200;-2300;-2400;-2500;-2600;-2700;-2800;-2900;-3000;-3100;-3200;-3300;-3300;-3200;-3200;-3100;-3100;-3000;-2900;-2900;-2800;-2700;-2700;-2600;-2500;-2400;-2300;-2200;-2100;-2000;-1900;-1800;-1700;-1700;-1600;-1600;-1500;-1500;-1400;-1300;-1200;-1200;-1100;-1200;-1300;-1400;-1500;-1600;-1600;-1700;-1800;-1900;-2000;-2000;-2100;-2100;-2200;-2200;-2300;-2400;-2500;-2600;-2600;-2700;-2700;-2800;-2800;-2900;-3000;-3000;-3100;-3100;-3200;-3300;-3300;-3400;-3400;-3500;-3500;-3400;-3300;-3200;-3100;-3000;-2900;-2800;-2700;-2600;-2500;-2400;-2300;-2200;-2100;-2000;-1900;-1800;-1700;-1600;-1500;-1400;-1500;-1600;-1700;-1800;-1900;-2000;-2100;-2200;-2300;-2400;-2500;-2600;-2700;-2700;-2800;-2900;-2900;-3000;-3100;-3200;-3300;-3200;-3100;-3000;-2900;-2900;-2800;-2700;-2700;-2600;-2600;-2500;-2500;-2400;-2300;-2300;-2200;-2200"/>
<animate attributeName="cx" dur="112.84000000000002s" keyTimes="0.0;0.0024752475;0.004950495;0.0297029703;0.0321782178;0.0371287129;0.0396039604;0.0495049505;0.051980198;0.0544554455;0.0569306931;0.0594059406;0.0618811881;0.0643564356;0.0668316832;0.0693069307;0.0717821782;0.0767326733;0.0792079208;0.0816831683;0.0841584158;0.0866336634;0.0891089109;0.0940594059;0.0965346535;0.1014851485;0.103960396;0.1435643564;0.146039604;0.1485148515;0.150990099;0.1534653465;0.1584158416;0.1608910891;0.1757425743;0.1782178218;0.1856435644;0.1881188119;0.1955445545;0.198019802;0.2202970297;0.2227722772;0.2252475248;0.2277227723;0.2301980198;0.2326732673;0.2351485149;0.2376237624;0.2400990099;0.2425742574;0.245049505;0.2475247525;0.25;0.2524752475;0.254950495;0.2574257426;0.2599009901;0.2623762376;0.2648514851;0.2673267327;0.2698019802;0.2722772277;0.2747524752;0.2772277228;0.3118811881;0.3143564356;0.3267326733;0.3292079208;0.3391089109;0.3415841584;0.3440594059;0.3465346535;0.349009901;0.3514851485;0.353960396;0.3688118812;0.3712871287;0.3787128713;0.3811881188;0.3910891089;0.3935643564;0.396039604;0.3985148515;0.400990099;0.4034653465;0.4059405941;0.4084158416;0.4108910891;0.4133663366;0.4158415842;0.4257425743;0.4282178218;0.4826732673;0.4851485149;0.4900990099;0.4925742574;0.495049505;0.4975247525;0.5;0.504950495;0.5074257426;0.5099009901;0.5123762376;0.5148514851;0.5173267327;0.5198019802;0.5222772277;0.5247524752;0.5272277228;0.5297029703;0.5321782178;0.5346534653;0.5371287129;0.5396039604;0.5420792079;0.5445544554;0.547029703;0.551980198;0.5544554455;0.5816831683;0.5841584158;0.5866336634;0.5891089109;0.5915841584;0.5940594059;0.5965346535;0.599009901;0.6014851485;0.603960396;0.6064356436;0.6089108911;0.6138613861;0.6163366337;0.6188118812;0.6237623762;0.6262376238;0.6287128713;0.6534653465;0.6559405941;0.6584158416;0.6608910891;0.6633663366;0.6658415842;0.6683168317;0.6707920792;0.6732673267;0.6757425743;0.6782178218;0.6806930693;0.6831683168;0.6856435644;0.6881188119;0.6905940594;0.6930693069;0.6955445545;0.698019802;0.7004950495;0.7079207921;0.7103960396;0.7252475248;0.7277227723;0.7376237624;0.7400990099;0.7425742574;0.745049505;0.7475247525;0.75;0.7524752475;0.754950495;0.7648514851;0.7673267327;0.7698019802;0.7722772277;0.7747524752;0.7772277228;0.7797029703;0.7821782178;0.7846534653;0.7896039604;0.7920792079;0.797029703;0.7995049505;0.8044554455;0.8069306931;0.8094059406;0.8118811881;0.8143564356;0.8168316832;0.8193069307;0.8217821782;0.8242574257;0.8267326733;0.8292079208;0.9133663366;0.9158415842;0.9183168317;0.9207920792;0.9232673267;0.9257425743;0.9282178218;0.9306930693;0.9356435644;0.9381188119;0.9405940594;0.9603960396;0.9628712871;0.9678217822;0.9702970297;0.9727722772;0.9752475248;0.9777227723;0.9801980198;0.9826732673;0.9876237624;0.9900990099;0.9925742574;0.995049505;0.9975247525;1.0" repeatCount="indefinite" values="2500;2500;2600;2600;2700;2700;2800;2800;2900;3000;3100;3200;3300;3400;3500;3400;3300;3300;3200;3100;3000;2900;2800;2800;2700;2700;2600;2600;2500;2400;2300;2200;2200;2100;2100;2200;2200;2300;2300;2200;2200;2300;2400;2500;2600;2700;2800;2900;3000;3100;3200;3300;3400;3500;3600;3700;3600;3500;3400;3300;3200;3100;3000;2900;2900;2800;2800;2700;2700;2600;2500;2400;2300;2200;2100;2100;2200;2200;2300;2300;2400;2500;2600;2700;2800;2900;2900;3000;3100;3200;3200;3100;3100;3200;3200;3300;3400;3400;3500;3500;3600;3600;3700;3700;3600;3500;3500;3400;3300;3200;3100;3000;2900;2800;2700;2600;2500;2500;2400;2400;2500;2400;2300;2200;2100;2100;2000;2000;1900;1800;1700;1700;1600;1500;1500;1400;1300;1300;1400;1500;1600;1700;1800;1900;2000;2100;2200;2300;2400;2400;2500;2600;2600;2700;2800;2800;2900;2900;3000;3000;2900;2900;2800;2700;2700;2600;2600;2500;2400;2400;2300;2200;2200;2100;2000;2000;1900;1800;1800;1700;1700;1600;1600;1500;1500;1400;1400;1300;1200;1100;1000;900;800;800;900;1000;1100;1200;1300;1400;1500;1500;1600;1700;1700;1800;1800;1900;2000;2000;2100;2100;2200;2200;2300;2400;2400;2500;2500"/>
<animate attributeName="visibility" dur="112.84000000000002s" keyTimes="0.0;0.0024752475;1.0" repeatCount="indefinite" values="visible;visible;visible"/> </circle>
<circle cx="3000" cy="-1900" fill="#2e6f9e" r="35"> <animate attributeName="cy" dur="112.84000000000002s" keyTimes="0.0;0.0024752475;0.004950495;0.0074257426;0.0099009901;0.0123762376;0.0148514851;0.0173267327;0.0198019802;0.0222772277;0.0247524752;0.0272277228;0.0396039604;0.0420792079;0.0445544554;0.047029703;0.0544554455;0.0569306931;0.0594059406;0.0618811881;0.0643564356;0.0668316832;0.0693069307;0.0717821782;0.0742574257;0.0767326733;0.0792079208;0.0816831683;0.0841584158;0.0866336634;0.0891089109;0.0915841584;0.0940594059;0.0965346535;0.1138613861;0.1163366337;0.1212871287;0.1237623762;0.1287128713;0.1311881188;0.1361386139;0.1386138614;0.1559405941;0.1584158416;0.1633663366;0.1658415842;0.1683168317;0.1732673267;0.1757425743;0.1806930693;0.1831683168;0.1856435644;0.1881188119;0.1905940594;0.1930693069;0.1955445545;0.198019802;0.2004950495;0.202970297;0.2054455446;0.2079207921;0.2103960396;0.2128712871;0.2153465347;0.2178217822;0.2202970297;0.2227722772;0.2252475248;0.2277227723;0.2301980198;0.2326732673;0.2351485149;0.2376237624;0.2400990099;0.2425742574;0.245049505;0.2475247525;0.25;0.2524752475;0.254950495;0.2574257426;0.2648514851;0.2673267327;0.2698019802;0.2920792079;0.2945544554;0.297029703;0.2995049505;0.301980198;0.3044554455;0.3366336634;0.3391089109;0.3415841584;0.3465346535;0.349009901;0.3514851485;0.353960396;0.3564356436;0.3589108911;0.3663366337;0.3688118812;0.3886138614;0.3910891089;0.3935643564;0.396039604;0.3985148515;0.400990099;0.4034653465;0.4059405941;0.4084158416;0.4108910891;0.4133663366;0.4158415842;0.4183168317;0.4207920792;0.4232673267;0.4257425743;0.4282178218;0.4306930693;0.4331683168;0.4356435644;0.4381188119;0.4405940594;0.4504950495;0.452970297;0.4554455446;0.4579207921;0.4603960396;0.4628712871;0.4653465347;0.4678217822;0.4702970297;0.4727722772;0.4752475248;0.4777227723;0.4801980198;0.4826732673;0.4851485149;0.4876237624;0.4900990099;0.4925742574;0.495049505;0.4975247525;0.5;0.5024752475;0.504950495;0.5074257426;0.5099009901;0.5123762376;0.5148514851;0.5173267327;0.5198019802;0.5222772277;0.5247524752;0.5272277228;0.5297029703;0.5321782178;0.5346534653;0.5371287129;0.5396039604;0.5420792079;0.5445544554;0.551980198;0.5544554455;0.5569306931;0.5594059406;0.5618811881;0.5643564356;0.5668316832;0.6163366337;0.6188118812;0.6212871287;0.6237623762;0.6262376238;0.6287128713;0.6311881188;0.6336633663;0.6361386139;0.6386138614;0.6410891089;0.6435643564;0.646039604;0.6485148515;0.650990099;0.6534653465;0.6559405941;0.6584158416;0.6608910891;0.6633663366;0.6658415842;0.6683168317;0.6707920792;0.6732673267;0.6757425743;0.6782178218;0.6806930693;0.6831683168;0.6856435644;0.6881188119;0.6905940594;0.6930693069;0.6955445545;0.698019802;0.7004950495;0.702970297;0.7054455446;0.7079207921;0.7103960396;0.7128712871;0.7153465347;0.7178217822;0.7202970297;0.7227722772;0.7252475248;0.7277227723;0.7301980198;0.7326732673;0.7351485149;0.7376237624;0.7400990099;0.7425742574;0.745049505;0.7475247525;0.75;0.7524752475;0.754950495;0.7574257426;0.7599009901;0.7821782178;0.7846534653;0.7871287129;0.7896039604;0.7920792079;0.797029703;0.7995049505;0.801980198;0.8044554455;0.8069306931;0.8094059406;0.8118811881;0.8143564356;0.8168316832;0.8193069307;0.8217821782;0.8242574257;0.8267326733;0.8292079208;0.8316831683;0.8341584158;0.8366336634;0.8391089109;0.8415841584;0.8440594059;0.8465346535;0.849009901;0.8514851485;0.853960396;0.8564356436;0.8589108911;0.8613861386;0.8638613861;0.8861386139;0.8886138614;0.8935643564;0.896039604;0.9133663366;0.9158415842;0.9183168317;0.9282178218;0.9306930693;0.9331683168;0.9455445545;0.948019802;0.9554455446;0.9579207921;0.9603960396;0.9628712871;0.9653465347;0.9678217822;0.9702970297;0.9727722772;0.9752475248;0.9777227723;0.9801980198;0.9826732673;0.9851485149;0.9876237624;0.9900990099;0.9925742574;0.995049505;1.0" repeatCount="indefinite" values="-1900;-1900;-2000;-1900;-2000;-2100;-2200;-2300;-2400;-2400;-2500;-2600;-2600;-2500;-2400;-2500;-2500;-2400;-2300;-2200;-2100;-2000;-1900;-1800;-1700;-1600;-1500;-1400;-1300;-1200;-1100;-1000;-900;-800;-800;-700;-700;-800;-800;-700;-700;-800;-800;-700;-700;-800;-900;-900;-1000;-1000;-1100;-1200;-1200;-1300;-1400;-1400;-1500;-1600;-1700;-1800;-1900;-2000;-2100;-2200;-2300;-2300;-2400;-2300;-2400;-2500;-2600;-2700;-2800;-2900;-3000;-3100;-3200;-3300;-3400;-3500;-3600;-3600;-3700;-3600;-3600;-3500;-3500;-3600;-3700;-3600;-3600;-3500;-3400;-3400;-3300;-3200;-3300;-3300;-3200;-3200;-3100;-3100;-3000;-2900;-2800;-2800;-2700;-2600;-2500;-2400;-2300;-2200;-2100;-2000;-1900;-2000;-2100;-2200;-2300;-2400;-2500;-2600;-2700;-2700;-2800;-2900;-3000;-3100;-3200;-3300;-3400;-3400;-3500;-3500;-3600;-3500;-3400;-3300;-3200;-3100;-3000;-2900;-2800;-2700;-2600;-2500;-2400;-2300;-2200;-2100;-2200;-2300;-2400;-2500;-2600;-2700;-2800;-2900;-3000;-3000;-3100;-3000;-3000;-3100;-3200;-3300;-3400;-3500;-3600;-3600;-3500;-3500;-3400;-3300;-3200;-3100;-3000;-2900;-2800;-2700;-2600;-2500;-2400;-2300;-2200;-2100;-2000;-1900;-1800;-1700;-1600;-1500;-1500;-1400;-1300;-1200;-1100;-1000;-1100;-1200;-1300;-1400;-1400;-1500;-1500;-1600;-1700;-1800;-1900;-2000;-2100;-2200;-2300;-2400;-2500;-2500;-2600;-2600;-2700;-2800;-2900;-3000;-3100;-3200;-3300;-3400;-3500;-3600;-3600;-3500;-3400;-3300;-3200;-3200;-3100;-3000;-3000;-2900;-2900;-2800;-2800;-2700;-2700;-2600;-2500;-2400;-2300;-2200;-2100;-2000;-1900;-1800;-1700;-1600;-1700;-1800;-1900;-2000;-2100;-2100;-2200;-2200;-2300;-2300;-2200;-2200;-2100;-2000;-2000;-1900;-1800;-1800;-1700;-1700;-1600;-1500;-1500;-1400;-1300;-1400;-1500;-1600;-1700;-1700;-1800;-1900;-2000;-2000;-2100;-2200;-2200"/>
<animate attributeName="cx" dur="112.84000000000002s" keyTimes="0.0;0.0024752475;0.0198019802;0.0222772277;0.0272277228;0.0297029703;0.0321782178;0.0346534653;0.0371287129;0.0396039604;0.047029703;0.0495049505;0.051980198;0.0544554455;0.099009901;0.1014851485;0.103960396;0.1064356436;0.1089108911;0.1113861386;0.1138613861;0.1163366337;0.1188118812;0.1212871287;0.1237623762;0.1262376238;0.1287128713;0.1386138614;0.1410891089;0.1435643564;0.146039604;0.1485148515;0.150990099;0.1534653465;0.1584158416;0.1608910891;0.1633663366;0.1683168317;0.1707920792;0.1732673267;0.1782178218;0.1806930693;0.1930693069;0.1955445545;0.2178217822;0.2202970297;0.2574257426;0.2599009901;0.2623762376;0.2648514851;0.2698019802;0.2722772277;0.2747524752;0.2772277228;0.2797029703;0.2821782178;0.2846534653;0.2871287129;0.2896039604;0.2920792079;0.3044554455;0.3069306931;0.3094059406;0.3118811881;0.3143564356;0.3168316832;0.3193069307;0.3217821782;0.3242574257;0.3267326733;0.3292079208;0.3316831683;0.3341584158;0.3366336634;0.3440594059;0.3465346535;0.353960396;0.3564356436;0.3613861386;0.3638613861;0.3663366337;0.3688118812;0.3712871287;0.3737623762;0.3762376238;0.3787128713;0.3811881188;0.3836633663;0.3861386139;0.3886138614;0.396039604;0.3985148515;0.4405940594;0.4430693069;0.4455445545;0.448019802;0.4504950495;0.4678217822;0.4702970297;0.4727722772;0.4752475248;0.5371287129;0.5396039604;0.5445544554;0.547029703;0.5495049505;0.551980198;0.5668316832;0.5693069307;0.5717821782;0.5742574257;0.5767326733;0.5792079208;0.5816831683;0.5841584158;0.5866336634;0.5891089109;0.5915841584;0.5940594059;0.5965346535;0.599009901;0.6014851485;0.603960396;0.6064356436;0.6089108911;0.6113861386;0.6138613861;0.6163366337;0.6188118812;0.6212871287;0.6707920792;0.6732673267;0.7004950495;0.702970297;0.7326732673;0.7351485149;0.7599009901;0.7623762376;0.7648514851;0.7673267327;0.7698019802;0.7722772277;0.7747524752;0.7772277228;0.7797029703;0.7821782178;0.8069306931;0.8094059406;0.8118811881;0.8143564356;0.8168316832;0.8193069307;0.8589108911;0.8613861386;0.8638613861;0.8663366337;0.8688118812;0.8712871287;0.8737623762;0.8762376238;0.8787128713;0.8811881188;0.8836633663;0.8861386139;0.8886138614;0.8910891089;0.8935643564;0.896039604;0.8985148515;0.900990099;0.9034653465;0.9059405941;0.9084158416;0.9108910891;0.9133663366;0.9183168317;0.9207920792;0.9232673267;0.9257425743;0.9282178218;0.9331683168;0.9356435644;0.9381188119;0.9405940594;0.9430693069;0.9455445545;0.948019802;0.9504950495;0.952970297;0.9554455446;0.9603960396;0.9628712871;0.9777227723;0.9801980198;0.9876237624;0.9900990099;0.995049505;0.9975247525;1.0" repeatCount="indefinite" values="3000;3000;3000;2900;2900;2800;2700;2600;2600;2700;2700;2800;2900;3000;3000;2900;2800;2700;2600;2500;2400;2400;2300;2200;2200;2100;2000;2000;1900;1900;1800;1700;1600;1500;1500;1400;1300;1300;1200;1100;1100;1000;1000;900;900;800;800;700;800;900;900;1000;1100;1200;1300;1200;1300;1400;1500;1600;1600;1700;1800;1900;1900;2000;2100;2200;2300;2400;2500;2400;2500;2600;2600;2700;2700;2600;2600;2500;2400;2400;2300;2200;2200;2100;2000;1900;1800;1700;1700;1600;1600;1500;1400;1300;1200;1200;1100;1100;1200;1200;1300;1300;1200;1100;1200;1200;1300;1400;1500;1600;1700;1800;1900;2000;2100;2200;2300;2400;2500;2600;2700;2800;2900;3000;3100;3000;3000;2900;2900;2800;2800;2700;2700;2600;2600;2500;2400;2300;2200;2100;2000;1900;1800;1700;1700;1600;1600;1700;1700;1600;1600;1700;1700;1800;1900;2000;2100;2200;2100;2000;1900;1800;1800;1700;1600;1600;1500;1400;1300;1200;1100;1000;900;900;1000;1100;1200;1300;1300;1400;1500;1600;1700;1800;1800;1900;2000;1900;1900;2000;2000;2100;2100;2200;2200;2300;2300"/>
<animate attributeName="visibility" dur="112.84000000000002s" keyTimes="0.0;0.0024752475;1.0" repeatCount="indefinite" values="visible;visible;visible"/> </circle>
<circle cx="3500" cy="-3000" fill="none" r="35" stroke="#c1433c" stroke-width="10"> <animate attributeName="cy" dur="112.84000000000002s" keyTimes="0.0;0.0024752475;0.0643564356;0.0668316832;0.0742574257;0.0767326733;0.1534653465;0.1559405941;0.198019802;0.2004950495;0.254950495;0.2574257426;0.3341584158;0.3366336634;0.3514851485;0.353960396;0.4133663366;0.4158415842;0.452970297;0.4554455446;0.5123762376;0.5148514851;0.5445544554;0.547029703;0.5816831683;0.5841584158;0.650990099;0.6534653465;0.7103960396;0.7128712871;0.8094059406;0.8118811881;0.8787128713;0.8811881188;0.948019802;0.9504950495;1.0" repeatCount="indefinite" values="-3000;-3000;-3000;-2800;-2800;-700;-700;-2100;-2100;-2900;-2900;-700;-700;-800;-800;-2200;-2200;-3700;-3700;-1900;-1900;-2000;-2000;-3300;-3300;-1700;-1700;-1100;-1100;-3400;-3400;-1400;-1400;-3300;-3300;-1400;-1400"/>
<animate attributeName="cx" dur="112.84000000000002s" keyTimes="0.0;0.0024752475;0.0643564356;0.0668316832;0.0742574257;0.0767326733;0.198019802;0.2004950495;0.254950495;0.2574257426;0.3341584158;0.3366336634;0.3514851485;0.353960396;0.4133663366;0.4158415842;0.452970297;0.4554455446;0.5123762376;0.5148514851;0.5816831683;0.5841584158;0.650990099;0.6534653465;0.7103960396;0.7128712871;0.8094059406;0.8118811881;0.8787128713;0.8811881188;0.948019802;0.9504950495;1.0" repeatCount="indefinite" values="3500;3500;3500;3300;3300;2200;2200;3700;3700;2700;2700;2100;2100;3200;3200;3100;3100;3700;3700;2500;2500;1300;1300;3000;3000;1400;1400;800;800;1700;1700;3300;3300"/>
<animate attributeName="visibility" dur="112.84000000000002s" keyTimes="0.0;0.0024752475;1.0" repeatCount="indefinite" values="visible;visible;visible"/> </circle>
<circle cx="2600" cy="-2600" fill="none" r="35" stroke="#2e6f9e" stroke-width="10"> <animate attributeName="cy" dur="112.84000000000002s" keyTimes="0.0;0.0024752475;0.0321782178;0.0346534653;0.0940594059;0.0965346535;0.1707920792;0.1732673267;0.2574257426;0.2599009901;0.349009901;0.3514851485;0.4183168317;0.4207920792;0.4752475248;0.4777227723;0.5123762376;0.5148514851;0.6113861386;0.6138613861;0.6831683168;0.6856435644;0.7797029703;0.7821782178;0.8440594059;0.8465346535;0.8737623762;0.8762376238;0.9158415842;0.9183168317;0.9653465347;0.9678217822;1.0" repeatCount="indefinite" values="-2600;-2600;-2600;-800;-800;-900;-900;-3600;-3600;-3200;-3200;-1900;-1900;-3600;-3600;-2100;-2100;-3600;-3600;-1000;-1000;-3600;-3600;-1600;-1600;-2200;-2200;-2000;-2000;-1300;-1300;-2400;-2400"/>
<animate attributeName="cx" dur="112.84000000000002s" keyTimes="0.0;0.0024752475;0.0321782178;0.0346534653;0.0940594059;0.0965346535;0.1707920792;0.1732673267;0.2574257426;0.2599009901;0.349009901;0.3514851485;0.4183168317;0.4207920792;0.5123762376;0.5148514851;0.6113861386;0.6138613861;0.6831683168;0.6856435644;0.7797029703;0.7821782178;0.8440594059;0.8465346535;0.8737623762;0.8762376238;0.9158415842;0.9183168317;0.9653465347;0.9678217822;1.0" repeatCount="indefinite" values="2600;2600;2600;3000;3000;1100;1100;700;700;2700;2700;1600;1600;1200;1200;3100;3100;2800;2800;1700;1700;1600;1600;2200;2200;900;900;2000;2000;3400;3400"/>
<animate attributeName="visibility" dur="112.84000000000002s" keyTimes="0.0;0.0024752475;1.0" repeatCount="indefinite" values="visible;visible;visible"/> </circle>
</svg>