<?xml version="1.0" encoding="UTF-8"?>
        <svg xmlns="http://www.w3.org/2000/svg" xmlns:xlink="http://www.w3.org/1999/xlink"
             width="430" height="430" viewBox="0 -4300 4300 4300">

<defs>

</defs>

<rect fill="#84A1AE" height="70" rx="15" width="70" x="465" y="-535" />
<rect fill="#84A1AE" height="70" rx="15" width="70" x="465" y="-635" />
<rect fill="#84A1AE" height="70" rx="15" width="70" x="465" y="-735" />
<rect fill="#84A1AE" height="70" rx="15" width="70" x="465" y="-835" />
<rect fill="#84A1AE" height="70" rx="15" width="70" x="465" y="-935" />
<rect fill="#84A1AE" height="70" rx="15" width="70" x="465" y="-1035" />
<rect fill="#84A1AE" height="70" rx="15" width="70" x="465" y="-1135" />
<rect fill="#84A1AE" height="70" rx="15" width="70" x="465" y="-1235" />
<rect fill="#84A1AE" height="70" rx="15" width="70" x="465" y="-1335" />
<rect fill="#84A1AE" height="70" rx="15" width="70" x="465" y="-1435" />
<rect fill="#84A1AE" height="70" rx="15" width="70" x="465" y="-1535" />
<rect fill="#84A1AE" height="70" rx="15" width="70" x="465" y="-1635" />
<rect fill="#84A1AE" height="70" rx="15" width="70" x="465" y="-1735" />
<rect fill="#84A1AE" height="70" rx="15" width="70" x="465" y="-1835" />
<rect fill="#84A1AE" height="70" rx="15" width="70" x="465" y="-1935" />
<rect fill="#84A1AE" height="70" rx="15" width="70" x="465" y="-2035" />
<rect fill="#84A1AE" height="70" rx="15" width="70" x="465" y="-2135" />
<rect fill="#84A1AE" height="70" rx="15" width="70" x="465" y="-2235" />
<rect fill="#84A1AE" height="70" rx="15" width="70" x="465" y="-2335" />
<rect fill="#84A1AE" height="70" rx="15" width="70" x="465" y="-2435" />
<rect fill="#84A1AE" height="70" rx="15" width="70" x="465" y="-2535" />
<rect fill="#84A1AE" height="70" rx="15" width="70" x="465" y="-2635" />
<rect fill="#84A1AE" height="70" rx="15" width="70" x="465" y="-2735" />
<rect fill="#84A1AE" height="70" rx="15" width="70" x="465" y="-2835" />
<rect fill="#84A1AE" height="70" rx="15" width="70" x="465" y="-2935" />
<rect fill="#84A1AE" height="70" rx="15" width="70" x="465" y="-3035" />
<rect fill="#84A1AE" height="70" rx="15" width="70" x="465" y="-3135" />
<rect fill="#84A1AE" height="70" rx="15" width="70" x="465" y="-3235" />
<rect fill="#84A1AE" height="70" rx="15" width="70" x="465" y="-3335" />
<rect fill="#84A1AE" height="70" rx="15" width="70" x="465" y="-3435" />
<rect fill="#84A1AE" height="70" rx="15" width="70" x="465" y="-3535" />
<rect fill="#84A1AE" height="70" rx="15" width="70" x="465" y="-3635" />
<rect fill="#84A1AE" height="70" rx="15" width="70" x="465" y="-3735" />
<rect fill="#84A1AE" height="70" rx="15" width="70" x="465" y="-3835" />
<rect fill="#84A1AE" height="70" rx="15" width="70" x="565" y="-535" />
<rect fill="#84A1AE" height="70" rx="15" width="70" x="565" y="-1635" />
<rect fill="#84A1AE" height="70" rx="15" width="70" x="565" y="-1935" />
<rect fill="#84A1AE" height="70" rx="15" width="70" x="565" y="-2735" />
<rect fill="#84A1AE" height="70" rx="15" width="70" x="565" y="-3835" />
<rect fill="#84A1AE" height="70" rx="15" width="70" x="665" y="-535" />
<rect fill="#84A1AE" height="70" rx="15" width="70" x="665" y="-1035" />
<rect fill="#84A1AE" height="70" rx="15" width="70" x="665" y="-2535" />
<rect fill="#84A1AE" height="70" rx="15" width="70" x="665" y="-3035" />
<rect fill="#84A1AE" height="70" rx="15" width="70" x="665" y="-3235" />
<rect fill="#84A1AE" height="70" rx="15" width="70" x="665" y="-3835" />
<rect fill="#84A1AE" height="70" rx="15" width="70" x="765" y="-535" />
<rect fill="#84A1AE" height="70" rx="15" width="70" x="765" y="-635" />
<rect fill="#84A1AE" height="70" rx="15" width="70" x="765" y="-3835" />
<rect fill="#84A1AE" height="70" rx="15" width="70" x="865" y="-535" />
<rect fill="#84A1AE" height="70" rx="15" width="70" x="865" y="-2435" />
<rect fill="#84A1AE" height="70" rx="15" width="70" x="865" y="-2535" />
<rect fill="#84A1AE" height="70" rx="15" width="70" x="865" y="-3335" />
<rect fill="#84A1AE" height="70" rx="15" width="70" x="865" y="-3435" />
<rect fill="#84A1AE" height="70" rx="15" width="70" x="865" y="-3835" />
<rect fill="#84A1AE" height="70" rx="15" width="70" x="965" y="-535" />
<rect fill="#84A1AE" height="70" rx="15" width="70" x="965" y="-735" />
<rect fill="#84A1AE" height="70" rx="15" width="70" x="965" y="-1635" />
<rect fill="#84A1AE" height="70" rx="15" width="70" x="965" y="-1835" />
<rect fill="#84A1AE" height="70" rx="15" width="70" x="965" y="-2835" />
<rect fill="#84A1AE" height="70" rx="15" width="70" x="965" y="-3435" />
<rect fill="#84A1AE" height="70" rx="15" width="70" x="965" y="-3835" />
<rect fill="#84A1AE" height="70" rx="15" width="70" x="1065" y="-535" />
<rect fill="#84A1AE" height="70" rx="15" width="70" x="1065" y="-1135" />
<rect fill="#84A1AE" height="70" rx="15" width="70" x="1065" y="-1835" />
<rect fill="#84A1AE" height="70" rx="15" width="70" x="1065" y="-3735" />
<rect fill="#84A1AE" height="70" rx="15" width="70" x="1065" y="-3835" />
<rect fill="#84A1AE" height="70" rx="15" width="70" x="1165" y="-535" />
<rect fill="#84A1AE" height="70" rx="15" width="70" x="1165" y="-635" />
<rect fill="#84A1AE" height="70" rx="15" width="70" x="1165" y="-735" />
<rect fill="#84A1AE" height="70" rx="15" width="70" x="1165" y="-1535" />
<rect fill="#84A1AE" height="70" rx="15" width="70" x="1165" y="-3835" />
<rect fill="#84A1AE" height="70" rx="15" width="70" x="1265" y="-535" />
<rect fill="#84A1AE" height="70" rx="15" width="70" x="1265" y="-2835" />
<rect fill="#84A1AE" height="70" rx="15" width="70" x="1265" y="-3435" />
<rect fill="#84A1AE" height="70" rx="15" width="70" x="1265" y="-3835" />
<rect fill="#84A1AE" height="70" rx="15" width="70" x="1365" y="-535" />
<rect fill="#84A1AE" height="70" rx="15" width="70" x="1365" y="-835" />
<rect fill="#84A1AE" height="70" rx="15" width="70" x="1365" y="-935" />
<rect fill="#84A1AE" height="70" rx="15" width="70" x="1365" y="-1035" />
<rect fill="#84A1AE" height="70" rx="15" width="70" x="1365" y="-1935" />
<rect fill="#84A1AE" height="70" rx="15" width="70" x="1365" y="-2335" />
<rect fill="#84A1AE" height="70" rx="15" width="70" x="1365" y="-2635" />
<rect fill="#84A1AE" height="70" rx="15" width="70" x="1365" y="-2835" />
<rect fill="#84A1AE" height="70" rx="15" width="70" x="1365" y="-2935" />
<rect fill="#84A1AE" height="70" rx="15" width="70" x="1365" y="-3035" />
<rect fill="#84A1AE" height="70" rx="15" width="70" x="1365" y="-3335" />
<rect fill="#84A1AE" height="70" rx="15" width="70" x="1365" y="-3835" />
<rect fill="#84A1AE" height="70" rx="15" width="70" x="1465" y="-535" />
<rect fill="#84A1AE" height="70" rx="15" width="70" x="1465" y="-1235" />
<rect fill="#84A1AE" height="70" rx="15" width="70" x="1465" y="-1535" />
<rect fill="#84A1AE" height="70" rx="15" width="70" x="1465" y="-2035" />
<rect fill="#84A1AE" height="70" rx="15" width="70" x="1465" y="-3135" />
<rect fill="#84A1AE" height="70" rx="15" width="70" x="1465" y="-3235" />
<rect fill="#84A1AE" height="70" rx="15" width="70" x="1465" y="-3835" />
<rect fill="#84A1AE" height="70" rx="15" width="70" x="1565" y="-535" />
<rect fill="#84A1AE" height="70" rx="15" width="70" x="1565" y="-3035" />
<rect fill="#84A1AE" height="70" rx="15" width="70" x="1565" y="-3835" />
<rect fill="#84A1AE" height="70" rx="15" width="70" x="1665" y="-535" />
<rect fill="#84A1AE" height="70" rx="15" width="70" x="1665" y="-3735" />
<rect fill="#84A1AE" height="70" rx="15" width="70" x="1665" y="-3835" />
<rect fill="#84A1AE" height="70" rx="15" width="70" x="1765" y="-535" />
<rect fill="#84A1AE" height="70" rx="15" width="70" x="1765" y="-1235" />
<rect fill="#84A1AE" height="70" rx="15" width="70" x="1765" y="-3835" />
<rect fill="#84A1AE" height="70" rx="15" width="70" x="1865" y="-535" />
<rect fill="#84A1AE" height="70" rx="15" width="70" x="1865" y="-735" />
<rect fill="#84A1AE" height="70" rx="15" width="70" x="1865" y="-1335" />
<rect fill="#84A1AE" height="70" rx="15" width="70" x="1865" y="-3235" />
<rect fill="#84A1AE" height="70" rx="15" width="70" x="1865" y="-3435" />
<rect fill="#84A1AE" height="70" rx="15" width="70" x="1865" y="-3835" />
<rect fill="#84A1AE" height="70" rx="15" width="70" x="1965" y="-535" />
<rect fill="#84A1AE" height="70" rx="15" width="70" x="1965" y="-635" />
<rect fill="#84A1AE" height="70" rx="15" width="70" x="1965" y="-1835" />
<rect fill="#84A1AE" height="70" rx="15" width="70" x="1965" y="-1935" />
<rect fill="#84A1AE" height="70" rx="15" width="70" x="1965" y="-2135" />
<rect fill="#84A1AE" height="70" rx="15" width="70" x="1965" y="-2335" />
<rect fill="#84A1AE" height="70" rx="15" width="70" x="1965" y="-2435" />
<rect fill="#84A1AE" height="70" rx="15" width="70" x="1965" y="-3335" />
<rect fill="#84A1AE" height="70" rx="15" width="70" x="1965" y="-3835" />
<rect fill="#84A1AE" height="70" rx="15" width="70" x="2065" y="-535" />
<rect fill="#84A1AE" height="70" rx="15" width="70" x="2065" y="-1535" />
<rect fill="#84A1AE" height="70" rx="15" width="70" x="2065" y="-1635" />
<rect fill="#84A1AE" height="70" rx="15" width="70" x="2065" y="-2135" />
<rect fill="#84A1AE" height="70" rx="15" width="70" x="2065" y="-3835" />
<rect fill="#84A1AE" height="70" rx="15" width="70" x="2165" y="-535" />
<rect fill="#84A1AE" height="70" rx="15" width="70" x="2165" y="-935" />
<rect fill="#84A1AE" height="70" rx="15" width="70" x="2165" y="-1335" />
<rect fill="#84A1AE" height="70" rx="15" width="70" x="2165" y="-1835" />
<rect fill="#84A1AE" height="70" rx="15" width="70" x="2165" y="-3835" />
<rect fill="#84A1AE" height="70" rx="15" width="70" x="2265" y="-535" />
<rect fill="#84A1AE" height="70" rx="15" width="70" x="2265" y="-935" />
<rect fill="#84A1AE" height="70" rx="15" width="70" x="2265" y="-1135" />
<rect fill="#84A1AE" height="70" rx="15" width="70" x="2265" y="-2535" />
<rect fill="#84A1AE" height="70" rx="15" width="70" x="2265" y="-3235" />
<rect fill="#84A1AE" height="70" rx="15" width="70" x="2265" y="-3835" />
<rect fill="#84A1AE" height="70" rx="15" width="70" x="2365" y="-535" />
<rect fill="#84A1AE" height="70" rx="15" width="70" x="2365" y="-935" />
<rect fill="#84A1AE" height="70" rx="15" width="70" x="2365" y="-1035" />
<rect fill="#84A1AE" height="70" rx="15" width="70" x="2365" y="-3835" />
<rect fill="#84A1AE" height="70" rx="15" width="70" x="2465" y="-535" />
<rect fill="#84A1AE" height="70" rx="15" width="70" x="2465" y="-935" />
<rect fill="#84A1AE" height="70" rx="15" width="70" x="2465" y="-1535" />
<rect fill="#84A1AE" height="70" rx="15" width="70" x="2465" y="-2335" />
<rect fill="#84A1AE" height="70" rx="15" width="70" x="2465" y="-2735" />
<rect fill="#84A1AE" height="70" rx="15" width="70" x="2465" y="-3835" />
<rect fill="#84A1AE" height="70" rx="15" width="70" x="2565" y="-535" />
<rect fill="#84A1AE" height="70" rx="15" width="70" x="2565" y="-735" />
<rect fill="#84A1AE" height="70" rx="15" width="70" x="2565" y="-2535" />
<rect fill="#84A1AE" height="70" rx="15" width="70" x="2565" y="-3835" />
<rect fill="#84A1AE" height="70" rx="15" width="70" x="2665" y="-535" />
<rect fill="#84A1AE" height="70" rx="15" width="70" x="2665" y="-635" />
<rect fill="#84A1AE" height="70" rx="15" width="70" x="2665" y="-1135" />
<rect fill="#84A1AE" height="70" rx="15" width="70" x="2665" y="-1435" />
<rect fill="#84A1AE" height="70" rx="15" width="70" x="2665" y="-2735" />
<rect fill="#84A1AE" height="70" rx="15" width="70" x="2665" y="-3835" />
<rect fill="#84A1AE" height="70" rx="15" width="70" x="2765" y="-535" />
<rect fill="#84A1AE" height="70" rx="15" width="70" x="2765" y="-1635" />
<rect fill="#84A1AE" height="70" rx="15" width="70" x="2765" y="-1835" />
<rect fill="#84A1AE" height="70" rx="15" width="70" x="2765" y="-1935" />
<rect fill="#84A1AE" height="70" rx="15" width="70" x="2765" y="-2235" />
<rect fill="#84A1AE" height="70" rx="15" width="70" x="2765" y="-3735" />
<rect fill="#84A1AE" height="70" rx="15" width="70" x="2765" y="-3835" />
<rect fill="#84A1AE" height="70" rx="15" width="70" x="2865" y="-535" />
<rect fill="#84A1AE" height="70" rx="15" width="70" x="2865" y="-3835" />
<rect fill="#84A1AE" height="70" rx="15" width="70" x="2965" y="-535" />
<rect fill="#84A1AE" height="70" rx="15" width="70" x="2965" y="-2635" />
<rect fill="#84A1AE" height="70" rx="15" width="70" x="2965" y="-3835" />
<rect fill="#84A1AE" height="70" rx="15" width="70" x="3065" y="-535" />
<rect fill="#84A1AE" height="70" rx="15" width="70" x="3065" y="-735" />
<rect fill="#84A1AE" height="70" rx="15" width="70" x="3065" y="-2535" />
<rect fill="#84A1AE" height="70" rx="15" width="70" x="3065" y="-3835" />
<rect fill="#84A1AE" height="70" rx="15" width="70" x="3165" y="-535" />
<rect fill="#84A1AE" height="70" rx="15" width="70" x="3165" y="-835" />
<rect fill="#84A1AE" height="70" rx="15" width="70" x="3165" y="-1935" />
<rect fill="#84A1AE" height="70" rx="15" width="70" x="3165" y="-2735" />
<rect fill="#84A1AE" height="70" rx="15" width="70" x="3165" y="-3135" />
<rect fill="#84A1AE" height="70" rx="15" width="70" x="3165" y="-3835" />
<rect fill="#84A1AE" height="70" rx="15" width="70" x="3265" y="-535" />
<rect fill="#84A1AE" height="70" rx="15" width="70" x="3265" y="-1035" />
<rect fill="#84A1AE" height="70" rx="15" width="70" x="3265" y="-1735" />
<rect fill="#84A1AE" height="70" rx="15" width="70" x="3265" y="-3835" />
<rect fill="#84A1AE" height="70" rx="15" width="70" x="3365" y="-535" />
<rect fill="#84A1AE" height="70" rx="15" width="70" x="3365" y="-1435" />
<rect fill="#84A1AE" height="70" rx="15" width="70" x="3365" y="-1935" />
<rect fill="#84A1AE" height="70" rx="15" width="70" x="3365" y="-2135" />
<rect fill="#84A1AE" height="70" rx="15" width="70" x="3365" y="-3835" />
<rect fill="#84A1AE" height="70" rx="15" width="70" x="3465" y="-535" />
<rect fill="#84A1AE" height="70" rx="15" width="70" x="3465" y="-2635" />
<rect fill="#84A1AE" height="70" rx="15" width="70" x="3465" y="-3835" />
<rect fill="#84A1AE" height="70" rx="15" width="70" x="3565" y="-535" />
<rect fill="#84A1AE" height="70" rx="15" width="70" x="3565" y="-635" />
<rect fill="#84A1AE" height="70" rx="15" width="70" x="3565" y="-2435" />
<rect fill="#84A1AE" height="70" rx="15" width="70" x="3565" y="-3235" />
<rect fill="#84A1AE" height="70" rx="15" width="70" x="3565" y="-3835" />
<rect fill="#84A1AE" height="70" rx="15" width="70" x="3665" y="-535" />
<rect fill="#84A1AE" height="70" rx="15" width="70" x="3665" y="-2135" />
<rect fill="#84A1AE" height="70" rx="15" width="70" x="3665" y="-2835" />
<rect fill="#84A1AE" height="70" rx="15" width="70" x="3665" y="-3135" />
<rect fill="#84A1AE" height="70" rx="15" width="70" x="3665" y="-3735" />
<rect fill="#84A1AE" height="70" rx="15" width="70" x="3665" y="-3835" />
<rect fill="#84A1AE" height="70" rx="15" width="70" x="3765" y="-535" />
<rect fill="#84A1AE" height="70" rx="15" width="70" x="3765" y="-635" />
<rect fill="#84A1AE" height="70" rx="15" width="70" x="3765" y="-735" />
<rect fill="#84A1AE" height="70" rx="15" width="70" x="3765" y="-835" />
<rect fill="#84A1AE" height="70" rx="15" width="70" x="3765" y="-935" />
<rect fill="#84A1AE" height="70" rx="15" width="70" x="3765" y="-1035" />
<rect fill="#84A1AE" height="70" rx="15" width="70" x="3765" y="-1135" />
<rect fill="#84A1AE" height="70" rx="15" width="70" x="3765" y="-1235" />
<rect fill="#84A1AE" height="70" rx="15" width="70" x="3765" y="-1335" />
<rect fill="#84A1AE" height="70" rx="15" width="70" x="3765" y="-1435" />
<rect fill="#84A1AE" height="70" rx="15" width="70" x="3765" y="-1535" />
<rect fill="#84A1AE" height="70" rx="15" width="70" x="3765" y="-1635" />
<rect fill="#84A1AE" height="70" rx="15" width="70" x="3765" y="-1735" />
<rect fill="#84A1AE" height="70" rx="15" width="70" x="3765" y="-1835" />
<rect fill="#84A1AE" height="70" rx="15" width="70" x="3765" y="-1935" />
<rect fill="#84A1AE" height="70" rx="15" width="70" x="3765" y="-2035" />
<rect fill="#84A1AE" height="70" rx="15" width="70" x="3765" y="-2135" />
<rect fill="#84A1AE" height="70" rx="15" width="70" x="3765" y="-2235" />
<rect fill="#84A1AE" height="70" rx="15" width="70" x="3765" y="-2335" />
<rect fill="#84A1AE" height="70" rx="15" width="70" x="3765" y="-2435" />
<rect fill="#84A1AE" height="70" rx="15" width="70" x="3765" y="-2535" />
<rect fill="#84A1AE" height="70" rx="15" width="70" x="3765" y="-2635" />
<rect fill="#84A1AE" height="70" rx="15" width="70" x="3765" y="-2735" />
<rect fill="#84A1AE" height="70" rx="15" width="70" x="3765" y="-2835" />
<rect fill="#84A1AE" height="70" rx="15" width="70" x="3765" y="-2935" />
<rect fill="#84A1AE" height="70" rx="15" width="70" x="3765" y="-3035" />
<rect fill="#84A1AE" height="70" rx="15" width="70" x="3765" y="-3135" />
<rect fill="#84A1AE" height="70" rx="15" width="70" x="3765" y="-3235" />
<rect fill="#84A1AE" height="70" rx="15" width="70" x="3765" y="-3335" />
<rect fill="#84A1AE" height="70" rx="15" width="70" x="3765" y="-3435" />
<rect fill="#84A1AE" height="70" rx="15" width="70" x="3765" y="-3535" />
<rect fill="#84A1AE" height="70" rx="15" width="70" x="3765" y="-3635" />
<rect fill="#84A1AE" height="70" rx="15" width="70" x="3765" y="-3735" />
<rect fill="#84A1AE" height="70" rx="15" width="70" x="3765" y="-3835" />
<circle cx="2500" cy="-1400" fill="#c1433c" r="35"> <animate attributeName="cy" dur="59.080000000000005s" keyTimes="0.0;0.0047169811;0.0235849057;0.0283018868;0.0330188679;0.0377358491;0.0613207547;0.0660377358;0.070754717;0.0754716981;0.0801886792;0.0849056604;0.0896226415;0.0943396226;0.0990566038;0.1132075472;0.1179245283;0.1509433962;0.1556603774;0.1603773585;0.1650943396;0.1698113208;0.1745283019;0.179245283;0.1839622642;0.1886792453;0.1933962264;0.1981132075;0.2028301887;0.2075471698;0.2216981132;0.2264150943;0.2311320755;0.2358490566;0.2405660377;0.2452830189;0.2971698113;0.3018867925;0.3066037736;0.3113207547;0.3160377358;0.320754717;0.3254716981;0.3301886792;0.3396226415;0.3443396226;0.3490566038;0.3537735849;0.358490566;0.3632075472;0.3773584906;0.3820754717;0.3867924528;0.391509434;0.3962264151;0.4009433962;0.4056603774;0.4103773585;0.4150943396;0.4198113208;0.4245283019;0.429245283;0.4481132075;0.4528301887;0.4575471698;0.4622641509;0.4669811321;0.4811320755;0.4858490566;0.4905660377;0.5094339623;0.5141509434;0.5424528302;0.5471698113;0.5518867925;0.5849056604;0.5896226415;0.608490566;0.6132075472;0.6179245283;0.6273584906;0.6320754717;0.6367924528;0.6462264151;0.6509433962;0.6698113208;0.6745283019;0.6933962264;0.6981132075;0.7028301887;0.7075471698;0.7264150943;0.7311320755;0.75;0.7547169811;0.7830188679;0.7877358491;0.7924528302;0.7971698113;0.8018867925;0.8066037736;0.8160377358;0.820754717;0.8396226415;0.8443396226;0.8490566038;0.8537735849;0.8773584906;0.8820754717;0.8867924528;0.891509434;0.8962264151;0.9009433962;0.9056603774;0.9103773585;0.9198113208;0.9245283019;0.929245283;0.9339622642;0.9386792453;0.9433962264;0.9481132075;0.9528301887;0.9575471698;1.0" repeatCount="indefinite" values="-1400;-1400;-1400;-1500;-1500;-1400;-1400;-1300;-1200;-1100;-1000;-900;-900;-800;-900;-900;-800;-800;-700;-700;-800;-800;-900;-800;-800;-900;-800;-700;-700;-800;-800;-900;-1000;-900;-1000;-1100;-1100;-1200;-1200;-1100;-1100;-1200;-1100;-1000;-1000;-900;-1000;-1100;-1100;-1200;-1200;-1100;-1000;-1000;-1100;-1000;-1100;-1100;-1000;-1100;-1200;-1300;-1300;-1400;-1500;-1500;-1600;-1600;-1700;-1800;-1800;-1700;-1700;-1600;-1700;-1700;-1600;-1600;-1700;-1800;-1800;-1900;-2000;-2000;-1900;-1900;-1800;-1800;-1700;-1700;-1800;-1800;-1700;-1700;-1600;-1600;-1700;-1600;-1500;-1600;-1700;-1700;-1800;-1800;-1900;-2000;-2100;-2100;-2200;-2200;-2300;-2400;-2500;-2500;-2400;-2400;-2500;-2500;-2600;-2700;-2700;-2800;-2800;-2900;-2900"/>
<animate attributeName="cx" dur="59.080000000000005s" keyTimes="0.0;0.0047169811;0.0094339623;0.0141509434;0.0188679245;0.0283018868;0.0330188679;0.0424528302;0.0471698113;0.0518867925;0.0566037736;0.1037735849;0.108490566;0.1132075472;0.1179245283;0.1226415094;0.1273584906;0.1462264151;0.1509433962;0.1650943396;0.1698113208;0.179245283;0.1839622642;0.2075471698;0.2122641509;0.2169811321;0.2216981132;0.2452830189;0.25;0.2547169811;0.2594339623;0.2735849057;0.2783018868;0.2830188679;0.2877358491;0.2924528302;0.2971698113;0.3113207547;0.3160377358;0.3301886792;0.3349056604;0.3396226415;0.3537735849;0.358490566;0.3632075472;0.3679245283;0.3726415094;0.3773584906;0.3867924528;0.391509434;0.4056603774;0.4103773585;0.429245283;0.4339622642;0.4386792453;0.4433962264;0.4481132075;0.4716981132;0.4764150943;0.4811320755;0.4905660377;0.4952830189;0.5;0.5047169811;0.5188679245;0.5235849057;0.5330188679;0.5377358491;0.5518867925;0.5566037736;0.5613207547;0.5660377358;0.5801886792;0.5849056604;0.5896226415;0.5943396226;0.5990566038;0.6037735849;0.608490566;0.6179245283;0.6226415094;0.6367924528;0.641509434;0.6509433962;0.6556603774;0.6603773585;0.6650943396;0.679245283;0.6839622642;0.6886792453;0.6933962264;0.6981132075;0.7028301887;0.7122641509;0.7169811321;0.7216981132;0.7264150943;0.7311320755;0.7358490566;0.7405660377;0.7452830189;0.75;0.7594339623;0.7641509434;0.7688679245;0.7735849057;0.7783018868;0.7830188679;0.8066037736;0.8113207547;0.820754717;0.8254716981;0.8301886792;0.8349056604;0.8537735849;0.858490566;0.8632075472;0.8679245283;0.8820754717;0.8867924528;0.9103773585;0.9150943396;0.9245283019;0.929245283;0.9481132075;0.9528301887;0.9575471698;0.9622641509;0.9669811321;0.9716981132;0.9764150943;0.9811320755;0.9858490566;0.9905660377;1.0" repeatCount="indefinite" values="2500;2500;2400;2300;2200;2200;2300;2300;2400;2500;2600;2600;2700;2600;2600;2500;2600;2600;2700;2700;2600;2600;2700;2700;2800;2900;3000;3000;2900;3000;3100;3100;3200;3100;3000;3000;3100;3100;3000;3000;2900;3000;3000;2900;2900;3000;3000;2900;2900;2800;2800;2900;2900;3000;2900;2800;2900;2900;3000;2900;2900;3000;3000;2900;2900;2800;2800;2700;2700;2800;2700;2800;2800;2700;2700;2600;2700;2600;2500;2500;2600;2600;2500;2500;2600;2600;2700;2700;2600;2500;2400;2400;2300;2300;2400;2500;2600;2600;2700;2700;2800;2900;2900;3000;3000;2900;3000;2900;2900;3000;3000;2900;3000;2900;2900;2800;2700;2600;2600;2700;2700;2800;2800;2900;2900;3000;3000;3100;3100;3000;3100;3000;3000;3100;3100"/>
<animate attributeName="visibility" dur="59.080000000000005s" keyTimes="0.0;0.0047169811;1.0" repeatCount="indefinite" values="visible;visible;visible"/> </circle>
<circle cx="3000" cy="-1900" fill="#2e6f9e" r="35"> <animate attributeName="cy" dur="59.080000000000005s" keyTimes="0.0;0.0047169811;0.0094339623;0.0141509434;0.0188679245;0.0235849057;0.0283018868;0.0330188679;0.0377358491;0.0424528302;0.0471698113;0.0518867925;0.0896226415;0.0943396226;0.0990566038;0.1037735849;0.108490566;0.1132075472;0.1179245283;0.1226415094;0.1273584906;0.1320754717;0.1367924528;0.141509434;0.1462264151;0.1509433962;0.1556603774;0.1603773585;0.1650943396;0.1698113208;0.1745283019;0.179245283;0.1839622642;0.1886792453;0.1933962264;0.1981132075;0.2028301887;0.2075471698;0.2122641509;0.2405660377;0.2452830189;0.25;0.2547169811;0.2594339623;0.2641509434;0.2688679245;0.2735849057;0.2783018868;0.2830188679;0.2877358491;0.2924528302;0.2971698113;0.3018867925;0.3066037736;0.3113207547;0.3160377358;0.320754717;0.3254716981;0.3301886792;0.3349056604;0.3396226415;0.3443396226;0.3490566038;0.3537735849;0.358490566;0.3632075472;0.3679245283;0.3726415094;0.3773584906;0.3820754717;0.3867924528;0.391509434;0.3962264151;0.4009433962;0.4056603774;0.4103773585;0.4150943396;0.4198113208;0.4245283019;0.4339622642;0.4386792453;0.4433962264;0.4481132075;0.4528301887;0.4575471698;0.4622641509;0.4669811321;0.4716981132;0.4764150943;0.4811320755;0.4858490566;0.4905660377;0.5330188679;0.5377358491;0.5518867925;0.5566037736;0.5801886792;0.5849056604;0.5990566038;0.6037735849;0.6179245283;0.6226415094;0.6367924528;0.641509434;0.6462264151;0.6509433962;0.6556603774;0.6603773585;0.6650943396;0.6698113208;0.6745283019;0.679245283;0.6933962264;0.6981132075;0.7311320755;0.7358490566;0.7405660377;0.75;0.7547169811;0.7594339623;0.7641509434;0.7830188679;0.7877358491;0.7971698113;0.8018867925;0.8066037736;0.8113207547;0.820754717;0.8254716981;0.8301886792;0.8349056604;0.8396226415;0.8443396226;0.8490566038;0.8537735849;0.858490566;0.8632075472;0.8679245283;0.8726415094;0.8773584906;0.8820754717;0.8867924528;0.9339622642;0.9386792453;0.9433962264;0.9716981132;0.9764150943;0.9811320755;0.9858490566;0.9905660377;0.9952830189;1.0" repeatCount="indefinite" values="-1900;-1900;-1900;-2000;-2100;-2200;-2300;-2400;-2400;-2500;-2500;-2600;-2600;-2500;-2400;-2300;-2200;-2100;-2000;-1900;-1800;-1900;-2000;-2100;-2200;-2300;-2400;-2500;-2600;-2700;-2800;-2900;-3000;-3100;-3100;-3200;-3200;-3300;-3400;-3400;-3300;-3200;-3200;-3100;-3000;-3000;-2900;-2900;-2800;-2800;-2700;-2600;-2600;-2500;-2400;-2300;-2300;-2200;-2300;-2400;-2500;-2500;-2600;-2600;-2700;-2600;-2600;-2500;-2400;-2400;-2300;-2200;-2100;-2000;-1900;-1800;-1800;-1700;-1600;-1600;-1500;-1500;-1400;-1500;-1600;-1700;-1800;-1900;-2000;-2000;-2100;-2200;-2200;-2300;-2300;-2400;-2400;-2500;-2500;-2600;-2600;-2700;-2700;-2800;-2900;-3000;-3100;-3200;-3300;-3400;-3400;-3500;-3500;-3600;-3600;-3500;-3400;-3400;-3300;-3200;-3100;-3100;-3000;-3000;-2900;-2900;-2800;-2800;-2700;-2600;-2600;-2500;-2500;-2400;-2400;-2300;-2300;-2200;-2200;-2100;-2100;-2000;-2000;-2100;-2200;-2200;-2300;-2300;-2400;-2500;-2600;-2600"/>
<animate attributeName="cx" dur="59.080000000000005s" keyTimes="0.0;0.0047169811;0.0094339623;0.0330188679;0.0377358491;0.0424528302;0.0471698113;0.0518867925;0.0566037736;0.0613207547;0.0660377358;0.070754717;0.0754716981;0.0801886792;0.0849056604;0.0896226415;0.1886792453;0.1933962264;0.1981132075;0.2028301887;0.2122641509;0.2169811321;0.2216981132;0.2264150943;0.2311320755;0.2358490566;0.2405660377;0.25;0.2547169811;0.2641509434;0.2688679245;0.2735849057;0.2783018868;0.2830188679;0.2877358491;0.2971698113;0.3018867925;0.3160377358;0.320754717;0.3396226415;0.3443396226;0.3490566038;0.3537735849;0.3632075472;0.3679245283;0.3773584906;0.3820754717;0.4103773585;0.4150943396;0.4245283019;0.429245283;0.4339622642;0.4386792453;0.4433962264;0.4764150943;0.4811320755;0.4905660377;0.4952830189;0.5;0.5047169811;0.5094339623;0.5141509434;0.5188679245;0.5235849057;0.5283018868;0.5330188679;0.5377358491;0.5424528302;0.5471698113;0.5518867925;0.5566037736;0.5613207547;0.5660377358;0.570754717;0.5754716981;0.5801886792;0.5849056604;0.5896226415;0.5943396226;0.5990566038;0.6037735849;0.608490566;0.6132075472;0.6179245283;0.6226415094;0.6273584906;0.6320754717;0.6367924528;0.6698113208;0.6745283019;0.679245283;0.6839622642;0.6886792453;0.6933962264;0.6981132075;0.7028301887;0.7075471698;0.7122641509;0.7169811321;0.7216981132;0.7264150943;0.7311320755;0.7405660377;0.7452830189;0.75;0.7641509434;0.7688679245;0.7735849057;0.7783018868;0.7830188679;0.7877358491;0.7924528302;0.7971698113;0.8018867925;0.8066037736;0.8113207547;0.8160377358;0.820754717;0.8301886792;0.8349056604;0.8396226415;0.8443396226;0.8490566038;0.8537735849;0.858490566;0.8632075472;0.8679245283;0.8726415094;0.8773584906;0.8820754717;0.8867924528;0.891509434;0.8962264151;0.9009433962;0.9056603774;0.9103773585;0.9150943396;0.9198113208;0.9245283019;0.929245283;0.9339622642;0.9433962264;0.9481132075;0.9528301887;0.9575471698;0.9622641509;0.9669811321;0.9716981132;0.9764150943;0.9811320755;1.0" repeatCount="indefinite" values="3000;3000;2900;2900;2800;2800;2700;2700;2600;2500;2400;2300;2200;2100;2000;1900;1900;2000;2000;2100;2100;2200;2300;2400;2500;2600;2700;2700;2800;2800;2900;2900;3000;3000;3100;3100;3200;3200;3300;3300;3200;3200;3100;3100;3200;3200;3300;3300;3400;3400;3500;3600;3600;3700;3700;3600;3600;3700;3600;3500;3400;3300;3200;3100;3000;2900;2900;2800;2700;2600;2600;2500;2400;2300;2200;2100;2100;2000;1900;1800;1800;1700;1600;1500;1500;1400;1300;1200;1200;1100;1100;1000;900;800;800;900;1000;1100;1200;1300;1400;1500;1500;1600;1700;1700;1800;1900;2000;2100;2100;2200;2300;2300;2400;2400;2500;2600;2600;2700;2700;2800;2800;2900;2900;3000;3000;3100;3100;3200;3200;3100;3000;2900;2800;2700;2600;2500;2400;2300;2200;2200;2100;2000;1900;1800;1700;1600;1600;1500;1500"/>
<animate attributeName="visibility" dur="59.080000000000005s" keyTimes="0.0;0.0047169811;1.0" repeatCount="indefinite" values="visible;visible;visible"/> </circle>
<circle cx="3500" cy="-3000" fill="none" r="35" stroke="#c1433c" stroke-width="10"> <animate attributeName="cy" dur="59.080000000000005s" keyTimes="0.0;0.0047169811;1.0" repeatCount="indefinite" values="-3000;-3000;-3000"/>
<animate attributeName="cx" dur="59.080000000000005s" keyTimes="0.0;0.0047169811;1.0" repeatCount="indefinite" values="3500;3500;3500"/>
<animate attributeName="visibility" dur="59.080000000000005s" keyTimes="0.0;0.0047169811;1.0" repeatCount="indefinite" values="visible;visible;visible"/> </circle>
<circle cx="2600" cy="-2600" fill="none" r="35" stroke="#2e6f9e" stroke-width="10"> <animate attributeName="cy" dur="59.080000000000005s" keyTimes="0.0;0.0047169811;0.0518867925;0.0566037736;0.1226415094;0.1273584906;0.2358490566;0.2405660377;0.320754717;0.3254716981;0.3537735849;0.358490566;0.4433962264;0.4481132075;0.4905660377;0.4952830189;0.6933962264;0.6981132075;0.8066037736;0.8113207547;0.8820754717;0.8867924528;0.9811320755;0.9858490566;1.0" repeatCount="indefinite" values="-2600;-2600;-2600;-1800;-1800;-3400;-3400;-2200;-2200;-2700;-2700;-1400;-1400;-2200;-2200;-3600;-3600;-2800;-2800;-2000;-2000;-2400;-2400;-2900;-2900"/>
<animate attributeName="cx" dur="59.080000000000005s" keyTimes="0.0;0.0047169811;0.0518867925;0.0566037736;0.1226415094;0.1273584906;0.2358490566;0.2405660377;0.320754717;0.3254716981;0.3537735849;0.358490566;0.4905660377;0.4952830189;0.6933962264;0.6981132075;0.8066037736;0.8113207547;0.8820754717;0.8867924528;0.9811320755;0.9858490566;1.0" repeatCount="indefinite" values="2600;2600;2600;1900;1900;2700;2700;3300;3300;3100;3100;3700;3700;800;800;2400;2400;3200;3200;1500;1500;1900;1900"/>
<animate attributeName="visibility" dur="59.080000000000005s" keyTimes="0.0;0.0047169811;1.0" repeatCount="indefinite" values="visible;visible;visible"/> </circle>
</svg>