<?xml version="1.0" encoding="UTF-8"?>
        <svg xmlns="http://www.w3.org/2000/svg" xmlns:xlink="http://www.w3.org/1999/xlink"
             width="430" height="430" viewBox="0 -4300 4300 4300">

<defs>

</defs>

<rect fill="#84A1AE" height="70" rx="15" width="70" x="465" y="-535" />
<rect fill="#84A1AE" height="70" rx="15" width="70" x="465" y="-635" />
<rect fill="#84A1AE" height="70" rx="15" width="70" x="465" y="-735" />
<rect fill="#84A1AE" height="70" rx="15" width="70" x="465" y="-835" />
<rect fill="#84A1AE" height="70" rx="15" width="70" x="465" y="-935" />
<rect fill="#84A1AE" height="70" rx="15" width="70" x="465" y="-1035" />
<rect fill="#84A1AE" height="70" rx="15" width="70" x="465" y="-1135" />
<rect fill="#84A1AE" height="70" rx="15" width="70" x="465" y="-1235" />
<rect fill="#84A1AE" height="70" rx="15" width="70" x="465" y="-1335" />
<rect fill="#84A1AE" height="70" rx="15" width="70" x="465" y="-1435" />
<rect fill="#84A1AE" height="70" rx="15" width="70" x="465" y="-1535" />
<rect fill="#84A1AE" height="70" rx="15" width="70" x="465" y="-1635" />
<rect fill="#84A1AE" height="70" rx="15" width="70" x="465" y="-1735" />
<rect fill="#84A1AE" height="70" rx="15" width="70" x="465" y="-1835" />
<rect fill="#84A1AE" height="70" rx="15" width="70" x="465" y="-1935" />
<rect fill="#84A1AE" height="70" rx="15" width="70" x="465" y="-2035" />
<rect fill="#84A1AE" height="70" rx="15" width="70" x="465" y="-2135" />
<rect fill="#84A1AE" height="70" rx="15" width="70" x="465" y="-2235" />
<rect fill="#84A1AE" height="70" rx="15" width="70" x="465" y="-2335" />
<rect fill="#84A1AE" height="70" rx="15" width="70" x="465" y="-2435" />
<rect fill="#84A1AE" height="70" rx="15" width="70" x="465" y="-2535" />
<rect fill="#84A1AE" height="70" rx="15" width="70" x="465" y="-2635" />
<rect fill="#84A1AE" height="70" rx="15" width="70" x="465" y="-2735" />
<rect fill="#84A1AE" height="70" rx="15" width="70" x="465" y="-2835" />
<rect fill="#84A1AE" height="70" rx="15" width="70" x="465" y="-2935" />
<rect fill="#84A1AE" height="70" rx="15" width="70" x="465" y="-3035" />
<rect fill="#84A1AE" height="70" rx="15" width="70" x="465" y="-3135" />
<rect fill="#84A1AE" height="70" rx="15" width="70" x="465" y="-3235" />
<rect fill="#84A1AE" height="70" rx="15" width="70" x="465" y="-3335" />
<rect fill="#84A1AE" height="70" rx="15" width="70" x="465" y="-3435" />
<rect fill="#84A1AE" height="70" rx="15" width="70" x="465" y="-3535" />
<rect fill="#84A1AE" height="70" rx="15" width="70" x="465" y="-3635" />
<rect fill="#84A1AE" height="70" rx="15" width="70" x="465" y="-3735" />
<rect fill="#84A1AE" height="70" rx="15" width="70" x="465" y="-3835" />
<rect fill="#84A1AE" height="70" rx="15" width="70" x="565" y="-535" />
<rect fill="#84A1AE" height="70" rx="15" width="70" x="565" y="-1635" />
<rect fill="#84A1AE" height="70" rx="15" width="70" x="565" y="-1935" />
<rect fill="#84A1AE" height="70" rx="15" width="70" x="565" y="-2735" />
<rect fill="#84A1AE" height="70" rx="15" width="70" x="565" y="-3835" />
<rect fill="#84A1AE" height="70" rx="15" width="70" x="665" y="-535" />
<rect fill="#84A1AE" height="70" rx="15" width="70" x="665" y="-1035" />
<rect fill="#84A1AE" height="70" rx="15" width="70" x="665" y="-2535" />
<rect fill="#84A1AE" height="70" rx="15" width="70" x="665" y="-3035" />
<rect fill="#84A1AE" height="70" rx="15" width="70" x="665" y="-3235" />
<rect fill="#84A1AE" height="70" rx="15" width="70" x="665" y="-3835" />
<rect fill="#84A1AE" height="70" rx="15" width="70" x="765" y="-535" />
<rect fill="#84A1AE" height="70" rx="15" width="70" x="765" y="-635" />
<rect fill="#84A1AE" height="70" rx="15" width="70" x="765" y="-3835" />
<rect fill="#84A1AE" height="70" rx="15" width="70" x="865" y="-535" />
<rect fill="#84A1AE" height="70" rx="15" width="70" x="865" y="-2435" />
<rect fill="#84A1AE" height="70" rx="15" width="70" x="865" y="-2535" />
<rect fill="#84A1AE" height="70" rx="15" width="70" x="865" y="-3335" />
<rect fill="#84A1AE" height="70" rx="15" width="70" x="865" y="-3435" />
<rect fill="#84A1AE" height="70" rx="15" width="70" x="865" y="-3835" />
<rect fill="#84A1AE" height="70" rx="15" width="70" x="965" y="-535" />
<rect fill="#84A1AE" height="70" rx="15" width="70" x="965" y="-735" />
<rect fill="#84A1AE" height="70" rx="15" width="70" x="965" y="-1635" />
<rect fill="#84A1AE" height="70" rx="15" width="70" x="965" y="-1835" />
<rect fill="#84A1AE" height="70" rx="15" width="70" x="965" y="-2835" />
<rect fill="#84A1AE" height="70" rx="15" width="70" x="965" y="-3435" />
<rect fill="#84A1AE" height="70" rx="15" width="70" x="965" y="-3835" />
<rect fill="#84A1AE" height="70" rx="15" width="70" x="1065" y="-535" />
<rect fill="#84A1AE" height="70" rx="15" width="70" x="1065" y="-1135" />
<rect fill="#84A1AE" height="70" rx="15" width="70" x="1065" y="-1835" />
<rect fill="#84A1AE" height="70" rx="15" width="70" x="1065" y="-3735" />
<rect fill="#84A1AE" height="70" rx="15" width="70" x="1065" y="-3835" />
<rect fill="#84A1AE" height="70" rx="15" width="70" x="1165" y="-535" />
<rect fill="#84A1AE" height="70" rx="15" width="70" x="1165" y="-635" />
<rect fill="#84A1AE" height="70" rx="15" width="70" x="1165" y="-735" />
<rect fill="#84A1AE" height="70" rx="15" width="70" x="1165" y="-1535" />
<rect fill="#84A1AE" height="70" rx="15" width="70" x="1165" y="-3835" />
<rect fill="#84A1AE" height="70" rx="15" width="70" x="1265" y="-535" />
<rect fill="#84A1AE" height="70" rx="15" width="70" x="1265" y="-2835" />
<rect fill="#84A1AE" height="70" rx="15" width="70" x="1265" y="-3435" />
<rect fill="#84A1AE" height="70" rx="15" width="70" x="1265" y="-3835" />
<rect fill="#84A1AE" height="70" rx="15" width="70" x="1365" y="-535" />
<rect fill="#84A1AE" height="70" rx="15" width="70" x="1365" y="-835" />
<rect fill="#84A1AE" height="70" rx="15" width="70" x="1365" y="-935" />
<rect fill="#84A1AE" height="70" rx="15" width="70" x="1365" y="-1035" />
<rect fill="#84A1AE" height="70" rx="15" width="70" x="1365" y="-1935" />
<rect fill="#84A1AE" height="70" rx="15" width="70" x="1365" y="-2335" />
<rect fill="#84A1AE" height="70" rx="15" width="70" x="1365" y="-2635" />
<rect fill="#84A1AE" height="70" rx="15" width="70" x="1365" y="-2835" />
<rect fill="#84A1AE" height="70" rx="15" width="70" x="1365" y="-2935" />
<rect fill="#84A1AE" height="70" rx="15" width="70" x="1365" y="-3035" />
<rect fill="#84A1AE" height="70" rx="15" width="70" x="1365" y="-3335" />
<rect fill="#84A1AE" height="70" rx="15" width="70" x="1365" y="-3835" />
<rect fill="#84A1AE" height="70" rx="15" width="70" x="1465" y="-535" />
<rect fill="#84A1AE" height="70" rx="15" width="70" x="1465" y="-1235" />
<rect fill="#84A1AE" height="70" rx="15" width="70" x="1465" y="-1535" />
<rect fill="#84A1AE" height="70" rx="15" width="70" x="1465" y="-2035" />
<rect fill="#84A1AE" height="70" rx="15" width="70" x="1465" y="-3135" />
<rect fill="#84A1AE" height="70" rx="15" width="70" x="1465" y="-3235" />
<rect fill="#84A1AE" height="70" rx="15" width="70" x="1465" y="-3835" />
<rect fill="#84A1AE" height="70" rx="15" width="70" x="1565" y="-535" />
<rect fill="#84A1AE" height="70" rx="15" width="70" x="1565" y="-3035" />
<rect fill="#84A1AE" height="70" rx="15" width="70" x="1565" y="-3835" />
<rect fill="#84A1AE" height="70" rx="15" width="70" x="1665" y="-535" />
<rect fill="#84A1AE" height="70" rx="15" width="70" x="1665" y="-3735" />
<rect fill="#84A1AE" height="70" rx="15" width="70" x="1665" y="-3835" />
<rect fill="#84A1AE" height="70" rx="15" width="70" x="1765" y="-535" />
<rect fill="#84A1AE" height="70" rx="15" width="70" x="1765" y="-1235" />
<rect fill="#84A1AE" height="70" rx="15" width="70" x="1765" y="-3835" />
<rect fill="#84A1AE" height="70" rx="15" width="70" x="1865" y="-535" />
<rect fill="#84A1AE" height="70" rx="15" width="70" x="1865" y="-735" />
<rect fill="#84A1AE" height="70" rx="15" width="70" x="1865" y="-1335" />
<rect fill="#84A1AE" height="70" rx="15" width="70" x="1865" y="-3235" />
<rect fill="#84A1AE" height="70" rx="15" width="70" x="1865" y="-3435" />
<rect fill="#84A1AE" height="70" rx="15" width="70" x="1865" y="-3835" />
<rect fill="#84A1AE" height="70" rx="15" width="70" x="1965" y="-535" />
<rect fill="#84A1AE" height="70" rx="15" width="70" x="1965" y="-635" />
<rect fill="#84A1AE" height="70" rx="15" width="70" x="1965" y="-1835" />
<rect fill="#84A1AE" height="70" rx="15" width="70" x="1965" y="-1935" />
<rect fill="#84A1AE" height="70" rx="15" width="70" x="1965" y="-2135" />
<rect fill="#84A1AE" height="70" rx="15" width="70" x="1965" y="-2335" />
<rect fill="#84A1AE" height="70" rx="15" width="70" x="1965" y="-2435" />
<rect fill="#84A1AE" height="70" rx="15" width="70" x="1965" y="-3335" />
<rect fill="#84A1AE" height="70" rx="15" width="70" x="1965" y="-3835" />
<rect fill="#84A1AE" height="70" rx="15" width="70" x="2065" y="-535" />
<rect fill="#84A1AE" height="70" rx="15" width="70" x="2065" y="-1535" />
<rect fill="#84A1AE" height="70" rx="15" width="70" x="2065" y="-1635" />
<rect fill="#84A1AE" height="70" rx="15" width="70" x="2065" y="-2135" />
<rect fill="#84A1AE" height="70" rx="15" width="70" x="2065" y="-3835" />
<rect fill="#84A1AE" height="70" rx="15" width="70" x="2165" y="-535" />
<rect fill="#84A1AE" height="70" rx="15" width="70" x="2165" y="-935" />
<rect fill="#84A1AE" height="70" rx="15" width="70" x="2165" y="-1335" />
<rect fill="#84A1AE" height="70" rx="15" width="70" x="2165" y="-1835" />
<rect fill="#84A1AE" height="70" rx="15" width="70" x="2165" y="-3835" />
<rect fill="#84A1AE" height="70" rx="15" width="70" x="2265" y="-535" />
<rect fill="#84A1AE" height="70" rx="15" width="70" x="2265" y="-935" />
<rect fill="#84A1AE" height="70" rx="15" width="70" x="2265" y="-1135" />
<rect fill="#84A1AE" height="70" rx="15" width="70" x="2265" y="-2535" />
<rect fill="#84A1AE" height="70" rx="15" width="70" x="2265" y="-3235" />
<rect fill="#84A1AE" height="70" rx="15" width="70" x="2265" y="-3835" />
<rect fill="#84A1AE" height="70" rx="15" width="70" x="2365" y="-535" />
<rect fill="#84A1AE" height="70" rx="15" width="70" x="2365" y="-935" />
<rect fill="#84A1AE" height="70" rx="15" width="70" x="2365" y="-1035" />
<rect fill="#84A1AE" height="70" rx="15" width="70" x="2365" y="-3835" />
<rect fill="#84A1AE" height="70" rx="15" width="70" x="2465" y="-535" />
<rect fill="#84A1AE" height="70" rx="15" width="70" x="2465" y="-935" />
<rect fill="#84A1AE" height="70" rx="15" width="70" x="2465" y="-1535" />
<rect fill="#84A1AE" height="70" rx="15" width="70" x="2465" y="-2335" />
<rect fill="#84A1AE" height="70" rx="15" width="70" x="2465" y="-2735" />
<rect fill="#84A1AE" height="70" rx="15" width="70" x="2465" y="-3835" />
<rect fill="#84A1AE" height="70" rx="15" width="70" x="2565" y="-535" />
<rect fill="#84A1AE" height="70" rx="15" width="70" x="2565" y="-735" />
<rect fill="#84A1AE" height="70" rx="15" width="70" x="2565" y="-2535" />
<rect fill="#84A1AE" height="70" rx="15" width="70" x="2565" y="-3835" />
<rect fill="#84A1AE" height="70" rx="15" width="70" x="2665" y="-535" />
<rect fill="#84A1AE" height="70" rx="15" width="70" x="2665" y="-635" />
<rect fill="#84A1AE" height="70" rx="15" width="70" x="2665" y="-1135" />
<rect fill="#84A1AE" height="70" rx="15" width="70" x="2665" y="-1435" />
<rect fill="#84A1AE" height="70" rx="15" width="70" x="2665" y="-2735" />
<rect fill="#84A1AE" height="70" rx="15" width="70" x="2665" y="-3835" />
<rect fill="#84A1AE" height="70" rx="15" width="70" x="2765" y="-535" />
<rect fill="#84A1AE" height="70" rx="15" width="70" x="2765" y="-1635" />
<rect fill="#84A1AE" height="70" rx="15" width="70" x="2765" y="-1835" />
<rect fill="#84A1AE" height="70" rx="15" width="70" x="2765" y="-1935" />
<rect fill="#84A1AE" height="70" rx="15" width="70" x="2765" y="-2235" />
<rect fill="#84A1AE" height="70" rx="15" width="70" x="2765" y="-3735" />
<rect fill="#84A1AE" height="70" rx="15" width="70" x="2765" y="-3835" />
<rect fill="#84A1AE" height="70" rx="15" width="70" x="2865" y="-535" />
<rect fill="#84A1AE" height="70" rx="15" width="70" x="2865" y="-3835" />
<rect fill="#84A1AE" height="70" rx="15" width="70" x="2965" y="-535" />
<rect fill="#84A1AE" height="70" rx="15" width="70" x="2965" y="-2635" />
<rect fill="#84A1AE" height="70" rx="15" width="70" x="2965" y="-3835" />
<rect fill="#84A1AE" height="70" rx="15" width="70" x="3065" y="-535" />
<rect fill="#84A1AE" height="70" rx="15" width="70" x="3065" y="-735" />
<rect fill="#84A1AE" height="70" rx="15" width="70" x="3065" y="-2535" />
<rect fill="#84A1AE" height="70" rx="15" width="70" x="3065" y="-3835" />
<rect fill="#84A1AE" height="70" rx="15" width="70" x="3165" y="-535" />
<rect fill="#84A1AE" height="70" rx="15" width="70" x="3165" y="-835" />
<rect fill="#84A1AE" height="70" rx="15" width="70" x="3165" y="-1935" />
<rect fill="#84A1AE" height="70" rx="15" width="70" x="3165" y="-2735" />
<rect fill="#84A1AE" height="70" rx="15" width="70" x="3165" y="-3135" />
<rect fill="#84A1AE" height="70" rx="15" width="70" x="3165" y="-3835" />
<rect fill="#84A1AE" height="70" rx="15" width="70" x="3265" y="-535" />
<rect fill="#84A1AE" height="70" rx="15" width="70" x="3265" y="-1035" />
<rect fill="#84A1AE" height="70" rx="15" width="70" x="3265" y="-1735" />
<rect fill="#84A1AE" height="70" rx="15" width="70" x="3265" y="-3835" />
<rect fill="#84A1AE" height="70" rx="15" width="70" x="3365" y="-535" />
<rect fill="#84A1AE" height="70" rx="15" width="70" x="3365" y="-1435" />
<rect fill="#84A1AE" height="70" rx="15" width="70" x="3365" y="-1935" />
<rect fill="#84A1AE" height="70" rx="15" width="70" x="3365" y="-2135" />
<rect fill="#84A1AE" height="70" rx="15" width="70" x="3365" y="-3835" />
<rect fill="#84A1AE" height="70" rx="15" width="70" x="3465" y="-535" />
<rect fill="#84A1AE" height="70" rx="15" width="70" x="3465" y="-2635" />
<rect fill="#84A1AE" height="70" rx="15" width="70" x="3465" y="-3835" />
<rect fill="#84A1AE" height="70" rx="15" width="70" x="3565" y="-535" />
<rect fill="#84A1AE" height="70" rx="15" width="70" x="3565" y="-635" />
<rect fill="#84A1AE" height="70" rx="15" width="70" x="3565" y="-2435" />
<rect fill="#84A1AE" height="70" rx="15" width="70" x="3565" y="-3235" />
<rect fill="#84A1AE" height="70" rx="15" width="70" x="3565" y="-3835" />
<rect fill="#84A1AE" height="70" rx="15" width="70" x="3665" y="-535" />
<rect fill="#84A1AE" height="70" rx="15" width="70" x="3665" y="-2135" />
<rect fill="#84A1AE" height="70" rx="15" width="70" x="3665" y="-2835" />
<rect fill="#84A1AE" height="70" rx="15" width="70" x="3665" y="-3135" />
<rect fill="#84A1AE" height="70" rx="15" width="70" x="3665" y="-3735" />
<rect fill="#84A1AE" height="70" rx="15" width="70" x="3665" y="-3835" />
<rect fill="#84A1AE" height="70" rx="15" width="70" x="3765" y="-535" />
<rect fill="#84A1AE" height="70" rx="15" width="70" x="3765" y="-635" />
<rect fill="#84A1AE" height="70" rx="15" width="70" x="3765" y="-735" />
<rect fill="#84A1AE" height="70" rx="15" width="70" x="3765" y="-835" />
<rect fill="#84A1AE" height="70" rx="15" width="70" x="3765" y="-935" />
<rect fill="#84A1AE" height="70" rx="15" width="70" x="3765" y="-1035" />
<rect fill="#84A1AE" height="70" rx="15" width="70" x="3765" y="-1135" />
<rect fill="#84A1AE" height="70" rx="15" width="70" x="3765" y="-1235" />
<rect fill="#84A1AE" height="70" rx="15" width="70" x="3765" y="-1335" />
<rect fill="#84A1AE" height="70" rx="15" width="70" x="3765" y="-1435" />
<rect fill="#84A1AE" height="70" rx="15" width="70" x="3765" y="-1535" />
<rect fill="#84A1AE" height="70" rx="15" width="70" x="3765" y="-1635" />
<rect fill="#84A1AE" height="70" rx="15" width="70" x="3765" y="-1735" />
<rect fill="#84A1AE" height="70" rx="15" width="70" x="3765" y="-1835" />
<rect fill="#84A1AE" height="70" rx="15" width="70" x="3765" y="-1935" />
<rect fill="#84A1AE" height="70" rx="15" width="70" x="3765" y="-2035" />
<rect fill="#84A1AE" height="70" rx="15" width="70" x="3765" y="-2135" />
<rect fill="#84A1AE" height="70" rx="15" width="70" x="3765" y="-2235" />
<rect fill="#84A1AE" height="70" rx="15" width="70" x="3765" y="-2335" />
<rect fill="#84A1AE" height="70" rx="15" width="70" x="3765" y="-2435" />
<rect fill="#84A1AE" height="70" rx="15" width="70" x="3765" y="-2535" />
<rect fill="#84A1AE" height="70" rx="15" width="70" x="3765" y="-2635" />
<rect fill="#84A1AE" height="70" rx="15" width="70" x="3765" y="-2735" />
<rect fill="#84A1AE" height="70" rx="15" width="70" x="3765" y="-2835" />
<rect fill="#84A1AE" height="70" rx="15" width="70" x="3765" y="-2935" />
<rect fill="#84A1AE" height="70" rx="15" width="70" x="3765" y="-3035" />
<rect fill="#84A1AE" height="70" rx="15" width="70" x="3765" y="-3135" />
<rect fill="#84A1AE" height="70" rx="15" width="70" x="3765" y="-3235" />
<rect fill="#84A1AE" height="70" rx="15" width="70" x="3765" y="-3335" />
<rect fill="#84A1AE" height="70" rx="15" width="70" x="3765" y="-3435" />
<rect fill="#84A1AE" height="70" rx="15" width="70" x="3765" y="-3535" />
<rect fill="#84A1AE" height="70" rx="15" width="70" x="3765" y="-3635" />
<rect fill="#84A1AE" height="70" rx="15" width="70" x="3765" y="-3735" />
<rect fill="#84A1AE" height="70" rx="15" width="70" x="3765" y="-3835" />
<circle cx="2500" cy="-1400" fill="#c1433c" r="35"> <animate attributeName="cy" dur="89.88000000000001s" keyTimes="0.0;0.0031055901;0.0062111801;0.0093167702;0.0124223602;0.0155279503;0.0217391304;0.0248447205;0.0279503106;0.0310559006;0.0465838509;0.049689441;0.0527950311;0.0559006211;0.0621118012;0.0652173913;0.0683229814;0.0714285714;0.0745341615;0.0776397516;0.0807453416;0.0838509317;0.0869565217;0.0900621118;0.0931677019;0.0962732919;0.099378882;0.102484472;0.1180124224;0.1211180124;0.1242236025;0.1273291925;0.1304347826;0.1459627329;0.149068323;0.152173913;0.1552795031;0.1583850932;0.1614906832;0.1645962733;0.1677018634;0.1739130435;0.1770186335;0.1863354037;0.1894409938;0.1925465839;0.1956521739;0.198757764;0.201863354;0.2080745342;0.2111801242;0.2142857143;0.2173913043;0.2267080745;0.2298136646;0.2329192547;0.2360248447;0.2391304348;0.2422360248;0.2546583851;0.2577639752;0.2608695652;0.2639751553;0.2732919255;0.2763975155;0.2795031056;0.2857142857;0.2888198758;0.301242236;0.3043478261;0.3074534161;0.3105590062;0.3136645963;0.3167701863;0.3198757764;0.3229813665;0.3260869565;0.3291925466;0.3322981366;0.3354037267;0.3385093168;0.3416149068;0.3447204969;0.347826087;0.350931677;0.3540372671;0.3571428571;0.3664596273;0.3695652174;0.3726708075;0.3819875776;0.3850931677;0.3881987578;0.3944099379;0.397515528;0.4192546584;0.4223602484;0.4285714286;0.4316770186;0.4347826087;0.4409937888;0.4440993789;0.4472049689;0.450310559;0.4534161491;0.4565217391;0.4627329193;0.4658385093;0.4751552795;0.4782608696;0.4813664596;0.4844720497;0.4906832298;0.4937888199;0.5093167702;0.5124223602;0.5155279503;0.5186335404;0.5248447205;0.5279503106;0.5590062112;0.5621118012;0.5652173913;0.5683229814;0.5745341615;0.5776397516;0.5807453416;0.5838509317;0.5869565217;0.5900621118;0.5931677019;0.5962732919;0.599378882;0.6180124224;0.6211180124;0.6273291925;0.6304347826;0.6335403727;0.6366459627;0.6397515528;0.6428571429;0.6459627329;0.649068323;0.652173913;0.6801242236;0.6832298137;0.6863354037;0.6894409938;0.6925465839;0.6956521739;0.698757764;0.701863354;0.7049689441;0.7080745342;0.7111801242;0.7142857143;0.7173913043;0.7204968944;0.7267080745;0.7298136646;0.7360248447;0.7391304348;0.7422360248;0.7453416149;0.748447205;0.751552795;0.7546583851;0.7577639752;0.7608695652;0.7639751553;0.7670807453;0.7701863354;0.7732919255;0.7763975155;0.7826086957;0.7857142857;0.7888198758;0.7919254658;0.7950310559;0.798136646;0.8074534161;0.8105590062;0.8136645963;0.8198757764;0.8229813665;0.8260869565;0.8291925466;0.8322981366;0.8385093168;0.8416149068;0.850931677;0.8540372671;0.8602484472;0.8633540373;0.8664596273;0.8726708075;0.8757763975;0.8850931677;0.8881987578;0.897515528;0.900621118;0.9037267081;0.9068322981;0.9130434783;0.9161490683;0.9192546584;0.9223602484;0.9254658385;0.9285714286;0.9316770186;0.9347826087;0.9378881988;0.9409937888;0.9440993789;0.9472049689;0.950310559;0.9534161491;0.9596273292;0.9627329193;0.9658385093;0.9689440994;0.9720496894;0.9813664596;0.9844720497;0.9875776398;0.9906832298;0.9937888199;0.9968944099;1.0" repeatCount="indefinite" values="-1400;-1400;-1400;-1300;-1300;-1400;-1400;-1500;-1500;-1400;-1400;-1300;-1400;-1500;-1500;-1400;-1300;-1400;-1500;-1400;-1300;-1400;-1500;-1400;-1300;-1300;-1400;-1500;-1500;-1400;-1300;-1300;-1400;-1400;-1500;-1500;-1600;-1700;-1600;-1700;-1800;-1800;-1700;-1700;-1800;-1800;-1700;-1800;-1900;-1900;-2000;-2000;-1900;-1900;-2000;-2100;-2000;-2100;-2200;-2200;-2100;-2200;-2300;-2300;-2400;-2500;-2500;-2600;-2600;-2700;-2600;-2600;-2500;-2600;-2700;-2800;-2800;-2700;-2700;-2600;-2700;-2700;-2800;-2900;-3000;-3000;-3100;-3100;-3000;-2900;-2900;-3000;-3100;-3100;-3000;-3000;-3100;-3100;-3200;-3100;-3100;-3200;-3200;-3100;-3000;-2900;-2900;-3000;-3000;-2900;-2900;-2800;-2800;-2900;-2900;-3000;-3000;-2900;-2900;-3000;-3000;-2900;-2800;-2700;-2700;-2600;-2700;-2800;-2900;-3000;-2900;-2900;-2800;-2800;-2900;-2900;-2800;-2900;-2900;-3000;-2900;-2800;-2800;-2700;-2700;-2600;-2700;-2700;-2800;-2900;-2900;-3000;-3000;-2900;-2800;-2800;-2900;-3000;-3000;-3100;-3100;-3000;-3100;-3200;-3200;-3100;-3000;-2900;-2800;-2800;-2700;-2600;-2500;-2400;-2400;-2300;-2300;-2400;-2500;-2400;-2400;-2500;-2600;-2600;-2500;-2400;-2300;-2400;-2400;-2500;-2500;-2600;-2600;-2500;-2400;-2400;-2500;-2500;-2600;-2600;-2500;-2500;-2400;-2400;-2300;-2300;-2400;-2400;-2500;-2400;-2300;-2400;-2500;-2400;-2400;-2500;-2400;-2400;-2500;-2500;-2400;-2500;-2500;-2600;-2700;-2800;-2700;-2800;-2800"/>
<animate attributeName="cx" dur="89.88000000000001s" keyTimes="0.0;0.0031055901;0.0186335404;0.0217391304;0.0341614907;0.0372670807;0.0403726708;0.1055900621;0.1086956522;0.1118012422;0.1304347826;0.1335403727;0.1366459627;0.1397515528;0.1428571429;0.1677018634;0.1708074534;0.1739130435;0.1770186335;0.1801242236;0.1832298137;0.1863354037;0.1894409938;0.1925465839;0.2049689441;0.2080745342;0.2173913043;0.2204968944;0.2236024845;0.2267080745;0.2422360248;0.2453416149;0.248447205;0.251552795;0.2546583851;0.2639751553;0.2670807453;0.2701863354;0.2732919255;0.2795031056;0.2826086957;0.2857142857;0.298136646;0.301242236;0.350931677;0.3540372671;0.3571428571;0.3602484472;0.3633540373;0.3726708075;0.3757763975;0.3788819876;0.3819875776;0.3881987578;0.3913043478;0.3944099379;0.397515528;0.400621118;0.4037267081;0.4068322981;0.4099378882;0.4130434783;0.4161490683;0.4192546584;0.4254658385;0.4285714286;0.4378881988;0.4409937888;0.4565217391;0.4596273292;0.4658385093;0.4689440994;0.4720496894;0.4782608696;0.4813664596;0.4844720497;0.4875776398;0.4937888199;0.4968944099;0.5;0.5062111801;0.5093167702;0.5124223602;0.5155279503;0.5186335404;0.5217391304;0.5248447205;0.5279503106;0.5310559006;0.5341614907;0.5372670807;0.5403726708;0.5434782609;0.5465838509;0.549689441;0.5527950311;0.5559006211;0.5590062112;0.5683229814;0.5714285714;0.5745341615;0.5931677019;0.5962732919;0.599378882;0.602484472;0.6055900621;0.6086956522;0.6118012422;0.6149068323;0.6335403727;0.6366459627;0.652173913;0.6552795031;0.6583850932;0.6614906832;0.6645962733;0.6677018634;0.6708074534;0.6739130435;0.6770186335;0.6801242236;0.6863354037;0.6894409938;0.6956521739;0.698757764;0.701863354;0.7049689441;0.7111801242;0.7142857143;0.7236024845;0.7267080745;0.7298136646;0.7329192547;0.7360248447;0.7608695652;0.7639751553;0.7795031056;0.7826086957;0.798136646;0.801242236;0.8043478261;0.8074534161;0.8136645963;0.8167701863;0.8322981366;0.8354037267;0.8385093168;0.8416149068;0.8447204969;0.847826087;0.850931677;0.8571428571;0.8602484472;0.8664596273;0.8695652174;0.8726708075;0.8757763975;0.8788819876;0.8819875776;0.8850931677;0.8913043478;0.8944099379;0.9068322981;0.9099378882;0.9130434783;0.9565217391;0.9596273292;0.9627329193;0.9658385093;0.9720496894;0.9751552795;0.9782608696;0.9813664596;1.0" repeatCount="indefinite" values="2500;2500;2500;2400;2400;2500;2600;2600;2700;2600;2600;2500;2600;2500;2400;2400;2500;2600;2600;2700;2600;2700;2700;2600;2600;2700;2700;2600;2500;2600;2600;2500;2600;2600;2700;2700;2600;2600;2700;2700;2800;2700;2700;2800;2800;2700;2700;2800;2700;2700;2800;2900;3000;3000;2900;3000;3000;3100;3200;3200;3300;3400;3400;3500;3500;3400;3400;3500;3500;3600;3600;3500;3400;3400;3300;3300;3400;3400;3300;3200;3200;3100;3100;3000;3000;2900;2800;2800;2700;2600;2600;2700;2600;2500;2400;2300;2200;2100;2100;2000;1900;1900;1800;1800;1900;1800;1700;1700;1600;1600;1500;1500;1400;1300;1200;1100;1000;900;800;800;700;700;800;800;900;900;800;800;900;900;1000;1000;1100;1200;1200;1100;1100;1000;1000;1100;1000;1100;1100;1200;1200;1100;1200;1200;1300;1200;1100;1100;1000;1000;1100;1000;1000;1100;1200;1100;1100;1200;1200;1100;1000;1000;1100;1100;1200;1200;1100;1000;1100;1100"/>
<animate attributeName="visibility" dur="89.88000000000001s" keyTimes="0.0;0.0031055901;1.0" repeatCount="indefinite" values="visible;visible;visible"/> </circle>
<circle cx="3000" cy="-1900" fill="#2e6f9e" r="35"> <animate attributeName="cy" dur="89.88000000000001s" keyTimes="0.0;0.0031055901;0.0062111801;0.0093167702;0.0124223602;0.0155279503;0.0186335404;0.0217391304;0.0248447205;0.0279503106;0.0310559006;0.0341614907;0.0403726708;0.0434782609;0.0465838509;0.049689441;0.0559006211;0.0590062112;0.0621118012;0.0652173913;0.0683229814;0.0714285714;0.0745341615;0.0776397516;0.0807453416;0.0869565217;0.0900621118;0.0931677019;0.0962732919;0.099378882;0.102484472;0.1055900621;0.1118012422;0.1149068323;0.1180124224;0.1211180124;0.1304347826;0.1335403727;0.1583850932;0.1614906832;0.1645962733;0.1677018634;0.1708074534;0.1739130435;0.1894409938;0.1925465839;0.2142857143;0.2173913043;0.2204968944;0.2267080745;0.2298136646;0.2329192547;0.2360248447;0.2391304348;0.2422360248;0.2453416149;0.248447205;0.251552795;0.2546583851;0.2577639752;0.2608695652;0.3136645963;0.3167701863;0.3260869565;0.3291925466;0.3322981366;0.3354037267;0.3447204969;0.347826087;0.3540372671;0.3571428571;0.3602484472;0.3726708075;0.3757763975;0.3788819876;0.3819875776;0.3850931677;0.3881987578;0.3913043478;0.3944099379;0.397515528;0.400621118;0.4037267081;0.4068322981;0.4099378882;0.4161490683;0.4192546584;0.4596273292;0.4627329193;0.4658385093;0.4689440994;0.4720496894;0.4751552795;0.4782608696;0.4813664596;0.4844720497;0.4875776398;0.4906832298;0.4937888199;0.4968944099;0.5;0.5031055901;0.5062111801;0.5093167702;0.5124223602;0.5155279503;0.5186335404;0.5217391304;0.5248447205;0.5279503106;0.5310559006;0.5341614907;0.5372670807;0.5403726708;0.5434782609;0.5465838509;0.549689441;0.5527950311;0.5559006211;0.5590062112;0.5621118012;0.5652173913;0.5683229814;0.5714285714;0.5745341615;0.5776397516;0.5807453416;0.5838509317;0.5869565217;0.5900621118;0.5931677019;0.5962732919;0.599378882;0.6149068323;0.6180124224;0.6211180124;0.6242236025;0.6273291925;0.6304347826;0.6335403727;0.6366459627;0.6397515528;0.6428571429;0.6459627329;0.6801242236;0.6832298137;0.6925465839;0.6956521739;0.698757764;0.701863354;0.7049689441;0.7080745342;0.7111801242;0.7142857143;0.7173913043;0.7204968944;0.7236024845;0.7267080745;0.7298136646;0.7329192547;0.7360248447;0.7391304348;0.7422360248;0.7453416149;0.748447205;0.751552795;0.7546583851;0.7577639752;0.7608695652;0.7639751553;0.7670807453;0.7701863354;0.7732919255;0.7763975155;0.7795031056;0.7826086957;0.7857142857;0.7888198758;0.7919254658;0.8167701863;0.8198757764;0.8229813665;0.8260869565;0.8291925466;0.8322981366;0.8354037267;0.8385093168;0.8416149068;0.8447204969;0.847826087;0.850931677;0.8540372671;0.8571428571;0.8602484472;0.8633540373;0.8664596273;0.8695652174;0.8726708075;0.8757763975;0.8788819876;0.8819875776;0.8850931677;0.8881987578;0.8913043478;0.8944099379;0.897515528;0.9037267081;0.9068322981;0.9099378882;0.9130434783;0.9161490683;0.9192546584;0.9223602484;0.9254658385;0.9285714286;0.9316770186;0.9347826087;0.9378881988;0.9409937888;0.9440993789;0.9472049689;0.950310559;0.9534161491;0.9565217391;0.9596273292;0.9813664596;0.9844720497;0.9875776398;1.0" repeatCount="indefinite" values="-1900;-1900;-1900;-2000;-2100;-2200;-2300;-2400;-2400;-2500;-2500;-2600;-2600;-2500;-2400;-2300;-2300;-2200;-2100;-2000;-1900;-1800;-1700;-1700;-1600;-1600;-1500;-1400;-1400;-1300;-1300;-1200;-1200;-1100;-1100;-1000;-1000;-900;-900;-1000;-1000;-1100;-1100;-1200;-1200;-1100;-1100;-1200;-1300;-1300;-1400;-1400;-1500;-1600;-1700;-1800;-1900;-2000;-2000;-2100;-2200;-2200;-2300;-2300;-2200;-2200;-2300;-2300;-2400;-2400;-2500;-2600;-2600;-2700;-2700;-2800;-2900;-2900;-3000;-3000;-3100;-3100;-3200;-3300;-3400;-3400;-3500;-3500;-3400;-3300;-3200;-3100;-3000;-2900;-2800;-2700;-2600;-2600;-2500;-2400;-2300;-2200;-2100;-2100;-2000;-1900;-1800;-1800;-1700;-1600;-1600;-1500;-1400;-1300;-1200;-1100;-1000;-900;-800;-900;-1000;-1100;-1200;-1300;-1400;-1500;-1600;-1700;-1800;-1900;-2000;-2100;-2200;-2200;-2100;-2000;-1900;-1800;-1700;-1600;-1500;-1400;-1300;-1200;-1200;-1100;-1100;-1000;-900;-800;-900;-1000;-1100;-1200;-1300;-1400;-1500;-1600;-1700;-1800;-1900;-2000;-2100;-2200;-2300;-2400;-2500;-2600;-2700;-2800;-2900;-2900;-3000;-3100;-3200;-3300;-3400;-3400;-3500;-3500;-3400;-3300;-3200;-3100;-3000;-2900;-2800;-2700;-2600;-2500;-2400;-2300;-2200;-2100;-2000;-1900;-1800;-1700;-1600;-1500;-1400;-1300;-1200;-1100;-1000;-900;-900;-1000;-1100;-1200;-1300;-1400;-1500;-1600;-1700;-1800;-1900;-2000;-2100;-2200;-2300;-2400;-2500;-2600;-2700;-2700;-2800;-2900;-2900"/>
<animate attributeName="cx" dur="89.88000000000001s" keyTimes="0.0;0.0031055901;0.0062111801;0.0217391304;0.0248447205;0.0279503106;0.0310559006;0.0341614907;0.0372670807;0.0403726708;0.049689441;0.0527950311;0.0559006211;0.0745341615;0.0776397516;0.0807453416;0.0838509317;0.0869565217;0.0931677019;0.0962732919;0.099378882;0.102484472;0.1055900621;0.1086956522;0.1118012422;0.1149068323;0.1180124224;0.1211180124;0.1242236025;0.1273291925;0.1304347826;0.1335403727;0.1366459627;0.1397515528;0.1428571429;0.1459627329;0.149068323;0.152173913;0.1552795031;0.1583850932;0.1614906832;0.1645962733;0.1677018634;0.1708074534;0.1739130435;0.1770186335;0.1801242236;0.1832298137;0.1863354037;0.1894409938;0.1925465839;0.1956521739;0.198757764;0.201863354;0.2049689441;0.2080745342;0.2111801242;0.2142857143;0.2204968944;0.2236024845;0.2267080745;0.2298136646;0.2329192547;0.251552795;0.2546583851;0.2608695652;0.2639751553;0.2670807453;0.2701863354;0.2732919255;0.2763975155;0.2795031056;0.2826086957;0.2857142857;0.2888198758;0.2919254658;0.2950310559;0.298136646;0.301242236;0.3043478261;0.3074534161;0.3105590062;0.3136645963;0.3167701863;0.3198757764;0.3229813665;0.3260869565;0.3291925466;0.3322981366;0.3354037267;0.3385093168;0.3416149068;0.3447204969;0.347826087;0.350931677;0.3540372671;0.3602484472;0.3633540373;0.3664596273;0.3695652174;0.3726708075;0.3757763975;0.3788819876;0.3850931677;0.3881987578;0.3913043478;0.3944099379;0.397515528;0.400621118;0.4099378882;0.4130434783;0.4161490683;0.4192546584;0.4223602484;0.4254658385;0.4285714286;0.4316770186;0.4347826087;0.4378881988;0.4409937888;0.4440993789;0.4472049689;0.450310559;0.4534161491;0.4565217391;0.4596273292;0.4875776398;0.4906832298;0.5062111801;0.5093167702;0.5186335404;0.5217391304;0.5279503106;0.5310559006;0.599378882;0.602484472;0.6055900621;0.6086956522;0.6118012422;0.6149068323;0.6459627329;0.649068323;0.652173913;0.6552795031;0.6583850932;0.6614906832;0.6645962733;0.6677018634;0.6708074534;0.6739130435;0.6770186335;0.6801242236;0.6832298137;0.6863354037;0.6894409938;0.6925465839;0.7670807453;0.7701863354;0.7857142857;0.7888198758;0.7919254658;0.7950310559;0.798136646;0.801242236;0.8043478261;0.8074534161;0.8105590062;0.8136645963;0.8167701863;0.897515528;0.900621118;0.9037267081;0.9596273292;0.9627329193;0.9658385093;0.9689440994;0.9720496894;0.9751552795;0.9782608696;0.9813664596;0.9875776398;0.9906832298;0.9937888199;0.9968944099;1.0" repeatCount="indefinite" values="3000;3000;2900;2900;2800;2800;2700;2700;2600;2700;2700;2800;2900;2900;3000;3000;3100;3200;3200;3300;3300;3400;3400;3500;3600;3600;3700;3700;3600;3500;3400;3400;3300;3200;3100;3000;2900;2800;2700;2600;2600;2500;2500;2400;2400;2300;2200;2100;2000;1900;1900;1800;1700;1600;1500;1400;1300;1200;1200;1100;1000;1000;900;900;1000;1000;1100;1200;1300;1400;1500;1600;1700;1800;1900;2000;2100;2200;2300;2400;2500;2600;2700;2700;2800;2900;3000;3000;2900;2900;2800;2700;2600;2600;2500;2400;2400;2300;2200;2100;2000;2000;1900;1900;1800;1800;1700;1700;1600;1600;1700;1800;1800;1900;2000;2100;2200;2300;2400;2500;2600;2700;2800;2900;3000;3100;3100;3200;3200;3300;3300;3400;3400;3500;3500;3400;3300;3200;3100;3000;3000;2900;2800;2700;2600;2500;2400;2300;2200;2100;2000;1900;1900;1800;1700;1600;1600;1700;1700;1600;1600;1500;1400;1300;1200;1100;1000;900;800;800;700;800;800;900;1000;1100;1200;1300;1400;1500;1500;1600;1700;1800;1800"/>
<animate attributeName="visibility" dur="89.88000000000001s" keyTimes="0.0;0.0031055901;1.0" repeatCount="indefinite" values="visible;visible;visible"/> </circle>
<circle cx="3500" cy="-3000" fill="none" r="35" stroke="#c1433c" stroke-width="10"> <animate attributeName="cy" dur="89.88000000000001s" keyTimes="0.0;0.0031055901;0.4161490683;0.4192546584;1.0" repeatCount="indefinite" values="-3000;-3000;-3000;-2800;-2800"/>
<animate attributeName="cx" dur="89.88000000000001s" keyTimes="0.0;0.0031055901;0.4161490683;0.4192546584;1.0" repeatCount="indefinite" values="3500;3500;3500;700;700"/>
<animate attributeName="visibility" dur="89.88000000000001s" keyTimes="0.0;0.0031055901;1.0" repeatCount="indefinite" values="visible;visible;visible"/> </circle>
<circle cx="2600" cy="-2600" fill="none" r="35" stroke="#2e6f9e" stroke-width="10"> <animate attributeName="cy" dur="89.88000000000001s" keyTimes="0.0;0.0031055901;0.0341614907;0.0372670807;0.1180124224;0.1211180124;0.149068323;0.152173913;0.198757764;0.201863354;0.2329192547;0.2360248447;0.3260869565;0.3291925466;0.400621118;0.4037267081;0.4596273292;0.4627329193;0.5527950311;0.5559006211;0.599378882;0.602484472;0.6428571429;0.6459627329;0.698757764;0.701863354;0.7888198758;0.7919254658;0.897515528;0.900621118;1.0" repeatCount="indefinite" values="-2600;-2600;-2600;-1000;-1000;-900;-900;-1100;-1100;-1500;-1500;-2200;-2200;-3200;-3200;-3400;-3400;-800;-800;-2200;-2200;-1200;-1200;-800;-800;-3500;-3500;-900;-900;-2900;-2900"/>
<animate attributeName="cx" dur="89.88000000000001s" keyTimes="0.0;0.0031055901;0.0341614907;0.0372670807;0.1180124224;0.1211180124;0.149068323;0.152173913;0.198757764;0.201863354;0.2329192547;0.2360248447;0.3260869565;0.3291925466;0.400621118;0.4037267081;0.4596273292;0.4627329193;0.5527950311;0.5559006211;0.599378882;0.602484472;0.6428571429;0.6459627329;0.7888198758;0.7919254658;0.897515528;0.900621118;1.0" repeatCount="indefinite" values="2600;2600;2600;3700;3700;2800;2800;1600;1600;900;900;3000;3000;1600;1600;3100;3100;3500;3500;3400;3400;3000;3000;1600;1600;700;700;3300;3300"/>
<animate attributeName="visibility" dur="89.88000000000001s" keyTimes="0.0;0.0031055901;1.0" repeatCount="indefinite" values="visible;visible;visible"/> </circle>
</svg>