<?xml version="1.0" encoding="UTF-8"?>
        <svg xmlns="http://www.w3.org/2000/svg" xmlns:xlink="http://www.w3.org/1999/xlink"
             width="512" height="512" viewBox="0 -3500 3500 3500">
<defs>

        <rect id="obstacle" width="70" height="70" fill="#84A1AE" rx="15"/>
        <style>
        .line {stroke: #84A1AE; stroke-width: 10;}
        .agent {r: 35;}
        .target {fill: none; stroke-width: 10; r: 35;}
        </style>
        
</defs>

<line class="line" x1="-50.0" x2="-50.0" y1="0" y2="-3500" />
<line class="line" x1="50.0" x2="50.0" y1="0" y2="-3500" />
<line class="line" x1="150.0" x2="150.0" y1="0" y2="-3500" />
<line class="line" x1="250.0" x2="250.0" y1="0" y2="-3500" />
<line class="line" x1="350.0" x2="350.0" y1="0" y2="-3500" />
<line class="line" x1="450.0" x2="450.0" y1="0" y2="-3500" />
<line class="line" x1="550.0" x2="550.0" y1="0" y2="-3500" />
<line class="line" x1="650.0" x2="650.0" y1="0" y2="-3500" />
<line class="line" x1="750.0" x2="750.0" y1="0" y2="-3500" />
<line class="line" x1="850.0" x2="850.0" y1="0" y2="-3500" />
<line class="line" x1="950.0" x2="950.0" y1="0" y2="-3500" />
<line class="line" x1="1050.0" x2="1050.0" y1="0" y2="-3500" />
<line class="line" x1="1150.0" x2="1150.0" y1="0" y2="-3500" />
<line class="line" x1="1250.0" x2="1250.0" y1="0" y2="-3500" />
<line class="line" x1="1350.0" x2="1350.0" y1="0" y2="-3500" />
<line class="line" x1="1450.0" x2="1450.0" y1="0" y2="-3500" />
<line class="line" x1="1550.0" x2="1550.0" y1="0" y2="-3500" />
<line class="line" x1="1650.0" x2="1650.0" y1="0" y2="-3500" />
<line class="line" x1="1750.0" x2="1750.0" y1="0" y2="-3500" />
<line class="line" x1="1850.0" x2="1850.0" y1="0" y2="-3500" />
<line class="line" x1="1950.0" x2="1950.0" y1="0" y2="-3500" />
<line class="line" x1="2050.0" x2="2050.0" y1="0" y2="-3500" />
<line class="line" x1="2150.0" x2="2150.0" y1="0" y2="-3500" />
<line class="line" x1="2250.0" x2="2250.0" y1="0" y2="-3500" />
<line class="line" x1="2350.0" x2="2350.0" y1="0" y2="-3500" />
<line class="line" x1="2450.0" x2="2450.0" y1="0" y2="-3500" />
<line class="line" x1="2550.0" x2="2550.0" y1="0" y2="-3500" />
<line class="line" x1="2650.0" x2="2650.0" y1="0" y2="-3500" />
<line class="line" x1="2750.0" x2="2750.0" y1="0" y2="-3500" />
<line class="line" x1="2850.0" x2="2850.0" y1="0" y2="-3500" />
<line class="line" x1="2950.0" x2="2950.0" y1="0" y2="-3500" />
<line class="line" x1="3050.0" x2="3050.0" y1="0" y2="-3500" />
<line class="line" x1="3150.0" x2="3150.0" y1="0" y2="-3500" />
<line class="line" x1="3250.0" x2="3250.0" y1="0" y2="-3500" />
<line class="line" x1="3350.0" x2="3350.0" y1="0" y2="-3500" />
<line class="line" x1="3450.0" x2="3450.0" y1="0" y2="-3500" />
<line class="line" x1="0" x2="3500" y1="50.0" y2="50.0" />
<line class="line" x1="0" x2="3500" y1="-50.0" y2="-50.0" />
<line class="line" x1="0" x2="3500" y1="-150.0" y2="-150.0" />
<line class="line" x1="0" x2="3500" y1="-250.0" y2="-250.0" />
<line class="line" x1="0" x2="3500" y1="-350.0" y2="-350.0" />
<line class="line" x1="0" x2="3500" y1="-450.0" y2="-450.0" />
<line class="line" x1="0" x2="3500" y1="-550.0" y2="-550.0" />
<line class="line" x1="0" x2="3500" y1="-650.0" y2="-650.0" />
<line class="line" x1="0" x2="3500" y1="-750.0" y2="-750.0" />
<line class="line" x1="0" x2="3500" y1="-850.0" y2="-850.0" />
<line class="line" x1="0" x2="3500" y1="-950.0" y2="-950.0" />
<line class="line" x1="0" x2="3500" y1="-1050.0" y2="-1050.0" />
<line class="line" x1="0" x2="3500" y1="-1150.0" y2="-1150.0" />
<line class="line" x1="0" x2="3500" y1="-1250.0" y2="-1250.0" />
<line class="line" x1="0" x2="3500" y1="-1350.0" y2="-1350.0" />
<line class="line" x1="0" x2="3500" y1="-1450.0" y2="-1450.0" />
<line class="line" x1="0" x2="3500" y1="-1550.0" y2="-1550.0" />
<line class="line" x1="0" x2="3500" y1="-1650.0" y2="-1650.0" />
<line class="line" x1="0" x2="3500" y1="-1750.0" y2="-1750.0" />
<line class="line" x1="0" x2="3500" y1="-1850.0" y2="-1850.0" />
<line class="line" x1="0" x2="3500" y1="-1950.0" y2="-1950.0" />
<line class="line" x1="0" x2="3500" y1="-2050.0" y2="-2050.0" />
<line class="line" x1="0" x2="3500" y1="-2150.0" y2="-2150.0" />
<line class="line" x1="0" x2="3500" y1="-2250.0" y2="-2250.0" />
<line class="line" x1="0" x2="3500" y1="-2350.0" y2="-2350.0" />
<line class="line" x1="0" x2="3500" y1="-2450.0" y2="-2450.0" />
<line class="line" x1="0" x2="3500" y1="-2550.0" y2="-2550.0" />
<line class="line" x1="0" x2="3500" y1="-2650.0" y2="-2650.0" />
<line class="line" x1="0" x2="3500" y1="-2750.0" y2="-2750.0" />
<line class="line" x1="0" x2="3500" y1="-2850.0" y2="-2850.0" />
<line class="line" x1="0" x2="3500" y1="-2950.0" y2="-2950.0" />
<line class="line" x1="0" x2="3500" y1="-3050.0" y2="-3050.0" />
<line class="line" x1="0" x2="3500" y1="-3150.0" y2="-3150.0" />
<line class="line" x1="0" x2="3500" y1="-3250.0" y2="-3250.0" />
<line class="line" x1="0" x2="3500" y1="-3350.0" y2="-3350.0" />
<line class="line" x1="0" x2="3500" y1="-3450.0" y2="-3450.0" />
<use href="#obstacle" x="65" y="-135" />
<use href="#obstacle" x="65" y="-235" />
<use href="#obstacle" x="65" y="-335" />
<use href="#obstacle" x="65" y="-435" />
<use href="#obstacle" x="65" y="-535" />
<use href="#obstacle" x="65" y="-635" />
<use href="#obstacle" x="65" y="-735" />
<use href="#obstacle" x="65" y="-835" />
<use href="#obstacle" x="65" y="-935" />
<use href="#obstacle" x="65" y="-1035" />
<use href="#obstacle" x="65" y="-1135" />
<use href="#obstacle" x="65" y="-1235" />
<use href="#obstacle" x="65" y="-1335" />
<use href="#obstacle" x="65" y="-1435" />
<use href="#obstacle" x="65" y="-1535" />
<use href="#obstacle" x="65" y="-1635" />
<use href="#obstacle" x="65" y="-1735" />
<use href="#obstacle" x="65" y="-1835" />
<use href="#obstacle" x="65" y="-1935" />
<use href="#obstacle" x="65" y="-2035" />
<use href="#obstacle" x="65" y="-2135" />
<use href="#obstacle" x="65" y="-2235" />
<use href="#obstacle" x="65" y="-2335" />
<use href="#obstacle" x="65" y="-2435" />
<use href="#obstacle" x="65" y="-2535" />
<use href="#obstacle" x="65" y="-2635" />
<use href="#obstacle" x="65" y="-2735" />
<use href="#obstacle" x="65" y="-2835" />
<use href="#obstacle" x="65" y="-2935" />
<use href="#obstacle" x="65" y="-3035" />
<use href="#obstacle" x="65" y="-3135" />
<use href="#obstacle" x="65" y="-3235" />
<use href="#obstacle" x="65" y="-3335" />
<use href="#obstacle" x="65" y="-3435" />
<use href="#obstacle" x="165" y="-135" />
<use href="#obstacle" x="165" y="-1135" />
<use href="#obstacle" x="165" y="-1535" />
<use href="#obstacle" x="165" y="-1735" />
<use href="#obstacle" x="165" y="-2835" />
<use href="#obstacle" x="165" y="-3135" />
<use href="#obstacle" x="165" y="-3435" />
<use href="#obstacle" x="265" y="-135" />
<use href="#obstacle" x="265" y="-335" />
<use href="#obstacle" x="265" y="-435" />
<use href="#obstacle" x="265" y="-535" />
<use href="#obstacle" x="265" y="-635" />
<use href="#obstacle" x="265" y="-835" />
<use href="#obstacle" x="265" y="-1335" />
<use href="#obstacle" x="265" y="-1435" />
<use href="#obstacle" x="265" y="-2135" />
<use href="#obstacle" x="265" y="-2235" />
<use href="#obstacle" x="265" y="-2435" />
<use href="#obstacle" x="265" y="-2535" />
<use href="#obstacle" x="265" y="-2635" />
<use href="#obstacle" x="265" y="-2735" />
<use href="#obstacle" x="265" y="-3135" />
<use href="#obstacle" x="265" y="-3335" />
<use href="#obstacle" x="265" y="-3435" />
<use href="#obstacle" x="365" y="-135" />
<use href="#obstacle" x="365" y="-1335" />
<use href="#obstacle" x="365" y="-1635" />
<use href="#obstacle" x="365" y="-1735" />
<use href="#obstacle" x="365" y="-1935" />
<use href="#obstacle" x="365" y="-2235" />
<use href="#obstacle" x="365" y="-2435" />
<use href="#obstacle" x="365" y="-2535" />
<use href="#obstacle" x="365" y="-2635" />
<use href="#obstacle" x="365" y="-2935" />
<use href="#obstacle" x="365" y="-3035" />
<use href="#obstacle" x="365" y="-3235" />
<use href="#obstacle" x="365" y="-3335" />
<use href="#obstacle" x="365" y="-3435" />
<use href="#obstacle" x="465" y="-135" />
<use href="#obstacle" x="465" y="-235" />
<use href="#obstacle" x="465" y="-535" />
<use href="#obstacle" x="465" y="-635" />
<use href="#obstacle" x="465" y="-735" />
<use href="#obstacle" x="465" y="-835" />
<use href="#obstacle" x="465" y="-1035" />
<use href="#obstacle" x="465" y="-1135" />
<use href="#obstacle" x="465" y="-1335" />
<use href="#obstacle" x="465" y="-1635" />
<use href="#obstacle" x="465" y="-1835" />
<use href="#obstacle" x="465" y="-1935" />
<use href="#obstacle" x="465" y="-2135" />
<use href="#obstacle" x="465" y="-2535" />
<use href="#obstacle" x="465" y="-2735" />
<use href="#obstacle" x="465" y="-3035" />
<use href="#obstacle" x="465" y="-3435" />
<use href="#obstacle" x="565" y="-135" />
<use href="#obstacle" x="565" y="-435" />
<use href="#obstacle" x="565" y="-1235" />
<use href="#obstacle" x="565" y="-1435" />
<use href="#obstacle" x="565" y="-1535" />
<use href="#obstacle" x="565" y="-1635" />
<use href="#obstacle" x="565" y="-2335" />
<use href="#obstacle" x="565" y="-3335" />
<use href="#obstacle" x="565" y="-3435" />
<use href="#obstacle" x="665" y="-135" />
<use href="#obstacle" x="665" y="-335" />
<use href="#obstacle" x="665" y="-535" />
<use href="#obstacle" x="665" y="-835" />
<use href="#obstacle" x="665" y="-1335" />
<use href="#obstacle" x="665" y="-1535" />
<use href="#obstacle" x="665" y="-2335" />
<use href="#obstacle" x="665" y="-2735" />
<use href="#obstacle" x="665" y="-3335" />
<use href="#obstacle" x="665" y="-3435" />
<use href="#obstacle" x="765" y="-135" />
<use href="#obstacle" x="765" y="-935" />
<use href="#obstacle" x="765" y="-1035" />
<use href="#obstacle" x="765" y="-1135" />
<use href="#obstacle" x="765" y="-1335" />
<use href="#obstacle" x="765" y="-1435" />
<use href="#obstacle" x="765" y="-1535" />
<use href="#obstacle" x="765" y="-1635" />
<use href="#obstacle" x="765" y="-1935" />
<use href="#obstacle" x="765" y="-2035" />
<use href="#obstacle" x="765" y="-2235" />
<use href="#obstacle" x="765" y="-2535" />
<use href="#obstacle" x="765" y="-3135" />
<use href="#obstacle" x="765" y="-3335" />
<use href="#obstacle" x="765" y="-3435" />
<use href="#obstacle" x="865" y="-135" />
<use href="#obstacle" x="865" y="-435" />
<use href="#obstacle" x="865" y="-1035" />
<use href="#obstacle" x="865" y="-1235" />
<use href="#obstacle" x="865" y="-1435" />
<use href="#obstacle" x="865" y="-2635" />
<use href="#obstacle" x="865" y="-3035" />
<use href="#obstacle" x="865" y="-3435" />
<use href="#obstacle" x="965" y="-135" />
<use href="#obstacle" x="965" y="-335" />
<use href="#obstacle" x="965" y="-435" />
<use href="#obstacle" x="965" y="-1235" />
<use href="#obstacle" x="965" y="-1335" />
<use href="#obstacle" x="965" y="-1835" />
<use href="#obstacle" x="965" y="-1935" />
<use href="#obstacle" x="965" y="-2535" />
<use href="#obstacle" x="965" y="-2835" />
<use href="#obstacle" x="965" y="-3335" />
<use href="#obstacle" x="965" y="-3435" />
<use href="#obstacle" x="1065" y="-135" />
<use href="#obstacle" x="1065" y="-435" />
<use href="#obstacle" x="1065" y="-535" />
<use href="#obstacle" x="1065" y="-635" />
<use href="#obstacle" x="1065" y="-1935" />
<use href="#obstacle" x="1065" y="-2335" />
<use href="#obstacle" x="1065" y="-2735" />
<use href="#obstacle" x="1065" y="-3335" />
<use href="#obstacle" x="1065" y="-3435" />
<use href="#obstacle" x="1165" y="-135" />
<use href="#obstacle" x="1165" y="-535" />
<use href="#obstacle" x="1165" y="-735" />
<use href="#obstacle" x="1165" y="-1135" />
<use href="#obstacle" x="1165" y="-2035" />
<use href="#obstacle" x="1165" y="-2835" />
<use href="#obstacle" x="1165" y="-3235" />
<use href="#obstacle" x="1165" y="-3335" />
<use href="#obstacle" x="1165" y="-3435" />
<use href="#obstacle" x="1265" y="-135" />
<use href="#obstacle" x="1265" y="-635" />
<use href="#obstacle" x="1265" y="-735" />
<use href="#obstacle" x="1265" y="-1135" />
<use href="#obstacle" x="1265" y="-2035" />
<use href="#obstacle" x="1265" y="-2235" />
<use href="#obstacle" x="1265" y="-2335" />
<use href="#obstacle" x="1265" y="-2635" />
<use href="#obstacle" x="1265" y="-3035" />
<use href="#obstacle" x="1265" y="-3135" />
<use href="#obstacle" x="1265" y="-3335" />
<use href="#obstacle" x="1265" y="-3435" />
<use href="#obstacle" x="1365" y="-135" />
<use href="#obstacle" x="1365" y="-435" />
<use href="#obstacle" x="1365" y="-535" />
<use href="#obstacle" x="1365" y="-835" />
<use href="#obstacle" x="1365" y="-1835" />
<use href="#obstacle" x="1365" y="-2035" />
<use href="#obstacle" x="1365" y="-2235" />
<use href="#obstacle" x="1365" y="-2335" />
<use href="#obstacle" x="1365" y="-2435" />
<use href="#obstacle" x="1365" y="-2735" />
<use href="#obstacle" x="1365" y="-2935" />
<use href="#obstacle" x="1365" y="-3435" />
<use href="#obstacle" x="1465" y="-135" />
<use href="#obstacle" x="1465" y="-335" />
<use href="#obstacle" x="1465" y="-535" />
<use href="#obstacle" x="1465" y="-1135" />
<use href="#obstacle" x="1465" y="-1235" />
<use href="#obstacle" x="1465" y="-1335" />
<use href="#obstacle" x="1465" y="-1535" />
<use href="#obstacle" x="1465" y="-1635" />
<use href="#obstacle" x="1465" y="-1735" />
<use href="#obstacle" x="1465" y="-1935" />
<use href="#obstacle" x="1465" y="-2035" />
<use href="#obstacle" x="1465" y="-2135" />
<use href="#obstacle" x="1465" y="-2735" />
<use href="#obstacle" x="1465" y="-2835" />
<use href="#obstacle" x="1465" y="-3435" />
<use href="#obstacle" x="1565" y="-135" />
<use href="#obstacle" x="1565" y="-1035" />
<use href="#obstacle" x="1565" y="-1535" />
<use href="#obstacle" x="1565" y="-1835" />
<use href="#obstacle" x="1565" y="-2035" />
<use href="#obstacle" x="1565" y="-2135" />
<use href="#obstacle" x="1565" y="-3135" />
<use href="#obstacle" x="1565" y="-3235" />
<use href="#obstacle" x="1565" y="-3335" />
<use href="#obstacle" x="1565" y="-3435" />
<use href="#obstacle" x="1665" y="-135" />
<use href="#obstacle" x="1665" y="-435" />
<use href="#obstacle" x="1665" y="-535" />
<use href="#obstacle" x="1665" y="-635" />
<use href="#obstacle" x="1665" y="-1235" />
<use href="#obstacle" x="1665" y="-1335" />
<use href="#obstacle" x="1665" y="-1435" />
<use href="#obstacle" x="1665" y="-1835" />
<use href="#obstacle" x="1665" y="-1935" />
<use href="#obstacle" x="1665" y="-2935" />
<use href="#obstacle" x="1665" y="-3135" />
<use href="#obstacle" x="1665" y="-3235" />
<use href="#obstacle" x="1665" y="-3335" />
<use href="#obstacle" x="1665" y="-3435" />
<use href="#obstacle" x="1765" y="-135" />
<use href="#obstacle" x="1765" y="-335" />
<use href="#obstacle" x="1765" y="-535" />
<use href="#obstacle" x="1765" y="-635" />
<use href="#obstacle" x="1765" y="-835" />
<use href="#obstacle" x="1765" y="-1035" />
<use href="#obstacle" x="1765" y="-1135" />
<use href="#obstacle" x="1765" y="-1535" />
<use href="#obstacle" x="1765" y="-1935" />
<use href="#obstacle" x="1765" y="-2135" />
<use href="#obstacle" x="1765" y="-2235" />
<use href="#obstacle" x="1765" y="-2535" />
<use href="#obstacle" x="1765" y="-2735" />
<use href="#obstacle" x="1765" y="-3235" />
<use href="#obstacle" x="1765" y="-3435" />
<use href="#obstacle" x="1865" y="-135" />
<use href="#obstacle" x="1865" y="-235" />
<use href="#obstacle" x="1865" y="-535" />
<use href="#obstacle" x="1865" y="-635" />
<use href="#obstacle" x="1865" y="-735" />
<use href="#obstacle" x="1865" y="-835" />
<use href="#obstacle" x="1865" y="-935" />
<use href="#obstacle" x="1865" y="-1835" />
<use href="#obstacle" x="1865" y="-1935" />
<use href="#obstacle" x="1865" y="-2035" />
<use href="#obstacle" x="1865" y="-2735" />
<use href="#obstacle" x="1865" y="-3435" />
<use href="#obstacle" x="1965" y="-135" />
<use href="#obstacle" x="1965" y="-435" />
<use href="#obstacle" x="1965" y="-735" />
<use href="#obstacle" x="1965" y="-835" />
<use href="#obstacle" x="1965" y="-1035" />
<use href="#obstacle" x="1965" y="-1135" />
<use href="#obstacle" x="1965" y="-1535" />
<use href="#obstacle" x="1965" y="-1735" />
<use href="#obstacle" x="1965" y="-2135" />
<use href="#obstacle" x="1965" y="-2435" />
<use href="#obstacle" x="1965" y="-2635" />
<use href="#obstacle" x="1965" y="-2835" />
<use href="#obstacle" x="1965" y="-2935" />
<use href="#obstacle" x="1965" y="-3035" />
<use href="#obstacle" x="1965" y="-3335" />
<use href="#obstacle" x="1965" y="-3435" />
<use href="#obstacle" x="2065" y="-135" />
<use href="#obstacle" x="2065" y="-235" />
<use href="#obstacle" x="2065" y="-335" />
<use href="#obstacle" x="2065" y="-535" />
<use href="#obstacle" x="2065" y="-735" />
<use href="#obstacle" x="2065" y="-835" />
<use href="#obstacle" x="2065" y="-2235" />
<use href="#obstacle" x="2065" y="-2735" />
<use href="#obstacle" x="2065" y="-3435" />
<use href="#obstacle" x="2165" y="-135" />
<use href="#obstacle" x="2165" y="-235" />
<use href="#obstacle" x="2165" y="-435" />
<use href="#obstacle" x="2165" y="-535" />
<use href="#obstacle" x="2165" y="-1035" />
<use href="#obstacle" x="2165" y="-1535" />
<use href="#obstacle" x="2165" y="-1835" />
<use href="#obstacle" x="2165" y="-1935" />
<use href="#obstacle" x="2165" y="-2135" />
<use href="#obstacle" x="2165" y="-2735" />
<use href="#obstacle" x="2165" y="-2835" />
<use href="#obstacle" x="2165" y="-2935" />
<use href="#obstacle" x="2165" y="-3335" />
<use href="#obstacle" x="2165" y="-3435" />
<use href="#obstacle" x="2265" y="-135" />
<use href="#obstacle" x="2265" y="-535" />
<use href="#obstacle" x="2265" y="-935" />
<use href="#obstacle" x="2265" y="-1035" />
<use href="#obstacle" x="2265" y="-1535" />
<use href="#obstacle" x="2265" y="-1735" />
<use href="#obstacle" x="2265" y="-1835" />
<use href="#obstacle" x="2265" y="-1935" />
<use href="#obstacle" x="2265" y="-2035" />
<use href="#obstacle" x="2265" y="-2235" />
<use href="#obstacle" x="2265" y="-3335" />
<use href="#obstacle" x="2265" y="-3435" />
<use href="#obstacle" x="2365" y="-135" />
<use href="#obstacle" x="2365" y="-635" />
<use href="#obstacle" x="2365" y="-1635" />
<use href="#obstacle" x="2365" y="-1735" />
<use href="#obstacle" x="2365" y="-2035" />
<use href="#obstacle" x="2365" y="-2235" />
<use href="#obstacle" x="2365" y="-2335" />
<use href="#obstacle" x="2365" y="-2935" />
<use href="#obstacle" x="2365" y="-3435" />
<use href="#obstacle" x="2465" y="-135" />
<use href="#obstacle" x="2465" y="-535" />
<use href="#obstacle" x="2465" y="-635" />
<use href="#obstacle" x="2465" y="-1035" />
<use href="#obstacle" x="2465" y="-1535" />
<use href="#obstacle" x="2465" y="-1735" />
<use href="#obstacle" x="2465" y="-2035" />
<use href="#obstacle" x="2465" y="-2535" />
<use href="#obstacle" x="2465" y="-2635" />
<use href="#obstacle" x="2465" y="-2835" />
<use href="#obstacle" x="2465" y="-3435" />
<use href="#obstacle" x="2565" y="-135" />
<use href="#obstacle" x="2565" y="-235" />
<use href="#obstacle" x="2565" y="-335" />
<use href="#obstacle" x="2565" y="-535" />
<use href="#obstacle" x="2565" y="-635" />
<use href="#obstacle" x="2565" y="-835" />
<use href="#obstacle" x="2565" y="-1035" />
<use href="#obstacle" x="2565" y="-1135" />
<use href="#obstacle" x="2565" y="-1435" />
<use href="#obstacle" x="2565" y="-1535" />
<use href="#obstacle" x="2565" y="-1635" />
<use href="#obstacle" x="2565" y="-2535" />
<use href="#obstacle" x="2565" y="-3435" />
<use href="#obstacle" x="2665" y="-135" />
<use href="#obstacle" x="2665" y="-235" />
<use href="#obstacle" x="2665" y="-635" />
<use href="#obstacle" x="2665" y="-935" />
<use href="#obstacle" x="2665" y="-1335" />
<use href="#obstacle" x="2665" y="-1635" />
<use href="#obstacle" x="2665" y="-2735" />
<use href="#obstacle" x="2665" y="-2935" />
<use href="#obstacle" x="2665" y="-3235" />
<use href="#obstacle" x="2665" y="-3435" />
<use href="#obstacle" x="2765" y="-135" />
<use href="#obstacle" x="2765" y="-235" />
<use href="#obstacle" x="2765" y="-1735" />
<use href="#obstacle" x="2765" y="-1835" />
<use href="#obstacle" x="2765" y="-2035" />
<use href="#obstacle" x="2765" y="-2135" />
<use href="#obstacle" x="2765" y="-2235" />
<use href="#obstacle" x="2765" y="-2435" />
<use href="#obstacle" x="2765" y="-2535" />
<use href="#obstacle" x="2765" y="-2935" />
<use href="#obstacle" x="2765" y="-3035" />
<use href="#obstacle" x="2765" y="-3435" />
<use href="#obstacle" x="2865" y="-135" />
<use href="#obstacle" x="2865" y="-235" />
<use href="#obstacle" x="2865" y="-1435" />
<use href="#obstacle" x="2865" y="-1635" />
<use href="#obstacle" x="2865" y="-2035" />
<use href="#obstacle" x="2865" y="-2335" />
<use href="#obstacle" x="2865" y="-2935" />
<use href="#obstacle" x="2865" y="-3035" />
<use href="#obstacle" x="2865" y="-3135" />
<use href="#obstacle" x="2865" y="-3335" />
<use href="#obstacle" x="2865" y="-3435" />
<use href="#obstacle" x="2965" y="-135" />
<use href="#obstacle" x="2965" y="-235" />
<use href="#obstacle" x="2965" y="-535" />
<use href="#obstacle" x="2965" y="-735" />
<use href="#obstacle" x="2965" y="-1935" />
<use href="#obstacle" x="2965" y="-2435" />
<use href="#obstacle" x="2965" y="-3235" />
<use href="#obstacle" x="2965" y="-3435" />
<use href="#obstacle" x="3065" y="-135" />
<use href="#obstacle" x="3065" y="-535" />
<use href="#obstacle" x="3065" y="-735" />
<use href="#obstacle" x="3065" y="-1335" />
<use href="#obstacle" x="3065" y="-1935" />
<use href="#obstacle" x="3065" y="-2135" />
<use href="#obstacle" x="3065" y="-2535" />
<use href="#obstacle" x="3065" y="-3435" />
<use href="#obstacle" x="3165" y="-135" />
<use href="#obstacle" x="3165" y="-735" />
<use href="#obstacle" x="3165" y="-835" />
<use href="#obstacle" x="3165" y="-1135" />
<use href="#obstacle" x="3165" y="-1235" />
<use href="#obstacle" x="3165" y="-1635" />
<use href="#obstacle" x="3165" y="-1935" />
<use href="#obstacle" x="3165" y="-2835" />
<use href="#obstacle" x="3165" y="-3235" />
<use href="#obstacle" x="3165" y="-3435" />
<use href="#obstacle" x="3265" y="-135" />
<use href="#obstacle" x="3265" y="-535" />
<use href="#obstacle" x="3265" y="-1335" />
<use href="#obstacle" x="3265" y="-1435" />
<use href="#obstacle" x="3265" y="-1635" />
<use href="#obstacle" x="3265" y="-1735" />
<use href="#obstacle" x="3265" y="-2635" />
<use href="#obstacle" x="3265" y="-3235" />
<use href="#obstacle" x="3265" y="-3435" />
<use href="#obstacle" x="3365" y="-135" />
<use href="#obstacle" x="3365" y="-235" />
<use href="#obstacle" x="3365" y="-335" />
<use href="#obstacle" x="3365" y="-435" />
<use href="#obstacle" x="3365" y="-535" />
<use href="#obstacle" x="3365" y="-635" />
<use href="#obstacle" x="3365" y="-735" />
<use href="#obstacle" x="3365" y="-835" />
<use href="#obstacle" x="3365" y="-935" />
<use href="#obstacle" x="3365" y="-1035" />
<use href="#obstacle" x="3365" y="-1135" />
<use href="#obstacle" x="3365" y="-1235" />
<use href="#obstacle" x="3365" y="-1335" />
<use href="#obstacle" x="3365" y="-1435" />
<use href="#obstacle" x="3365" y="-1535" />
<use href="#obstacle" x="3365" y="-1635" />
<use href="#obstacle" x="3365" y="-1735" />
<use href="#obstacle" x="3365" y="-1835" />
<use href="#obstacle" x="3365" y="-1935" />
<use href="#obstacle" x="3365" y="-2035" />
<use href="#obstacle" x="3365" y="-2135" />
<use href="#obstacle" x="3365" y="-2235" />
<use href="#obstacle" x="3365" y="-2335" />
<use href="#obstacle" x="3365" y="-2435" />
<use href="#obstacle" x="3365" y="-2535" />
<use href="#obstacle" x="3365" y="-2635" />
<use href="#obstacle" x="3365" y="-2735" />
<use href="#obstacle" x="3365" y="-2835" />
<use href="#obstacle" x="3365" y="-2935" />
<use href="#obstacle" x="3365" y="-3035" />
<use href="#obstacle" x="3365" y="-3135" />
<use href="#obstacle" x="3365" y="-3235" />
<use href="#obstacle" x="3365" y="-3335" />
<use href="#obstacle" x="3365" y="-3435" />
<circle class="agent" cx="1700" cy="-2400" fill="#c1433c" r="35"> <animate attributeName="cy" dur="33.5s" keyTimes="0.0;0.0074074074;0.0148148148;0.0222222222;0.0296296296;0.0444444444;0.0518518519;0.0666666667;0.0740740741;0.0814814815;0.0888888889;0.1185185185;0.1259259259;0.1407407407;0.1481481481;0.1555555556;0.162962963;1.0" repeatCount="indefinite" values="-2400;-2400;-2300;-2200;-2100;-2100;-2200;-2200;-2300;-2400;-2500;-2500;-2400;-2400;-2300;-2200;-2100;-2100"/>
<animate attributeName="cx" dur="33.5s" keyTimes="0.0;0.0074074074;0.0518518519;0.0592592593;0.0666666667;0.0888888889;0.0962962963;0.1037037037;0.1111111111;0.1185185185;0.1259259259;0.1333333333;0.1407407407;0.162962963;0.1703703704;0.1777777778;0.1851851852;1.0" repeatCount="indefinite" values="1700;1700;1700;1600;1500;1500;1400;1300;1200;1100;1100;1000;900;900;800;700;600;600"/>
<animate attributeName="visibility" dur="33.5s" keyTimes="0.0;0.0074074074;1.0" repeatCount="indefinite" values="visible;visible;visible"/> </circle>
<circle class="agent" cx="800" cy="-200" fill="#2e6f9e" r="35"> <animate attributeName="cy" dur="33.5s" keyTimes="0.0;0.0074074074;0.0148148148;0.0222222222;0.0296296296;0.037037037;0.0444444444;0.0518518519;0.0592592593;0.0666666667;0.0740740741;0.0814814815;0.0888888889;0.0962962963;0.1037037037;0.1111111111;0.1185185185;0.1259259259;0.1333333333;0.1407407407;0.1555555556;0.162962963;0.1703703704;0.1777777778;0.1851851852;0.1925925926;0.2;0.2074074074;0.2222222222;0.2296296296;0.2518518519;0.2592592593;0.2740740741;0.2814814815;0.2888888889;0.2962962963;0.3037037037;0.3185185185;0.3259259259;1.0" repeatCount="indefinite" values="-200;-200;-300;-400;-500;-600;-700;-800;-800;-900;-900;-1000;-1100;-1100;-1200;-1300;-1400;-1500;-1600;-1700;-1700;-1800;-1900;-2000;-2100;-2200;-2300;-2400;-2400;-2500;-2500;-2600;-2600;-2700;-2800;-2900;-3000;-3000;-3100;-3100"/>
<animate attributeName="cx" dur="33.5s" keyTimes="0.0;0.0074074074;0.0518518519;0.0592592593;0.0666666667;0.0740740741;0.0888888889;0.0962962963;0.1407407407;0.1481481481;0.1555555556;0.2074074074;0.2148148148;0.2222222222;0.2296296296;0.237037037;0.2444444444;0.2518518519;0.2592592593;0.2666666667;0.2740740741;0.3037037037;0.3111111111;0.3185185185;0.3259259259;0.3333333333;0.3407407407;0.3481481481;0.3555555556;0.362962963;0.3703703704;0.3777777778;1.0" repeatCount="indefinite" values="800;800;800;900;900;1000;1000;1100;1100;1000;900;900;1000;1100;1100;1200;1300;1400;1400;1500;1600;1600;1700;1800;1800;1900;2000;2100;2200;2300;2400;2500;2500"/>
<animate attributeName="visibility" dur="33.5s" keyTimes="0.0;0.0074074074;1.0" repeatCount="indefinite" values="visible;visible;visible"/> </circle>
<circle class="agent" cx="3100" cy="-2900" fill="#6e81af" r="35"> <animate attributeName="cy" dur="33.5s" keyTimes="0.0;0.0074074074;0.0148148148;0.0222222222;0.0518518519;0.0592592593;0.0814814815;0.0888888889;0.1037037037;0.1111111111;0.1185185185;0.1481481481;0.1555555556;0.162962963;0.1703703704;0.1777777778;0.1851851852;0.1925925926;0.2148148148;0.2222222222;0.237037037;0.2444444444;0.2518518519;0.2592592593;0.2740740741;0.2814814815;0.2888888889;0.2962962963;0.3259259259;0.3333333333;0.3407407407;0.3481481481;0.3555555556;0.3703703704;0.3777777778;0.3851851852;0.3925925926;0.4296296296;0.437037037;0.4444444444;0.4518518519;0.4592592593;0.4666666667;0.4740740741;0.4814814815;0.4888888889;0.4962962963;0.5111111111;0.5185185185;0.5259259259;0.5333333333;0.5407407407;0.5481481481;0.5703703704;0.5777777778;0.5851851852;0.5925925926;0.6;0.6074074074;0.6148148148;0.6444444444;0.6518518519;0.6814814815;0.6888888889;0.7037037037;0.7111111111;0.7259259259;0.7333333333;0.7407407407;0.7481481481;0.7555555556;0.762962963;0.7703703704;0.7777777778;0.7925925926;0.8;0.8074074074;0.8148148148;0.8222222222;0.8296296296;0.837037037;0.8444444444;0.8518518519;0.8592592593;0.8666666667;0.8740740741;0.8814814815;0.9111111111;0.9185185185;0.9259259259;0.9333333333;0.9407407407;0.9481481481;0.9555555556;0.962962963;0.9703703704;0.9777777778;0.9851851852;1.0" repeatCount="indefinite" values="-2900;-2900;-2900;-2800;-2800;-2700;-2700;-2600;-2600;-2500;-2400;-2400;-2300;-2200;-2100;-2100;-2000;-1900;-1900;-1800;-1800;-1700;-1600;-1500;-1500;-1400;-1300;-1200;-1200;-1100;-1000;-900;-800;-800;-900;-800;-700;-700;-800;-800;-900;-1000;-1100;-1200;-1300;-1400;-1500;-1500;-1600;-1700;-1700;-1800;-1900;-1900;-2000;-2100;-2100;-2200;-2300;-2400;-2400;-2300;-2300;-2400;-2400;-2500;-2500;-2400;-2400;-2300;-2200;-2100;-2100;-2000;-2000;-1900;-1800;-1700;-1600;-1600;-1500;-1500;-1400;-1300;-1200;-1100;-1000;-1000;-900;-800;-700;-700;-600;-500;-400;-300;-300;-200;-200"/>
<animate attributeName="cx" dur="33.5s" keyTimes="0.0;0.0074074074;0.0148148148;0.0222222222;0.0296296296;0.037037037;0.0444444444;0.0518518519;0.0592592593;0.0666666667;0.0740740741;0.0814814815;0.0888888889;0.0962962963;0.1037037037;0.1185185185;0.1259259259;0.1333333333;0.1407407407;0.1481481481;0.1703703704;0.1777777778;0.1925925926;0.2;0.2074074074;0.2148148148;0.2296296296;0.237037037;0.2592592593;0.2666666667;0.2740740741;0.2962962963;0.3037037037;0.3111111111;0.3185185185;0.3259259259;0.3555555556;0.362962963;0.3703703704;0.3925925926;0.4;0.4074074074;0.4148148148;0.4222222222;0.4296296296;0.437037037;0.4444444444;0.4962962963;0.5037037037;0.5111111111;0.5259259259;0.5333333333;0.5481481481;0.5555555556;0.562962963;0.5703703704;0.5851851852;0.5925925926;0.6148148148;0.6222222222;0.6296296296;0.637037037;0.6444444444;0.6518518519;0.6592592593;0.6666666667;0.6740740741;0.6814814815;0.6888888889;0.6962962963;0.7037037037;0.7111111111;0.7185185185;0.7259259259;0.7333333333;0.7407407407;0.762962963;0.7703703704;0.7777777778;0.7851851852;0.7925925926;0.8222222222;0.8296296296;0.837037037;0.8444444444;0.8814814815;0.8888888889;0.8962962963;0.9037037037;0.9111111111;0.9333333333;0.9407407407;0.9703703704;0.9777777778;0.9851851852;0.9925925926;1.0" repeatCount="indefinite" values="3100;3100;3000;3000;2900;2800;2700;2600;2600;2500;2400;2300;2300;2200;2100;2100;2200;2300;2400;2500;2500;2600;2600;2700;2800;2900;2900;3000;3000;2900;2800;2800;2700;2600;2500;2400;2400;2300;2200;2200;2300;2400;2500;2600;2700;2700;2800;2800;2900;3000;3000;2900;2900;2800;2700;2600;2600;2500;2500;2400;2300;2200;2100;2100;2000;1900;1800;1700;1700;1600;1500;1500;1400;1300;1300;1200;1200;1100;1100;1000;900;900;1000;1000;1100;1100;1200;1300;1400;1500;1500;1600;1600;1700;1700;1800;1800"/>
<animate attributeName="visibility" dur="33.5s" keyTimes="0.0;0.0074074074;1.0" repeatCount="indefinite" values="visible;visible;visible"/> </circle>
<circle class="agent" cx="2600" cy="-1200" fill="#00b9c8" r="35"> <animate attributeName="cy" dur="33.5s" keyTimes="0.0;0.0074074074;0.037037037;0.0444444444;0.0518518519;0.0592592593;0.0666666667;0.0740740741;0.0814814815;0.0888888889;0.0962962963;0.1037037037;0.1555555556;0.162962963;0.1703703704;0.1777777778;0.1925925926;0.2;0.2074074074;0.237037037;0.2444444444;0.2518518519;0.2740740741;0.2814814815;0.2888888889;0.2962962963;0.3037037037;0.3111111111;0.3185185185;0.3481481481;0.3555555556;0.3703703704;0.3777777778;0.4148148148;0.4222222222;0.437037037;0.4444444444;0.4518518519;0.4592592593;0.4666666667;0.4740740741;0.4814814815;0.4962962963;0.5037037037;0.5111111111;0.5185185185;1.0" repeatCount="indefinite" values="-1200;-1200;-1200;-1300;-1300;-1400;-1500;-1400;-1300;-1200;-1100;-1200;-1200;-1300;-1400;-1500;-1500;-1600;-1700;-1700;-1800;-1900;-1900;-2000;-2100;-2100;-2200;-2300;-2400;-2400;-2500;-2500;-2600;-2600;-2500;-2500;-2400;-2300;-2200;-2200;-2100;-2000;-2000;-1900;-1800;-1700;-1700"/>
<animate attributeName="cx" dur="33.5s" keyTimes="0.0;0.0074074074;0.0148148148;0.0222222222;0.0296296296;0.037037037;0.0444444444;0.0518518519;0.1037037037;0.1111111111;0.1185185185;0.1259259259;0.1333333333;0.1407407407;0.1481481481;0.1555555556;0.1777777778;0.1851851852;0.1925925926;0.2074074074;0.2148148148;0.2222222222;0.2296296296;0.237037037;0.2518518519;0.2592592593;0.2666666667;0.2740740741;0.2888888889;0.2962962963;0.3185185185;0.3259259259;0.3333333333;0.3407407407;0.3481481481;0.3555555556;0.362962963;0.3703703704;0.3777777778;0.3851851852;0.3925925926;0.4;0.4074074074;0.4148148148;0.4222222222;0.4296296296;0.437037037;0.4592592593;0.4666666667;0.4814814815;0.4888888889;0.4962962963;0.5185185185;0.5259259259;0.5333333333;1.0" repeatCount="indefinite" values="2600;2600;2500;2400;2300;2200;2200;2100;2100;2200;2300;2400;2500;2600;2700;2800;2800;2900;3000;3000;2900;2900;3000;2900;2900;2800;2700;2600;2600;2500;2500;2400;2300;2200;2100;2100;2000;1900;1900;1800;1700;1600;1500;1400;1400;1300;1200;1200;1100;1100;1000;900;900;1000;1100;1100"/>
<animate attributeName="visibility" dur="33.5s" keyTimes="0.0;0.0074074074;1.0" repeatCount="indefinite" values="visible;visible;visible"/> </circle>
<circle class="target" cx="600" cy="-2100" r="35" stroke="#c1433c"> <animate attributeName="visibility" dur="33.5s" keyTimes="0.0;0.0074074074;1.0" repeatCount="indefinite" values="visible;visible;visible"/> </circle>
<circle class="target" cx="2500" cy="-3100" r="35" stroke="#2e6f9e"> <animate attributeName="visibility" dur="33.5s" keyTimes="0.0;0.0074074074;1.0" repeatCount="indefinite" values="visible;visible;visible"/> </circle>
<circle class="target" cx="1800" cy="-200" r="35" stroke="#6e81af"> <animate attributeName="visibility" dur="33.5s" keyTimes="0.0;0.0074074074;1.0" repeatCount="indefinite" values="visible;visible;visible"/> </circle>
<circle class="target" cx="1100" cy="-1700" r="35" stroke="#00b9c8"> <animate attributeName="visibility" dur="33.5s" keyTimes="0.0;0.0074074074;1.0" repeatCount="indefinite" values="visible;visible;visible"/> </circle>
</svg>