<?xml version="1.0" encoding="UTF-8"?>
        <svg xmlns="http://www.w3.org/2000/svg" xmlns:xlink="http://www.w3.org/1999/xlink"
             width="430" height="430" viewBox="0 -4300 4300 4300">

<defs>

</defs>

<rect fill="#84A1AE" height="70" rx="15" width="70" x="465" y="-535" />
<rect fill="#84A1AE" height="70" rx="15" width="70" x="465" y="-635" />
<rect fill="#84A1AE" height="70" rx="15" width="70" x="465" y="-735" />
<rect fill="#84A1AE" height="70" rx="15" width="70" x="465" y="-835" />
<rect fill="#84A1AE" height="70" rx="15" width="70" x="465" y="-935" />
<rect fill="#84A1AE" height="70" rx="15" width="70" x="465" y="-1035" />
<rect fill="#84A1AE" height="70" rx="15" width="70" x="465" y="-1135" />
<rect fill="#84A1AE" height="70" rx="15" width="70" x="465" y="-1235" />
<rect fill="#84A1AE" height="70" rx="15" width="70" x="465" y="-1335" />
<rect fill="#84A1AE" height="70" rx="15" width="70" x="465" y="-1435" />
<rect fill="#84A1AE" height="70" rx="15" width="70" x="465" y="-1535" />
<rect fill="#84A1AE" height="70" rx="15" width="70" x="465" y="-1635" />
<rect fill="#84A1AE" height="70" rx="15" width="70" x="465" y="-1735" />
<rect fill="#84A1AE" height="70" rx="15" width="70" x="465" y="-1835" />
<rect fill="#84A1AE" height="70" rx="15" width="70" x="465" y="-1935" />
<rect fill="#84A1AE" height="70" rx="15" width="70" x="465" y="-2035" />
<rect fill="#84A1AE" height="70" rx="15" width="70" x="465" y="-2135" />
<rect fill="#84A1AE" height="70" rx="15" width="70" x="465" y="-2235" />
<rect fill="#84A1AE" height="70" rx="15" width="70" x="465" y="-2335" />
<rect fill="#84A1AE" height="70" rx="15" width="70" x="465" y="-2435" />
<rect fill="#84A1AE" height="70" rx="15" width="70" x="465" y="-2535" />
<rect fill="#84A1AE" height="70" rx="15" width="70" x="465" y="-2635" />
<rect fill="#84A1AE" height="70" rx="15" width="70" x="465" y="-2735" />
<rect fill="#84A1AE" height="70" rx="15" width="70" x="465" y="-2835" />
<rect fill="#84A1AE" height="70" rx="15" width="70" x="465" y="-2935" />
<rect fill="#84A1AE" height="70" rx="15" width="70" x="465" y="-3035" />
<rect fill="#84A1AE" height="70" rx="15" width="70" x="465" y="-3135" />
<rect fill="#84A1AE" height="70" rx="15" width="70" x="465" y="-3235" />
<rect fill="#84A1AE" height="70" rx="15" width="70" x="465" y="-3335" />
<rect fill="#84A1AE" height="70" rx="15" width="70" x="465" y="-3435" />
<rect fill="#84A1AE" height="70" rx="15" width="70" x="465" y="-3535" />
<rect fill="#84A1AE" height="70" rx="15" width="70" x="465" y="-3635" />
<rect fill="#84A1AE" height="70" rx="15" width="70" x="465" y="-3735" />
<rect fill="#84A1AE" height="70" rx="15" width="70" x="465" y="-3835" />
<rect fill="#84A1AE" height="70" rx="15" width="70" x="565" y="-535" />
<rect fill="#84A1AE" height="70" rx="15" width="70" x="565" y="-1635" />
<rect fill="#84A1AE" height="70" rx="15" width="70" x="565" y="-1935" />
<rect fill="#84A1AE" height="70" rx="15" width="70" x="565" y="-2735" />
<rect fill="#84A1AE" height="70" rx="15" width="70" x="565" y="-3835" />
<rect fill="#84A1AE" height="70" rx="15" width="70" x="665" y="-535" />
<rect fill="#84A1AE" height="70" rx="15" width="70" x="665" y="-1035" />
<rect fill="#84A1AE" height="70" rx="15" width="70" x="665" y="-2535" />
<rect fill="#84A1AE" height="70" rx="15" width="70" x="665" y="-3035" />
<rect fill="#84A1AE" height="70" rx="15" width="70" x="665" y="-3235" />
<rect fill="#84A1AE" height="70" rx="15" width="70" x="665" y="-3835" />
<rect fill="#84A1AE" height="70" rx="15" width="70" x="765" y="-535" />
<rect fill="#84A1AE" height="70" rx="15" width="70" x="765" y="-635" />
<rect fill="#84A1AE" height="70" rx="15" width="70" x="765" y="-3835" />
<rect fill="#84A1AE" height="70" rx="15" width="70" x="865" y="-535" />
<rect fill="#84A1AE" height="70" rx="15" width="70" x="865" y="-2435" />
<rect fill="#84A1AE" height="70" rx="15" width="70" x="865" y="-2535" />
<rect fill="#84A1AE" height="70" rx="15" width="70" x="865" y="-3335" />
<rect fill="#84A1AE" height="70" rx="15" width="70" x="865" y="-3435" />
<rect fill="#84A1AE" height="70" rx="15" width="70" x="865" y="-3835" />
<rect fill="#84A1AE" height="70" rx="15" width="70" x="965" y="-535" />
<rect fill="#84A1AE" height="70" rx="15" width="70" x="965" y="-735" />
<rect fill="#84A1AE" height="70" rx="15" width="70" x="965" y="-1635" />
<rect fill="#84A1AE" height="70" rx="15" width="70" x="965" y="-1835" />
<rect fill="#84A1AE" height="70" rx="15" width="70" x="965" y="-2835" />
<rect fill="#84A1AE" height="70" rx="15" width="70" x="965" y="-3435" />
<rect fill="#84A1AE" height="70" rx="15" width="70" x="965" y="-3835" />
<rect fill="#84A1AE" height="70" rx="15" width="70" x="1065" y="-535" />
<rect fill="#84A1AE" height="70" rx="15" width="70" x="1065" y="-1135" />
<rect fill="#84A1AE" height="70" rx="15" width="70" x="1065" y="-1835" />
<rect fill="#84A1AE" height="70" rx="15" width="70" x="1065" y="-3735" />
<rect fill="#84A1AE" height="70" rx="15" width="70" x="1065" y="-3835" />
<rect fill="#84A1AE" height="70" rx="15" width="70" x="1165" y="-535" />
<rect fill="#84A1AE" height="70" rx="15" width="70" x="1165" y="-635" />
<rect fill="#84A1AE" height="70" rx="15" width="70" x="1165" y="-735" />
<rect fill="#84A1AE" height="70" rx="15" width="70" x="1165" y="-1535" />
<rect fill="#84A1AE" height="70" rx="15" width="70" x="1165" y="-3835" />
<rect fill="#84A1AE" height="70" rx="15" width="70" x="1265" y="-535" />
<rect fill="#84A1AE" height="70" rx="15" width="70" x="1265" y="-2835" />
<rect fill="#84A1AE" height="70" rx="15" width="70" x="1265" y="-3435" />
<rect fill="#84A1AE" height="70" rx="15" width="70" x="1265" y="-3835" />
<rect fill="#84A1AE" height="70" rx="15" width="70" x="1365" y="-535" />
<rect fill="#84A1AE" height="70" rx="15" width="70" x="1365" y="-835" />
<rect fill="#84A1AE" height="70" rx="15" width="70" x="1365" y="-935" />
<rect fill="#84A1AE" height="70" rx="15" width="70" x="1365" y="-1035" />
<rect fill="#84A1AE" height="70" rx="15" width="70" x="1365" y="-1935" />
<rect fill="#84A1AE" height="70" rx="15" width="70" x="1365" y="-2335" />
<rect fill="#84A1AE" height="70" rx="15" width="70" x="1365" y="-2635" />
<rect fill="#84A1AE" height="70" rx="15" width="70" x="1365" y="-2835" />
<rect fill="#84A1AE" height="70" rx="15" width="70" x="1365" y="-2935" />
<rect fill="#84A1AE" height="70" rx="15" width="70" x="1365" y="-3035" />
<rect fill="#84A1AE" height="70" rx="15" width="70" x="1365" y="-3335" />
<rect fill="#84A1AE" height="70" rx="15" width="70" x="1365" y="-3835" />
<rect fill="#84A1AE" height="70" rx="15" width="70" x="1465" y="-535" />
<rect fill="#84A1AE" height="70" rx="15" width="70" x="1465" y="-1235" />
<rect fill="#84A1AE" height="70" rx="15" width="70" x="1465" y="-1535" />
<rect fill="#84A1AE" height="70" rx="15" width="70" x="1465" y="-2035" />
<rect fill="#84A1AE" height="70" rx="15" width="70" x="1465" y="-3135" />
<rect fill="#84A1AE" height="70" rx="15" width="70" x="1465" y="-3235" />
<rect fill="#84A1AE" height="70" rx="15" width="70" x="1465" y="-3835" />
<rect fill="#84A1AE" height="70" rx="15" width="70" x="1565" y="-535" />
<rect fill="#84A1AE" height="70" rx="15" width="70" x="1565" y="-3035" />
<rect fill="#84A1AE" height="70" rx="15" width="70" x="1565" y="-3835" />
<rect fill="#84A1AE" height="70" rx="15" width="70" x="1665" y="-535" />
<rect fill="#84A1AE" height="70" rx="15" width="70" x="1665" y="-3735" />
<rect fill="#84A1AE" height="70" rx="15" width="70" x="1665" y="-3835" />
<rect fill="#84A1AE" height="70" rx="15" width="70" x="1765" y="-535" />
<rect fill="#84A1AE" height="70" rx="15" width="70" x="1765" y="-1235" />
<rect fill="#84A1AE" height="70" rx="15" width="70" x="1765" y="-3835" />
<rect fill="#84A1AE" height="70" rx="15" width="70" x="1865" y="-535" />
<rect fill="#84A1AE" height="70" rx="15" width="70" x="1865" y="-735" />
<rect fill="#84A1AE" height="70" rx="15" width="70" x="1865" y="-1335" />
<rect fill="#84A1AE" height="70" rx="15" width="70" x="1865" y="-3235" />
<rect fill="#84A1AE" height="70" rx="15" width="70" x="1865" y="-3435" />
<rect fill="#84A1AE" height="70" rx="15" width="70" x="1865" y="-3835" />
<rect fill="#84A1AE" height="70" rx="15" width="70" x="1965" y="-535" />
<rect fill="#84A1AE" height="70" rx="15" width="70" x="1965" y="-635" />
<rect fill="#84A1AE" height="70" rx="15" width="70" x="1965" y="-1835" />
<rect fill="#84A1AE" height="70" rx="15" width="70" x="1965" y="-1935" />
<rect fill="#84A1AE" height="70" rx="15" width="70" x="1965" y="-2135" />
<rect fill="#84A1AE" height="70" rx="15" width="70" x="1965" y="-2335" />
<rect fill="#84A1AE" height="70" rx="15" width="70" x="1965" y="-2435" />
<rect fill="#84A1AE" height="70" rx="15" width="70" x="1965" y="-3335" />
<rect fill="#84A1AE" height="70" rx="15" width="70" x="1965" y="-3835" />
<rect fill="#84A1AE" height="70" rx="15" width="70" x="2065" y="-535" />
<rect fill="#84A1AE" height="70" rx="15" width="70" x="2065" y="-1535" />
<rect fill="#84A1AE" height="70" rx="15" width="70" x="2065" y="-1635" />
<rect fill="#84A1AE" height="70" rx="15" width="70" x="2065" y="-2135" />
<rect fill="#84A1AE" height="70" rx="15" width="70" x="2065" y="-3835" />
<rect fill="#84A1AE" height="70" rx="15" width="70" x="2165" y="-535" />
<rect fill="#84A1AE" height="70" rx="15" width="70" x="2165" y="-935" />
<rect fill="#84A1AE" height="70" rx="15" width="70" x="2165" y="-1335" />
<rect fill="#84A1AE" height="70" rx="15" width="70" x="2165" y="-1835" />
<rect fill="#84A1AE" height="70" rx="15" width="70" x="2165" y="-3835" />
<rect fill="#84A1AE" height="70" rx="15" width="70" x="2265" y="-535" />
<rect fill="#84A1AE" height="70" rx="15" width="70" x="2265" y="-935" />
<rect fill="#84A1AE" height="70" rx="15" width="70" x="2265" y="-1135" />
<rect fill="#84A1AE" height="70" rx="15" width="70" x="2265" y="-2535" />
<rect fill="#84A1AE" height="70" rx="15" width="70" x="2265" y="-3235" />
<rect fill="#84A1AE" height="70" rx="15" width="70" x="2265" y="-3835" />
<rect fill="#84A1AE" height="70" rx="15" width="70" x="2365" y="-535" />
<rect fill="#84A1AE" height="70" rx="15" width="70" x="2365" y="-935" />
<rect fill="#84A1AE" height="70" rx="15" width="70" x="2365" y="-1035" />
<rect fill="#84A1AE" height="70" rx="15" width="70" x="2365" y="-3835" />
<rect fill="#84A1AE" height="70" rx="15" width="70" x="2465" y="-535" />
<rect fill="#84A1AE" height="70" rx="15" width="70" x="2465" y="-935" />
<rect fill="#84A1AE" height="70" rx="15" width="70" x="2465" y="-1535" />
<rect fill="#84A1AE" height="70" rx="15" width="70" x="2465" y="-2335" />
<rect fill="#84A1AE" height="70" rx="15" width="70" x="2465" y="-2735" />
<rect fill="#84A1AE" height="70" rx="15" width="70" x="2465" y="-3835" />
<rect fill="#84A1AE" height="70" rx="15" width="70" x="2565" y="-535" />
<rect fill="#84A1AE" height="70" rx="15" width="70" x="2565" y="-735" />
<rect fill="#84A1AE" height="70" rx="15" width="70" x="2565" y="-2535" />
<rect fill="#84A1AE" height="70" rx="15" width="70" x="2565" y="-3835" />
<rect fill="#84A1AE" height="70" rx="15" width="70" x="2665" y="-535" />
<rect fill="#84A1AE" height="70" rx="15" width="70" x="2665" y="-635" />
<rect fill="#84A1AE" height="70" rx="15" width="70" x="2665" y="-1135" />
<rect fill="#84A1AE" height="70" rx="15" width="70" x="2665" y="-1435" />
<rect fill="#84A1AE" height="70" rx="15" width="70" x="2665" y="-2735" />
<rect fill="#84A1AE" height="70" rx="15" width="70" x="2665" y="-3835" />
<rect fill="#84A1AE" height="70" rx="15" width="70" x="2765" y="-535" />
<rect fill="#84A1AE" height="70" rx="15" width="70" x="2765" y="-1635" />
<rect fill="#84A1AE" height="70" rx="15" width="70" x="2765" y="-1835" />
<rect fill="#84A1AE" height="70" rx="15" width="70" x="2765" y="-1935" />
<rect fill="#84A1AE" height="70" rx="15" width="70" x="2765" y="-2235" />
<rect fill="#84A1AE" height="70" rx="15" width="70" x="2765" y="-3735" />
<rect fill="#84A1AE" height="70" rx="15" width="70" x="2765" y="-3835" />
<rect fill="#84A1AE" height="70" rx="15" width="70" x="2865" y="-535" />
<rect fill="#84A1AE" height="70" rx="15" width="70" x="2865" y="-3835" />
<rect fill="#84A1AE" height="70" rx="15" width="70" x="2965" y="-535" />
<rect fill="#84A1AE" height="70" rx="15" width="70" x="2965" y="-2635" />
<rect fill="#84A1AE" height="70" rx="15" width="70" x="2965" y="-3835" />
<rect fill="#84A1AE" height="70" rx="15" width="70" x="3065" y="-535" />
<rect fill="#84A1AE" height="70" rx="15" width="70" x="3065" y="-735" />
<rect fill="#84A1AE" height="70" rx="15" width="70" x="3065" y="-2535" />
<rect fill="#84A1AE" height="70" rx="15" width="70" x="3065" y="-3835" />
<rect fill="#84A1AE" height="70" rx="15" width="70" x="3165" y="-535" />
<rect fill="#84A1AE" height="70" rx="15" width="70" x="3165" y="-835" />
<rect fill="#84A1AE" height="70" rx="15" width="70" x="3165" y="-1935" />
<rect fill="#84A1AE" height="70" rx="15" width="70" x="3165" y="-2735" />
<rect fill="#84A1AE" height="70" rx="15" width="70" x="3165" y="-3135" />
<rect fill="#84A1AE" height="70" rx="15" width="70" x="3165" y="-3835" />
<rect fill="#84A1AE" height="70" rx="15" width="70" x="3265" y="-535" />
<rect fill="#84A1AE" height="70" rx="15" width="70" x="3265" y="-1035" />
<rect fill="#84A1AE" height="70" rx="15" width="70" x="3265" y="-1735" />
<rect fill="#84A1AE" height="70" rx="15" width="70" x="3265" y="-3835" />
<rect fill="#84A1AE" height="70" rx="15" width="70" x="3365" y="-535" />
<rect fill="#84A1AE" height="70" rx="15" width="70" x="3365" y="-1435" />
<rect fill="#84A1AE" height="70" rx="15" width="70" x="3365" y="-1935" />
<rect fill="#84A1AE" height="70" rx="15" width="70" x="3365" y="-2135" />
<rect fill="#84A1AE" height="70" rx="15" width="70" x="3365" y="-3835" />
<rect fill="#84A1AE" height="70" rx="15" width="70" x="3465" y="-535" />
<rect fill="#84A1AE" height="70" rx="15" width="70" x="3465" y="-2635" />
<rect fill="#84A1AE" height="70" rx="15" width="70" x="3465" y="-3835" />
<rect fill="#84A1AE" height="70" rx="15" width="70" x="3565" y="-535" />
<rect fill="#84A1AE" height="70" rx="15" width="70" x="3565" y="-635" />
<rect fill="#84A1AE" height="70" rx="15" width="70" x="3565" y="-2435" />
<rect fill="#84A1AE" height="70" rx="15" width="70" x="3565" y="-3235" />
<rect fill="#84A1AE" height="70" rx="15" width="70" x="3565" y="-3835" />
<rect fill="#84A1AE" height="70" rx="15" width="70" x="3665" y="-535" />
<rect fill="#84A1AE" height="70" rx="15" width="70" x="3665" y="-2135" />
<rect fill="#84A1AE" height="70" rx="15" width="70" x="3665" y="-2835" />
<rect fill="#84A1AE" height="70" rx="15" width="70" x="3665" y="-3135" />
<rect fill="#84A1AE" height="70" rx="15" width="70" x="3665" y="-3735" />
<rect fill="#84A1AE" height="70" rx="15" width="70" x="3665" y="-3835" />
<rect fill="#84A1AE" height="70" rx="15" width="70" x="3765" y="-535" />
<rect fill="#84A1AE" height="70" rx="15" width="70" x="3765" y="-635" />
<rect fill="#84A1AE" height="70" rx="15" width="70" x="3765" y="-735" />
<rect fill="#84A1AE" height="70" rx="15" width="70" x="3765" y="-835" />
<rect fill="#84A1AE" height="70" rx="15" width="70" x="3765" y="-935" />
<rect fill="#84A1AE" height="70" rx="15" width="70" x="3765" y="-1035" />
<rect fill="#84A1AE" height="70" rx="15" width="70" x="3765" y="-1135" />
<rect fill="#84A1AE" height="70" rx="15" width="70" x="3765" y="-1235" />
<rect fill="#84A1AE" height="70" rx="15" width="70" x="3765" y="-1335" />
<rect fill="#84A1AE" height="70" rx="15" width="70" x="3765" y="-1435" />
<rect fill="#84A1AE" height="70" rx="15" width="70" x="3765" y="-1535" />
<rect fill="#84A1AE" height="70" rx="15" width="70" x="3765" y="-1635" />
<rect fill="#84A1AE" height="70" rx="15" width="70" x="3765" y="-1735" />
<rect fill="#84A1AE" height="70" rx="15" width="70" x="3765" y="-1835" />
<rect fill="#84A1AE" height="70" rx="15" width="70" x="3765" y="-1935" />
<rect fill="#84A1AE" height="70" rx="15" width="70" x="3765" y="-2035" />
<rect fill="#84A1AE" height="70" rx="15" width="70" x="3765" y="-2135" />
<rect fill="#84A1AE" height="70" rx="15" width="70" x="3765" y="-2235" />
<rect fill="#84A1AE" height="70" rx="15" width="70" x="3765" y="-2335" />
<rect fill="#84A1AE" height="70" rx="15" width="70" x="3765" y="-2435" />
<rect fill="#84A1AE" height="70" rx="15" width="70" x="3765" y="-2535" />
<rect fill="#84A1AE" height="70" rx="15" width="70" x="3765" y="-2635" />
<rect fill="#84A1AE" height="70" rx="15" width="70" x="3765" y="-2735" />
<rect fill="#84A1AE" height="70" rx="15" width="70" x="3765" y="-2835" />
<rect fill="#84A1AE" height="70" rx="15" width="70" x="3765" y="-2935" />
<rect fill="#84A1AE" height="70" rx="15" width="70" x="3765" y="-3035" />
<rect fill="#84A1AE" height="70" rx="15" width="70" x="3765" y="-3135" />
<rect fill="#84A1AE" height="70" rx="15" width="70" x="3765" y="-3235" />
<rect fill="#84A1AE" height="70" rx="15" width="70" x="3765" y="-3335" />
<rect fill="#84A1AE" height="70" rx="15" width="70" x="3765" y="-3435" />
<rect fill="#84A1AE" height="70" rx="15" width="70" x="3765" y="-3535" />
<rect fill="#84A1AE" height="70" rx="15" width="70" x="3765" y="-3635" />
<rect fill="#84A1AE" height="70" rx="15" width="70" x="3765" y="-3735" />
<rect fill="#84A1AE" height="70" rx="15" width="70" x="3765" y="-3835" />
<circle cx="2500" cy="-1400" fill="#c1433c" r="35"> <animate attributeName="cy" dur="103.88000000000001s" keyTimes="0.0;0.002688172;0.0053763441;0.0080645161;0.0107526882;0.0134408602;0.0161290323;0.0188172043;0.0215053763;0.0241935484;0.0349462366;0.0376344086;0.0403225806;0.0430107527;0.0510752688;0.0537634409;0.0564516129;0.0591397849;0.061827957;0.064516129;0.0672043011;0.0752688172;0.0779569892;0.0806451613;0.0833333333;0.0860215054;0.0887096774;0.0913978495;0.0940860215;0.0967741935;0.0994623656;0.1075268817;0.1102150538;0.1129032258;0.1155913978;0.1182795699;0.1209677419;0.123655914;0.126344086;0.1290322581;0.1317204301;0.1344086022;0.1478494624;0.1505376344;0.1532258065;0.1586021505;0.1612903226;0.1639784946;0.1720430108;0.1747311828;0.1801075269;0.1827956989;0.185483871;0.188172043;0.1908602151;0.1935483871;0.1962365591;0.2204301075;0.2231182796;0.2258064516;0.2392473118;0.2419354839;0.2446236559;0.252688172;0.2553763441;0.2580645161;0.2607526882;0.2634408602;0.2661290323;0.2688172043;0.2741935484;0.2768817204;0.2795698925;0.2822580645;0.2849462366;0.2876344086;0.2903225806;0.2930107527;0.2956989247;0.2983870968;0.3010752688;0.3037634409;0.311827957;0.314516129;0.3198924731;0.3225806452;0.3306451613;0.3333333333;0.3440860215;0.3467741935;0.3494623656;0.3575268817;0.3602150538;0.373655914;0.376344086;0.3790322581;0.3817204301;0.3844086022;0.3951612903;0.3978494624;0.4112903226;0.4139784946;0.4220430108;0.4247311828;0.4516129032;0.4543010753;0.4569892473;0.4596774194;0.4677419355;0.4704301075;0.4811827957;0.4838709677;0.4892473118;0.4919354839;0.497311828;0.5;0.502688172;0.5053763441;0.5080645161;0.5107526882;0.5188172043;0.5215053763;0.5241935484;0.5268817204;0.5510752688;0.5537634409;0.5564516129;0.5591397849;0.564516129;0.5672043011;0.5698924731;0.5725806452;0.5779569892;0.5806451613;0.5887096774;0.5913978495;0.6182795699;0.6209677419;0.6451612903;0.6478494624;0.6505376344;0.6532258065;0.6586021505;0.6612903226;0.6639784946;0.6720430108;0.6747311828;0.6774193548;0.6801075269;0.685483871;0.688172043;0.6908602151;0.6989247312;0.7016129032;0.7043010753;0.7069892473;0.7311827957;0.7338709677;0.747311828;0.75;0.7553763441;0.7580645161;0.7607526882;0.7688172043;0.7715053763;0.7741935484;0.7768817204;0.7795698925;0.7822580645;0.7849462366;0.7956989247;0.7983870968;0.8010752688;0.8037634409;0.8306451613;0.8333333333;0.8467741935;0.8494623656;0.8521505376;0.8548387097;0.8629032258;0.8655913978;0.8682795699;0.8709677419;0.873655914;0.876344086;0.8790322581;0.8817204301;0.8844086022;0.8924731183;0.8951612903;0.8978494624;0.9005376344;0.9032258065;0.9059139785;0.9086021505;0.9112903226;0.9139784946;0.9193548387;0.9220430108;0.9247311828;0.935483871;0.938172043;0.9435483871;0.9462365591;0.9489247312;0.9516129032;0.9569892473;0.9596774194;0.9623655914;0.9650537634;0.9677419355;0.9758064516;0.9784946237;0.9838709677;0.9865591398;0.9892473118;0.9919354839;1.0" repeatCount="indefinite" values="-1400;-1400;-1400;-1500;-1600;-1700;-1800;-1900;-2000;-2100;-2100;-2200;-2300;-2200;-2200;-2300;-2300;-2200;-2200;-2300;-2400;-2400;-2500;-2500;-2600;-2600;-2700;-2800;-2900;-2900;-3000;-3000;-3100;-3100;-3000;-3000;-2900;-2900;-2800;-2800;-2700;-2800;-2800;-2700;-2800;-2800;-2900;-2800;-2800;-2700;-2700;-2800;-2900;-2900;-3000;-2900;-3000;-3000;-2900;-2800;-2800;-2700;-2600;-2600;-2700;-2800;-2700;-2600;-2500;-2400;-2400;-2300;-2300;-2200;-2100;-2000;-2100;-2100;-2200;-2300;-2300;-2200;-2200;-2100;-2100;-2200;-2200;-2100;-2100;-2000;-2100;-2100;-2200;-2200;-2300;-2300;-2400;-2300;-2300;-2400;-2400;-2300;-2300;-2200;-2200;-2300;-2300;-2200;-2200;-2100;-2100;-2200;-2200;-2300;-2300;-2400;-2300;-2400;-2400;-2500;-2500;-2400;-2500;-2400;-2400;-2500;-2400;-2500;-2500;-2600;-2500;-2600;-2600;-2700;-2700;-2600;-2600;-2500;-2500;-2600;-2600;-2700;-2700;-2600;-2500;-2500;-2600;-2600;-2500;-2500;-2600;-2500;-2500;-2400;-2400;-2500;-2500;-2600;-2600;-2700;-2700;-2800;-2900;-2900;-3000;-3100;-3100;-3000;-3100;-3000;-3000;-2900;-2900;-3000;-3000;-3100;-3100;-3000;-2900;-3000;-3000;-2900;-2900;-3000;-3100;-3200;-3100;-3200;-3100;-3100;-3000;-2900;-2800;-2900;-3000;-3000;-3100;-3000;-3000;-2900;-3000;-3000;-3100;-3100;-3000;-3000;-3100;-3100;-3200;-3300;-3400;-3500;-3500;-3600;-3600;-3500;-3500;-3600;-3600"/>
<animate attributeName="cx" dur="103.88000000000001s" keyTimes="0.0;0.002688172;0.0053763441;0.0241935484;0.0268817204;0.0295698925;0.0322580645;0.0349462366;0.0430107527;0.0456989247;0.0672043011;0.0698924731;0.0725806452;0.0752688172;0.0779569892;0.0806451613;0.0833333333;0.0860215054;0.0994623656;0.1021505376;0.1048387097;0.1075268817;0.1102150538;0.1129032258;0.1155913978;0.1182795699;0.1209677419;0.123655914;0.126344086;0.1290322581;0.1344086022;0.1370967742;0.1397849462;0.1424731183;0.1451612903;0.1478494624;0.1532258065;0.1559139785;0.1586021505;0.1639784946;0.1666666667;0.1693548387;0.1720430108;0.1747311828;0.1774193548;0.1801075269;0.185483871;0.188172043;0.2016129032;0.2043010753;0.2069892473;0.2096774194;0.2123655914;0.2150537634;0.2177419355;0.2204301075;0.2258064516;0.2284946237;0.2311827957;0.2338709677;0.2365591398;0.2392473118;0.247311828;0.25;0.252688172;0.2715053763;0.2741935484;0.2903225806;0.2930107527;0.2983870968;0.3010752688;0.3064516129;0.3091397849;0.311827957;0.314516129;0.3172043011;0.3198924731;0.3225806452;0.3252688172;0.3279569892;0.3306451613;0.3333333333;0.3360215054;0.3387096774;0.3413978495;0.3440860215;0.3629032258;0.3655913978;0.3709677419;0.373655914;0.376344086;0.3790322581;0.3844086022;0.3870967742;0.3897849462;0.3924731183;0.3951612903;0.3978494624;0.4005376344;0.4032258065;0.4059139785;0.4086021505;0.4112903226;0.4139784946;0.4166666667;0.4193548387;0.4220430108;0.4247311828;0.4274193548;0.4301075269;0.4327956989;0.435483871;0.438172043;0.4408602151;0.4435483871;0.4462365591;0.4489247312;0.4516129032;0.4543010753;0.4569892473;0.4623655914;0.4650537634;0.4677419355;0.4704301075;0.4731182796;0.4758064516;0.4784946237;0.4811827957;0.4838709677;0.4865591398;0.4892473118;0.4919354839;0.4946236559;0.497311828;0.5053763441;0.5080645161;0.5107526882;0.5134408602;0.5161290323;0.5188172043;0.561827957;0.564516129;0.5725806452;0.5752688172;0.5806451613;0.5833333333;0.5860215054;0.5887096774;0.6209677419;0.623655914;0.626344086;0.6290322581;0.6317204301;0.6344086022;0.6370967742;0.6397849462;0.6424731183;0.6451612903;0.6478494624;0.6505376344;0.6532258065;0.6559139785;0.6586021505;0.6639784946;0.6666666667;0.6693548387;0.6720430108;0.6747311828;0.6774193548;0.6801075269;0.6827956989;0.685483871;0.6908602151;0.6935483871;0.6962365591;0.6989247312;0.7016129032;0.7043010753;0.7069892473;0.7096774194;0.7123655914;0.7150537634;0.7177419355;0.7204301075;0.7231182796;0.7258064516;0.7284946237;0.7311827957;0.7338709677;0.7365591398;0.7392473118;0.7419354839;0.7446236559;0.747311828;0.75;0.752688172;0.7553763441;0.7607526882;0.7634408602;0.7661290323;0.7688172043;0.7849462366;0.7876344086;0.7903225806;0.7930107527;0.7956989247;0.7983870968;0.8010752688;0.8091397849;0.811827957;0.814516129;0.8172043011;0.8198924731;0.8225806452;0.8252688172;0.8279569892;0.8306451613;0.8360215054;0.8387096774;0.8413978495;0.8440860215;0.8575268817;0.8602150538;0.8629032258;0.8870967742;0.8897849462;0.8924731183;0.9059139785;0.9086021505;0.9139784946;0.9166666667;0.9193548387;0.9274193548;0.9301075269;0.9327956989;0.935483871;0.938172043;0.9408602151;0.9435483871;0.9462365591;0.9489247312;0.9516129032;0.9543010753;0.9569892473;0.9704301075;0.9731182796;0.9758064516;0.9784946237;0.9811827957;0.9865591398;0.9892473118;0.9919354839;0.9946236559;0.997311828;1.0" repeatCount="indefinite" values="2500;2500;2600;2600;2500;2500;2600;2700;2700;2600;2600;2500;2600;2700;2700;2800;2800;2900;2900;2800;2700;2800;2800;2900;2900;3000;3000;2900;2900;3000;3000;3100;3200;3100;3000;3100;3100;3200;3300;3300;3200;3200;3100;3100;3000;3100;3100;3200;3200;3300;3400;3300;3400;3300;3400;3500;3500;3400;3400;3300;3200;3100;3100;3200;3300;3300;3200;3200;3300;3300;3400;3400;3300;3200;3200;3300;3200;3200;3100;3000;2900;2900;3000;3100;3200;3300;3300;3400;3400;3300;3300;3400;3400;3500;3400;3400;3300;3300;3400;3400;3300;3300;3400;3400;3500;3400;3500;3500;3600;3600;3500;3400;3300;3400;3300;3400;3400;3300;3300;3200;3200;3100;3200;3200;3300;3200;3300;3200;3200;3100;3200;3200;3300;3400;3400;3500;3500;3600;3600;3700;3700;3600;3600;3700;3700;3600;3500;3400;3400;3500;3600;3700;3600;3700;3600;3500;3400;3300;3300;3400;3400;3300;3400;3400;3500;3400;3300;3300;3400;3400;3500;3400;3400;3500;3600;3500;3500;3400;3400;3500;3600;3700;3700;3600;3700;3600;3500;3600;3600;3700;3600;3600;3700;3600;3600;3500;3400;3400;3500;3400;3500;3500;3400;3300;3200;3100;3100;3200;3200;3300;3400;3400;3500;3600;3700;3700;3600;3600;3500;3400;3300;3300;3400;3500;3500;3600;3500;3500;3600;3600;3700;3600;3600;3500;3400;3500;3500;3600;3500;3500;3600;3600;3500;3400;3400;3300;3400;3400;3300;3300;3400;3400;3300;3400;3400"/>
<animate attributeName="visibility" dur="103.88000000000001s" keyTimes="0.0;0.002688172;1.0" repeatCount="indefinite" values="visible;visible;visible"/> </circle>
<circle cx="3000" cy="-1900" fill="#2e6f9e" r="35"> <animate attributeName="cy" dur="103.88000000000001s" keyTimes="0.0;0.002688172;0.0053763441;0.0080645161;0.0107526882;0.0134408602;0.0161290323;0.0188172043;0.0215053763;0.0241935484;0.0268817204;0.0295698925;0.0349462366;0.0376344086;0.0403225806;0.0430107527;0.0456989247;0.0564516129;0.0591397849;0.061827957;0.064516129;0.0672043011;0.0698924731;0.0725806452;0.0752688172;0.0779569892;0.0806451613;0.0833333333;0.0860215054;0.0887096774;0.0913978495;0.0940860215;0.0967741935;0.0994623656;0.1021505376;0.1048387097;0.1075268817;0.1102150538;0.1129032258;0.1155913978;0.1209677419;0.123655914;0.126344086;0.1290322581;0.1317204301;0.1344086022;0.1370967742;0.1397849462;0.1424731183;0.1451612903;0.1478494624;0.1505376344;0.1532258065;0.1559139785;0.1586021505;0.1612903226;0.1639784946;0.1693548387;0.1720430108;0.1747311828;0.1774193548;0.1801075269;0.1827956989;0.185483871;0.188172043;0.1908602151;0.1935483871;0.1962365591;0.1989247312;0.2016129032;0.2043010753;0.2069892473;0.2096774194;0.2123655914;0.2150537634;0.2177419355;0.2204301075;0.2231182796;0.2258064516;0.2284946237;0.2311827957;0.2338709677;0.2365591398;0.2419354839;0.2446236559;0.247311828;0.25;0.252688172;0.2553763441;0.2580645161;0.2607526882;0.2634408602;0.2661290323;0.2688172043;0.2715053763;0.2741935484;0.2768817204;0.2795698925;0.2822580645;0.2849462366;0.2876344086;0.2903225806;0.2930107527;0.2956989247;0.2983870968;0.3655913978;0.3682795699;0.3709677419;0.3844086022;0.3870967742;0.3897849462;0.3924731183;0.3951612903;0.3978494624;0.4005376344;0.4032258065;0.4059139785;0.4086021505;0.4112903226;0.4139784946;0.4193548387;0.4220430108;0.4247311828;0.4274193548;0.4327956989;0.435483871;0.4408602151;0.4435483871;0.4462365591;0.4489247312;0.4516129032;0.4543010753;0.4569892473;0.4838709677;0.4865591398;0.5241935484;0.5268817204;0.5295698925;0.5322580645;0.5349462366;0.5376344086;0.5430107527;0.5456989247;0.5483870968;0.5510752688;0.5564516129;0.5591397849;0.5913978495;0.5940860215;0.6048387097;0.6075268817;0.6182795699;0.6209677419;0.623655914;0.626344086;0.6290322581;0.6317204301;0.6344086022;0.6370967742;0.6397849462;0.6424731183;0.6451612903;0.6478494624;0.6505376344;0.6532258065;0.6559139785;0.6586021505;0.6612903226;0.6639784946;0.6666666667;0.6693548387;0.6720430108;0.6747311828;0.6774193548;0.6801075269;0.6827956989;0.6962365591;0.6989247312;0.7016129032;0.7043010753;0.7069892473;0.7096774194;0.7123655914;0.7177419355;0.7204301075;0.7231182796;0.7258064516;0.7284946237;0.7311827957;0.7338709677;0.7392473118;0.7419354839;0.7446236559;0.747311828;0.75;0.752688172;0.7553763441;0.7580645161;0.7607526882;0.7688172043;0.7715053763;0.8037634409;0.8064516129;0.8091397849;0.811827957;0.814516129;0.8172043011;0.8252688172;0.8279569892;0.8333333333;0.8360215054;0.8494623656;0.8521505376;0.8548387097;0.8575268817;0.8602150538;0.8629032258;0.8897849462;0.8924731183;0.9032258065;0.9059139785;0.9086021505;0.9112903226;0.9166666667;0.9193548387;0.9220430108;0.9247311828;0.9435483871;0.9462365591;0.9489247312;0.9516129032;0.9543010753;0.9569892473;0.9677419355;0.9704301075;0.9731182796;0.9892473118;0.9919354839;0.9946236559;0.997311828;1.0" repeatCount="indefinite" values="-1900;-1900;-1900;-2000;-2100;-2200;-2300;-2400;-2400;-2500;-2500;-2600;-2600;-2500;-2400;-2400;-2300;-2300;-2200;-2200;-2300;-2300;-2200;-2100;-2000;-1900;-1800;-1700;-1600;-1500;-1400;-1300;-1200;-1100;-1000;-900;-900;-800;-800;-700;-700;-600;-700;-800;-900;-1000;-1100;-1200;-1300;-1400;-1500;-1600;-1600;-1700;-1800;-1900;-2000;-2000;-2100;-2200;-2300;-2300;-2400;-2400;-2500;-2500;-2600;-2700;-2800;-2800;-2900;-2800;-2700;-2700;-2600;-2500;-2400;-2300;-2200;-2100;-2000;-1900;-1800;-1800;-1700;-1700;-1600;-1700;-1800;-1800;-1900;-1900;-2000;-2100;-2200;-2200;-2300;-2400;-2400;-2500;-2600;-2600;-2700;-2800;-2900;-2900;-2800;-2700;-2700;-2600;-2500;-2400;-2300;-2300;-2200;-2100;-2000;-1900;-1800;-1700;-1700;-1600;-1500;-1400;-1400;-1500;-1500;-1600;-1700;-1800;-1900;-2000;-2100;-2100;-2000;-2000;-1900;-1800;-1800;-1700;-1600;-1600;-1500;-1500;-1400;-1400;-1300;-1300;-1200;-1200;-1100;-1100;-1000;-900;-800;-700;-800;-900;-1000;-1100;-1100;-1200;-1300;-1400;-1500;-1600;-1700;-1800;-1900;-2000;-2100;-2200;-2300;-2400;-2500;-2600;-2600;-2500;-2400;-2300;-2200;-2100;-2000;-2000;-1900;-1800;-1700;-1700;-1600;-1500;-1500;-1400;-1400;-1300;-1200;-1100;-1100;-1000;-900;-900;-800;-800;-900;-900;-1000;-1000;-1100;-1100;-1200;-1200;-1100;-1100;-1000;-1000;-900;-900;-800;-800;-900;-900;-800;-800;-700;-700;-800;-800;-900;-900;-1000;-1000;-1100;-1100;-1200;-1200;-1300;-1400;-1400;-1300;-1400;-1500;-1500"/>
<animate attributeName="cx" dur="103.88000000000001s" keyTimes="0.0;0.002688172;0.0053763441;0.0188172043;0.0215053763;0.0241935484;0.0268817204;0.0295698925;0.0322580645;0.0349462366;0.0403225806;0.0430107527;0.0483870968;0.0510752688;0.064516129;0.0672043011;0.1048387097;0.1075268817;0.1102150538;0.1129032258;0.1155913978;0.1182795699;0.1209677419;0.1505376344;0.1532258065;0.1639784946;0.1666666667;0.1693548387;0.1774193548;0.1801075269;0.1827956989;0.185483871;0.188172043;0.1908602151;0.1989247312;0.2016129032;0.2096774194;0.2123655914;0.2365591398;0.2392473118;0.2419354839;0.2446236559;0.247311828;0.2553763441;0.2580645161;0.2607526882;0.2634408602;0.2715053763;0.2741935484;0.2795698925;0.2822580645;0.2876344086;0.2903225806;0.2983870968;0.3010752688;0.3037634409;0.3064516129;0.3091397849;0.311827957;0.314516129;0.3172043011;0.3198924731;0.3225806452;0.3252688172;0.3279569892;0.3306451613;0.3333333333;0.3360215054;0.3387096774;0.3413978495;0.3440860215;0.3467741935;0.3494623656;0.3521505376;0.3548387097;0.3575268817;0.3602150538;0.3629032258;0.3655913978;0.3709677419;0.373655914;0.376344086;0.3790322581;0.3817204301;0.3844086022;0.3951612903;0.3978494624;0.4139784946;0.4166666667;0.4193548387;0.4274193548;0.4301075269;0.4327956989;0.435483871;0.438172043;0.4408602151;0.4569892473;0.4596774194;0.4623655914;0.4650537634;0.4677419355;0.4704301075;0.4731182796;0.4758064516;0.4784946237;0.4811827957;0.4838709677;0.4865591398;0.4892473118;0.4919354839;0.4946236559;0.497311828;0.5;0.502688172;0.5053763441;0.5080645161;0.5107526882;0.5134408602;0.5161290323;0.5188172043;0.5215053763;0.5241935484;0.5295698925;0.5322580645;0.5376344086;0.5403225806;0.5430107527;0.5456989247;0.5483870968;0.5510752688;0.5537634409;0.5564516129;0.5591397849;0.561827957;0.564516129;0.5672043011;0.5698924731;0.5725806452;0.5752688172;0.5779569892;0.5806451613;0.5833333333;0.5860215054;0.5887096774;0.5913978495;0.5940860215;0.5967741935;0.5994623656;0.6021505376;0.6048387097;0.6075268817;0.6102150538;0.6129032258;0.6155913978;0.6182795699;0.6397849462;0.6424731183;0.6827956989;0.685483871;0.688172043;0.6908602151;0.6935483871;0.6962365591;0.7123655914;0.7150537634;0.7177419355;0.7258064516;0.7284946237;0.7338709677;0.7365591398;0.7392473118;0.7419354839;0.7446236559;0.752688172;0.7553763441;0.7607526882;0.7634408602;0.7661290323;0.7688172043;0.7715053763;0.7741935484;0.7768817204;0.7795698925;0.7822580645;0.7849462366;0.7876344086;0.7903225806;0.7930107527;0.7956989247;0.7983870968;0.8010752688;0.8037634409;0.8064516129;0.8091397849;0.811827957;0.814516129;0.8172043011;0.8198924731;0.8225806452;0.8252688172;0.8279569892;0.8306451613;0.8333333333;0.8360215054;0.8387096774;0.8413978495;0.8440860215;0.8467741935;0.8494623656;0.8521505376;0.8548387097;0.8575268817;0.8602150538;0.8629032258;0.8655913978;0.8682795699;0.8709677419;0.873655914;0.876344086;0.8790322581;0.8817204301;0.8844086022;0.8870967742;0.8897849462;0.8924731183;0.8951612903;0.8978494624;0.9005376344;0.9032258065;0.9059139785;0.9086021505;0.9112903226;0.9139784946;0.9166666667;0.9193548387;0.9220430108;0.9247311828;0.9274193548;0.9301075269;0.9327956989;0.935483871;0.938172043;0.9408602151;0.9435483871;0.9462365591;0.9489247312;0.9516129032;0.9543010753;0.9569892473;0.9596774194;0.9623655914;0.9650537634;0.9677419355;0.9731182796;0.9758064516;0.9784946237;0.9811827957;0.9838709677;0.9865591398;0.9892473118;1.0" repeatCount="indefinite" values="3000;3000;2900;2900;2800;2800;2700;2700;2600;2500;2500;2600;2600;2700;2700;2600;2600;2700;2700;2800;2800;2900;3000;3000;2900;2900;2800;2700;2700;2600;2600;2500;2500;2400;2400;2300;2300;2400;2400;2500;2600;2600;2700;2700;2600;2600;2500;2500;2600;2600;2700;2700;2800;2800;2900;3000;3100;3200;3300;3400;3300;3200;3100;3000;2900;2800;2700;2600;2500;2400;2300;2200;2100;2000;1900;1800;1700;1600;1500;1500;1400;1300;1200;1100;1000;1000;900;900;1000;1100;1100;1200;1100;1100;1000;900;900;1000;1100;1200;1300;1400;1500;1600;1700;1800;1900;1900;2000;2100;2200;2300;2400;2500;2600;2700;2800;2900;3000;3100;3200;3300;3300;3400;3400;3500;3600;3600;3700;3700;3600;3500;3500;3400;3300;3200;3100;3000;2900;2800;2700;2600;2500;2400;2300;2300;2200;2100;2000;1900;1900;1800;1700;1600;1500;1500;1600;1600;1700;1800;1900;2000;1900;1900;2000;2100;2100;2200;2200;2300;2400;2400;2500;2500;2600;2600;2700;2800;2900;2900;2800;2700;2600;2500;2400;2300;2200;2100;2000;1900;1800;1700;1700;1600;1600;1500;1500;1400;1300;1200;1200;1300;1400;1400;1500;1600;1700;1800;1900;1900;2000;2000;2100;2100;2200;2300;2400;2500;2600;2700;2800;2900;3000;3100;3100;3200;3300;3400;3500;3500;3600;3600;3500;3400;3400;3300;3300;3200;3100;3000;2900;2800;2700;2600;2600;2500;2500;2400;2400;2300;2200;2100;2000;2000;1900;1800;1700;1600;1500;1400;1400"/>
<animate attributeName="visibility" dur="103.88000000000001s" keyTimes="0.0;0.002688172;1.0" repeatCount="indefinite" values="visible;visible;visible"/> </circle>
<circle cx="3500" cy="-3000" fill="none" r="35" stroke="#c1433c" stroke-width="10"> <animate attributeName="cy" dur="103.88000000000001s" keyTimes="0.0;0.002688172;0.2177419355;0.2204301075;1.0" repeatCount="indefinite" values="-3000;-3000;-3000;-2000;-2000"/>
<animate attributeName="cx" dur="103.88000000000001s" keyTimes="0.0;0.002688172;0.2177419355;0.2204301075;1.0" repeatCount="indefinite" values="3500;3500;3500;3400;3400"/>
<animate attributeName="visibility" dur="103.88000000000001s" keyTimes="0.0;0.002688172;1.0" repeatCount="indefinite" values="visible;visible;visible"/> </circle>
<circle cx="2600" cy="-2600" fill="none" r="35" stroke="#2e6f9e" stroke-width="10"> <animate attributeName="cy" dur="103.88000000000001s" keyTimes="0.0;0.002688172;0.0295698925;0.0322580645;0.1021505376;0.1048387097;0.1209677419;0.123655914;0.2016129032;0.2043010753;0.247311828;0.25;0.2634408602;0.2661290323;0.311827957;0.314516129;0.4112903226;0.4139784946;0.4274193548;0.4301075269;0.4543010753;0.4569892473;0.5483870968;0.5510752688;0.626344086;0.6290322581;0.6935483871;0.6962365591;0.7688172043;0.7715053763;0.8252688172;0.8279569892;0.9086021505;0.9112903226;0.9892473118;0.9919354839;1.0" repeatCount="indefinite" values="-2600;-2600;-2600;-900;-900;-600;-600;-2900;-2900;-1600;-1600;-2000;-2000;-2900;-2900;-1700;-1700;-1400;-1400;-2100;-2100;-1400;-1400;-700;-700;-2600;-2600;-800;-800;-1200;-1200;-700;-700;-1300;-1300;-2900;-2900"/>
<animate attributeName="cx" dur="103.88000000000001s" keyTimes="0.0;0.002688172;0.1021505376;0.1048387097;0.1209677419;0.123655914;0.2016129032;0.2043010753;0.247311828;0.25;0.2634408602;0.2661290323;0.311827957;0.314516129;0.4112903226;0.4139784946;0.4274193548;0.4301075269;0.4543010753;0.4569892473;0.5483870968;0.5510752688;0.626344086;0.6290322581;0.6908602151;0.6935483871;0.6962365591;0.7688172043;0.7715053763;0.8252688172;0.8279569892;0.9086021505;0.9112903226;0.9892473118;0.9919354839;1.0" repeatCount="indefinite" values="2600;2600;2600;3000;3000;2300;2300;2700;2700;2500;2500;3400;3400;900;900;1200;1200;900;900;3700;3700;1500;1500;2000;2000;1900;2900;2900;1200;1200;3600;3600;1400;1400;1700;1700"/>
<animate attributeName="visibility" dur="103.88000000000001s" keyTimes="0.0;0.002688172;1.0" repeatCount="indefinite" values="visible;visible;visible"/> </circle>
</svg>