<?xml version="1.0" encoding="UTF-8"?>
        <svg xmlns="http://www.w3.org/2000/svg" xmlns:xlink="http://www.w3.org/1999/xlink"
             width="430" height="430" viewBox="0 -4300 4300 4300">

<defs>

</defs>

<rect fill="#84A1AE" height="70" rx="15" width="70" x="465" y="-535" />
<rect fill="#84A1AE" height="70" rx="15" width="70" x="465" y="-635" />
<rect fill="#84A1AE" height="70" rx="15" width="70" x="465" y="-735" />
<rect fill="#84A1AE" height="70" rx="15" width="70" x="465" y="-835" />
<rect fill="#84A1AE" height="70" rx="15" width="70" x="465" y="-935" />
<rect fill="#84A1AE" height="70" rx="15" width="70" x="465" y="-1035" />
<rect fill="#84A1AE" height="70" rx="15" width="70" x="465" y="-1135" />
<rect fill="#84A1AE" height="70" rx="15" width="70" x="465" y="-1235" />
<rect fill="#84A1AE" height="70" rx="15" width="70" x="465" y="-1335" />
<rect fill="#84A1AE" height="70" rx="15" width="70" x="465" y="-1435" />
<rect fill="#84A1AE" height="70" rx="15" width="70" x="465" y="-1535" />
<rect fill="#84A1AE" height="70" rx="15" width="70" x="465" y="-1635" />
<rect fill="#84A1AE" height="70" rx="15" width="70" x="465" y="-1735" />
<rect fill="#84A1AE" height="70" rx="15" width="70" x="465" y="-1835" />
<rect fill="#84A1AE" height="70" rx="15" width="70" x="465" y="-1935" />
<rect fill="#84A1AE" height="70" rx="15" width="70" x="465" y="-2035" />
<rect fill="#84A1AE" height="70" rx="15" width="70" x="465" y="-2135" />
<rect fill="#84A1AE" height="70" rx="15" width="70" x="465" y="-2235" />
<rect fill="#84A1AE" height="70" rx="15" width="70" x="465" y="-2335" />
<rect fill="#84A1AE" height="70" rx="15" width="70" x="465" y="-2435" />
<rect fill="#84A1AE" height="70" rx="15" width="70" x="465" y="-2535" />
<rect fill="#84A1AE" height="70" rx="15" width="70" x="465" y="-2635" />
<rect fill="#84A1AE" height="70" rx="15" width="70" x="465" y="-2735" />
<rect fill="#84A1AE" height="70" rx="15" width="70" x="465" y="-2835" />
<rect fill="#84A1AE" height="70" rx="15" width="70" x="465" y="-2935" />
<rect fill="#84A1AE" height="70" rx="15" width="70" x="465" y="-3035" />
<rect fill="#84A1AE" height="70" rx="15" width="70" x="465" y="-3135" />
<rect fill="#84A1AE" height="70" rx="15" width="70" x="465" y="-3235" />
<rect fill="#84A1AE" height="70" rx="15" width="70" x="465" y="-3335" />
<rect fill="#84A1AE" height="70" rx="15" width="70" x="465" y="-3435" />
<rect fill="#84A1AE" height="70" rx="15" width="70" x="465" y="-3535" />
<rect fill="#84A1AE" height="70" rx="15" width="70" x="465" y="-3635" />
<rect fill="#84A1AE" height="70" rx="15" width="70" x="465" y="-3735" />
<rect fill="#84A1AE" height="70" rx="15" width="70" x="465" y="-3835" />
<rect fill="#84A1AE" height="70" rx="15" width="70" x="565" y="-535" />
<rect fill="#84A1AE" height="70" rx="15" width="70" x="565" y="-1635" />
<rect fill="#84A1AE" height="70" rx="15" width="70" x="565" y="-1935" />
<rect fill="#84A1AE" height="70" rx="15" width="70" x="565" y="-2735" />
<rect fill="#84A1AE" height="70" rx="15" width="70" x="565" y="-3835" />
<rect fill="#84A1AE" height="70" rx="15" width="70" x="665" y="-535" />
<rect fill="#84A1AE" height="70" rx="15" width="70" x="665" y="-1035" />
<rect fill="#84A1AE" height="70" rx="15" width="70" x="665" y="-2535" />
<rect fill="#84A1AE" height="70" rx="15" width="70" x="665" y="-3035" />
<rect fill="#84A1AE" height="70" rx="15" width="70" x="665" y="-3235" />
<rect fill="#84A1AE" height="70" rx="15" width="70" x="665" y="-3835" />
<rect fill="#84A1AE" height="70" rx="15" width="70" x="765" y="-535" />
<rect fill="#84A1AE" height="70" rx="15" width="70" x="765" y="-635" />
<rect fill="#84A1AE" height="70" rx="15" width="70" x="765" y="-3835" />
<rect fill="#84A1AE" height="70" rx="15" width="70" x="865" y="-535" />
<rect fill="#84A1AE" height="70" rx="15" width="70" x="865" y="-2435" />
<rect fill="#84A1AE" height="70" rx="15" width="70" x="865" y="-2535" />
<rect fill="#84A1AE" height="70" rx="15" width="70" x="865" y="-3335" />
<rect fill="#84A1AE" height="70" rx="15" width="70" x="865" y="-3435" />
<rect fill="#84A1AE" height="70" rx="15" width="70" x="865" y="-3835" />
<rect fill="#84A1AE" height="70" rx="15" width="70" x="965" y="-535" />
<rect fill="#84A1AE" height="70" rx="15" width="70" x="965" y="-735" />
<rect fill="#84A1AE" height="70" rx="15" width="70" x="965" y="-1635" />
<rect fill="#84A1AE" height="70" rx="15" width="70" x="965" y="-1835" />
<rect fill="#84A1AE" height="70" rx="15" width="70" x="965" y="-2835" />
<rect fill="#84A1AE" height="70" rx="15" width="70" x="965" y="-3435" />
<rect fill="#84A1AE" height="70" rx="15" width="70" x="965" y="-3835" />
<rect fill="#84A1AE" height="70" rx="15" width="70" x="1065" y="-535" />
<rect fill="#84A1AE" height="70" rx="15" width="70" x="1065" y="-1135" />
<rect fill="#84A1AE" height="70" rx="15" width="70" x="1065" y="-1835" />
<rect fill="#84A1AE" height="70" rx="15" width="70" x="1065" y="-3735" />
<rect fill="#84A1AE" height="70" rx="15" width="70" x="1065" y="-3835" />
<rect fill="#84A1AE" height="70" rx="15" width="70" x="1165" y="-535" />
<rect fill="#84A1AE" height="70" rx="15" width="70" x="1165" y="-635" />
<rect fill="#84A1AE" height="70" rx="15" width="70" x="1165" y="-735" />
<rect fill="#84A1AE" height="70" rx="15" width="70" x="1165" y="-1535" />
<rect fill="#84A1AE" height="70" rx="15" width="70" x="1165" y="-3835" />
<rect fill="#84A1AE" height="70" rx="15" width="70" x="1265" y="-535" />
<rect fill="#84A1AE" height="70" rx="15" width="70" x="1265" y="-2835" />
<rect fill="#84A1AE" height="70" rx="15" width="70" x="1265" y="-3435" />
<rect fill="#84A1AE" height="70" rx="15" width="70" x="1265" y="-3835" />
<rect fill="#84A1AE" height="70" rx="15" width="70" x="1365" y="-535" />
<rect fill="#84A1AE" height="70" rx="15" width="70" x="1365" y="-835" />
<rect fill="#84A1AE" height="70" rx="15" width="70" x="1365" y="-935" />
<rect fill="#84A1AE" height="70" rx="15" width="70" x="1365" y="-1035" />
<rect fill="#84A1AE" height="70" rx="15" width="70" x="1365" y="-1935" />
<rect fill="#84A1AE" height="70" rx="15" width="70" x="1365" y="-2335" />
<rect fill="#84A1AE" height="70" rx="15" width="70" x="1365" y="-2635" />
<rect fill="#84A1AE" height="70" rx="15" width="70" x="1365" y="-2835" />
<rect fill="#84A1AE" height="70" rx="15" width="70" x="1365" y="-2935" />
<rect fill="#84A1AE" height="70" rx="15" width="70" x="1365" y="-3035" />
<rect fill="#84A1AE" height="70" rx="15" width="70" x="1365" y="-3335" />
<rect fill="#84A1AE" height="70" rx="15" width="70" x="1365" y="-3835" />
<rect fill="#84A1AE" height="70" rx="15" width="70" x="1465" y="-535" />
<rect fill="#84A1AE" height="70" rx="15" width="70" x="1465" y="-1235" />
<rect fill="#84A1AE" height="70" rx="15" width="70" x="1465" y="-1535" />
<rect fill="#84A1AE" height="70" rx="15" width="70" x="1465" y="-2035" />
<rect fill="#84A1AE" height="70" rx="15" width="70" x="1465" y="-3135" />
<rect fill="#84A1AE" height="70" rx="15" width="70" x="1465" y="-3235" />
<rect fill="#84A1AE" height="70" rx="15" width="70" x="1465" y="-3835" />
<rect fill="#84A1AE" height="70" rx="15" width="70" x="1565" y="-535" />
<rect fill="#84A1AE" height="70" rx="15" width="70" x="1565" y="-3035" />
<rect fill="#84A1AE" height="70" rx="15" width="70" x="1565" y="-3835" />
<rect fill="#84A1AE" height="70" rx="15" width="70" x="1665" y="-535" />
<rect fill="#84A1AE" height="70" rx="15" width="70" x="1665" y="-3735" />
<rect fill="#84A1AE" height="70" rx="15" width="70" x="1665" y="-3835" />
<rect fill="#84A1AE" height="70" rx="15" width="70" x="1765" y="-535" />
<rect fill="#84A1AE" height="70" rx="15" width="70" x="1765" y="-1235" />
<rect fill="#84A1AE" height="70" rx="15" width="70" x="1765" y="-3835" />
<rect fill="#84A1AE" height="70" rx="15" width="70" x="1865" y="-535" />
<rect fill="#84A1AE" height="70" rx="15" width="70" x="1865" y="-735" />
<rect fill="#84A1AE" height="70" rx="15" width="70" x="1865" y="-1335" />
<rect fill="#84A1AE" height="70" rx="15" width="70" x="1865" y="-3235" />
<rect fill="#84A1AE" height="70" rx="15" width="70" x="1865" y="-3435" />
<rect fill="#84A1AE" height="70" rx="15" width="70" x="1865" y="-3835" />
<rect fill="#84A1AE" height="70" rx="15" width="70" x="1965" y="-535" />
<rect fill="#84A1AE" height="70" rx="15" width="70" x="1965" y="-635" />
<rect fill="#84A1AE" height="70" rx="15" width="70" x="1965" y="-1835" />
<rect fill="#84A1AE" height="70" rx="15" width="70" x="1965" y="-1935" />
<rect fill="#84A1AE" height="70" rx="15" width="70" x="1965" y="-2135" />
<rect fill="#84A1AE" height="70" rx="15" width="70" x="1965" y="-2335" />
<rect fill="#84A1AE" height="70" rx="15" width="70" x="1965" y="-2435" />
<rect fill="#84A1AE" height="70" rx="15" width="70" x="1965" y="-3335" />
<rect fill="#84A1AE" height="70" rx="15" width="70" x="1965" y="-3835" />
<rect fill="#84A1AE" height="70" rx="15" width="70" x="2065" y="-535" />
<rect fill="#84A1AE" height="70" rx="15" width="70" x="2065" y="-1535" />
<rect fill="#84A1AE" height="70" rx="15" width="70" x="2065" y="-1635" />
<rect fill="#84A1AE" height="70" rx="15" width="70" x="2065" y="-2135" />
<rect fill="#84A1AE" height="70" rx="15" width="70" x="2065" y="-3835" />
<rect fill="#84A1AE" height="70" rx="15" width="70" x="2165" y="-535" />
<rect fill="#84A1AE" height="70" rx="15" width="70" x="2165" y="-935" />
<rect fill="#84A1AE" height="70" rx="15" width="70" x="2165" y="-1335" />
<rect fill="#84A1AE" height="70" rx="15" width="70" x="2165" y="-1835" />
<rect fill="#84A1AE" height="70" rx="15" width="70" x="2165" y="-3835" />
<rect fill="#84A1AE" height="70" rx="15" width="70" x="2265" y="-535" />
<rect fill="#84A1AE" height="70" rx="15" width="70" x="2265" y="-935" />
<rect fill="#84A1AE" height="70" rx="15" width="70" x="2265" y="-1135" />
<rect fill="#84A1AE" height="70" rx="15" width="70" x="2265" y="-2535" />
<rect fill="#84A1AE" height="70" rx="15" width="70" x="2265" y="-3235" />
<rect fill="#84A1AE" height="70" rx="15" width="70" x="2265" y="-3835" />
<rect fill="#84A1AE" height="70" rx="15" width="70" x="2365" y="-535" />
<rect fill="#84A1AE" height="70" rx="15" width="70" x="2365" y="-935" />
<rect fill="#84A1AE" height="70" rx="15" width="70" x="2365" y="-1035" />
<rect fill="#84A1AE" height="70" rx="15" width="70" x="2365" y="-3835" />
<rect fill="#84A1AE" height="70" rx="15" width="70" x="2465" y="-535" />
<rect fill="#84A1AE" height="70" rx="15" width="70" x="2465" y="-935" />
<rect fill="#84A1AE" height="70" rx="15" width="70" x="2465" y="-1535" />
<rect fill="#84A1AE" height="70" rx="15" width="70" x="2465" y="-2335" />
<rect fill="#84A1AE" height="70" rx="15" width="70" x="2465" y="-2735" />
<rect fill="#84A1AE" height="70" rx="15" width="70" x="2465" y="-3835" />
<rect fill="#84A1AE" height="70" rx="15" width="70" x="2565" y="-535" />
<rect fill="#84A1AE" height="70" rx="15" width="70" x="2565" y="-735" />
<rect fill="#84A1AE" height="70" rx="15" width="70" x="2565" y="-2535" />
<rect fill="#84A1AE" height="70" rx="15" width="70" x="2565" y="-3835" />
<rect fill="#84A1AE" height="70" rx="15" width="70" x="2665" y="-535" />
<rect fill="#84A1AE" height="70" rx="15" width="70" x="2665" y="-635" />
<rect fill="#84A1AE" height="70" rx="15" width="70" x="2665" y="-1135" />
<rect fill="#84A1AE" height="70" rx="15" width="70" x="2665" y="-1435" />
<rect fill="#84A1AE" height="70" rx="15" width="70" x="2665" y="-2735" />
<rect fill="#84A1AE" height="70" rx="15" width="70" x="2665" y="-3835" />
<rect fill="#84A1AE" height="70" rx="15" width="70" x="2765" y="-535" />
<rect fill="#84A1AE" height="70" rx="15" width="70" x="2765" y="-1635" />
<rect fill="#84A1AE" height="70" rx="15" width="70" x="2765" y="-1835" />
<rect fill="#84A1AE" height="70" rx="15" width="70" x="2765" y="-1935" />
<rect fill="#84A1AE" height="70" rx="15" width="70" x="2765" y="-2235" />
<rect fill="#84A1AE" height="70" rx="15" width="70" x="2765" y="-3735" />
<rect fill="#84A1AE" height="70" rx="15" width="70" x="2765" y="-3835" />
<rect fill="#84A1AE" height="70" rx="15" width="70" x="2865" y="-535" />
<rect fill="#84A1AE" height="70" rx="15" width="70" x="2865" y="-3835" />
<rect fill="#84A1AE" height="70" rx="15" width="70" x="2965" y="-535" />
<rect fill="#84A1AE" height="70" rx="15" width="70" x="2965" y="-2635" />
<rect fill="#84A1AE" height="70" rx="15" width="70" x="2965" y="-3835" />
<rect fill="#84A1AE" height="70" rx="15" width="70" x="3065" y="-535" />
<rect fill="#84A1AE" height="70" rx="15" width="70" x="3065" y="-735" />
<rect fill="#84A1AE" height="70" rx="15" width="70" x="3065" y="-2535" />
<rect fill="#84A1AE" height="70" rx="15" width="70" x="3065" y="-3835" />
<rect fill="#84A1AE" height="70" rx="15" width="70" x="3165" y="-535" />
<rect fill="#84A1AE" height="70" rx="15" width="70" x="3165" y="-835" />
<rect fill="#84A1AE" height="70" rx="15" width="70" x="3165" y="-1935" />
<rect fill="#84A1AE" height="70" rx="15" width="70" x="3165" y="-2735" />
<rect fill="#84A1AE" height="70" rx="15" width="70" x="3165" y="-3135" />
<rect fill="#84A1AE" height="70" rx="15" width="70" x="3165" y="-3835" />
<rect fill="#84A1AE" height="70" rx="15" width="70" x="3265" y="-535" />
<rect fill="#84A1AE" height="70" rx="15" width="70" x="3265" y="-1035" />
<rect fill="#84A1AE" height="70" rx="15" width="70" x="3265" y="-1735" />
<rect fill="#84A1AE" height="70" rx="15" width="70" x="3265" y="-3835" />
<rect fill="#84A1AE" height="70" rx="15" width="70" x="3365" y="-535" />
<rect fill="#84A1AE" height="70" rx="15" width="70" x="3365" y="-1435" />
<rect fill="#84A1AE" height="70" rx="15" width="70" x="3365" y="-1935" />
<rect fill="#84A1AE" height="70" rx="15" width="70" x="3365" y="-2135" />
<rect fill="#84A1AE" height="70" rx="15" width="70" x="3365" y="-3835" />
<rect fill="#84A1AE" height="70" rx="15" width="70" x="3465" y="-535" />
<rect fill="#84A1AE" height="70" rx="15" width="70" x="3465" y="-2635" />
<rect fill="#84A1AE" height="70" rx="15" width="70" x="3465" y="-3835" />
<rect fill="#84A1AE" height="70" rx="15" width="70" x="3565" y="-535" />
<rect fill="#84A1AE" height="70" rx="15" width="70" x="3565" y="-635" />
<rect fill="#84A1AE" height="70" rx="15" width="70" x="3565" y="-2435" />
<rect fill="#84A1AE" height="70" rx="15" width="70" x="3565" y="-3235" />
<rect fill="#84A1AE" height="70" rx="15" width="70" x="3565" y="-3835" />
<rect fill="#84A1AE" height="70" rx="15" width="70" x="3665" y="-535" />
<rect fill="#84A1AE" height="70" rx="15" width="70" x="3665" y="-2135" />
<rect fill="#84A1AE" height="70" rx="15" width="70" x="3665" y="-2835" />
<rect fill="#84A1AE" height="70" rx="15" width="70" x="3665" y="-3135" />
<rect fill="#84A1AE" height="70" rx="15" width="70" x="3665" y="-3735" />
<rect fill="#84A1AE" height="70" rx="15" width="70" x="3665" y="-3835" />
<rect fill="#84A1AE" height="70" rx="15" width="70" x="3765" y="-535" />
<rect fill="#84A1AE" height="70" rx="15" width="70" x="3765" y="-635" />
<rect fill="#84A1AE" height="70" rx="15" width="70" x="3765" y="-735" />
<rect fill="#84A1AE" height="70" rx="15" width="70" x="3765" y="-835" />
<rect fill="#84A1AE" height="70" rx="15" width="70" x="3765" y="-935" />
<rect fill="#84A1AE" height="70" rx="15" width="70" x="3765" y="-1035" />
<rect fill="#84A1AE" height="70" rx="15" width="70" x="3765" y="-1135" />
<rect fill="#84A1AE" height="70" rx="15" width="70" x="3765" y="-1235" />
<rect fill="#84A1AE" height="70" rx="15" width="70" x="3765" y="-1335" />
<rect fill="#84A1AE" height="70" rx="15" width="70" x="3765" y="-1435" />
<rect fill="#84A1AE" height="70" rx="15" width="70" x="3765" y="-1535" />
<rect fill="#84A1AE" height="70" rx="15" width="70" x="3765" y="-1635" />
<rect fill="#84A1AE" height="70" rx="15" width="70" x="3765" y="-1735" />
<rect fill="#84A1AE" height="70" rx="15" width="70" x="3765" y="-1835" />
<rect fill="#84A1AE" height="70" rx="15" width="70" x="3765" y="-1935" />
<rect fill="#84A1AE" height="70" rx="15" width="70" x="3765" y="-2035" />
<rect fill="#84A1AE" height="70" rx="15" width="70" x="3765" y="-2135" />
<rect fill="#84A1AE" height="70" rx="15" width="70" x="3765" y="-2235" />
<rect fill="#84A1AE" height="70" rx="15" width="70" x="3765" y="-2335" />
<rect fill="#84A1AE" height="70" rx="15" width="70" x="3765" y="-2435" />
<rect fill="#84A1AE" height="70" rx="15" width="70" x="3765" y="-2535" />
<rect fill="#84A1AE" height="70" rx="15" width="70" x="3765" y="-2635" />
<rect fill="#84A1AE" height="70" rx="15" width="70" x="3765" y="-2735" />
<rect fill="#84A1AE" height="70" rx="15" width="70" x="3765" y="-2835" />
<rect fill="#84A1AE" height="70" rx="15" width="70" x="3765" y="-2935" />
<rect fill="#84A1AE" height="70" rx="15" width="70" x="3765" y="-3035" />
<rect fill="#84A1AE" height="70" rx="15" width="70" x="3765" y="-3135" />
<rect fill="#84A1AE" height="70" rx="15" width="70" x="3765" y="-3235" />
<rect fill="#84A1AE" height="70" rx="15" width="70" x="3765" y="-3335" />
<rect fill="#84A1AE" height="70" rx="15" width="70" x="3765" y="-3435" />
<rect fill="#84A1AE" height="70" rx="15" width="70" x="3765" y="-3535" />
<rect fill="#84A1AE" height="70" rx="15" width="70" x="3765" y="-3635" />
<rect fill="#84A1AE" height="70" rx="15" width="70" x="3765" y="-3735" />
<rect fill="#84A1AE" height="70" rx="15" width="70" x="3765" y="-3835" />
<circle cx="2500" cy="-1400" fill="#c1433c" r="35"> <animate attributeName="cy" dur="126.56000000000002s" keyTimes="0.0;0.0022075055;0.004415011;0.0066225166;0.0088300221;0.0110375276;0.0132450331;0.0154525386;0.0176600442;0.0198675497;0.0220750552;0.0242825607;0.0264900662;0.0286975717;0.0309050773;0.0331125828;0.0353200883;0.0375275938;0.0397350993;0.0419426049;0.0441501104;0.0993377483;0.1015452539;0.1037527594;0.1059602649;0.1081677704;0.119205298;0.1214128035;0.1236203091;0.1258278146;0.1280353201;0.1302428256;0.1324503311;0.1346578366;0.1368653422;0.1390728477;0.1412803532;0.1434878587;0.1456953642;0.1479028698;0.1501103753;0.1523178808;0.1545253863;0.1567328918;0.1589403974;0.1611479029;0.1633554084;0.1655629139;0.1677704194;0.1699779249;0.1721854305;0.174392936;0.1766004415;0.178807947;0.1810154525;0.1832229581;0.1854304636;0.1876379691;0.1986754967;0.2008830022;0.2052980132;0.2075055188;0.2097130243;0.2119205298;0.2141280353;0.2163355408;0.2185430464;0.2207505519;0.2229580574;0.2251655629;0.2273730684;0.229580574;0.2317880795;0.233995585;0.2362030905;0.2693156733;0.2715231788;0.2737306843;0.2759381898;0.2781456954;0.2803532009;0.2825607064;0.2847682119;0.2869757174;0.3245033113;0.3267108168;0.3289183223;0.3311258278;0.3377483444;0.3399558499;0.3443708609;0.3465783664;0.348785872;0.3509933775;0.353200883;0.3554083885;0.357615894;0.3598233996;0.3620309051;0.3642384106;0.3664459161;0.3686534216;0.3708609272;0.3730684327;0.3752759382;0.3774834437;0.3796909492;0.3841059603;0.3863134658;0.3885209713;0.3907284768;0.3929359823;0.3951434879;0.3973509934;0.3995584989;0.4017660044;0.4061810155;0.408388521;0.4105960265;0.412803532;0.4150110375;0.417218543;0.4194260486;0.4216335541;0.4238410596;0.4260485651;0.4282560706;0.4304635762;0.4326710817;0.4348785872;0.4437086093;0.4459161148;0.4481236203;0.4503311258;0.4525386313;0.4547461369;0.4569536424;0.4591611479;0.4613686534;0.4635761589;0.4657836645;0.46799117;0.4701986755;0.472406181;0.4746136865;0.4768211921;0.4790286976;0.4812362031;0.4834437086;0.4856512141;0.4878587196;0.4900662252;0.4922737307;0.4944812362;0.4966887417;0.4988962472;0.5011037528;0.5033112583;0.5055187638;0.5077262693;0.5099337748;0.5121412804;0.5143487859;0.5165562914;0.5408388521;0.5430463576;0.5452538631;0.5717439294;0.5739514349;0.5761589404;0.5783664459;0.5805739514;0.582781457;0.5849889625;0.587196468;0.5894039735;0.591611479;0.5938189845;0.5960264901;0.5982339956;0.6004415011;0.6026490066;0.6114790287;0.6136865342;0.6247240618;0.6269315673;0.6313465784;0.6335540839;0.6357615894;0.6379690949;0.6401766004;0.642384106;0.6445916115;0.646799117;0.6490066225;0.651214128;0.6534216336;0.6556291391;0.6578366446;0.6600441501;0.6622516556;0.6644591611;0.6666666667;0.6688741722;0.6710816777;0.6732891832;0.6754966887;0.6777041943;0.6799116998;0.6821192053;0.6843267108;0.7174392936;0.7196467991;0.7218543046;0.7240618102;0.7262693157;0.7284768212;0.7306843267;0.7328918322;0.7350993377;0.7373068433;0.7395143488;0.7417218543;0.7439293598;0.7461368653;0.7483443709;0.7505518764;0.7527593819;0.7549668874;0.7571743929;0.7593818985;0.761589404;0.7637969095;0.766004415;0.7682119205;0.7836644592;0.7858719647;0.8101545254;0.8123620309;0.8145695364;0.8167770419;0.8189845475;0.821192053;0.8233995585;0.825607064;0.8278145695;0.8300220751;0.8322295806;0.8344370861;0.8366445916;0.8388520971;0.8410596026;0.8432671082;0.8454746137;0.8476821192;0.8498896247;0.8520971302;0.8543046358;0.8565121413;0.8587196468;0.8609271523;0.8631346578;0.8653421634;0.8675496689;0.8697571744;0.8719646799;0.8741721854;0.8763796909;0.8785871965;0.880794702;0.8830022075;0.885209713;0.8874172185;0.8896247241;0.8918322296;0.8940397351;0.9139072848;0.9161147903;0.9183222958;0.9205298013;0.9227373068;0.9249448124;0.9271523179;0.9293598234;0.9315673289;0.9337748344;0.93598234;0.9381898455;0.940397351;0.9426048565;0.944812362;0.9470198675;0.9492273731;0.9514348786;0.9536423841;0.9558498896;0.9580573951;0.9602649007;0.9624724062;0.9646799117;0.9668874172;0.9690949227;0.9713024283;0.9735099338;0.9757174393;0.9779249448;0.9801324503;0.9823399558;0.9845474614;0.9867549669;0.9889624724;0.9911699779;0.9933774834;0.995584989;1.0" repeatCount="indefinite" values="-1400;-1400;-1400;-1500;-1600;-1700;-1800;-1900;-2000;-2100;-2200;-2300;-2400;-2400;-2500;-2600;-2600;-2700;-2800;-2900;-3000;-3000;-2900;-2900;-2800;-2700;-2700;-2600;-2500;-2400;-2300;-2200;-2100;-2000;-2000;-1900;-1800;-1700;-1700;-1600;-1500;-1400;-1300;-1200;-1100;-1000;-1100;-1200;-1300;-1400;-1500;-1600;-1700;-1800;-1900;-2000;-2000;-2100;-2100;-2000;-2000;-1900;-1800;-1700;-1700;-1600;-1500;-1600;-1700;-1700;-1800;-1900;-2000;-2100;-2200;-2200;-2300;-2200;-2100;-2000;-1900;-1800;-1800;-1700;-1700;-1600;-1600;-1500;-1500;-1400;-1400;-1300;-1300;-1200;-1300;-1400;-1500;-1500;-1600;-1700;-1700;-1800;-1800;-1900;-1900;-2000;-2100;-2100;-2200;-2300;-2300;-2400;-2400;-2500;-2500;-2600;-2600;-2700;-2600;-2500;-2400;-2300;-2200;-2100;-2100;-2000;-1900;-1800;-1700;-1600;-1600;-1500;-1500;-1400;-1300;-1300;-1200;-1300;-1400;-1500;-1600;-1700;-1800;-1900;-2000;-2100;-2200;-2300;-2400;-2500;-2600;-2700;-2800;-2900;-3000;-2900;-2900;-2800;-2800;-2700;-2600;-2600;-2500;-2400;-2400;-2300;-2200;-2200;-2100;-2000;-1900;-1800;-1700;-1600;-1500;-1400;-1300;-1200;-1100;-1000;-900;-800;-800;-700;-700;-800;-800;-700;-800;-900;-1000;-1100;-1200;-1300;-1400;-1500;-1600;-1700;-1700;-1800;-1900;-2000;-2000;-2100;-2200;-2300;-2400;-2500;-2600;-2700;-2800;-2800;-2700;-2600;-2500;-2400;-2300;-2200;-2100;-2000;-1900;-1800;-1800;-1700;-1600;-1500;-1400;-1300;-1200;-1100;-1000;-900;-900;-800;-900;-900;-800;-800;-700;-700;-600;-700;-700;-800;-900;-1000;-1100;-1100;-1200;-1300;-1400;-1500;-1600;-1700;-1800;-1900;-2000;-2100;-2200;-2300;-2400;-2500;-2600;-2700;-2800;-2900;-2900;-3000;-3100;-3200;-3300;-3400;-3500;-3600;-3600;-3700;-3700;-3600;-3500;-3400;-3300;-3200;-3100;-3000;-2900;-2900;-2800;-2700;-2600;-2500;-2400;-2400;-2300;-2200;-2100;-2000;-1900;-1800;-1700;-1600;-1500;-1400;-1300;-1200;-1200;-1100;-1100;-1000;-1000;-900;-900;-800;-700;-600;-600"/>
<animate attributeName="cx" dur="126.56000000000002s" keyTimes="0.0;0.0022075055;0.004415011;0.0264900662;0.0286975717;0.0331125828;0.0353200883;0.0441501104;0.0463576159;0.0485651214;0.0507726269;0.0529801325;0.055187638;0.0573951435;0.059602649;0.0618101545;0.06401766;0.0662251656;0.0684326711;0.0706401766;0.0728476821;0.0750551876;0.0772626932;0.0794701987;0.0816777042;0.0838852097;0.0860927152;0.0883002208;0.0905077263;0.0927152318;0.0949227373;0.0971302428;0.0993377483;0.1015452539;0.1037527594;0.1081677704;0.1103752759;0.1125827815;0.114790287;0.1169977925;0.119205298;0.1346578366;0.1368653422;0.1434878587;0.1456953642;0.1832229581;0.1854304636;0.1876379691;0.1898454746;0.1920529801;0.1942604857;0.1964679912;0.1986754967;0.2008830022;0.2030905077;0.2052980132;0.2119205298;0.2141280353;0.2229580574;0.2251655629;0.2362030905;0.238410596;0.2406181015;0.2428256071;0.2450331126;0.2472406181;0.2494481236;0.2516556291;0.2538631347;0.2560706402;0.2582781457;0.2604856512;0.2626931567;0.2649006623;0.2671081678;0.2693156733;0.2825607064;0.2847682119;0.2869757174;0.289183223;0.2913907285;0.293598234;0.2958057395;0.298013245;0.3002207506;0.3024282561;0.3046357616;0.3068432671;0.3090507726;0.3112582781;0.3134657837;0.3156732892;0.3178807947;0.3200883002;0.3222958057;0.3245033113;0.3267108168;0.3289183223;0.3311258278;0.3333333333;0.3355408389;0.3377483444;0.3399558499;0.3421633554;0.3443708609;0.3465783664;0.348785872;0.357615894;0.3598233996;0.3642384106;0.3664459161;0.3686534216;0.3708609272;0.3730684327;0.3752759382;0.3796909492;0.3818984547;0.3841059603;0.3885209713;0.3907284768;0.3929359823;0.3951434879;0.3973509934;0.3995584989;0.4017660044;0.4039735099;0.4061810155;0.4216335541;0.4238410596;0.4348785872;0.4370860927;0.4392935982;0.4415011038;0.4437086093;0.4459161148;0.4481236203;0.4525386313;0.4547461369;0.4988962472;0.5011037528;0.5033112583;0.5055187638;0.5099337748;0.5121412804;0.5165562914;0.5187637969;0.5209713024;0.5231788079;0.5253863135;0.527593819;0.5298013245;0.53200883;0.5342163355;0.5364238411;0.5386313466;0.5408388521;0.5452538631;0.5474613687;0.5496688742;0.5518763797;0.5540838852;0.5562913907;0.5584988962;0.5607064018;0.5629139073;0.5651214128;0.5673289183;0.5695364238;0.5717439294;0.6026490066;0.6048565121;0.6070640177;0.6092715232;0.6114790287;0.6136865342;0.6158940397;0.6181015453;0.6203090508;0.6225165563;0.6247240618;0.6269315673;0.6291390728;0.6313465784;0.6556291391;0.6578366446;0.6644591611;0.6666666667;0.6843267108;0.6865342163;0.6887417219;0.6909492274;0.6931567329;0.6953642384;0.6975717439;0.6997792494;0.701986755;0.7041942605;0.706401766;0.7086092715;0.710816777;0.7130242826;0.7152317881;0.7174392936;0.7395143488;0.7417218543;0.761589404;0.7637969095;0.7682119205;0.770419426;0.7726269316;0.7748344371;0.7770419426;0.7792494481;0.7814569536;0.7836644592;0.7858719647;0.7880794702;0.7902869757;0.7924944812;0.7947019868;0.7969094923;0.7991169978;0.8013245033;0.8035320088;0.8057395143;0.8079470199;0.8101545254;0.8123620309;0.8145695364;0.8189845475;0.821192053;0.8300220751;0.8322295806;0.8719646799;0.8741721854;0.8896247241;0.8918322296;0.8940397351;0.8962472406;0.8984547461;0.9006622517;0.9028697572;0.9050772627;0.9072847682;0.9094922737;0.9116997792;0.9139072848;0.9315673289;0.9337748344;0.944812362;0.9470198675;0.9735099338;0.9757174393;0.9779249448;0.9801324503;0.9823399558;0.9845474614;0.9867549669;0.9889624724;0.995584989;0.9977924945;1.0" repeatCount="indefinite" values="2500;2500;2600;2600;2700;2700;2800;2800;2900;3000;3100;3200;3300;3400;3500;3400;3300;3200;3100;3000;2900;2800;2700;2600;2500;2400;2300;2200;2100;2000;1900;1800;1700;1700;1600;1600;1500;1400;1300;1200;1100;1100;1200;1200;1300;1300;1400;1400;1500;1600;1700;1800;1900;1900;2000;2100;2100;2200;2200;2300;2300;2200;2100;2000;1900;1800;1700;1600;1500;1400;1300;1200;1100;1000;900;800;800;900;900;1000;1100;1200;1300;1400;1500;1600;1700;1800;1900;2000;2100;2200;2300;2400;2500;2600;2600;2700;2700;2800;2900;3000;3000;3100;3200;3200;3300;3300;3200;3200;3100;3100;3000;3000;2900;2900;2800;2700;2700;2600;2600;2500;2500;2400;2400;2300;2200;2200;2300;2300;2400;2500;2600;2700;2700;2800;2800;2900;2900;3000;3000;3100;3100;3200;3200;3100;3000;2900;2800;2700;2600;2500;2400;2300;2200;2100;2100;2000;1900;1800;1700;1600;1500;1400;1300;1200;1100;1000;900;900;1000;1100;1200;1300;1300;1400;1500;1600;1700;1800;1800;1900;2000;2000;2100;2100;2200;2200;2300;2400;2500;2600;2700;2800;2900;3000;3100;3200;3300;3400;3500;3400;3300;3300;3200;3200;3300;3300;3200;3100;3000;2900;2800;2700;2600;2600;2500;2400;2300;2200;2100;2000;1900;1800;1700;1600;1500;1500;1400;1400;1500;1500;1600;1600;1700;1700;1800;1800;1900;2000;2100;2200;2300;2400;2500;2600;2700;2700;2800;2800;2900;2900;3000;3000;3100;3100;3200;3200;3300;3300;3200;3200"/>
<animate attributeName="visibility" dur="126.56000000000002s" keyTimes="0.0;0.0022075055;1.0" repeatCount="indefinite" values="visible;visible;visible"/> </circle>
<circle cx="3000" cy="-1900" fill="#2e6f9e" r="35"> <animate attributeName="cy" dur="126.56000000000002s" keyTimes="0.0;0.0022075055;0.004415011;0.0066225166;0.0088300221;0.0110375276;0.0132450331;0.0154525386;0.0176600442;0.0198675497;0.0220750552;0.0309050773;0.0331125828;0.0353200883;0.0375275938;0.0397350993;0.0419426049;0.0441501104;0.0463576159;0.0485651214;0.0507726269;0.0529801325;0.055187638;0.0772626932;0.0794701987;0.0949227373;0.0971302428;0.1059602649;0.1081677704;0.1103752759;0.1125827815;0.114790287;0.1169977925;0.119205298;0.1214128035;0.1236203091;0.1258278146;0.1280353201;0.1302428256;0.1324503311;0.1346578366;0.1368653422;0.1390728477;0.1412803532;0.1611479029;0.1633554084;0.1655629139;0.1677704194;0.1699779249;0.1721854305;0.1810154525;0.1832229581;0.1854304636;0.1876379691;0.2030905077;0.2052980132;0.2075055188;0.2097130243;0.2119205298;0.2141280353;0.2163355408;0.2185430464;0.2207505519;0.2229580574;0.2251655629;0.2273730684;0.229580574;0.2317880795;0.233995585;0.2362030905;0.238410596;0.2406181015;0.2428256071;0.2450331126;0.2472406181;0.2494481236;0.2516556291;0.2538631347;0.2560706402;0.2582781457;0.2604856512;0.2626931567;0.2671081678;0.2693156733;0.2715231788;0.2737306843;0.2759381898;0.2781456954;0.2803532009;0.2825607064;0.2847682119;0.2869757174;0.293598234;0.2958057395;0.3068432671;0.3090507726;0.3112582781;0.3134657837;0.3156732892;0.3178807947;0.3200883002;0.3222958057;0.3245033113;0.3267108168;0.3289183223;0.3311258278;0.3333333333;0.3355408389;0.3377483444;0.3399558499;0.3421633554;0.3443708609;0.348785872;0.3509933775;0.3554083885;0.357615894;0.3598233996;0.3620309051;0.3642384106;0.3664459161;0.3686534216;0.3708609272;0.3730684327;0.3752759382;0.3774834437;0.3796909492;0.3818984547;0.417218543;0.4194260486;0.4216335541;0.4238410596;0.4260485651;0.4282560706;0.4304635762;0.4326710817;0.4348785872;0.4370860927;0.4392935982;0.4415011038;0.4437086093;0.4459161148;0.4481236203;0.4503311258;0.5077262693;0.5099337748;0.5121412804;0.5143487859;0.5165562914;0.5187637969;0.5209713024;0.5231788079;0.5253863135;0.527593819;0.5298013245;0.53200883;0.5342163355;0.5364238411;0.5386313466;0.5408388521;0.5430463576;0.5452538631;0.5474613687;0.5496688742;0.5540838852;0.5562913907;0.5584988962;0.5607064018;0.5629139073;0.5673289183;0.5695364238;0.5783664459;0.5805739514;0.5849889625;0.587196468;0.5894039735;0.591611479;0.5938189845;0.5960264901;0.5982339956;0.6004415011;0.6026490066;0.6048565121;0.6070640177;0.6092715232;0.6114790287;0.6136865342;0.6158940397;0.6181015453;0.6203090508;0.6225165563;0.6247240618;0.6269315673;0.6291390728;0.6335540839;0.6357615894;0.6490066225;0.651214128;0.6534216336;0.6556291391;0.6578366446;0.6600441501;0.6622516556;0.6644591611;0.6666666667;0.6688741722;0.6710816777;0.6732891832;0.6754966887;0.6777041943;0.6799116998;0.6821192053;0.6843267108;0.6865342163;0.6887417219;0.6909492274;0.6931567329;0.6953642384;0.6975717439;0.6997792494;0.701986755;0.7041942605;0.706401766;0.7086092715;0.710816777;0.7130242826;0.7152317881;0.7174392936;0.7196467991;0.7218543046;0.7240618102;0.7262693157;0.7284768212;0.7306843267;0.7328918322;0.7350993377;0.7395143488;0.7417218543;0.7439293598;0.7461368653;0.7483443709;0.7505518764;0.7527593819;0.7549668874;0.7571743929;0.7770419426;0.7792494481;0.7814569536;0.7836644592;0.7858719647;0.7924944812;0.7947019868;0.8079470199;0.8101545254;0.8123620309;0.8145695364;0.8167770419;0.8189845475;0.821192053;0.8233995585;0.825607064;0.8278145695;0.8300220751;0.8322295806;0.8388520971;0.8410596026;0.8432671082;0.8520971302;0.8543046358;0.8587196468;0.8609271523;0.8631346578;0.8653421634;0.8675496689;0.8697571744;0.8719646799;0.8741721854;0.8830022075;0.885209713;0.9227373068;0.9249448124;0.9271523179;0.9293598234;0.93598234;0.9381898455;0.9426048565;0.944812362;0.9470198675;0.9492273731;0.9514348786;0.9536423841;0.9558498896;0.9580573951;0.9602649007;0.9624724062;1.0" repeatCount="indefinite" values="-1900;-1900;-2000;-2100;-2200;-2300;-2300;-2400;-2500;-2500;-2600;-2600;-2700;-2800;-2900;-3000;-3100;-3200;-3300;-3400;-3500;-3600;-3700;-3700;-3600;-3600;-3500;-3500;-3400;-3300;-3200;-3100;-3000;-2900;-2900;-2800;-2700;-2600;-2600;-2500;-2500;-2600;-2600;-2700;-2700;-2800;-2900;-2900;-3000;-3100;-3100;-3200;-3300;-3400;-3400;-3300;-3200;-3100;-3000;-2900;-2800;-2700;-2600;-2500;-2500;-2400;-2300;-2300;-2200;-2100;-2200;-2200;-2100;-2000;-1900;-1800;-1700;-1600;-1500;-1400;-1300;-1400;-1400;-1300;-1200;-1200;-1100;-1200;-1300;-1400;-1400;-1500;-1500;-1600;-1600;-1500;-1400;-1400;-1300;-1200;-1100;-1000;-900;-800;-700;-800;-900;-1000;-1100;-1200;-1300;-1400;-1400;-1500;-1500;-1600;-1700;-1800;-1900;-2000;-2100;-2200;-2300;-2400;-2500;-2600;-2700;-2700;-2600;-2600;-2700;-2700;-2800;-2900;-2900;-3000;-3100;-3200;-3300;-3400;-3400;-3500;-3600;-3600;-3500;-3400;-3300;-3200;-3100;-3000;-2900;-2800;-2700;-2700;-2600;-2500;-2400;-2300;-2200;-2100;-2000;-1900;-1800;-1800;-1900;-1900;-2000;-2100;-2100;-2200;-2200;-2300;-2300;-2200;-2100;-2100;-2200;-2200;-2300;-2300;-2200;-2300;-2400;-2500;-2600;-2600;-2700;-2800;-2900;-3000;-3100;-3100;-3000;-3000;-3100;-3100;-3200;-3200;-3300;-3200;-3200;-3100;-3000;-2900;-2800;-2700;-2600;-2500;-2400;-2300;-2200;-2100;-2000;-1900;-1800;-1800;-1700;-1600;-1600;-1500;-1400;-1300;-1200;-1100;-1100;-1000;-1000;-900;-900;-800;-900;-800;-900;-1000;-1100;-1100;-1200;-1300;-1200;-1300;-1400;-1500;-1600;-1700;-1700;-1600;-1700;-1800;-1900;-1900;-1800;-1800;-1700;-1600;-1500;-1400;-1300;-1200;-1200;-1100;-1100;-1000;-1100;-1100;-1200;-1300;-1300;-1200;-1200;-1300;-1400;-1400;-1300;-1300;-1400;-1300;-1300;-1400;-1400;-1500;-1500;-1400;-1400;-1500;-1500;-1600;-1600;-1700;-1800;-1900;-1900;-2000;-2100;-2200;-2200"/>
<animate attributeName="cx" dur="126.56000000000002s" keyTimes="0.0;0.0022075055;0.0176600442;0.0198675497;0.0220750552;0.0242825607;0.0264900662;0.0286975717;0.0309050773;0.055187638;0.0573951435;0.059602649;0.0618101545;0.06401766;0.0662251656;0.0684326711;0.0706401766;0.0728476821;0.0750551876;0.0772626932;0.0794701987;0.0816777042;0.0838852097;0.0860927152;0.0883002208;0.0905077263;0.0927152318;0.0971302428;0.0993377483;0.1015452539;0.1037527594;0.1059602649;0.119205298;0.1214128035;0.1280353201;0.1302428256;0.1368653422;0.1390728477;0.1412803532;0.1434878587;0.1456953642;0.1479028698;0.1501103753;0.1523178808;0.1545253863;0.1567328918;0.1589403974;0.1611479029;0.1655629139;0.1677704194;0.1721854305;0.174392936;0.1766004415;0.178807947;0.1810154525;0.1876379691;0.1898454746;0.1920529801;0.1942604857;0.1964679912;0.1986754967;0.2008830022;0.2030905077;0.2229580574;0.2251655629;0.229580574;0.2317880795;0.2626931567;0.2649006623;0.2671081678;0.2715231788;0.2737306843;0.2825607064;0.2847682119;0.2869757174;0.289183223;0.2913907285;0.293598234;0.2958057395;0.298013245;0.3002207506;0.3024282561;0.3046357616;0.3068432671;0.3112582781;0.3134657837;0.3443708609;0.3465783664;0.3509933775;0.353200883;0.3554083885;0.3818984547;0.3841059603;0.3863134658;0.3885209713;0.3907284768;0.3929359823;0.3951434879;0.3973509934;0.3995584989;0.4017660044;0.4039735099;0.4061810155;0.408388521;0.4105960265;0.412803532;0.4150110375;0.417218543;0.4194260486;0.4216335541;0.4238410596;0.4260485651;0.4304635762;0.4326710817;0.4503311258;0.4525386313;0.4547461369;0.4569536424;0.4591611479;0.4613686534;0.4635761589;0.4657836645;0.46799117;0.4701986755;0.472406181;0.4746136865;0.4768211921;0.4790286976;0.4812362031;0.4834437086;0.4856512141;0.4878587196;0.4900662252;0.4922737307;0.4944812362;0.4966887417;0.4988962472;0.5011037528;0.5033112583;0.5055187638;0.5077262693;0.527593819;0.5298013245;0.5496688742;0.5518763797;0.5540838852;0.5562913907;0.5584988962;0.5629139073;0.5651214128;0.5673289183;0.5695364238;0.5717439294;0.5739514349;0.5761589404;0.5783664459;0.5805739514;0.582781457;0.5849889625;0.5894039735;0.591611479;0.5938189845;0.5960264901;0.5982339956;0.6004415011;0.6114790287;0.6136865342;0.6247240618;0.6269315673;0.6291390728;0.6313465784;0.6335540839;0.6357615894;0.6379690949;0.6401766004;0.642384106;0.6445916115;0.646799117;0.6490066225;0.651214128;0.6534216336;0.6578366446;0.6600441501;0.6909492274;0.6931567329;0.6975717439;0.6997792494;0.710816777;0.7130242826;0.7152317881;0.7174392936;0.7196467991;0.7218543046;0.7350993377;0.7373068433;0.7395143488;0.7571743929;0.7593818985;0.761589404;0.7637969095;0.766004415;0.7682119205;0.770419426;0.7726269316;0.7748344371;0.7770419426;0.7880794702;0.7902869757;0.7924944812;0.7947019868;0.7969094923;0.7991169978;0.8013245033;0.8035320088;0.8057395143;0.821192053;0.8233995585;0.825607064;0.8278145695;0.8322295806;0.8344370861;0.8366445916;0.8432671082;0.8454746137;0.8476821192;0.8498896247;0.8520971302;0.8543046358;0.8565121413;0.8587196468;0.8631346578;0.8653421634;0.8675496689;0.8697571744;0.8763796909;0.8785871965;0.880794702;0.8830022075;0.885209713;0.8874172185;0.8896247241;0.8918322296;0.8940397351;0.8962472406;0.8984547461;0.9006622517;0.9028697572;0.9050772627;0.9072847682;0.9094922737;0.9116997792;0.9139072848;0.9161147903;0.9183222958;0.9205298013;0.9227373068;0.9249448124;0.9271523179;0.9293598234;0.9315673289;0.9337748344;0.93598234;0.9381898455;0.940397351;0.9426048565;0.944812362;0.9470198675;0.9624724062;0.9646799117;0.9668874172;0.9690949227;0.9713024283;0.9735099338;0.9757174393;0.9779249448;0.9801324503;0.9823399558;0.9845474614;0.9867549669;0.9889624724;0.9911699779;0.9933774834;0.995584989;0.9977924945;1.0" repeatCount="indefinite" values="3000;3000;3000;2900;2900;2800;2700;2700;2600;2600;2700;2600;2500;2400;2300;2200;2100;2000;1900;1800;1800;1700;1600;1500;1400;1300;1200;1200;1100;1000;900;800;800;700;700;600;600;700;700;800;900;1000;1100;1200;1300;1400;1500;1600;1600;1700;1700;1800;1900;2000;2100;2100;2200;2300;2400;2500;2600;2700;2800;2800;2700;2700;2600;2600;2500;2600;2600;2500;2500;2600;2600;2700;2800;2700;2700;2600;2500;2400;2300;2200;2200;2100;2100;2200;2200;2300;2400;2400;2300;2200;2100;2000;1900;1800;1700;1600;1500;1400;1300;1200;1100;1100;1000;900;900;800;800;700;700;800;800;900;1000;1100;1200;1300;1400;1500;1600;1700;1800;1900;2000;2100;2200;2300;2200;2100;2000;1900;1800;1700;1600;1500;1400;1300;1200;1200;1300;1300;1400;1500;1500;1600;1600;1700;1800;1800;1900;2000;2100;2200;2200;2300;2400;2400;2500;2500;2600;2600;2700;2700;2600;2600;2500;2500;2400;2300;2300;2200;2100;2000;1900;1800;1700;1700;1800;1800;1700;1700;1600;1600;1700;1700;1800;1800;1700;1700;1800;1800;1900;2000;2000;2100;2200;2300;2400;2500;2600;2700;2800;2900;2900;3000;3100;3100;3200;3300;3400;3500;3600;3600;3700;3700;3600;3600;3500;3400;3400;3300;3300;3200;3100;3100;3000;2900;2900;3000;3000;2900;2900;2800;2700;2600;2600;2500;2400;2400;2300;2200;2100;2000;1900;1800;1700;1600;1500;1400;1300;1200;1100;1000;1000;900;900;800;700;600;600;700;800;800;700;700;800;900;1000;1100;1200;1300;1400;1500;1600;1700;1800;1900;2000;2100;2200;2300;2300"/>
<animate attributeName="visibility" dur="126.56000000000002s" keyTimes="0.0;0.0022075055;1.0" repeatCount="indefinite" values="visible;visible;visible"/> </circle>
<circle cx="3500" cy="-3000" fill="none" r="35" stroke="#c1433c" stroke-width="10"> <animate attributeName="cy" dur="126.56000000000002s" keyTimes="0.0;0.0022075055;0.0573951435;0.059602649;0.1169977925;0.119205298;0.1589403974;0.1611479029;0.1832229581;0.1854304636;0.2163355408;0.2185430464;0.233995585;0.2362030905;0.2693156733;0.2715231788;0.289183223;0.2913907285;0.348785872;0.3509933775;0.4061810155;0.408388521;0.4547461369;0.4569536424;0.4944812362;0.4966887417;0.5121412804;0.5143487859;0.6004415011;0.6026490066;0.6313465784;0.6335540839;0.6357615894;0.710816777;0.7130242826;0.7549668874;0.7571743929;0.7637969095;0.766004415;0.8145695364;0.8167770419;0.9116997792;0.9139072848;0.9668874172;0.9690949227;0.9933774834;0.995584989;1.0" repeatCount="indefinite" values="-3000;-3000;-3000;-2700;-2700;-1000;-1000;-2000;-2000;-1500;-1500;-2200;-2200;-2300;-2300;-1700;-1700;-1200;-1200;-2700;-2700;-1200;-1200;-3000;-3000;-2500;-2500;-800;-800;-700;-700;-800;-2800;-2800;-1100;-1100;-800;-800;-600;-600;-3700;-3700;-1400;-1400;-600;-600;-1300;-1300"/>
<animate attributeName="cx" dur="126.56000000000002s" keyTimes="0.0;0.0022075055;0.0573951435;0.059602649;0.1059602649;0.1081677704;0.1169977925;0.119205298;0.1589403974;0.1611479029;0.1832229581;0.1854304636;0.2163355408;0.2185430464;0.233995585;0.2362030905;0.2693156733;0.2715231788;0.289183223;0.2913907285;0.348785872;0.3509933775;0.4061810155;0.408388521;0.4944812362;0.4966887417;0.5121412804;0.5143487859;0.6004415011;0.6026490066;0.6335540839;0.6357615894;0.710816777;0.7130242826;0.7549668874;0.7571743929;0.7637969095;0.766004415;0.8145695364;0.8167770419;0.9116997792;0.9139072848;0.9668874172;0.9690949227;0.9933774834;0.995584989;1.0" repeatCount="indefinite" values="3500;3500;3500;1600;1600;1100;1100;1300;1300;1400;1400;2200;2200;2300;2300;800;800;1100;1100;3300;3300;2200;2200;2900;2900;3200;3200;900;900;2000;2000;3500;3500;3200;3200;3300;3300;1400;1400;2700;2700;2900;2900;3300;3300;1600;1600"/>
<animate attributeName="visibility" dur="126.56000000000002s" keyTimes="0.0;0.0022075055;1.0" repeatCount="indefinite" values="visible;visible;visible"/> </circle>
<circle cx="2600" cy="-2600" fill="none" r="35" stroke="#2e6f9e" stroke-width="10"> <animate attributeName="cy" dur="126.56000000000002s" keyTimes="0.0;0.0022075055;0.0286975717;0.0309050773;0.055187638;0.0573951435;0.1302428256;0.1324503311;0.2008830022;0.2030905077;0.2737306843;0.2759381898;0.289183223;0.2913907285;0.3046357616;0.3068432671;0.3267108168;0.3289183223;0.353200883;0.3554083885;0.4238410596;0.4260485651;0.4812362031;0.4834437086;0.5187637969;0.5209713024;0.5496688742;0.5518763797;0.5982339956;0.6004415011;0.6534216336;0.6556291391;0.7218543046;0.7240618102;0.7902869757;0.7924944812;0.8278145695;0.8300220751;0.9337748344;0.93598234;1.0" repeatCount="indefinite" values="-2600;-2600;-2600;-3700;-3700;-2500;-2500;-3400;-3400;-1100;-1100;-1500;-1500;-1600;-1600;-700;-700;-1500;-1500;-2700;-2700;-3600;-3600;-3000;-3000;-1800;-1800;-2300;-2300;-3300;-3300;-800;-800;-1900;-1900;-1000;-1000;-1400;-1400;-2200;-2200"/>
<animate attributeName="cx" dur="126.56000000000002s" keyTimes="0.0;0.0022075055;0.0286975717;0.0309050773;0.055187638;0.0573951435;0.1302428256;0.1324503311;0.2008830022;0.2030905077;0.2737306843;0.2759381898;0.289183223;0.2913907285;0.3046357616;0.3068432671;0.3267108168;0.3289183223;0.353200883;0.3554083885;0.4238410596;0.4260485651;0.4812362031;0.4834437086;0.5187637969;0.5209713024;0.5496688742;0.5518763797;0.5982339956;0.6004415011;0.7218543046;0.7240618102;0.7902869757;0.7924944812;0.8278145695;0.8300220751;0.9337748344;0.93598234;1.0" repeatCount="indefinite" values="2600;2600;2600;2700;2700;600;600;2800;2800;2500;2500;2800;2800;2200;2200;2100;2100;2400;2400;700;700;2300;2300;1200;1200;1400;1400;2700;2700;1800;1800;3100;3100;3600;3600;600;600;2400;2400"/>
<animate attributeName="visibility" dur="126.56000000000002s" keyTimes="0.0;0.0022075055;1.0" repeatCount="indefinite" values="visible;visible;visible"/> </circle>
</svg>