<?xml version="1.0" encoding="UTF-8"?>
        <svg xmlns="http://www.w3.org/2000/svg" xmlns:xlink="http://www.w3.org/1999/xlink"
             width="512" height="512" viewBox="0 -3500 3500 3500">
<defs>

        <rect id="obstacle" width="70" height="70" fill="#84A1AE" rx="15"/>
        <style>
        .line {stroke: #84A1AE; stroke-width: 10;}
        .agent {r: 35;}
        .target {fill: none; stroke-width: 10; r: 35;}
        </style>
        
</defs>

<line class="line" x1="-50.0" x2="-50.0" y1="0" y2="-3500" />
<line class="line" x1="50.0" x2="50.0" y1="0" y2="-3500" />
<line class="line" x1="150.0" x2="150.0" y1="0" y2="-3500" />
<line class="line" x1="250.0" x2="250.0" y1="0" y2="-3500" />
<line class="line" x1="350.0" x2="350.0" y1="0" y2="-3500" />
<line class="line" x1="450.0" x2="450.0" y1="0" y2="-3500" />
<line class="line" x1="550.0" x2="550.0" y1="0" y2="-3500" />
<line class="line" x1="650.0" x2="650.0" y1="0" y2="-3500" />
<line class="line" x1="750.0" x2="750.0" y1="0" y2="-3500" />
<line class="line" x1="850.0" x2="850.0" y1="0" y2="-3500" />
<line class="line" x1="950.0" x2="950.0" y1="0" y2="-3500" />
<line class="line" x1="1050.0" x2="1050.0" y1="0" y2="-3500" />
<line class="line" x1="1150.0" x2="1150.0" y1="0" y2="-3500" />
<line class="line" x1="1250.0" x2="1250.0" y1="0" y2="-3500" />
<line class="line" x1="1350.0" x2="1350.0" y1="0" y2="-3500" />
<line class="line" x1="1450.0" x2="1450.0" y1="0" y2="-3500" />
<line class="line" x1="1550.0" x2="1550.0" y1="0" y2="-3500" />
<line class="line" x1="1650.0" x2="1650.0" y1="0" y2="-3500" />
<line class="line" x1="1750.0" x2="1750.0" y1="0" y2="-3500" />
<line class="line" x1="1850.0" x2="1850.0" y1="0" y2="-3500" />
<line class="line" x1="1950.0" x2="1950.0" y1="0" y2="-3500" />
<line class="line" x1="2050.0" x2="2050.0" y1="0" y2="-3500" />
<line class="line" x1="2150.0" x2="2150.0" y1="0" y2="-3500" />
<line class="line" x1="2250.0" x2="2250.0" y1="0" y2="-3500" />
<line class="line" x1="2350.0" x2="2350.0" y1="0" y2="-3500" />
<line class="line" x1="2450.0" x2="2450.0" y1="0" y2="-3500" />
<line class="line" x1="2550.0" x2="2550.0" y1="0" y2="-3500" />
<line class="line" x1="2650.0" x2="2650.0" y1="0" y2="-3500" />
<line class="line" x1="2750.0" x2="2750.0" y1="0" y2="-3500" />
<line class="line" x1="2850.0" x2="2850.0" y1="0" y2="-3500" />
<line class="line" x1="2950.0" x2="2950.0" y1="0" y2="-3500" />
<line class="line" x1="3050.0" x2="3050.0" y1="0" y2="-3500" />
<line class="line" x1="3150.0" x2="3150.0" y1="0" y2="-3500" />
<line class="line" x1="3250.0" x2="3250.0" y1="0" y2="-3500" />
<line class="line" x1="3350.0" x2="3350.0" y1="0" y2="-3500" />
<line class="line" x1="3450.0" x2="3450.0" y1="0" y2="-3500" />
<line class="line" x1="0" x2="3500" y1="50.0" y2="50.0" />
<line class="line" x1="0" x2="3500" y1="-50.0" y2="-50.0" />
<line class="line" x1="0" x2="3500" y1="-150.0" y2="-150.0" />
<line class="line" x1="0" x2="3500" y1="-250.0" y2="-250.0" />
<line class="line" x1="0" x2="3500" y1="-350.0" y2="-350.0" />
<line class="line" x1="0" x2="3500" y1="-450.0" y2="-450.0" />
<line class="line" x1="0" x2="3500" y1="-550.0" y2="-550.0" />
<line class="line" x1="0" x2="3500" y1="-650.0" y2="-650.0" />
<line class="line" x1="0" x2="3500" y1="-750.0" y2="-750.0" />
<line class="line" x1="0" x2="3500" y1="-850.0" y2="-850.0" />
<line class="line" x1="0" x2="3500" y1="-950.0" y2="-950.0" />
<line class="line" x1="0" x2="3500" y1="-1050.0" y2="-1050.0" />
<line class="line" x1="0" x2="3500" y1="-1150.0" y2="-1150.0" />
<line class="line" x1="0" x2="3500" y1="-1250.0" y2="-1250.0" />
<line class="line" x1="0" x2="3500" y1="-1350.0" y2="-1350.0" />
<line class="line" x1="0" x2="3500" y1="-1450.0" y2="-1450.0" />
<line class="line" x1="0" x2="3500" y1="-1550.0" y2="-1550.0" />
<line class="line" x1="0" x2="3500" y1="-1650.0" y2="-1650.0" />
<line class="line" x1="0" x2="3500" y1="-1750.0" y2="-1750.0" />
<line class="line" x1="0" x2="3500" y1="-1850.0" y2="-1850.0" />
<line class="line" x1="0" x2="3500" y1="-1950.0" y2="-1950.0" />
<line class="line" x1="0" x2="3500" y1="-2050.0" y2="-2050.0" />
<line class="line" x1="0" x2="3500" y1="-2150.0" y2="-2150.0" />
<line class="line" x1="0" x2="3500" y1="-2250.0" y2="-2250.0" />
<line class="line" x1="0" x2="3500" y1="-2350.0" y2="-2350.0" />
<line class="line" x1="0" x2="3500" y1="-2450.0" y2="-2450.0" />
<line class="line" x1="0" x2="3500" y1="-2550.0" y2="-2550.0" />
<line class="line" x1="0" x2="3500" y1="-2650.0" y2="-2650.0" />
<line class="line" x1="0" x2="3500" y1="-2750.0" y2="-2750.0" />
<line class="line" x1="0" x2="3500" y1="-2850.0" y2="-2850.0" />
<line class="line" x1="0" x2="3500" y1="-2950.0" y2="-2950.0" />
<line class="line" x1="0" x2="3500" y1="-3050.0" y2="-3050.0" />
<line class="line" x1="0" x2="3500" y1="-3150.0" y2="-3150.0" />
<line class="line" x1="0" x2="3500" y1="-3250.0" y2="-3250.0" />
<line class="line" x1="0" x2="3500" y1="-3350.0" y2="-3350.0" />
<line class="line" x1="0" x2="3500" y1="-3450.0" y2="-3450.0" />
<use href="#obstacle" x="65" y="-135" />
<use href="#obstacle" x="65" y="-235" />
<use href="#obstacle" x="65" y="-335" />
<use href="#obstacle" x="65" y="-435" />
<use href="#obstacle" x="65" y="-535" />
<use href="#obstacle" x="65" y="-635" />
<use href="#obstacle" x="65" y="-735" />
<use href="#obstacle" x="65" y="-835" />
<use href="#obstacle" x="65" y="-935" />
<use href="#obstacle" x="65" y="-1035" />
<use href="#obstacle" x="65" y="-1135" />
<use href="#obstacle" x="65" y="-1235" />
<use href="#obstacle" x="65" y="-1335" />
<use href="#obstacle" x="65" y="-1435" />
<use href="#obstacle" x="65" y="-1535" />
<use href="#obstacle" x="65" y="-1635" />
<use href="#obstacle" x="65" y="-1735" />
<use href="#obstacle" x="65" y="-1835" />
<use href="#obstacle" x="65" y="-1935" />
<use href="#obstacle" x="65" y="-2035" />
<use href="#obstacle" x="65" y="-2135" />
<use href="#obstacle" x="65" y="-2235" />
<use href="#obstacle" x="65" y="-2335" />
<use href="#obstacle" x="65" y="-2435" />
<use href="#obstacle" x="65" y="-2535" />
<use href="#obstacle" x="65" y="-2635" />
<use href="#obstacle" x="65" y="-2735" />
<use href="#obstacle" x="65" y="-2835" />
<use href="#obstacle" x="65" y="-2935" />
<use href="#obstacle" x="65" y="-3035" />
<use href="#obstacle" x="65" y="-3135" />
<use href="#obstacle" x="65" y="-3235" />
<use href="#obstacle" x="65" y="-3335" />
<use href="#obstacle" x="65" y="-3435" />
<use href="#obstacle" x="165" y="-135" />
<use href="#obstacle" x="165" y="-235" />
<use href="#obstacle" x="165" y="-535" />
<use href="#obstacle" x="165" y="-935" />
<use href="#obstacle" x="165" y="-1135" />
<use href="#obstacle" x="165" y="-1335" />
<use href="#obstacle" x="165" y="-1435" />
<use href="#obstacle" x="165" y="-1635" />
<use href="#obstacle" x="165" y="-1735" />
<use href="#obstacle" x="165" y="-1835" />
<use href="#obstacle" x="165" y="-2335" />
<use href="#obstacle" x="165" y="-2635" />
<use href="#obstacle" x="165" y="-2735" />
<use href="#obstacle" x="165" y="-2935" />
<use href="#obstacle" x="165" y="-3435" />
<use href="#obstacle" x="265" y="-135" />
<use href="#obstacle" x="265" y="-335" />
<use href="#obstacle" x="265" y="-735" />
<use href="#obstacle" x="265" y="-1135" />
<use href="#obstacle" x="265" y="-1235" />
<use href="#obstacle" x="265" y="-1335" />
<use href="#obstacle" x="265" y="-1435" />
<use href="#obstacle" x="265" y="-1635" />
<use href="#obstacle" x="265" y="-1835" />
<use href="#obstacle" x="265" y="-1935" />
<use href="#obstacle" x="265" y="-2135" />
<use href="#obstacle" x="265" y="-2235" />
<use href="#obstacle" x="265" y="-2435" />
<use href="#obstacle" x="265" y="-2635" />
<use href="#obstacle" x="265" y="-2835" />
<use href="#obstacle" x="265" y="-3135" />
<use href="#obstacle" x="265" y="-3235" />
<use href="#obstacle" x="265" y="-3335" />
<use href="#obstacle" x="265" y="-3435" />
<use href="#obstacle" x="365" y="-135" />
<use href="#obstacle" x="365" y="-335" />
<use href="#obstacle" x="365" y="-435" />
<use href="#obstacle" x="365" y="-535" />
<use href="#obstacle" x="365" y="-835" />
<use href="#obstacle" x="365" y="-935" />
<use href="#obstacle" x="365" y="-1035" />
<use href="#obstacle" x="365" y="-1435" />
<use href="#obstacle" x="365" y="-1535" />
<use href="#obstacle" x="365" y="-1635" />
<use href="#obstacle" x="365" y="-1735" />
<use href="#obstacle" x="365" y="-2135" />
<use href="#obstacle" x="365" y="-2235" />
<use href="#obstacle" x="365" y="-2335" />
<use href="#obstacle" x="365" y="-2535" />
<use href="#obstacle" x="365" y="-2635" />
<use href="#obstacle" x="365" y="-2835" />
<use href="#obstacle" x="365" y="-2935" />
<use href="#obstacle" x="365" y="-3435" />
<use href="#obstacle" x="465" y="-135" />
<use href="#obstacle" x="465" y="-235" />
<use href="#obstacle" x="465" y="-635" />
<use href="#obstacle" x="465" y="-735" />
<use href="#obstacle" x="465" y="-835" />
<use href="#obstacle" x="465" y="-1035" />
<use href="#obstacle" x="465" y="-1135" />
<use href="#obstacle" x="465" y="-1235" />
<use href="#obstacle" x="465" y="-1335" />
<use href="#obstacle" x="465" y="-1535" />
<use href="#obstacle" x="465" y="-2135" />
<use href="#obstacle" x="465" y="-2235" />
<use href="#obstacle" x="465" y="-2435" />
<use href="#obstacle" x="465" y="-2535" />
<use href="#obstacle" x="465" y="-2935" />
<use href="#obstacle" x="465" y="-3135" />
<use href="#obstacle" x="465" y="-3335" />
<use href="#obstacle" x="465" y="-3435" />
<use href="#obstacle" x="565" y="-135" />
<use href="#obstacle" x="565" y="-535" />
<use href="#obstacle" x="565" y="-635" />
<use href="#obstacle" x="565" y="-735" />
<use href="#obstacle" x="565" y="-835" />
<use href="#obstacle" x="565" y="-935" />
<use href="#obstacle" x="565" y="-1535" />
<use href="#obstacle" x="565" y="-1735" />
<use href="#obstacle" x="565" y="-2235" />
<use href="#obstacle" x="565" y="-2335" />
<use href="#obstacle" x="565" y="-2435" />
<use href="#obstacle" x="565" y="-2535" />
<use href="#obstacle" x="565" y="-2635" />
<use href="#obstacle" x="565" y="-2735" />
<use href="#obstacle" x="565" y="-2835" />
<use href="#obstacle" x="565" y="-2935" />
<use href="#obstacle" x="565" y="-3335" />
<use href="#obstacle" x="565" y="-3435" />
<use href="#obstacle" x="665" y="-135" />
<use href="#obstacle" x="665" y="-235" />
<use href="#obstacle" x="665" y="-335" />
<use href="#obstacle" x="665" y="-535" />
<use href="#obstacle" x="665" y="-635" />
<use href="#obstacle" x="665" y="-835" />
<use href="#obstacle" x="665" y="-935" />
<use href="#obstacle" x="665" y="-1035" />
<use href="#obstacle" x="665" y="-1135" />
<use href="#obstacle" x="665" y="-1335" />
<use href="#obstacle" x="665" y="-1535" />
<use href="#obstacle" x="665" y="-1935" />
<use href="#obstacle" x="665" y="-2035" />
<use href="#obstacle" x="665" y="-2135" />
<use href="#obstacle" x="665" y="-2335" />
<use href="#obstacle" x="665" y="-2535" />
<use href="#obstacle" x="665" y="-2635" />
<use href="#obstacle" x="665" y="-2835" />
<use href="#obstacle" x="665" y="-2935" />
<use href="#obstacle" x="665" y="-3035" />
<use href="#obstacle" x="665" y="-3135" />
<use href="#obstacle" x="665" y="-3435" />
<use href="#obstacle" x="765" y="-135" />
<use href="#obstacle" x="765" y="-235" />
<use href="#obstacle" x="765" y="-335" />
<use href="#obstacle" x="765" y="-735" />
<use href="#obstacle" x="765" y="-835" />
<use href="#obstacle" x="765" y="-1035" />
<use href="#obstacle" x="765" y="-1235" />
<use href="#obstacle" x="765" y="-1635" />
<use href="#obstacle" x="765" y="-1735" />
<use href="#obstacle" x="765" y="-1835" />
<use href="#obstacle" x="765" y="-2035" />
<use href="#obstacle" x="765" y="-2135" />
<use href="#obstacle" x="765" y="-2235" />
<use href="#obstacle" x="765" y="-2435" />
<use href="#obstacle" x="765" y="-2535" />
<use href="#obstacle" x="765" y="-2935" />
<use href="#obstacle" x="765" y="-3135" />
<use href="#obstacle" x="765" y="-3235" />
<use href="#obstacle" x="765" y="-3335" />
<use href="#obstacle" x="765" y="-3435" />
<use href="#obstacle" x="865" y="-135" />
<use href="#obstacle" x="865" y="-235" />
<use href="#obstacle" x="865" y="-535" />
<use href="#obstacle" x="865" y="-635" />
<use href="#obstacle" x="865" y="-735" />
<use href="#obstacle" x="865" y="-835" />
<use href="#obstacle" x="865" y="-1035" />
<use href="#obstacle" x="865" y="-1135" />
<use href="#obstacle" x="865" y="-1235" />
<use href="#obstacle" x="865" y="-1335" />
<use href="#obstacle" x="865" y="-1635" />
<use href="#obstacle" x="865" y="-1735" />
<use href="#obstacle" x="865" y="-1835" />
<use href="#obstacle" x="865" y="-2135" />
<use href="#obstacle" x="865" y="-2335" />
<use href="#obstacle" x="865" y="-3235" />
<use href="#obstacle" x="865" y="-3435" />
<use href="#obstacle" x="965" y="-135" />
<use href="#obstacle" x="965" y="-1035" />
<use href="#obstacle" x="965" y="-1135" />
<use href="#obstacle" x="965" y="-1635" />
<use href="#obstacle" x="965" y="-1735" />
<use href="#obstacle" x="965" y="-2235" />
<use href="#obstacle" x="965" y="-2335" />
<use href="#obstacle" x="965" y="-2435" />
<use href="#obstacle" x="965" y="-2535" />
<use href="#obstacle" x="965" y="-2635" />
<use href="#obstacle" x="965" y="-2835" />
<use href="#obstacle" x="965" y="-2935" />
<use href="#obstacle" x="965" y="-3235" />
<use href="#obstacle" x="965" y="-3335" />
<use href="#obstacle" x="965" y="-3435" />
<use href="#obstacle" x="1065" y="-135" />
<use href="#obstacle" x="1065" y="-935" />
<use href="#obstacle" x="1065" y="-1335" />
<use href="#obstacle" x="1065" y="-1435" />
<use href="#obstacle" x="1065" y="-1535" />
<use href="#obstacle" x="1065" y="-1635" />
<use href="#obstacle" x="1065" y="-1835" />
<use href="#obstacle" x="1065" y="-2635" />
<use href="#obstacle" x="1065" y="-2735" />
<use href="#obstacle" x="1065" y="-2935" />
<use href="#obstacle" x="1065" y="-3135" />
<use href="#obstacle" x="1065" y="-3435" />
<use href="#obstacle" x="1165" y="-135" />
<use href="#obstacle" x="1165" y="-335" />
<use href="#obstacle" x="1165" y="-635" />
<use href="#obstacle" x="1165" y="-735" />
<use href="#obstacle" x="1165" y="-935" />
<use href="#obstacle" x="1165" y="-1035" />
<use href="#obstacle" x="1165" y="-1635" />
<use href="#obstacle" x="1165" y="-1935" />
<use href="#obstacle" x="1165" y="-2435" />
<use href="#obstacle" x="1165" y="-2835" />
<use href="#obstacle" x="1165" y="-3135" />
<use href="#obstacle" x="1165" y="-3335" />
<use href="#obstacle" x="1165" y="-3435" />
<use href="#obstacle" x="1265" y="-135" />
<use href="#obstacle" x="1265" y="-235" />
<use href="#obstacle" x="1265" y="-335" />
<use href="#obstacle" x="1265" y="-435" />
<use href="#obstacle" x="1265" y="-635" />
<use href="#obstacle" x="1265" y="-835" />
<use href="#obstacle" x="1265" y="-1235" />
<use href="#obstacle" x="1265" y="-1535" />
<use href="#obstacle" x="1265" y="-1735" />
<use href="#obstacle" x="1265" y="-1835" />
<use href="#obstacle" x="1265" y="-2235" />
<use href="#obstacle" x="1265" y="-2735" />
<use href="#obstacle" x="1265" y="-3135" />
<use href="#obstacle" x="1265" y="-3235" />
<use href="#obstacle" x="1265" y="-3435" />
<use href="#obstacle" x="1365" y="-135" />
<use href="#obstacle" x="1365" y="-235" />
<use href="#obstacle" x="1365" y="-335" />
<use href="#obstacle" x="1365" y="-435" />
<use href="#obstacle" x="1365" y="-535" />
<use href="#obstacle" x="1365" y="-735" />
<use href="#obstacle" x="1365" y="-835" />
<use href="#obstacle" x="1365" y="-1235" />
<use href="#obstacle" x="1365" y="-1335" />
<use href="#obstacle" x="1365" y="-1635" />
<use href="#obstacle" x="1365" y="-1735" />
<use href="#obstacle" x="1365" y="-1835" />
<use href="#obstacle" x="1365" y="-1935" />
<use href="#obstacle" x="1365" y="-2035" />
<use href="#obstacle" x="1365" y="-2535" />
<use href="#obstacle" x="1365" y="-2735" />
<use href="#obstacle" x="1365" y="-3435" />
<use href="#obstacle" x="1465" y="-135" />
<use href="#obstacle" x="1465" y="-235" />
<use href="#obstacle" x="1465" y="-335" />
<use href="#obstacle" x="1465" y="-435" />
<use href="#obstacle" x="1465" y="-635" />
<use href="#obstacle" x="1465" y="-935" />
<use href="#obstacle" x="1465" y="-1035" />
<use href="#obstacle" x="1465" y="-1235" />
<use href="#obstacle" x="1465" y="-1335" />
<use href="#obstacle" x="1465" y="-1435" />
<use href="#obstacle" x="1465" y="-2435" />
<use href="#obstacle" x="1465" y="-2535" />
<use href="#obstacle" x="1465" y="-2635" />
<use href="#obstacle" x="1465" y="-2735" />
<use href="#obstacle" x="1465" y="-2935" />
<use href="#obstacle" x="1465" y="-3235" />
<use href="#obstacle" x="1465" y="-3435" />
<use href="#obstacle" x="1565" y="-135" />
<use href="#obstacle" x="1565" y="-235" />
<use href="#obstacle" x="1565" y="-435" />
<use href="#obstacle" x="1565" y="-635" />
<use href="#obstacle" x="1565" y="-835" />
<use href="#obstacle" x="1565" y="-1035" />
<use href="#obstacle" x="1565" y="-1135" />
<use href="#obstacle" x="1565" y="-1235" />
<use href="#obstacle" x="1565" y="-1335" />
<use href="#obstacle" x="1565" y="-1635" />
<use href="#obstacle" x="1565" y="-1835" />
<use href="#obstacle" x="1565" y="-2635" />
<use href="#obstacle" x="1565" y="-2835" />
<use href="#obstacle" x="1565" y="-2935" />
<use href="#obstacle" x="1565" y="-3035" />
<use href="#obstacle" x="1565" y="-3135" />
<use href="#obstacle" x="1565" y="-3335" />
<use href="#obstacle" x="1565" y="-3435" />
<use href="#obstacle" x="1665" y="-135" />
<use href="#obstacle" x="1665" y="-335" />
<use href="#obstacle" x="1665" y="-835" />
<use href="#obstacle" x="1665" y="-1135" />
<use href="#obstacle" x="1665" y="-1435" />
<use href="#obstacle" x="1665" y="-1535" />
<use href="#obstacle" x="1665" y="-1835" />
<use href="#obstacle" x="1665" y="-1935" />
<use href="#obstacle" x="1665" y="-2035" />
<use href="#obstacle" x="1665" y="-2335" />
<use href="#obstacle" x="1665" y="-2535" />
<use href="#obstacle" x="1665" y="-2635" />
<use href="#obstacle" x="1665" y="-2735" />
<use href="#obstacle" x="1665" y="-2835" />
<use href="#obstacle" x="1665" y="-3235" />
<use href="#obstacle" x="1665" y="-3335" />
<use href="#obstacle" x="1665" y="-3435" />
<use href="#obstacle" x="1765" y="-135" />
<use href="#obstacle" x="1765" y="-235" />
<use href="#obstacle" x="1765" y="-335" />
<use href="#obstacle" x="1765" y="-835" />
<use href="#obstacle" x="1765" y="-935" />
<use href="#obstacle" x="1765" y="-1035" />
<use href="#obstacle" x="1765" y="-1235" />
<use href="#obstacle" x="1765" y="-1435" />
<use href="#obstacle" x="1765" y="-2035" />
<use href="#obstacle" x="1765" y="-2435" />
<use href="#obstacle" x="1765" y="-2535" />
<use href="#obstacle" x="1765" y="-2735" />
<use href="#obstacle" x="1765" y="-3135" />
<use href="#obstacle" x="1765" y="-3435" />
<use href="#obstacle" x="1865" y="-135" />
<use href="#obstacle" x="1865" y="-235" />
<use href="#obstacle" x="1865" y="-535" />
<use href="#obstacle" x="1865" y="-935" />
<use href="#obstacle" x="1865" y="-1035" />
<use href="#obstacle" x="1865" y="-1135" />
<use href="#obstacle" x="1865" y="-1335" />
<use href="#obstacle" x="1865" y="-1435" />
<use href="#obstacle" x="1865" y="-1635" />
<use href="#obstacle" x="1865" y="-2135" />
<use href="#obstacle" x="1865" y="-2835" />
<use href="#obstacle" x="1865" y="-3435" />
<use href="#obstacle" x="1965" y="-135" />
<use href="#obstacle" x="1965" y="-235" />
<use href="#obstacle" x="1965" y="-435" />
<use href="#obstacle" x="1965" y="-535" />
<use href="#obstacle" x="1965" y="-935" />
<use href="#obstacle" x="1965" y="-1035" />
<use href="#obstacle" x="1965" y="-1135" />
<use href="#obstacle" x="1965" y="-1335" />
<use href="#obstacle" x="1965" y="-1735" />
<use href="#obstacle" x="1965" y="-1835" />
<use href="#obstacle" x="1965" y="-1935" />
<use href="#obstacle" x="1965" y="-2135" />
<use href="#obstacle" x="1965" y="-2335" />
<use href="#obstacle" x="1965" y="-2635" />
<use href="#obstacle" x="1965" y="-2835" />
<use href="#obstacle" x="1965" y="-2935" />
<use href="#obstacle" x="1965" y="-3235" />
<use href="#obstacle" x="1965" y="-3335" />
<use href="#obstacle" x="1965" y="-3435" />
<use href="#obstacle" x="2065" y="-135" />
<use href="#obstacle" x="2065" y="-335" />
<use href="#obstacle" x="2065" y="-1035" />
<use href="#obstacle" x="2065" y="-1235" />
<use href="#obstacle" x="2065" y="-1335" />
<use href="#obstacle" x="2065" y="-1535" />
<use href="#obstacle" x="2065" y="-1635" />
<use href="#obstacle" x="2065" y="-1835" />
<use href="#obstacle" x="2065" y="-2535" />
<use href="#obstacle" x="2065" y="-2635" />
<use href="#obstacle" x="2065" y="-3035" />
<use href="#obstacle" x="2065" y="-3335" />
<use href="#obstacle" x="2065" y="-3435" />
<use href="#obstacle" x="2165" y="-135" />
<use href="#obstacle" x="2165" y="-235" />
<use href="#obstacle" x="2165" y="-535" />
<use href="#obstacle" x="2165" y="-935" />
<use href="#obstacle" x="2165" y="-1035" />
<use href="#obstacle" x="2165" y="-1135" />
<use href="#obstacle" x="2165" y="-1335" />
<use href="#obstacle" x="2165" y="-1635" />
<use href="#obstacle" x="2165" y="-1735" />
<use href="#obstacle" x="2165" y="-1935" />
<use href="#obstacle" x="2165" y="-2035" />
<use href="#obstacle" x="2165" y="-2235" />
<use href="#obstacle" x="2165" y="-2335" />
<use href="#obstacle" x="2165" y="-2735" />
<use href="#obstacle" x="2165" y="-2835" />
<use href="#obstacle" x="2165" y="-3335" />
<use href="#obstacle" x="2165" y="-3435" />
<use href="#obstacle" x="2265" y="-135" />
<use href="#obstacle" x="2265" y="-335" />
<use href="#obstacle" x="2265" y="-1135" />
<use href="#obstacle" x="2265" y="-1435" />
<use href="#obstacle" x="2265" y="-1635" />
<use href="#obstacle" x="2265" y="-1835" />
<use href="#obstacle" x="2265" y="-2235" />
<use href="#obstacle" x="2265" y="-2335" />
<use href="#obstacle" x="2265" y="-2435" />
<use href="#obstacle" x="2265" y="-2535" />
<use href="#obstacle" x="2265" y="-2635" />
<use href="#obstacle" x="2265" y="-2835" />
<use href="#obstacle" x="2265" y="-3135" />
<use href="#obstacle" x="2265" y="-3235" />
<use href="#obstacle" x="2265" y="-3335" />
<use href="#obstacle" x="2265" y="-3435" />
<use href="#obstacle" x="2365" y="-135" />
<use href="#obstacle" x="2365" y="-235" />
<use href="#obstacle" x="2365" y="-335" />
<use href="#obstacle" x="2365" y="-435" />
<use href="#obstacle" x="2365" y="-635" />
<use href="#obstacle" x="2365" y="-1235" />
<use href="#obstacle" x="2365" y="-1535" />
<use href="#obstacle" x="2365" y="-1635" />
<use href="#obstacle" x="2365" y="-1835" />
<use href="#obstacle" x="2365" y="-1935" />
<use href="#obstacle" x="2365" y="-2135" />
<use href="#obstacle" x="2365" y="-2235" />
<use href="#obstacle" x="2365" y="-2335" />
<use href="#obstacle" x="2365" y="-2435" />
<use href="#obstacle" x="2365" y="-2535" />
<use href="#obstacle" x="2365" y="-2735" />
<use href="#obstacle" x="2365" y="-2835" />
<use href="#obstacle" x="2365" y="-3135" />
<use href="#obstacle" x="2365" y="-3335" />
<use href="#obstacle" x="2365" y="-3435" />
<use href="#obstacle" x="2465" y="-135" />
<use href="#obstacle" x="2465" y="-435" />
<use href="#obstacle" x="2465" y="-535" />
<use href="#obstacle" x="2465" y="-835" />
<use href="#obstacle" x="2465" y="-935" />
<use href="#obstacle" x="2465" y="-1135" />
<use href="#obstacle" x="2465" y="-1235" />
<use href="#obstacle" x="2465" y="-1335" />
<use href="#obstacle" x="2465" y="-1635" />
<use href="#obstacle" x="2465" y="-1935" />
<use href="#obstacle" x="2465" y="-2035" />
<use href="#obstacle" x="2465" y="-2235" />
<use href="#obstacle" x="2465" y="-2335" />
<use href="#obstacle" x="2465" y="-2635" />
<use href="#obstacle" x="2465" y="-2735" />
<use href="#obstacle" x="2465" y="-2835" />
<use href="#obstacle" x="2465" y="-3035" />
<use href="#obstacle" x="2465" y="-3135" />
<use href="#obstacle" x="2465" y="-3335" />
<use href="#obstacle" x="2465" y="-3435" />
<use href="#obstacle" x="2565" y="-135" />
<use href="#obstacle" x="2565" y="-235" />
<use href="#obstacle" x="2565" y="-435" />
<use href="#obstacle" x="2565" y="-635" />
<use href="#obstacle" x="2565" y="-735" />
<use href="#obstacle" x="2565" y="-935" />
<use href="#obstacle" x="2565" y="-1035" />
<use href="#obstacle" x="2565" y="-1135" />
<use href="#obstacle" x="2565" y="-1235" />
<use href="#obstacle" x="2565" y="-1535" />
<use href="#obstacle" x="2565" y="-1735" />
<use href="#obstacle" x="2565" y="-1935" />
<use href="#obstacle" x="2565" y="-2135" />
<use href="#obstacle" x="2565" y="-2235" />
<use href="#obstacle" x="2565" y="-2335" />
<use href="#obstacle" x="2565" y="-2635" />
<use href="#obstacle" x="2565" y="-2835" />
<use href="#obstacle" x="2565" y="-2935" />
<use href="#obstacle" x="2565" y="-3135" />
<use href="#obstacle" x="2565" y="-3235" />
<use href="#obstacle" x="2565" y="-3335" />
<use href="#obstacle" x="2565" y="-3435" />
<use href="#obstacle" x="2665" y="-135" />
<use href="#obstacle" x="2665" y="-235" />
<use href="#obstacle" x="2665" y="-335" />
<use href="#obstacle" x="2665" y="-435" />
<use href="#obstacle" x="2665" y="-635" />
<use href="#obstacle" x="2665" y="-735" />
<use href="#obstacle" x="2665" y="-835" />
<use href="#obstacle" x="2665" y="-1235" />
<use href="#obstacle" x="2665" y="-1535" />
<use href="#obstacle" x="2665" y="-1635" />
<use href="#obstacle" x="2665" y="-1735" />
<use href="#obstacle" x="2665" y="-1935" />
<use href="#obstacle" x="2665" y="-2035" />
<use href="#obstacle" x="2665" y="-2135" />
<use href="#obstacle" x="2665" y="-2335" />
<use href="#obstacle" x="2665" y="-2635" />
<use href="#obstacle" x="2665" y="-2835" />
<use href="#obstacle" x="2665" y="-2935" />
<use href="#obstacle" x="2665" y="-3235" />
<use href="#obstacle" x="2665" y="-3435" />
<use href="#obstacle" x="2765" y="-135" />
<use href="#obstacle" x="2765" y="-235" />
<use href="#obstacle" x="2765" y="-335" />
<use href="#obstacle" x="2765" y="-435" />
<use href="#obstacle" x="2765" y="-535" />
<use href="#obstacle" x="2765" y="-635" />
<use href="#obstacle" x="2765" y="-735" />
<use href="#obstacle" x="2765" y="-935" />
<use href="#obstacle" x="2765" y="-1135" />
<use href="#obstacle" x="2765" y="-1335" />
<use href="#obstacle" x="2765" y="-1735" />
<use href="#obstacle" x="2765" y="-1835" />
<use href="#obstacle" x="2765" y="-1935" />
<use href="#obstacle" x="2765" y="-2135" />
<use href="#obstacle" x="2765" y="-2235" />
<use href="#obstacle" x="2765" y="-2335" />
<use href="#obstacle" x="2765" y="-2435" />
<use href="#obstacle" x="2765" y="-2635" />
<use href="#obstacle" x="2765" y="-2835" />
<use href="#obstacle" x="2765" y="-3035" />
<use href="#obstacle" x="2765" y="-3435" />
<use href="#obstacle" x="2865" y="-135" />
<use href="#obstacle" x="2865" y="-235" />
<use href="#obstacle" x="2865" y="-435" />
<use href="#obstacle" x="2865" y="-535" />
<use href="#obstacle" x="2865" y="-635" />
<use href="#obstacle" x="2865" y="-735" />
<use href="#obstacle" x="2865" y="-1135" />
<use href="#obstacle" x="2865" y="-1235" />
<use href="#obstacle" x="2865" y="-1335" />
<use href="#obstacle" x="2865" y="-1435" />
<use href="#obstacle" x="2865" y="-1535" />
<use href="#obstacle" x="2865" y="-1935" />
<use href="#obstacle" x="2865" y="-2135" />
<use href="#obstacle" x="2865" y="-2235" />
<use href="#obstacle" x="2865" y="-2535" />
<use href="#obstacle" x="2865" y="-2635" />
<use href="#obstacle" x="2865" y="-2835" />
<use href="#obstacle" x="2865" y="-2935" />
<use href="#obstacle" x="2865" y="-3235" />
<use href="#obstacle" x="2865" y="-3335" />
<use href="#obstacle" x="2865" y="-3435" />
<use href="#obstacle" x="2965" y="-135" />
<use href="#obstacle" x="2965" y="-435" />
<use href="#obstacle" x="2965" y="-535" />
<use href="#obstacle" x="2965" y="-635" />
<use href="#obstacle" x="2965" y="-835" />
<use href="#obstacle" x="2965" y="-1135" />
<use href="#obstacle" x="2965" y="-1235" />
<use href="#obstacle" x="2965" y="-1535" />
<use href="#obstacle" x="2965" y="-1735" />
<use href="#obstacle" x="2965" y="-1835" />
<use href="#obstacle" x="2965" y="-2035" />
<use href="#obstacle" x="2965" y="-2235" />
<use href="#obstacle" x="2965" y="-2335" />
<use href="#obstacle" x="2965" y="-2535" />
<use href="#obstacle" x="2965" y="-2735" />
<use href="#obstacle" x="2965" y="-2935" />
<use href="#obstacle" x="2965" y="-3335" />
<use href="#obstacle" x="2965" y="-3435" />
<use href="#obstacle" x="3065" y="-135" />
<use href="#obstacle" x="3065" y="-535" />
<use href="#obstacle" x="3065" y="-835" />
<use href="#obstacle" x="3065" y="-1035" />
<use href="#obstacle" x="3065" y="-1135" />
<use href="#obstacle" x="3065" y="-1235" />
<use href="#obstacle" x="3065" y="-1335" />
<use href="#obstacle" x="3065" y="-1935" />
<use href="#obstacle" x="3065" y="-2335" />
<use href="#obstacle" x="3065" y="-2435" />
<use href="#obstacle" x="3065" y="-2835" />
<use href="#obstacle" x="3065" y="-2935" />
<use href="#obstacle" x="3065" y="-3135" />
<use href="#obstacle" x="3065" y="-3335" />
<use href="#obstacle" x="3065" y="-3435" />
<use href="#obstacle" x="3165" y="-135" />
<use href="#obstacle" x="3165" y="-335" />
<use href="#obstacle" x="3165" y="-635" />
<use href="#obstacle" x="3165" y="-835" />
<use href="#obstacle" x="3165" y="-1035" />
<use href="#obstacle" x="3165" y="-1235" />
<use href="#obstacle" x="3165" y="-1335" />
<use href="#obstacle" x="3165" y="-1435" />
<use href="#obstacle" x="3165" y="-1535" />
<use href="#obstacle" x="3165" y="-1735" />
<use href="#obstacle" x="3165" y="-1835" />
<use href="#obstacle" x="3165" y="-2535" />
<use href="#obstacle" x="3165" y="-2735" />
<use href="#obstacle" x="3165" y="-2835" />
<use href="#obstacle" x="3165" y="-2935" />
<use href="#obstacle" x="3165" y="-3435" />
<use href="#obstacle" x="3265" y="-135" />
<use href="#obstacle" x="3265" y="-335" />
<use href="#obstacle" x="3265" y="-435" />
<use href="#obstacle" x="3265" y="-535" />
<use href="#obstacle" x="3265" y="-1035" />
<use href="#obstacle" x="3265" y="-1135" />
<use href="#obstacle" x="3265" y="-1935" />
<use href="#obstacle" x="3265" y="-2135" />
<use href="#obstacle" x="3265" y="-2235" />
<use href="#obstacle" x="3265" y="-2535" />
<use href="#obstacle" x="3265" y="-3135" />
<use href="#obstacle" x="3265" y="-3335" />
<use href="#obstacle" x="3265" y="-3435" />
<use href="#obstacle" x="3365" y="-135" />
<use href="#obstacle" x="3365" y="-235" />
<use href="#obstacle" x="3365" y="-335" />
<use href="#obstacle" x="3365" y="-435" />
<use href="#obstacle" x="3365" y="-535" />
<use href="#obstacle" x="3365" y="-635" />
<use href="#obstacle" x="3365" y="-735" />
<use href="#obstacle" x="3365" y="-835" />
<use href="#obstacle" x="3365" y="-935" />
<use href="#obstacle" x="3365" y="-1035" />
<use href="#obstacle" x="3365" y="-1135" />
<use href="#obstacle" x="3365" y="-1235" />
<use href="#obstacle" x="3365" y="-1335" />
<use href="#obstacle" x="3365" y="-1435" />
<use href="#obstacle" x="3365" y="-1535" />
<use href="#obstacle" x="3365" y="-1635" />
<use href="#obstacle" x="3365" y="-1735" />
<use href="#obstacle" x="3365" y="-1835" />
<use href="#obstacle" x="3365" y="-1935" />
<use href="#obstacle" x="3365" y="-2035" />
<use href="#obstacle" x="3365" y="-2135" />
<use href="#obstacle" x="3365" y="-2235" />
<use href="#obstacle" x="3365" y="-2335" />
<use href="#obstacle" x="3365" y="-2435" />
<use href="#obstacle" x="3365" y="-2535" />
<use href="#obstacle" x="3365" y="-2635" />
<use href="#obstacle" x="3365" y="-2735" />
<use href="#obstacle" x="3365" y="-2835" />
<use href="#obstacle" x="3365" y="-2935" />
<use href="#obstacle" x="3365" y="-3035" />
<use href="#obstacle" x="3365" y="-3135" />
<use href="#obstacle" x="3365" y="-3235" />
<use href="#obstacle" x="3365" y="-3335" />
<use href="#obstacle" x="3365" y="-3435" />
<circle class="agent" cx="2200" cy="-3100" fill="#c1433c" r="35"> <animate attributeName="cy" dur="22.75s" keyTimes="0.0;0.0108695652;0.0217391304;0.0326086957;0.0434782609;0.0543478261;0.0652173913;0.0760869565;0.097826087;0.1086956522;0.1195652174;0.1413043478;0.152173913;0.1630434783;0.1739130435;0.1847826087;0.2173913043;0.2282608696;0.2391304348;0.25;0.2608695652;0.2717391304;0.3260869565;0.3369565217;0.3586956522;0.3695652174;0.4782608696;0.4891304348;0.5543478261;0.5652173913;1.0" repeatCount="indefinite" values="-3100;-3100;-3000;-2900;-2900;-2800;-2800;-2700;-2700;-2600;-2500;-2500;-2400;-2300;-2300;-2200;-2200;-2100;-2000;-1900;-1800;-1700;-1700;-1600;-1600;-1500;-1500;-1400;-1400;-1300;-1300"/>
<animate attributeName="cx" dur="22.75s" keyTimes="0.0;0.0108695652;0.0326086957;0.0434782609;0.0760869565;0.0869565217;0.097826087;0.1630434783;0.1739130435;0.1847826087;0.1956521739;0.2065217391;0.2173913043;0.4130434783;0.4239130435;0.5326086957;0.5434782609;0.5543478261;1.0" repeatCount="indefinite" values="2200;2200;2200;2100;2100;2000;1900;1900;1800;1800;1700;1600;1500;1500;1400;1400;1300;1200;1200"/>
<animate attributeName="visibility" dur="22.75s" keyTimes="0.0;0.0108695652;1.0" repeatCount="indefinite" values="visible;visible;visible"/> </circle>
<circle class="agent" cx="200" cy="-1500" fill="#2e6f9e" r="35"> <animate attributeName="cy" dur="22.75s" keyTimes="0.0;0.0108695652;1.0" repeatCount="indefinite" values="-1500;-1500;-1500"/>
<animate attributeName="cx" dur="22.75s" keyTimes="0.0;0.0108695652;0.0217391304;1.0" repeatCount="indefinite" values="200;200;300;300"/>
<animate attributeName="visibility" dur="22.75s" keyTimes="0.0;0.0108695652;1.0" repeatCount="indefinite" values="visible;visible;visible"/> </circle>
<circle class="agent" cx="1000" cy="-1500" fill="#6e81af" r="35"> <animate attributeName="cy" dur="22.75s" keyTimes="0.0;0.0108695652;0.0217391304;0.0326086957;0.0434782609;0.0760869565;0.0869565217;0.1086956522;0.1195652174;0.25;0.2608695652;0.2717391304;0.3043478261;0.3152173913;0.3260869565;0.347826087;0.3586956522;0.402173913;0.4130434783;0.5217391304;0.5326086957;0.652173913;0.6630434783;0.6739130435;0.6847826087;0.6956521739;0.7065217391;0.7173913043;0.7282608696;0.7391304348;0.75;0.7608695652;0.7717391304;0.8043478261;0.8152173913;0.8260869565;0.8369565217;0.847826087;0.8586956522;0.8695652174;0.8913043478;0.902173913;0.9130434783;0.9239130435;0.9347826087;0.9456521739;0.9782608696;0.9891304348;1.0" repeatCount="indefinite" values="-1500;-1500;-1400;-1300;-1200;-1200;-1300;-1300;-1200;-1200;-1100;-1200;-1200;-1300;-1400;-1400;-1500;-1500;-1400;-1400;-1300;-1300;-1400;-1400;-1500;-1500;-1600;-1700;-1800;-1900;-2000;-2100;-2200;-2200;-2300;-2300;-2400;-2500;-2600;-2700;-2700;-2800;-2900;-2900;-3000;-3100;-3100;-3200;-3200"/>
<animate attributeName="cx" dur="22.75s" keyTimes="0.0;0.0108695652;0.0434782609;0.0543478261;0.0652173913;0.0760869565;0.2065217391;0.2173913043;0.2282608696;0.2826086957;0.2934782609;0.3043478261;0.3260869565;0.3369565217;0.347826087;0.4673913043;0.4782608696;0.6630434783;0.6739130435;0.6847826087;0.6956521739;0.7717391304;0.7826086957;0.7934782609;0.8043478261;0.8152173913;0.8260869565;0.8695652174;0.8804347826;0.8913043478;0.9130434783;0.9239130435;0.9456521739;0.9565217391;0.9673913043;0.9782608696;1.0" repeatCount="indefinite" values="1000;1000;1000;1100;1100;1200;1200;1100;1200;1200;1100;1200;1200;1300;1400;1400;1300;1300;1400;1400;1500;1500;1600;1700;1800;1800;1900;1900;2000;2100;2100;2200;2200;2100;2000;1900;1900"/>
<animate attributeName="visibility" dur="22.75s" keyTimes="0.0;0.0108695652;1.0" repeatCount="indefinite" values="visible;visible;visible"/> </circle>
<circle class="agent" cx="1900" cy="-800" fill="#00b9c8" r="35"> <animate attributeName="cy" dur="22.75s" keyTimes="0.0;0.0108695652;0.0543478261;0.0652173913;0.0760869565;1.0" repeatCount="indefinite" values="-800;-800;-800;-900;-1000;-1000"/>
<animate attributeName="cx" dur="22.75s" keyTimes="0.0;0.0108695652;0.0217391304;0.0326086957;0.0434782609;0.0543478261;0.0760869565;0.0869565217;0.097826087;1.0" repeatCount="indefinite" values="1900;1900;2000;2100;2200;2300;2300;2400;2500;2500"/>
<animate attributeName="visibility" dur="22.75s" keyTimes="0.0;0.0108695652;1.0" repeatCount="indefinite" values="visible;visible;visible"/> </circle>
<circle class="agent" cx="3100" cy="-200" fill="#72D5C8" r="35"> <animate attributeName="cy" dur="22.75s" keyTimes="0.0;0.0108695652;0.0217391304;0.0326086957;1.0" repeatCount="indefinite" values="-200;-200;-300;-400;-400"/>
<animate attributeName="cx" dur="22.75s" keyTimes="0.0;0.0108695652;1.0" repeatCount="indefinite" values="3100;3100;3100"/>
<animate attributeName="visibility" dur="22.75s" keyTimes="0.0;0.0108695652;1.0" repeatCount="indefinite" values="visible;visible;visible"/> </circle>
<circle class="agent" cx="2700" cy="-1000" fill="#0ea08c" r="35"> <animate attributeName="cy" dur="22.75s" keyTimes="0.0;0.0108695652;0.0217391304;1.0" repeatCount="indefinite" values="-1000;-1000;-1100;-1100"/>
<animate attributeName="cx" dur="22.75s" keyTimes="0.0;0.0108695652;1.0" repeatCount="indefinite" values="2700;2700;2700"/>
<animate attributeName="visibility" dur="22.75s" keyTimes="0.0;0.0108695652;1.0" repeatCount="indefinite" values="visible;visible;visible"/> </circle>
<circle class="agent" cx="1700" cy="-3000" fill="#8F7B66" r="35"> <animate attributeName="cy" dur="22.75s" keyTimes="0.0;0.0108695652;0.0434782609;0.0543478261;0.0869565217;0.097826087;0.1086956522;0.1413043478;0.152173913;0.1630434783;0.1847826087;0.1956521739;0.2065217391;0.2173913043;0.2282608696;0.2391304348;0.2608695652;0.2717391304;0.2826086957;0.2934782609;0.3043478261;0.3152173913;0.3369565217;0.347826087;0.3586956522;0.3695652174;0.3804347826;0.3913043478;0.402173913;1.0" repeatCount="indefinite" values="-3000;-3000;-3000;-3100;-3100;-3000;-2900;-2900;-2800;-2700;-2700;-2600;-2500;-2400;-2300;-2200;-2200;-2100;-2100;-2200;-2100;-2000;-2000;-1900;-1800;-1700;-1700;-1600;-1500;-1500"/>
<animate attributeName="cx" dur="22.75s" keyTimes="0.0;0.0108695652;0.0217391304;0.0326086957;0.0434782609;0.0652173913;0.0760869565;0.0869565217;0.1086956522;0.1195652174;0.1630434783;0.1739130435;0.1847826087;0.2391304348;0.25;0.2608695652;0.3152173913;0.3260869565;0.3369565217;0.3695652174;0.3804347826;0.402173913;0.4130434783;0.4239130435;1.0" repeatCount="indefinite" values="1700;1700;1800;1900;2000;2000;2100;2200;2200;2100;2100;2000;1900;1900;2000;2100;2100;2000;1900;1900;1800;1800;1900;2000;2000"/>
<animate attributeName="visibility" dur="22.75s" keyTimes="0.0;0.0108695652;1.0" repeatCount="indefinite" values="visible;visible;visible"/> </circle>
<circle class="agent" cx="3000" cy="-3100" fill="#c1433c" r="35"> <animate attributeName="cy" dur="22.75s" keyTimes="0.0;0.0108695652;0.0217391304;0.0543478261;0.0652173913;1.0" repeatCount="indefinite" values="-3100;-3100;-3000;-3000;-2900;-2900"/>
<animate attributeName="cx" dur="22.75s" keyTimes="0.0;0.0108695652;0.0217391304;0.0326086957;0.0434782609;0.0543478261;1.0" repeatCount="indefinite" values="3000;3000;3000;3100;3200;3300;3300"/>
<animate attributeName="visibility" dur="22.75s" keyTimes="0.0;0.0108695652;1.0" repeatCount="indefinite" values="visible;visible;visible"/> </circle>
<circle class="agent" cx="600" cy="-2000" fill="#2e6f9e" r="35"> <animate attributeName="cy" dur="22.75s" keyTimes="0.0;0.0108695652;0.0217391304;0.0326086957;0.0434782609;0.0543478261;1.0" repeatCount="indefinite" values="-2000;-2000;-1900;-1800;-1800;-1700;-1700"/>
<animate attributeName="cx" dur="22.75s" keyTimes="0.0;0.0108695652;0.0326086957;0.0434782609;1.0" repeatCount="indefinite" values="600;600;600;700;700"/>
<animate attributeName="visibility" dur="22.75s" keyTimes="0.0;0.0108695652;1.0" repeatCount="indefinite" values="visible;visible;visible"/> </circle>
<circle class="agent" cx="2500" cy="-1800" fill="#6e81af" r="35"> <animate attributeName="cy" dur="22.75s" keyTimes="0.0;0.0108695652;0.0217391304;1.0" repeatCount="indefinite" values="-1800;-1800;-1700;-1700"/>
<animate attributeName="cx" dur="22.75s" keyTimes="0.0;0.0108695652;0.0217391304;0.0326086957;0.0434782609;1.0" repeatCount="indefinite" values="2500;2500;2500;2400;2300;2300"/>
<animate attributeName="visibility" dur="22.75s" keyTimes="0.0;0.0108695652;1.0" repeatCount="indefinite" values="visible;visible;visible"/> </circle>
<circle class="agent" cx="1600" cy="-1500" fill="#00b9c8" r="35"> <animate attributeName="cy" dur="22.75s" keyTimes="0.0;0.0108695652;0.0326086957;0.0434782609;0.1086956522;0.1195652174;0.1413043478;0.152173913;0.1630434783;0.1739130435;0.1847826087;0.1956521739;0.3369565217;0.347826087;1.0" repeatCount="indefinite" values="-1500;-1500;-1500;-1400;-1400;-1300;-1300;-1400;-1300;-1300;-1400;-1300;-1300;-1200;-1200"/>
<animate attributeName="cx" dur="22.75s" keyTimes="0.0;0.0108695652;0.0217391304;0.0326086957;0.0434782609;0.0543478261;0.0652173913;0.0760869565;0.0869565217;0.097826087;0.1086956522;0.25;0.2608695652;0.2717391304;0.2934782609;0.3043478261;0.3260869565;0.3369565217;1.0" repeatCount="indefinite" values="1600;1600;1500;1400;1400;1300;1300;1400;1300;1300;1200;1200;1300;1200;1200;1300;1300;1200;1200"/>
<animate attributeName="visibility" dur="22.75s" keyTimes="0.0;0.0108695652;1.0" repeatCount="indefinite" values="visible;visible;visible"/> </circle>
<circle class="agent" cx="1700" cy="-400" fill="#72D5C8" r="35"> <animate attributeName="cy" dur="22.75s" keyTimes="0.0;0.0108695652;0.0217391304;0.0326086957;0.0434782609;0.097826087;0.1086956522;0.1195652174;1.0" repeatCount="indefinite" values="-400;-400;-400;-500;-600;-600;-500;-400;-400"/>
<animate attributeName="cx" dur="22.75s" keyTimes="0.0;0.0108695652;0.0217391304;0.0434782609;0.0543478261;0.0652173913;0.0760869565;0.0869565217;0.097826087;1.0" repeatCount="indefinite" values="1700;1700;1800;1800;1900;2000;2100;2200;2300;2300"/>
<animate attributeName="visibility" dur="22.75s" keyTimes="0.0;0.0108695652;1.0" repeatCount="indefinite" values="visible;visible;visible"/> </circle>
<circle class="agent" cx="2600" cy="-2400" fill="#0ea08c" r="35"> <animate attributeName="cy" dur="22.75s" keyTimes="0.0;0.0108695652;0.0217391304;1.0" repeatCount="indefinite" values="-2400;-2400;-2500;-2500"/>
<animate attributeName="cx" dur="22.75s" keyTimes="0.0;0.0108695652;0.0217391304;0.0326086957;1.0" repeatCount="indefinite" values="2600;2600;2600;2700;2700"/>
<animate attributeName="visibility" dur="22.75s" keyTimes="0.0;0.0108695652;1.0" repeatCount="indefinite" values="visible;visible;visible"/> </circle>
<circle class="agent" cx="3200" cy="-2200" fill="#8F7B66" r="35"> <animate attributeName="cy" dur="22.75s" keyTimes="0.0;0.0108695652;0.0217391304;1.0" repeatCount="indefinite" values="-2200;-2200;-2100;-2100"/>
<animate attributeName="cx" dur="22.75s" keyTimes="0.0;0.0108695652;1.0" repeatCount="indefinite" values="3200;3200;3200"/>
<animate attributeName="visibility" dur="22.75s" keyTimes="0.0;0.0108695652;1.0" repeatCount="indefinite" values="visible;visible;visible"/> </circle>
<circle class="agent" cx="1100" cy="-600" fill="#c1433c" r="35"> <animate attributeName="cy" dur="22.75s" keyTimes="0.0;0.0108695652;0.0217391304;0.0326086957;0.0434782609;1.0" repeatCount="indefinite" values="-600;-600;-500;-500;-400;-400"/>
<animate attributeName="cx" dur="22.75s" keyTimes="0.0;0.0108695652;0.0217391304;0.0326086957;1.0" repeatCount="indefinite" values="1100;1100;1100;1200;1200"/>
<animate attributeName="visibility" dur="22.75s" keyTimes="0.0;0.0108695652;1.0" repeatCount="indefinite" values="visible;visible;visible"/> </circle>
<circle class="agent" cx="1200" cy="-1100" fill="#2e6f9e" r="35"> <animate attributeName="cy" dur="22.75s" keyTimes="0.0;0.0108695652;0.0217391304;0.0326086957;0.0434782609;0.0869565217;0.097826087;0.1956521739;0.2065217391;0.2282608696;0.2391304348;0.25;0.2608695652;0.3152173913;0.3260869565;0.4347826087;0.4456521739;0.4565217391;0.4673913043;0.4782608696;0.4891304348;0.5217391304;0.5326086957;0.5434782609;1.0" repeatCount="indefinite" values="-1100;-1100;-1200;-1300;-1400;-1400;-1500;-1500;-1400;-1400;-1500;-1500;-1600;-1600;-1500;-1500;-1400;-1500;-1500;-1600;-1700;-1700;-1600;-1500;-1500"/>
<animate attributeName="cx" dur="22.75s" keyTimes="0.0;0.0108695652;0.2065217391;0.2173913043;0.2282608696;0.2391304348;0.25;0.347826087;0.3586956522;0.4565217391;0.4673913043;0.4891304348;0.5;0.5108695652;0.5217391304;0.5434782609;0.5543478261;1.0" repeatCount="indefinite" values="1200;1200;1200;1300;1400;1400;1500;1500;1600;1600;1500;1500;1600;1700;1800;1800;1900;1900"/>
<animate attributeName="visibility" dur="22.75s" keyTimes="0.0;0.0108695652;1.0" repeatCount="indefinite" values="visible;visible;visible"/> </circle>
<circle class="target" cx="1000" cy="-1200" r="35" stroke="#c1433c"> <animate attributeName="visibility" dur="22.75s" keyTimes="0.0;0.0108695652;1.0" repeatCount="indefinite" values="visible;visible;visible"/> </circle>
<circle class="target" cx="300" cy="-1500" r="35" stroke="#2e6f9e"> <animate attributeName="visibility" dur="22.75s" keyTimes="0.0;0.0108695652;1.0" repeatCount="indefinite" values="visible;visible;visible"/> </circle>
<circle class="target" cx="1900" cy="-3200" r="35" stroke="#6e81af"> <animate attributeName="visibility" dur="22.75s" keyTimes="0.0;0.0108695652;1.0" repeatCount="indefinite" values="visible;visible;visible"/> </circle>
<circle class="target" cx="2500" cy="-1000" r="35" stroke="#00b9c8"> <animate attributeName="visibility" dur="22.75s" keyTimes="0.0;0.0108695652;1.0" repeatCount="indefinite" values="visible;visible;visible"/> </circle>
<circle class="target" cx="3100" cy="-400" r="35" stroke="#72D5C8"> <animate attributeName="visibility" dur="22.75s" keyTimes="0.0;0.0108695652;1.0" repeatCount="indefinite" values="visible;visible;visible"/> </circle>
<circle class="target" cx="2700" cy="-1100" r="35" stroke="#0ea08c"> <animate attributeName="visibility" dur="22.75s" keyTimes="0.0;0.0108695652;1.0" repeatCount="indefinite" values="visible;visible;visible"/> </circle>
<circle class="target" cx="2000" cy="-1500" r="35" stroke="#8F7B66"> <animate attributeName="visibility" dur="22.75s" keyTimes="0.0;0.0108695652;1.0" repeatCount="indefinite" values="visible;visible;visible"/> </circle>
<circle class="target" cx="3300" cy="-2900" r="35" stroke="#c1433c"> <animate attributeName="visibility" dur="22.75s" keyTimes="0.0;0.0108695652;1.0" repeatCount="indefinite" values="visible;visible;visible"/> </circle>
<circle class="target" cx="700" cy="-1700" r="35" stroke="#2e6f9e"> <animate attributeName="visibility" dur="22.75s" keyTimes="0.0;0.0108695652;1.0" repeatCount="indefinite" values="visible;visible;visible"/> </circle>
<circle class="target" cx="2300" cy="-1700" r="35" stroke="#6e81af"> <animate attributeName="visibility" dur="22.75s" keyTimes="0.0;0.0108695652;1.0" repeatCount="indefinite" values="visible;visible;visible"/> </circle>
<circle class="target" cx="1200" cy="-1200" r="35" stroke="#00b9c8"> <animate attributeName="visibility" dur="22.75s" keyTimes="0.0;0.0108695652;1.0" repeatCount="indefinite" values="visible;visible;visible"/> </circle>
<circle class="target" cx="2300" cy="-400" r="35" stroke="#72D5C8"> <animate attributeName="visibility" dur="22.75s" keyTimes="0.0;0.0108695652;1.0" repeatCount="indefinite" values="visible;visible;visible"/> </circle>
<circle class="target" cx="2700" cy="-2500" r="35" stroke="#0ea08c"> <animate attributeName="visibility" dur="22.75s" keyTimes="0.0;0.0108695652;1.0" repeatCount="indefinite" values="visible;visible;visible"/> </circle>
<circle class="target" cx="3200" cy="-2100" r="35" stroke="#8F7B66"> <animate attributeName="visibility" dur="22.75s" keyTimes="0.0;0.0108695652;1.0" repeatCount="indefinite" values="visible;visible;visible"/> </circle>
<circle class="target" cx="1200" cy="-400" r="35" stroke="#c1433c"> <animate attributeName="visibility" dur="22.75s" keyTimes="0.0;0.0108695652;1.0" repeatCount="indefinite" values="visible;visible;visible"/> </circle>
<circle class="target" cx="1900" cy="-1500" r="35" stroke="#2e6f9e"> <animate attributeName="visibility" dur="22.75s" keyTimes="0.0;0.0108695652;1.0" repeatCount="indefinite" values="visible;visible;visible"/> </circle>
</svg>