<?xml version="1.0" encoding="UTF-8"?>
        <svg xmlns="http://www.w3.org/2000/svg" xmlns:xlink="http://www.w3.org/1999/xlink"
             width="430" height="430" viewBox="0 -4300 4300 4300">

<defs>

</defs>

<rect fill="#84A1AE" height="70" rx="15" width="70" x="465" y="-535" />
<rect fill="#84A1AE" height="70" rx="15" width="70" x="465" y="-635" />
<rect fill="#84A1AE" height="70" rx="15" width="70" x="465" y="-735" />
<rect fill="#84A1AE" height="70" rx="15" width="70" x="465" y="-835" />
<rect fill="#84A1AE" height="70" rx="15" width="70" x="465" y="-935" />
<rect fill="#84A1AE" height="70" rx="15" width="70" x="465" y="-1035" />
<rect fill="#84A1AE" height="70" rx="15" width="70" x="465" y="-1135" />
<rect fill="#84A1AE" height="70" rx="15" width="70" x="465" y="-1235" />
<rect fill="#84A1AE" height="70" rx="15" width="70" x="465" y="-1335" />
<rect fill="#84A1AE" height="70" rx="15" width="70" x="465" y="-1435" />
<rect fill="#84A1AE" height="70" rx="15" width="70" x="465" y="-1535" />
<rect fill="#84A1AE" height="70" rx="15" width="70" x="465" y="-1635" />
<rect fill="#84A1AE" height="70" rx="15" width="70" x="465" y="-1735" />
<rect fill="#84A1AE" height="70" rx="15" width="70" x="465" y="-1835" />
<rect fill="#84A1AE" height="70" rx="15" width="70" x="465" y="-1935" />
<rect fill="#84A1AE" height="70" rx="15" width="70" x="465" y="-2035" />
<rect fill="#84A1AE" height="70" rx="15" width="70" x="465" y="-2135" />
<rect fill="#84A1AE" height="70" rx="15" width="70" x="465" y="-2235" />
<rect fill="#84A1AE" height="70" rx="15" width="70" x="465" y="-2335" />
<rect fill="#84A1AE" height="70" rx="15" width="70" x="465" y="-2435" />
<rect fill="#84A1AE" height="70" rx="15" width="70" x="465" y="-2535" />
<rect fill="#84A1AE" height="70" rx="15" width="70" x="465" y="-2635" />
<rect fill="#84A1AE" height="70" rx="15" width="70" x="465" y="-2735" />
<rect fill="#84A1AE" height="70" rx="15" width="70" x="465" y="-2835" />
<rect fill="#84A1AE" height="70" rx="15" width="70" x="465" y="-2935" />
<rect fill="#84A1AE" height="70" rx="15" width="70" x="465" y="-3035" />
<rect fill="#84A1AE" height="70" rx="15" width="70" x="465" y="-3135" />
<rect fill="#84A1AE" height="70" rx="15" width="70" x="465" y="-3235" />
<rect fill="#84A1AE" height="70" rx="15" width="70" x="465" y="-3335" />
<rect fill="#84A1AE" height="70" rx="15" width="70" x="465" y="-3435" />
<rect fill="#84A1AE" height="70" rx="15" width="70" x="465" y="-3535" />
<rect fill="#84A1AE" height="70" rx="15" width="70" x="465" y="-3635" />
<rect fill="#84A1AE" height="70" rx="15" width="70" x="465" y="-3735" />
<rect fill="#84A1AE" height="70" rx="15" width="70" x="465" y="-3835" />
<rect fill="#84A1AE" height="70" rx="15" width="70" x="565" y="-535" />
<rect fill="#84A1AE" height="70" rx="15" width="70" x="565" y="-1635" />
<rect fill="#84A1AE" height="70" rx="15" width="70" x="565" y="-1935" />
<rect fill="#84A1AE" height="70" rx="15" width="70" x="565" y="-2735" />
<rect fill="#84A1AE" height="70" rx="15" width="70" x="565" y="-3835" />
<rect fill="#84A1AE" height="70" rx="15" width="70" x="665" y="-535" />
<rect fill="#84A1AE" height="70" rx="15" width="70" x="665" y="-1035" />
<rect fill="#84A1AE" height="70" rx="15" width="70" x="665" y="-2535" />
<rect fill="#84A1AE" height="70" rx="15" width="70" x="665" y="-3035" />
<rect fill="#84A1AE" height="70" rx="15" width="70" x="665" y="-3235" />
<rect fill="#84A1AE" height="70" rx="15" width="70" x="665" y="-3835" />
<rect fill="#84A1AE" height="70" rx="15" width="70" x="765" y="-535" />
<rect fill="#84A1AE" height="70" rx="15" width="70" x="765" y="-635" />
<rect fill="#84A1AE" height="70" rx="15" width="70" x="765" y="-3835" />
<rect fill="#84A1AE" height="70" rx="15" width="70" x="865" y="-535" />
<rect fill="#84A1AE" height="70" rx="15" width="70" x="865" y="-2435" />
<rect fill="#84A1AE" height="70" rx="15" width="70" x="865" y="-2535" />
<rect fill="#84A1AE" height="70" rx="15" width="70" x="865" y="-3335" />
<rect fill="#84A1AE" height="70" rx="15" width="70" x="865" y="-3435" />
<rect fill="#84A1AE" height="70" rx="15" width="70" x="865" y="-3835" />
<rect fill="#84A1AE" height="70" rx="15" width="70" x="965" y="-535" />
<rect fill="#84A1AE" height="70" rx="15" width="70" x="965" y="-735" />
<rect fill="#84A1AE" height="70" rx="15" width="70" x="965" y="-1635" />
<rect fill="#84A1AE" height="70" rx="15" width="70" x="965" y="-1835" />
<rect fill="#84A1AE" height="70" rx="15" width="70" x="965" y="-2835" />
<rect fill="#84A1AE" height="70" rx="15" width="70" x="965" y="-3435" />
<rect fill="#84A1AE" height="70" rx="15" width="70" x="965" y="-3835" />
<rect fill="#84A1AE" height="70" rx="15" width="70" x="1065" y="-535" />
<rect fill="#84A1AE" height="70" rx="15" width="70" x="1065" y="-1135" />
<rect fill="#84A1AE" height="70" rx="15" width="70" x="1065" y="-1835" />
<rect fill="#84A1AE" height="70" rx="15" width="70" x="1065" y="-3735" />
<rect fill="#84A1AE" height="70" rx="15" width="70" x="1065" y="-3835" />
<rect fill="#84A1AE" height="70" rx="15" width="70" x="1165" y="-535" />
<rect fill="#84A1AE" height="70" rx="15" width="70" x="1165" y="-635" />
<rect fill="#84A1AE" height="70" rx="15" width="70" x="1165" y="-735" />
<rect fill="#84A1AE" height="70" rx="15" width="70" x="1165" y="-1535" />
<rect fill="#84A1AE" height="70" rx="15" width="70" x="1165" y="-3835" />
<rect fill="#84A1AE" height="70" rx="15" width="70" x="1265" y="-535" />
<rect fill="#84A1AE" height="70" rx="15" width="70" x="1265" y="-2835" />
<rect fill="#84A1AE" height="70" rx="15" width="70" x="1265" y="-3435" />
<rect fill="#84A1AE" height="70" rx="15" width="70" x="1265" y="-3835" />
<rect fill="#84A1AE" height="70" rx="15" width="70" x="1365" y="-535" />
<rect fill="#84A1AE" height="70" rx="15" width="70" x="1365" y="-835" />
<rect fill="#84A1AE" height="70" rx="15" width="70" x="1365" y="-935" />
<rect fill="#84A1AE" height="70" rx="15" width="70" x="1365" y="-1035" />
<rect fill="#84A1AE" height="70" rx="15" width="70" x="1365" y="-1935" />
<rect fill="#84A1AE" height="70" rx="15" width="70" x="1365" y="-2335" />
<rect fill="#84A1AE" height="70" rx="15" width="70" x="1365" y="-2635" />
<rect fill="#84A1AE" height="70" rx="15" width="70" x="1365" y="-2835" />
<rect fill="#84A1AE" height="70" rx="15" width="70" x="1365" y="-2935" />
<rect fill="#84A1AE" height="70" rx="15" width="70" x="1365" y="-3035" />
<rect fill="#84A1AE" height="70" rx="15" width="70" x="1365" y="-3335" />
<rect fill="#84A1AE" height="70" rx="15" width="70" x="1365" y="-3835" />
<rect fill="#84A1AE" height="70" rx="15" width="70" x="1465" y="-535" />
<rect fill="#84A1AE" height="70" rx="15" width="70" x="1465" y="-1235" />
<rect fill="#84A1AE" height="70" rx="15" width="70" x="1465" y="-1535" />
<rect fill="#84A1AE" height="70" rx="15" width="70" x="1465" y="-2035" />
<rect fill="#84A1AE" height="70" rx="15" width="70" x="1465" y="-3135" />
<rect fill="#84A1AE" height="70" rx="15" width="70" x="1465" y="-3235" />
<rect fill="#84A1AE" height="70" rx="15" width="70" x="1465" y="-3835" />
<rect fill="#84A1AE" height="70" rx="15" width="70" x="1565" y="-535" />
<rect fill="#84A1AE" height="70" rx="15" width="70" x="1565" y="-3035" />
<rect fill="#84A1AE" height="70" rx="15" width="70" x="1565" y="-3835" />
<rect fill="#84A1AE" height="70" rx="15" width="70" x="1665" y="-535" />
<rect fill="#84A1AE" height="70" rx="15" width="70" x="1665" y="-3735" />
<rect fill="#84A1AE" height="70" rx="15" width="70" x="1665" y="-3835" />
<rect fill="#84A1AE" height="70" rx="15" width="70" x="1765" y="-535" />
<rect fill="#84A1AE" height="70" rx="15" width="70" x="1765" y="-1235" />
<rect fill="#84A1AE" height="70" rx="15" width="70" x="1765" y="-3835" />
<rect fill="#84A1AE" height="70" rx="15" width="70" x="1865" y="-535" />
<rect fill="#84A1AE" height="70" rx="15" width="70" x="1865" y="-735" />
<rect fill="#84A1AE" height="70" rx="15" width="70" x="1865" y="-1335" />
<rect fill="#84A1AE" height="70" rx="15" width="70" x="1865" y="-3235" />
<rect fill="#84A1AE" height="70" rx="15" width="70" x="1865" y="-3435" />
<rect fill="#84A1AE" height="70" rx="15" width="70" x="1865" y="-3835" />
<rect fill="#84A1AE" height="70" rx="15" width="70" x="1965" y="-535" />
<rect fill="#84A1AE" height="70" rx="15" width="70" x="1965" y="-635" />
<rect fill="#84A1AE" height="70" rx="15" width="70" x="1965" y="-1835" />
<rect fill="#84A1AE" height="70" rx="15" width="70" x="1965" y="-1935" />
<rect fill="#84A1AE" height="70" rx="15" width="70" x="1965" y="-2135" />
<rect fill="#84A1AE" height="70" rx="15" width="70" x="1965" y="-2335" />
<rect fill="#84A1AE" height="70" rx="15" width="70" x="1965" y="-2435" />
<rect fill="#84A1AE" height="70" rx="15" width="70" x="1965" y="-3335" />
<rect fill="#84A1AE" height="70" rx="15" width="70" x="1965" y="-3835" />
<rect fill="#84A1AE" height="70" rx="15" width="70" x="2065" y="-535" />
<rect fill="#84A1AE" height="70" rx="15" width="70" x="2065" y="-1535" />
<rect fill="#84A1AE" height="70" rx="15" width="70" x="2065" y="-1635" />
<rect fill="#84A1AE" height="70" rx="15" width="70" x="2065" y="-2135" />
<rect fill="#84A1AE" height="70" rx="15" width="70" x="2065" y="-3835" />
<rect fill="#84A1AE" height="70" rx="15" width="70" x="2165" y="-535" />
<rect fill="#84A1AE" height="70" rx="15" width="70" x="2165" y="-935" />
<rect fill="#84A1AE" height="70" rx="15" width="70" x="2165" y="-1335" />
<rect fill="#84A1AE" height="70" rx="15" width="70" x="2165" y="-1835" />
<rect fill="#84A1AE" height="70" rx="15" width="70" x="2165" y="-3835" />
<rect fill="#84A1AE" height="70" rx="15" width="70" x="2265" y="-535" />
<rect fill="#84A1AE" height="70" rx="15" width="70" x="2265" y="-935" />
<rect fill="#84A1AE" height="70" rx="15" width="70" x="2265" y="-1135" />
<rect fill="#84A1AE" height="70" rx="15" width="70" x="2265" y="-2535" />
<rect fill="#84A1AE" height="70" rx="15" width="70" x="2265" y="-3235" />
<rect fill="#84A1AE" height="70" rx="15" width="70" x="2265" y="-3835" />
<rect fill="#84A1AE" height="70" rx="15" width="70" x="2365" y="-535" />
<rect fill="#84A1AE" height="70" rx="15" width="70" x="2365" y="-935" />
<rect fill="#84A1AE" height="70" rx="15" width="70" x="2365" y="-1035" />
<rect fill="#84A1AE" height="70" rx="15" width="70" x="2365" y="-3835" />
<rect fill="#84A1AE" height="70" rx="15" width="70" x="2465" y="-535" />
<rect fill="#84A1AE" height="70" rx="15" width="70" x="2465" y="-935" />
<rect fill="#84A1AE" height="70" rx="15" width="70" x="2465" y="-1535" />
<rect fill="#84A1AE" height="70" rx="15" width="70" x="2465" y="-2335" />
<rect fill="#84A1AE" height="70" rx="15" width="70" x="2465" y="-2735" />
<rect fill="#84A1AE" height="70" rx="15" width="70" x="2465" y="-3835" />
<rect fill="#84A1AE" height="70" rx="15" width="70" x="2565" y="-535" />
<rect fill="#84A1AE" height="70" rx="15" width="70" x="2565" y="-735" />
<rect fill="#84A1AE" height="70" rx="15" width="70" x="2565" y="-2535" />
<rect fill="#84A1AE" height="70" rx="15" width="70" x="2565" y="-3835" />
<rect fill="#84A1AE" height="70" rx="15" width="70" x="2665" y="-535" />
<rect fill="#84A1AE" height="70" rx="15" width="70" x="2665" y="-635" />
<rect fill="#84A1AE" height="70" rx="15" width="70" x="2665" y="-1135" />
<rect fill="#84A1AE" height="70" rx="15" width="70" x="2665" y="-1435" />
<rect fill="#84A1AE" height="70" rx="15" width="70" x="2665" y="-2735" />
<rect fill="#84A1AE" height="70" rx="15" width="70" x="2665" y="-3835" />
<rect fill="#84A1AE" height="70" rx="15" width="70" x="2765" y="-535" />
<rect fill="#84A1AE" height="70" rx="15" width="70" x="2765" y="-1635" />
<rect fill="#84A1AE" height="70" rx="15" width="70" x="2765" y="-1835" />
<rect fill="#84A1AE" height="70" rx="15" width="70" x="2765" y="-1935" />
<rect fill="#84A1AE" height="70" rx="15" width="70" x="2765" y="-2235" />
<rect fill="#84A1AE" height="70" rx="15" width="70" x="2765" y="-3735" />
<rect fill="#84A1AE" height="70" rx="15" width="70" x="2765" y="-3835" />
<rect fill="#84A1AE" height="70" rx="15" width="70" x="2865" y="-535" />
<rect fill="#84A1AE" height="70" rx="15" width="70" x="2865" y="-3835" />
<rect fill="#84A1AE" height="70" rx="15" width="70" x="2965" y="-535" />
<rect fill="#84A1AE" height="70" rx="15" width="70" x="2965" y="-2635" />
<rect fill="#84A1AE" height="70" rx="15" width="70" x="2965" y="-3835" />
<rect fill="#84A1AE" height="70" rx="15" width="70" x="3065" y="-535" />
<rect fill="#84A1AE" height="70" rx="15" width="70" x="3065" y="-735" />
<rect fill="#84A1AE" height="70" rx="15" width="70" x="3065" y="-2535" />
<rect fill="#84A1AE" height="70" rx="15" width="70" x="3065" y="-3835" />
<rect fill="#84A1AE" height="70" rx="15" width="70" x="3165" y="-535" />
<rect fill="#84A1AE" height="70" rx="15" width="70" x="3165" y="-835" />
<rect fill="#84A1AE" height="70" rx="15" width="70" x="3165" y="-1935" />
<rect fill="#84A1AE" height="70" rx="15" width="70" x="3165" y="-2735" />
<rect fill="#84A1AE" height="70" rx="15" width="70" x="3165" y="-3135" />
<rect fill="#84A1AE" height="70" rx="15" width="70" x="3165" y="-3835" />
<rect fill="#84A1AE" height="70" rx="15" width="70" x="3265" y="-535" />
<rect fill="#84A1AE" height="70" rx="15" width="70" x="3265" y="-1035" />
<rect fill="#84A1AE" height="70" rx="15" width="70" x="3265" y="-1735" />
<rect fill="#84A1AE" height="70" rx="15" width="70" x="3265" y="-3835" />
<rect fill="#84A1AE" height="70" rx="15" width="70" x="3365" y="-535" />
<rect fill="#84A1AE" height="70" rx="15" width="70" x="3365" y="-1435" />
<rect fill="#84A1AE" height="70" rx="15" width="70" x="3365" y="-1935" />
<rect fill="#84A1AE" height="70" rx="15" width="70" x="3365" y="-2135" />
<rect fill="#84A1AE" height="70" rx="15" width="70" x="3365" y="-3835" />
<rect fill="#84A1AE" height="70" rx="15" width="70" x="3465" y="-535" />
<rect fill="#84A1AE" height="70" rx="15" width="70" x="3465" y="-2635" />
<rect fill="#84A1AE" height="70" rx="15" width="70" x="3465" y="-3835" />
<rect fill="#84A1AE" height="70" rx="15" width="70" x="3565" y="-535" />
<rect fill="#84A1AE" height="70" rx="15" width="70" x="3565" y="-635" />
<rect fill="#84A1AE" height="70" rx="15" width="70" x="3565" y="-2435" />
<rect fill="#84A1AE" height="70" rx="15" width="70" x="3565" y="-3235" />
<rect fill="#84A1AE" height="70" rx="15" width="70" x="3565" y="-3835" />
<rect fill="#84A1AE" height="70" rx="15" width="70" x="3665" y="-535" />
<rect fill="#84A1AE" height="70" rx="15" width="70" x="3665" y="-2135" />
<rect fill="#84A1AE" height="70" rx="15" width="70" x="3665" y="-2835" />
<rect fill="#84A1AE" height="70" rx="15" width="70" x="3665" y="-3135" />
<rect fill="#84A1AE" height="70" rx="15" width="70" x="3665" y="-3735" />
<rect fill="#84A1AE" height="70" rx="15" width="70" x="3665" y="-3835" />
<rect fill="#84A1AE" height="70" rx="15" width="70" x="3765" y="-535" />
<rect fill="#84A1AE" height="70" rx="15" width="70" x="3765" y="-635" />
<rect fill="#84A1AE" height="70" rx="15" width="70" x="3765" y="-735" />
<rect fill="#84A1AE" height="70" rx="15" width="70" x="3765" y="-835" />
<rect fill="#84A1AE" height="70" rx="15" width="70" x="3765" y="-935" />
<rect fill="#84A1AE" height="70" rx="15" width="70" x="3765" y="-1035" />
<rect fill="#84A1AE" height="70" rx="15" width="70" x="3765" y="-1135" />
<rect fill="#84A1AE" height="70" rx="15" width="70" x="3765" y="-1235" />
<rect fill="#84A1AE" height="70" rx="15" width="70" x="3765" y="-1335" />
<rect fill="#84A1AE" height="70" rx="15" width="70" x="3765" y="-1435" />
<rect fill="#84A1AE" height="70" rx="15" width="70" x="3765" y="-1535" />
<rect fill="#84A1AE" height="70" rx="15" width="70" x="3765" y="-1635" />
<rect fill="#84A1AE" height="70" rx="15" width="70" x="3765" y="-1735" />
<rect fill="#84A1AE" height="70" rx="15" width="70" x="3765" y="-1835" />
<rect fill="#84A1AE" height="70" rx="15" width="70" x="3765" y="-1935" />
<rect fill="#84A1AE" height="70" rx="15" width="70" x="3765" y="-2035" />
<rect fill="#84A1AE" height="70" rx="15" width="70" x="3765" y="-2135" />
<rect fill="#84A1AE" height="70" rx="15" width="70" x="3765" y="-2235" />
<rect fill="#84A1AE" height="70" rx="15" width="70" x="3765" y="-2335" />
<rect fill="#84A1AE" height="70" rx="15" width="70" x="3765" y="-2435" />
<rect fill="#84A1AE" height="70" rx="15" width="70" x="3765" y="-2535" />
<rect fill="#84A1AE" height="70" rx="15" width="70" x="3765" y="-2635" />
<rect fill="#84A1AE" height="70" rx="15" width="70" x="3765" y="-2735" />
<rect fill="#84A1AE" height="70" rx="15" width="70" x="3765" y="-2835" />
<rect fill="#84A1AE" height="70" rx="15" width="70" x="3765" y="-2935" />
<rect fill="#84A1AE" height="70" rx="15" width="70" x="3765" y="-3035" />
<rect fill="#84A1AE" height="70" rx="15" width="70" x="3765" y="-3135" />
<rect fill="#84A1AE" height="70" rx="15" width="70" x="3765" y="-3235" />
<rect fill="#84A1AE" height="70" rx="15" width="70" x="3765" y="-3335" />
<rect fill="#84A1AE" height="70" rx="15" width="70" x="3765" y="-3435" />
<rect fill="#84A1AE" height="70" rx="15" width="70" x="3765" y="-3535" />
<rect fill="#84A1AE" height="70" rx="15" width="70" x="3765" y="-3635" />
<rect fill="#84A1AE" height="70" rx="15" width="70" x="3765" y="-3735" />
<rect fill="#84A1AE" height="70" rx="15" width="70" x="3765" y="-3835" />
<circle cx="2500" cy="-1400" fill="#c1433c" r="35"> <animate attributeName="cy" dur="115.08000000000001s" keyTimes="0.0;0.0024271845;0.0097087379;0.0121359223;0.0145631068;0.0169902913;0.0194174757;0.0218446602;0.0242718447;0.0266990291;0.0291262136;0.0315533981;0.0339805825;0.0461165049;0.0485436893;0.0509708738;0.0558252427;0.0582524272;0.0606796117;0.0631067961;0.0655339806;0.067961165;0.0703883495;0.072815534;0.0752427184;0.0873786408;0.0898058252;0.0922330097;0.0946601942;0.0970873786;0.0995145631;0.109223301;0.1116504854;0.1189320388;0.1213592233;0.1286407767;0.1310679612;0.145631068;0.1480582524;0.1504854369;0.1529126214;0.1553398058;0.1601941748;0.1626213592;0.1699029126;0.1723300971;0.1747572816;0.177184466;0.1917475728;0.1941747573;0.1990291262;0.2014563107;0.2063106796;0.2087378641;0.2111650485;0.213592233;0.2184466019;0.2208737864;0.2257281553;0.2281553398;0.2305825243;0.2354368932;0.2378640777;0.2524271845;0.2548543689;0.2572815534;0.2669902913;0.2694174757;0.2718446602;0.2742718447;0.2766990291;0.2791262136;0.2815533981;0.2839805825;0.286407767;0.2888349515;0.2912621359;0.2936893204;0.2961165049;0.2985436893;0.3009708738;0.3033980583;0.3058252427;0.3082524272;0.3106796117;0.3155339806;0.317961165;0.322815534;0.3252427184;0.3325242718;0.3349514563;0.3398058252;0.3422330097;0.3446601942;0.3470873786;0.3519417476;0.354368932;0.3567961165;0.359223301;0.3616504854;0.3640776699;0.3665048544;0.3689320388;0.3786407767;0.3810679612;0.3834951456;0.3859223301;0.3883495146;0.390776699;0.3932038835;0.395631068;0.3980582524;0.4004854369;0.4029126214;0.4053398058;0.4077669903;0.4126213592;0.4150485437;0.4174757282;0.4199029126;0.427184466;0.4296116505;0.432038835;0.4344660194;0.4368932039;0.4393203883;0.4417475728;0.4441747573;0.4466019417;0.4490291262;0.4514563107;0.4538834951;0.4563106796;0.4757281553;0.4781553398;0.4830097087;0.4854368932;0.4951456311;0.4975728155;0.5048543689;0.5072815534;0.5436893204;0.5461165049;0.5703883495;0.572815534;0.5752427184;0.5776699029;0.5800970874;0.5825242718;0.5849514563;0.5946601942;0.5970873786;0.6165048544;0.6189320388;0.6213592233;0.6237864078;0.6262135922;0.6286407767;0.6334951456;0.6359223301;0.6553398058;0.6577669903;0.6601941748;0.6626213592;0.6650485437;0.6674757282;0.6699029126;0.6723300971;0.6747572816;0.677184466;0.6796116505;0.682038835;0.6844660194;0.6868932039;0.6893203883;0.6917475728;0.6941747573;0.6966019417;0.6990291262;0.7014563107;0.7038834951;0.7063106796;0.7087378641;0.7111650485;0.713592233;0.7184466019;0.7208737864;0.7233009709;0.7257281553;0.7281553398;0.7305825243;0.7330097087;0.7354368932;0.7378640777;0.7402912621;0.7427184466;0.7451456311;0.7475728155;0.75;0.7524271845;0.7548543689;0.7572815534;0.7597087379;0.7621359223;0.7645631068;0.7669902913;0.7694174757;0.786407767;0.7888349515;0.7912621359;0.7936893204;0.8082524272;0.8106796117;0.8131067961;0.8155339806;0.817961165;0.8203883495;0.822815534;0.8252427184;0.8373786408;0.8398058252;0.8422330097;0.8689320388;0.8713592233;0.8762135922;0.8786407767;0.8810679612;0.8834951456;0.8859223301;0.8883495146;0.9004854369;0.9029126214;0.9126213592;0.9150485437;0.9223300971;0.9247572816;0.927184466;0.932038835;0.9344660194;0.9368932039;0.9441747573;0.9466019417;0.9538834951;0.9563106796;0.9587378641;0.9660194175;0.9684466019;0.9878640777;0.9902912621;0.9927184466;0.9951456311;0.9975728155;1.0" repeatCount="indefinite" values="-1400;-1400;-1400;-1500;-1600;-1600;-1700;-1700;-1800;-1900;-2000;-2100;-2200;-2200;-2300;-2400;-2400;-2500;-2500;-2600;-2700;-2800;-2900;-2900;-3000;-3000;-2900;-2900;-3000;-3000;-2900;-2900;-2800;-2800;-2900;-2900;-3000;-3000;-2900;-2900;-2800;-2900;-2900;-3000;-3000;-3100;-3100;-3000;-3000;-2900;-2900;-3000;-3000;-2900;-3000;-2900;-2900;-3000;-3000;-2900;-2800;-2800;-2900;-2900;-2800;-2700;-2700;-2600;-2600;-2500;-2400;-2300;-2200;-2200;-2100;-2000;-1900;-1800;-1700;-1600;-1700;-1600;-1500;-1400;-1300;-1300;-1200;-1200;-1100;-1100;-1200;-1200;-1300;-1300;-1400;-1400;-1500;-1600;-1700;-1700;-1800;-1800;-1700;-1700;-1800;-1900;-2000;-2000;-2100;-2200;-2300;-2300;-2400;-2500;-2600;-2700;-2700;-2800;-2800;-2900;-2900;-3000;-3100;-3200;-3200;-3300;-3400;-3500;-3600;-3600;-3500;-3500;-3600;-3600;-3500;-3500;-3600;-3600;-3500;-3500;-3600;-3600;-3500;-3500;-3400;-3500;-3500;-3400;-3300;-3200;-3200;-3100;-3100;-3000;-3100;-3000;-2900;-2800;-2800;-2700;-2700;-2600;-2500;-2400;-2300;-2300;-2400;-2300;-2200;-2100;-2100;-2000;-1900;-1800;-1700;-1600;-1500;-1400;-1300;-1300;-1200;-1300;-1200;-1100;-1000;-1000;-1100;-1200;-1300;-1300;-1400;-1500;-1600;-1700;-1800;-1900;-2000;-2100;-2200;-2200;-2300;-2300;-2200;-2300;-2300;-2400;-2500;-2500;-2600;-2600;-2700;-2700;-2600;-2600;-2700;-2800;-2900;-2800;-2700;-2700;-2800;-2900;-2900;-3000;-3000;-2900;-2900;-2800;-2800;-2900;-2900;-3000;-3000;-2900;-2900;-3000;-3100;-3100;-3000;-2900;-2900;-2800;-2800;-2900;-2800;-2800;-2700;-2700;-2600;-2500;-2400;-2500;-2500"/>
<animate attributeName="cx" dur="115.08000000000001s" keyTimes="0.0;0.0024271845;0.0048543689;0.0072815534;0.0145631068;0.0169902913;0.0194174757;0.0218446602;0.0339805825;0.036407767;0.0509708738;0.0533980583;0.0558252427;0.0582524272;0.0606796117;0.0703883495;0.072815534;0.0752427184;0.0776699029;0.0800970874;0.0825242718;0.0849514563;0.0873786408;0.0898058252;0.0922330097;0.0946601942;0.0970873786;0.0995145631;0.1019417476;0.104368932;0.1067961165;0.109223301;0.1140776699;0.1165048544;0.1189320388;0.1237864078;0.1262135922;0.1286407767;0.1310679612;0.1334951456;0.1359223301;0.1383495146;0.140776699;0.1432038835;0.145631068;0.1480582524;0.1504854369;0.1553398058;0.1577669903;0.1601941748;0.1626213592;0.1650485437;0.1674757282;0.1699029126;0.177184466;0.1796116505;0.182038835;0.1844660194;0.1868932039;0.1893203883;0.1941747573;0.1966019417;0.1990291262;0.2014563107;0.2038834951;0.2063106796;0.213592233;0.2160194175;0.2184466019;0.2208737864;0.2233009709;0.2305825243;0.2330097087;0.2354368932;0.2378640777;0.2402912621;0.2427184466;0.2451456311;0.25;0.2524271845;0.2572815534;0.2597087379;0.2621359223;0.2645631068;0.2669902913;0.2694174757;0.2718446602;0.2815533981;0.2839805825;0.3106796117;0.3131067961;0.3155339806;0.3203883495;0.322815534;0.3276699029;0.3300970874;0.3325242718;0.3373786408;0.3398058252;0.3422330097;0.3446601942;0.3470873786;0.3495145631;0.3519417476;0.359223301;0.3616504854;0.3640776699;0.3665048544;0.3689320388;0.3713592233;0.3737864078;0.3762135922;0.3786407767;0.395631068;0.3980582524;0.4077669903;0.4101941748;0.4126213592;0.4199029126;0.4223300971;0.4247572816;0.427184466;0.4344660194;0.4368932039;0.4466019417;0.4490291262;0.4514563107;0.4538834951;0.4563106796;0.4587378641;0.4611650485;0.463592233;0.4660194175;0.4684466019;0.4708737864;0.4733009709;0.4757281553;0.4781553398;0.4805825243;0.4830097087;0.4854368932;0.4878640777;0.4902912621;0.4927184466;0.4951456311;0.5;0.5024271845;0.5048543689;0.5072815534;0.5097087379;0.5121359223;0.5145631068;0.5169902913;0.5194174757;0.5218446602;0.5242718447;0.5266990291;0.5291262136;0.5315533981;0.5339805825;0.536407767;0.5388349515;0.5412621359;0.5436893204;0.5461165049;0.5485436893;0.5509708738;0.5533980583;0.5558252427;0.5582524272;0.5606796117;0.5631067961;0.5655339806;0.567961165;0.5703883495;0.5752427184;0.5776699029;0.5873786408;0.5898058252;0.5922330097;0.6140776699;0.6165048544;0.6286407767;0.6310679612;0.6334951456;0.6359223301;0.6383495146;0.640776699;0.6432038835;0.6529126214;0.6553398058;0.6650485437;0.6674757282;0.677184466;0.6796116505;0.6990291262;0.7014563107;0.713592233;0.7160194175;0.7184466019;0.7257281553;0.7281553398;0.75;0.7524271845;0.7548543689;0.7572815534;0.7694174757;0.7718446602;0.7839805825;0.786407767;0.7936893204;0.7961165049;0.7985436893;0.8009708738;0.8033980583;0.8058252427;0.8082524272;0.8106796117;0.8131067961;0.8252427184;0.8276699029;0.8300970874;0.8325242718;0.8349514563;0.8373786408;0.8422330097;0.8446601942;0.8470873786;0.8495145631;0.854368932;0.8567961165;0.859223301;0.8616504854;0.8640776699;0.8665048544;0.8689320388;0.8713592233;0.8737864078;0.8762135922;0.8786407767;0.8810679612;0.8834951456;0.8859223301;0.8883495146;0.890776699;0.8932038835;0.895631068;0.8980582524;0.9004854369;0.9029126214;0.9053398058;0.9077669903;0.9101941748;0.9126213592;0.9150485437;0.9174757282;0.9199029126;0.9223300971;0.927184466;0.9296116505;0.932038835;0.9368932039;0.9393203883;0.9417475728;0.9441747573;0.9466019417;0.9490291262;0.9514563107;0.9538834951;0.9587378641;0.9611650485;0.963592233;0.9660194175;0.9684466019;0.9708737864;0.9733009709;0.9757281553;0.9781553398;0.9805825243;0.9830097087;0.9854368932;1.0" repeatCount="indefinite" values="2500;2500;2500;2600;2600;2700;2700;2600;2600;2700;2700;2800;2900;2900;2800;2800;2900;2900;3000;3100;3200;3300;3400;3400;3500;3500;3400;3400;3300;3400;3300;3400;3400;3300;3400;3400;3500;3400;3400;3300;3200;3200;3100;3000;2900;2900;2800;2800;2700;2600;2600;2500;2400;2300;2300;2400;2500;2400;2300;2200;2200;2100;2000;2000;1900;2000;2000;1900;1800;1800;1700;1700;1800;1700;1700;1800;1700;1600;1600;1500;1500;1400;1300;1200;1100;1100;1000;1000;900;900;1000;1100;1100;1000;1000;900;800;800;700;700;800;800;700;800;800;700;700;800;800;900;1000;1000;900;900;1000;1000;900;800;800;900;1000;1100;1100;1200;1200;1300;1300;1400;1400;1500;1400;1500;1600;1700;1800;1900;2000;2000;2100;2200;2200;2100;2200;2300;2400;2400;2500;2400;2400;2500;2500;2600;2700;2800;2900;3000;3100;3000;2900;2800;2700;2600;2500;2400;2400;2300;2200;2100;2000;2000;1900;2000;1900;1800;1700;1700;1800;1800;1700;1600;1600;1700;1700;1600;1500;1500;1400;1500;1400;1400;1300;1300;1200;1200;1300;1300;1200;1200;1100;1200;1200;1300;1300;1200;1200;1300;1300;1400;1400;1300;1300;1400;1500;1400;1500;1600;1700;1700;1800;1800;1900;2000;1900;1800;1900;1900;2000;2100;2200;2200;2300;2400;2500;2600;2700;2800;2800;2900;3000;3000;3100;3100;3200;3200;3100;3000;2900;2800;2900;2900;3000;2900;2800;2700;2700;2600;2500;2400;2400;2300;2200;2200;2100;2000;1900;1900;1800;1700;1800;1800;1700;1600;1700;1700;1800;1700;1600;1500;1400;1400;1300;1300"/>
<animate attributeName="visibility" dur="115.08000000000001s" keyTimes="0.0;0.0024271845;1.0" repeatCount="indefinite" values="visible;visible;visible"/> </circle>
<circle cx="3000" cy="-1900" fill="#2e6f9e" r="35"> <animate attributeName="cy" dur="115.08000000000001s" keyTimes="0.0;0.0024271845;0.0048543689;0.0072815534;0.0097087379;0.0121359223;0.0145631068;0.0169902913;0.0194174757;0.0218446602;0.0242718447;0.0266990291;0.0388349515;0.0412621359;0.0461165049;0.0485436893;0.0509708738;0.0533980583;0.0631067961;0.0655339806;0.067961165;0.0849514563;0.0873786408;0.0898058252;0.0922330097;0.0946601942;0.0970873786;0.0995145631;0.1019417476;0.104368932;0.1067961165;0.109223301;0.1116504854;0.1140776699;0.1165048544;0.1189320388;0.1213592233;0.1237864078;0.1262135922;0.1286407767;0.1310679612;0.1334951456;0.2257281553;0.2281553398;0.2305825243;0.2330097087;0.2354368932;0.2378640777;0.2402912621;0.2427184466;0.2451456311;0.2475728155;0.25;0.2524271845;0.2548543689;0.2572815534;0.2597087379;0.2621359223;0.2645631068;0.2669902913;0.2694174757;0.2718446602;0.2742718447;0.2766990291;0.2791262136;0.2815533981;0.2839805825;0.286407767;0.2888349515;0.2912621359;0.2936893204;0.2961165049;0.2985436893;0.3033980583;0.3058252427;0.3106796117;0.3131067961;0.3519417476;0.354368932;0.359223301;0.3616504854;0.3640776699;0.3762135922;0.3786407767;0.3859223301;0.3883495146;0.390776699;0.395631068;0.3980582524;0.4004854369;0.4150485437;0.4174757282;0.4199029126;0.4223300971;0.427184466;0.4296116505;0.432038835;0.4344660194;0.4368932039;0.4393203883;0.4538834951;0.4563106796;0.463592233;0.4660194175;0.4684466019;0.4708737864;0.4733009709;0.4757281553;0.4781553398;0.4805825243;0.4830097087;0.4854368932;0.4878640777;0.4902912621;0.4927184466;0.4951456311;0.4975728155;0.5;0.5024271845;0.5048543689;0.5072815534;0.5097087379;0.5121359223;0.5145631068;0.5169902913;0.5194174757;0.5218446602;0.5242718447;0.5266990291;0.5291262136;0.5315533981;0.5339805825;0.536407767;0.5388349515;0.5412621359;0.5436893204;0.5461165049;0.5485436893;0.5509708738;0.5533980583;0.5558252427;0.5582524272;0.5606796117;0.5631067961;0.5655339806;0.567961165;0.5703883495;0.572815534;0.5752427184;0.609223301;0.6116504854;0.6140776699;0.6165048544;0.6189320388;0.6213592233;0.6237864078;0.6262135922;0.6286407767;0.6310679612;0.6334951456;0.6359223301;0.6383495146;0.640776699;0.6432038835;0.645631068;0.6480582524;0.6504854369;0.6529126214;0.6553398058;0.6990291262;0.7014563107;0.7038834951;0.7063106796;0.7087378641;0.7111650485;0.713592233;0.7160194175;0.7184466019;0.7208737864;0.7233009709;0.7257281553;0.7281553398;0.7305825243;0.7330097087;0.7354368932;0.7378640777;0.7597087379;0.7621359223;0.7645631068;0.7912621359;0.7936893204;0.7961165049;0.7985436893;0.8009708738;0.8106796117;0.8131067961;0.8155339806;0.817961165;0.8203883495;0.822815534;0.8252427184;0.8276699029;0.8349514563;0.8373786408;0.8398058252;0.8422330097;0.8470873786;0.8495145631;0.8519417476;0.854368932;0.8567961165;0.859223301;0.8616504854;0.8689320388;0.8713592233;0.8737864078;0.8786407767;0.8810679612;0.8834951456;0.890776699;0.8932038835;0.895631068;0.8980582524;0.9004854369;0.9029126214;0.9053398058;0.9077669903;0.9101941748;0.9126213592;0.9150485437;0.9174757282;0.9199029126;0.9223300971;0.9247572816;0.927184466;0.9296116505;0.932038835;0.9344660194;1.0" repeatCount="indefinite" values="-1900;-1900;-1900;-2000;-2100;-2200;-2300;-2400;-2400;-2500;-2500;-2600;-2600;-2700;-2700;-2800;-2800;-2900;-2900;-2800;-2700;-2700;-2600;-2500;-2400;-2300;-2200;-2100;-2200;-2300;-2400;-2500;-2600;-2700;-2800;-2900;-3000;-3100;-3200;-3300;-3400;-3500;-3500;-3400;-3300;-3200;-3100;-3000;-2900;-2800;-2700;-2600;-2500;-2400;-2300;-2200;-2100;-2000;-1900;-1800;-1700;-1600;-1500;-1400;-1300;-1200;-1100;-1100;-1000;-1000;-900;-900;-800;-800;-700;-700;-800;-800;-900;-900;-800;-900;-900;-1000;-1000;-1100;-1200;-1200;-1300;-1400;-1400;-1500;-1500;-1600;-1600;-1700;-1700;-1800;-1900;-1800;-1800;-1700;-1700;-1600;-1500;-1500;-1400;-1300;-1300;-1200;-1200;-1100;-1100;-1000;-900;-900;-800;-800;-700;-800;-900;-1000;-1100;-1200;-1300;-1400;-1500;-1500;-1600;-1700;-1800;-1900;-2000;-2100;-2200;-2300;-2400;-2500;-2600;-2700;-2800;-2900;-3000;-3100;-3200;-3300;-3400;-3500;-3600;-3600;-3500;-3400;-3300;-3200;-3100;-3000;-2900;-2800;-2700;-2600;-2500;-2400;-2300;-2200;-2100;-2000;-1900;-1800;-1700;-1700;-1600;-1500;-1400;-1300;-1200;-1300;-1400;-1500;-1600;-1700;-1700;-1800;-1900;-2000;-2100;-2200;-2200;-2300;-2400;-2400;-2300;-2300;-2200;-2300;-2300;-2400;-2500;-2500;-2600;-2700;-2800;-2900;-2900;-3000;-3000;-3100;-3100;-3200;-3300;-3300;-3200;-3200;-3100;-3100;-3000;-2900;-2900;-2800;-2700;-2700;-2600;-2500;-2400;-2300;-2200;-2300;-2400;-2500;-2600;-2700;-2800;-2900;-3000;-3100;-3200;-3300;-3400;-3500;-3500"/>
<animate attributeName="cx" dur="115.08000000000001s" keyTimes="0.0;0.0024271845;0.0048543689;0.0169902913;0.0194174757;0.0218446602;0.0242718447;0.0266990291;0.0291262136;0.0315533981;0.0339805825;0.036407767;0.0388349515;0.0412621359;0.0436893204;0.0461165049;0.0485436893;0.0509708738;0.0533980583;0.0558252427;0.0582524272;0.0606796117;0.0631067961;0.067961165;0.0703883495;0.072815534;0.0752427184;0.0776699029;0.0800970874;0.0825242718;0.0849514563;0.1334951456;0.1359223301;0.1383495146;0.140776699;0.1432038835;0.145631068;0.1480582524;0.1504854369;0.1529126214;0.1553398058;0.1577669903;0.1601941748;0.1626213592;0.1650485437;0.1674757282;0.1699029126;0.1723300971;0.1747572816;0.177184466;0.1796116505;0.182038835;0.1844660194;0.1868932039;0.1893203883;0.1917475728;0.1941747573;0.1966019417;0.1990291262;0.2014563107;0.2038834951;0.2063106796;0.2087378641;0.2111650485;0.213592233;0.2160194175;0.2184466019;0.2208737864;0.2233009709;0.2257281553;0.2839805825;0.286407767;0.2888349515;0.2912621359;0.2936893204;0.2961165049;0.2985436893;0.3009708738;0.3033980583;0.3058252427;0.3082524272;0.3106796117;0.3131067961;0.3155339806;0.317961165;0.3203883495;0.322815534;0.3252427184;0.3276699029;0.3300970874;0.3325242718;0.3349514563;0.3373786408;0.3398058252;0.3422330097;0.3446601942;0.3470873786;0.3495145631;0.3519417476;0.354368932;0.3567961165;0.359223301;0.3640776699;0.3665048544;0.3689320388;0.3713592233;0.3737864078;0.3762135922;0.3786407767;0.3810679612;0.3834951456;0.3859223301;0.390776699;0.3932038835;0.395631068;0.4004854369;0.4029126214;0.4053398058;0.4077669903;0.4101941748;0.4126213592;0.4150485437;0.4174757282;0.4199029126;0.4223300971;0.4247572816;0.427184466;0.4296116505;0.432038835;0.4393203883;0.4417475728;0.4441747573;0.4466019417;0.4490291262;0.4514563107;0.4538834951;0.4563106796;0.4587378641;0.4611650485;0.463592233;0.4684466019;0.4708737864;0.4757281553;0.4781553398;0.4805825243;0.4830097087;0.4854368932;0.4878640777;0.4927184466;0.4951456311;0.4975728155;0.5;0.5218446602;0.5242718447;0.5752427184;0.5776699029;0.5800970874;0.5825242718;0.5849514563;0.5873786408;0.5898058252;0.5922330097;0.5946601942;0.5970873786;0.5995145631;0.6019417476;0.604368932;0.6067961165;0.609223301;0.6553398058;0.6577669903;0.6601941748;0.6626213592;0.6650485437;0.6674757282;0.6699029126;0.6723300971;0.6747572816;0.677184466;0.6796116505;0.682038835;0.6844660194;0.6868932039;0.6893203883;0.6917475728;0.6941747573;0.6966019417;0.6990291262;0.7233009709;0.7257281553;0.7378640777;0.7402912621;0.7427184466;0.7451456311;0.7475728155;0.75;0.7524271845;0.7548543689;0.7572815534;0.7597087379;0.7645631068;0.7669902913;0.7694174757;0.7718446602;0.7742718447;0.7766990291;0.7791262136;0.7815533981;0.7839805825;0.786407767;0.7888349515;0.7912621359;0.7936893204;0.7961165049;0.8009708738;0.8033980583;0.8058252427;0.8082524272;0.8106796117;0.8155339806;0.817961165;0.8276699029;0.8300970874;0.8325242718;0.8349514563;0.8373786408;0.8398058252;0.8422330097;0.8446601942;0.8470873786;0.8519417476;0.854368932;0.8567961165;0.859223301;0.8616504854;0.8640776699;0.8665048544;0.8689320388;0.8737864078;0.8762135922;0.8786407767;0.8834951456;0.8859223301;0.8883495146;0.890776699;0.9344660194;0.9368932039;0.9393203883;0.9417475728;0.9441747573;0.9466019417;0.9490291262;0.9514563107;0.9538834951;0.9563106796;0.9587378641;0.9611650485;0.963592233;0.9660194175;0.9684466019;0.9708737864;0.9733009709;0.9757281553;0.9781553398;0.9805825243;0.9830097087;0.9854368932;0.9878640777;0.9902912621;0.9927184466;0.9951456311;0.9975728155;1.0" repeatCount="indefinite" values="3000;3000;2900;2900;2800;2800;2700;2700;2600;2500;2400;2300;2200;2200;2100;2000;2000;1900;1900;1800;1700;1600;1500;1500;1400;1300;1200;1100;1000;900;800;800;900;1000;1100;1200;1300;1400;1500;1600;1700;1800;1900;2000;2100;2200;2300;2400;2500;2600;2700;2600;2500;2400;2300;2200;2100;2000;1900;1800;1700;1600;1500;1400;1300;1200;1100;1000;900;800;800;900;900;1000;1000;1100;1100;1200;1300;1300;1400;1500;1500;1600;1700;1800;1900;2000;2100;2200;2300;2400;2500;2600;2700;2800;2900;3000;3100;3100;3200;3300;3300;3200;3100;3000;2900;2800;2800;2700;2600;2500;2500;2400;2300;2300;2200;2100;2000;1900;1800;1700;1700;1600;1600;1500;1400;1400;1300;1300;1400;1500;1600;1700;1800;1900;1900;2000;2100;2200;2200;2300;2300;2400;2400;2500;2500;2600;2600;2700;2700;2800;2800;2900;2900;3000;3100;3200;3300;3400;3500;3600;3500;3400;3300;3200;3100;3000;2900;2900;2800;2700;2600;2500;2400;2300;2200;2100;2000;1900;1800;1700;1600;1500;1400;1300;1200;1100;1100;1200;1200;1300;1400;1500;1600;1700;1800;1900;2000;2100;2100;2200;2300;2400;2500;2600;2700;2800;2900;3000;3100;3200;3200;3300;3300;3200;3100;3000;2900;2900;2800;2800;2700;2600;2500;2500;2400;2400;2300;2200;2200;2100;2100;2000;2000;1900;1800;1700;1700;1600;1500;1500;1400;1300;1200;1200;1300;1400;1500;1600;1700;1800;1900;2000;2100;2200;2300;2400;2500;2600;2700;2800;2900;3000;3100;3200;3300;3400;3500;3600;3700;3600;3600"/>
<animate attributeName="visibility" dur="115.08000000000001s" keyTimes="0.0;0.0024271845;1.0" repeatCount="indefinite" values="visible;visible;visible"/> </circle>
<circle cx="3500" cy="-3000" fill="none" r="35" stroke="#c1433c" stroke-width="10"> <animate attributeName="cy" dur="115.08000000000001s" keyTimes="0.0;0.0024271845;0.0922330097;0.0946601942;0.3276699029;0.3300970874;0.5242718447;0.5266990291;0.7111650485;0.713592233;0.8859223301;0.8883495146;1.0" repeatCount="indefinite" values="-3000;-3000;-3000;-1100;-1100;-3600;-3600;-1000;-1000;-2900;-2900;-800;-800"/>
<animate attributeName="cx" dur="115.08000000000001s" keyTimes="0.0;0.0024271845;0.0922330097;0.0946601942;0.3276699029;0.3300970874;0.5242718447;0.5266990291;0.7111650485;0.713592233;0.8859223301;0.8883495146;1.0" repeatCount="indefinite" values="3500;3500;3500;900;900;3100;3100;1200;1200;3200;3200;1300;1300"/>
<animate attributeName="visibility" dur="115.08000000000001s" keyTimes="0.0;0.0024271845;1.0" repeatCount="indefinite" values="visible;visible;visible"/> </circle>
<circle cx="2600" cy="-2600" fill="none" r="35" stroke="#2e6f9e" stroke-width="10"> <animate attributeName="cy" dur="115.08000000000001s" keyTimes="0.0;0.0024271845;0.0266990291;0.0291262136;0.0509708738;0.0533980583;0.0970873786;0.0995145631;0.177184466;0.1796116505;0.2597087379;0.2621359223;0.359223301;0.3616504854;0.4344660194;0.4368932039;0.5;0.5024271845;0.5898058252;0.5922330097;0.6529126214;0.6553398058;0.7087378641;0.7111650485;0.7742718447;0.7766990291;0.7961165049;0.7985436893;0.8495145631;0.8519417476;0.9004854369;0.9029126214;0.9927184466;0.9951456311;1.0" repeatCount="indefinite" values="-2600;-2600;-2600;-2900;-2900;-2100;-2100;-3500;-3500;-2000;-2000;-800;-800;-1900;-1900;-700;-700;-3600;-3600;-1700;-1700;-1200;-1200;-2400;-2400;-2200;-2200;-3300;-3300;-2200;-2200;-3500;-3500;-1000;-1000"/>
<animate attributeName="cx" dur="115.08000000000001s" keyTimes="0.0;0.0024271845;0.0266990291;0.0291262136;0.0509708738;0.0533980583;0.0970873786;0.0995145631;0.177184466;0.1796116505;0.2597087379;0.2621359223;0.2961165049;0.2985436893;0.359223301;0.3616504854;0.4344660194;0.4368932039;0.5;0.5024271845;0.5898058252;0.5922330097;0.6529126214;0.6553398058;0.7087378641;0.7111650485;0.7742718447;0.7766990291;0.7961165049;0.7985436893;0.8495145631;0.8519417476;0.9004854369;0.9029126214;0.9927184466;0.9951456311;1.0" repeatCount="indefinite" values="2600;2600;2600;1900;1900;800;800;2700;2700;800;800;1100;1100;3300;3300;1300;1300;2800;2800;3600;3600;2900;2900;1100;1100;2600;2600;3300;3300;2200;2200;1200;1200;3700;3700;1800;1800"/>
<animate attributeName="visibility" dur="115.08000000000001s" keyTimes="0.0;0.0024271845;1.0" repeatCount="indefinite" values="visible;visible;visible"/> </circle>
</svg>