<?xml version="1.0" encoding="UTF-8"?>
        <svg xmlns="http://www.w3.org/2000/svg" xmlns:xlink="http://www.w3.org/1999/xlink"
             width="430" height="430" viewBox="0 -4300 4300 4300">

<defs>

</defs>

<rect fill="#84A1AE" height="70" rx="15" width="70" x="465" y="-535" />
<rect fill="#84A1AE" height="70" rx="15" width="70" x="465" y="-635" />
<rect fill="#84A1AE" height="70" rx="15" width="70" x="465" y="-735" />
<rect fill="#84A1AE" height="70" rx="15" width="70" x="465" y="-835" />
<rect fill="#84A1AE" height="70" rx="15" width="70" x="465" y="-935" />
<rect fill="#84A1AE" height="70" rx="15" width="70" x="465" y="-1035" />
<rect fill="#84A1AE" height="70" rx="15" width="70" x="465" y="-1135" />
<rect fill="#84A1AE" height="70" rx="15" width="70" x="465" y="-1235" />
<rect fill="#84A1AE" height="70" rx="15" width="70" x="465" y="-1335" />
<rect fill="#84A1AE" height="70" rx="15" width="70" x="465" y="-1435" />
<rect fill="#84A1AE" height="70" rx="15" width="70" x="465" y="-1535" />
<rect fill="#84A1AE" height="70" rx="15" width="70" x="465" y="-1635" />
<rect fill="#84A1AE" height="70" rx="15" width="70" x="465" y="-1735" />
<rect fill="#84A1AE" height="70" rx="15" width="70" x="465" y="-1835" />
<rect fill="#84A1AE" height="70" rx="15" width="70" x="465" y="-1935" />
<rect fill="#84A1AE" height="70" rx="15" width="70" x="465" y="-2035" />
<rect fill="#84A1AE" height="70" rx="15" width="70" x="465" y="-2135" />
<rect fill="#84A1AE" height="70" rx="15" width="70" x="465" y="-2235" />
<rect fill="#84A1AE" height="70" rx="15" width="70" x="465" y="-2335" />
<rect fill="#84A1AE" height="70" rx="15" width="70" x="465" y="-2435" />
<rect fill="#84A1AE" height="70" rx="15" width="70" x="465" y="-2535" />
<rect fill="#84A1AE" height="70" rx="15" width="70" x="465" y="-2635" />
<rect fill="#84A1AE" height="70" rx="15" width="70" x="465" y="-2735" />
<rect fill="#84A1AE" height="70" rx="15" width="70" x="465" y="-2835" />
<rect fill="#84A1AE" height="70" rx="15" width="70" x="465" y="-2935" />
<rect fill="#84A1AE" height="70" rx="15" width="70" x="465" y="-3035" />
<rect fill="#84A1AE" height="70" rx="15" width="70" x="465" y="-3135" />
<rect fill="#84A1AE" height="70" rx="15" width="70" x="465" y="-3235" />
<rect fill="#84A1AE" height="70" rx="15" width="70" x="465" y="-3335" />
<rect fill="#84A1AE" height="70" rx="15" width="70" x="465" y="-3435" />
<rect fill="#84A1AE" height="70" rx="15" width="70" x="465" y="-3535" />
<rect fill="#84A1AE" height="70" rx="15" width="70" x="465" y="-3635" />
<rect fill="#84A1AE" height="70" rx="15" width="70" x="465" y="-3735" />
<rect fill="#84A1AE" height="70" rx="15" width="70" x="465" y="-3835" />
<rect fill="#84A1AE" height="70" rx="15" width="70" x="565" y="-535" />
<rect fill="#84A1AE" height="70" rx="15" width="70" x="565" y="-1635" />
<rect fill="#84A1AE" height="70" rx="15" width="70" x="565" y="-1935" />
<rect fill="#84A1AE" height="70" rx="15" width="70" x="565" y="-2735" />
<rect fill="#84A1AE" height="70" rx="15" width="70" x="565" y="-3835" />
<rect fill="#84A1AE" height="70" rx="15" width="70" x="665" y="-535" />
<rect fill="#84A1AE" height="70" rx="15" width="70" x="665" y="-1035" />
<rect fill="#84A1AE" height="70" rx="15" width="70" x="665" y="-2535" />
<rect fill="#84A1AE" height="70" rx="15" width="70" x="665" y="-3035" />
<rect fill="#84A1AE" height="70" rx="15" width="70" x="665" y="-3235" />
<rect fill="#84A1AE" height="70" rx="15" width="70" x="665" y="-3835" />
<rect fill="#84A1AE" height="70" rx="15" width="70" x="765" y="-535" />
<rect fill="#84A1AE" height="70" rx="15" width="70" x="765" y="-635" />
<rect fill="#84A1AE" height="70" rx="15" width="70" x="765" y="-3835" />
<rect fill="#84A1AE" height="70" rx="15" width="70" x="865" y="-535" />
<rect fill="#84A1AE" height="70" rx="15" width="70" x="865" y="-2435" />
<rect fill="#84A1AE" height="70" rx="15" width="70" x="865" y="-2535" />
<rect fill="#84A1AE" height="70" rx="15" width="70" x="865" y="-3335" />
<rect fill="#84A1AE" height="70" rx="15" width="70" x="865" y="-3435" />
<rect fill="#84A1AE" height="70" rx="15" width="70" x="865" y="-3835" />
<rect fill="#84A1AE" height="70" rx="15" width="70" x="965" y="-535" />
<rect fill="#84A1AE" height="70" rx="15" width="70" x="965" y="-735" />
<rect fill="#84A1AE" height="70" rx="15" width="70" x="965" y="-1635" />
<rect fill="#84A1AE" height="70" rx="15" width="70" x="965" y="-1835" />
<rect fill="#84A1AE" height="70" rx="15" width="70" x="965" y="-2835" />
<rect fill="#84A1AE" height="70" rx="15" width="70" x="965" y="-3435" />
<rect fill="#84A1AE" height="70" rx="15" width="70" x="965" y="-3835" />
<rect fill="#84A1AE" height="70" rx="15" width="70" x="1065" y="-535" />
<rect fill="#84A1AE" height="70" rx="15" width="70" x="1065" y="-1135" />
<rect fill="#84A1AE" height="70" rx="15" width="70" x="1065" y="-1835" />
<rect fill="#84A1AE" height="70" rx="15" width="70" x="1065" y="-3735" />
<rect fill="#84A1AE" height="70" rx="15" width="70" x="1065" y="-3835" />
<rect fill="#84A1AE" height="70" rx="15" width="70" x="1165" y="-535" />
<rect fill="#84A1AE" height="70" rx="15" width="70" x="1165" y="-635" />
<rect fill="#84A1AE" height="70" rx="15" width="70" x="1165" y="-735" />
<rect fill="#84A1AE" height="70" rx="15" width="70" x="1165" y="-1535" />
<rect fill="#84A1AE" height="70" rx="15" width="70" x="1165" y="-3835" />
<rect fill="#84A1AE" height="70" rx="15" width="70" x="1265" y="-535" />
<rect fill="#84A1AE" height="70" rx="15" width="70" x="1265" y="-2835" />
<rect fill="#84A1AE" height="70" rx="15" width="70" x="1265" y="-3435" />
<rect fill="#84A1AE" height="70" rx="15" width="70" x="1265" y="-3835" />
<rect fill="#84A1AE" height="70" rx="15" width="70" x="1365" y="-535" />
<rect fill="#84A1AE" height="70" rx="15" width="70" x="1365" y="-835" />
<rect fill="#84A1AE" height="70" rx="15" width="70" x="1365" y="-935" />
<rect fill="#84A1AE" height="70" rx="15" width="70" x="1365" y="-1035" />
<rect fill="#84A1AE" height="70" rx="15" width="70" x="1365" y="-1935" />
<rect fill="#84A1AE" height="70" rx="15" width="70" x="1365" y="-2335" />
<rect fill="#84A1AE" height="70" rx="15" width="70" x="1365" y="-2635" />
<rect fill="#84A1AE" height="70" rx="15" width="70" x="1365" y="-2835" />
<rect fill="#84A1AE" height="70" rx="15" width="70" x="1365" y="-2935" />
<rect fill="#84A1AE" height="70" rx="15" width="70" x="1365" y="-3035" />
<rect fill="#84A1AE" height="70" rx="15" width="70" x="1365" y="-3335" />
<rect fill="#84A1AE" height="70" rx="15" width="70" x="1365" y="-3835" />
<rect fill="#84A1AE" height="70" rx="15" width="70" x="1465" y="-535" />
<rect fill="#84A1AE" height="70" rx="15" width="70" x="1465" y="-1235" />
<rect fill="#84A1AE" height="70" rx="15" width="70" x="1465" y="-1535" />
<rect fill="#84A1AE" height="70" rx="15" width="70" x="1465" y="-2035" />
<rect fill="#84A1AE" height="70" rx="15" width="70" x="1465" y="-3135" />
<rect fill="#84A1AE" height="70" rx="15" width="70" x="1465" y="-3235" />
<rect fill="#84A1AE" height="70" rx="15" width="70" x="1465" y="-3835" />
<rect fill="#84A1AE" height="70" rx="15" width="70" x="1565" y="-535" />
<rect fill="#84A1AE" height="70" rx="15" width="70" x="1565" y="-3035" />
<rect fill="#84A1AE" height="70" rx="15" width="70" x="1565" y="-3835" />
<rect fill="#84A1AE" height="70" rx="15" width="70" x="1665" y="-535" />
<rect fill="#84A1AE" height="70" rx="15" width="70" x="1665" y="-3735" />
<rect fill="#84A1AE" height="70" rx="15" width="70" x="1665" y="-3835" />
<rect fill="#84A1AE" height="70" rx="15" width="70" x="1765" y="-535" />
<rect fill="#84A1AE" height="70" rx="15" width="70" x="1765" y="-1235" />
<rect fill="#84A1AE" height="70" rx="15" width="70" x="1765" y="-3835" />
<rect fill="#84A1AE" height="70" rx="15" width="70" x="1865" y="-535" />
<rect fill="#84A1AE" height="70" rx="15" width="70" x="1865" y="-735" />
<rect fill="#84A1AE" height="70" rx="15" width="70" x="1865" y="-1335" />
<rect fill="#84A1AE" height="70" rx="15" width="70" x="1865" y="-3235" />
<rect fill="#84A1AE" height="70" rx="15" width="70" x="1865" y="-3435" />
<rect fill="#84A1AE" height="70" rx="15" width="70" x="1865" y="-3835" />
<rect fill="#84A1AE" height="70" rx="15" width="70" x="1965" y="-535" />
<rect fill="#84A1AE" height="70" rx="15" width="70" x="1965" y="-635" />
<rect fill="#84A1AE" height="70" rx="15" width="70" x="1965" y="-1835" />
<rect fill="#84A1AE" height="70" rx="15" width="70" x="1965" y="-1935" />
<rect fill="#84A1AE" height="70" rx="15" width="70" x="1965" y="-2135" />
<rect fill="#84A1AE" height="70" rx="15" width="70" x="1965" y="-2335" />
<rect fill="#84A1AE" height="70" rx="15" width="70" x="1965" y="-2435" />
<rect fill="#84A1AE" height="70" rx="15" width="70" x="1965" y="-3335" />
<rect fill="#84A1AE" height="70" rx="15" width="70" x="1965" y="-3835" />
<rect fill="#84A1AE" height="70" rx="15" width="70" x="2065" y="-535" />
<rect fill="#84A1AE" height="70" rx="15" width="70" x="2065" y="-1535" />
<rect fill="#84A1AE" height="70" rx="15" width="70" x="2065" y="-1635" />
<rect fill="#84A1AE" height="70" rx="15" width="70" x="2065" y="-2135" />
<rect fill="#84A1AE" height="70" rx="15" width="70" x="2065" y="-3835" />
<rect fill="#84A1AE" height="70" rx="15" width="70" x="2165" y="-535" />
<rect fill="#84A1AE" height="70" rx="15" width="70" x="2165" y="-935" />
<rect fill="#84A1AE" height="70" rx="15" width="70" x="2165" y="-1335" />
<rect fill="#84A1AE" height="70" rx="15" width="70" x="2165" y="-1835" />
<rect fill="#84A1AE" height="70" rx="15" width="70" x="2165" y="-3835" />
<rect fill="#84A1AE" height="70" rx="15" width="70" x="2265" y="-535" />
<rect fill="#84A1AE" height="70" rx="15" width="70" x="2265" y="-935" />
<rect fill="#84A1AE" height="70" rx="15" width="70" x="2265" y="-1135" />
<rect fill="#84A1AE" height="70" rx="15" width="70" x="2265" y="-2535" />
<rect fill="#84A1AE" height="70" rx="15" width="70" x="2265" y="-3235" />
<rect fill="#84A1AE" height="70" rx="15" width="70" x="2265" y="-3835" />
<rect fill="#84A1AE" height="70" rx="15" width="70" x="2365" y="-535" />
<rect fill="#84A1AE" height="70" rx="15" width="70" x="2365" y="-935" />
<rect fill="#84A1AE" height="70" rx="15" width="70" x="2365" y="-1035" />
<rect fill="#84A1AE" height="70" rx="15" width="70" x="2365" y="-3835" />
<rect fill="#84A1AE" height="70" rx="15" width="70" x="2465" y="-535" />
<rect fill="#84A1AE" height="70" rx="15" width="70" x="2465" y="-935" />
<rect fill="#84A1AE" height="70" rx="15" width="70" x="2465" y="-1535" />
<rect fill="#84A1AE" height="70" rx="15" width="70" x="2465" y="-2335" />
<rect fill="#84A1AE" height="70" rx="15" width="70" x="2465" y="-2735" />
<rect fill="#84A1AE" height="70" rx="15" width="70" x="2465" y="-3835" />
<rect fill="#84A1AE" height="70" rx="15" width="70" x="2565" y="-535" />
<rect fill="#84A1AE" height="70" rx="15" width="70" x="2565" y="-735" />
<rect fill="#84A1AE" height="70" rx="15" width="70" x="2565" y="-2535" />
<rect fill="#84A1AE" height="70" rx="15" width="70" x="2565" y="-3835" />
<rect fill="#84A1AE" height="70" rx="15" width="70" x="2665" y="-535" />
<rect fill="#84A1AE" height="70" rx="15" width="70" x="2665" y="-635" />
<rect fill="#84A1AE" height="70" rx="15" width="70" x="2665" y="-1135" />
<rect fill="#84A1AE" height="70" rx="15" width="70" x="2665" y="-1435" />
<rect fill="#84A1AE" height="70" rx="15" width="70" x="2665" y="-2735" />
<rect fill="#84A1AE" height="70" rx="15" width="70" x="2665" y="-3835" />
<rect fill="#84A1AE" height="70" rx="15" width="70" x="2765" y="-535" />
<rect fill="#84A1AE" height="70" rx="15" width="70" x="2765" y="-1635" />
<rect fill="#84A1AE" height="70" rx="15" width="70" x="2765" y="-1835" />
<rect fill="#84A1AE" height="70" rx="15" width="70" x="2765" y="-1935" />
<rect fill="#84A1AE" height="70" rx="15" width="70" x="2765" y="-2235" />
<rect fill="#84A1AE" height="70" rx="15" width="70" x="2765" y="-3735" />
<rect fill="#84A1AE" height="70" rx="15" width="70" x="2765" y="-3835" />
<rect fill="#84A1AE" height="70" rx="15" width="70" x="2865" y="-535" />
<rect fill="#84A1AE" height="70" rx="15" width="70" x="2865" y="-3835" />
<rect fill="#84A1AE" height="70" rx="15" width="70" x="2965" y="-535" />
<rect fill="#84A1AE" height="70" rx="15" width="70" x="2965" y="-2635" />
<rect fill="#84A1AE" height="70" rx="15" width="70" x="2965" y="-3835" />
<rect fill="#84A1AE" height="70" rx="15" width="70" x="3065" y="-535" />
<rect fill="#84A1AE" height="70" rx="15" width="70" x="3065" y="-735" />
<rect fill="#84A1AE" height="70" rx="15" width="70" x="3065" y="-2535" />
<rect fill="#84A1AE" height="70" rx="15" width="70" x="3065" y="-3835" />
<rect fill="#84A1AE" height="70" rx="15" width="70" x="3165" y="-535" />
<rect fill="#84A1AE" height="70" rx="15" width="70" x="3165" y="-835" />
<rect fill="#84A1AE" height="70" rx="15" width="70" x="3165" y="-1935" />
<rect fill="#84A1AE" height="70" rx="15" width="70" x="3165" y="-2735" />
<rect fill="#84A1AE" height="70" rx="15" width="70" x="3165" y="-3135" />
<rect fill="#84A1AE" height="70" rx="15" width="70" x="3165" y="-3835" />
<rect fill="#84A1AE" height="70" rx="15" width="70" x="3265" y="-535" />
<rect fill="#84A1AE" height="70" rx="15" width="70" x="3265" y="-1035" />
<rect fill="#84A1AE" height="70" rx="15" width="70" x="3265" y="-1735" />
<rect fill="#84A1AE" height="70" rx="15" width="70" x="3265" y="-3835" />
<rect fill="#84A1AE" height="70" rx="15" width="70" x="3365" y="-535" />
<rect fill="#84A1AE" height="70" rx="15" width="70" x="3365" y="-1435" />
<rect fill="#84A1AE" height="70" rx="15" width="70" x="3365" y="-1935" />
<rect fill="#84A1AE" height="70" rx="15" width="70" x="3365" y="-2135" />
<rect fill="#84A1AE" height="70" rx="15" width="70" x="3365" y="-3835" />
<rect fill="#84A1AE" height="70" rx="15" width="70" x="3465" y="-535" />
<rect fill="#84A1AE" height="70" rx="15" width="70" x="3465" y="-2635" />
<rect fill="#84A1AE" height="70" rx="15" width="70" x="3465" y="-3835" />
<rect fill="#84A1AE" height="70" rx="15" width="70" x="3565" y="-535" />
<rect fill="#84A1AE" height="70" rx="15" width="70" x="3565" y="-635" />
<rect fill="#84A1AE" height="70" rx="15" width="70" x="3565" y="-2435" />
<rect fill="#84A1AE" height="70" rx="15" width="70" x="3565" y="-3235" />
<rect fill="#84A1AE" height="70" rx="15" width="70" x="3565" y="-3835" />
<rect fill="#84A1AE" height="70" rx="15" width="70" x="3665" y="-535" />
<rect fill="#84A1AE" height="70" rx="15" width="70" x="3665" y="-2135" />
<rect fill="#84A1AE" height="70" rx="15" width="70" x="3665" y="-2835" />
<rect fill="#84A1AE" height="70" rx="15" width="70" x="3665" y="-3135" />
<rect fill="#84A1AE" height="70" rx="15" width="70" x="3665" y="-3735" />
<rect fill="#84A1AE" height="70" rx="15" width="70" x="3665" y="-3835" />
<rect fill="#84A1AE" height="70" rx="15" width="70" x="3765" y="-535" />
<rect fill="#84A1AE" height="70" rx="15" width="70" x="3765" y="-635" />
<rect fill="#84A1AE" height="70" rx="15" width="70" x="3765" y="-735" />
<rect fill="#84A1AE" height="70" rx="15" width="70" x="3765" y="-835" />
<rect fill="#84A1AE" height="70" rx="15" width="70" x="3765" y="-935" />
<rect fill="#84A1AE" height="70" rx="15" width="70" x="3765" y="-1035" />
<rect fill="#84A1AE" height="70" rx="15" width="70" x="3765" y="-1135" />
<rect fill="#84A1AE" height="70" rx="15" width="70" x="3765" y="-1235" />
<rect fill="#84A1AE" height="70" rx="15" width="70" x="3765" y="-1335" />
<rect fill="#84A1AE" height="70" rx="15" width="70" x="3765" y="-1435" />
<rect fill="#84A1AE" height="70" rx="15" width="70" x="3765" y="-1535" />
<rect fill="#84A1AE" height="70" rx="15" width="70" x="3765" y="-1635" />
<rect fill="#84A1AE" height="70" rx="15" width="70" x="3765" y="-1735" />
<rect fill="#84A1AE" height="70" rx="15" width="70" x="3765" y="-1835" />
<rect fill="#84A1AE" height="70" rx="15" width="70" x="3765" y="-1935" />
<rect fill="#84A1AE" height="70" rx="15" width="70" x="3765" y="-2035" />
<rect fill="#84A1AE" height="70" rx="15" width="70" x="3765" y="-2135" />
<rect fill="#84A1AE" height="70" rx="15" width="70" x="3765" y="-2235" />
<rect fill="#84A1AE" height="70" rx="15" width="70" x="3765" y="-2335" />
<rect fill="#84A1AE" height="70" rx="15" width="70" x="3765" y="-2435" />
<rect fill="#84A1AE" height="70" rx="15" width="70" x="3765" y="-2535" />
<rect fill="#84A1AE" height="70" rx="15" width="70" x="3765" y="-2635" />
<rect fill="#84A1AE" height="70" rx="15" width="70" x="3765" y="-2735" />
<rect fill="#84A1AE" height="70" rx="15" width="70" x="3765" y="-2835" />
<rect fill="#84A1AE" height="70" rx="15" width="70" x="3765" y="-2935" />
<rect fill="#84A1AE" height="70" rx="15" width="70" x="3765" y="-3035" />
<rect fill="#84A1AE" height="70" rx="15" width="70" x="3765" y="-3135" />
<rect fill="#84A1AE" height="70" rx="15" width="70" x="3765" y="-3235" />
<rect fill="#84A1AE" height="70" rx="15" width="70" x="3765" y="-3335" />
<rect fill="#84A1AE" height="70" rx="15" width="70" x="3765" y="-3435" />
<rect fill="#84A1AE" height="70" rx="15" width="70" x="3765" y="-3535" />
<rect fill="#84A1AE" height="70" rx="15" width="70" x="3765" y="-3635" />
<rect fill="#84A1AE" height="70" rx="15" width="70" x="3765" y="-3735" />
<rect fill="#84A1AE" height="70" rx="15" width="70" x="3765" y="-3835" />
<circle cx="2500" cy="-1400" fill="#c1433c" r="35"> <animate attributeName="cy" dur="55.440000000000005s" keyTimes="0.0;0.0050251256;0.0100502513;0.0150753769;0.0201005025;0.0251256281;0.0301507538;0.0351758794;0.040201005;0.0452261307;0.0502512563;0.0552763819;0.0603015075;0.0653266332;0.0703517588;0.0753768844;0.0804020101;0.0854271357;0.0904522613;0.0954773869;0.1005025126;0.2211055276;0.2261306533;0.2311557789;0.2361809045;0.2412060302;0.2462311558;0.2512562814;0.256281407;0.3165829146;0.3216080402;0.3417085427;0.3467336683;0.351758794;0.3567839196;0.3618090452;0.3668341709;0.3718592965;0.3768844221;0.4020100503;0.4070351759;0.4120603015;0.4221105528;0.4271356784;0.432160804;0.4371859296;0.4422110553;0.4522613065;0.4572864322;0.472361809;0.4773869347;0.4824120603;0.4874371859;0.4924623116;0.4974874372;0.5025125628;0.5577889447;0.5628140704;0.6281407035;0.6331658291;0.6381909548;0.6432160804;0.648241206;0.6532663317;0.6582914573;0.6633165829;0.6683417085;0.7537688442;0.7587939698;0.7638190955;0.7688442211;0.7738693467;0.7788944724;0.783919598;0.7889447236;0.864321608;0.8693467337;0.9346733668;0.9396984925;0.9447236181;0.9497487437;0.9547738693;0.959798995;0.9648241206;0.9698492462;0.9748743719;0.9798994975;0.9849246231;0.9899497487;0.9949748744;1.0" repeatCount="indefinite" values="-1400;-1400;-1400;-1500;-1600;-1700;-1800;-1900;-2000;-2100;-2200;-2300;-2400;-2400;-2500;-2600;-2600;-2700;-2800;-2900;-3000;-3000;-3100;-3200;-3200;-3300;-3200;-3200;-3100;-3100;-3000;-3000;-3100;-3100;-3200;-3200;-3300;-3300;-3400;-3400;-3300;-3200;-3200;-3100;-3100;-3000;-2900;-2900;-2800;-2800;-2700;-2600;-2600;-2500;-2400;-2300;-2300;-2200;-2200;-2100;-2000;-1900;-1900;-1800;-1700;-1600;-1700;-1700;-1800;-1800;-1900;-2000;-2100;-2200;-2300;-2300;-2200;-2200;-2100;-2000;-1900;-1800;-1700;-1600;-1500;-1400;-1400;-1300;-1200;-1100;-1100"/>
<animate attributeName="cx" dur="55.440000000000005s" keyTimes="0.0;0.0050251256;0.0100502513;0.0603015075;0.0653266332;0.0753768844;0.0804020101;0.1005025126;0.1055276382;0.1105527638;0.1155778894;0.1206030151;0.1256281407;0.1306532663;0.135678392;0.1407035176;0.1457286432;0.1507537688;0.1557788945;0.1608040201;0.1658291457;0.1708542714;0.175879397;0.1809045226;0.1859296482;0.1909547739;0.1959798995;0.2010050251;0.2060301508;0.2110552764;0.216080402;0.2211055276;0.2311557789;0.2361809045;0.2462311558;0.2512562814;0.256281407;0.2613065327;0.2663316583;0.2713567839;0.2763819095;0.2814070352;0.2864321608;0.2914572864;0.2964824121;0.3015075377;0.3065326633;0.3115577889;0.3165829146;0.3216080402;0.3266331658;0.3316582915;0.3366834171;0.3417085427;0.3467336683;0.351758794;0.3567839196;0.3618090452;0.3668341709;0.3718592965;0.3768844221;0.3819095477;0.3869346734;0.391959799;0.3969849246;0.4020100503;0.4120603015;0.4170854271;0.4221105528;0.4271356784;0.432160804;0.4422110553;0.4472361809;0.4522613065;0.4572864322;0.4623115578;0.4673366834;0.472361809;0.4824120603;0.4874371859;0.5025125628;0.5075376884;0.5125628141;0.5175879397;0.5226130653;0.527638191;0.5326633166;0.5376884422;0.5427135678;0.5477386935;0.5527638191;0.5577889447;0.5628140704;0.567839196;0.5728643216;0.5778894472;0.5829145729;0.5879396985;0.5929648241;0.5979899497;0.6030150754;0.608040201;0.6130653266;0.6180904523;0.6231155779;0.6281407035;0.6432160804;0.648241206;0.6683417085;0.6733668342;0.6783919598;0.6834170854;0.6884422111;0.6934673367;0.6984924623;0.7035175879;0.7085427136;0.7135678392;0.7185929648;0.7236180905;0.7286432161;0.7336683417;0.7386934673;0.743718593;0.7487437186;0.7537688442;0.7587939698;0.7638190955;0.7889447236;0.7939698492;0.7989949749;0.8040201005;0.8090452261;0.8140703518;0.8190954774;0.824120603;0.8291457286;0.8341708543;0.8391959799;0.8442211055;0.8492462312;0.8542713568;0.8592964824;0.864321608;0.8693467337;0.8743718593;0.8793969849;0.8844221106;0.8894472362;0.8944723618;0.8994974874;0.9045226131;0.9095477387;0.9145728643;0.9195979899;0.9246231156;0.9296482412;0.9346733668;0.9748743719;0.9798994975;1.0" repeatCount="indefinite" values="2500;2500;2600;2600;2700;2700;2800;2800;2900;3000;3100;3200;3300;3400;3500;3400;3300;3200;3100;3000;2900;2800;2700;2600;2500;2400;2300;2200;2100;2000;1900;1800;1800;1700;1700;1800;1800;1900;2000;2100;2200;2300;2400;2500;2600;2700;2800;2900;3000;3000;2900;2800;2700;2600;2600;2500;2500;2400;2400;2300;2300;2400;2500;2600;2700;2800;2800;2900;3000;3000;3100;3100;3200;3300;3300;3400;3500;3600;3600;3700;3700;3600;3500;3400;3300;3200;3100;3000;2900;2800;2700;2600;2600;2500;2400;2300;2200;2100;2000;1900;1800;1800;1900;1800;1700;1600;1600;1500;1500;1600;1700;1800;1900;2000;2100;2200;2300;2400;2500;2600;2700;2800;2900;3000;3100;3200;3200;3300;3300;3400;3500;3600;3700;3600;3500;3400;3300;3200;3100;3000;2900;2800;2700;2600;2600;2500;2400;2300;2200;2100;2000;1900;1800;1700;1600;1500;1400;1300;1300;1200;1200"/>
<animate attributeName="visibility" dur="55.440000000000005s" keyTimes="0.0;0.0050251256;1.0" repeatCount="indefinite" values="visible;visible;visible"/> </circle>
<circle cx="3000" cy="-1900" fill="#2e6f9e" r="35"> <animate attributeName="cy" dur="55.440000000000005s" keyTimes="0.0;0.0050251256;0.0100502513;0.0301507538;0.0351758794;0.040201005;0.0452261307;0.0502512563;0.0552763819;0.0753768844;0.0804020101;0.0854271357;0.0904522613;0.0954773869;0.1005025126;0.1055276382;0.1256281407;0.1306532663;0.135678392;0.1407035176;0.1658291457;0.1708542714;0.175879397;0.2261306533;0.2311557789;0.2361809045;0.2412060302;0.2462311558;0.2512562814;0.2613065327;0.2663316583;0.2713567839;0.2763819095;0.2814070352;0.2864321608;0.2914572864;0.2964824121;0.3015075377;0.3065326633;0.3115577889;0.3165829146;0.3216080402;0.3366834171;0.3417085427;0.3618090452;0.3668341709;0.3819095477;0.3869346734;0.391959799;0.4120603015;0.4170854271;0.4221105528;0.4271356784;0.4371859296;0.4422110553;0.4472361809;0.472361809;0.4773869347;0.5326633166;0.5376884422;0.5427135678;0.5477386935;0.5527638191;0.5577889447;0.5628140704;0.5778894472;0.5829145729;0.5879396985;0.5929648241;0.5979899497;0.6030150754;0.608040201;0.6130653266;0.6180904523;0.6281407035;0.6331658291;0.6381909548;0.6432160804;0.648241206;0.6633165829;0.6683417085;0.6783919598;0.6834170854;0.6884422111;0.6934673367;0.6984924623;0.7035175879;0.7085427136;0.7135678392;0.7185929648;0.7236180905;0.7286432161;0.7336683417;0.7386934673;0.743718593;0.7487437186;0.7537688442;0.7688442211;0.7738693467;0.7889447236;0.7939698492;0.7989949749;0.8040201005;0.8090452261;0.8140703518;0.8190954774;0.8291457286;0.8341708543;0.8391959799;0.8442211055;0.8542713568;0.8592964824;0.864321608;0.8693467337;0.8743718593;0.8793969849;0.8844221106;0.8894472362;0.8944723618;0.8994974874;0.9045226131;0.9095477387;0.9246231156;0.9296482412;0.9346733668;0.9396984925;0.9447236181;0.9547738693;0.959798995;0.9648241206;0.9698492462;0.9748743719;0.9899497487;0.9949748744;1.0" repeatCount="indefinite" values="-1900;-1900;-2000;-2000;-1900;-2000;-2100;-2100;-2200;-2200;-2300;-2400;-2400;-2500;-2500;-2600;-2600;-2700;-2700;-2600;-2600;-2500;-2400;-2400;-2300;-2200;-2100;-2100;-2000;-2000;-1900;-1800;-1700;-1600;-1600;-1500;-1400;-1500;-1400;-1500;-1600;-1700;-1700;-1800;-1800;-1700;-1700;-1600;-1500;-1500;-1600;-1700;-1800;-1800;-1700;-1600;-1600;-1700;-1700;-1800;-1800;-1700;-1700;-1600;-1700;-1700;-1800;-1900;-2000;-2100;-2200;-2200;-2300;-2400;-2400;-2500;-2600;-2600;-2500;-2500;-2600;-2600;-2500;-2500;-2400;-2300;-2400;-2400;-2300;-2300;-2200;-2100;-2000;-2000;-2100;-2000;-1900;-1900;-2000;-2000;-1900;-1900;-1800;-1900;-1800;-1700;-1700;-1800;-1800;-1700;-1700;-1600;-1500;-1600;-1700;-1700;-1800;-1900;-1900;-2000;-2000;-1900;-1900;-2000;-2000;-1900;-2000;-2000;-2100;-2100;-2000;-2100;-2100;-2200;-2200"/>
<animate attributeName="cx" dur="55.440000000000005s" keyTimes="0.0;0.0050251256;0.0150753769;0.0201005025;0.0251256281;0.0301507538;0.0452261307;0.0502512563;0.0552763819;0.0603015075;0.0653266332;0.0703517588;0.0753768844;0.0854271357;0.0904522613;0.0954773869;0.1005025126;0.1055276382;0.1105527638;0.1155778894;0.1206030151;0.1407035176;0.1457286432;0.1507537688;0.1557788945;0.1608040201;0.1658291457;0.175879397;0.1809045226;0.1859296482;0.1909547739;0.1959798995;0.2010050251;0.2060301508;0.2110552764;0.2412060302;0.2462311558;0.2512562814;0.256281407;0.2814070352;0.2864321608;0.3216080402;0.3266331658;0.3316582915;0.3417085427;0.3467336683;0.351758794;0.3567839196;0.3618090452;0.3668341709;0.3718592965;0.3768844221;0.391959799;0.3969849246;0.4020100503;0.4070351759;0.4120603015;0.4271356784;0.432160804;0.4371859296;0.4472361809;0.4522613065;0.4572864322;0.4623115578;0.4673366834;0.472361809;0.4773869347;0.4824120603;0.4874371859;0.4924623116;0.4974874372;0.5025125628;0.5075376884;0.5226130653;0.527638191;0.5326633166;0.5477386935;0.5527638191;0.5628140704;0.567839196;0.5728643216;0.5778894472;0.6180904523;0.6231155779;0.6281407035;0.6381909548;0.6432160804;0.6582914573;0.6633165829;0.6683417085;0.6733668342;0.7035175879;0.7085427136;0.7336683417;0.7386934673;0.7587939698;0.7638190955;0.7738693467;0.7788944724;0.783919598;0.7889447236;0.7939698492;0.7989949749;0.8442211055;0.8492462312;0.8743718593;0.8793969849;0.8894472362;0.8944723618;0.8994974874;0.9045226131;0.9095477387;0.9145728643;0.9195979899;0.9246231156;0.9296482412;0.9346733668;0.9447236181;0.9497487437;0.9547738693;0.9748743719;0.9798994975;0.9849246231;0.9899497487;1.0" repeatCount="indefinite" values="3000;3000;3000;3100;3200;3100;3100;3200;3200;3100;3100;3000;2900;2900;3000;3000;2900;2900;2800;2700;2600;2600;2700;2800;2900;2800;2900;2900;3000;3100;3200;3200;3300;3400;3500;3500;3600;3600;3700;3700;3600;3600;3500;3400;3400;3300;3400;3500;3600;3600;3500;3400;3400;3300;3200;3100;3000;3000;3100;3000;3000;3100;3000;3100;3000;2900;2900;2800;2700;2600;2500;2400;2300;2300;2200;2100;2100;2000;2000;1900;1800;1700;1700;1800;1900;1900;2000;2000;1900;1900;1800;1800;1900;1900;1800;1800;1900;1900;2000;2100;2200;2200;2100;2100;2200;2200;2300;2300;2200;2200;2300;2300;2400;2400;2500;2500;2600;2600;2500;2400;2400;2300;2400;2300;2300"/>
<animate attributeName="visibility" dur="55.440000000000005s" keyTimes="0.0;0.0050251256;1.0" repeatCount="indefinite" values="visible;visible;visible"/> </circle>
<circle cx="3500" cy="-3000" fill="none" r="35" stroke="#c1433c" stroke-width="10"> <animate attributeName="cy" dur="55.440000000000005s" keyTimes="0.0;0.0050251256;0.1306532663;0.135678392;0.2361809045;0.2412060302;0.3165829146;0.3216080402;0.3718592965;0.3768844221;0.4924623116;0.4974874372;0.6582914573;0.6633165829;0.7487437186;0.7537688442;0.8040201005;0.8090452261;1.0" repeatCount="indefinite" values="-3000;-3000;-3000;-3300;-3300;-3000;-3000;-3400;-3400;-2400;-2400;-1600;-1600;-1700;-1700;-2300;-2300;-1000;-1000"/>
<animate attributeName="cx" dur="55.440000000000005s" keyTimes="0.0;0.0050251256;0.1306532663;0.135678392;0.2361809045;0.2412060302;0.3165829146;0.3216080402;0.3718592965;0.3768844221;0.4924623116;0.4974874372;0.6582914573;0.6633165829;0.7487437186;0.7537688442;0.8040201005;0.8090452261;1.0" repeatCount="indefinite" values="3500;3500;3500;1700;1700;3000;3000;2300;2300;3700;3700;1500;1500;3200;3200;3700;3700;1200;1200"/>
<animate attributeName="visibility" dur="55.440000000000005s" keyTimes="0.0;0.0050251256;1.0" repeatCount="indefinite" values="visible;visible;visible"/> </circle>
<circle cx="2600" cy="-2600" fill="none" r="35" stroke="#2e6f9e" stroke-width="10"> <animate attributeName="cy" dur="55.440000000000005s" keyTimes="0.0;0.0050251256;0.1155778894;0.1206030151;0.5728643216;0.5778894472;0.6381909548;0.6432160804;0.8592964824;0.864321608;1.0" repeatCount="indefinite" values="-2600;-2600;-2600;-1700;-1700;-2600;-2600;-1500;-1500;-2900;-2900"/>
<animate attributeName="cx" dur="55.440000000000005s" keyTimes="0.0;0.0050251256;0.1155778894;0.1206030151;0.3165829146;0.3216080402;0.5728643216;0.5778894472;0.6381909548;0.6432160804;0.8592964824;0.864321608;1.0" repeatCount="indefinite" values="2600;2600;2600;3600;3600;1700;1700;2000;2000;2200;2200;3200;3200"/>
<animate attributeName="visibility" dur="55.440000000000005s" keyTimes="0.0;0.0050251256;1.0" repeatCount="indefinite" values="visible;visible;visible"/> </circle>
</svg>