<?xml version="1.0" encoding="UTF-8"?>
        <svg xmlns="http://www.w3.org/2000/svg" xmlns:xlink="http://www.w3.org/1999/xlink"
             width="430" height="430" viewBox="0 -4300 4300 4300">

<defs>

</defs>

<rect fill="#84A1AE" height="70" rx="15" width="70" x="465" y="-535" />
<rect fill="#84A1AE" height="70" rx="15" width="70" x="465" y="-635" />
<rect fill="#84A1AE" height="70" rx="15" width="70" x="465" y="-735" />
<rect fill="#84A1AE" height="70" rx="15" width="70" x="465" y="-835" />
<rect fill="#84A1AE" height="70" rx="15" width="70" x="465" y="-935" />
<rect fill="#84A1AE" height="70" rx="15" width="70" x="465" y="-1035" />
<rect fill="#84A1AE" height="70" rx="15" width="70" x="465" y="-1135" />
<rect fill="#84A1AE" height="70" rx="15" width="70" x="465" y="-1235" />
<rect fill="#84A1AE" height="70" rx="15" width="70" x="465" y="-1335" />
<rect fill="#84A1AE" height="70" rx="15" width="70" x="465" y="-1435" />
<rect fill="#84A1AE" height="70" rx="15" width="70" x="465" y="-1535" />
<rect fill="#84A1AE" height="70" rx="15" width="70" x="465" y="-1635" />
<rect fill="#84A1AE" height="70" rx="15" width="70" x="465" y="-1735" />
<rect fill="#84A1AE" height="70" rx="15" width="70" x="465" y="-1835" />
<rect fill="#84A1AE" height="70" rx="15" width="70" x="465" y="-1935" />
<rect fill="#84A1AE" height="70" rx="15" width="70" x="465" y="-2035" />
<rect fill="#84A1AE" height="70" rx="15" width="70" x="465" y="-2135" />
<rect fill="#84A1AE" height="70" rx="15" width="70" x="465" y="-2235" />
<rect fill="#84A1AE" height="70" rx="15" width="70" x="465" y="-2335" />
<rect fill="#84A1AE" height="70" rx="15" width="70" x="465" y="-2435" />
<rect fill="#84A1AE" height="70" rx="15" width="70" x="465" y="-2535" />
<rect fill="#84A1AE" height="70" rx="15" width="70" x="465" y="-2635" />
<rect fill="#84A1AE" height="70" rx="15" width="70" x="465" y="-2735" />
<rect fill="#84A1AE" height="70" rx="15" width="70" x="465" y="-2835" />
<rect fill="#84A1AE" height="70" rx="15" width="70" x="465" y="-2935" />
<rect fill="#84A1AE" height="70" rx="15" width="70" x="465" y="-3035" />
<rect fill="#84A1AE" height="70" rx="15" width="70" x="465" y="-3135" />
<rect fill="#84A1AE" height="70" rx="15" width="70" x="465" y="-3235" />
<rect fill="#84A1AE" height="70" rx="15" width="70" x="465" y="-3335" />
<rect fill="#84A1AE" height="70" rx="15" width="70" x="465" y="-3435" />
<rect fill="#84A1AE" height="70" rx="15" width="70" x="465" y="-3535" />
<rect fill="#84A1AE" height="70" rx="15" width="70" x="465" y="-3635" />
<rect fill="#84A1AE" height="70" rx="15" width="70" x="465" y="-3735" />
<rect fill="#84A1AE" height="70" rx="15" width="70" x="465" y="-3835" />
<rect fill="#84A1AE" height="70" rx="15" width="70" x="565" y="-535" />
<rect fill="#84A1AE" height="70" rx="15" width="70" x="565" y="-1635" />
<rect fill="#84A1AE" height="70" rx="15" width="70" x="565" y="-1935" />
<rect fill="#84A1AE" height="70" rx="15" width="70" x="565" y="-2735" />
<rect fill="#84A1AE" height="70" rx="15" width="70" x="565" y="-3835" />
<rect fill="#84A1AE" height="70" rx="15" width="70" x="665" y="-535" />
<rect fill="#84A1AE" height="70" rx="15" width="70" x="665" y="-1035" />
<rect fill="#84A1AE" height="70" rx="15" width="70" x="665" y="-2535" />
<rect fill="#84A1AE" height="70" rx="15" width="70" x="665" y="-3035" />
<rect fill="#84A1AE" height="70" rx="15" width="70" x="665" y="-3235" />
<rect fill="#84A1AE" height="70" rx="15" width="70" x="665" y="-3835" />
<rect fill="#84A1AE" height="70" rx="15" width="70" x="765" y="-535" />
<rect fill="#84A1AE" height="70" rx="15" width="70" x="765" y="-635" />
<rect fill="#84A1AE" height="70" rx="15" width="70" x="765" y="-3835" />
<rect fill="#84A1AE" height="70" rx="15" width="70" x="865" y="-535" />
<rect fill="#84A1AE" height="70" rx="15" width="70" x="865" y="-2435" />
<rect fill="#84A1AE" height="70" rx="15" width="70" x="865" y="-2535" />
<rect fill="#84A1AE" height="70" rx="15" width="70" x="865" y="-3335" />
<rect fill="#84A1AE" height="70" rx="15" width="70" x="865" y="-3435" />
<rect fill="#84A1AE" height="70" rx="15" width="70" x="865" y="-3835" />
<rect fill="#84A1AE" height="70" rx="15" width="70" x="965" y="-535" />
<rect fill="#84A1AE" height="70" rx="15" width="70" x="965" y="-735" />
<rect fill="#84A1AE" height="70" rx="15" width="70" x="965" y="-1635" />
<rect fill="#84A1AE" height="70" rx="15" width="70" x="965" y="-1835" />
<rect fill="#84A1AE" height="70" rx="15" width="70" x="965" y="-2835" />
<rect fill="#84A1AE" height="70" rx="15" width="70" x="965" y="-3435" />
<rect fill="#84A1AE" height="70" rx="15" width="70" x="965" y="-3835" />
<rect fill="#84A1AE" height="70" rx="15" width="70" x="1065" y="-535" />
<rect fill="#84A1AE" height="70" rx="15" width="70" x="1065" y="-1135" />
<rect fill="#84A1AE" height="70" rx="15" width="70" x="1065" y="-1835" />
<rect fill="#84A1AE" height="70" rx="15" width="70" x="1065" y="-3735" />
<rect fill="#84A1AE" height="70" rx="15" width="70" x="1065" y="-3835" />
<rect fill="#84A1AE" height="70" rx="15" width="70" x="1165" y="-535" />
<rect fill="#84A1AE" height="70" rx="15" width="70" x="1165" y="-635" />
<rect fill="#84A1AE" height="70" rx="15" width="70" x="1165" y="-735" />
<rect fill="#84A1AE" height="70" rx="15" width="70" x="1165" y="-1535" />
<rect fill="#84A1AE" height="70" rx="15" width="70" x="1165" y="-3835" />
<rect fill="#84A1AE" height="70" rx="15" width="70" x="1265" y="-535" />
<rect fill="#84A1AE" height="70" rx="15" width="70" x="1265" y="-2835" />
<rect fill="#84A1AE" height="70" rx="15" width="70" x="1265" y="-3435" />
<rect fill="#84A1AE" height="70" rx="15" width="70" x="1265" y="-3835" />
<rect fill="#84A1AE" height="70" rx="15" width="70" x="1365" y="-535" />
<rect fill="#84A1AE" height="70" rx="15" width="70" x="1365" y="-835" />
<rect fill="#84A1AE" height="70" rx="15" width="70" x="1365" y="-935" />
<rect fill="#84A1AE" height="70" rx="15" width="70" x="1365" y="-1035" />
<rect fill="#84A1AE" height="70" rx="15" width="70" x="1365" y="-1935" />
<rect fill="#84A1AE" height="70" rx="15" width="70" x="1365" y="-2335" />
<rect fill="#84A1AE" height="70" rx="15" width="70" x="1365" y="-2635" />
<rect fill="#84A1AE" height="70" rx="15" width="70" x="1365" y="-2835" />
<rect fill="#84A1AE" height="70" rx="15" width="70" x="1365" y="-2935" />
<rect fill="#84A1AE" height="70" rx="15" width="70" x="1365" y="-3035" />
<rect fill="#84A1AE" height="70" rx="15" width="70" x="1365" y="-3335" />
<rect fill="#84A1AE" height="70" rx="15" width="70" x="1365" y="-3835" />
<rect fill="#84A1AE" height="70" rx="15" width="70" x="1465" y="-535" />
<rect fill="#84A1AE" height="70" rx="15" width="70" x="1465" y="-1235" />
<rect fill="#84A1AE" height="70" rx="15" width="70" x="1465" y="-1535" />
<rect fill="#84A1AE" height="70" rx="15" width="70" x="1465" y="-2035" />
<rect fill="#84A1AE" height="70" rx="15" width="70" x="1465" y="-3135" />
<rect fill="#84A1AE" height="70" rx="15" width="70" x="1465" y="-3235" />
<rect fill="#84A1AE" height="70" rx="15" width="70" x="1465" y="-3835" />
<rect fill="#84A1AE" height="70" rx="15" width="70" x="1565" y="-535" />
<rect fill="#84A1AE" height="70" rx="15" width="70" x="1565" y="-3035" />
<rect fill="#84A1AE" height="70" rx="15" width="70" x="1565" y="-3835" />
<rect fill="#84A1AE" height="70" rx="15" width="70" x="1665" y="-535" />
<rect fill="#84A1AE" height="70" rx="15" width="70" x="1665" y="-3735" />
<rect fill="#84A1AE" height="70" rx="15" width="70" x="1665" y="-3835" />
<rect fill="#84A1AE" height="70" rx="15" width="70" x="1765" y="-535" />
<rect fill="#84A1AE" height="70" rx="15" width="70" x="1765" y="-1235" />
<rect fill="#84A1AE" height="70" rx="15" width="70" x="1765" y="-3835" />
<rect fill="#84A1AE" height="70" rx="15" width="70" x="1865" y="-535" />
<rect fill="#84A1AE" height="70" rx="15" width="70" x="1865" y="-735" />
<rect fill="#84A1AE" height="70" rx="15" width="70" x="1865" y="-1335" />
<rect fill="#84A1AE" height="70" rx="15" width="70" x="1865" y="-3235" />
<rect fill="#84A1AE" height="70" rx="15" width="70" x="1865" y="-3435" />
<rect fill="#84A1AE" height="70" rx="15" width="70" x="1865" y="-3835" />
<rect fill="#84A1AE" height="70" rx="15" width="70" x="1965" y="-535" />
<rect fill="#84A1AE" height="70" rx="15" width="70" x="1965" y="-635" />
<rect fill="#84A1AE" height="70" rx="15" width="70" x="1965" y="-1835" />
<rect fill="#84A1AE" height="70" rx="15" width="70" x="1965" y="-1935" />
<rect fill="#84A1AE" height="70" rx="15" width="70" x="1965" y="-2135" />
<rect fill="#84A1AE" height="70" rx="15" width="70" x="1965" y="-2335" />
<rect fill="#84A1AE" height="70" rx="15" width="70" x="1965" y="-2435" />
<rect fill="#84A1AE" height="70" rx="15" width="70" x="1965" y="-3335" />
<rect fill="#84A1AE" height="70" rx="15" width="70" x="1965" y="-3835" />
<rect fill="#84A1AE" height="70" rx="15" width="70" x="2065" y="-535" />
<rect fill="#84A1AE" height="70" rx="15" width="70" x="2065" y="-1535" />
<rect fill="#84A1AE" height="70" rx="15" width="70" x="2065" y="-1635" />
<rect fill="#84A1AE" height="70" rx="15" width="70" x="2065" y="-2135" />
<rect fill="#84A1AE" height="70" rx="15" width="70" x="2065" y="-3835" />
<rect fill="#84A1AE" height="70" rx="15" width="70" x="2165" y="-535" />
<rect fill="#84A1AE" height="70" rx="15" width="70" x="2165" y="-935" />
<rect fill="#84A1AE" height="70" rx="15" width="70" x="2165" y="-1335" />
<rect fill="#84A1AE" height="70" rx="15" width="70" x="2165" y="-1835" />
<rect fill="#84A1AE" height="70" rx="15" width="70" x="2165" y="-3835" />
<rect fill="#84A1AE" height="70" rx="15" width="70" x="2265" y="-535" />
<rect fill="#84A1AE" height="70" rx="15" width="70" x="2265" y="-935" />
<rect fill="#84A1AE" height="70" rx="15" width="70" x="2265" y="-1135" />
<rect fill="#84A1AE" height="70" rx="15" width="70" x="2265" y="-2535" />
<rect fill="#84A1AE" height="70" rx="15" width="70" x="2265" y="-3235" />
<rect fill="#84A1AE" height="70" rx="15" width="70" x="2265" y="-3835" />
<rect fill="#84A1AE" height="70" rx="15" width="70" x="2365" y="-535" />
<rect fill="#84A1AE" height="70" rx="15" width="70" x="2365" y="-935" />
<rect fill="#84A1AE" height="70" rx="15" width="70" x="2365" y="-1035" />
<rect fill="#84A1AE" height="70" rx="15" width="70" x="2365" y="-3835" />
<rect fill="#84A1AE" height="70" rx="15" width="70" x="2465" y="-535" />
<rect fill="#84A1AE" height="70" rx="15" width="70" x="2465" y="-935" />
<rect fill="#84A1AE" height="70" rx="15" width="70" x="2465" y="-1535" />
<rect fill="#84A1AE" height="70" rx="15" width="70" x="2465" y="-2335" />
<rect fill="#84A1AE" height="70" rx="15" width="70" x="2465" y="-2735" />
<rect fill="#84A1AE" height="70" rx="15" width="70" x="2465" y="-3835" />
<rect fill="#84A1AE" height="70" rx="15" width="70" x="2565" y="-535" />
<rect fill="#84A1AE" height="70" rx="15" width="70" x="2565" y="-735" />
<rect fill="#84A1AE" height="70" rx="15" width="70" x="2565" y="-2535" />
<rect fill="#84A1AE" height="70" rx="15" width="70" x="2565" y="-3835" />
<rect fill="#84A1AE" height="70" rx="15" width="70" x="2665" y="-535" />
<rect fill="#84A1AE" height="70" rx="15" width="70" x="2665" y="-635" />
<rect fill="#84A1AE" height="70" rx="15" width="70" x="2665" y="-1135" />
<rect fill="#84A1AE" height="70" rx="15" width="70" x="2665" y="-1435" />
<rect fill="#84A1AE" height="70" rx="15" width="70" x="2665" y="-2735" />
<rect fill="#84A1AE" height="70" rx="15" width="70" x="2665" y="-3835" />
<rect fill="#84A1AE" height="70" rx="15" width="70" x="2765" y="-535" />
<rect fill="#84A1AE" height="70" rx="15" width="70" x="2765" y="-1635" />
<rect fill="#84A1AE" height="70" rx="15" width="70" x="2765" y="-1835" />
<rect fill="#84A1AE" height="70" rx="15" width="70" x="2765" y="-1935" />
<rect fill="#84A1AE" height="70" rx="15" width="70" x="2765" y="-2235" />
<rect fill="#84A1AE" height="70" rx="15" width="70" x="2765" y="-3735" />
<rect fill="#84A1AE" height="70" rx="15" width="70" x="2765" y="-3835" />
<rect fill="#84A1AE" height="70" rx="15" width="70" x="2865" y="-535" />
<rect fill="#84A1AE" height="70" rx="15" width="70" x="2865" y="-3835" />
<rect fill="#84A1AE" height="70" rx="15" width="70" x="2965" y="-535" />
<rect fill="#84A1AE" height="70" rx="15" width="70" x="2965" y="-2635" />
<rect fill="#84A1AE" height="70" rx="15" width="70" x="2965" y="-3835" />
<rect fill="#84A1AE" height="70" rx="15" width="70" x="3065" y="-535" />
<rect fill="#84A1AE" height="70" rx="15" width="70" x="3065" y="-735" />
<rect fill="#84A1AE" height="70" rx="15" width="70" x="3065" y="-2535" />
<rect fill="#84A1AE" height="70" rx="15" width="70" x="3065" y="-3835" />
<rect fill="#84A1AE" height="70" rx="15" width="70" x="3165" y="-535" />
<rect fill="#84A1AE" height="70" rx="15" width="70" x="3165" y="-835" />
<rect fill="#84A1AE" height="70" rx="15" width="70" x="3165" y="-1935" />
<rect fill="#84A1AE" height="70" rx="15" width="70" x="3165" y="-2735" />
<rect fill="#84A1AE" height="70" rx="15" width="70" x="3165" y="-3135" />
<rect fill="#84A1AE" height="70" rx="15" width="70" x="3165" y="-3835" />
<rect fill="#84A1AE" height="70" rx="15" width="70" x="3265" y="-535" />
<rect fill="#84A1AE" height="70" rx="15" width="70" x="3265" y="-1035" />
<rect fill="#84A1AE" height="70" rx="15" width="70" x="3265" y="-1735" />
<rect fill="#84A1AE" height="70" rx="15" width="70" x="3265" y="-3835" />
<rect fill="#84A1AE" height="70" rx="15" width="70" x="3365" y="-535" />
<rect fill="#84A1AE" height="70" rx="15" width="70" x="3365" y="-1435" />
<rect fill="#84A1AE" height="70" rx="15" width="70" x="3365" y="-1935" />
<rect fill="#84A1AE" height="70" rx="15" width="70" x="3365" y="-2135" />
<rect fill="#84A1AE" height="70" rx="15" width="70" x="3365" y="-3835" />
<rect fill="#84A1AE" height="70" rx="15" width="70" x="3465" y="-535" />
<rect fill="#84A1AE" height="70" rx="15" width="70" x="3465" y="-2635" />
<rect fill="#84A1AE" height="70" rx="15" width="70" x="3465" y="-3835" />
<rect fill="#84A1AE" height="70" rx="15" width="70" x="3565" y="-535" />
<rect fill="#84A1AE" height="70" rx="15" width="70" x="3565" y="-635" />
<rect fill="#84A1AE" height="70" rx="15" width="70" x="3565" y="-2435" />
<rect fill="#84A1AE" height="70" rx="15" width="70" x="3565" y="-3235" />
<rect fill="#84A1AE" height="70" rx="15" width="70" x="3565" y="-3835" />
<rect fill="#84A1AE" height="70" rx="15" width="70" x="3665" y="-535" />
<rect fill="#84A1AE" height="70" rx="15" width="70" x="3665" y="-2135" />
<rect fill="#84A1AE" height="70" rx="15" width="70" x="3665" y="-2835" />
<rect fill="#84A1AE" height="70" rx="15" width="70" x="3665" y="-3135" />
<rect fill="#84A1AE" height="70" rx="15" width="70" x="3665" y="-3735" />
<rect fill="#84A1AE" height="70" rx="15" width="70" x="3665" y="-3835" />
<rect fill="#84A1AE" height="70" rx="15" width="70" x="3765" y="-535" />
<rect fill="#84A1AE" height="70" rx="15" width="70" x="3765" y="-635" />
<rect fill="#84A1AE" height="70" rx="15" width="70" x="3765" y="-735" />
<rect fill="#84A1AE" height="70" rx="15" width="70" x="3765" y="-835" />
<rect fill="#84A1AE" height="70" rx="15" width="70" x="3765" y="-935" />
<rect fill="#84A1AE" height="70" rx="15" width="70" x="3765" y="-1035" />
<rect fill="#84A1AE" height="70" rx="15" width="70" x="3765" y="-1135" />
<rect fill="#84A1AE" height="70" rx="15" width="70" x="3765" y="-1235" />
<rect fill="#84A1AE" height="70" rx="15" width="70" x="3765" y="-1335" />
<rect fill="#84A1AE" height="70" rx="15" width="70" x="3765" y="-1435" />
<rect fill="#84A1AE" height="70" rx="15" width="70" x="3765" y="-1535" />
<rect fill="#84A1AE" height="70" rx="15" width="70" x="3765" y="-1635" />
<rect fill="#84A1AE" height="70" rx="15" width="70" x="3765" y="-1735" />
<rect fill="#84A1AE" height="70" rx="15" width="70" x="3765" y="-1835" />
<rect fill="#84A1AE" height="70" rx="15" width="70" x="3765" y="-1935" />
<rect fill="#84A1AE" height="70" rx="15" width="70" x="3765" y="-2035" />
<rect fill="#84A1AE" height="70" rx="15" width="70" x="3765" y="-2135" />
<rect fill="#84A1AE" height="70" rx="15" width="70" x="3765" y="-2235" />
<rect fill="#84A1AE" height="70" rx="15" width="70" x="3765" y="-2335" />
<rect fill="#84A1AE" height="70" rx="15" width="70" x="3765" y="-2435" />
<rect fill="#84A1AE" height="70" rx="15" width="70" x="3765" y="-2535" />
<rect fill="#84A1AE" height="70" rx="15" width="70" x="3765" y="-2635" />
<rect fill="#84A1AE" height="70" rx="15" width="70" x="3765" y="-2735" />
<rect fill="#84A1AE" height="70" rx="15" width="70" x="3765" y="-2835" />
<rect fill="#84A1AE" height="70" rx="15" width="70" x="3765" y="-2935" />
<rect fill="#84A1AE" height="70" rx="15" width="70" x="3765" y="-3035" />
<rect fill="#84A1AE" height="70" rx="15" width="70" x="3765" y="-3135" />
<rect fill="#84A1AE" height="70" rx="15" width="70" x="3765" y="-3235" />
<rect fill="#84A1AE" height="70" rx="15" width="70" x="3765" y="-3335" />
<rect fill="#84A1AE" height="70" rx="15" width="70" x="3765" y="-3435" />
<rect fill="#84A1AE" height="70" rx="15" width="70" x="3765" y="-3535" />
<rect fill="#84A1AE" height="70" rx="15" width="70" x="3765" y="-3635" />
<rect fill="#84A1AE" height="70" rx="15" width="70" x="3765" y="-3735" />
<rect fill="#84A1AE" height="70" rx="15" width="70" x="3765" y="-3835" />
<circle cx="2500" cy="-1400" fill="#c1433c" r="35"> <animate attributeName="cy" dur="116.20000000000002s" keyTimes="0.0;0.0024038462;0.0048076923;0.0072115385;0.0096153846;0.0120192308;0.0144230769;0.0168269231;0.0192307692;0.0216346154;0.0240384615;0.0264423077;0.0288461538;0.03125;0.0336538462;0.0360576923;0.0384615385;0.0408653846;0.0432692308;0.0456730769;0.0480769231;0.0697115385;0.0721153846;0.0745192308;0.0769230769;0.0793269231;0.0817307692;0.0841346154;0.0865384615;0.0889423077;0.0913461538;0.09375;0.0961538462;0.0985576923;0.1009615385;0.1033653846;0.1057692308;0.1081730769;0.1105769231;0.1129807692;0.1153846154;0.1177884615;0.1201923077;0.1225961538;0.1322115385;0.1346153846;0.1418269231;0.1442307692;0.1466346154;0.1490384615;0.1538461538;0.15625;0.1634615385;0.1658653846;0.1682692308;0.1706730769;0.1730769231;0.1754807692;0.1778846154;0.1802884615;0.1826923077;0.1850961538;0.1875;0.1899038462;0.2115384615;0.2139423077;0.2163461538;0.21875;0.2211538462;0.2235576923;0.2259615385;0.2283653846;0.2307692308;0.2331730769;0.2355769231;0.2379807692;0.2403846154;0.2427884615;0.2451923077;0.2475961538;0.25;0.2524038462;0.2548076923;0.2572115385;0.2596153846;0.2620192308;0.2644230769;0.2668269231;0.2692307692;0.2716346154;0.28125;0.2836538462;0.2860576923;0.2932692308;0.2956730769;0.2980769231;0.3509615385;0.3533653846;0.3557692308;0.3581730769;0.3605769231;0.3629807692;0.3653846154;0.3701923077;0.3725961538;0.375;0.3774038462;0.3798076923;0.3822115385;0.3846153846;0.3870192308;0.3894230769;0.3918269231;0.3942307692;0.3966346154;0.3990384615;0.4014423077;0.4038461538;0.40625;0.4086538462;0.4110576923;0.4134615385;0.4158653846;0.4182692308;0.4206730769;0.4230769231;0.4254807692;0.4278846154;0.4302884615;0.4326923077;0.4350961538;0.4375;0.4495192308;0.4519230769;0.4543269231;0.4567307692;0.4591346154;0.4615384615;0.4663461538;0.46875;0.4711538462;0.4735576923;0.4759615385;0.4783653846;0.4807692308;0.4831730769;0.4855769231;0.4879807692;0.4903846154;0.4927884615;0.4951923077;0.4975961538;0.5;0.5072115385;0.5096153846;0.5120192308;0.5144230769;0.5168269231;0.5192307692;0.5216346154;0.5240384615;0.5264423077;0.5288461538;0.53125;0.5336538462;0.5360576923;0.5384615385;0.5408653846;0.5432692308;0.5456730769;0.5480769231;0.5504807692;0.5528846154;0.5552884615;0.5576923077;0.5600961538;0.5625;0.5649038462;0.5673076923;0.5697115385;0.5721153846;0.5745192308;0.5769230769;0.5793269231;0.5817307692;0.5841346154;0.5865384615;0.5889423077;0.5913461538;0.59375;0.5961538462;0.5985576923;0.6009615385;0.6033653846;0.6081730769;0.6105769231;0.6129807692;0.6153846154;0.6177884615;0.6201923077;0.6225961538;0.625;0.6274038462;0.6490384615;0.6514423077;0.65625;0.6586538462;0.6610576923;0.6634615385;0.6658653846;0.6730769231;0.6754807692;0.6778846154;0.6826923077;0.6850961538;0.6875;0.7043269231;0.7067307692;0.7091346154;0.7115384615;0.7139423077;0.7163461538;0.71875;0.7259615385;0.7283653846;0.7307692308;0.7331730769;0.7355769231;0.7379807692;0.7403846154;0.7427884615;0.7475961538;0.75;0.7524038462;0.7548076923;0.7572115385;0.7788461538;0.78125;0.7884615385;0.7908653846;0.8100961538;0.8125;0.8149038462;0.8173076923;0.8317307692;0.8341346154;0.8365384615;0.8413461538;0.84375;0.8461538462;0.8485576923;0.8581730769;0.8605769231;0.8629807692;0.8653846154;0.8677884615;0.8701923077;0.8725961538;0.8894230769;0.8918269231;0.9134615385;0.9158653846;0.9206730769;0.9230769231;0.9254807692;0.9302884615;0.9326923077;0.9350961538;0.9375;0.9399038462;0.9471153846;0.9495192308;0.9519230769;0.9543269231;0.9567307692;0.9591346154;0.9615384615;0.9639423077;0.9663461538;0.96875;0.9711538462;0.9735576923;0.9759615385;0.9783653846;0.9807692308;0.9831730769;0.9855769231;0.9879807692;0.9903846154;0.9927884615;0.9951923077;0.9975961538;1.0" repeatCount="indefinite" values="-1400;-1400;-1400;-1500;-1600;-1700;-1800;-1900;-2000;-2100;-2200;-2300;-2400;-2400;-2500;-2600;-2600;-2700;-2800;-2900;-3000;-3000;-2900;-2800;-2700;-2600;-2500;-2400;-2300;-2200;-2100;-2000;-1900;-1800;-1800;-1700;-1600;-1500;-1400;-1300;-1200;-1100;-1000;-900;-900;-1000;-1000;-1100;-1200;-1300;-1300;-1400;-1400;-1500;-1600;-1600;-1700;-1800;-1800;-1900;-1900;-2000;-2000;-2100;-2100;-2000;-1900;-1800;-1700;-1600;-1500;-1500;-1400;-1500;-1500;-1600;-1700;-1800;-1900;-2000;-2100;-2200;-2300;-2400;-2400;-2500;-2600;-2700;-2800;-2900;-2900;-2800;-2700;-2700;-2800;-2900;-2900;-2800;-2700;-2600;-2600;-2500;-2400;-2400;-2300;-2200;-2100;-2000;-1900;-1800;-1700;-1600;-1500;-1400;-1300;-1200;-1100;-1000;-900;-800;-700;-800;-900;-1000;-1100;-1200;-1300;-1400;-1500;-1600;-1700;-1800;-1800;-1700;-1600;-1500;-1400;-1300;-1300;-1400;-1500;-1500;-1600;-1700;-1700;-1800;-1900;-2000;-2100;-2100;-2200;-2200;-2300;-2300;-2200;-2100;-2000;-1900;-1800;-1700;-1600;-1500;-1400;-1400;-1300;-1200;-1100;-1000;-1100;-1200;-1300;-1300;-1400;-1500;-1600;-1700;-1800;-1900;-2000;-2000;-2100;-2200;-2300;-2300;-2400;-2500;-2500;-2600;-2700;-2700;-2800;-2800;-2900;-3000;-3000;-3100;-3200;-3200;-3300;-3300;-3400;-3400;-3500;-3500;-3400;-3400;-3300;-3200;-3200;-3100;-3100;-3000;-2900;-2900;-2800;-2700;-2700;-2600;-2500;-2400;-2300;-2200;-2100;-2100;-2000;-2000;-1900;-1900;-1800;-1800;-1700;-1700;-1600;-1500;-1500;-1400;-1400;-1300;-1300;-1200;-1200;-1300;-1300;-1400;-1400;-1500;-1600;-1600;-1700;-1800;-1900;-1900;-2000;-2100;-2100;-2200;-2200;-2300;-2300;-2200;-2200;-2100;-2100;-2000;-1900;-1900;-1800;-1800;-1700;-1800;-1800;-1900;-1900;-2000;-1900;-1800;-1700;-1600;-1500;-1400;-1300;-1300;-1200;-1200;-1100;-1100;-1000;-900;-900;-800;-800;-700;-700"/>
<animate attributeName="cx" dur="116.20000000000002s" keyTimes="0.0;0.0024038462;0.0048076923;0.0288461538;0.03125;0.0360576923;0.0384615385;0.0480769231;0.0504807692;0.0528846154;0.0552884615;0.0576923077;0.0600961538;0.0625;0.0649038462;0.0673076923;0.0697115385;0.0985576923;0.1009615385;0.1225961538;0.125;0.1274038462;0.1298076923;0.1322115385;0.1346153846;0.1370192308;0.1394230769;0.1418269231;0.1490384615;0.1514423077;0.1538461538;0.15625;0.1586538462;0.1610576923;0.1634615385;0.1682692308;0.1706730769;0.1754807692;0.1778846154;0.1802884615;0.1826923077;0.1850961538;0.1875;0.1899038462;0.1923076923;0.1947115385;0.1971153846;0.1995192308;0.2019230769;0.2043269231;0.2067307692;0.2091346154;0.2115384615;0.2259615385;0.2283653846;0.2331730769;0.2355769231;0.2572115385;0.2596153846;0.2716346154;0.2740384615;0.2764423077;0.2788461538;0.28125;0.2860576923;0.2884615385;0.2908653846;0.2932692308;0.2980769231;0.3004807692;0.3028846154;0.3052884615;0.3076923077;0.3100961538;0.3125;0.3149038462;0.3173076923;0.3197115385;0.3221153846;0.3245192308;0.3269230769;0.3293269231;0.3317307692;0.3341346154;0.3365384615;0.3389423077;0.3413461538;0.34375;0.3461538462;0.3485576923;0.3509615385;0.3581730769;0.3605769231;0.3653846154;0.3677884615;0.3701923077;0.4375;0.4399038462;0.4423076923;0.4447115385;0.4471153846;0.4495192308;0.4615384615;0.4639423077;0.4663461538;0.4711538462;0.4735576923;0.4783653846;0.4807692308;0.4903846154;0.4927884615;0.4951923077;0.4975961538;0.5;0.5024038462;0.5048076923;0.5072115385;0.5288461538;0.53125;0.5480769231;0.5504807692;0.5673076923;0.5697115385;0.5769230769;0.5793269231;0.5841346154;0.5865384615;0.5913461538;0.59375;0.5961538462;0.5985576923;0.6033653846;0.6057692308;0.6081730769;0.6129807692;0.6153846154;0.6177884615;0.6201923077;0.6225961538;0.625;0.6274038462;0.6298076923;0.6322115385;0.6346153846;0.6370192308;0.6394230769;0.6418269231;0.6442307692;0.6466346154;0.6490384615;0.6514423077;0.6538461538;0.65625;0.6610576923;0.6634615385;0.6658653846;0.6682692308;0.6706730769;0.6730769231;0.6778846154;0.6802884615;0.6826923077;0.6875;0.6899038462;0.6923076923;0.6947115385;0.6971153846;0.6995192308;0.7019230769;0.7043269231;0.71875;0.7211538462;0.7235576923;0.7259615385;0.7283653846;0.7307692308;0.7331730769;0.7355769231;0.7379807692;0.7403846154;0.7427884615;0.7451923077;0.7475961538;0.7524038462;0.7548076923;0.7572115385;0.7596153846;0.7620192308;0.7644230769;0.7668269231;0.7692307692;0.7716346154;0.7740384615;0.7764423077;0.7788461538;0.78125;0.7836538462;0.7860576923;0.7884615385;0.7908653846;0.7932692308;0.7956730769;0.7980769231;0.8004807692;0.8028846154;0.8052884615;0.8076923077;0.8100961538;0.8125;0.8149038462;0.8173076923;0.8197115385;0.8221153846;0.8245192308;0.8269230769;0.8293269231;0.8317307692;0.8365384615;0.8389423077;0.8413461538;0.8485576923;0.8509615385;0.8533653846;0.8557692308;0.8581730769;0.8629807692;0.8653846154;0.8677884615;0.8701923077;0.8725961538;0.875;0.8774038462;0.8798076923;0.8822115385;0.8846153846;0.8870192308;0.8894230769;0.8918269231;0.8942307692;0.8966346154;0.8990384615;0.9014423077;0.9038461538;0.90625;0.9086538462;0.9110576923;0.9134615385;0.9158653846;0.9182692308;0.9206730769;0.9254807692;0.9278846154;0.9302884615;0.9326923077;0.9350961538;0.9399038462;0.9423076923;0.9447115385;0.9471153846;0.9495192308;0.9519230769;0.9711538462;0.9735576923;0.9759615385;0.9783653846;0.9807692308;0.9831730769;0.9879807692;0.9903846154;0.9927884615;0.9951923077;1.0" repeatCount="indefinite" values="2500;2500;2600;2600;2700;2700;2800;2800;2900;3000;3100;3200;3300;3400;3500;3400;3300;3300;3200;3200;3100;3000;2900;2800;2800;2700;2600;2500;2500;2400;2300;2300;2200;2100;2000;2000;1900;1900;1800;1800;1700;1700;1600;1600;1500;1400;1300;1200;1100;1000;900;800;700;700;600;600;700;700;800;800;900;1000;1100;1200;1200;1300;1400;1500;1500;1600;1700;1800;1900;2000;2100;2200;2300;2400;2500;2600;2700;2800;2900;3000;3100;3200;3300;3400;3500;3400;3300;3300;3200;3200;3100;3000;3000;3100;3200;3300;3400;3500;3500;3400;3300;3300;3200;3200;3100;3100;3000;3000;2900;2900;2800;2700;2600;2600;2500;2500;2400;2400;2300;2300;2200;2200;2100;2100;2000;2000;1900;1900;1800;1700;1700;1600;1600;1500;1500;1400;1400;1500;1600;1700;1800;1900;2000;2100;2200;2300;2300;2200;2100;2100;2000;2000;1900;1800;1700;1700;1600;1500;1500;1400;1300;1200;1100;1000;900;800;800;900;1000;1100;1100;1200;1200;1300;1300;1400;1400;1500;1600;1600;1700;1700;1800;1900;2000;2100;2200;2300;2400;2500;2600;2600;2700;2800;2900;2900;2800;2700;2600;2500;2400;2300;2200;2100;2100;2000;2000;1900;1800;1700;1600;1500;1400;1400;1300;1200;1200;1100;1000;900;800;800;700;700;600;600;700;800;900;1000;1100;1200;1300;1300;1400;1500;1600;1700;1800;1900;2000;2100;2200;2200;2300;2400;2400;2500;2600;2600;2700;2700;2600;2500;2400;2400;2300;2300;2400;2400;2500;2500;2600;2600;2700;2700;2800;2800"/>
<animate attributeName="visibility" dur="116.20000000000002s" keyTimes="0.0;0.0024038462;1.0" repeatCount="indefinite" values="visible;visible;visible"/> </circle>
<circle cx="3000" cy="-1900" fill="#2e6f9e" r="35"> <animate attributeName="cy" dur="116.20000000000002s" keyTimes="0.0;0.0024038462;0.0048076923;0.0072115385;0.0096153846;0.0120192308;0.0144230769;0.0168269231;0.0192307692;0.0216346154;0.0360576923;0.0384615385;0.0408653846;0.0552884615;0.0576923077;0.0600961538;0.0625;0.0649038462;0.0673076923;0.0697115385;0.0769230769;0.0793269231;0.0817307692;0.0841346154;0.0865384615;0.0889423077;0.0913461538;0.09375;0.0961538462;0.0985576923;0.1009615385;0.1033653846;0.1057692308;0.1081730769;0.1105769231;0.1129807692;0.1153846154;0.1177884615;0.1201923077;0.1225961538;0.125;0.1274038462;0.1298076923;0.1322115385;0.1346153846;0.1370192308;0.1394230769;0.1418269231;0.1442307692;0.1466346154;0.2019230769;0.2043269231;0.2067307692;0.2091346154;0.2115384615;0.2139423077;0.2163461538;0.21875;0.2211538462;0.2235576923;0.2259615385;0.2283653846;0.2307692308;0.2331730769;0.2355769231;0.2379807692;0.2403846154;0.2427884615;0.2451923077;0.2620192308;0.2644230769;0.2668269231;0.2692307692;0.3125;0.3149038462;0.3197115385;0.3221153846;0.3245192308;0.3269230769;0.3293269231;0.3317307692;0.3341346154;0.3365384615;0.3389423077;0.3413461538;0.34375;0.3461538462;0.3485576923;0.3509615385;0.3533653846;0.3557692308;0.3581730769;0.3605769231;0.3629807692;0.3653846154;0.3894230769;0.3918269231;0.3942307692;0.3966346154;0.3990384615;0.4014423077;0.4038461538;0.40625;0.4086538462;0.4110576923;0.4134615385;0.4158653846;0.4182692308;0.4206730769;0.4230769231;0.4254807692;0.4278846154;0.4302884615;0.4326923077;0.4350961538;0.4375;0.4399038462;0.4423076923;0.4447115385;0.4471153846;0.4495192308;0.4519230769;0.4543269231;0.4615384615;0.4639423077;0.4663461538;0.4735576923;0.4759615385;0.4807692308;0.4831730769;0.4855769231;0.5048076923;0.5072115385;0.5096153846;0.5360576923;0.5384615385;0.5408653846;0.5432692308;0.5480769231;0.5504807692;0.5649038462;0.5673076923;0.5961538462;0.5985576923;0.6009615385;0.6346153846;0.6370192308;0.6394230769;0.6418269231;0.6442307692;0.6466346154;0.6490384615;0.6514423077;0.6538461538;0.65625;0.6586538462;0.6610576923;0.6634615385;0.6658653846;0.6682692308;0.6706730769;0.6730769231;0.6754807692;0.6778846154;0.6923076923;0.6947115385;0.6971153846;0.6995192308;0.7043269231;0.7067307692;0.7091346154;0.7115384615;0.7139423077;0.7163461538;0.7235576923;0.7259615385;0.7355769231;0.7379807692;0.7403846154;0.7427884615;0.7451923077;0.7475961538;0.75;0.7524038462;0.7548076923;0.7572115385;0.7596153846;0.7620192308;0.7668269231;0.7692307692;0.7956730769;0.7980769231;0.8076923077;0.8100961538;0.8197115385;0.8221153846;0.8245192308;0.8269230769;0.8293269231;0.8341346154;0.8365384615;0.8389423077;0.8413461538;0.84375;0.8461538462;0.8533653846;0.8557692308;0.8629807692;0.8653846154;0.8677884615;0.8701923077;0.8725961538;0.875;0.8774038462;0.8798076923;0.8822115385;0.9014423077;0.9038461538;0.90625;0.9086538462;0.9110576923;0.9350961538;0.9375;0.9399038462;0.9423076923;0.9447115385;0.9471153846;0.9495192308;0.9591346154;0.9615384615;0.9639423077;0.96875;0.9711538462;0.9735576923;0.9759615385;0.9783653846;0.9807692308;0.9831730769;0.9855769231;0.9903846154;0.9927884615;0.9951923077;0.9975961538;1.0" repeatCount="indefinite" values="-1900;-1900;-2000;-2100;-2200;-2300;-2300;-2400;-2500;-2600;-2600;-2500;-2400;-2400;-2300;-2200;-2100;-2000;-1900;-1800;-1800;-1700;-1600;-1500;-1600;-1500;-1400;-1300;-1200;-1100;-1200;-1300;-1400;-1500;-1600;-1700;-1800;-1900;-2000;-2000;-2100;-2200;-2300;-2300;-2400;-2500;-2500;-2600;-2700;-2800;-2800;-2700;-2600;-2500;-2400;-2300;-2200;-2200;-2100;-2100;-2200;-2300;-2400;-2400;-2500;-2600;-2600;-2700;-2800;-2800;-2900;-2900;-2800;-2800;-2700;-2700;-2600;-2600;-2500;-2500;-2400;-2400;-2300;-2300;-2200;-2100;-2000;-1900;-1800;-1700;-1600;-1500;-1400;-1300;-1400;-1400;-1500;-1600;-1700;-1800;-1900;-2000;-2100;-2200;-2300;-2400;-2500;-2600;-2700;-2800;-2900;-3000;-3100;-3000;-3000;-3100;-3200;-3300;-3400;-3500;-3500;-3600;-3700;-3700;-3600;-3500;-3500;-3400;-3400;-3500;-3600;-3600;-3700;-3600;-3600;-3700;-3700;-3600;-3600;-3700;-3700;-3600;-3600;-3500;-3400;-3400;-3300;-3200;-3100;-3000;-2900;-2800;-2700;-2600;-2500;-2400;-2300;-2200;-2100;-2000;-1900;-1900;-1800;-1700;-1700;-1600;-1500;-1400;-1400;-1300;-1200;-1100;-1000;-900;-900;-1000;-1000;-1100;-1200;-1200;-1300;-1400;-1300;-1300;-1400;-1500;-1500;-1400;-1400;-1500;-1500;-1600;-1600;-1700;-1700;-1800;-1900;-2000;-2100;-2100;-2200;-2200;-2300;-2200;-2100;-2100;-2200;-2200;-2300;-2300;-2400;-2400;-2500;-2600;-2600;-2700;-2700;-2800;-2900;-2800;-2700;-2700;-2600;-2500;-2500;-2400;-2300;-2200;-2200;-2100;-2000;-2000;-1900;-2000;-2000;-2100;-2200;-2300;-2400;-2400;-2300;-2300;-2200;-2200"/>
<animate attributeName="cx" dur="116.20000000000002s" keyTimes="0.0;0.0024038462;0.0120192308;0.0144230769;0.0216346154;0.0240384615;0.0264423077;0.0288461538;0.03125;0.0336538462;0.0360576923;0.0432692308;0.0456730769;0.0480769231;0.0504807692;0.0528846154;0.0552884615;0.0697115385;0.0721153846;0.0745192308;0.0769230769;0.1298076923;0.1322115385;0.1370192308;0.1394230769;0.1466346154;0.1490384615;0.1514423077;0.1538461538;0.15625;0.1586538462;0.1610576923;0.1634615385;0.1658653846;0.1682692308;0.1706730769;0.1730769231;0.1754807692;0.1778846154;0.1802884615;0.1826923077;0.1850961538;0.1875;0.1899038462;0.1923076923;0.1947115385;0.1971153846;0.1995192308;0.2019230769;0.2163461538;0.21875;0.2211538462;0.2235576923;0.2307692308;0.2331730769;0.2379807692;0.2403846154;0.2451923077;0.2475961538;0.25;0.2524038462;0.2548076923;0.2572115385;0.2596153846;0.2620192308;0.2644230769;0.2668269231;0.2692307692;0.2716346154;0.2740384615;0.2764423077;0.2788461538;0.28125;0.2836538462;0.2860576923;0.2884615385;0.2908653846;0.2932692308;0.2956730769;0.2980769231;0.3004807692;0.3028846154;0.3052884615;0.3076923077;0.3100961538;0.3125;0.3149038462;0.3173076923;0.3197115385;0.3221153846;0.3245192308;0.3269230769;0.3293269231;0.3653846154;0.3677884615;0.3701923077;0.3725961538;0.375;0.3774038462;0.3798076923;0.3822115385;0.3846153846;0.3870192308;0.3894230769;0.4326923077;0.4350961538;0.4471153846;0.4495192308;0.4543269231;0.4567307692;0.4591346154;0.4615384615;0.4663461538;0.46875;0.4711538462;0.4735576923;0.4759615385;0.4783653846;0.4807692308;0.4855769231;0.4879807692;0.4903846154;0.4927884615;0.4951923077;0.4975961538;0.5;0.5024038462;0.5048076923;0.5096153846;0.5120192308;0.5144230769;0.5168269231;0.5192307692;0.5216346154;0.5240384615;0.5264423077;0.5288461538;0.53125;0.5336538462;0.5360576923;0.5384615385;0.5408653846;0.5432692308;0.5456730769;0.5480769231;0.5528846154;0.5552884615;0.5576923077;0.5600961538;0.5625;0.5649038462;0.5673076923;0.5697115385;0.5721153846;0.5745192308;0.5769230769;0.5793269231;0.5817307692;0.5841346154;0.5865384615;0.5889423077;0.5913461538;0.59375;0.5961538462;0.6009615385;0.6033653846;0.6057692308;0.6081730769;0.6105769231;0.6129807692;0.6153846154;0.6177884615;0.6201923077;0.6225961538;0.625;0.6274038462;0.6298076923;0.6322115385;0.6346153846;0.6706730769;0.6730769231;0.6802884615;0.6826923077;0.6850961538;0.6875;0.6899038462;0.6923076923;0.6995192308;0.7019230769;0.7043269231;0.7163461538;0.71875;0.7211538462;0.7235576923;0.7259615385;0.7283653846;0.7307692308;0.7331730769;0.7355769231;0.7403846154;0.7427884615;0.7572115385;0.7596153846;0.7620192308;0.7644230769;0.7668269231;0.7692307692;0.7716346154;0.7740384615;0.7764423077;0.7788461538;0.78125;0.7836538462;0.7860576923;0.7884615385;0.7908653846;0.7932692308;0.7956730769;0.7980769231;0.8004807692;0.8028846154;0.8052884615;0.8076923077;0.8100961538;0.8125;0.8149038462;0.8173076923;0.8197115385;0.8293269231;0.8317307692;0.8341346154;0.8365384615;0.8389423077;0.8485576923;0.8509615385;0.8533653846;0.8557692308;0.8581730769;0.8605769231;0.8629807692;0.8653846154;0.8677884615;0.8701923077;0.8725961538;0.8774038462;0.8798076923;0.8822115385;0.8846153846;0.8870192308;0.8894230769;0.8918269231;0.8942307692;0.8966346154;0.8990384615;0.9014423077;0.9110576923;0.9134615385;0.9158653846;0.9182692308;0.9206730769;0.9230769231;0.9254807692;0.9278846154;0.9302884615;0.9326923077;0.9350961538;0.9399038462;0.9423076923;0.9495192308;0.9519230769;0.9543269231;0.9567307692;0.9591346154;0.9639423077;0.9663461538;0.96875;0.9735576923;0.9759615385;0.9855769231;0.9879807692;0.9903846154;0.9927884615;0.9951923077;1.0" repeatCount="indefinite" values="3000;3000;3000;2900;2900;2800;2700;2600;2700;2800;2900;2900;3000;3000;3100;3200;3300;3300;3400;3500;3600;3600;3500;3500;3400;3400;3300;3200;3100;3000;2900;2900;2800;2700;2600;2500;2400;2300;2200;2100;2000;1900;1800;1900;2000;2100;2200;2300;2400;2400;2500;2500;2600;2600;2700;2700;2800;2800;2900;3000;3100;3200;3300;3400;3500;3500;3400;3400;3300;3200;3100;3000;2900;2800;2700;2600;2500;2400;2300;2200;2100;2000;1900;1800;1700;1800;1800;1700;1600;1600;1500;1500;1600;1600;1700;1800;1900;2000;2100;2200;2300;2400;2500;2400;2400;2500;2500;2400;2400;2500;2600;2700;2700;2800;2900;3000;3000;3100;3200;3200;3100;3000;2900;2800;2700;2600;2500;2600;2600;2500;2400;2300;2200;2200;2100;2000;1900;1800;1700;1600;1600;1500;1500;1400;1300;1300;1200;1300;1400;1500;1600;1600;1700;1800;1900;2000;2100;2200;2300;2400;2500;2600;2700;2800;2800;2700;2600;2500;2400;2300;2200;2100;2000;2000;2100;2000;2000;2100;2200;2200;2100;2100;2000;1900;2000;1900;1800;1800;1700;1600;1600;1700;1700;1800;1800;1900;2000;2100;2200;2200;2300;2300;2400;2400;2500;2600;2600;2700;2800;2900;3000;3100;3200;3300;3400;3500;3600;3500;3500;3400;3300;3200;3100;3100;3000;2900;2800;2700;2700;2600;2500;2500;2400;2400;2300;2200;2200;2100;2000;1900;1900;1800;1800;1900;1900;1800;1800;1700;1600;1500;1400;1300;1200;1100;1200;1200;1300;1400;1500;1600;1700;1800;1700;1800;1900;2000;2000;1900;1900;2000;2100;2000;1900;1900;2000;2100;2100;2200;2200;2100;2200;2200;2300;2300"/>
<animate attributeName="visibility" dur="116.20000000000002s" keyTimes="0.0;0.0024038462;1.0" repeatCount="indefinite" values="visible;visible;visible"/> </circle>
<circle cx="3500" cy="-3000" fill="none" r="35" stroke="#c1433c" stroke-width="10"> <animate attributeName="cy" dur="116.20000000000002s" keyTimes="0.0;0.0024038462;0.0625;0.0649038462;0.1201923077;0.1225961538;0.1899038462;0.1923076923;0.2283653846;0.2307692308;0.34375;0.3461538462;0.4086538462;0.4110576923;0.4471153846;0.4495192308;0.4615384615;0.4639423077;0.5;0.5024038462;0.5384615385;0.5408653846;0.625;0.6274038462;0.6490384615;0.6514423077;0.7163461538;0.71875;0.7548076923;0.7572115385;0.7884615385;0.7908653846;0.8701923077;0.8725961538;0.9350961538;0.9375;0.9519230769;0.9543269231;0.9951923077;0.9975961538;1.0" repeatCount="indefinite" values="-3000;-3000;-3000;-900;-900;-2100;-2100;-1400;-1400;-2900;-2900;-700;-700;-1800;-1800;-1300;-1300;-2300;-2300;-1000;-1000;-3500;-3500;-3400;-3400;-2100;-2100;-1400;-1400;-1200;-1200;-2300;-2300;-1700;-1700;-2000;-2000;-700;-700;-1700;-1700"/>
<animate attributeName="cx" dur="116.20000000000002s" keyTimes="0.0;0.0024038462;0.0625;0.0649038462;0.1201923077;0.1225961538;0.1899038462;0.1923076923;0.2283653846;0.2307692308;0.34375;0.3461538462;0.4086538462;0.4110576923;0.4471153846;0.4495192308;0.4615384615;0.4639423077;0.5;0.5024038462;0.5384615385;0.5408653846;0.625;0.6274038462;0.6490384615;0.6514423077;0.7163461538;0.71875;0.7548076923;0.7572115385;0.7884615385;0.7908653846;0.8701923077;0.8725961538;0.9350961538;0.9375;0.9519230769;0.9543269231;0.9951923077;0.9975961538;1.0" repeatCount="indefinite" values="3500;3500;3500;3200;3200;1500;1500;600;600;3500;3500;3000;3000;3500;3500;3400;3400;2800;2800;2500;2500;1400;1400;2300;2300;800;800;1700;1700;2900;2900;600;600;2700;2700;2300;2300;2800;2800;3100;3100"/>
<animate attributeName="visibility" dur="116.20000000000002s" keyTimes="0.0;0.0024038462;1.0" repeatCount="indefinite" values="visible;visible;visible"/> </circle>
<circle cx="2600" cy="-2600" fill="none" r="35" stroke="#2e6f9e" stroke-width="10"> <animate attributeName="cy" dur="116.20000000000002s" keyTimes="0.0;0.0024038462;0.0264423077;0.0288461538;0.0649038462;0.0673076923;0.0961538462;0.0985576923;0.1850961538;0.1875;0.21875;0.2211538462;0.2596153846;0.2620192308;0.3605769231;0.3629807692;0.3846153846;0.3870192308;0.4543269231;0.4567307692;0.4783653846;0.4807692308;0.5528846154;0.5552884615;0.5985576923;0.6009615385;0.6754807692;0.6778846154;0.6971153846;0.6995192308;0.7139423077;0.7163461538;0.7331730769;0.7355769231;0.7908653846;0.7932692308;0.8149038462;0.8173076923;0.8701923077;0.8725961538;0.9038461538;0.90625;0.96875;0.9711538462;0.9855769231;0.9879807692;1.0" repeatCount="indefinite" values="-2600;-2600;-2600;-1900;-1900;-1100;-1100;-2800;-2800;-2100;-2100;-2800;-2800;-1300;-1300;-1400;-1400;-3700;-3700;-3400;-3400;-3700;-3700;-3400;-3400;-1700;-1700;-1400;-1400;-900;-900;-1000;-1000;-1500;-1500;-1700;-1700;-2400;-2400;-2900;-2900;-1900;-1900;-2400;-2400;-1200;-1200"/>
<animate attributeName="cx" dur="116.20000000000002s" keyTimes="0.0;0.0024038462;0.0264423077;0.0288461538;0.0649038462;0.0673076923;0.0961538462;0.0985576923;0.1850961538;0.1875;0.21875;0.2211538462;0.2596153846;0.2620192308;0.3605769231;0.3629807692;0.4543269231;0.4567307692;0.4735576923;0.4759615385;0.4783653846;0.4807692308;0.5528846154;0.5552884615;0.5985576923;0.6009615385;0.6754807692;0.6778846154;0.6971153846;0.6995192308;0.7139423077;0.7163461538;0.7331730769;0.7355769231;0.7908653846;0.7932692308;0.8149038462;0.8173076923;0.8701923077;0.8725961538;0.9038461538;0.90625;0.9855769231;0.9879807692;1.0" repeatCount="indefinite" values="2600;2600;2600;3300;3300;3600;3600;1800;1800;2500;2500;3500;3500;1600;1600;2500;2500;3000;3000;3200;3200;1200;1200;2800;2800;2100;2100;1800;1800;1600;1600;2200;2200;3600;3600;2800;2800;1900;1900;1200;1200;2100;2100;2200;2200"/>
<animate attributeName="visibility" dur="116.20000000000002s" keyTimes="0.0;0.0024038462;1.0" repeatCount="indefinite" values="visible;visible;visible"/> </circle>
</svg>