<?xml version="1.0" encoding="UTF-8"?>
        <svg xmlns="http://www.w3.org/2000/svg" xmlns:xlink="http://www.w3.org/1999/xlink"
             width="430" height="430" viewBox="0 -4300 4300 4300">

<defs>

</defs>

<rect fill="#84A1AE" height="70" rx="15" width="70" x="465" y="-535" />
<rect fill="#84A1AE" height="70" rx="15" width="70" x="465" y="-635" />
<rect fill="#84A1AE" height="70" rx="15" width="70" x="465" y="-735" />
<rect fill="#84A1AE" height="70" rx="15" width="70" x="465" y="-835" />
<rect fill="#84A1AE" height="70" rx="15" width="70" x="465" y="-935" />
<rect fill="#84A1AE" height="70" rx="15" width="70" x="465" y="-1035" />
<rect fill="#84A1AE" height="70" rx="15" width="70" x="465" y="-1135" />
<rect fill="#84A1AE" height="70" rx="15" width="70" x="465" y="-1235" />
<rect fill="#84A1AE" height="70" rx="15" width="70" x="465" y="-1335" />
<rect fill="#84A1AE" height="70" rx="15" width="70" x="465" y="-1435" />
<rect fill="#84A1AE" height="70" rx="15" width="70" x="465" y="-1535" />
<rect fill="#84A1AE" height="70" rx="15" width="70" x="465" y="-1635" />
<rect fill="#84A1AE" height="70" rx="15" width="70" x="465" y="-1735" />
<rect fill="#84A1AE" height="70" rx="15" width="70" x="465" y="-1835" />
<rect fill="#84A1AE" height="70" rx="15" width="70" x="465" y="-1935" />
<rect fill="#84A1AE" height="70" rx="15" width="70" x="465" y="-2035" />
<rect fill="#84A1AE" height="70" rx="15" width="70" x="465" y="-2135" />
<rect fill="#84A1AE" height="70" rx="15" width="70" x="465" y="-2235" />
<rect fill="#84A1AE" height="70" rx="15" width="70" x="465" y="-2335" />
<rect fill="#84A1AE" height="70" rx="15" width="70" x="465" y="-2435" />
<rect fill="#84A1AE" height="70" rx="15" width="70" x="465" y="-2535" />
<rect fill="#84A1AE" height="70" rx="15" width="70" x="465" y="-2635" />
<rect fill="#84A1AE" height="70" rx="15" width="70" x="465" y="-2735" />
<rect fill="#84A1AE" height="70" rx="15" width="70" x="465" y="-2835" />
<rect fill="#84A1AE" height="70" rx="15" width="70" x="465" y="-2935" />
<rect fill="#84A1AE" height="70" rx="15" width="70" x="465" y="-3035" />
<rect fill="#84A1AE" height="70" rx="15" width="70" x="465" y="-3135" />
<rect fill="#84A1AE" height="70" rx="15" width="70" x="465" y="-3235" />
<rect fill="#84A1AE" height="70" rx="15" width="70" x="465" y="-3335" />
<rect fill="#84A1AE" height="70" rx="15" width="70" x="465" y="-3435" />
<rect fill="#84A1AE" height="70" rx="15" width="70" x="465" y="-3535" />
<rect fill="#84A1AE" height="70" rx="15" width="70" x="465" y="-3635" />
<rect fill="#84A1AE" height="70" rx="15" width="70" x="465" y="-3735" />
<rect fill="#84A1AE" height="70" rx="15" width="70" x="465" y="-3835" />
<rect fill="#84A1AE" height="70" rx="15" width="70" x="565" y="-535" />
<rect fill="#84A1AE" height="70" rx="15" width="70" x="565" y="-1635" />
<rect fill="#84A1AE" height="70" rx="15" width="70" x="565" y="-1935" />
<rect fill="#84A1AE" height="70" rx="15" width="70" x="565" y="-2735" />
<rect fill="#84A1AE" height="70" rx="15" width="70" x="565" y="-3835" />
<rect fill="#84A1AE" height="70" rx="15" width="70" x="665" y="-535" />
<rect fill="#84A1AE" height="70" rx="15" width="70" x="665" y="-1035" />
<rect fill="#84A1AE" height="70" rx="15" width="70" x="665" y="-2535" />
<rect fill="#84A1AE" height="70" rx="15" width="70" x="665" y="-3035" />
<rect fill="#84A1AE" height="70" rx="15" width="70" x="665" y="-3235" />
<rect fill="#84A1AE" height="70" rx="15" width="70" x="665" y="-3835" />
<rect fill="#84A1AE" height="70" rx="15" width="70" x="765" y="-535" />
<rect fill="#84A1AE" height="70" rx="15" width="70" x="765" y="-635" />
<rect fill="#84A1AE" height="70" rx="15" width="70" x="765" y="-3835" />
<rect fill="#84A1AE" height="70" rx="15" width="70" x="865" y="-535" />
<rect fill="#84A1AE" height="70" rx="15" width="70" x="865" y="-2435" />
<rect fill="#84A1AE" height="70" rx="15" width="70" x="865" y="-2535" />
<rect fill="#84A1AE" height="70" rx="15" width="70" x="865" y="-3335" />
<rect fill="#84A1AE" height="70" rx="15" width="70" x="865" y="-3435" />
<rect fill="#84A1AE" height="70" rx="15" width="70" x="865" y="-3835" />
<rect fill="#84A1AE" height="70" rx="15" width="70" x="965" y="-535" />
<rect fill="#84A1AE" height="70" rx="15" width="70" x="965" y="-735" />
<rect fill="#84A1AE" height="70" rx="15" width="70" x="965" y="-1635" />
<rect fill="#84A1AE" height="70" rx="15" width="70" x="965" y="-1835" />
<rect fill="#84A1AE" height="70" rx="15" width="70" x="965" y="-2835" />
<rect fill="#84A1AE" height="70" rx="15" width="70" x="965" y="-3435" />
<rect fill="#84A1AE" height="70" rx="15" width="70" x="965" y="-3835" />
<rect fill="#84A1AE" height="70" rx="15" width="70" x="1065" y="-535" />
<rect fill="#84A1AE" height="70" rx="15" width="70" x="1065" y="-1135" />
<rect fill="#84A1AE" height="70" rx="15" width="70" x="1065" y="-1835" />
<rect fill="#84A1AE" height="70" rx="15" width="70" x="1065" y="-3735" />
<rect fill="#84A1AE" height="70" rx="15" width="70" x="1065" y="-3835" />
<rect fill="#84A1AE" height="70" rx="15" width="70" x="1165" y="-535" />
<rect fill="#84A1AE" height="70" rx="15" width="70" x="1165" y="-635" />
<rect fill="#84A1AE" height="70" rx="15" width="70" x="1165" y="-735" />
<rect fill="#84A1AE" height="70" rx="15" width="70" x="1165" y="-1535" />
<rect fill="#84A1AE" height="70" rx="15" width="70" x="1165" y="-3835" />
<rect fill="#84A1AE" height="70" rx="15" width="70" x="1265" y="-535" />
<rect fill="#84A1AE" height="70" rx="15" width="70" x="1265" y="-2835" />
<rect fill="#84A1AE" height="70" rx="15" width="70" x="1265" y="-3435" />
<rect fill="#84A1AE" height="70" rx="15" width="70" x="1265" y="-3835" />
<rect fill="#84A1AE" height="70" rx="15" width="70" x="1365" y="-535" />
<rect fill="#84A1AE" height="70" rx="15" width="70" x="1365" y="-835" />
<rect fill="#84A1AE" height="70" rx="15" width="70" x="1365" y="-935" />
<rect fill="#84A1AE" height="70" rx="15" width="70" x="1365" y="-1035" />
<rect fill="#84A1AE" height="70" rx="15" width="70" x="1365" y="-1935" />
<rect fill="#84A1AE" height="70" rx="15" width="70" x="1365" y="-2335" />
<rect fill="#84A1AE" height="70" rx="15" width="70" x="1365" y="-2635" />
<rect fill="#84A1AE" height="70" rx="15" width="70" x="1365" y="-2835" />
<rect fill="#84A1AE" height="70" rx="15" width="70" x="1365" y="-2935" />
<rect fill="#84A1AE" height="70" rx="15" width="70" x="1365" y="-3035" />
<rect fill="#84A1AE" height="70" rx="15" width="70" x="1365" y="-3335" />
<rect fill="#84A1AE" height="70" rx="15" width="70" x="1365" y="-3835" />
<rect fill="#84A1AE" height="70" rx="15" width="70" x="1465" y="-535" />
<rect fill="#84A1AE" height="70" rx="15" width="70" x="1465" y="-1235" />
<rect fill="#84A1AE" height="70" rx="15" width="70" x="1465" y="-1535" />
<rect fill="#84A1AE" height="70" rx="15" width="70" x="1465" y="-2035" />
<rect fill="#84A1AE" height="70" rx="15" width="70" x="1465" y="-3135" />
<rect fill="#84A1AE" height="70" rx="15" width="70" x="1465" y="-3235" />
<rect fill="#84A1AE" height="70" rx="15" width="70" x="1465" y="-3835" />
<rect fill="#84A1AE" height="70" rx="15" width="70" x="1565" y="-535" />
<rect fill="#84A1AE" height="70" rx="15" width="70" x="1565" y="-3035" />
<rect fill="#84A1AE" height="70" rx="15" width="70" x="1565" y="-3835" />
<rect fill="#84A1AE" height="70" rx="15" width="70" x="1665" y="-535" />
<rect fill="#84A1AE" height="70" rx="15" width="70" x="1665" y="-3735" />
<rect fill="#84A1AE" height="70" rx="15" width="70" x="1665" y="-3835" />
<rect fill="#84A1AE" height="70" rx="15" width="70" x="1765" y="-535" />
<rect fill="#84A1AE" height="70" rx="15" width="70" x="1765" y="-1235" />
<rect fill="#84A1AE" height="70" rx="15" width="70" x="1765" y="-3835" />
<rect fill="#84A1AE" height="70" rx="15" width="70" x="1865" y="-535" />
<rect fill="#84A1AE" height="70" rx="15" width="70" x="1865" y="-735" />
<rect fill="#84A1AE" height="70" rx="15" width="70" x="1865" y="-1335" />
<rect fill="#84A1AE" height="70" rx="15" width="70" x="1865" y="-3235" />
<rect fill="#84A1AE" height="70" rx="15" width="70" x="1865" y="-3435" />
<rect fill="#84A1AE" height="70" rx="15" width="70" x="1865" y="-3835" />
<rect fill="#84A1AE" height="70" rx="15" width="70" x="1965" y="-535" />
<rect fill="#84A1AE" height="70" rx="15" width="70" x="1965" y="-635" />
<rect fill="#84A1AE" height="70" rx="15" width="70" x="1965" y="-1835" />
<rect fill="#84A1AE" height="70" rx="15" width="70" x="1965" y="-1935" />
<rect fill="#84A1AE" height="70" rx="15" width="70" x="1965" y="-2135" />
<rect fill="#84A1AE" height="70" rx="15" width="70" x="1965" y="-2335" />
<rect fill="#84A1AE" height="70" rx="15" width="70" x="1965" y="-2435" />
<rect fill="#84A1AE" height="70" rx="15" width="70" x="1965" y="-3335" />
<rect fill="#84A1AE" height="70" rx="15" width="70" x="1965" y="-3835" />
<rect fill="#84A1AE" height="70" rx="15" width="70" x="2065" y="-535" />
<rect fill="#84A1AE" height="70" rx="15" width="70" x="2065" y="-1535" />
<rect fill="#84A1AE" height="70" rx="15" width="70" x="2065" y="-1635" />
<rect fill="#84A1AE" height="70" rx="15" width="70" x="2065" y="-2135" />
<rect fill="#84A1AE" height="70" rx="15" width="70" x="2065" y="-3835" />
<rect fill="#84A1AE" height="70" rx="15" width="70" x="2165" y="-535" />
<rect fill="#84A1AE" height="70" rx="15" width="70" x="2165" y="-935" />
<rect fill="#84A1AE" height="70" rx="15" width="70" x="2165" y="-1335" />
<rect fill="#84A1AE" height="70" rx="15" width="70" x="2165" y="-1835" />
<rect fill="#84A1AE" height="70" rx="15" width="70" x="2165" y="-3835" />
<rect fill="#84A1AE" height="70" rx="15" width="70" x="2265" y="-535" />
<rect fill="#84A1AE" height="70" rx="15" width="70" x="2265" y="-935" />
<rect fill="#84A1AE" height="70" rx="15" width="70" x="2265" y="-1135" />
<rect fill="#84A1AE" height="70" rx="15" width="70" x="2265" y="-2535" />
<rect fill="#84A1AE" height="70" rx="15" width="70" x="2265" y="-3235" />
<rect fill="#84A1AE" height="70" rx="15" width="70" x="2265" y="-3835" />
<rect fill="#84A1AE" height="70" rx="15" width="70" x="2365" y="-535" />
<rect fill="#84A1AE" height="70" rx="15" width="70" x="2365" y="-935" />
<rect fill="#84A1AE" height="70" rx="15" width="70" x="2365" y="-1035" />
<rect fill="#84A1AE" height="70" rx="15" width="70" x="2365" y="-3835" />
<rect fill="#84A1AE" height="70" rx="15" width="70" x="2465" y="-535" />
<rect fill="#84A1AE" height="70" rx="15" width="70" x="2465" y="-935" />
<rect fill="#84A1AE" height="70" rx="15" width="70" x="2465" y="-1535" />
<rect fill="#84A1AE" height="70" rx="15" width="70" x="2465" y="-2335" />
<rect fill="#84A1AE" height="70" rx="15" width="70" x="2465" y="-2735" />
<rect fill="#84A1AE" height="70" rx="15" width="70" x="2465" y="-3835" />
<rect fill="#84A1AE" height="70" rx="15" width="70" x="2565" y="-535" />
<rect fill="#84A1AE" height="70" rx="15" width="70" x="2565" y="-735" />
<rect fill="#84A1AE" height="70" rx="15" width="70" x="2565" y="-2535" />
<rect fill="#84A1AE" height="70" rx="15" width="70" x="2565" y="-3835" />
<rect fill="#84A1AE" height="70" rx="15" width="70" x="2665" y="-535" />
<rect fill="#84A1AE" height="70" rx="15" width="70" x="2665" y="-635" />
<rect fill="#84A1AE" height="70" rx="15" width="70" x="2665" y="-1135" />
<rect fill="#84A1AE" height="70" rx="15" width="70" x="2665" y="-1435" />
<rect fill="#84A1AE" height="70" rx="15" width="70" x="2665" y="-2735" />
<rect fill="#84A1AE" height="70" rx="15" width="70" x="2665" y="-3835" />
<rect fill="#84A1AE" height="70" rx="15" width="70" x="2765" y="-535" />
<rect fill="#84A1AE" height="70" rx="15" width="70" x="2765" y="-1635" />
<rect fill="#84A1AE" height="70" rx="15" width="70" x="2765" y="-1835" />
<rect fill="#84A1AE" height="70" rx="15" width="70" x="2765" y="-1935" />
<rect fill="#84A1AE" height="70" rx="15" width="70" x="2765" y="-2235" />
<rect fill="#84A1AE" height="70" rx="15" width="70" x="2765" y="-3735" />
<rect fill="#84A1AE" height="70" rx="15" width="70" x="2765" y="-3835" />
<rect fill="#84A1AE" height="70" rx="15" width="70" x="2865" y="-535" />
<rect fill="#84A1AE" height="70" rx="15" width="70" x="2865" y="-3835" />
<rect fill="#84A1AE" height="70" rx="15" width="70" x="2965" y="-535" />
<rect fill="#84A1AE" height="70" rx="15" width="70" x="2965" y="-2635" />
<rect fill="#84A1AE" height="70" rx="15" width="70" x="2965" y="-3835" />
<rect fill="#84A1AE" height="70" rx="15" width="70" x="3065" y="-535" />
<rect fill="#84A1AE" height="70" rx="15" width="70" x="3065" y="-735" />
<rect fill="#84A1AE" height="70" rx="15" width="70" x="3065" y="-2535" />
<rect fill="#84A1AE" height="70" rx="15" width="70" x="3065" y="-3835" />
<rect fill="#84A1AE" height="70" rx="15" width="70" x="3165" y="-535" />
<rect fill="#84A1AE" height="70" rx="15" width="70" x="3165" y="-835" />
<rect fill="#84A1AE" height="70" rx="15" width="70" x="3165" y="-1935" />
<rect fill="#84A1AE" height="70" rx="15" width="70" x="3165" y="-2735" />
<rect fill="#84A1AE" height="70" rx="15" width="70" x="3165" y="-3135" />
<rect fill="#84A1AE" height="70" rx="15" width="70" x="3165" y="-3835" />
<rect fill="#84A1AE" height="70" rx="15" width="70" x="3265" y="-535" />
<rect fill="#84A1AE" height="70" rx="15" width="70" x="3265" y="-1035" />
<rect fill="#84A1AE" height="70" rx="15" width="70" x="3265" y="-1735" />
<rect fill="#84A1AE" height="70" rx="15" width="70" x="3265" y="-3835" />
<rect fill="#84A1AE" height="70" rx="15" width="70" x="3365" y="-535" />
<rect fill="#84A1AE" height="70" rx="15" width="70" x="3365" y="-1435" />
<rect fill="#84A1AE" height="70" rx="15" width="70" x="3365" y="-1935" />
<rect fill="#84A1AE" height="70" rx="15" width="70" x="3365" y="-2135" />
<rect fill="#84A1AE" height="70" rx="15" width="70" x="3365" y="-3835" />
<rect fill="#84A1AE" height="70" rx="15" width="70" x="3465" y="-535" />
<rect fill="#84A1AE" height="70" rx="15" width="70" x="3465" y="-2635" />
<rect fill="#84A1AE" height="70" rx="15" width="70" x="3465" y="-3835" />
<rect fill="#84A1AE" height="70" rx="15" width="70" x="3565" y="-535" />
<rect fill="#84A1AE" height="70" rx="15" width="70" x="3565" y="-635" />
<rect fill="#84A1AE" height="70" rx="15" width="70" x="3565" y="-2435" />
<rect fill="#84A1AE" height="70" rx="15" width="70" x="3565" y="-3235" />
<rect fill="#84A1AE" height="70" rx="15" width="70" x="3565" y="-3835" />
<rect fill="#84A1AE" height="70" rx="15" width="70" x="3665" y="-535" />
<rect fill="#84A1AE" height="70" rx="15" width="70" x="3665" y="-2135" />
<rect fill="#84A1AE" height="70" rx="15" width="70" x="3665" y="-2835" />
<rect fill="#84A1AE" height="70" rx="15" width="70" x="3665" y="-3135" />
<rect fill="#84A1AE" height="70" rx="15" width="70" x="3665" y="-3735" />
<rect fill="#84A1AE" height="70" rx="15" width="70" x="3665" y="-3835" />
<rect fill="#84A1AE" height="70" rx="15" width="70" x="3765" y="-535" />
<rect fill="#84A1AE" height="70" rx="15" width="70" x="3765" y="-635" />
<rect fill="#84A1AE" height="70" rx="15" width="70" x="3765" y="-735" />
<rect fill="#84A1AE" height="70" rx="15" width="70" x="3765" y="-835" />
<rect fill="#84A1AE" height="70" rx="15" width="70" x="3765" y="-935" />
<rect fill="#84A1AE" height="70" rx="15" width="70" x="3765" y="-1035" />
<rect fill="#84A1AE" height="70" rx="15" width="70" x="3765" y="-1135" />
<rect fill="#84A1AE" height="70" rx="15" width="70" x="3765" y="-1235" />
<rect fill="#84A1AE" height="70" rx="15" width="70" x="3765" y="-1335" />
<rect fill="#84A1AE" height="70" rx="15" width="70" x="3765" y="-1435" />
<rect fill="#84A1AE" height="70" rx="15" width="70" x="3765" y="-1535" />
<rect fill="#84A1AE" height="70" rx="15" width="70" x="3765" y="-1635" />
<rect fill="#84A1AE" height="70" rx="15" width="70" x="3765" y="-1735" />
<rect fill="#84A1AE" height="70" rx="15" width="70" x="3765" y="-1835" />
<rect fill="#84A1AE" height="70" rx="15" width="70" x="3765" y="-1935" />
<rect fill="#84A1AE" height="70" rx="15" width="70" x="3765" y="-2035" />
<rect fill="#84A1AE" height="70" rx="15" width="70" x="3765" y="-2135" />
<rect fill="#84A1AE" height="70" rx="15" width="70" x="3765" y="-2235" />
<rect fill="#84A1AE" height="70" rx="15" width="70" x="3765" y="-2335" />
<rect fill="#84A1AE" height="70" rx="15" width="70" x="3765" y="-2435" />
<rect fill="#84A1AE" height="70" rx="15" width="70" x="3765" y="-2535" />
<rect fill="#84A1AE" height="70" rx="15" width="70" x="3765" y="-2635" />
<rect fill="#84A1AE" height="70" rx="15" width="70" x="3765" y="-2735" />
<rect fill="#84A1AE" height="70" rx="15" width="70" x="3765" y="-2835" />
<rect fill="#84A1AE" height="70" rx="15" width="70" x="3765" y="-2935" />
<rect fill="#84A1AE" height="70" rx="15" width="70" x="3765" y="-3035" />
<rect fill="#84A1AE" height="70" rx="15" width="70" x="3765" y="-3135" />
<rect fill="#84A1AE" height="70" rx="15" width="70" x="3765" y="-3235" />
<rect fill="#84A1AE" height="70" rx="15" width="70" x="3765" y="-3335" />
<rect fill="#84A1AE" height="70" rx="15" width="70" x="3765" y="-3435" />
<rect fill="#84A1AE" height="70" rx="15" width="70" x="3765" y="-3535" />
<rect fill="#84A1AE" height="70" rx="15" width="70" x="3765" y="-3635" />
<rect fill="#84A1AE" height="70" rx="15" width="70" x="3765" y="-3735" />
<rect fill="#84A1AE" height="70" rx="15" width="70" x="3765" y="-3835" />
<circle cx="2500" cy="-1400" fill="#c1433c" r="35"> <animate attributeName="cy" dur="107.52000000000001s" keyTimes="0.0;0.0025974026;0.0051948052;0.0077922078;0.0103896104;0.012987013;0.0155844156;0.0181818182;0.0207792208;0.0233766234;0.025974026;0.0285714286;0.0311688312;0.0337662338;0.0363636364;0.038961039;0.0415584416;0.0441558442;0.0467532468;0.0493506494;0.0519480519;0.1090909091;0.1116883117;0.1142857143;0.1168831169;0.1272727273;0.1298701299;0.1324675325;0.1350649351;0.1376623377;0.1402597403;0.1428571429;0.1454545455;0.1480519481;0.1506493506;0.1532467532;0.1558441558;0.1584415584;0.161038961;0.1636363636;0.1662337662;0.1688311688;0.1714285714;0.174025974;0.1766233766;0.1792207792;0.1818181818;0.1844155844;0.187012987;0.1896103896;0.1922077922;0.1948051948;0.1974025974;0.2;0.2025974026;0.2051948052;0.2077922078;0.2103896104;0.212987013;0.2207792208;0.2233766234;0.225974026;0.2285714286;0.2311688312;0.2337662338;0.2519480519;0.2545454545;0.2571428571;0.2597402597;0.2623376623;0.2649350649;0.2805194805;0.2831168831;0.2857142857;0.2909090909;0.2935064935;0.2961038961;0.3428571429;0.3454545455;0.3480519481;0.3506493506;0.3532467532;0.3558441558;0.3584415584;0.361038961;0.3766233766;0.3792207792;0.3818181818;0.3844155844;0.387012987;0.4441558442;0.4467532468;0.4519480519;0.4545454545;0.4571428571;0.4597402597;0.4701298701;0.4727272727;0.4753246753;0.4779220779;0.4961038961;0.4987012987;0.5012987013;0.5038961039;0.5064935065;0.5142857143;0.5168831169;0.5194805195;0.5246753247;0.5272727273;0.5298701299;0.5480519481;0.5506493506;0.5532467532;0.5558441558;0.5584415584;0.561038961;0.5636363636;0.5662337662;0.5688311688;0.5714285714;0.574025974;0.5766233766;0.5792207792;0.587012987;0.5896103896;0.6649350649;0.6675324675;0.6701298701;0.6727272727;0.6753246753;0.6779220779;0.6805194805;0.6831168831;0.6857142857;0.6883116883;0.6909090909;0.6935064935;0.6961038961;0.6987012987;0.7012987013;0.7038961039;0.7064935065;0.7090909091;0.7116883117;0.7142857143;0.7168831169;0.7194805195;0.7220779221;0.7246753247;0.7272727273;0.7298701299;0.7324675325;0.7350649351;0.7376623377;0.7402597403;0.7428571429;0.7454545455;0.7480519481;0.7506493506;0.7558441558;0.7584415584;0.761038961;0.7636363636;0.7662337662;0.7688311688;0.7714285714;0.774025974;0.7766233766;0.7792207792;0.7818181818;0.7844155844;0.787012987;0.7896103896;0.7922077922;0.7948051948;0.7974025974;0.8;0.8025974026;0.8051948052;0.8077922078;0.8103896104;0.812987013;0.8155844156;0.8181818182;0.8207792208;0.8233766234;0.825974026;0.8285714286;0.8311688312;0.8337662338;0.8363636364;0.838961039;0.8701298701;0.8727272727;0.9116883117;0.9142857143;0.9506493506;0.9532467532;1.0" repeatCount="indefinite" values="-1400;-1400;-1400;-1500;-1600;-1700;-1800;-1900;-2000;-2100;-2200;-2300;-2400;-2400;-2500;-2600;-2600;-2700;-2800;-2900;-3000;-3000;-2900;-2800;-2700;-2700;-2600;-2500;-2400;-2300;-2200;-2100;-2000;-1900;-1800;-1700;-1600;-1500;-1400;-1300;-1200;-1100;-1200;-1300;-1400;-1500;-1600;-1700;-1800;-1900;-2000;-2100;-2200;-2300;-2400;-2500;-2600;-2600;-2700;-2700;-2800;-2900;-3000;-3100;-3200;-3200;-3100;-3000;-2900;-2800;-2700;-2700;-2800;-2900;-2900;-3000;-3100;-3100;-3200;-3200;-3300;-3300;-3400;-3400;-3500;-3500;-3400;-3300;-3400;-3500;-3500;-3400;-3400;-3300;-3300;-3200;-3200;-3300;-3300;-3400;-3400;-3300;-3200;-3200;-3100;-3100;-3000;-2900;-2900;-2800;-2700;-2700;-2600;-2500;-2600;-2700;-2800;-2900;-3000;-3100;-3200;-3300;-3400;-3500;-3500;-3600;-3600;-3500;-3400;-3300;-3200;-3100;-3000;-2900;-2800;-2700;-2600;-2600;-2500;-2400;-2400;-2300;-2200;-2100;-2000;-1900;-1800;-1700;-1600;-1500;-1400;-1300;-1200;-1100;-1000;-900;-800;-800;-700;-600;-600;-700;-800;-800;-900;-1000;-1100;-1200;-1300;-1400;-1500;-1600;-1700;-1800;-1900;-2000;-2100;-2200;-2300;-2400;-2400;-2500;-2600;-2600;-2700;-2800;-2900;-3000;-3100;-3200;-3300;-3400;-3500;-3500;-3600;-3600;-3700;-3700;-3600;-3600"/>
<animate attributeName="cx" dur="107.52000000000001s" keyTimes="0.0;0.0025974026;0.0051948052;0.0311688312;0.0337662338;0.038961039;0.0415584416;0.0519480519;0.0545454545;0.0571428571;0.0597402597;0.0623376623;0.0649350649;0.0675324675;0.0701298701;0.0727272727;0.0753246753;0.0779220779;0.0805194805;0.0831168831;0.0857142857;0.0883116883;0.0909090909;0.0935064935;0.0961038961;0.0987012987;0.1012987013;0.1038961039;0.1064935065;0.1090909091;0.1168831169;0.1194805195;0.1220779221;0.1246753247;0.1272727273;0.2077922078;0.2103896104;0.212987013;0.2155844156;0.2181818182;0.2207792208;0.2337662338;0.2363636364;0.238961039;0.2415584416;0.2441558442;0.2467532468;0.2493506494;0.2519480519;0.2649350649;0.2675324675;0.2701298701;0.2727272727;0.2753246753;0.2779220779;0.2805194805;0.2857142857;0.2883116883;0.2909090909;0.2961038961;0.2987012987;0.3012987013;0.3038961039;0.3064935065;0.3090909091;0.3116883117;0.3142857143;0.3168831169;0.3194805195;0.3220779221;0.3246753247;0.3272727273;0.3298701299;0.3324675325;0.3350649351;0.3376623377;0.3402597403;0.3428571429;0.3454545455;0.3480519481;0.3506493506;0.3532467532;0.3558441558;0.3584415584;0.361038961;0.3636363636;0.3662337662;0.3688311688;0.3714285714;0.374025974;0.3766233766;0.387012987;0.3896103896;0.3922077922;0.3948051948;0.3974025974;0.4;0.4025974026;0.4051948052;0.4077922078;0.4103896104;0.412987013;0.4155844156;0.4181818182;0.4207792208;0.4233766234;0.425974026;0.4285714286;0.4311688312;0.4337662338;0.4363636364;0.438961039;0.4415584416;0.4441558442;0.4467532468;0.4493506494;0.4519480519;0.4545454545;0.4571428571;0.4597402597;0.4623376623;0.4649350649;0.4675324675;0.4701298701;0.4727272727;0.4753246753;0.4779220779;0.4805194805;0.4831168831;0.4857142857;0.4883116883;0.4909090909;0.4935064935;0.4961038961;0.5012987013;0.5038961039;0.5064935065;0.5090909091;0.5116883117;0.5142857143;0.5194805195;0.5220779221;0.5246753247;0.5298701299;0.5324675325;0.5350649351;0.5376623377;0.5402597403;0.5428571429;0.5454545455;0.5480519481;0.5792207792;0.5818181818;0.5844155844;0.587012987;0.5896103896;0.5922077922;0.5948051948;0.5974025974;0.6;0.6025974026;0.6051948052;0.6077922078;0.6103896104;0.612987013;0.6155844156;0.6181818182;0.6207792208;0.6233766234;0.625974026;0.6285714286;0.6311688312;0.6337662338;0.6363636364;0.638961039;0.6415584416;0.6441558442;0.6467532468;0.6493506494;0.6519480519;0.6545454545;0.6571428571;0.6597402597;0.6623376623;0.6649350649;0.6909090909;0.6935064935;0.6987012987;0.7012987013;0.7428571429;0.7454545455;0.7506493506;0.7532467532;0.7558441558;0.761038961;0.7636363636;0.8051948052;0.8077922078;0.812987013;0.8155844156;0.838961039;0.8415584416;0.8441558442;0.8467532468;0.8493506494;0.8519480519;0.8545454545;0.8571428571;0.8597402597;0.8623376623;0.8649350649;0.8675324675;0.8701298701;0.8727272727;0.8753246753;0.8779220779;0.8805194805;0.8831168831;0.8857142857;0.8883116883;0.8909090909;0.8935064935;0.8961038961;0.8987012987;0.9012987013;0.9038961039;0.9064935065;0.9090909091;0.9116883117;0.9142857143;0.9168831169;0.9194805195;0.9220779221;0.9246753247;0.9272727273;0.9298701299;0.9324675325;0.9350649351;0.9376623377;0.9402597403;0.9428571429;0.9454545455;0.9480519481;0.9506493506;0.9532467532;0.9558441558;0.9584415584;0.961038961;0.9636363636;0.9662337662;0.9688311688;0.9714285714;0.974025974;0.9766233766;0.9792207792;0.9818181818;0.9844155844;0.987012987;0.9896103896;0.9922077922;0.9948051948;0.9974025974;1.0" repeatCount="indefinite" values="2500;2500;2600;2600;2700;2700;2800;2800;2900;3000;3100;3200;3300;3400;3500;3400;3300;3200;3100;3000;2900;2800;2700;2600;2500;2400;2300;2200;2100;2000;2000;1900;1800;1700;1600;1600;1500;1500;1400;1300;1200;1200;1300;1400;1300;1200;1100;1000;900;900;1000;1100;1200;1300;1400;1500;1500;1600;1700;1700;1800;1900;2000;2100;2200;2300;2400;2500;2600;2500;2400;2300;2200;2100;2000;1900;1800;1700;1700;1600;1600;1500;1500;1400;1400;1300;1200;1100;1000;900;800;800;900;1000;1100;1200;1300;1400;1500;1600;1700;1800;1900;2000;2100;2200;2300;2400;2500;2600;2700;2800;2900;3000;3000;3100;3200;3200;3300;3300;3200;3100;3000;2900;2900;2800;2800;2700;2600;2500;2400;2300;2200;2100;2100;2000;2000;1900;1800;1700;1700;1600;1500;1500;1400;1300;1200;1100;1000;900;800;800;900;1000;1100;1100;1200;1300;1400;1500;1600;1700;1800;1900;2000;2100;2200;2300;2400;2500;2600;2700;2800;2900;3000;3100;3200;3300;3400;3300;3200;3100;3000;2900;2800;2800;2700;2700;2600;2600;2500;2500;2600;2500;2500;2600;2600;2500;2500;2600;2600;2500;2400;2300;2200;2100;2000;1900;1800;1700;1600;1500;1400;1400;1500;1600;1700;1800;1900;2000;2100;2200;2300;2400;2500;2600;2700;2800;2900;2900;3000;3100;3200;3300;3400;3500;3600;3500;3400;3300;3200;3100;3000;2900;2900;2800;2700;2600;2500;2400;2300;2200;2100;2000;1900;1800;1700;1600;1500;1400;1300;1200;1200"/>
<animate attributeName="visibility" dur="107.52000000000001s" keyTimes="0.0;0.0025974026;1.0" repeatCount="indefinite" values="visible;visible;visible"/> </circle>
<circle cx="3000" cy="-1900" fill="#2e6f9e" r="35"> <animate attributeName="cy" dur="107.52000000000001s" keyTimes="0.0;0.0025974026;0.0051948052;0.0077922078;0.0103896104;0.012987013;0.0155844156;0.0181818182;0.0207792208;0.0233766234;0.0311688312;0.0337662338;0.0363636364;0.038961039;0.0415584416;0.0441558442;0.0467532468;0.0493506494;0.0519480519;0.0545454545;0.0571428571;0.0831168831;0.0857142857;0.1636363636;0.1662337662;0.1688311688;0.1714285714;0.174025974;0.1766233766;0.1896103896;0.1922077922;0.1948051948;0.1974025974;0.2;0.2025974026;0.2051948052;0.2077922078;0.2103896104;0.212987013;0.2155844156;0.2181818182;0.2207792208;0.2233766234;0.225974026;0.2285714286;0.2311688312;0.2337662338;0.2363636364;0.238961039;0.2415584416;0.2441558442;0.2467532468;0.2493506494;0.2519480519;0.2545454545;0.2571428571;0.2597402597;0.2623376623;0.2649350649;0.2675324675;0.2701298701;0.2779220779;0.2805194805;0.2831168831;0.2857142857;0.2883116883;0.2909090909;0.2935064935;0.2961038961;0.2987012987;0.3012987013;0.3272727273;0.3298701299;0.3324675325;0.3350649351;0.3376623377;0.3402597403;0.3428571429;0.3480519481;0.3506493506;0.3532467532;0.3558441558;0.3584415584;0.3688311688;0.3714285714;0.412987013;0.4155844156;0.4181818182;0.4207792208;0.425974026;0.4285714286;0.4311688312;0.4337662338;0.4363636364;0.438961039;0.4441558442;0.4467532468;0.4493506494;0.4519480519;0.4545454545;0.4571428571;0.4597402597;0.4623376623;0.4649350649;0.4675324675;0.4701298701;0.4727272727;0.4753246753;0.4779220779;0.4805194805;0.4831168831;0.4857142857;0.4883116883;0.4909090909;0.4935064935;0.4961038961;0.4987012987;0.5012987013;0.5038961039;0.5064935065;0.5090909091;0.5116883117;0.5142857143;0.5194805195;0.5220779221;0.5272727273;0.5298701299;0.5324675325;0.5350649351;0.5376623377;0.5402597403;0.5428571429;0.5454545455;0.5480519481;0.561038961;0.5636363636;0.5662337662;0.5688311688;0.5714285714;0.574025974;0.5766233766;0.5792207792;0.5818181818;0.5844155844;0.5922077922;0.5948051948;0.5974025974;0.6051948052;0.6077922078;0.6103896104;0.612987013;0.6155844156;0.6233766234;0.625974026;0.6337662338;0.6363636364;0.6415584416;0.6441558442;0.6519480519;0.6545454545;0.6571428571;0.6597402597;0.6623376623;0.6805194805;0.6831168831;0.6857142857;0.6883116883;0.7090909091;0.7116883117;0.7142857143;0.7168831169;0.7194805195;0.7220779221;0.7246753247;0.7272727273;0.7298701299;0.7324675325;0.7350649351;0.7376623377;0.7402597403;0.7428571429;0.7454545455;0.7480519481;0.7506493506;0.7532467532;0.7558441558;0.7584415584;0.761038961;0.7714285714;0.774025974;0.7766233766;0.7792207792;0.7818181818;0.7844155844;0.787012987;0.7896103896;0.7922077922;0.7948051948;0.7974025974;0.8;0.8025974026;0.8051948052;0.8077922078;0.8103896104;0.812987013;0.8233766234;0.825974026;0.8285714286;0.8311688312;0.8337662338;0.8363636364;0.838961039;0.8415584416;0.8701298701;0.8727272727;0.8779220779;0.8805194805;0.8831168831;0.8857142857;0.8883116883;0.8909090909;0.8935064935;0.8961038961;0.8987012987;0.9012987013;0.9038961039;0.9064935065;0.9090909091;0.9116883117;0.9142857143;0.9168831169;0.9194805195;0.9220779221;0.9246753247;0.9272727273;0.9298701299;0.9324675325;0.9506493506;0.9532467532;0.961038961;0.9636363636;0.9662337662;0.9688311688;0.9714285714;0.974025974;0.9766233766;0.9792207792;0.9818181818;0.9844155844;0.987012987;0.9896103896;0.9922077922;0.9948051948;0.9974025974;1.0" repeatCount="indefinite" values="-1900;-1900;-2000;-2100;-2200;-2300;-2400;-2500;-2500;-2600;-2600;-2700;-2700;-2800;-2900;-3000;-3100;-3200;-3300;-3300;-3400;-3400;-3500;-3500;-3600;-3600;-3500;-3500;-3400;-3400;-3300;-3200;-3100;-3000;-2900;-2800;-2700;-2700;-2600;-2600;-2500;-2400;-2300;-2300;-2200;-2100;-2100;-2000;-2000;-2100;-2000;-1900;-1800;-1700;-1600;-1500;-1400;-1300;-1200;-1200;-1300;-1300;-1400;-1400;-1300;-1300;-1400;-1500;-1600;-1700;-1800;-1800;-1900;-2000;-2000;-2100;-2100;-2200;-2200;-2100;-2200;-2200;-2300;-2300;-2200;-2200;-2100;-2200;-2300;-2300;-2400;-2500;-2400;-2300;-2200;-2200;-2100;-2000;-2000;-1900;-1800;-1700;-1800;-1700;-1600;-1500;-1400;-1400;-1300;-1300;-1200;-1100;-1200;-1300;-1200;-1300;-1400;-1500;-1600;-1700;-1800;-1900;-2000;-2000;-1900;-1900;-1800;-1700;-1600;-1500;-1500;-1600;-1700;-1800;-1800;-1900;-2000;-2100;-2200;-2300;-2400;-2500;-2600;-2700;-2700;-2800;-2700;-2700;-2800;-2900;-3000;-3100;-3100;-3200;-3200;-3300;-3300;-3400;-3400;-3500;-3400;-3500;-3600;-3600;-3700;-3700;-3600;-3600;-3500;-3400;-3300;-3200;-3100;-3100;-3000;-2900;-2800;-2700;-2600;-2500;-2400;-2300;-2200;-2100;-2000;-1900;-1800;-1700;-1700;-1600;-1500;-1500;-1400;-1400;-1300;-1200;-1100;-1000;-900;-800;-700;-600;-600;-700;-800;-800;-900;-1000;-1100;-1200;-1300;-1400;-1500;-1500;-1600;-1600;-1700;-1700;-1800;-1900;-2000;-2100;-2200;-2300;-2400;-2400;-2500;-2600;-2600;-2700;-2800;-2900;-3000;-3100;-3200;-3300;-3400;-3400;-3300;-3300;-3200;-3100;-3000;-2900;-2800;-2700;-2600;-2500;-2400;-2300;-2300;-2400;-2300;-2200;-2200"/>
<animate attributeName="cx" dur="107.52000000000001s" keyTimes="0.0;0.0025974026;0.0181818182;0.0207792208;0.0233766234;0.025974026;0.0285714286;0.0311688312;0.0519480519;0.0545454545;0.0571428571;0.0597402597;0.0623376623;0.0649350649;0.0675324675;0.0701298701;0.0727272727;0.0753246753;0.0779220779;0.0805194805;0.0831168831;0.0857142857;0.0883116883;0.0909090909;0.0935064935;0.0961038961;0.0987012987;0.1012987013;0.1038961039;0.1064935065;0.1090909091;0.1116883117;0.1142857143;0.1168831169;0.1194805195;0.1220779221;0.1246753247;0.1272727273;0.1298701299;0.1324675325;0.1350649351;0.1376623377;0.1402597403;0.1428571429;0.1454545455;0.1480519481;0.1506493506;0.1532467532;0.1558441558;0.1584415584;0.161038961;0.1636363636;0.1662337662;0.1688311688;0.1714285714;0.174025974;0.1766233766;0.1792207792;0.1818181818;0.1844155844;0.187012987;0.1896103896;0.212987013;0.2155844156;0.2233766234;0.225974026;0.2311688312;0.2337662338;0.2363636364;0.238961039;0.2649350649;0.2675324675;0.2701298701;0.2727272727;0.2753246753;0.2779220779;0.2805194805;0.2831168831;0.2857142857;0.2883116883;0.3012987013;0.3038961039;0.3064935065;0.3090909091;0.3116883117;0.3142857143;0.3168831169;0.3194805195;0.3220779221;0.3246753247;0.3272727273;0.3324675325;0.3350649351;0.3376623377;0.3402597403;0.3428571429;0.3454545455;0.3480519481;0.3532467532;0.3558441558;0.3584415584;0.361038961;0.3636363636;0.3662337662;0.3688311688;0.3714285714;0.374025974;0.3766233766;0.3792207792;0.3818181818;0.3844155844;0.387012987;0.3896103896;0.3922077922;0.3948051948;0.3974025974;0.4;0.4025974026;0.4051948052;0.4077922078;0.4103896104;0.412987013;0.4207792208;0.4233766234;0.425974026;0.438961039;0.4415584416;0.4441558442;0.4493506494;0.4519480519;0.4727272727;0.4753246753;0.4779220779;0.4805194805;0.5142857143;0.5168831169;0.5194805195;0.5220779221;0.5246753247;0.5272727273;0.5480519481;0.5506493506;0.5532467532;0.5558441558;0.5584415584;0.561038961;0.5844155844;0.587012987;0.5896103896;0.5922077922;0.5974025974;0.6;0.6025974026;0.6051948052;0.6155844156;0.6181818182;0.6207792208;0.6233766234;0.625974026;0.6285714286;0.6311688312;0.6337662338;0.6363636364;0.638961039;0.6415584416;0.6441558442;0.6467532468;0.6493506494;0.6519480519;0.6623376623;0.6649350649;0.6675324675;0.6701298701;0.6727272727;0.6753246753;0.6779220779;0.6805194805;0.6831168831;0.6857142857;0.6883116883;0.6909090909;0.6935064935;0.6961038961;0.6987012987;0.7012987013;0.7038961039;0.7064935065;0.7090909091;0.7220779221;0.7246753247;0.761038961;0.7636363636;0.7662337662;0.7688311688;0.7714285714;0.7766233766;0.7792207792;0.7818181818;0.7844155844;0.8051948052;0.8077922078;0.812987013;0.8155844156;0.8181818182;0.8207792208;0.8233766234;0.8415584416;0.8441558442;0.8467532468;0.8493506494;0.8519480519;0.8545454545;0.8571428571;0.8597402597;0.8623376623;0.8649350649;0.8675324675;0.8701298701;0.8753246753;0.8779220779;0.8805194805;0.8831168831;0.9012987013;0.9038961039;0.9090909091;0.9116883117;0.9324675325;0.9350649351;0.9376623377;0.9402597403;0.9428571429;0.9454545455;0.9480519481;0.9532467532;0.9558441558;0.9584415584;0.961038961;0.987012987;0.9896103896;1.0" repeatCount="indefinite" values="3000;3000;3000;2900;2900;2800;2700;2600;2600;2700;2700;2800;2800;2900;2900;3000;3100;3200;3300;3400;3500;3500;3400;3300;3200;3100;3000;2900;2800;2800;2700;2600;2500;2400;2300;2200;2100;2000;1900;1800;1700;1600;1500;1600;1700;1800;1900;2000;2100;2200;2300;2400;2400;2500;2500;2600;2600;2700;2800;2900;3000;3100;3100;3200;3200;3100;3100;3200;3200;3100;3100;3200;3200;3300;3400;3500;3500;3600;3600;3700;3700;3600;3500;3400;3500;3400;3300;3200;3100;3000;2900;2900;2800;2800;2700;2700;2600;2500;2500;2400;2400;2300;2400;2300;2200;2200;2100;2000;1900;1800;1900;1800;1700;1600;1500;1400;1300;1400;1300;1200;1100;1000;1000;900;800;800;900;1000;1000;900;900;1000;1000;900;900;1000;1100;1100;1200;1300;1300;1400;1500;1600;1700;1800;1800;1700;1600;1500;1500;1400;1300;1200;1200;1300;1200;1100;1100;1000;900;800;800;700;600;600;700;600;700;700;800;900;1000;1100;1200;1300;1400;1400;1500;1500;1600;1700;1700;1800;1900;2000;1900;1800;1800;1900;1900;1800;1900;2000;1900;1900;2000;2000;2100;2100;2200;2200;2300;2400;2500;2600;2600;2700;2800;2900;3000;3100;3200;3100;3200;3300;3400;3300;3300;3200;3200;3100;3100;3200;3200;3100;3100;3200;3100;3000;2900;2800;2700;2700;2600;2500;2400;2400;2300;2300"/>
<animate attributeName="visibility" dur="107.52000000000001s" keyTimes="0.0;0.0025974026;1.0" repeatCount="indefinite" values="visible;visible;visible"/> </circle>
<circle cx="3500" cy="-3000" fill="none" r="35" stroke="#c1433c" stroke-width="10"> <animate attributeName="cy" dur="107.52000000000001s" keyTimes="0.0;0.0025974026;0.0675324675;0.0701298701;0.1142857143;0.1168831169;0.1662337662;0.1688311688;0.2363636364;0.238961039;0.2597402597;0.2623376623;0.3168831169;0.3194805195;0.3792207792;0.3818181818;0.438961039;0.4415584416;0.4571428571;0.4597402597;0.4753246753;0.4779220779;0.5506493506;0.5532467532;0.5844155844;0.587012987;0.6467532468;0.6493506494;0.7506493506;0.7532467532;0.8675324675;0.8701298701;0.9298701299;0.9324675325;1.0" repeatCount="indefinite" values="-3000;-3000;-3000;-2700;-2700;-1100;-1100;-3200;-3200;-2800;-2800;-3100;-3100;-3300;-3300;-3500;-3500;-3200;-3200;-3400;-3400;-2500;-2500;-3500;-3500;-3600;-3600;-600;-600;-3500;-3500;-3700;-3700;-3300;-3300"/>
<animate attributeName="cx" dur="107.52000000000001s" keyTimes="0.0;0.0025974026;0.0675324675;0.0701298701;0.1142857143;0.1168831169;0.1662337662;0.1688311688;0.2363636364;0.238961039;0.2597402597;0.2623376623;0.3168831169;0.3194805195;0.3792207792;0.3818181818;0.438961039;0.4415584416;0.4571428571;0.4597402597;0.4753246753;0.4779220779;0.5506493506;0.5532467532;0.5844155844;0.587012987;0.6467532468;0.6493506494;0.8363636364;0.838961039;0.8675324675;0.8701298701;0.9298701299;0.9324675325;1.0" repeatCount="indefinite" values="3500;3500;3500;2000;2000;1600;1600;1400;1400;900;900;2600;2600;800;800;2900;2900;3300;3300;2800;2800;800;800;1100;1100;3400;3400;2600;2600;1400;1400;3600;3600;800;800"/>
<animate attributeName="visibility" dur="107.52000000000001s" keyTimes="0.0;0.0025974026;1.0" repeatCount="indefinite" values="visible;visible;visible"/> </circle>
<circle cx="2600" cy="-2600" fill="none" r="35" stroke="#2e6f9e" stroke-width="10"> <animate attributeName="cy" dur="107.52000000000001s" keyTimes="0.0;0.0025974026;0.0285714286;0.0311688312;0.0805194805;0.0831168831;0.1376623377;0.1402597403;0.2103896104;0.212987013;0.2207792208;0.2233766234;0.2623376623;0.2649350649;0.2857142857;0.2883116883;0.3246753247;0.3272727273;0.4285714286;0.4311688312;0.4831168831;0.4857142857;0.5168831169;0.5194805195;0.5350649351;0.5376623377;0.5584415584;0.561038961;0.638961039;0.6415584416;0.7012987013;0.7038961039;0.8077922078;0.8103896104;0.8649350649;0.8675324675;0.8805194805;0.8831168831;0.9324675325;0.9350649351;1.0" repeatCount="indefinite" values="-2600;-2600;-2600;-3400;-3400;-3500;-3500;-2600;-2600;-2300;-2300;-1200;-1200;-1300;-1300;-1800;-1800;-2500;-2500;-1100;-1100;-2000;-2000;-1500;-1500;-1800;-1800;-3300;-3300;-3600;-3600;-700;-700;-1500;-1500;-1700;-1700;-3400;-3400;-1200;-1200"/>
<animate attributeName="cx" dur="107.52000000000001s" keyTimes="0.0;0.0025974026;0.0285714286;0.0311688312;0.0805194805;0.0831168831;0.1376623377;0.1402597403;0.2103896104;0.212987013;0.2207792208;0.2233766234;0.2623376623;0.2649350649;0.2857142857;0.2883116883;0.3246753247;0.3272727273;0.4285714286;0.4311688312;0.4831168831;0.4857142857;0.5168831169;0.5194805195;0.5350649351;0.5376623377;0.5584415584;0.561038961;0.638961039;0.6415584416;0.7012987013;0.7038961039;0.8077922078;0.8103896104;0.8649350649;0.8675324675;0.8805194805;0.8831168831;0.9324675325;0.9350649351;1.0" repeatCount="indefinite" values="2600;2600;2600;3500;3500;1500;1500;3100;3100;3200;3200;3100;3100;3700;3700;2900;2900;800;800;900;900;1100;1100;1300;1300;1800;1800;600;600;2000;2000;2200;2200;3400;3400;3100;3100;3200;3200;2300;2300"/>
<animate attributeName="visibility" dur="107.52000000000001s" keyTimes="0.0;0.0025974026;1.0" repeatCount="indefinite" values="visible;visible;visible"/> </circle>
</svg>