<?xml version="1.0" encoding="UTF-8"?>
        <svg xmlns="http://www.w3.org/2000/svg" xmlns:xlink="http://www.w3.org/1999/xlink"
             width="430" height="430" viewBox="0 -4300 4300 4300">

<defs>

</defs>

<rect fill="#84A1AE" height="70" rx="15" width="70" x="465" y="-535" />
<rect fill="#84A1AE" height="70" rx="15" width="70" x="465" y="-635" />
<rect fill="#84A1AE" height="70" rx="15" width="70" x="465" y="-735" />
<rect fill="#84A1AE" height="70" rx="15" width="70" x="465" y="-835" />
<rect fill="#84A1AE" height="70" rx="15" width="70" x="465" y="-935" />
<rect fill="#84A1AE" height="70" rx="15" width="70" x="465" y="-1035" />
<rect fill="#84A1AE" height="70" rx="15" width="70" x="465" y="-1135" />
<rect fill="#84A1AE" height="70" rx="15" width="70" x="465" y="-1235" />
<rect fill="#84A1AE" height="70" rx="15" width="70" x="465" y="-1335" />
<rect fill="#84A1AE" height="70" rx="15" width="70" x="465" y="-1435" />
<rect fill="#84A1AE" height="70" rx="15" width="70" x="465" y="-1535" />
<rect fill="#84A1AE" height="70" rx="15" width="70" x="465" y="-1635" />
<rect fill="#84A1AE" height="70" rx="15" width="70" x="465" y="-1735" />
<rect fill="#84A1AE" height="70" rx="15" width="70" x="465" y="-1835" />
<rect fill="#84A1AE" height="70" rx="15" width="70" x="465" y="-1935" />
<rect fill="#84A1AE" height="70" rx="15" width="70" x="465" y="-2035" />
<rect fill="#84A1AE" height="70" rx="15" width="70" x="465" y="-2135" />
<rect fill="#84A1AE" height="70" rx="15" width="70" x="465" y="-2235" />
<rect fill="#84A1AE" height="70" rx="15" width="70" x="465" y="-2335" />
<rect fill="#84A1AE" height="70" rx="15" width="70" x="465" y="-2435" />
<rect fill="#84A1AE" height="70" rx="15" width="70" x="465" y="-2535" />
<rect fill="#84A1AE" height="70" rx="15" width="70" x="465" y="-2635" />
<rect fill="#84A1AE" height="70" rx="15" width="70" x="465" y="-2735" />
<rect fill="#84A1AE" height="70" rx="15" width="70" x="465" y="-2835" />
<rect fill="#84A1AE" height="70" rx="15" width="70" x="465" y="-2935" />
<rect fill="#84A1AE" height="70" rx="15" width="70" x="465" y="-3035" />
<rect fill="#84A1AE" height="70" rx="15" width="70" x="465" y="-3135" />
<rect fill="#84A1AE" height="70" rx="15" width="70" x="465" y="-3235" />
<rect fill="#84A1AE" height="70" rx="15" width="70" x="465" y="-3335" />
<rect fill="#84A1AE" height="70" rx="15" width="70" x="465" y="-3435" />
<rect fill="#84A1AE" height="70" rx="15" width="70" x="465" y="-3535" />
<rect fill="#84A1AE" height="70" rx="15" width="70" x="465" y="-3635" />
<rect fill="#84A1AE" height="70" rx="15" width="70" x="465" y="-3735" />
<rect fill="#84A1AE" height="70" rx="15" width="70" x="465" y="-3835" />
<rect fill="#84A1AE" height="70" rx="15" width="70" x="565" y="-535" />
<rect fill="#84A1AE" height="70" rx="15" width="70" x="565" y="-1635" />
<rect fill="#84A1AE" height="70" rx="15" width="70" x="565" y="-1935" />
<rect fill="#84A1AE" height="70" rx="15" width="70" x="565" y="-2735" />
<rect fill="#84A1AE" height="70" rx="15" width="70" x="565" y="-3835" />
<rect fill="#84A1AE" height="70" rx="15" width="70" x="665" y="-535" />
<rect fill="#84A1AE" height="70" rx="15" width="70" x="665" y="-1035" />
<rect fill="#84A1AE" height="70" rx="15" width="70" x="665" y="-2535" />
<rect fill="#84A1AE" height="70" rx="15" width="70" x="665" y="-3035" />
<rect fill="#84A1AE" height="70" rx="15" width="70" x="665" y="-3235" />
<rect fill="#84A1AE" height="70" rx="15" width="70" x="665" y="-3835" />
<rect fill="#84A1AE" height="70" rx="15" width="70" x="765" y="-535" />
<rect fill="#84A1AE" height="70" rx="15" width="70" x="765" y="-635" />
<rect fill="#84A1AE" height="70" rx="15" width="70" x="765" y="-3835" />
<rect fill="#84A1AE" height="70" rx="15" width="70" x="865" y="-535" />
<rect fill="#84A1AE" height="70" rx="15" width="70" x="865" y="-2435" />
<rect fill="#84A1AE" height="70" rx="15" width="70" x="865" y="-2535" />
<rect fill="#84A1AE" height="70" rx="15" width="70" x="865" y="-3335" />
<rect fill="#84A1AE" height="70" rx="15" width="70" x="865" y="-3435" />
<rect fill="#84A1AE" height="70" rx="15" width="70" x="865" y="-3835" />
<rect fill="#84A1AE" height="70" rx="15" width="70" x="965" y="-535" />
<rect fill="#84A1AE" height="70" rx="15" width="70" x="965" y="-735" />
<rect fill="#84A1AE" height="70" rx="15" width="70" x="965" y="-1635" />
<rect fill="#84A1AE" height="70" rx="15" width="70" x="965" y="-1835" />
<rect fill="#84A1AE" height="70" rx="15" width="70" x="965" y="-2835" />
<rect fill="#84A1AE" height="70" rx="15" width="70" x="965" y="-3435" />
<rect fill="#84A1AE" height="70" rx="15" width="70" x="965" y="-3835" />
<rect fill="#84A1AE" height="70" rx="15" width="70" x="1065" y="-535" />
<rect fill="#84A1AE" height="70" rx="15" width="70" x="1065" y="-1135" />
<rect fill="#84A1AE" height="70" rx="15" width="70" x="1065" y="-1835" />
<rect fill="#84A1AE" height="70" rx="15" width="70" x="1065" y="-3735" />
<rect fill="#84A1AE" height="70" rx="15" width="70" x="1065" y="-3835" />
<rect fill="#84A1AE" height="70" rx="15" width="70" x="1165" y="-535" />
<rect fill="#84A1AE" height="70" rx="15" width="70" x="1165" y="-635" />
<rect fill="#84A1AE" height="70" rx="15" width="70" x="1165" y="-735" />
<rect fill="#84A1AE" height="70" rx="15" width="70" x="1165" y="-1535" />
<rect fill="#84A1AE" height="70" rx="15" width="70" x="1165" y="-3835" />
<rect fill="#84A1AE" height="70" rx="15" width="70" x="1265" y="-535" />
<rect fill="#84A1AE" height="70" rx="15" width="70" x="1265" y="-2835" />
<rect fill="#84A1AE" height="70" rx="15" width="70" x="1265" y="-3435" />
<rect fill="#84A1AE" height="70" rx="15" width="70" x="1265" y="-3835" />
<rect fill="#84A1AE" height="70" rx="15" width="70" x="1365" y="-535" />
<rect fill="#84A1AE" height="70" rx="15" width="70" x="1365" y="-835" />
<rect fill="#84A1AE" height="70" rx="15" width="70" x="1365" y="-935" />
<rect fill="#84A1AE" height="70" rx="15" width="70" x="1365" y="-1035" />
<rect fill="#84A1AE" height="70" rx="15" width="70" x="1365" y="-1935" />
<rect fill="#84A1AE" height="70" rx="15" width="70" x="1365" y="-2335" />
<rect fill="#84A1AE" height="70" rx="15" width="70" x="1365" y="-2635" />
<rect fill="#84A1AE" height="70" rx="15" width="70" x="1365" y="-2835" />
<rect fill="#84A1AE" height="70" rx="15" width="70" x="1365" y="-2935" />
<rect fill="#84A1AE" height="70" rx="15" width="70" x="1365" y="-3035" />
<rect fill="#84A1AE" height="70" rx="15" width="70" x="1365" y="-3335" />
<rect fill="#84A1AE" height="70" rx="15" width="70" x="1365" y="-3835" />
<rect fill="#84A1AE" height="70" rx="15" width="70" x="1465" y="-535" />
<rect fill="#84A1AE" height="70" rx="15" width="70" x="1465" y="-1235" />
<rect fill="#84A1AE" height="70" rx="15" width="70" x="1465" y="-1535" />
<rect fill="#84A1AE" height="70" rx="15" width="70" x="1465" y="-2035" />
<rect fill="#84A1AE" height="70" rx="15" width="70" x="1465" y="-3135" />
<rect fill="#84A1AE" height="70" rx="15" width="70" x="1465" y="-3235" />
<rect fill="#84A1AE" height="70" rx="15" width="70" x="1465" y="-3835" />
<rect fill="#84A1AE" height="70" rx="15" width="70" x="1565" y="-535" />
<rect fill="#84A1AE" height="70" rx="15" width="70" x="1565" y="-3035" />
<rect fill="#84A1AE" height="70" rx="15" width="70" x="1565" y="-3835" />
<rect fill="#84A1AE" height="70" rx="15" width="70" x="1665" y="-535" />
<rect fill="#84A1AE" height="70" rx="15" width="70" x="1665" y="-3735" />
<rect fill="#84A1AE" height="70" rx="15" width="70" x="1665" y="-3835" />
<rect fill="#84A1AE" height="70" rx="15" width="70" x="1765" y="-535" />
<rect fill="#84A1AE" height="70" rx="15" width="70" x="1765" y="-1235" />
<rect fill="#84A1AE" height="70" rx="15" width="70" x="1765" y="-3835" />
<rect fill="#84A1AE" height="70" rx="15" width="70" x="1865" y="-535" />
<rect fill="#84A1AE" height="70" rx="15" width="70" x="1865" y="-735" />
<rect fill="#84A1AE" height="70" rx="15" width="70" x="1865" y="-1335" />
<rect fill="#84A1AE" height="70" rx="15" width="70" x="1865" y="-3235" />
<rect fill="#84A1AE" height="70" rx="15" width="70" x="1865" y="-3435" />
<rect fill="#84A1AE" height="70" rx="15" width="70" x="1865" y="-3835" />
<rect fill="#84A1AE" height="70" rx="15" width="70" x="1965" y="-535" />
<rect fill="#84A1AE" height="70" rx="15" width="70" x="1965" y="-635" />
<rect fill="#84A1AE" height="70" rx="15" width="70" x="1965" y="-1835" />
<rect fill="#84A1AE" height="70" rx="15" width="70" x="1965" y="-1935" />
<rect fill="#84A1AE" height="70" rx="15" width="70" x="1965" y="-2135" />
<rect fill="#84A1AE" height="70" rx="15" width="70" x="1965" y="-2335" />
<rect fill="#84A1AE" height="70" rx="15" width="70" x="1965" y="-2435" />
<rect fill="#84A1AE" height="70" rx="15" width="70" x="1965" y="-3335" />
<rect fill="#84A1AE" height="70" rx="15" width="70" x="1965" y="-3835" />
<rect fill="#84A1AE" height="70" rx="15" width="70" x="2065" y="-535" />
<rect fill="#84A1AE" height="70" rx="15" width="70" x="2065" y="-1535" />
<rect fill="#84A1AE" height="70" rx="15" width="70" x="2065" y="-1635" />
<rect fill="#84A1AE" height="70" rx="15" width="70" x="2065" y="-2135" />
<rect fill="#84A1AE" height="70" rx="15" width="70" x="2065" y="-3835" />
<rect fill="#84A1AE" height="70" rx="15" width="70" x="2165" y="-535" />
<rect fill="#84A1AE" height="70" rx="15" width="70" x="2165" y="-935" />
<rect fill="#84A1AE" height="70" rx="15" width="70" x="2165" y="-1335" />
<rect fill="#84A1AE" height="70" rx="15" width="70" x="2165" y="-1835" />
<rect fill="#84A1AE" height="70" rx="15" width="70" x="2165" y="-3835" />
<rect fill="#84A1AE" height="70" rx="15" width="70" x="2265" y="-535" />
<rect fill="#84A1AE" height="70" rx="15" width="70" x="2265" y="-935" />
<rect fill="#84A1AE" height="70" rx="15" width="70" x="2265" y="-1135" />
<rect fill="#84A1AE" height="70" rx="15" width="70" x="2265" y="-2535" />
<rect fill="#84A1AE" height="70" rx="15" width="70" x="2265" y="-3235" />
<rect fill="#84A1AE" height="70" rx="15" width="70" x="2265" y="-3835" />
<rect fill="#84A1AE" height="70" rx="15" width="70" x="2365" y="-535" />
<rect fill="#84A1AE" height="70" rx="15" width="70" x="2365" y="-935" />
<rect fill="#84A1AE" height="70" rx="15" width="70" x="2365" y="-1035" />
<rect fill="#84A1AE" height="70" rx="15" width="70" x="2365" y="-3835" />
<rect fill="#84A1AE" height="70" rx="15" width="70" x="2465" y="-535" />
<rect fill="#84A1AE" height="70" rx="15" width="70" x="2465" y="-935" />
<rect fill="#84A1AE" height="70" rx="15" width="70" x="2465" y="-1535" />
<rect fill="#84A1AE" height="70" rx="15" width="70" x="2465" y="-2335" />
<rect fill="#84A1AE" height="70" rx="15" width="70" x="2465" y="-2735" />
<rect fill="#84A1AE" height="70" rx="15" width="70" x="2465" y="-3835" />
<rect fill="#84A1AE" height="70" rx="15" width="70" x="2565" y="-535" />
<rect fill="#84A1AE" height="70" rx="15" width="70" x="2565" y="-735" />
<rect fill="#84A1AE" height="70" rx="15" width="70" x="2565" y="-2535" />
<rect fill="#84A1AE" height="70" rx="15" width="70" x="2565" y="-3835" />
<rect fill="#84A1AE" height="70" rx="15" width="70" x="2665" y="-535" />
<rect fill="#84A1AE" height="70" rx="15" width="70" x="2665" y="-635" />
<rect fill="#84A1AE" height="70" rx="15" width="70" x="2665" y="-1135" />
<rect fill="#84A1AE" height="70" rx="15" width="70" x="2665" y="-1435" />
<rect fill="#84A1AE" height="70" rx="15" width="70" x="2665" y="-2735" />
<rect fill="#84A1AE" height="70" rx="15" width="70" x="2665" y="-3835" />
<rect fill="#84A1AE" height="70" rx="15" width="70" x="2765" y="-535" />
<rect fill="#84A1AE" height="70" rx="15" width="70" x="2765" y="-1635" />
<rect fill="#84A1AE" height="70" rx="15" width="70" x="2765" y="-1835" />
<rect fill="#84A1AE" height="70" rx="15" width="70" x="2765" y="-1935" />
<rect fill="#84A1AE" height="70" rx="15" width="70" x="2765" y="-2235" />
<rect fill="#84A1AE" height="70" rx="15" width="70" x="2765" y="-3735" />
<rect fill="#84A1AE" height="70" rx="15" width="70" x="2765" y="-3835" />
<rect fill="#84A1AE" height="70" rx="15" width="70" x="2865" y="-535" />
<rect fill="#84A1AE" height="70" rx="15" width="70" x="2865" y="-3835" />
<rect fill="#84A1AE" height="70" rx="15" width="70" x="2965" y="-535" />
<rect fill="#84A1AE" height="70" rx="15" width="70" x="2965" y="-2635" />
<rect fill="#84A1AE" height="70" rx="15" width="70" x="2965" y="-3835" />
<rect fill="#84A1AE" height="70" rx="15" width="70" x="3065" y="-535" />
<rect fill="#84A1AE" height="70" rx="15" width="70" x="3065" y="-735" />
<rect fill="#84A1AE" height="70" rx="15" width="70" x="3065" y="-2535" />
<rect fill="#84A1AE" height="70" rx="15" width="70" x="3065" y="-3835" />
<rect fill="#84A1AE" height="70" rx="15" width="70" x="3165" y="-535" />
<rect fill="#84A1AE" height="70" rx="15" width="70" x="3165" y="-835" />
<rect fill="#84A1AE" height="70" rx="15" width="70" x="3165" y="-1935" />
<rect fill="#84A1AE" height="70" rx="15" width="70" x="3165" y="-2735" />
<rect fill="#84A1AE" height="70" rx="15" width="70" x="3165" y="-3135" />
<rect fill="#84A1AE" height="70" rx="15" width="70" x="3165" y="-3835" />
<rect fill="#84A1AE" height="70" rx="15" width="70" x="3265" y="-535" />
<rect fill="#84A1AE" height="70" rx="15" width="70" x="3265" y="-1035" />
<rect fill="#84A1AE" height="70" rx="15" width="70" x="3265" y="-1735" />
<rect fill="#84A1AE" height="70" rx="15" width="70" x="3265" y="-3835" />
<rect fill="#84A1AE" height="70" rx="15" width="70" x="3365" y="-535" />
<rect fill="#84A1AE" height="70" rx="15" width="70" x="3365" y="-1435" />
<rect fill="#84A1AE" height="70" rx="15" width="70" x="3365" y="-1935" />
<rect fill="#84A1AE" height="70" rx="15" width="70" x="3365" y="-2135" />
<rect fill="#84A1AE" height="70" rx="15" width="70" x="3365" y="-3835" />
<rect fill="#84A1AE" height="70" rx="15" width="70" x="3465" y="-535" />
<rect fill="#84A1AE" height="70" rx="15" width="70" x="3465" y="-2635" />
<rect fill="#84A1AE" height="70" rx="15" width="70" x="3465" y="-3835" />
<rect fill="#84A1AE" height="70" rx="15" width="70" x="3565" y="-535" />
<rect fill="#84A1AE" height="70" rx="15" width="70" x="3565" y="-635" />
<rect fill="#84A1AE" height="70" rx="15" width="70" x="3565" y="-2435" />
<rect fill="#84A1AE" height="70" rx="15" width="70" x="3565" y="-3235" />
<rect fill="#84A1AE" height="70" rx="15" width="70" x="3565" y="-3835" />
<rect fill="#84A1AE" height="70" rx="15" width="70" x="3665" y="-535" />
<rect fill="#84A1AE" height="70" rx="15" width="70" x="3665" y="-2135" />
<rect fill="#84A1AE" height="70" rx="15" width="70" x="3665" y="-2835" />
<rect fill="#84A1AE" height="70" rx="15" width="70" x="3665" y="-3135" />
<rect fill="#84A1AE" height="70" rx="15" width="70" x="3665" y="-3735" />
<rect fill="#84A1AE" height="70" rx="15" width="70" x="3665" y="-3835" />
<rect fill="#84A1AE" height="70" rx="15" width="70" x="3765" y="-535" />
<rect fill="#84A1AE" height="70" rx="15" width="70" x="3765" y="-635" />
<rect fill="#84A1AE" height="70" rx="15" width="70" x="3765" y="-735" />
<rect fill="#84A1AE" height="70" rx="15" width="70" x="3765" y="-835" />
<rect fill="#84A1AE" height="70" rx="15" width="70" x="3765" y="-935" />
<rect fill="#84A1AE" height="70" rx="15" width="70" x="3765" y="-1035" />
<rect fill="#84A1AE" height="70" rx="15" width="70" x="3765" y="-1135" />
<rect fill="#84A1AE" height="70" rx="15" width="70" x="3765" y="-1235" />
<rect fill="#84A1AE" height="70" rx="15" width="70" x="3765" y="-1335" />
<rect fill="#84A1AE" height="70" rx="15" width="70" x="3765" y="-1435" />
<rect fill="#84A1AE" height="70" rx="15" width="70" x="3765" y="-1535" />
<rect fill="#84A1AE" height="70" rx="15" width="70" x="3765" y="-1635" />
<rect fill="#84A1AE" height="70" rx="15" width="70" x="3765" y="-1735" />
<rect fill="#84A1AE" height="70" rx="15" width="70" x="3765" y="-1835" />
<rect fill="#84A1AE" height="70" rx="15" width="70" x="3765" y="-1935" />
<rect fill="#84A1AE" height="70" rx="15" width="70" x="3765" y="-2035" />
<rect fill="#84A1AE" height="70" rx="15" width="70" x="3765" y="-2135" />
<rect fill="#84A1AE" height="70" rx="15" width="70" x="3765" y="-2235" />
<rect fill="#84A1AE" height="70" rx="15" width="70" x="3765" y="-2335" />
<rect fill="#84A1AE" height="70" rx="15" width="70" x="3765" y="-2435" />
<rect fill="#84A1AE" height="70" rx="15" width="70" x="3765" y="-2535" />
<rect fill="#84A1AE" height="70" rx="15" width="70" x="3765" y="-2635" />
<rect fill="#84A1AE" height="70" rx="15" width="70" x="3765" y="-2735" />
<rect fill="#84A1AE" height="70" rx="15" width="70" x="3765" y="-2835" />
<rect fill="#84A1AE" height="70" rx="15" width="70" x="3765" y="-2935" />
<rect fill="#84A1AE" height="70" rx="15" width="70" x="3765" y="-3035" />
<rect fill="#84A1AE" height="70" rx="15" width="70" x="3765" y="-3135" />
<rect fill="#84A1AE" height="70" rx="15" width="70" x="3765" y="-3235" />
<rect fill="#84A1AE" height="70" rx="15" width="70" x="3765" y="-3335" />
<rect fill="#84A1AE" height="70" rx="15" width="70" x="3765" y="-3435" />
<rect fill="#84A1AE" height="70" rx="15" width="70" x="3765" y="-3535" />
<rect fill="#84A1AE" height="70" rx="15" width="70" x="3765" y="-3635" />
<rect fill="#84A1AE" height="70" rx="15" width="70" x="3765" y="-3735" />
<rect fill="#84A1AE" height="70" rx="15" width="70" x="3765" y="-3835" />
<circle cx="2500" cy="-1400" fill="#c1433c" r="35"> <animate attributeName="cy" dur="98.28000000000002s" keyTimes="0.0;0.0028409091;0.0113636364;0.0142045455;0.0170454545;0.0227272727;0.0255681818;0.03125;0.0340909091;0.0426136364;0.0454545455;0.0482954545;0.0511363636;0.0539772727;0.0568181818;0.0596590909;0.0625;0.0653409091;0.0681818182;0.0710227273;0.0738636364;0.0767045455;0.0795454545;0.0823863636;0.0852272727;0.0880681818;0.0909090909;0.09375;0.0965909091;0.1079545455;0.1107954545;0.1136363636;0.1164772727;0.1193181818;0.1221590909;0.125;0.1278409091;0.1420454545;0.1448863636;0.15625;0.1590909091;0.1619318182;0.1647727273;0.1732954545;0.1761363636;0.1789772727;0.1818181818;0.1846590909;0.1875;0.1903409091;0.1931818182;0.1960227273;0.1988636364;0.2017045455;0.2045454545;0.2159090909;0.21875;0.2272727273;0.2301136364;0.2329545455;0.2357954545;0.2386363636;0.2443181818;0.2471590909;0.25;0.2528409091;0.2670454545;0.2698863636;0.2727272727;0.2755681818;0.2784090909;0.28125;0.2840909091;0.2869318182;0.2897727273;0.2926136364;0.2982954545;0.3011363636;0.3039772727;0.3068181818;0.3096590909;0.3153409091;0.3181818182;0.3210227273;0.3295454545;0.3323863636;0.3352272727;0.3380681818;0.3409090909;0.34375;0.3465909091;0.3494318182;0.3551136364;0.3579545455;0.3607954545;0.3664772727;0.3693181818;0.375;0.3778409091;0.3806818182;0.3835227273;0.3863636364;0.4005681818;0.4034090909;0.40625;0.4090909091;0.4119318182;0.4204545455;0.4232954545;0.4261363636;0.4289772727;0.4346590909;0.4375;0.4403409091;0.4431818182;0.4460227273;0.4488636364;0.4517045455;0.4545454545;0.4573863636;0.4602272727;0.4630681818;0.4659090909;0.46875;0.4715909091;0.4914772727;0.4943181818;0.4971590909;0.5142045455;0.5170454545;0.5198863636;0.5227272727;0.5340909091;0.5369318182;0.5397727273;0.5426136364;0.5454545455;0.5482954545;0.5511363636;0.5539772727;0.5568181818;0.5596590909;0.5625;0.5653409091;0.5795454545;0.5823863636;0.5852272727;0.5880681818;0.5909090909;0.59375;0.5965909091;0.5994318182;0.6022727273;0.6051136364;0.6079545455;0.6107954545;0.6136363636;0.6164772727;0.6221590909;0.625;0.6335227273;0.6363636364;0.6392045455;0.6477272727;0.6505681818;0.6619318182;0.6647727273;0.6676136364;0.6732954545;0.6761363636;0.6960227273;0.6988636364;0.7017045455;0.7045454545;0.7073863636;0.7102272727;0.7130681818;0.7159090909;0.71875;0.7301136364;0.7329545455;0.7357954545;0.7386363636;0.75;0.7528409091;0.7556818182;0.7585227273;0.7613636364;0.7642045455;0.8125;0.8153409091;0.8181818182;0.8210227273;0.84375;0.8465909091;0.8494318182;0.8522727273;0.8551136364;0.8579545455;0.8607954545;0.8636363636;0.8664772727;0.8693181818;0.8721590909;0.875;0.8778409091;0.8806818182;0.8835227273;0.8863636364;0.8948863636;0.8977272727;0.9005681818;0.9034090909;0.90625;0.9090909091;0.9147727273;0.9176136364;0.9204545455;0.9232954545;0.9261363636;0.9289772727;0.9318181818;0.9346590909;0.9375;0.9403409091;0.9431818182;0.9460227273;0.9488636364;0.9545454545;0.9573863636;0.9602272727;0.9630681818;0.9659090909;0.96875;0.9715909091;0.9801136364;0.9829545455;0.9857954545;0.9886363636;0.9914772727;0.9943181818;1.0" repeatCount="indefinite" values="-1400;-1400;-1400;-1500;-1600;-1600;-1700;-1700;-1800;-1800;-1700;-1700;-1600;-1600;-1700;-1800;-1900;-2000;-1900;-1900;-2000;-2100;-2200;-2300;-2400;-2500;-2600;-2500;-2600;-2600;-2700;-2600;-2700;-2800;-2700;-2800;-2900;-2900;-3000;-3000;-2900;-3000;-3100;-3100;-3000;-3000;-3100;-3100;-3000;-3100;-3100;-3200;-3100;-3100;-3000;-3000;-3100;-3100;-3000;-2900;-2900;-3000;-3000;-2900;-2900;-3000;-3000;-2900;-2800;-2800;-2700;-2700;-2800;-2900;-3000;-2900;-2900;-2800;-2800;-2900;-2800;-2800;-2900;-2800;-2800;-2900;-3000;-2900;-2800;-2700;-2700;-2600;-2600;-2500;-2400;-2400;-2300;-2300;-2400;-2300;-2300;-2400;-2400;-2500;-2400;-2300;-2200;-2200;-2300;-2400;-2300;-2300;-2200;-2200;-2300;-2300;-2200;-2300;-2400;-2400;-2500;-2400;-2400;-2300;-2400;-2400;-2300;-2200;-2200;-2100;-2100;-2200;-2200;-2100;-2200;-2100;-2200;-2300;-2200;-2300;-2300;-2200;-2200;-2100;-2100;-2200;-2100;-2100;-2000;-1900;-1900;-2000;-1900;-1900;-2000;-2100;-2100;-2200;-2200;-2100;-2100;-2000;-2100;-2100;-2000;-2000;-1900;-2000;-2000;-2100;-2100;-2200;-2200;-2300;-2300;-2200;-2100;-2100;-2000;-2000;-1900;-2000;-1900;-1900;-2000;-1900;-1800;-1900;-2000;-2000;-1900;-1900;-2000;-2000;-2100;-2200;-2300;-2200;-2100;-2100;-2200;-2300;-2200;-2300;-2400;-2500;-2400;-2300;-2400;-2400;-2500;-2600;-2500;-2600;-2500;-2500;-2600;-2600;-2500;-2600;-2700;-2600;-2500;-2600;-2700;-2800;-2900;-3000;-3000;-3100;-3100;-3200;-3300;-3300;-3400;-3400;-3300;-3400;-3500;-3500;-3600;-3600"/>
<animate attributeName="cx" dur="98.28000000000002s" keyTimes="0.0;0.0028409091;0.0056818182;0.0085227273;0.0113636364;0.0170454545;0.0198863636;0.0227272727;0.0284090909;0.03125;0.0397727273;0.0426136364;0.0454545455;0.0482954545;0.0511363636;0.0539772727;0.0681818182;0.0710227273;0.0965909091;0.0994318182;0.1022727273;0.1051136364;0.1079545455;0.1278409091;0.1306818182;0.1335227273;0.1363636364;0.1392045455;0.1420454545;0.1448863636;0.1477272727;0.1505681818;0.1534090909;0.15625;0.1676136364;0.1704545455;0.1732954545;0.1903409091;0.1931818182;0.1988636364;0.2017045455;0.2102272727;0.2130681818;0.2159090909;0.2244318182;0.2272727273;0.2329545455;0.2357954545;0.2386363636;0.2414772727;0.2443181818;0.2471590909;0.25;0.2528409091;0.2556818182;0.2585227273;0.2613636364;0.2642045455;0.2670454545;0.2727272727;0.2755681818;0.2784090909;0.28125;0.2926136364;0.2954545455;0.2982954545;0.3011363636;0.3039772727;0.3096590909;0.3125;0.3267045455;0.3295454545;0.3494318182;0.3522727273;0.3607954545;0.3636363636;0.3693181818;0.3721590909;0.375;0.3806818182;0.3835227273;0.3863636364;0.3892045455;0.3920454545;0.3948863636;0.3977272727;0.4005681818;0.4119318182;0.4147727273;0.4176136364;0.4204545455;0.4375;0.4403409091;0.4431818182;0.4460227273;0.4545454545;0.4573863636;0.4630681818;0.4659090909;0.4715909091;0.4744318182;0.4772727273;0.4801136364;0.4829545455;0.4857954545;0.4886363636;0.4971590909;0.5;0.5028409091;0.5056818182;0.5085227273;0.5113636364;0.5170454545;0.5198863636;0.5227272727;0.5255681818;0.5284090909;0.53125;0.5340909091;0.5596590909;0.5625;0.5653409091;0.5681818182;0.5710227273;0.5738636364;0.5767045455;0.5795454545;0.5852272727;0.5880681818;0.6022727273;0.6051136364;0.6107954545;0.6136363636;0.6164772727;0.6193181818;0.625;0.6278409091;0.6306818182;0.6335227273;0.6392045455;0.6420454545;0.6448863636;0.6505681818;0.6534090909;0.65625;0.6590909091;0.6619318182;0.6676136364;0.6704545455;0.6732954545;0.6789772727;0.6818181818;0.6846590909;0.6875;0.6903409091;0.6931818182;0.6960227273;0.6988636364;0.7017045455;0.7045454545;0.7073863636;0.7130681818;0.7159090909;0.7215909091;0.7244318182;0.7272727273;0.7301136364;0.7386363636;0.7414772727;0.7443181818;0.7642045455;0.7670454545;0.7727272727;0.7755681818;0.7784090909;0.78125;0.7840909091;0.7869318182;0.7897727273;0.7926136364;0.7954545455;0.7982954545;0.8011363636;0.8039772727;0.8068181818;0.8096590909;0.8125;0.8153409091;0.8181818182;0.8210227273;0.8238636364;0.8267045455;0.8295454545;0.8323863636;0.8352272727;0.8380681818;0.8409090909;0.84375;0.8863636364;0.8892045455;0.9090909091;0.9119318182;0.9147727273;0.9488636364;0.9517045455;0.9545454545;0.9659090909;0.96875;0.9715909091;0.9744318182;0.9772727273;0.9801136364;0.9886363636;0.9914772727;1.0" repeatCount="indefinite" values="2500;2500;2400;2500;2600;2600;2700;2600;2600;2700;2700;2600;2600;2700;2700;2600;2600;2700;2700;2800;2700;2700;2800;2800;2900;2800;2900;3000;2900;2900;3000;2900;3000;3100;3100;3000;2900;2900;3000;3000;3100;3100;3200;3300;3300;3400;3400;3500;3500;3600;3700;3700;3600;3600;3500;3400;3300;3200;3100;3100;3000;3000;2900;2900;2800;2700;2700;2600;2600;2500;2500;2600;2600;2700;2700;2800;2800;2900;2800;2800;2700;2700;2600;2500;2400;2500;2400;2400;2500;2500;2600;2600;2700;2700;2600;2600;2500;2500;2600;2600;2500;2400;2300;2300;2400;2300;2300;2200;2100;2000;1900;1800;1800;1700;1700;1600;1500;1400;1300;1300;1200;1200;1100;1200;1300;1200;1100;1100;1000;1000;900;900;800;800;900;900;800;900;800;800;700;600;600;700;800;900;1000;1000;1100;1000;1000;1100;1200;1300;1400;1500;1600;1600;1700;1700;1800;1800;1900;1900;2000;2000;1900;1900;1800;1900;1900;2000;2000;2100;2200;2200;2300;2400;2300;2400;2500;2600;2700;2700;2800;2900;3000;3000;3100;3100;3200;3300;3400;3500;3600;3700;3600;3500;3500;3400;3400;3500;3400;3400;3500;3400;3400;3500;3500;3400;3300;3200;3200;3100;3100"/>
<animate attributeName="visibility" dur="98.28000000000002s" keyTimes="0.0;0.0028409091;1.0" repeatCount="indefinite" values="visible;visible;visible"/> </circle>
<circle cx="3000" cy="-1900" fill="#2e6f9e" r="35"> <animate attributeName="cy" dur="98.28000000000002s" keyTimes="0.0;0.0028409091;0.0056818182;0.0085227273;0.0113636364;0.0142045455;0.0170454545;0.0198863636;0.0227272727;0.0255681818;0.0284090909;0.03125;0.0482954545;0.0511363636;0.0539772727;0.0596590909;0.0625;0.0653409091;0.0681818182;0.0710227273;0.0738636364;0.0767045455;0.0795454545;0.0823863636;0.0852272727;0.0880681818;0.0909090909;0.09375;0.0965909091;0.0994318182;0.1022727273;0.1051136364;0.1079545455;0.1221590909;0.125;0.1278409091;0.1306818182;0.1335227273;0.1363636364;0.1392045455;0.1420454545;0.1448863636;0.1477272727;0.1505681818;0.1534090909;0.1590909091;0.1619318182;0.1647727273;0.1676136364;0.1704545455;0.1732954545;0.1761363636;0.1789772727;0.1818181818;0.1846590909;0.1875;0.1903409091;0.1931818182;0.1960227273;0.1988636364;0.2017045455;0.2414772727;0.2443181818;0.2670454545;0.2698863636;0.2869318182;0.2897727273;0.3096590909;0.3125;0.3295454545;0.3323863636;0.3352272727;0.3380681818;0.3409090909;0.34375;0.3465909091;0.3494318182;0.3522727273;0.3551136364;0.3579545455;0.3607954545;0.3636363636;0.3721590909;0.375;0.3806818182;0.3835227273;0.3863636364;0.3892045455;0.3920454545;0.3948863636;0.3977272727;0.4005681818;0.4147727273;0.4176136364;0.4204545455;0.4232954545;0.4261363636;0.4289772727;0.4318181818;0.4346590909;0.4375;0.4431818182;0.4460227273;0.4488636364;0.4517045455;0.4545454545;0.4602272727;0.4630681818;0.4659090909;0.46875;0.4715909091;0.4801136364;0.4829545455;0.4857954545;0.4886363636;0.4971590909;0.5;0.5028409091;0.5056818182;0.5142045455;0.5170454545;0.5198863636;0.5227272727;0.5255681818;0.5284090909;0.5369318182;0.5397727273;0.5426136364;0.5454545455;0.5482954545;0.5511363636;0.5539772727;0.5568181818;0.5596590909;0.5625;0.5653409091;0.5681818182;0.5767045455;0.5795454545;0.5823863636;0.5852272727;0.6022727273;0.6051136364;0.625;0.6278409091;0.6505681818;0.6534090909;0.65625;0.6590909091;0.6619318182;0.6647727273;0.6676136364;0.6704545455;0.6732954545;0.6761363636;0.6789772727;0.6818181818;0.6846590909;0.7301136364;0.7329545455;0.7386363636;0.7414772727;0.7443181818;0.7642045455;0.7670454545;0.7698863636;0.7727272727;0.7755681818;0.7784090909;0.78125;0.7840909091;0.7869318182;0.7897727273;0.7926136364;0.7954545455;0.7982954545;0.8011363636;0.8125;0.8153409091;0.8181818182;0.8210227273;0.8238636364;0.8295454545;0.8323863636;0.8352272727;0.8380681818;0.8409090909;0.84375;0.8522727273;0.8551136364;0.8579545455;0.8607954545;0.875;0.8778409091;0.8806818182;0.8863636364;0.8892045455;0.8920454545;0.8977272727;0.9005681818;0.90625;0.9090909091;0.9119318182;0.9147727273;0.9176136364;0.9204545455;0.9232954545;0.9261363636;0.9289772727;0.9318181818;0.9346590909;0.9375;0.9460227273;0.9488636364;0.9602272727;0.9630681818;0.96875;0.9715909091;0.9744318182;0.9772727273;0.9801136364;0.9829545455;0.9857954545;0.9886363636;0.9943181818;0.9971590909;1.0" repeatCount="indefinite" values="-1900;-1900;-1900;-2000;-2100;-2200;-2300;-2400;-2400;-2500;-2500;-2600;-2600;-2700;-2800;-2800;-2900;-2900;-3000;-2900;-2800;-2700;-2600;-2500;-2400;-2300;-2200;-2100;-2000;-1900;-1800;-1800;-1700;-1700;-1600;-1500;-1400;-1300;-1200;-1100;-1100;-1000;-900;-800;-700;-700;-800;-900;-1000;-1100;-1200;-1300;-1400;-1500;-1600;-1700;-1800;-1900;-2000;-2100;-2200;-2200;-2300;-2300;-2200;-2200;-2100;-2100;-2000;-2000;-1900;-1900;-1800;-1800;-1700;-1600;-1500;-1400;-1300;-1200;-1300;-1400;-1400;-1500;-1500;-1600;-1700;-1800;-1800;-1900;-1900;-2000;-2000;-1900;-1800;-1700;-1700;-1600;-1600;-1500;-1400;-1400;-1300;-1200;-1200;-1100;-1100;-1000;-1000;-900;-800;-800;-700;-700;-600;-600;-700;-700;-800;-800;-900;-900;-1000;-1000;-1100;-1100;-1200;-1300;-1300;-1400;-1400;-1500;-1500;-1600;-1700;-1700;-1800;-1800;-1900;-1900;-2000;-2000;-2100;-2100;-2200;-2200;-2300;-2400;-2400;-2500;-2600;-2700;-2800;-2900;-3000;-3100;-3100;-3000;-3000;-2900;-2900;-2800;-2700;-2700;-2800;-2700;-2600;-2500;-2400;-2300;-2200;-2100;-2000;-2000;-1900;-1800;-1700;-1700;-1600;-1500;-1500;-1400;-1400;-1300;-1200;-1100;-1100;-1000;-1000;-900;-900;-800;-800;-900;-1000;-1000;-1100;-1200;-1200;-1300;-1300;-1400;-1500;-1600;-1700;-1800;-1800;-1900;-2000;-2100;-2100;-2200;-2200;-2300;-2300;-2400;-2400;-2500;-2600;-2600;-2700;-2800;-2800;-2900;-2900;-3000;-3000"/>
<animate attributeName="cx" dur="98.28000000000002s" keyTimes="0.0;0.0028409091;0.0056818182;0.0198863636;0.0227272727;0.0255681818;0.0284090909;0.03125;0.0340909091;0.0369318182;0.0397727273;0.0426136364;0.0454545455;0.0482954545;0.0539772727;0.0568181818;0.0596590909;0.0625;0.0653409091;0.1022727273;0.1051136364;0.1079545455;0.1107954545;0.1136363636;0.1164772727;0.1193181818;0.1221590909;0.1392045455;0.1420454545;0.1534090909;0.15625;0.1590909091;0.2017045455;0.2045454545;0.2073863636;0.2102272727;0.2130681818;0.2159090909;0.21875;0.2215909091;0.2244318182;0.2272727273;0.2301136364;0.2329545455;0.2357954545;0.2386363636;0.2414772727;0.2443181818;0.2471590909;0.25;0.2528409091;0.2556818182;0.2585227273;0.2613636364;0.2642045455;0.2670454545;0.2698863636;0.2727272727;0.2755681818;0.2784090909;0.28125;0.2840909091;0.2869318182;0.2897727273;0.2926136364;0.2954545455;0.2982954545;0.3011363636;0.3039772727;0.3068181818;0.3096590909;0.3125;0.3153409091;0.3181818182;0.3210227273;0.3238636364;0.3267045455;0.3295454545;0.3323863636;0.3352272727;0.3380681818;0.3409090909;0.3636363636;0.3664772727;0.3693181818;0.3721590909;0.375;0.3778409091;0.3806818182;0.3892045455;0.3920454545;0.3948863636;0.3977272727;0.4005681818;0.4034090909;0.40625;0.4090909091;0.4119318182;0.4147727273;0.4232954545;0.4261363636;0.4289772727;0.4318181818;0.4375;0.4403409091;0.4431818182;0.4488636364;0.4517045455;0.4545454545;0.4573863636;0.4602272727;0.4630681818;0.4659090909;0.4715909091;0.4744318182;0.4772727273;0.4801136364;0.4829545455;0.4857954545;0.4886363636;0.4914772727;0.4943181818;0.4971590909;0.5;0.5028409091;0.5056818182;0.5085227273;0.5113636364;0.5142045455;0.5170454545;0.5198863636;0.5227272727;0.5255681818;0.5284090909;0.53125;0.5340909091;0.5369318182;0.5426136364;0.5454545455;0.5482954545;0.5511363636;0.5539772727;0.5568181818;0.5625;0.5653409091;0.5681818182;0.5710227273;0.5738636364;0.5767045455;0.5795454545;0.5823863636;0.5852272727;0.5880681818;0.5909090909;0.59375;0.5965909091;0.5994318182;0.6022727273;0.6051136364;0.6079545455;0.6107954545;0.6136363636;0.6164772727;0.6193181818;0.6221590909;0.625;0.6278409091;0.6306818182;0.6335227273;0.6363636364;0.6392045455;0.6420454545;0.6448863636;0.6477272727;0.6505681818;0.65625;0.6590909091;0.6789772727;0.6818181818;0.6846590909;0.6875;0.6903409091;0.6931818182;0.6960227273;0.6988636364;0.7017045455;0.7045454545;0.7073863636;0.7102272727;0.7130681818;0.7159090909;0.71875;0.7215909091;0.7244318182;0.7272727273;0.7301136364;0.7329545455;0.7357954545;0.7386363636;0.7443181818;0.7471590909;0.75;0.7528409091;0.7556818182;0.7585227273;0.7613636364;0.7642045455;0.7897727273;0.7926136364;0.8011363636;0.8039772727;0.8068181818;0.8096590909;0.8125;0.8181818182;0.8210227273;0.8238636364;0.8267045455;0.8295454545;0.8380681818;0.8409090909;0.84375;0.8465909091;0.8494318182;0.8522727273;0.8551136364;0.8579545455;0.8607954545;0.8636363636;0.8664772727;0.8693181818;0.8721590909;0.875;0.8806818182;0.8835227273;0.8863636364;0.8920454545;0.8948863636;0.8977272727;0.9005681818;0.9034090909;0.90625;0.9204545455;0.9232954545;0.9318181818;0.9346590909;0.9375;0.9403409091;0.9431818182;0.9460227273;0.9488636364;0.9517045455;0.9545454545;0.9573863636;0.9602272727;0.9630681818;0.9659090909;0.96875;0.9744318182;0.9772727273;0.9829545455;0.9857954545;0.9886363636;0.9914772727;0.9943181818;1.0" repeatCount="indefinite" values="3000;3000;2900;2900;2800;2800;2700;2700;2600;2500;2400;2300;2200;2100;2100;2000;1900;1900;1800;1800;1900;1900;2000;1900;1800;1700;1600;1600;1500;1500;1400;1300;1300;1400;1500;1600;1700;1800;1900;2000;2100;2200;2300;2400;2500;2600;2700;2700;2800;2900;3000;3100;3200;3300;3400;3500;3500;3400;3300;3200;3100;3000;2900;2900;2800;2700;2600;2500;2400;2300;2200;2200;2100;2000;1900;1800;1700;1600;1600;1500;1500;1400;1400;1300;1200;1100;1100;1000;900;900;800;800;700;700;800;900;1000;1100;1200;1200;1300;1300;1400;1400;1500;1600;1600;1700;1700;1800;1900;1900;2000;2000;2100;2200;2300;2300;2400;2400;2300;2200;2100;2100;2000;2000;1900;1800;1700;1700;1600;1600;1500;1500;1400;1300;1200;1200;1100;1100;1000;1000;1100;1100;1200;1200;1300;1400;1500;1500;1600;1600;1700;1800;1900;2000;2100;2200;2200;2300;2400;2500;2600;2700;2800;2900;2900;3000;3100;3200;3300;3400;3500;3600;3500;3500;3400;3400;3300;3300;3200;3100;3000;2900;2800;2700;2600;2500;2400;2300;2200;2100;2000;1900;1800;1700;1700;1600;1500;1500;1400;1300;1200;1100;1000;900;800;800;900;900;1000;1100;1200;1300;1300;1400;1400;1500;1600;1600;1700;1700;1800;1900;2000;2000;2100;2100;2200;2300;2400;2500;2600;2600;2700;2800;2800;2700;2600;2600;2500;2400;2400;2300;2300;2200;2200;2100;2000;1900;1900;1800;1700;1600;1500;1500;1400;1300;1300;1200;1200;1100;1100;1000;900;900"/>
<animate attributeName="visibility" dur="98.28000000000002s" keyTimes="0.0;0.0028409091;1.0" repeatCount="indefinite" values="visible;visible;visible"/> </circle>
<circle cx="3500" cy="-3000" fill="none" r="35" stroke="#c1433c" stroke-width="10"> <animate attributeName="cy" dur="98.28000000000002s" keyTimes="0.0;0.0028409091;0.2357954545;0.2386363636;0.4204545455;0.4232954545;0.6420454545;0.6448863636;0.8352272727;0.8380681818;1.0" repeatCount="indefinite" values="-3000;-3000;-3000;-2300;-2300;-2100;-2100;-2000;-2000;-3600;-3600"/>
<animate attributeName="cx" dur="98.28000000000002s" keyTimes="0.0;0.0028409091;0.2357954545;0.2386363636;0.4204545455;0.4232954545;0.6420454545;0.6448863636;0.8352272727;0.8380681818;1.0" repeatCount="indefinite" values="3500;3500;3500;2600;2600;600;600;3700;3700;1200;1200"/>
<animate attributeName="visibility" dur="98.28000000000002s" keyTimes="0.0;0.0028409091;1.0" repeatCount="indefinite" values="visible;visible;visible"/> </circle>
<circle cx="2600" cy="-2600" fill="none" r="35" stroke="#2e6f9e" stroke-width="10"> <animate attributeName="cy" dur="98.28000000000002s" keyTimes="0.0;0.0028409091;0.03125;0.0340909091;0.0653409091;0.0681818182;0.1079545455;0.1107954545;0.1505681818;0.1534090909;0.1676136364;0.1704545455;0.2670454545;0.2698863636;0.3551136364;0.3579545455;0.4119318182;0.4147727273;0.4318181818;0.4346590909;0.4857954545;0.4886363636;0.5511363636;0.5539772727;0.6448863636;0.6477272727;0.6761363636;0.6789772727;0.7642045455;0.7670454545;0.8636363636;0.8664772727;0.8863636364;0.8892045455;0.9943181818;0.9971590909;1.0" repeatCount="indefinite" values="-2600;-2600;-2600;-3000;-3000;-1700;-1700;-700;-700;-1100;-1100;-2200;-2200;-1200;-1200;-2000;-2000;-1500;-1500;-600;-600;-1500;-1500;-2200;-2200;-3100;-3100;-2800;-2800;-800;-800;-1100;-1100;-3000;-3000;-2600;-2600"/>
<animate attributeName="cx" dur="98.28000000000002s" keyTimes="0.0;0.0028409091;0.03125;0.0340909091;0.0653409091;0.0681818182;0.1079545455;0.1107954545;0.1505681818;0.1534090909;0.1676136364;0.1704545455;0.21875;0.2215909091;0.2670454545;0.2698863636;0.3551136364;0.3579545455;0.3977272727;0.4005681818;0.4119318182;0.4147727273;0.4318181818;0.4346590909;0.4857954545;0.4886363636;0.5511363636;0.5539772727;0.6448863636;0.6477272727;0.6761363636;0.6789772727;0.7642045455;0.7670454545;0.8636363636;0.8664772727;0.8863636364;0.8892045455;0.9943181818;0.9971590909;1.0" repeatCount="indefinite" values="2600;2600;2600;1800;1800;2000;2000;1500;1500;1300;1300;2000;2000;3500;3500;1400;1400;700;700;1200;1200;1400;1400;2400;2400;1000;1000;3600;3600;3400;3400;800;800;2300;2300;2800;2800;900;900;1600;1600"/>
<animate attributeName="visibility" dur="98.28000000000002s" keyTimes="0.0;0.0028409091;1.0" repeatCount="indefinite" values="visible;visible;visible"/> </circle>
</svg>