<?xml version="1.0" encoding="UTF-8"?>
        <svg xmlns="http://www.w3.org/2000/svg" xmlns:xlink="http://www.w3.org/1999/xlink"
             width="430" height="430" viewBox="0 -4300 4300 4300">

<defs>

</defs>

<rect fill="#84A1AE" height="70" rx="15" width="70" x="465" y="-535" />
<rect fill="#84A1AE" height="70" rx="15" width="70" x="465" y="-635" />
<rect fill="#84A1AE" height="70" rx="15" width="70" x="465" y="-735" />
<rect fill="#84A1AE" height="70" rx="15" width="70" x="465" y="-835" />
<rect fill="#84A1AE" height="70" rx="15" width="70" x="465" y="-935" />
<rect fill="#84A1AE" height="70" rx="15" width="70" x="465" y="-1035" />
<rect fill="#84A1AE" height="70" rx="15" width="70" x="465" y="-1135" />
<rect fill="#84A1AE" height="70" rx="15" width="70" x="465" y="-1235" />
<rect fill="#84A1AE" height="70" rx="15" width="70" x="465" y="-1335" />
<rect fill="#84A1AE" height="70" rx="15" width="70" x="465" y="-1435" />
<rect fill="#84A1AE" height="70" rx="15" width="70" x="465" y="-1535" />
<rect fill="#84A1AE" height="70" rx="15" width="70" x="465" y="-1635" />
<rect fill="#84A1AE" height="70" rx="15" width="70" x="465" y="-1735" />
<rect fill="#84A1AE" height="70" rx="15" width="70" x="465" y="-1835" />
<rect fill="#84A1AE" height="70" rx="15" width="70" x="465" y="-1935" />
<rect fill="#84A1AE" height="70" rx="15" width="70" x="465" y="-2035" />
<rect fill="#84A1AE" height="70" rx="15" width="70" x="465" y="-2135" />
<rect fill="#84A1AE" height="70" rx="15" width="70" x="465" y="-2235" />
<rect fill="#84A1AE" height="70" rx="15" width="70" x="465" y="-2335" />
<rect fill="#84A1AE" height="70" rx="15" width="70" x="465" y="-2435" />
<rect fill="#84A1AE" height="70" rx="15" width="70" x="465" y="-2535" />
<rect fill="#84A1AE" height="70" rx="15" width="70" x="465" y="-2635" />
<rect fill="#84A1AE" height="70" rx="15" width="70" x="465" y="-2735" />
<rect fill="#84A1AE" height="70" rx="15" width="70" x="465" y="-2835" />
<rect fill="#84A1AE" height="70" rx="15" width="70" x="465" y="-2935" />
<rect fill="#84A1AE" height="70" rx="15" width="70" x="465" y="-3035" />
<rect fill="#84A1AE" height="70" rx="15" width="70" x="465" y="-3135" />
<rect fill="#84A1AE" height="70" rx="15" width="70" x="465" y="-3235" />
<rect fill="#84A1AE" height="70" rx="15" width="70" x="465" y="-3335" />
<rect fill="#84A1AE" height="70" rx="15" width="70" x="465" y="-3435" />
<rect fill="#84A1AE" height="70" rx="15" width="70" x="465" y="-3535" />
<rect fill="#84A1AE" height="70" rx="15" width="70" x="465" y="-3635" />
<rect fill="#84A1AE" height="70" rx="15" width="70" x="465" y="-3735" />
<rect fill="#84A1AE" height="70" rx="15" width="70" x="465" y="-3835" />
<rect fill="#84A1AE" height="70" rx="15" width="70" x="565" y="-535" />
<rect fill="#84A1AE" height="70" rx="15" width="70" x="565" y="-1635" />
<rect fill="#84A1AE" height="70" rx="15" width="70" x="565" y="-1935" />
<rect fill="#84A1AE" height="70" rx="15" width="70" x="565" y="-2735" />
<rect fill="#84A1AE" height="70" rx="15" width="70" x="565" y="-3835" />
<rect fill="#84A1AE" height="70" rx="15" width="70" x="665" y="-535" />
<rect fill="#84A1AE" height="70" rx="15" width="70" x="665" y="-1035" />
<rect fill="#84A1AE" height="70" rx="15" width="70" x="665" y="-2535" />
<rect fill="#84A1AE" height="70" rx="15" width="70" x="665" y="-3035" />
<rect fill="#84A1AE" height="70" rx="15" width="70" x="665" y="-3235" />
<rect fill="#84A1AE" height="70" rx="15" width="70" x="665" y="-3835" />
<rect fill="#84A1AE" height="70" rx="15" width="70" x="765" y="-535" />
<rect fill="#84A1AE" height="70" rx="15" width="70" x="765" y="-635" />
<rect fill="#84A1AE" height="70" rx="15" width="70" x="765" y="-3835" />
<rect fill="#84A1AE" height="70" rx="15" width="70" x="865" y="-535" />
<rect fill="#84A1AE" height="70" rx="15" width="70" x="865" y="-2435" />
<rect fill="#84A1AE" height="70" rx="15" width="70" x="865" y="-2535" />
<rect fill="#84A1AE" height="70" rx="15" width="70" x="865" y="-3335" />
<rect fill="#84A1AE" height="70" rx="15" width="70" x="865" y="-3435" />
<rect fill="#84A1AE" height="70" rx="15" width="70" x="865" y="-3835" />
<rect fill="#84A1AE" height="70" rx="15" width="70" x="965" y="-535" />
<rect fill="#84A1AE" height="70" rx="15" width="70" x="965" y="-735" />
<rect fill="#84A1AE" height="70" rx="15" width="70" x="965" y="-1635" />
<rect fill="#84A1AE" height="70" rx="15" width="70" x="965" y="-1835" />
<rect fill="#84A1AE" height="70" rx="15" width="70" x="965" y="-2835" />
<rect fill="#84A1AE" height="70" rx="15" width="70" x="965" y="-3435" />
<rect fill="#84A1AE" height="70" rx="15" width="70" x="965" y="-3835" />
<rect fill="#84A1AE" height="70" rx="15" width="70" x="1065" y="-535" />
<rect fill="#84A1AE" height="70" rx="15" width="70" x="1065" y="-1135" />
<rect fill="#84A1AE" height="70" rx="15" width="70" x="1065" y="-1835" />
<rect fill="#84A1AE" height="70" rx="15" width="70" x="1065" y="-3735" />
<rect fill="#84A1AE" height="70" rx="15" width="70" x="1065" y="-3835" />
<rect fill="#84A1AE" height="70" rx="15" width="70" x="1165" y="-535" />
<rect fill="#84A1AE" height="70" rx="15" width="70" x="1165" y="-635" />
<rect fill="#84A1AE" height="70" rx="15" width="70" x="1165" y="-735" />
<rect fill="#84A1AE" height="70" rx="15" width="70" x="1165" y="-1535" />
<rect fill="#84A1AE" height="70" rx="15" width="70" x="1165" y="-3835" />
<rect fill="#84A1AE" height="70" rx="15" width="70" x="1265" y="-535" />
<rect fill="#84A1AE" height="70" rx="15" width="70" x="1265" y="-2835" />
<rect fill="#84A1AE" height="70" rx="15" width="70" x="1265" y="-3435" />
<rect fill="#84A1AE" height="70" rx="15" width="70" x="1265" y="-3835" />
<rect fill="#84A1AE" height="70" rx="15" width="70" x="1365" y="-535" />
<rect fill="#84A1AE" height="70" rx="15" width="70" x="1365" y="-835" />
<rect fill="#84A1AE" height="70" rx="15" width="70" x="1365" y="-935" />
<rect fill="#84A1AE" height="70" rx="15" width="70" x="1365" y="-1035" />
<rect fill="#84A1AE" height="70" rx="15" width="70" x="1365" y="-1935" />
<rect fill="#84A1AE" height="70" rx="15" width="70" x="1365" y="-2335" />
<rect fill="#84A1AE" height="70" rx="15" width="70" x="1365" y="-2635" />
<rect fill="#84A1AE" height="70" rx="15" width="70" x="1365" y="-2835" />
<rect fill="#84A1AE" height="70" rx="15" width="70" x="1365" y="-2935" />
<rect fill="#84A1AE" height="70" rx="15" width="70" x="1365" y="-3035" />
<rect fill="#84A1AE" height="70" rx="15" width="70" x="1365" y="-3335" />
<rect fill="#84A1AE" height="70" rx="15" width="70" x="1365" y="-3835" />
<rect fill="#84A1AE" height="70" rx="15" width="70" x="1465" y="-535" />
<rect fill="#84A1AE" height="70" rx="15" width="70" x="1465" y="-1235" />
<rect fill="#84A1AE" height="70" rx="15" width="70" x="1465" y="-1535" />
<rect fill="#84A1AE" height="70" rx="15" width="70" x="1465" y="-2035" />
<rect fill="#84A1AE" height="70" rx="15" width="70" x="1465" y="-3135" />
<rect fill="#84A1AE" height="70" rx="15" width="70" x="1465" y="-3235" />
<rect fill="#84A1AE" height="70" rx="15" width="70" x="1465" y="-3835" />
<rect fill="#84A1AE" height="70" rx="15" width="70" x="1565" y="-535" />
<rect fill="#84A1AE" height="70" rx="15" width="70" x="1565" y="-3035" />
<rect fill="#84A1AE" height="70" rx="15" width="70" x="1565" y="-3835" />
<rect fill="#84A1AE" height="70" rx="15" width="70" x="1665" y="-535" />
<rect fill="#84A1AE" height="70" rx="15" width="70" x="1665" y="-3735" />
<rect fill="#84A1AE" height="70" rx="15" width="70" x="1665" y="-3835" />
<rect fill="#84A1AE" height="70" rx="15" width="70" x="1765" y="-535" />
<rect fill="#84A1AE" height="70" rx="15" width="70" x="1765" y="-1235" />
<rect fill="#84A1AE" height="70" rx="15" width="70" x="1765" y="-3835" />
<rect fill="#84A1AE" height="70" rx="15" width="70" x="1865" y="-535" />
<rect fill="#84A1AE" height="70" rx="15" width="70" x="1865" y="-735" />
<rect fill="#84A1AE" height="70" rx="15" width="70" x="1865" y="-1335" />
<rect fill="#84A1AE" height="70" rx="15" width="70" x="1865" y="-3235" />
<rect fill="#84A1AE" height="70" rx="15" width="70" x="1865" y="-3435" />
<rect fill="#84A1AE" height="70" rx="15" width="70" x="1865" y="-3835" />
<rect fill="#84A1AE" height="70" rx="15" width="70" x="1965" y="-535" />
<rect fill="#84A1AE" height="70" rx="15" width="70" x="1965" y="-635" />
<rect fill="#84A1AE" height="70" rx="15" width="70" x="1965" y="-1835" />
<rect fill="#84A1AE" height="70" rx="15" width="70" x="1965" y="-1935" />
<rect fill="#84A1AE" height="70" rx="15" width="70" x="1965" y="-2135" />
<rect fill="#84A1AE" height="70" rx="15" width="70" x="1965" y="-2335" />
<rect fill="#84A1AE" height="70" rx="15" width="70" x="1965" y="-2435" />
<rect fill="#84A1AE" height="70" rx="15" width="70" x="1965" y="-3335" />
<rect fill="#84A1AE" height="70" rx="15" width="70" x="1965" y="-3835" />
<rect fill="#84A1AE" height="70" rx="15" width="70" x="2065" y="-535" />
<rect fill="#84A1AE" height="70" rx="15" width="70" x="2065" y="-1535" />
<rect fill="#84A1AE" height="70" rx="15" width="70" x="2065" y="-1635" />
<rect fill="#84A1AE" height="70" rx="15" width="70" x="2065" y="-2135" />
<rect fill="#84A1AE" height="70" rx="15" width="70" x="2065" y="-3835" />
<rect fill="#84A1AE" height="70" rx="15" width="70" x="2165" y="-535" />
<rect fill="#84A1AE" height="70" rx="15" width="70" x="2165" y="-935" />
<rect fill="#84A1AE" height="70" rx="15" width="70" x="2165" y="-1335" />
<rect fill="#84A1AE" height="70" rx="15" width="70" x="2165" y="-1835" />
<rect fill="#84A1AE" height="70" rx="15" width="70" x="2165" y="-3835" />
<rect fill="#84A1AE" height="70" rx="15" width="70" x="2265" y="-535" />
<rect fill="#84A1AE" height="70" rx="15" width="70" x="2265" y="-935" />
<rect fill="#84A1AE" height="70" rx="15" width="70" x="2265" y="-1135" />
<rect fill="#84A1AE" height="70" rx="15" width="70" x="2265" y="-2535" />
<rect fill="#84A1AE" height="70" rx="15" width="70" x="2265" y="-3235" />
<rect fill="#84A1AE" height="70" rx="15" width="70" x="2265" y="-3835" />
<rect fill="#84A1AE" height="70" rx="15" width="70" x="2365" y="-535" />
<rect fill="#84A1AE" height="70" rx="15" width="70" x="2365" y="-935" />
<rect fill="#84A1AE" height="70" rx="15" width="70" x="2365" y="-1035" />
<rect fill="#84A1AE" height="70" rx="15" width="70" x="2365" y="-3835" />
<rect fill="#84A1AE" height="70" rx="15" width="70" x="2465" y="-535" />
<rect fill="#84A1AE" height="70" rx="15" width="70" x="2465" y="-935" />
<rect fill="#84A1AE" height="70" rx="15" width="70" x="2465" y="-1535" />
<rect fill="#84A1AE" height="70" rx="15" width="70" x="2465" y="-2335" />
<rect fill="#84A1AE" height="70" rx="15" width="70" x="2465" y="-2735" />
<rect fill="#84A1AE" height="70" rx="15" width="70" x="2465" y="-3835" />
<rect fill="#84A1AE" height="70" rx="15" width="70" x="2565" y="-535" />
<rect fill="#84A1AE" height="70" rx="15" width="70" x="2565" y="-735" />
<rect fill="#84A1AE" height="70" rx="15" width="70" x="2565" y="-2535" />
<rect fill="#84A1AE" height="70" rx="15" width="70" x="2565" y="-3835" />
<rect fill="#84A1AE" height="70" rx="15" width="70" x="2665" y="-535" />
<rect fill="#84A1AE" height="70" rx="15" width="70" x="2665" y="-635" />
<rect fill="#84A1AE" height="70" rx="15" width="70" x="2665" y="-1135" />
<rect fill="#84A1AE" height="70" rx="15" width="70" x="2665" y="-1435" />
<rect fill="#84A1AE" height="70" rx="15" width="70" x="2665" y="-2735" />
<rect fill="#84A1AE" height="70" rx="15" width="70" x="2665" y="-3835" />
<rect fill="#84A1AE" height="70" rx="15" width="70" x="2765" y="-535" />
<rect fill="#84A1AE" height="70" rx="15" width="70" x="2765" y="-1635" />
<rect fill="#84A1AE" height="70" rx="15" width="70" x="2765" y="-1835" />
<rect fill="#84A1AE" height="70" rx="15" width="70" x="2765" y="-1935" />
<rect fill="#84A1AE" height="70" rx="15" width="70" x="2765" y="-2235" />
<rect fill="#84A1AE" height="70" rx="15" width="70" x="2765" y="-3735" />
<rect fill="#84A1AE" height="70" rx="15" width="70" x="2765" y="-3835" />
<rect fill="#84A1AE" height="70" rx="15" width="70" x="2865" y="-535" />
<rect fill="#84A1AE" height="70" rx="15" width="70" x="2865" y="-3835" />
<rect fill="#84A1AE" height="70" rx="15" width="70" x="2965" y="-535" />
<rect fill="#84A1AE" height="70" rx="15" width="70" x="2965" y="-2635" />
<rect fill="#84A1AE" height="70" rx="15" width="70" x="2965" y="-3835" />
<rect fill="#84A1AE" height="70" rx="15" width="70" x="3065" y="-535" />
<rect fill="#84A1AE" height="70" rx="15" width="70" x="3065" y="-735" />
<rect fill="#84A1AE" height="70" rx="15" width="70" x="3065" y="-2535" />
<rect fill="#84A1AE" height="70" rx="15" width="70" x="3065" y="-3835" />
<rect fill="#84A1AE" height="70" rx="15" width="70" x="3165" y="-535" />
<rect fill="#84A1AE" height="70" rx="15" width="70" x="3165" y="-835" />
<rect fill="#84A1AE" height="70" rx="15" width="70" x="3165" y="-1935" />
<rect fill="#84A1AE" height="70" rx="15" width="70" x="3165" y="-2735" />
<rect fill="#84A1AE" height="70" rx="15" width="70" x="3165" y="-3135" />
<rect fill="#84A1AE" height="70" rx="15" width="70" x="3165" y="-3835" />
<rect fill="#84A1AE" height="70" rx="15" width="70" x="3265" y="-535" />
<rect fill="#84A1AE" height="70" rx="15" width="70" x="3265" y="-1035" />
<rect fill="#84A1AE" height="70" rx="15" width="70" x="3265" y="-1735" />
<rect fill="#84A1AE" height="70" rx="15" width="70" x="3265" y="-3835" />
<rect fill="#84A1AE" height="70" rx="15" width="70" x="3365" y="-535" />
<rect fill="#84A1AE" height="70" rx="15" width="70" x="3365" y="-1435" />
<rect fill="#84A1AE" height="70" rx="15" width="70" x="3365" y="-1935" />
<rect fill="#84A1AE" height="70" rx="15" width="70" x="3365" y="-2135" />
<rect fill="#84A1AE" height="70" rx="15" width="70" x="3365" y="-3835" />
<rect fill="#84A1AE" height="70" rx="15" width="70" x="3465" y="-535" />
<rect fill="#84A1AE" height="70" rx="15" width="70" x="3465" y="-2635" />
<rect fill="#84A1AE" height="70" rx="15" width="70" x="3465" y="-3835" />
<rect fill="#84A1AE" height="70" rx="15" width="70" x="3565" y="-535" />
<rect fill="#84A1AE" height="70" rx="15" width="70" x="3565" y="-635" />
<rect fill="#84A1AE" height="70" rx="15" width="70" x="3565" y="-2435" />
<rect fill="#84A1AE" height="70" rx="15" width="70" x="3565" y="-3235" />
<rect fill="#84A1AE" height="70" rx="15" width="70" x="3565" y="-3835" />
<rect fill="#84A1AE" height="70" rx="15" width="70" x="3665" y="-535" />
<rect fill="#84A1AE" height="70" rx="15" width="70" x="3665" y="-2135" />
<rect fill="#84A1AE" height="70" rx="15" width="70" x="3665" y="-2835" />
<rect fill="#84A1AE" height="70" rx="15" width="70" x="3665" y="-3135" />
<rect fill="#84A1AE" height="70" rx="15" width="70" x="3665" y="-3735" />
<rect fill="#84A1AE" height="70" rx="15" width="70" x="3665" y="-3835" />
<rect fill="#84A1AE" height="70" rx="15" width="70" x="3765" y="-535" />
<rect fill="#84A1AE" height="70" rx="15" width="70" x="3765" y="-635" />
<rect fill="#84A1AE" height="70" rx="15" width="70" x="3765" y="-735" />
<rect fill="#84A1AE" height="70" rx="15" width="70" x="3765" y="-835" />
<rect fill="#84A1AE" height="70" rx="15" width="70" x="3765" y="-935" />
<rect fill="#84A1AE" height="70" rx="15" width="70" x="3765" y="-1035" />
<rect fill="#84A1AE" height="70" rx="15" width="70" x="3765" y="-1135" />
<rect fill="#84A1AE" height="70" rx="15" width="70" x="3765" y="-1235" />
<rect fill="#84A1AE" height="70" rx="15" width="70" x="3765" y="-1335" />
<rect fill="#84A1AE" height="70" rx="15" width="70" x="3765" y="-1435" />
<rect fill="#84A1AE" height="70" rx="15" width="70" x="3765" y="-1535" />
<rect fill="#84A1AE" height="70" rx="15" width="70" x="3765" y="-1635" />
<rect fill="#84A1AE" height="70" rx="15" width="70" x="3765" y="-1735" />
<rect fill="#84A1AE" height="70" rx="15" width="70" x="3765" y="-1835" />
<rect fill="#84A1AE" height="70" rx="15" width="70" x="3765" y="-1935" />
<rect fill="#84A1AE" height="70" rx="15" width="70" x="3765" y="-2035" />
<rect fill="#84A1AE" height="70" rx="15" width="70" x="3765" y="-2135" />
<rect fill="#84A1AE" height="70" rx="15" width="70" x="3765" y="-2235" />
<rect fill="#84A1AE" height="70" rx="15" width="70" x="3765" y="-2335" />
<rect fill="#84A1AE" height="70" rx="15" width="70" x="3765" y="-2435" />
<rect fill="#84A1AE" height="70" rx="15" width="70" x="3765" y="-2535" />
<rect fill="#84A1AE" height="70" rx="15" width="70" x="3765" y="-2635" />
<rect fill="#84A1AE" height="70" rx="15" width="70" x="3765" y="-2735" />
<rect fill="#84A1AE" height="70" rx="15" width="70" x="3765" y="-2835" />
<rect fill="#84A1AE" height="70" rx="15" width="70" x="3765" y="-2935" />
<rect fill="#84A1AE" height="70" rx="15" width="70" x="3765" y="-3035" />
<rect fill="#84A1AE" height="70" rx="15" width="70" x="3765" y="-3135" />
<rect fill="#84A1AE" height="70" rx="15" width="70" x="3765" y="-3235" />
<rect fill="#84A1AE" height="70" rx="15" width="70" x="3765" y="-3335" />
<rect fill="#84A1AE" height="70" rx="15" width="70" x="3765" y="-3435" />
<rect fill="#84A1AE" height="70" rx="15" width="70" x="3765" y="-3535" />
<rect fill="#84A1AE" height="70" rx="15" width="70" x="3765" y="-3635" />
<rect fill="#84A1AE" height="70" rx="15" width="70" x="3765" y="-3735" />
<rect fill="#84A1AE" height="70" rx="15" width="70" x="3765" y="-3835" />
<circle cx="2500" cy="-1400" fill="#c1433c" r="35"> <animate attributeName="cy" dur="145.88000000000002s" keyTimes="0.0;0.0019157088;0.0038314176;0.0057471264;0.0076628352;0.0095785441;0.0114942529;0.0134099617;0.0172413793;0.0191570881;0.0210727969;0.0229885057;0.0249042146;0.0268199234;0.0287356322;0.030651341;0.0325670498;0.0344827586;0.0363984674;0.0383141762;0.0402298851;0.0421455939;0.0440613027;0.0536398467;0.0555555556;0.0574712644;0.0689655172;0.0708812261;0.0842911877;0.0862068966;0.0881226054;0.1053639847;0.1072796935;0.1091954023;0.1111111111;0.1130268199;0.1149425287;0.1168582375;0.1187739464;0.1206896552;0.122605364;0.1245210728;0.1264367816;0.1283524904;0.132183908;0.1340996169;0.1379310345;0.1398467433;0.1417624521;0.1436781609;0.1475095785;0.1494252874;0.1513409962;0.153256705;0.1551724138;0.1570881226;0.1590038314;0.1609195402;0.162835249;0.1647509579;0.1704980843;0.1724137931;0.1762452107;0.1781609195;0.1800766284;0.1819923372;0.183908046;0.1858237548;0.1877394636;0.1896551724;0.1915708812;0.19348659;0.1954022989;0.1973180077;0.1992337165;0.2011494253;0.2030651341;0.2049808429;0.2068965517;0.2088122605;0.2107279693;0.2126436782;0.214559387;0.2164750958;0.2203065134;0.2222222222;0.224137931;0.2318007663;0.2337164751;0.2356321839;0.2375478927;0.2490421456;0.2509578544;0.2528735632;0.254789272;0.2567049808;0.2586206897;0.2605363985;0.2624521073;0.2777777778;0.2796934866;0.2816091954;0.2835249042;0.285440613;0.2873563218;0.2892720307;0.2911877395;0.2931034483;0.2950191571;0.2969348659;0.2988505747;0.3007662835;0.3045977011;0.30651341;0.3084291188;0.3122605364;0.3141762452;0.316091954;0.3180076628;0.3275862069;0.3295019157;0.3429118774;0.3448275862;0.3505747126;0.3524904215;0.3582375479;0.3601532567;0.3639846743;0.3659003831;0.3908045977;0.3927203065;0.3946360153;0.3965517241;0.4176245211;0.4195402299;0.4272030651;0.4291187739;0.4310344828;0.4329501916;0.4444444444;0.4463601533;0.4482758621;0.4501915709;0.4521072797;0.4540229885;0.4559386973;0.4578544061;0.4597701149;0.4616858238;0.4636015326;0.4980842912;0.5;0.5019157088;0.5134099617;0.5153256705;0.5172413793;0.5210727969;0.5229885057;0.5249042146;0.5268199234;0.5363984674;0.5383141762;0.5421455939;0.5440613027;0.5459770115;0.5478927203;0.5498084291;0.5517241379;0.5536398467;0.5555555556;0.5574712644;0.5593869732;0.561302682;0.5632183908;0.5651340996;0.5670498084;0.5689655172;0.5708812261;0.5727969349;0.5747126437;0.5766283525;0.5785440613;0.5804597701;0.601532567;0.6034482759;0.6053639847;0.6130268199;0.6149425287;0.6168582375;0.6187739464;0.6206896552;0.622605364;0.6245210728;0.6283524904;0.6302681992;0.632183908;0.6340996169;0.6360153257;0.6455938697;0.6475095785;0.6513409962;0.653256705;0.6551724138;0.6570881226;0.6590038314;0.6704980843;0.6724137931;0.6743295019;0.6762452107;0.6781609195;0.6800766284;0.6819923372;0.683908046;0.6877394636;0.6896551724;0.6915708812;0.69348659;0.6954022989;0.6973180077;0.6992337165;0.7049808429;0.7068965517;0.7337164751;0.7356321839;0.7375478927;0.7394636015;0.7413793103;0.7432950192;0.745210728;0.7471264368;0.7490421456;0.7509578544;0.7528735632;0.754789272;0.7567049808;0.7586206897;0.7605363985;0.7624521073;0.7643678161;0.7662835249;0.7681992337;0.7701149425;0.7720306513;0.7739463602;0.775862069;0.7777777778;0.7796934866;0.7816091954;0.7835249042;0.785440613;0.7873563218;0.7892720307;0.7911877395;0.7931034483;0.7950191571;0.7969348659;0.7988505747;0.8007662835;0.8026819923;0.8045977011;0.8122605364;0.8141762452;0.816091954;0.8180076628;0.8199233716;0.8256704981;0.8275862069;0.8333333333;0.8352490421;0.837164751;0.8390804598;0.8409961686;0.8429118774;0.8448275862;0.846743295;0.8486590038;0.8544061303;0.8563218391;0.8869731801;0.8888888889;0.8908045977;0.8927203065;0.8946360153;0.8965517241;0.898467433;0.9003831418;0.9022988506;0.9137931034;0.9157088123;0.9176245211;0.9195402299;0.9214559387;0.9233716475;0.9252873563;0.9272030651;0.9291187739;0.9310344828;0.9329501916;0.9367816092;0.938697318;0.9521072797;0.9540229885;0.9578544061;0.9597701149;0.9616858238;0.9636015326;0.9655172414;0.9674329502;0.969348659;0.9712643678;0.9731800766;0.9942528736;0.9961685824;0.9980842912;1.0" repeatCount="indefinite" values="-1400;-1400;-1400;-1500;-1600;-1700;-1800;-1900;-1900;-2000;-2100;-2200;-2300;-2400;-2400;-2500;-2600;-2600;-2700;-2800;-2900;-2900;-3000;-3000;-3100;-3000;-3000;-3100;-3100;-3200;-3100;-3100;-3200;-3300;-3300;-3400;-3400;-3300;-3200;-3100;-3100;-3000;-2900;-2800;-2800;-2700;-2700;-2600;-2500;-2400;-2400;-2300;-2200;-2100;-2100;-2000;-1900;-1800;-1700;-1600;-1600;-1500;-1500;-1600;-1600;-1700;-1800;-1900;-2000;-2100;-2200;-2300;-2300;-2400;-2400;-2500;-2600;-2700;-2800;-2900;-3000;-3000;-3100;-3200;-3200;-3300;-3400;-3400;-3500;-3500;-3400;-3400;-3300;-3200;-3100;-3000;-3000;-2900;-3000;-3000;-2900;-2800;-2700;-2800;-2700;-2600;-2500;-2400;-2400;-2300;-2300;-2200;-2200;-2100;-2000;-2000;-1900;-1800;-1700;-1700;-1600;-1600;-1500;-1500;-1400;-1400;-1300;-1300;-1400;-1400;-1300;-1300;-1400;-1400;-1300;-1300;-1400;-1300;-1200;-1200;-1100;-1000;-900;-800;-800;-900;-900;-1000;-1100;-1200;-1200;-1100;-1200;-1200;-1300;-1200;-1200;-1300;-1400;-1300;-1300;-1200;-1200;-1300;-1400;-1300;-1300;-1400;-1500;-1600;-1700;-1700;-1800;-1900;-2000;-2100;-2200;-2300;-2400;-2400;-2500;-2600;-2700;-2700;-2600;-2700;-2700;-2800;-2800;-2900;-3000;-3100;-3200;-3200;-3300;-3400;-3400;-3500;-3500;-3400;-3400;-3300;-3200;-3100;-3000;-3000;-2900;-2800;-2700;-2600;-2500;-2500;-2400;-2400;-2300;-2200;-2100;-2000;-1900;-1800;-1800;-1700;-1700;-1600;-1500;-1400;-1300;-1300;-1200;-1100;-1000;-900;-800;-800;-700;-600;-700;-800;-900;-1000;-1000;-1100;-1200;-1300;-1300;-1400;-1500;-1600;-1700;-1700;-1800;-1900;-2000;-2100;-2200;-2300;-2400;-2500;-2600;-2700;-2700;-2800;-2900;-3000;-2900;-2900;-3000;-3000;-3100;-3000;-3000;-3100;-3200;-3300;-3400;-3500;-3500;-3600;-3600;-3500;-3500;-3400;-3300;-3200;-3300;-3200;-3100;-3100;-3000;-2900;-2800;-2700;-2600;-2500;-2400;-2300;-2200;-2100;-2100;-2000;-2000;-2100;-2100;-2000;-2100;-2200;-2300;-2300;-2400;-2500;-2600;-2600;-2700;-2800;-2800"/>
<animate attributeName="cx" dur="145.88000000000002s" keyTimes="0.0;0.0019157088;0.0038314176;0.0134099617;0.0153256705;0.0172413793;0.0268199234;0.0287356322;0.0325670498;0.0344827586;0.0402298851;0.0421455939;0.0440613027;0.0459770115;0.0478927203;0.0498084291;0.0517241379;0.0536398467;0.0574712644;0.0593869732;0.061302682;0.0632183908;0.0651340996;0.0670498084;0.0689655172;0.0708812261;0.0727969349;0.0747126437;0.0766283525;0.0785440613;0.0804597701;0.0823754789;0.0842911877;0.0881226054;0.0900383142;0.091954023;0.0938697318;0.0957854406;0.0977011494;0.0996168582;0.101532567;0.1034482759;0.1053639847;0.1091954023;0.1111111111;0.1130268199;0.1149425287;0.1283524904;0.1302681992;0.132183908;0.1340996169;0.1360153257;0.1379310345;0.1436781609;0.1455938697;0.153256705;0.1551724138;0.1647509579;0.1666666667;0.1685823755;0.1704980843;0.1724137931;0.1743295019;0.1762452107;0.1781609195;0.1800766284;0.19348659;0.1954022989;0.1973180077;0.1992337165;0.2107279693;0.2126436782;0.2164750958;0.2183908046;0.2203065134;0.224137931;0.2260536398;0.2279693487;0.2298850575;0.2318007663;0.2337164751;0.2356321839;0.2375478927;0.2394636015;0.2413793103;0.2432950192;0.245210728;0.2471264368;0.2490421456;0.2567049808;0.2586206897;0.2624521073;0.2643678161;0.2662835249;0.2681992337;0.2701149425;0.2720306513;0.2739463602;0.275862069;0.2777777778;0.2969348659;0.2988505747;0.3007662835;0.3026819923;0.3045977011;0.3084291188;0.3103448276;0.3122605364;0.3180076628;0.3199233716;0.3218390805;0.3237547893;0.3256704981;0.3275862069;0.3295019157;0.3314176245;0.3333333333;0.3352490421;0.337164751;0.3390804598;0.3409961686;0.3429118774;0.3448275862;0.346743295;0.3486590038;0.3505747126;0.3524904215;0.3544061303;0.3563218391;0.3582375479;0.3601532567;0.3620689655;0.3639846743;0.3659003831;0.367816092;0.3697318008;0.3716475096;0.3735632184;0.3754789272;0.377394636;0.3793103448;0.3812260536;0.3831417625;0.3850574713;0.3869731801;0.3888888889;0.3908045977;0.3927203065;0.3946360153;0.3965517241;0.398467433;0.4003831418;0.4022988506;0.4042145594;0.4061302682;0.408045977;0.4099616858;0.4118773946;0.4137931034;0.4157088123;0.4176245211;0.4195402299;0.4214559387;0.4233716475;0.4252873563;0.4272030651;0.4329501916;0.4348659004;0.4367816092;0.438697318;0.4406130268;0.4425287356;0.4444444444;0.4521072797;0.4540229885;0.4559386973;0.4578544061;0.4636015326;0.4655172414;0.4674329502;0.469348659;0.4712643678;0.4731800766;0.4750957854;0.4770114943;0.4789272031;0.4808429119;0.4827586207;0.4846743295;0.4865900383;0.4885057471;0.4904214559;0.4923371648;0.4942528736;0.4961685824;0.4980842912;0.5019157088;0.5038314176;0.5057471264;0.5076628352;0.5095785441;0.5114942529;0.5134099617;0.5172413793;0.5191570881;0.5210727969;0.5268199234;0.5287356322;0.530651341;0.5325670498;0.5344827586;0.5383141762;0.5402298851;0.5421455939;0.5478927203;0.5498084291;0.5574712644;0.5593869732;0.5804597701;0.5823754789;0.5842911877;0.5862068966;0.5881226054;0.5900383142;0.591954023;0.5938697318;0.5957854406;0.5977011494;0.5996168582;0.601532567;0.6053639847;0.6072796935;0.6091954023;0.6111111111;0.6130268199;0.6245210728;0.6264367816;0.6283524904;0.632183908;0.6340996169;0.6360153257;0.6379310345;0.6398467433;0.6417624521;0.6436781609;0.6455938697;0.6475095785;0.6494252874;0.6513409962;0.6590038314;0.6609195402;0.662835249;0.6647509579;0.6666666667;0.6685823755;0.6704980843;0.6800766284;0.6819923372;0.6858237548;0.6877394636;0.6992337165;0.7011494253;0.7030651341;0.7049808429;0.7068965517;0.7088122605;0.7107279693;0.7126436782;0.714559387;0.7203065134;0.7222222222;0.724137931;0.7260536398;0.7279693487;0.7298850575;0.7318007663;0.7337164751;0.7413793103;0.7432950192;0.7528735632;0.754789272;0.7662835249;0.7681992337;0.7739463602;0.775862069;0.80651341;0.8084291188;0.8103448276;0.8122605364;0.8199233716;0.8218390805;0.8237547893;0.8256704981;0.8275862069;0.8295019157;0.8314176245;0.8333333333;0.837164751;0.8390804598;0.8486590038;0.8505747126;0.8524904215;0.8544061303;0.8563218391;0.8582375479;0.8601532567;0.8620689655;0.8639846743;0.8659003831;0.867816092;0.8697318008;0.8716475096;0.8735632184;0.8754789272;0.877394636;0.8793103448;0.8812260536;0.8831417625;0.8850574713;0.9022988506;0.9042145594;0.9061302682;0.908045977;0.9099616858;0.9118773946;0.9137931034;0.9329501916;0.9348659004;0.9367816092;0.938697318;0.9406130268;0.9425287356;0.9444444444;0.9463601533;0.9482758621;0.9501915709;0.9521072797;0.9540229885;0.9559386973;0.9578544061;0.9655172414;0.9674329502;0.9731800766;0.9750957854;0.9770114943;0.9789272031;0.9808429119;0.9827586207;0.9846743295;0.9865900383;0.9885057471;0.9904214559;0.9923371648;0.9942528736;1.0" repeatCount="indefinite" values="2500;2500;2600;2600;2500;2600;2600;2700;2700;2800;2800;2900;2900;3000;3100;3200;3300;3400;3400;3500;3400;3300;3200;3100;3000;3000;2900;2800;2800;2700;2600;2500;2400;2400;2500;2400;2300;2200;2100;2000;1900;1800;1700;1700;1800;1800;1700;1700;1600;1500;1500;1400;1300;1300;1200;1200;1300;1300;1400;1500;1600;1600;1700;1800;1800;1900;1900;1800;1800;1900;1900;2000;2000;2100;2200;2200;2300;2400;2500;2600;2600;2700;2700;2800;2700;2800;2900;3000;3100;3100;3200;3200;3100;3000;2900;3000;3100;3200;3300;3400;3400;3500;3500;3600;3500;3500;3600;3700;3700;3600;3500;3600;3500;3400;3400;3300;3200;3100;3000;3100;3000;2900;2900;2800;2700;2600;2600;2500;2400;2300;2300;2400;2300;2300;2200;2100;2000;1900;1800;1700;1600;1500;1400;1300;1200;1300;1400;1400;1500;1500;1600;1600;1700;1800;1900;2000;2100;2200;2300;2400;2500;2500;2600;2700;2800;2900;2900;3000;3100;3200;3300;3400;3500;3500;3600;3600;3500;3500;3400;3300;3200;3100;3000;2900;3000;2900;2800;2700;2600;2500;2400;2300;2200;2100;2000;1900;1900;2000;2100;2200;2300;2400;2300;2300;2400;2300;2300;2400;2300;2400;2300;2300;2200;2100;2100;2000;2000;1900;1900;1800;1700;1600;1500;1600;1500;1500;1400;1500;1400;1300;1300;1200;1100;1000;900;900;1000;1100;1100;1200;1200;1300;1400;1500;1500;1600;1600;1700;1800;1800;1900;2000;2100;2200;2300;2400;2400;2500;2500;2600;2600;2500;2400;2300;2300;2200;2100;2000;1900;1900;1800;1800;1700;1600;1500;1400;1300;1300;1200;1200;1100;1100;1200;1200;1300;1300;1400;1400;1500;1500;1600;1700;1800;1800;1900;2000;2100;2100;2200;2200;2300;2200;2100;2100;2000;1900;1800;1700;1600;1500;1400;1300;1200;1300;1400;1500;1600;1700;1800;1800;1900;2000;2100;2200;2300;2400;2400;2500;2600;2600;2500;2400;2300;2200;2100;2000;1900;1900;1800;1700;1700;1800;1800;1900;2000;2100;2200;2300;2400;2500;2600;2700;2800;2900;2900"/>
<animate attributeName="visibility" dur="145.88000000000002s" keyTimes="0.0;0.0019157088;1.0" repeatCount="indefinite" values="visible;visible;visible"/> </circle>
<circle cx="3000" cy="-1900" fill="#2e6f9e" r="35"> <animate attributeName="cy" dur="145.88000000000002s" keyTimes="0.0;0.0019157088;0.0038314176;0.0057471264;0.0076628352;0.0095785441;0.0114942529;0.0134099617;0.0153256705;0.0172413793;0.0191570881;0.0210727969;0.0440613027;0.0459770115;0.0555555556;0.0574712644;0.0593869732;0.061302682;0.0632183908;0.0651340996;0.0670498084;0.0689655172;0.0708812261;0.0727969349;0.1111111111;0.1130268199;0.1206896552;0.122605364;0.1245210728;0.132183908;0.1340996169;0.1685823755;0.1704980843;0.1724137931;0.1743295019;0.1762452107;0.1781609195;0.1800766284;0.1819923372;0.183908046;0.1858237548;0.1877394636;0.1896551724;0.1915708812;0.19348659;0.1954022989;0.1973180077;0.1992337165;0.2030651341;0.2049808429;0.2068965517;0.2088122605;0.2107279693;0.2126436782;0.214559387;0.2164750958;0.2183908046;0.2203065134;0.2222222222;0.224137931;0.2260536398;0.2490421456;0.2509578544;0.2528735632;0.254789272;0.2567049808;0.2586206897;0.2605363985;0.2624521073;0.2701149425;0.2720306513;0.2739463602;0.275862069;0.2816091954;0.2835249042;0.285440613;0.2873563218;0.2892720307;0.2911877395;0.2931034483;0.2950191571;0.2969348659;0.2988505747;0.3007662835;0.3026819923;0.3045977011;0.30651341;0.3084291188;0.3103448276;0.3122605364;0.3141762452;0.316091954;0.3199233716;0.3218390805;0.3237547893;0.3256704981;0.337164751;0.3390804598;0.3409961686;0.3429118774;0.3544061303;0.3563218391;0.3601532567;0.3620689655;0.3697318008;0.3716475096;0.4022988506;0.4042145594;0.408045977;0.4099616858;0.4118773946;0.4137931034;0.4176245211;0.4195402299;0.4214559387;0.4233716475;0.4252873563;0.4272030651;0.4291187739;0.4310344828;0.4329501916;0.4348659004;0.4367816092;0.438697318;0.4406130268;0.4425287356;0.4444444444;0.4463601533;0.4482758621;0.4501915709;0.4521072797;0.4597701149;0.4616858238;0.4808429119;0.4827586207;0.4942528736;0.4961685824;0.4980842912;0.5;0.5019157088;0.5038314176;0.5057471264;0.5076628352;0.5095785441;0.5114942529;0.5134099617;0.5172413793;0.5191570881;0.5210727969;0.5229885057;0.5249042146;0.5268199234;0.5287356322;0.530651341;0.5325670498;0.5344827586;0.5363984674;0.5383141762;0.5402298851;0.5421455939;0.5440613027;0.5459770115;0.5478927203;0.5498084291;0.5517241379;0.5536398467;0.5555555556;0.5574712644;0.5593869732;0.561302682;0.5632183908;0.5747126437;0.5766283525;0.5823754789;0.5842911877;0.5862068966;0.591954023;0.5938697318;0.5957854406;0.5977011494;0.601532567;0.6034482759;0.6053639847;0.6072796935;0.6091954023;0.6111111111;0.6130268199;0.6149425287;0.6168582375;0.6187739464;0.6206896552;0.622605364;0.6245210728;0.6551724138;0.6570881226;0.6666666667;0.6685823755;0.6704980843;0.6724137931;0.6743295019;0.6762452107;0.6781609195;0.6800766284;0.6819923372;0.683908046;0.6858237548;0.6877394636;0.6896551724;0.6915708812;0.69348659;0.6954022989;0.6973180077;0.6992337165;0.7011494253;0.7030651341;0.7049808429;0.7068965517;0.7088122605;0.7222222222;0.724137931;0.7260536398;0.7279693487;0.7701149425;0.7720306513;0.785440613;0.7873563218;0.7892720307;0.7911877395;0.7931034483;0.7969348659;0.7988505747;0.8007662835;0.8026819923;0.8045977011;0.80651341;0.8084291188;0.8103448276;0.8122605364;0.8141762452;0.8180076628;0.8199233716;0.8218390805;0.8237547893;0.8256704981;0.8275862069;0.8295019157;0.8314176245;0.8333333333;0.8352490421;0.837164751;0.8390804598;0.8409961686;0.8429118774;0.8448275862;0.846743295;0.8486590038;0.8505747126;0.8524904215;0.8544061303;0.8563218391;0.8582375479;0.8601532567;0.8620689655;0.8639846743;0.8659003831;0.867816092;0.8697318008;0.8716475096;0.8754789272;0.877394636;0.8793103448;0.8812260536;0.8831417625;0.8850574713;0.8869731801;0.8888888889;0.8908045977;0.8927203065;0.8946360153;0.8965517241;0.898467433;0.9003831418;0.9195402299;0.9214559387;0.9597701149;0.9616858238;0.9770114943;0.9789272031;0.9808429119;0.9827586207;0.9846743295;0.9865900383;0.9885057471;0.9904214559;0.9923371648;0.9942528736;0.9961685824;0.9980842912;1.0" repeatCount="indefinite" values="-1900;-1900;-1900;-2000;-2100;-2200;-2300;-2400;-2400;-2500;-2500;-2600;-2600;-2500;-2500;-2400;-2300;-2300;-2200;-2100;-2000;-1900;-1800;-1700;-1700;-1800;-1800;-1900;-1800;-1800;-1700;-1700;-1600;-1500;-1500;-1400;-1300;-1400;-1500;-1500;-1600;-1700;-1800;-1900;-2000;-2100;-2200;-2300;-2300;-2400;-2500;-2600;-2700;-2800;-2900;-3000;-3100;-3200;-3300;-3400;-3500;-3500;-3400;-3300;-3200;-3200;-3100;-3000;-2900;-2900;-2800;-2700;-2600;-2600;-2500;-2500;-2400;-2400;-2300;-2300;-2200;-2300;-2400;-2500;-2600;-2600;-2700;-2700;-2800;-2900;-3000;-3100;-3100;-3200;-3200;-3300;-3300;-3400;-3400;-3500;-3500;-3600;-3600;-3700;-3700;-3600;-3600;-3500;-3500;-3400;-3400;-3300;-3300;-3200;-3100;-3000;-2900;-2800;-2700;-2600;-2500;-2400;-2300;-2200;-2100;-2000;-1900;-1800;-1800;-1700;-1600;-1600;-1500;-1500;-1400;-1400;-1300;-1200;-1100;-1100;-1000;-900;-800;-800;-700;-600;-600;-700;-800;-900;-1000;-1100;-1100;-1200;-1300;-1400;-1500;-1600;-1700;-1800;-1900;-2000;-2100;-2200;-2300;-2400;-2500;-2600;-2700;-2800;-2900;-2900;-2800;-2800;-2700;-2600;-2600;-2500;-2500;-2400;-2400;-2500;-2600;-2600;-2700;-2800;-2900;-3000;-3000;-3100;-3200;-3300;-3400;-3400;-3500;-3500;-3400;-3300;-3300;-3200;-3100;-3100;-3000;-2900;-2900;-2800;-2700;-2600;-2500;-2400;-2300;-2200;-2100;-2000;-1900;-1900;-1800;-1700;-1700;-1600;-1600;-1700;-1700;-1800;-1800;-1900;-2000;-2000;-2100;-2100;-2200;-2200;-2300;-2400;-2500;-2600;-2700;-2800;-2900;-2900;-3000;-3100;-3200;-3100;-3000;-3000;-2900;-2800;-2700;-2600;-2500;-2400;-2300;-2200;-2100;-2000;-2000;-1900;-1800;-1700;-1700;-1600;-1500;-1400;-1300;-1200;-1200;-1100;-1100;-1000;-1100;-1200;-1300;-1400;-1500;-1600;-1700;-1800;-1900;-2000;-2100;-2200;-2200;-2300;-2300;-2200;-2200;-2100;-2000;-1900;-1800;-1700;-1600;-1500;-1600;-1700;-1800;-1900;-1900"/>
<animate attributeName="cx" dur="145.88000000000002s" keyTimes="0.0;0.0019157088;0.0038314176;0.0134099617;0.0153256705;0.0172413793;0.0191570881;0.0210727969;0.0229885057;0.0249042146;0.0268199234;0.0287356322;0.030651341;0.0325670498;0.0344827586;0.0363984674;0.0383141762;0.0402298851;0.0421455939;0.0440613027;0.0459770115;0.0478927203;0.0498084291;0.0517241379;0.0536398467;0.0555555556;0.0593869732;0.061302682;0.0727969349;0.0747126437;0.0766283525;0.0785440613;0.0804597701;0.0823754789;0.0842911877;0.0862068966;0.0881226054;0.0900383142;0.091954023;0.0938697318;0.0957854406;0.0977011494;0.0996168582;0.101532567;0.1034482759;0.1053639847;0.1072796935;0.1091954023;0.1111111111;0.1130268199;0.1149425287;0.1168582375;0.1187739464;0.1206896552;0.1245210728;0.1264367816;0.1283524904;0.1302681992;0.132183908;0.1340996169;0.1360153257;0.1379310345;0.1398467433;0.1417624521;0.1436781609;0.1455938697;0.1475095785;0.1494252874;0.1513409962;0.153256705;0.1551724138;0.1570881226;0.1590038314;0.1609195402;0.162835249;0.1647509579;0.1666666667;0.1685823755;0.1724137931;0.1743295019;0.1819923372;0.183908046;0.1992337165;0.2011494253;0.2030651341;0.2260536398;0.2279693487;0.2298850575;0.2318007663;0.2337164751;0.2356321839;0.2375478927;0.2394636015;0.2413793103;0.2432950192;0.245210728;0.2471264368;0.2490421456;0.254789272;0.2567049808;0.2624521073;0.2643678161;0.2662835249;0.2681992337;0.2701149425;0.275862069;0.2777777778;0.2796934866;0.2816091954;0.2835249042;0.285440613;0.2873563218;0.2892720307;0.2911877395;0.2931034483;0.3026819923;0.3045977011;0.30651341;0.3084291188;0.316091954;0.3180076628;0.3199233716;0.3218390805;0.3237547893;0.3256704981;0.3275862069;0.3295019157;0.3314176245;0.3333333333;0.3352490421;0.337164751;0.3390804598;0.3409961686;0.3429118774;0.3448275862;0.346743295;0.3486590038;0.3505747126;0.3524904215;0.3544061303;0.3563218391;0.3582375479;0.3601532567;0.3620689655;0.3639846743;0.3659003831;0.367816092;0.3697318008;0.3716475096;0.3735632184;0.3754789272;0.377394636;0.3793103448;0.3812260536;0.3831417625;0.3850574713;0.3869731801;0.3888888889;0.3908045977;0.3927203065;0.3946360153;0.3965517241;0.398467433;0.4003831418;0.4022988506;0.4042145594;0.4061302682;0.408045977;0.4099616858;0.4118773946;0.4137931034;0.4157088123;0.4176245211;0.4463601533;0.4482758621;0.4521072797;0.4540229885;0.4559386973;0.4578544061;0.4597701149;0.4616858238;0.4636015326;0.4655172414;0.4674329502;0.469348659;0.4712643678;0.4731800766;0.4750957854;0.4770114943;0.4789272031;0.4808429119;0.4827586207;0.4846743295;0.4865900383;0.4885057471;0.4904214559;0.4923371648;0.4942528736;0.5;0.5019157088;0.5076628352;0.5095785441;0.5134099617;0.5153256705;0.5172413793;0.5268199234;0.5287356322;0.5632183908;0.5651340996;0.5670498084;0.5689655172;0.5708812261;0.5727969349;0.5747126437;0.5766283525;0.5785440613;0.5804597701;0.5823754789;0.5862068966;0.5881226054;0.5900383142;0.591954023;0.5938697318;0.5957854406;0.5977011494;0.5996168582;0.601532567;0.6053639847;0.6072796935;0.6149425287;0.6168582375;0.6245210728;0.6264367816;0.6283524904;0.6302681992;0.632183908;0.6340996169;0.6360153257;0.6379310345;0.6398467433;0.6417624521;0.6436781609;0.6455938697;0.6475095785;0.6494252874;0.6513409962;0.653256705;0.6551724138;0.6570881226;0.6590038314;0.6609195402;0.662835249;0.6647509579;0.6666666667;0.6704980843;0.6724137931;0.6762452107;0.6781609195;0.6819923372;0.683908046;0.7030651341;0.7049808429;0.7088122605;0.7107279693;0.7126436782;0.714559387;0.7183908046;0.7203065134;0.7279693487;0.7298850575;0.7318007663;0.7337164751;0.7356321839;0.7375478927;0.7394636015;0.7413793103;0.7432950192;0.745210728;0.7471264368;0.7490421456;0.7509578544;0.7528735632;0.754789272;0.7567049808;0.7586206897;0.7605363985;0.7624521073;0.7643678161;0.7662835249;0.7681992337;0.7701149425;0.7720306513;0.7739463602;0.775862069;0.7777777778;0.7796934866;0.7816091954;0.7835249042;0.785440613;0.7892720307;0.7911877395;0.7931034483;0.7950191571;0.7969348659;0.7988505747;0.8007662835;0.8141762452;0.816091954;0.8180076628;0.8275862069;0.8295019157;0.8486590038;0.8505747126;0.8563218391;0.8582375479;0.867816092;0.8697318008;0.8716475096;0.8735632184;0.8754789272;0.9003831418;0.9022988506;0.9042145594;0.9061302682;0.908045977;0.9099616858;0.9118773946;0.9137931034;0.9157088123;0.9176245211;0.9195402299;0.9214559387;0.9233716475;0.9252873563;0.9272030651;0.9291187739;0.9310344828;0.9329501916;0.9348659004;0.9367816092;0.938697318;0.9406130268;0.9425287356;0.9444444444;0.9463601533;0.9482758621;0.9501915709;0.9521072797;0.9540229885;0.9559386973;0.9578544061;0.9597701149;0.9616858238;0.9636015326;0.9655172414;0.9674329502;0.969348659;0.9712643678;0.9731800766;0.9750957854;0.9770114943;1.0" repeatCount="indefinite" values="3000;3000;2900;2900;2800;2800;2700;2700;2600;2500;2400;2300;2200;2100;2000;1900;1800;1700;1600;1500;1500;1400;1300;1200;1100;1000;1000;900;900;1000;1100;1200;1300;1400;1500;1600;1700;1800;1900;2000;2100;2200;2300;2400;2500;2600;2700;2800;2900;2900;3000;3100;3200;3300;3300;3200;3100;3000;2900;2900;2800;2700;2600;2500;2400;2300;2200;2100;2000;1900;1800;1700;1600;1500;1400;1300;1200;1100;1100;1000;1000;900;900;1000;1100;1100;1000;1100;1200;1300;1400;1500;1600;1700;1800;1900;2000;2100;2100;2200;2200;2300;2400;2500;2600;2600;2700;2800;2900;2900;3000;3000;3100;3100;3200;3200;3100;3100;3000;3000;2900;2800;2800;2700;2700;2600;2500;2400;2300;2200;2100;2100;2000;2000;1900;1800;1700;1600;1500;1400;1400;1300;1200;1200;1300;1400;1500;1600;1600;1700;1800;1900;2000;2100;2200;2300;2400;2500;2600;2700;2800;2900;3000;3100;3200;3200;3300;3400;3400;3500;3500;3400;3300;3300;3200;3200;3300;3400;3500;3600;3600;3500;3400;3300;3200;3100;3000;2900;2800;2700;2600;2600;2500;2400;2300;2200;2100;2000;2000;1900;1900;1800;1800;1900;1800;1800;1700;1700;1800;1900;2000;2100;2200;2300;2300;2400;2500;2600;2600;2700;2800;2900;2900;3000;3000;3100;3200;3200;3300;3300;3400;3400;3500;3400;3300;3200;3100;3000;2900;2800;2700;2600;2500;2400;2300;2200;2100;2000;2000;1900;1800;1700;1600;1500;1500;1600;1600;1700;1700;1600;1600;1500;1500;1600;1700;1800;1800;1700;1700;1800;1900;2000;2100;2200;2300;2400;2500;2600;2700;2800;2900;2800;2700;2600;2500;2400;2300;2200;2100;2000;1900;1900;1800;1700;1600;1500;1400;1300;1200;1200;1100;1100;1000;900;900;800;800;900;1000;1000;1100;1100;1200;1200;1300;1300;1400;1400;1500;1600;1600;1700;1800;1900;2000;2100;2200;2300;2400;2500;2600;2600;2700;2800;2900;3000;3100;3200;3300;3400;3500;3600;3500;3400;3300;3200;3100;3000;2900;2800;2700;2600;2600;2500;2400;2300;2200;2100;2000;1900;1800;1800"/>
<animate attributeName="visibility" dur="145.88000000000002s" keyTimes="0.0;0.0019157088;1.0" repeatCount="indefinite" values="visible;visible;visible"/> </circle>
<circle cx="3500" cy="-3000" fill="none" r="35" stroke="#c1433c" stroke-width="10"> <animate attributeName="cy" dur="145.88000000000002s" keyTimes="0.0;0.0019157088;0.0574712644;0.0593869732;0.1130268199;0.1149425287;0.1781609195;0.1800766284;0.2356321839;0.2375478927;0.2586206897;0.2605363985;0.2662835249;0.2681992337;0.316091954;0.3180076628;0.3850574713;0.3869731801;0.4501915709;0.4521072797;0.5421455939;0.5440613027;0.6111111111;0.6130268199;0.6455938697;0.6475095785;0.6973180077;0.6992337165;0.7509578544;0.7528735632;0.7567049808;0.7586206897;0.837164751;0.8390804598;0.8716475096;0.8735632184;0.8927203065;0.8946360153;0.9578544061;0.9597701149;0.9904214559;0.9923371648;1.0" repeatCount="indefinite" values="-3000;-3000;-3000;-3400;-3400;-1600;-1600;-3400;-3400;-2900;-2900;-3000;-3000;-1700;-1700;-1400;-1400;-800;-800;-1300;-1300;-2700;-2700;-3400;-3400;-1800;-1800;-800;-800;-600;-600;-3000;-3000;-3600;-3600;-3300;-3300;-2000;-2000;-2600;-2600;-2800;-2800"/>
<animate attributeName="cx" dur="145.88000000000002s" keyTimes="0.0;0.0019157088;0.0574712644;0.0593869732;0.1130268199;0.1149425287;0.162835249;0.1647509579;0.1781609195;0.1800766284;0.2356321839;0.2375478927;0.2586206897;0.2605363985;0.2662835249;0.2681992337;0.316091954;0.3180076628;0.3793103448;0.3812260536;0.3850574713;0.3869731801;0.4501915709;0.4521072797;0.5421455939;0.5440613027;0.6111111111;0.6130268199;0.6455938697;0.6475095785;0.6973180077;0.6992337165;0.7509578544;0.7528735632;0.7567049808;0.7586206897;0.816091954;0.8180076628;0.837164751;0.8390804598;0.8716475096;0.8735632184;0.8927203065;0.8946360153;0.938697318;0.9406130268;0.9578544061;0.9597701149;0.9904214559;0.9923371648;1.0" repeatCount="indefinite" values="3500;3500;3500;1700;1700;1300;1300;1900;1900;2700;2700;3200;3200;2900;2900;3700;3700;1500;1500;1200;1200;3500;3500;2100;2100;900;900;1600;1600;2600;2600;1200;1200;1100;1100;1500;1500;2200;2200;1200;1200;1800;1800;2500;2500;1700;1700;2800;2800;3000;3000"/>
<animate attributeName="visibility" dur="145.88000000000002s" keyTimes="0.0;0.0019157088;1.0" repeatCount="indefinite" values="visible;visible;visible"/> </circle>
<circle cx="2600" cy="-2600" fill="none" r="35" stroke="#2e6f9e" stroke-width="10"> <animate attributeName="cy" dur="145.88000000000002s" keyTimes="0.0;0.0019157088;0.0210727969;0.0229885057;0.0689655172;0.0708812261;0.1206896552;0.122605364;0.1762452107;0.1781609195;0.2011494253;0.2030651341;0.2260536398;0.2279693487;0.2931034483;0.2950191571;0.3237547893;0.3256704981;0.3601532567;0.3620689655;0.4118773946;0.4137931034;0.4482758621;0.4501915709;0.4597701149;0.4616858238;0.5134099617;0.5153256705;0.5670498084;0.5689655172;0.5996168582;0.601532567;0.6149425287;0.6168582375;0.6245210728;0.6264367816;0.6647509579;0.6666666667;0.7490421456;0.7509578544;0.8007662835;0.8026819923;0.816091954;0.8180076628;0.8218390805;0.8237547893;0.8754789272;0.877394636;0.938697318;0.9406130268;0.9885057471;0.9904214559;1.0" repeatCount="indefinite" values="-2600;-2600;-2600;-1800;-1800;-1900;-1900;-1300;-1300;-2300;-2300;-3500;-3500;-2200;-2200;-3300;-3300;-3700;-3700;-3300;-3300;-1700;-1700;-1500;-1500;-600;-600;-2900;-2900;-2400;-2400;-3000;-3000;-3400;-3400;-3500;-3500;-1700;-1700;-2300;-2300;-2900;-2900;-3200;-3200;-1000;-1000;-2300;-2300;-1500;-1500;-3300;-3300"/>
<animate attributeName="cx" dur="145.88000000000002s" keyTimes="0.0;0.0019157088;0.0210727969;0.0229885057;0.0689655172;0.0708812261;0.1206896552;0.122605364;0.1762452107;0.1781609195;0.2011494253;0.2030651341;0.2260536398;0.2279693487;0.2931034483;0.2950191571;0.3237547893;0.3256704981;0.3601532567;0.3620689655;0.4118773946;0.4137931034;0.4482758621;0.4501915709;0.4597701149;0.4616858238;0.5134099617;0.5153256705;0.5670498084;0.5689655172;0.5996168582;0.601532567;0.6149425287;0.6168582375;0.6245210728;0.6264367816;0.7068965517;0.7088122605;0.7490421456;0.7509578544;0.8007662835;0.8026819923;0.8218390805;0.8237547893;0.8754789272;0.877394636;0.938697318;0.9406130268;0.9885057471;0.9904214559;1.0" repeatCount="indefinite" values="2600;2600;2600;900;900;3300;3300;1000;1000;1100;1100;1000;1000;3200;3200;2700;2700;1200;1200;3500;3500;3200;3200;3600;3600;1900;1900;2000;2000;3200;3200;3400;3400;3500;3500;1500;1500;2900;2900;800;800;1000;1000;1600;1600;3600;3600;1800;1800;2300;2300"/>
<animate attributeName="visibility" dur="145.88000000000002s" keyTimes="0.0;0.0019157088;1.0" repeatCount="indefinite" values="visible;visible;visible"/> </circle>
</svg>