<?xml version="1.0" encoding="UTF-8"?>
        <svg xmlns="http://www.w3.org/2000/svg" xmlns:xlink="http://www.w3.org/1999/xlink"
             width="430" height="430" viewBox="0 -4300 4300 4300">

<defs>

</defs>

<rect fill="#84A1AE" height="70" rx="15" width="70" x="465" y="-535" />
<rect fill="#84A1AE" height="70" rx="15" width="70" x="465" y="-635" />
<rect fill="#84A1AE" height="70" rx="15" width="70" x="465" y="-735" />
<rect fill="#84A1AE" height="70" rx="15" width="70" x="465" y="-835" />
<rect fill="#84A1AE" height="70" rx="15" width="70" x="465" y="-935" />
<rect fill="#84A1AE" height="70" rx="15" width="70" x="465" y="-1035" />
<rect fill="#84A1AE" height="70" rx="15" width="70" x="465" y="-1135" />
<rect fill="#84A1AE" height="70" rx="15" width="70" x="465" y="-1235" />
<rect fill="#84A1AE" height="70" rx="15" width="70" x="465" y="-1335" />
<rect fill="#84A1AE" height="70" rx="15" width="70" x="465" y="-1435" />
<rect fill="#84A1AE" height="70" rx="15" width="70" x="465" y="-1535" />
<rect fill="#84A1AE" height="70" rx="15" width="70" x="465" y="-1635" />
<rect fill="#84A1AE" height="70" rx="15" width="70" x="465" y="-1735" />
<rect fill="#84A1AE" height="70" rx="15" width="70" x="465" y="-1835" />
<rect fill="#84A1AE" height="70" rx="15" width="70" x="465" y="-1935" />
<rect fill="#84A1AE" height="70" rx="15" width="70" x="465" y="-2035" />
<rect fill="#84A1AE" height="70" rx="15" width="70" x="465" y="-2135" />
<rect fill="#84A1AE" height="70" rx="15" width="70" x="465" y="-2235" />
<rect fill="#84A1AE" height="70" rx="15" width="70" x="465" y="-2335" />
<rect fill="#84A1AE" height="70" rx="15" width="70" x="465" y="-2435" />
<rect fill="#84A1AE" height="70" rx="15" width="70" x="465" y="-2535" />
<rect fill="#84A1AE" height="70" rx="15" width="70" x="465" y="-2635" />
<rect fill="#84A1AE" height="70" rx="15" width="70" x="465" y="-2735" />
<rect fill="#84A1AE" height="70" rx="15" width="70" x="465" y="-2835" />
<rect fill="#84A1AE" height="70" rx="15" width="70" x="465" y="-2935" />
<rect fill="#84A1AE" height="70" rx="15" width="70" x="465" y="-3035" />
<rect fill="#84A1AE" height="70" rx="15" width="70" x="465" y="-3135" />
<rect fill="#84A1AE" height="70" rx="15" width="70" x="465" y="-3235" />
<rect fill="#84A1AE" height="70" rx="15" width="70" x="465" y="-3335" />
<rect fill="#84A1AE" height="70" rx="15" width="70" x="465" y="-3435" />
<rect fill="#84A1AE" height="70" rx="15" width="70" x="465" y="-3535" />
<rect fill="#84A1AE" height="70" rx="15" width="70" x="465" y="-3635" />
<rect fill="#84A1AE" height="70" rx="15" width="70" x="465" y="-3735" />
<rect fill="#84A1AE" height="70" rx="15" width="70" x="465" y="-3835" />
<rect fill="#84A1AE" height="70" rx="15" width="70" x="565" y="-535" />
<rect fill="#84A1AE" height="70" rx="15" width="70" x="565" y="-1635" />
<rect fill="#84A1AE" height="70" rx="15" width="70" x="565" y="-1935" />
<rect fill="#84A1AE" height="70" rx="15" width="70" x="565" y="-2735" />
<rect fill="#84A1AE" height="70" rx="15" width="70" x="565" y="-3835" />
<rect fill="#84A1AE" height="70" rx="15" width="70" x="665" y="-535" />
<rect fill="#84A1AE" height="70" rx="15" width="70" x="665" y="-1035" />
<rect fill="#84A1AE" height="70" rx="15" width="70" x="665" y="-2535" />
<rect fill="#84A1AE" height="70" rx="15" width="70" x="665" y="-3035" />
<rect fill="#84A1AE" height="70" rx="15" width="70" x="665" y="-3235" />
<rect fill="#84A1AE" height="70" rx="15" width="70" x="665" y="-3835" />
<rect fill="#84A1AE" height="70" rx="15" width="70" x="765" y="-535" />
<rect fill="#84A1AE" height="70" rx="15" width="70" x="765" y="-635" />
<rect fill="#84A1AE" height="70" rx="15" width="70" x="765" y="-3835" />
<rect fill="#84A1AE" height="70" rx="15" width="70" x="865" y="-535" />
<rect fill="#84A1AE" height="70" rx="15" width="70" x="865" y="-2435" />
<rect fill="#84A1AE" height="70" rx="15" width="70" x="865" y="-2535" />
<rect fill="#84A1AE" height="70" rx="15" width="70" x="865" y="-3335" />
<rect fill="#84A1AE" height="70" rx="15" width="70" x="865" y="-3435" />
<rect fill="#84A1AE" height="70" rx="15" width="70" x="865" y="-3835" />
<rect fill="#84A1AE" height="70" rx="15" width="70" x="965" y="-535" />
<rect fill="#84A1AE" height="70" rx="15" width="70" x="965" y="-735" />
<rect fill="#84A1AE" height="70" rx="15" width="70" x="965" y="-1635" />
<rect fill="#84A1AE" height="70" rx="15" width="70" x="965" y="-1835" />
<rect fill="#84A1AE" height="70" rx="15" width="70" x="965" y="-2835" />
<rect fill="#84A1AE" height="70" rx="15" width="70" x="965" y="-3435" />
<rect fill="#84A1AE" height="70" rx="15" width="70" x="965" y="-3835" />
<rect fill="#84A1AE" height="70" rx="15" width="70" x="1065" y="-535" />
<rect fill="#84A1AE" height="70" rx="15" width="70" x="1065" y="-1135" />
<rect fill="#84A1AE" height="70" rx="15" width="70" x="1065" y="-1835" />
<rect fill="#84A1AE" height="70" rx="15" width="70" x="1065" y="-3735" />
<rect fill="#84A1AE" height="70" rx="15" width="70" x="1065" y="-3835" />
<rect fill="#84A1AE" height="70" rx="15" width="70" x="1165" y="-535" />
<rect fill="#84A1AE" height="70" rx="15" width="70" x="1165" y="-635" />
<rect fill="#84A1AE" height="70" rx="15" width="70" x="1165" y="-735" />
<rect fill="#84A1AE" height="70" rx="15" width="70" x="1165" y="-1535" />
<rect fill="#84A1AE" height="70" rx="15" width="70" x="1165" y="-3835" />
<rect fill="#84A1AE" height="70" rx="15" width="70" x="1265" y="-535" />
<rect fill="#84A1AE" height="70" rx="15" width="70" x="1265" y="-2835" />
<rect fill="#84A1AE" height="70" rx="15" width="70" x="1265" y="-3435" />
<rect fill="#84A1AE" height="70" rx="15" width="70" x="1265" y="-3835" />
<rect fill="#84A1AE" height="70" rx="15" width="70" x="1365" y="-535" />
<rect fill="#84A1AE" height="70" rx="15" width="70" x="1365" y="-835" />
<rect fill="#84A1AE" height="70" rx="15" width="70" x="1365" y="-935" />
<rect fill="#84A1AE" height="70" rx="15" width="70" x="1365" y="-1035" />
<rect fill="#84A1AE" height="70" rx="15" width="70" x="1365" y="-1935" />
<rect fill="#84A1AE" height="70" rx="15" width="70" x="1365" y="-2335" />
<rect fill="#84A1AE" height="70" rx="15" width="70" x="1365" y="-2635" />
<rect fill="#84A1AE" height="70" rx="15" width="70" x="1365" y="-2835" />
<rect fill="#84A1AE" height="70" rx="15" width="70" x="1365" y="-2935" />
<rect fill="#84A1AE" height="70" rx="15" width="70" x="1365" y="-3035" />
<rect fill="#84A1AE" height="70" rx="15" width="70" x="1365" y="-3335" />
<rect fill="#84A1AE" height="70" rx="15" width="70" x="1365" y="-3835" />
<rect fill="#84A1AE" height="70" rx="15" width="70" x="1465" y="-535" />
<rect fill="#84A1AE" height="70" rx="15" width="70" x="1465" y="-1235" />
<rect fill="#84A1AE" height="70" rx="15" width="70" x="1465" y="-1535" />
<rect fill="#84A1AE" height="70" rx="15" width="70" x="1465" y="-2035" />
<rect fill="#84A1AE" height="70" rx="15" width="70" x="1465" y="-3135" />
<rect fill="#84A1AE" height="70" rx="15" width="70" x="1465" y="-3235" />
<rect fill="#84A1AE" height="70" rx="15" width="70" x="1465" y="-3835" />
<rect fill="#84A1AE" height="70" rx="15" width="70" x="1565" y="-535" />
<rect fill="#84A1AE" height="70" rx="15" width="70" x="1565" y="-3035" />
<rect fill="#84A1AE" height="70" rx="15" width="70" x="1565" y="-3835" />
<rect fill="#84A1AE" height="70" rx="15" width="70" x="1665" y="-535" />
<rect fill="#84A1AE" height="70" rx="15" width="70" x="1665" y="-3735" />
<rect fill="#84A1AE" height="70" rx="15" width="70" x="1665" y="-3835" />
<rect fill="#84A1AE" height="70" rx="15" width="70" x="1765" y="-535" />
<rect fill="#84A1AE" height="70" rx="15" width="70" x="1765" y="-1235" />
<rect fill="#84A1AE" height="70" rx="15" width="70" x="1765" y="-3835" />
<rect fill="#84A1AE" height="70" rx="15" width="70" x="1865" y="-535" />
<rect fill="#84A1AE" height="70" rx="15" width="70" x="1865" y="-735" />
<rect fill="#84A1AE" height="70" rx="15" width="70" x="1865" y="-1335" />
<rect fill="#84A1AE" height="70" rx="15" width="70" x="1865" y="-3235" />
<rect fill="#84A1AE" height="70" rx="15" width="70" x="1865" y="-3435" />
<rect fill="#84A1AE" height="70" rx="15" width="70" x="1865" y="-3835" />
<rect fill="#84A1AE" height="70" rx="15" width="70" x="1965" y="-535" />
<rect fill="#84A1AE" height="70" rx="15" width="70" x="1965" y="-635" />
<rect fill="#84A1AE" height="70" rx="15" width="70" x="1965" y="-1835" />
<rect fill="#84A1AE" height="70" rx="15" width="70" x="1965" y="-1935" />
<rect fill="#84A1AE" height="70" rx="15" width="70" x="1965" y="-2135" />
<rect fill="#84A1AE" height="70" rx="15" width="70" x="1965" y="-2335" />
<rect fill="#84A1AE" height="70" rx="15" width="70" x="1965" y="-2435" />
<rect fill="#84A1AE" height="70" rx="15" width="70" x="1965" y="-3335" />
<rect fill="#84A1AE" height="70" rx="15" width="70" x="1965" y="-3835" />
<rect fill="#84A1AE" height="70" rx="15" width="70" x="2065" y="-535" />
<rect fill="#84A1AE" height="70" rx="15" width="70" x="2065" y="-1535" />
<rect fill="#84A1AE" height="70" rx="15" width="70" x="2065" y="-1635" />
<rect fill="#84A1AE" height="70" rx="15" width="70" x="2065" y="-2135" />
<rect fill="#84A1AE" height="70" rx="15" width="70" x="2065" y="-3835" />
<rect fill="#84A1AE" height="70" rx="15" width="70" x="2165" y="-535" />
<rect fill="#84A1AE" height="70" rx="15" width="70" x="2165" y="-935" />
<rect fill="#84A1AE" height="70" rx="15" width="70" x="2165" y="-1335" />
<rect fill="#84A1AE" height="70" rx="15" width="70" x="2165" y="-1835" />
<rect fill="#84A1AE" height="70" rx="15" width="70" x="2165" y="-3835" />
<rect fill="#84A1AE" height="70" rx="15" width="70" x="2265" y="-535" />
<rect fill="#84A1AE" height="70" rx="15" width="70" x="2265" y="-935" />
<rect fill="#84A1AE" height="70" rx="15" width="70" x="2265" y="-1135" />
<rect fill="#84A1AE" height="70" rx="15" width="70" x="2265" y="-2535" />
<rect fill="#84A1AE" height="70" rx="15" width="70" x="2265" y="-3235" />
<rect fill="#84A1AE" height="70" rx="15" width="70" x="2265" y="-3835" />
<rect fill="#84A1AE" height="70" rx="15" width="70" x="2365" y="-535" />
<rect fill="#84A1AE" height="70" rx="15" width="70" x="2365" y="-935" />
<rect fill="#84A1AE" height="70" rx="15" width="70" x="2365" y="-1035" />
<rect fill="#84A1AE" height="70" rx="15" width="70" x="2365" y="-3835" />
<rect fill="#84A1AE" height="70" rx="15" width="70" x="2465" y="-535" />
<rect fill="#84A1AE" height="70" rx="15" width="70" x="2465" y="-935" />
<rect fill="#84A1AE" height="70" rx="15" width="70" x="2465" y="-1535" />
<rect fill="#84A1AE" height="70" rx="15" width="70" x="2465" y="-2335" />
<rect fill="#84A1AE" height="70" rx="15" width="70" x="2465" y="-2735" />
<rect fill="#84A1AE" height="70" rx="15" width="70" x="2465" y="-3835" />
<rect fill="#84A1AE" height="70" rx="15" width="70" x="2565" y="-535" />
<rect fill="#84A1AE" height="70" rx="15" width="70" x="2565" y="-735" />
<rect fill="#84A1AE" height="70" rx="15" width="70" x="2565" y="-2535" />
<rect fill="#84A1AE" height="70" rx="15" width="70" x="2565" y="-3835" />
<rect fill="#84A1AE" height="70" rx="15" width="70" x="2665" y="-535" />
<rect fill="#84A1AE" height="70" rx="15" width="70" x="2665" y="-635" />
<rect fill="#84A1AE" height="70" rx="15" width="70" x="2665" y="-1135" />
<rect fill="#84A1AE" height="70" rx="15" width="70" x="2665" y="-1435" />
<rect fill="#84A1AE" height="70" rx="15" width="70" x="2665" y="-2735" />
<rect fill="#84A1AE" height="70" rx="15" width="70" x="2665" y="-3835" />
<rect fill="#84A1AE" height="70" rx="15" width="70" x="2765" y="-535" />
<rect fill="#84A1AE" height="70" rx="15" width="70" x="2765" y="-1635" />
<rect fill="#84A1AE" height="70" rx="15" width="70" x="2765" y="-1835" />
<rect fill="#84A1AE" height="70" rx="15" width="70" x="2765" y="-1935" />
<rect fill="#84A1AE" height="70" rx="15" width="70" x="2765" y="-2235" />
<rect fill="#84A1AE" height="70" rx="15" width="70" x="2765" y="-3735" />
<rect fill="#84A1AE" height="70" rx="15" width="70" x="2765" y="-3835" />
<rect fill="#84A1AE" height="70" rx="15" width="70" x="2865" y="-535" />
<rect fill="#84A1AE" height="70" rx="15" width="70" x="2865" y="-3835" />
<rect fill="#84A1AE" height="70" rx="15" width="70" x="2965" y="-535" />
<rect fill="#84A1AE" height="70" rx="15" width="70" x="2965" y="-2635" />
<rect fill="#84A1AE" height="70" rx="15" width="70" x="2965" y="-3835" />
<rect fill="#84A1AE" height="70" rx="15" width="70" x="3065" y="-535" />
<rect fill="#84A1AE" height="70" rx="15" width="70" x="3065" y="-735" />
<rect fill="#84A1AE" height="70" rx="15" width="70" x="3065" y="-2535" />
<rect fill="#84A1AE" height="70" rx="15" width="70" x="3065" y="-3835" />
<rect fill="#84A1AE" height="70" rx="15" width="70" x="3165" y="-535" />
<rect fill="#84A1AE" height="70" rx="15" width="70" x="3165" y="-835" />
<rect fill="#84A1AE" height="70" rx="15" width="70" x="3165" y="-1935" />
<rect fill="#84A1AE" height="70" rx="15" width="70" x="3165" y="-2735" />
<rect fill="#84A1AE" height="70" rx="15" width="70" x="3165" y="-3135" />
<rect fill="#84A1AE" height="70" rx="15" width="70" x="3165" y="-3835" />
<rect fill="#84A1AE" height="70" rx="15" width="70" x="3265" y="-535" />
<rect fill="#84A1AE" height="70" rx="15" width="70" x="3265" y="-1035" />
<rect fill="#84A1AE" height="70" rx="15" width="70" x="3265" y="-1735" />
<rect fill="#84A1AE" height="70" rx="15" width="70" x="3265" y="-3835" />
<rect fill="#84A1AE" height="70" rx="15" width="70" x="3365" y="-535" />
<rect fill="#84A1AE" height="70" rx="15" width="70" x="3365" y="-1435" />
<rect fill="#84A1AE" height="70" rx="15" width="70" x="3365" y="-1935" />
<rect fill="#84A1AE" height="70" rx="15" width="70" x="3365" y="-2135" />
<rect fill="#84A1AE" height="70" rx="15" width="70" x="3365" y="-3835" />
<rect fill="#84A1AE" height="70" rx="15" width="70" x="3465" y="-535" />
<rect fill="#84A1AE" height="70" rx="15" width="70" x="3465" y="-2635" />
<rect fill="#84A1AE" height="70" rx="15" width="70" x="3465" y="-3835" />
<rect fill="#84A1AE" height="70" rx="15" width="70" x="3565" y="-535" />
<rect fill="#84A1AE" height="70" rx="15" width="70" x="3565" y="-635" />
<rect fill="#84A1AE" height="70" rx="15" width="70" x="3565" y="-2435" />
<rect fill="#84A1AE" height="70" rx="15" width="70" x="3565" y="-3235" />
<rect fill="#84A1AE" height="70" rx="15" width="70" x="3565" y="-3835" />
<rect fill="#84A1AE" height="70" rx="15" width="70" x="3665" y="-535" />
<rect fill="#84A1AE" height="70" rx="15" width="70" x="3665" y="-2135" />
<rect fill="#84A1AE" height="70" rx="15" width="70" x="3665" y="-2835" />
<rect fill="#84A1AE" height="70" rx="15" width="70" x="3665" y="-3135" />
<rect fill="#84A1AE" height="70" rx="15" width="70" x="3665" y="-3735" />
<rect fill="#84A1AE" height="70" rx="15" width="70" x="3665" y="-3835" />
<rect fill="#84A1AE" height="70" rx="15" width="70" x="3765" y="-535" />
<rect fill="#84A1AE" height="70" rx="15" width="70" x="3765" y="-635" />
<rect fill="#84A1AE" height="70" rx="15" width="70" x="3765" y="-735" />
<rect fill="#84A1AE" height="70" rx="15" width="70" x="3765" y="-835" />
<rect fill="#84A1AE" height="70" rx="15" width="70" x="3765" y="-935" />
<rect fill="#84A1AE" height="70" rx="15" width="70" x="3765" y="-1035" />
<rect fill="#84A1AE" height="70" rx="15" width="70" x="3765" y="-1135" />
<rect fill="#84A1AE" height="70" rx="15" width="70" x="3765" y="-1235" />
<rect fill="#84A1AE" height="70" rx="15" width="70" x="3765" y="-1335" />
<rect fill="#84A1AE" height="70" rx="15" width="70" x="3765" y="-1435" />
<rect fill="#84A1AE" height="70" rx="15" width="70" x="3765" y="-1535" />
<rect fill="#84A1AE" height="70" rx="15" width="70" x="3765" y="-1635" />
<rect fill="#84A1AE" height="70" rx="15" width="70" x="3765" y="-1735" />
<rect fill="#84A1AE" height="70" rx="15" width="70" x="3765" y="-1835" />
<rect fill="#84A1AE" height="70" rx="15" width="70" x="3765" y="-1935" />
<rect fill="#84A1AE" height="70" rx="15" width="70" x="3765" y="-2035" />
<rect fill="#84A1AE" height="70" rx="15" width="70" x="3765" y="-2135" />
<rect fill="#84A1AE" height="70" rx="15" width="70" x="3765" y="-2235" />
<rect fill="#84A1AE" height="70" rx="15" width="70" x="3765" y="-2335" />
<rect fill="#84A1AE" height="70" rx="15" width="70" x="3765" y="-2435" />
<rect fill="#84A1AE" height="70" rx="15" width="70" x="3765" y="-2535" />
<rect fill="#84A1AE" height="70" rx="15" width="70" x="3765" y="-2635" />
<rect fill="#84A1AE" height="70" rx="15" width="70" x="3765" y="-2735" />
<rect fill="#84A1AE" height="70" rx="15" width="70" x="3765" y="-2835" />
<rect fill="#84A1AE" height="70" rx="15" width="70" x="3765" y="-2935" />
<rect fill="#84A1AE" height="70" rx="15" width="70" x="3765" y="-3035" />
<rect fill="#84A1AE" height="70" rx="15" width="70" x="3765" y="-3135" />
<rect fill="#84A1AE" height="70" rx="15" width="70" x="3765" y="-3235" />
<rect fill="#84A1AE" height="70" rx="15" width="70" x="3765" y="-3335" />
<rect fill="#84A1AE" height="70" rx="15" width="70" x="3765" y="-3435" />
<rect fill="#84A1AE" height="70" rx="15" width="70" x="3765" y="-3535" />
<rect fill="#84A1AE" height="70" rx="15" width="70" x="3765" y="-3635" />
<rect fill="#84A1AE" height="70" rx="15" width="70" x="3765" y="-3735" />
<rect fill="#84A1AE" height="70" rx="15" width="70" x="3765" y="-3835" />
<circle cx="2500" cy="-1400" fill="#c1433c" r="35"> <animate attributeName="cy" dur="131.88000000000002s" keyTimes="0.0;0.0021186441;0.0042372881;0.0063559322;0.0084745763;0.0105932203;0.0127118644;0.0148305085;0.0169491525;0.0190677966;0.0211864407;0.0233050847;0.0254237288;0.0275423729;0.0296610169;0.031779661;0.0338983051;0.0360169492;0.0381355932;0.0402542373;0.0423728814;0.0847457627;0.0868644068;0.0889830508;0.0911016949;0.093220339;0.0953389831;0.0974576271;0.0995762712;0.1016949153;0.1038135593;0.1059322034;0.1080508475;0.1101694915;0.1122881356;0.1144067797;0.1165254237;0.1186440678;0.1207627119;0.1228813559;0.125;0.1271186441;0.1292372881;0.1313559322;0.1334745763;0.1355932203;0.1377118644;0.1398305085;0.1419491525;0.1440677966;0.1461864407;0.1483050847;0.1504237288;0.1525423729;0.1546610169;0.156779661;0.1588983051;0.1610169492;0.1631355932;0.1652542373;0.1694915254;0.1716101695;0.1737288136;0.188559322;0.1906779661;0.1927966102;0.1949152542;0.1970338983;0.1991525424;0.2012711864;0.2033898305;0.2055084746;0.2076271186;0.2097457627;0.2118644068;0.2139830508;0.2161016949;0.218220339;0.2203389831;0.2224576271;0.2245762712;0.2266949153;0.2288135593;0.2309322034;0.2330508475;0.2351694915;0.2372881356;0.2394067797;0.2415254237;0.2436440678;0.2457627119;0.2478813559;0.2627118644;0.2648305085;0.2881355932;0.2902542373;0.2923728814;0.2944915254;0.2966101695;0.2987288136;0.3008474576;0.3029661017;0.3050847458;0.3072033898;0.3093220339;0.311440678;0.313559322;0.3156779661;0.3177966102;0.3199152542;0.3220338983;0.3241525424;0.3262711864;0.3283898305;0.3453389831;0.3474576271;0.3495762712;0.3516949153;0.3538135593;0.3559322034;0.3580508475;0.3601694915;0.3622881356;0.3644067797;0.3665254237;0.3686440678;0.3707627119;0.3728813559;0.375;0.3771186441;0.3792372881;0.3813559322;0.3834745763;0.3855932203;0.3877118644;0.3898305085;0.3919491525;0.3940677966;0.4088983051;0.4110169492;0.4131355932;0.4152542373;0.4173728814;0.4194915254;0.4216101695;0.4237288136;0.4258474576;0.4279661017;0.4322033898;0.4343220339;0.436440678;0.438559322;0.4406779661;0.4427966102;0.4512711864;0.4533898305;0.4809322034;0.4830508475;0.4851694915;0.4872881356;0.4894067797;0.4915254237;0.4936440678;0.4957627119;0.4978813559;0.5;0.5021186441;0.5042372881;0.5063559322;0.5084745763;0.5105932203;0.5127118644;0.5148305085;0.5169491525;0.5190677966;0.5211864407;0.5233050847;0.5254237288;0.5275423729;0.5296610169;0.531779661;0.5338983051;0.5360169492;0.5381355932;0.5402542373;0.5423728814;0.5466101695;0.5487288136;0.5508474576;0.5550847458;0.5572033898;0.5593220339;0.561440678;0.563559322;0.5656779661;0.5677966102;0.5699152542;0.5720338983;0.5741525424;0.6080508475;0.6101694915;0.6228813559;0.625;0.6271186441;0.6292372881;0.6313559322;0.6334745763;0.6355932203;0.6377118644;0.6398305085;0.6419491525;0.6440677966;0.6461864407;0.6483050847;0.6504237288;0.6525423729;0.6546610169;0.656779661;0.6588983051;0.6610169492;0.6631355932;0.6652542373;0.6673728814;0.6694915254;0.6716101695;0.6737288136;0.6758474576;0.6779661017;0.6800847458;0.6822033898;0.6843220339;0.686440678;0.688559322;0.6906779661;0.6927966102;0.6949152542;0.7266949153;0.7288135593;0.7415254237;0.7436440678;0.7457627119;0.7478813559;0.7521186441;0.7542372881;0.7563559322;0.7584745763;0.7605932203;0.7627118644;0.7860169492;0.7881355932;0.7966101695;0.7987288136;0.8220338983;0.8241525424;0.8262711864;0.8283898305;0.8305084746;0.8326271186;0.8347457627;0.8368644068;0.8389830508;0.8580508475;0.8601694915;0.8622881356;0.8792372881;0.8813559322;0.8834745763;0.8855932203;0.8877118644;0.8898305085;0.9173728814;0.9194915254;0.9343220339;0.936440678;0.938559322;0.9406779661;0.9427966102;0.9449152542;0.9470338983;0.9491525424;0.9512711864;0.9533898305;0.9555084746;0.9576271186;0.9597457627;0.9618644068;0.9639830508;0.9661016949;0.968220339;0.9703389831;0.9724576271;0.9745762712;0.9766949153;0.9788135593;0.9809322034;0.9957627119;0.9978813559;1.0" repeatCount="indefinite" values="-1400;-1400;-1400;-1500;-1600;-1700;-1800;-1900;-2000;-2100;-2200;-2300;-2400;-2400;-2500;-2600;-2600;-2700;-2800;-2900;-3000;-3000;-2900;-2800;-2700;-2600;-2500;-2400;-2300;-2200;-2100;-2000;-2000;-1900;-1800;-1700;-1700;-1600;-1500;-1600;-1600;-1700;-1800;-1900;-2000;-2100;-2200;-2300;-2400;-2500;-2600;-2700;-2800;-2900;-2900;-3000;-3000;-3100;-3000;-2900;-2900;-2800;-2700;-2700;-2600;-2500;-2400;-2400;-2300;-2200;-2100;-2000;-1900;-1800;-1700;-1600;-1500;-1400;-1500;-1600;-1700;-1800;-1900;-2000;-2100;-2200;-2300;-2400;-2400;-2500;-2600;-2700;-2700;-2800;-2800;-2700;-2600;-2600;-2500;-2400;-2300;-2200;-2100;-2000;-1900;-1800;-1700;-1600;-1500;-1500;-1400;-1300;-1300;-1200;-1200;-1300;-1300;-1400;-1400;-1500;-1600;-1700;-1700;-1800;-1800;-1900;-2000;-2100;-2200;-2300;-2400;-2500;-2600;-2700;-2800;-2900;-3000;-3100;-3100;-3200;-3100;-3100;-3000;-2900;-2900;-2800;-2700;-2600;-2600;-2500;-2500;-2400;-2400;-2300;-2300;-2200;-2200;-2100;-2000;-1900;-1800;-1700;-1600;-1500;-1400;-1300;-1200;-1100;-1000;-1100;-1200;-1300;-1400;-1500;-1600;-1700;-1800;-1900;-2000;-2100;-2200;-2300;-2400;-2500;-2600;-2700;-2700;-2800;-2900;-2900;-3000;-3100;-3200;-3300;-3400;-3500;-3600;-3600;-3700;-3700;-3600;-3600;-3500;-3400;-3300;-3200;-3100;-3000;-2900;-2800;-2700;-2600;-2500;-2400;-2300;-2200;-2100;-2000;-1900;-1800;-1700;-1700;-1600;-1500;-1400;-1300;-1400;-1500;-1600;-1700;-1700;-1800;-1900;-2000;-2100;-2200;-2200;-2100;-2100;-2000;-1900;-1800;-1800;-1700;-1700;-1600;-1600;-1500;-1500;-1600;-1600;-1700;-1700;-1600;-1700;-1700;-1800;-1900;-2000;-2100;-2200;-2200;-2300;-2400;-2400;-2500;-2600;-2700;-2700;-2800;-2800;-2700;-2700;-2600;-2500;-2400;-2400;-2300;-2200;-2100;-2000;-1900;-1800;-1700;-1800;-1900;-2000;-2100;-2200;-2300;-2400;-2400;-2500;-2600;-2700;-2700;-2800;-2800"/>
<animate attributeName="cx" dur="131.88000000000002s" keyTimes="0.0;0.0021186441;0.0042372881;0.0254237288;0.0275423729;0.031779661;0.0338983051;0.0423728814;0.0444915254;0.0466101695;0.0487288136;0.0508474576;0.0529661017;0.0550847458;0.0572033898;0.0593220339;0.061440678;0.063559322;0.0656779661;0.0677966102;0.0699152542;0.0720338983;0.0741525424;0.0762711864;0.0783898305;0.0805084746;0.0826271186;0.0847457627;0.1059322034;0.1080508475;0.1144067797;0.1165254237;0.1228813559;0.125;0.1525423729;0.1546610169;0.156779661;0.1588983051;0.1652542373;0.1673728814;0.1694915254;0.1737288136;0.1758474576;0.1779661017;0.1800847458;0.1822033898;0.1843220339;0.186440678;0.188559322;0.1949152542;0.1970338983;0.2394067797;0.2415254237;0.2478813559;0.25;0.2521186441;0.2542372881;0.2563559322;0.2584745763;0.2605932203;0.2627118644;0.2648305085;0.2669491525;0.2690677966;0.2711864407;0.2733050847;0.2754237288;0.2775423729;0.2796610169;0.281779661;0.2838983051;0.2860169492;0.2881355932;0.2923728814;0.2944915254;0.3177966102;0.3199152542;0.3241525424;0.3262711864;0.3283898305;0.3305084746;0.3326271186;0.3347457627;0.3368644068;0.3389830508;0.3411016949;0.343220339;0.3453389831;0.3474576271;0.3495762712;0.3516949153;0.3538135593;0.3601694915;0.3622881356;0.3644067797;0.3665254237;0.3940677966;0.3961864407;0.3983050847;0.4004237288;0.4025423729;0.4046610169;0.406779661;0.4088983051;0.4131355932;0.4152542373;0.4194915254;0.4216101695;0.4279661017;0.4300847458;0.4322033898;0.4343220339;0.436440678;0.438559322;0.4406779661;0.4427966102;0.4449152542;0.4470338983;0.4491525424;0.4512711864;0.4533898305;0.4555084746;0.4576271186;0.4597457627;0.4618644068;0.4639830508;0.4661016949;0.468220339;0.4703389831;0.4724576271;0.4745762712;0.4766949153;0.4788135593;0.4809322034;0.5423728814;0.5444915254;0.5466101695;0.5508474576;0.5529661017;0.5550847458;0.5699152542;0.5720338983;0.5741525424;0.5762711864;0.5783898305;0.5805084746;0.5826271186;0.5847457627;0.5868644068;0.5889830508;0.5911016949;0.593220339;0.5953389831;0.5974576271;0.5995762712;0.6016949153;0.6038135593;0.6059322034;0.6080508475;0.6101694915;0.6122881356;0.6144067797;0.6165254237;0.6186440678;0.6207627119;0.6228813559;0.6631355932;0.6652542373;0.6822033898;0.6843220339;0.6949152542;0.6970338983;0.6991525424;0.7012711864;0.7033898305;0.7055084746;0.7076271186;0.7097457627;0.7118644068;0.7139830508;0.7161016949;0.718220339;0.7203389831;0.7224576271;0.7245762712;0.7266949153;0.7288135593;0.7309322034;0.7330508475;0.7351694915;0.7372881356;0.7394067797;0.7415254237;0.7478813559;0.75;0.7521186441;0.7542372881;0.7563559322;0.7584745763;0.7605932203;0.7627118644;0.7648305085;0.7669491525;0.7690677966;0.7711864407;0.7733050847;0.7754237288;0.7775423729;0.7796610169;0.781779661;0.7838983051;0.7860169492;0.7881355932;0.7902542373;0.7923728814;0.7944915254;0.7966101695;0.7987288136;0.8008474576;0.8029661017;0.8050847458;0.8072033898;0.8093220339;0.811440678;0.813559322;0.8156779661;0.8177966102;0.8199152542;0.8220338983;0.8262711864;0.8283898305;0.8389830508;0.8411016949;0.843220339;0.8453389831;0.8474576271;0.8495762712;0.8516949153;0.8538135593;0.8559322034;0.8580508475;0.8622881356;0.8644067797;0.8665254237;0.8686440678;0.8707627119;0.8728813559;0.875;0.8771186441;0.8792372881;0.8855932203;0.8877118644;0.8898305085;0.8919491525;0.8940677966;0.8961864407;0.8983050847;0.9004237288;0.9025423729;0.9046610169;0.906779661;0.9088983051;0.9110169492;0.9131355932;0.9152542373;0.9173728814;0.9194915254;0.9216101695;0.9237288136;0.9258474576;0.9279661017;0.9300847458;0.9322033898;0.9343220339;0.9406779661;0.9427966102;0.9724576271;0.9745762712;0.9809322034;0.9830508475;0.9851694915;0.9872881356;0.9894067797;0.9915254237;0.9936440678;0.9957627119;1.0" repeatCount="indefinite" values="2500;2500;2600;2600;2700;2700;2800;2800;2900;3000;3100;3200;3300;3400;3500;3400;3300;3200;3100;3000;2900;2800;2700;2600;2500;2400;2300;2200;2200;2100;2100;2000;2000;1900;1900;1800;1800;1700;1700;1600;1500;1500;1400;1300;1200;1100;1000;900;800;800;700;700;800;800;900;1000;1100;1200;1300;1400;1500;1500;1600;1700;1800;1900;2000;2100;2200;2300;2400;2500;2600;2600;2700;2700;2800;2800;2900;2900;2800;2700;2600;2500;2400;2300;2200;2100;2100;2000;2000;1900;1900;1800;1800;1700;1700;1800;1900;2000;2100;2200;2300;2400;2400;2500;2500;2600;2600;2700;2800;2800;2900;2900;3000;3000;2900;2800;2700;2600;2600;2500;2400;2300;2200;2100;2000;1900;1800;1700;1600;1500;1400;1300;1300;1400;1500;1500;1600;1700;1700;1800;1800;1900;2000;2100;2200;2300;2400;2500;2600;2500;2400;2300;2200;2100;2000;1900;1800;1800;1700;1600;1500;1400;1300;1200;1200;1100;1100;1200;1200;1300;1400;1500;1600;1700;1800;1900;2000;2100;2200;2300;2400;2500;2600;2700;2700;2800;2900;3000;3100;3200;3300;3300;3400;3500;3500;3600;3600;3700;3700;3600;3500;3400;3300;3200;3100;3000;2900;2800;2700;2600;2600;2500;2400;2300;2200;2200;2100;2000;1900;1800;1700;1600;1500;1400;1300;1200;1100;1100;1200;1200;1300;1400;1500;1600;1700;1800;1900;2000;2100;2100;2200;2300;2400;2500;2600;2700;2800;2900;2900;2800;2800;2700;2600;2500;2400;2300;2200;2100;2000;1900;1800;1700;1600;1500;1500;1400;1300;1200;1100;1000;900;800;800;700;700;800;800;900;1000;1100;1200;1300;1400;1500;1500"/>
<animate attributeName="visibility" dur="131.88000000000002s" keyTimes="0.0;0.0021186441;1.0" repeatCount="indefinite" values="visible;visible;visible"/> </circle>
<circle cx="3000" cy="-1900" fill="#2e6f9e" r="35"> <animate attributeName="cy" dur="131.88000000000002s" keyTimes="0.0;0.0021186441;0.0042372881;0.0063559322;0.0084745763;0.0105932203;0.0127118644;0.0148305085;0.0169491525;0.0190677966;0.0211864407;0.0233050847;0.0338983051;0.0360169492;0.0381355932;0.0402542373;0.0423728814;0.0444915254;0.0466101695;0.0487288136;0.0508474576;0.0529661017;0.0550847458;0.0572033898;0.0593220339;0.061440678;0.063559322;0.0656779661;0.0677966102;0.0699152542;0.0720338983;0.0741525424;0.0762711864;0.0783898305;0.0805084746;0.0826271186;0.0847457627;0.0868644068;0.0889830508;0.0911016949;0.093220339;0.0953389831;0.0974576271;0.0995762712;0.1016949153;0.1038135593;0.1080508475;0.1101694915;0.1122881356;0.1144067797;0.125;0.1271186441;0.1292372881;0.1313559322;0.1334745763;0.1504237288;0.1525423729;0.1546610169;0.156779661;0.1588983051;0.2055084746;0.2076271186;0.2097457627;0.3347457627;0.3368644068;0.3389830508;0.5254237288;0.5275423729;0.5296610169;0.5953389831;0.5974576271;0.5995762712;0.6122881356;0.6144067797;0.6165254237;0.6186440678;0.6207627119;0.6228813559;0.6588983051;0.6610169492;0.6631355932;0.7838983051;0.7860169492;0.7881355932;0.7944915254;0.7966101695;0.7987288136;0.8072033898;0.8093220339;0.811440678;0.8156779661;0.8177966102;0.8199152542;0.8262711864;0.8283898305;0.8305084746;0.8326271186;0.8347457627;0.8368644068;0.8389830508;0.8411016949;0.843220339;0.8453389831;0.8474576271;0.8495762712;0.8516949153;0.8538135593;0.8559322034;0.8580508475;0.8601694915;0.8622881356;0.8644067797;0.8665254237;0.8686440678;0.8707627119;0.8728813559;0.875;0.8771186441;0.8792372881;0.8813559322;0.8834745763;0.8855932203;0.906779661;0.9088983051;0.9110169492;0.9131355932;0.9152542373;0.9173728814;0.9216101695;0.9237288136;0.9258474576;0.936440678;0.938559322;0.9406779661;0.9427966102;0.9449152542;0.9470338983;0.9491525424;0.9512711864;0.9533898305;0.9555084746;0.9576271186;0.9597457627;0.9618644068;0.9872881356;0.9894067797;0.9915254237;1.0" repeatCount="indefinite" values="-1900;-1900;-2000;-2100;-2200;-2300;-2300;-2200;-2300;-2400;-2500;-2600;-2600;-2500;-2400;-2400;-2300;-2200;-2100;-2000;-1900;-1800;-1700;-1600;-1500;-1600;-1700;-1800;-1900;-2000;-2100;-2200;-2300;-2400;-2400;-2500;-2500;-2600;-2500;-2500;-2600;-2700;-2800;-2900;-3000;-3100;-3100;-3000;-3000;-3100;-3100;-3200;-3300;-3400;-3500;-3500;-3400;-3300;-3200;-3300;-3300;-3200;-3300;-3300;-3200;-3300;-3300;-3200;-3300;-3300;-3200;-3300;-3300;-3200;-3300;-3300;-3200;-3300;-3300;-3200;-3300;-3300;-3200;-3300;-3300;-3200;-3300;-3300;-3200;-3300;-3300;-3200;-3300;-3300;-3200;-3300;-3300;-3200;-3300;-3200;-3300;-3300;-3200;-3300;-3300;-3200;-3300;-3200;-3300;-3200;-3200;-3300;-3300;-3200;-3300;-3200;-3200;-3100;-3200;-3300;-3400;-3500;-3500;-3400;-3400;-3300;-3200;-3300;-3300;-3400;-3500;-3500;-3400;-3300;-3200;-3200;-3100;-3000;-2900;-2800;-2700;-2600;-2500;-2400;-2400;-2300;-2200;-2200"/>
<animate attributeName="cx" dur="131.88000000000002s" keyTimes="0.0;0.0021186441;0.0105932203;0.0127118644;0.0233050847;0.0254237288;0.0275423729;0.0296610169;0.031779661;0.0381355932;0.0402542373;0.0783898305;0.0805084746;0.0889830508;0.0911016949;0.1038135593;0.1059322034;0.1101694915;0.1122881356;0.1144067797;0.1165254237;0.1186440678;0.1207627119;0.1228813559;0.125;0.1334745763;0.1355932203;0.1377118644;0.1398305085;0.1419491525;0.1440677966;0.1461864407;0.1483050847;0.1504237288;0.1588983051;0.1610169492;0.4851694915;0.4872881356;0.4894067797;0.6906779661;0.6927966102;0.6949152542;0.8220338983;0.8241525424;0.8262711864;0.8601694915;0.8622881356;0.8644067797;0.8665254237;0.8728813559;0.875;0.8855932203;0.8877118644;0.8898305085;0.8919491525;0.8940677966;0.8961864407;0.8983050847;0.9004237288;0.9025423729;0.9046610169;0.906779661;0.9088983051;0.9110169492;0.9173728814;0.9194915254;0.9216101695;0.9258474576;0.9279661017;0.9300847458;0.9322033898;0.9343220339;0.936440678;0.9427966102;0.9449152542;0.9618644068;0.9639830508;0.9661016949;0.968220339;0.9703389831;0.9724576271;0.9745762712;0.9766949153;0.9788135593;0.9809322034;0.9830508475;0.9851694915;0.9872881356;0.9915254237;0.9936440678;0.9957627119;0.9978813559;1.0" repeatCount="indefinite" values="3000;3000;3000;2900;2900;2800;2700;2600;2500;2500;2600;2600;2500;2500;2400;2400;2300;2300;2200;2200;2100;2000;1900;1800;1700;1700;1600;1600;1500;1600;1500;1400;1300;1200;1200;1300;1300;1200;1300;1300;1200;1300;1300;1200;1300;1300;1200;1200;1300;1300;1200;1200;1300;1400;1500;1600;1700;1800;1900;2000;2100;2000;2000;2100;2100;2200;2300;2300;2400;2500;2600;2700;2800;2800;2900;2900;3000;3100;3000;2900;2800;2700;2600;2500;2400;2300;2200;2100;2100;2000;1900;2000;2000"/>
<animate attributeName="visibility" dur="131.88000000000002s" keyTimes="0.0;0.0021186441;1.0" repeatCount="indefinite" values="visible;visible;visible"/> </circle>
<circle cx="3500" cy="-3000" fill="none" r="35" stroke="#c1433c" stroke-width="10"> <animate attributeName="cy" dur="131.88000000000002s" keyTimes="0.0;0.0021186441;0.0550847458;0.0572033898;0.0974576271;0.0995762712;0.1186440678;0.1207627119;0.1588983051;0.1610169492;0.2161016949;0.218220339;0.2860169492;0.2881355932;0.3262711864;0.3283898305;0.3665254237;0.3686440678;0.3707627119;0.4088983051;0.4110169492;0.4406779661;0.4427966102;0.5042372881;0.5063559322;0.5889830508;0.5911016949;0.6716101695;0.6737288136;0.7203389831;0.7224576271;0.7605932203;0.7627118644;0.8220338983;0.8241525424;0.8771186441;0.8792372881;0.8877118644;0.8898305085;0.9555084746;0.9576271186;1.0" repeatCount="indefinite" values="-3000;-3000;-3000;-2300;-2300;-1500;-1500;-3100;-3100;-1400;-1400;-2800;-2800;-1200;-1200;-1900;-1900;-2000;-3200;-3200;-2300;-2300;-1000;-1000;-3700;-3700;-1300;-1300;-2200;-2200;-1500;-1500;-1600;-1600;-2400;-2400;-2800;-2800;-1700;-1700;-3300;-3300"/>
<animate attributeName="cx" dur="131.88000000000002s" keyTimes="0.0;0.0021186441;0.0550847458;0.0572033898;0.0974576271;0.0995762712;0.1186440678;0.1207627119;0.1588983051;0.1610169492;0.2161016949;0.218220339;0.2860169492;0.2881355932;0.3262711864;0.3283898305;0.3686440678;0.3707627119;0.4088983051;0.4110169492;0.4406779661;0.4427966102;0.5042372881;0.5063559322;0.5889830508;0.5911016949;0.6716101695;0.6737288136;0.7203389831;0.7224576271;0.7605932203;0.7627118644;0.8220338983;0.8241525424;0.8771186441;0.8792372881;0.8877118644;0.8898305085;0.9555084746;0.9576271186;1.0" repeatCount="indefinite" values="3500;3500;3500;2200;2200;2000;2000;1700;1700;700;700;2600;2600;2900;2900;1700;1700;2400;2400;3000;3000;1300;1300;2600;2600;1100;1100;2500;2500;3700;3700;1100;1100;2900;2900;2800;2800;700;700;1700;1700"/>
<animate attributeName="visibility" dur="131.88000000000002s" keyTimes="0.0;0.0021186441;1.0" repeatCount="indefinite" values="visible;visible;visible"/> </circle>
<circle cx="2600" cy="-2600" fill="none" r="35" stroke="#2e6f9e" stroke-width="10"> <animate attributeName="cy" dur="131.88000000000002s" keyTimes="0.0;0.0021186441;0.0275423729;0.0296610169;0.0572033898;0.0593220339;0.1228813559;0.125;0.9131355932;0.9152542373;0.9343220339;0.936440678;0.9639830508;0.9661016949;1.0" repeatCount="indefinite" values="-2600;-2600;-2600;-1500;-1500;-3100;-3100;-3200;-3200;-3500;-3500;-2400;-2400;-800;-800"/>
<animate attributeName="cx" dur="131.88000000000002s" keyTimes="0.0;0.0021186441;0.0572033898;0.0593220339;0.1228813559;0.125;0.1546610169;0.156779661;0.9131355932;0.9152542373;0.9343220339;0.936440678;0.9639830508;0.9661016949;1.0" repeatCount="indefinite" values="2600;2600;2600;1700;1700;1200;1200;2100;2100;2800;2800;3100;3100;1300;1300"/>
<animate attributeName="visibility" dur="131.88000000000002s" keyTimes="0.0;0.0021186441;1.0" repeatCount="indefinite" values="visible;visible;visible"/> </circle>
</svg>