<?xml version="1.0" encoding="UTF-8"?>
        <svg xmlns="http://www.w3.org/2000/svg" xmlns:xlink="http://www.w3.org/1999/xlink"
             width="430" height="430" viewBox="0 -4300 4300 4300">

<defs>

</defs>

<rect fill="#84A1AE" height="70" rx="15" width="70" x="465" y="-535" />
<rect fill="#84A1AE" height="70" rx="15" width="70" x="465" y="-635" />
<rect fill="#84A1AE" height="70" rx="15" width="70" x="465" y="-735" />
<rect fill="#84A1AE" height="70" rx="15" width="70" x="465" y="-835" />
<rect fill="#84A1AE" height="70" rx="15" width="70" x="465" y="-935" />
<rect fill="#84A1AE" height="70" rx="15" width="70" x="465" y="-1035" />
<rect fill="#84A1AE" height="70" rx="15" width="70" x="465" y="-1135" />
<rect fill="#84A1AE" height="70" rx="15" width="70" x="465" y="-1235" />
<rect fill="#84A1AE" height="70" rx="15" width="70" x="465" y="-1335" />
<rect fill="#84A1AE" height="70" rx="15" width="70" x="465" y="-1435" />
<rect fill="#84A1AE" height="70" rx="15" width="70" x="465" y="-1535" />
<rect fill="#84A1AE" height="70" rx="15" width="70" x="465" y="-1635" />
<rect fill="#84A1AE" height="70" rx="15" width="70" x="465" y="-1735" />
<rect fill="#84A1AE" height="70" rx="15" width="70" x="465" y="-1835" />
<rect fill="#84A1AE" height="70" rx="15" width="70" x="465" y="-1935" />
<rect fill="#84A1AE" height="70" rx="15" width="70" x="465" y="-2035" />
<rect fill="#84A1AE" height="70" rx="15" width="70" x="465" y="-2135" />
<rect fill="#84A1AE" height="70" rx="15" width="70" x="465" y="-2235" />
<rect fill="#84A1AE" height="70" rx="15" width="70" x="465" y="-2335" />
<rect fill="#84A1AE" height="70" rx="15" width="70" x="465" y="-2435" />
<rect fill="#84A1AE" height="70" rx="15" width="70" x="465" y="-2535" />
<rect fill="#84A1AE" height="70" rx="15" width="70" x="465" y="-2635" />
<rect fill="#84A1AE" height="70" rx="15" width="70" x="465" y="-2735" />
<rect fill="#84A1AE" height="70" rx="15" width="70" x="465" y="-2835" />
<rect fill="#84A1AE" height="70" rx="15" width="70" x="465" y="-2935" />
<rect fill="#84A1AE" height="70" rx="15" width="70" x="465" y="-3035" />
<rect fill="#84A1AE" height="70" rx="15" width="70" x="465" y="-3135" />
<rect fill="#84A1AE" height="70" rx="15" width="70" x="465" y="-3235" />
<rect fill="#84A1AE" height="70" rx="15" width="70" x="465" y="-3335" />
<rect fill="#84A1AE" height="70" rx="15" width="70" x="465" y="-3435" />
<rect fill="#84A1AE" height="70" rx="15" width="70" x="465" y="-3535" />
<rect fill="#84A1AE" height="70" rx="15" width="70" x="465" y="-3635" />
<rect fill="#84A1AE" height="70" rx="15" width="70" x="465" y="-3735" />
<rect fill="#84A1AE" height="70" rx="15" width="70" x="465" y="-3835" />
<rect fill="#84A1AE" height="70" rx="15" width="70" x="565" y="-535" />
<rect fill="#84A1AE" height="70" rx="15" width="70" x="565" y="-1635" />
<rect fill="#84A1AE" height="70" rx="15" width="70" x="565" y="-1935" />
<rect fill="#84A1AE" height="70" rx="15" width="70" x="565" y="-2735" />
<rect fill="#84A1AE" height="70" rx="15" width="70" x="565" y="-3835" />
<rect fill="#84A1AE" height="70" rx="15" width="70" x="665" y="-535" />
<rect fill="#84A1AE" height="70" rx="15" width="70" x="665" y="-1035" />
<rect fill="#84A1AE" height="70" rx="15" width="70" x="665" y="-2535" />
<rect fill="#84A1AE" height="70" rx="15" width="70" x="665" y="-3035" />
<rect fill="#84A1AE" height="70" rx="15" width="70" x="665" y="-3235" />
<rect fill="#84A1AE" height="70" rx="15" width="70" x="665" y="-3835" />
<rect fill="#84A1AE" height="70" rx="15" width="70" x="765" y="-535" />
<rect fill="#84A1AE" height="70" rx="15" width="70" x="765" y="-635" />
<rect fill="#84A1AE" height="70" rx="15" width="70" x="765" y="-3835" />
<rect fill="#84A1AE" height="70" rx="15" width="70" x="865" y="-535" />
<rect fill="#84A1AE" height="70" rx="15" width="70" x="865" y="-2435" />
<rect fill="#84A1AE" height="70" rx="15" width="70" x="865" y="-2535" />
<rect fill="#84A1AE" height="70" rx="15" width="70" x="865" y="-3335" />
<rect fill="#84A1AE" height="70" rx="15" width="70" x="865" y="-3435" />
<rect fill="#84A1AE" height="70" rx="15" width="70" x="865" y="-3835" />
<rect fill="#84A1AE" height="70" rx="15" width="70" x="965" y="-535" />
<rect fill="#84A1AE" height="70" rx="15" width="70" x="965" y="-735" />
<rect fill="#84A1AE" height="70" rx="15" width="70" x="965" y="-1635" />
<rect fill="#84A1AE" height="70" rx="15" width="70" x="965" y="-1835" />
<rect fill="#84A1AE" height="70" rx="15" width="70" x="965" y="-2835" />
<rect fill="#84A1AE" height="70" rx="15" width="70" x="965" y="-3435" />
<rect fill="#84A1AE" height="70" rx="15" width="70" x="965" y="-3835" />
<rect fill="#84A1AE" height="70" rx="15" width="70" x="1065" y="-535" />
<rect fill="#84A1AE" height="70" rx="15" width="70" x="1065" y="-1135" />
<rect fill="#84A1AE" height="70" rx="15" width="70" x="1065" y="-1835" />
<rect fill="#84A1AE" height="70" rx="15" width="70" x="1065" y="-3735" />
<rect fill="#84A1AE" height="70" rx="15" width="70" x="1065" y="-3835" />
<rect fill="#84A1AE" height="70" rx="15" width="70" x="1165" y="-535" />
<rect fill="#84A1AE" height="70" rx="15" width="70" x="1165" y="-635" />
<rect fill="#84A1AE" height="70" rx="15" width="70" x="1165" y="-735" />
<rect fill="#84A1AE" height="70" rx="15" width="70" x="1165" y="-1535" />
<rect fill="#84A1AE" height="70" rx="15" width="70" x="1165" y="-3835" />
<rect fill="#84A1AE" height="70" rx="15" width="70" x="1265" y="-535" />
<rect fill="#84A1AE" height="70" rx="15" width="70" x="1265" y="-2835" />
<rect fill="#84A1AE" height="70" rx="15" width="70" x="1265" y="-3435" />
<rect fill="#84A1AE" height="70" rx="15" width="70" x="1265" y="-3835" />
<rect fill="#84A1AE" height="70" rx="15" width="70" x="1365" y="-535" />
<rect fill="#84A1AE" height="70" rx="15" width="70" x="1365" y="-835" />
<rect fill="#84A1AE" height="70" rx="15" width="70" x="1365" y="-935" />
<rect fill="#84A1AE" height="70" rx="15" width="70" x="1365" y="-1035" />
<rect fill="#84A1AE" height="70" rx="15" width="70" x="1365" y="-1935" />
<rect fill="#84A1AE" height="70" rx="15" width="70" x="1365" y="-2335" />
<rect fill="#84A1AE" height="70" rx="15" width="70" x="1365" y="-2635" />
<rect fill="#84A1AE" height="70" rx="15" width="70" x="1365" y="-2835" />
<rect fill="#84A1AE" height="70" rx="15" width="70" x="1365" y="-2935" />
<rect fill="#84A1AE" height="70" rx="15" width="70" x="1365" y="-3035" />
<rect fill="#84A1AE" height="70" rx="15" width="70" x="1365" y="-3335" />
<rect fill="#84A1AE" height="70" rx="15" width="70" x="1365" y="-3835" />
<rect fill="#84A1AE" height="70" rx="15" width="70" x="1465" y="-535" />
<rect fill="#84A1AE" height="70" rx="15" width="70" x="1465" y="-1235" />
<rect fill="#84A1AE" height="70" rx="15" width="70" x="1465" y="-1535" />
<rect fill="#84A1AE" height="70" rx="15" width="70" x="1465" y="-2035" />
<rect fill="#84A1AE" height="70" rx="15" width="70" x="1465" y="-3135" />
<rect fill="#84A1AE" height="70" rx="15" width="70" x="1465" y="-3235" />
<rect fill="#84A1AE" height="70" rx="15" width="70" x="1465" y="-3835" />
<rect fill="#84A1AE" height="70" rx="15" width="70" x="1565" y="-535" />
<rect fill="#84A1AE" height="70" rx="15" width="70" x="1565" y="-3035" />
<rect fill="#84A1AE" height="70" rx="15" width="70" x="1565" y="-3835" />
<rect fill="#84A1AE" height="70" rx="15" width="70" x="1665" y="-535" />
<rect fill="#84A1AE" height="70" rx="15" width="70" x="1665" y="-3735" />
<rect fill="#84A1AE" height="70" rx="15" width="70" x="1665" y="-3835" />
<rect fill="#84A1AE" height="70" rx="15" width="70" x="1765" y="-535" />
<rect fill="#84A1AE" height="70" rx="15" width="70" x="1765" y="-1235" />
<rect fill="#84A1AE" height="70" rx="15" width="70" x="1765" y="-3835" />
<rect fill="#84A1AE" height="70" rx="15" width="70" x="1865" y="-535" />
<rect fill="#84A1AE" height="70" rx="15" width="70" x="1865" y="-735" />
<rect fill="#84A1AE" height="70" rx="15" width="70" x="1865" y="-1335" />
<rect fill="#84A1AE" height="70" rx="15" width="70" x="1865" y="-3235" />
<rect fill="#84A1AE" height="70" rx="15" width="70" x="1865" y="-3435" />
<rect fill="#84A1AE" height="70" rx="15" width="70" x="1865" y="-3835" />
<rect fill="#84A1AE" height="70" rx="15" width="70" x="1965" y="-535" />
<rect fill="#84A1AE" height="70" rx="15" width="70" x="1965" y="-635" />
<rect fill="#84A1AE" height="70" rx="15" width="70" x="1965" y="-1835" />
<rect fill="#84A1AE" height="70" rx="15" width="70" x="1965" y="-1935" />
<rect fill="#84A1AE" height="70" rx="15" width="70" x="1965" y="-2135" />
<rect fill="#84A1AE" height="70" rx="15" width="70" x="1965" y="-2335" />
<rect fill="#84A1AE" height="70" rx="15" width="70" x="1965" y="-2435" />
<rect fill="#84A1AE" height="70" rx="15" width="70" x="1965" y="-3335" />
<rect fill="#84A1AE" height="70" rx="15" width="70" x="1965" y="-3835" />
<rect fill="#84A1AE" height="70" rx="15" width="70" x="2065" y="-535" />
<rect fill="#84A1AE" height="70" rx="15" width="70" x="2065" y="-1535" />
<rect fill="#84A1AE" height="70" rx="15" width="70" x="2065" y="-1635" />
<rect fill="#84A1AE" height="70" rx="15" width="70" x="2065" y="-2135" />
<rect fill="#84A1AE" height="70" rx="15" width="70" x="2065" y="-3835" />
<rect fill="#84A1AE" height="70" rx="15" width="70" x="2165" y="-535" />
<rect fill="#84A1AE" height="70" rx="15" width="70" x="2165" y="-935" />
<rect fill="#84A1AE" height="70" rx="15" width="70" x="2165" y="-1335" />
<rect fill="#84A1AE" height="70" rx="15" width="70" x="2165" y="-1835" />
<rect fill="#84A1AE" height="70" rx="15" width="70" x="2165" y="-3835" />
<rect fill="#84A1AE" height="70" rx="15" width="70" x="2265" y="-535" />
<rect fill="#84A1AE" height="70" rx="15" width="70" x="2265" y="-935" />
<rect fill="#84A1AE" height="70" rx="15" width="70" x="2265" y="-1135" />
<rect fill="#84A1AE" height="70" rx="15" width="70" x="2265" y="-2535" />
<rect fill="#84A1AE" height="70" rx="15" width="70" x="2265" y="-3235" />
<rect fill="#84A1AE" height="70" rx="15" width="70" x="2265" y="-3835" />
<rect fill="#84A1AE" height="70" rx="15" width="70" x="2365" y="-535" />
<rect fill="#84A1AE" height="70" rx="15" width="70" x="2365" y="-935" />
<rect fill="#84A1AE" height="70" rx="15" width="70" x="2365" y="-1035" />
<rect fill="#84A1AE" height="70" rx="15" width="70" x="2365" y="-3835" />
<rect fill="#84A1AE" height="70" rx="15" width="70" x="2465" y="-535" />
<rect fill="#84A1AE" height="70" rx="15" width="70" x="2465" y="-935" />
<rect fill="#84A1AE" height="70" rx="15" width="70" x="2465" y="-1535" />
<rect fill="#84A1AE" height="70" rx="15" width="70" x="2465" y="-2335" />
<rect fill="#84A1AE" height="70" rx="15" width="70" x="2465" y="-2735" />
<rect fill="#84A1AE" height="70" rx="15" width="70" x="2465" y="-3835" />
<rect fill="#84A1AE" height="70" rx="15" width="70" x="2565" y="-535" />
<rect fill="#84A1AE" height="70" rx="15" width="70" x="2565" y="-735" />
<rect fill="#84A1AE" height="70" rx="15" width="70" x="2565" y="-2535" />
<rect fill="#84A1AE" height="70" rx="15" width="70" x="2565" y="-3835" />
<rect fill="#84A1AE" height="70" rx="15" width="70" x="2665" y="-535" />
<rect fill="#84A1AE" height="70" rx="15" width="70" x="2665" y="-635" />
<rect fill="#84A1AE" height="70" rx="15" width="70" x="2665" y="-1135" />
<rect fill="#84A1AE" height="70" rx="15" width="70" x="2665" y="-1435" />
<rect fill="#84A1AE" height="70" rx="15" width="70" x="2665" y="-2735" />
<rect fill="#84A1AE" height="70" rx="15" width="70" x="2665" y="-3835" />
<rect fill="#84A1AE" height="70" rx="15" width="70" x="2765" y="-535" />
<rect fill="#84A1AE" height="70" rx="15" width="70" x="2765" y="-1635" />
<rect fill="#84A1AE" height="70" rx="15" width="70" x="2765" y="-1835" />
<rect fill="#84A1AE" height="70" rx="15" width="70" x="2765" y="-1935" />
<rect fill="#84A1AE" height="70" rx="15" width="70" x="2765" y="-2235" />
<rect fill="#84A1AE" height="70" rx="15" width="70" x="2765" y="-3735" />
<rect fill="#84A1AE" height="70" rx="15" width="70" x="2765" y="-3835" />
<rect fill="#84A1AE" height="70" rx="15" width="70" x="2865" y="-535" />
<rect fill="#84A1AE" height="70" rx="15" width="70" x="2865" y="-3835" />
<rect fill="#84A1AE" height="70" rx="15" width="70" x="2965" y="-535" />
<rect fill="#84A1AE" height="70" rx="15" width="70" x="2965" y="-2635" />
<rect fill="#84A1AE" height="70" rx="15" width="70" x="2965" y="-3835" />
<rect fill="#84A1AE" height="70" rx="15" width="70" x="3065" y="-535" />
<rect fill="#84A1AE" height="70" rx="15" width="70" x="3065" y="-735" />
<rect fill="#84A1AE" height="70" rx="15" width="70" x="3065" y="-2535" />
<rect fill="#84A1AE" height="70" rx="15" width="70" x="3065" y="-3835" />
<rect fill="#84A1AE" height="70" rx="15" width="70" x="3165" y="-535" />
<rect fill="#84A1AE" height="70" rx="15" width="70" x="3165" y="-835" />
<rect fill="#84A1AE" height="70" rx="15" width="70" x="3165" y="-1935" />
<rect fill="#84A1AE" height="70" rx="15" width="70" x="3165" y="-2735" />
<rect fill="#84A1AE" height="70" rx="15" width="70" x="3165" y="-3135" />
<rect fill="#84A1AE" height="70" rx="15" width="70" x="3165" y="-3835" />
<rect fill="#84A1AE" height="70" rx="15" width="70" x="3265" y="-535" />
<rect fill="#84A1AE" height="70" rx="15" width="70" x="3265" y="-1035" />
<rect fill="#84A1AE" height="70" rx="15" width="70" x="3265" y="-1735" />
<rect fill="#84A1AE" height="70" rx="15" width="70" x="3265" y="-3835" />
<rect fill="#84A1AE" height="70" rx="15" width="70" x="3365" y="-535" />
<rect fill="#84A1AE" height="70" rx="15" width="70" x="3365" y="-1435" />
<rect fill="#84A1AE" height="70" rx="15" width="70" x="3365" y="-1935" />
<rect fill="#84A1AE" height="70" rx="15" width="70" x="3365" y="-2135" />
<rect fill="#84A1AE" height="70" rx="15" width="70" x="3365" y="-3835" />
<rect fill="#84A1AE" height="70" rx="15" width="70" x="3465" y="-535" />
<rect fill="#84A1AE" height="70" rx="15" width="70" x="3465" y="-2635" />
<rect fill="#84A1AE" height="70" rx="15" width="70" x="3465" y="-3835" />
<rect fill="#84A1AE" height="70" rx="15" width="70" x="3565" y="-535" />
<rect fill="#84A1AE" height="70" rx="15" width="70" x="3565" y="-635" />
<rect fill="#84A1AE" height="70" rx="15" width="70" x="3565" y="-2435" />
<rect fill="#84A1AE" height="70" rx="15" width="70" x="3565" y="-3235" />
<rect fill="#84A1AE" height="70" rx="15" width="70" x="3565" y="-3835" />
<rect fill="#84A1AE" height="70" rx="15" width="70" x="3665" y="-535" />
<rect fill="#84A1AE" height="70" rx="15" width="70" x="3665" y="-2135" />
<rect fill="#84A1AE" height="70" rx="15" width="70" x="3665" y="-2835" />
<rect fill="#84A1AE" height="70" rx="15" width="70" x="3665" y="-3135" />
<rect fill="#84A1AE" height="70" rx="15" width="70" x="3665" y="-3735" />
<rect fill="#84A1AE" height="70" rx="15" width="70" x="3665" y="-3835" />
<rect fill="#84A1AE" height="70" rx="15" width="70" x="3765" y="-535" />
<rect fill="#84A1AE" height="70" rx="15" width="70" x="3765" y="-635" />
<rect fill="#84A1AE" height="70" rx="15" width="70" x="3765" y="-735" />
<rect fill="#84A1AE" height="70" rx="15" width="70" x="3765" y="-835" />
<rect fill="#84A1AE" height="70" rx="15" width="70" x="3765" y="-935" />
<rect fill="#84A1AE" height="70" rx="15" width="70" x="3765" y="-1035" />
<rect fill="#84A1AE" height="70" rx="15" width="70" x="3765" y="-1135" />
<rect fill="#84A1AE" height="70" rx="15" width="70" x="3765" y="-1235" />
<rect fill="#84A1AE" height="70" rx="15" width="70" x="3765" y="-1335" />
<rect fill="#84A1AE" height="70" rx="15" width="70" x="3765" y="-1435" />
<rect fill="#84A1AE" height="70" rx="15" width="70" x="3765" y="-1535" />
<rect fill="#84A1AE" height="70" rx="15" width="70" x="3765" y="-1635" />
<rect fill="#84A1AE" height="70" rx="15" width="70" x="3765" y="-1735" />
<rect fill="#84A1AE" height="70" rx="15" width="70" x="3765" y="-1835" />
<rect fill="#84A1AE" height="70" rx="15" width="70" x="3765" y="-1935" />
<rect fill="#84A1AE" height="70" rx="15" width="70" x="3765" y="-2035" />
<rect fill="#84A1AE" height="70" rx="15" width="70" x="3765" y="-2135" />
<rect fill="#84A1AE" height="70" rx="15" width="70" x="3765" y="-2235" />
<rect fill="#84A1AE" height="70" rx="15" width="70" x="3765" y="-2335" />
<rect fill="#84A1AE" height="70" rx="15" width="70" x="3765" y="-2435" />
<rect fill="#84A1AE" height="70" rx="15" width="70" x="3765" y="-2535" />
<rect fill="#84A1AE" height="70" rx="15" width="70" x="3765" y="-2635" />
<rect fill="#84A1AE" height="70" rx="15" width="70" x="3765" y="-2735" />
<rect fill="#84A1AE" height="70" rx="15" width="70" x="3765" y="-2835" />
<rect fill="#84A1AE" height="70" rx="15" width="70" x="3765" y="-2935" />
<rect fill="#84A1AE" height="70" rx="15" width="70" x="3765" y="-3035" />
<rect fill="#84A1AE" height="70" rx="15" width="70" x="3765" y="-3135" />
<rect fill="#84A1AE" height="70" rx="15" width="70" x="3765" y="-3235" />
<rect fill="#84A1AE" height="70" rx="15" width="70" x="3765" y="-3335" />
<rect fill="#84A1AE" height="70" rx="15" width="70" x="3765" y="-3435" />
<rect fill="#84A1AE" height="70" rx="15" width="70" x="3765" y="-3535" />
<rect fill="#84A1AE" height="70" rx="15" width="70" x="3765" y="-3635" />
<rect fill="#84A1AE" height="70" rx="15" width="70" x="3765" y="-3735" />
<rect fill="#84A1AE" height="70" rx="15" width="70" x="3765" y="-3835" />
<circle cx="2500" cy="-1400" fill="#c1433c" r="35"> <animate attributeName="cy" dur="30.520000000000003s" keyTimes="0.0;0.0090909091;0.0181818182;0.0272727273;0.0363636364;0.0454545455;0.0545454545;0.0636363636;0.0727272727;0.0818181818;0.0909090909;0.1;0.1090909091;0.1181818182;0.1272727273;0.1363636364;0.1454545455;0.1545454545;0.1636363636;0.1727272727;0.1818181818;0.2636363636;0.2727272727;0.2818181818;0.2909090909;0.3;0.3363636364;0.3454545455;0.3545454545;0.4090909091;0.4181818182;0.4272727273;0.4363636364;0.4454545455;0.4545454545;0.4636363636;0.4727272727;0.4818181818;0.4909090909;0.5;0.5090909091;0.5181818182;0.5272727273;0.5727272727;0.5818181818;0.5909090909;0.6;0.6181818182;0.6272727273;0.6363636364;0.6454545455;0.6545454545;0.6636363636;0.6727272727;0.6909090909;0.7;0.7090909091;0.7181818182;0.7272727273;0.7363636364;0.7454545455;0.7545454545;0.7818181818;0.7909090909;0.8181818182;0.8272727273;0.8363636364;0.8454545455;0.8545454545;0.8636363636;0.8727272727;0.8818181818;0.8909090909;0.9;0.9090909091;0.9181818182;0.9272727273;0.9454545455;0.9545454545;0.9818181818;0.9909090909;1.0" repeatCount="indefinite" values="-1400;-1400;-1400;-1500;-1600;-1700;-1800;-1900;-2000;-2100;-2200;-2300;-2400;-2400;-2500;-2600;-2600;-2700;-2800;-2900;-3000;-3000;-2900;-2800;-2700;-2600;-2600;-2500;-2400;-2400;-2300;-2200;-2100;-2000;-1900;-1800;-1700;-1600;-1500;-1400;-1400;-1300;-1200;-1200;-1100;-1200;-1300;-1300;-1400;-1500;-1500;-1600;-1600;-1700;-1700;-1800;-1900;-2000;-2000;-2100;-2100;-2200;-2200;-2300;-2300;-2400;-2400;-2500;-2400;-2300;-2200;-2200;-2100;-2000;-1900;-1900;-1800;-1800;-1700;-1700;-1600;-1600"/>
<animate attributeName="cx" dur="30.520000000000003s" keyTimes="0.0;0.0090909091;0.0181818182;0.1090909091;0.1181818182;0.1363636364;0.1454545455;0.1818181818;0.1909090909;0.2;0.2090909091;0.2181818182;0.2272727273;0.2363636364;0.2454545455;0.2545454545;0.2636363636;0.3090909091;0.3181818182;0.3272727273;0.3363636364;0.3545454545;0.3636363636;0.3727272727;0.3818181818;0.3909090909;0.4;0.4090909091;0.5;0.5090909091;0.5272727273;0.5363636364;0.5454545455;0.5545454545;0.5636363636;0.5727272727;0.6;0.6090909091;0.6181818182;0.6363636364;0.6454545455;0.6545454545;0.6636363636;0.6727272727;0.6818181818;0.6909090909;0.7181818182;0.7272727273;0.7363636364;0.7454545455;0.7545454545;0.7636363636;0.7727272727;0.7818181818;0.7909090909;0.8;0.8090909091;0.8181818182;0.8272727273;0.8363636364;0.8727272727;0.8818181818;0.9090909091;0.9181818182;0.9272727273;0.9363636364;0.9454545455;0.9545454545;0.9636363636;0.9727272727;0.9818181818;1.0" repeatCount="indefinite" values="2500;2500;2600;2600;2700;2700;2800;2800;2900;3000;3100;3200;3300;3400;3500;3400;3300;3300;3400;3300;3200;3200;3100;3000;2900;2800;2700;2600;2600;2500;2500;2600;2700;2800;2900;3000;3000;2900;2800;2800;2700;2700;2600;2600;2500;2400;2400;2300;2300;2200;2200;2100;2000;1900;1900;1800;1700;1600;1600;1500;1500;1600;1600;1700;1700;1800;1900;1900;2000;2100;2200;2200"/>
<animate attributeName="visibility" dur="30.520000000000003s" keyTimes="0.0;0.0090909091;1.0" repeatCount="indefinite" values="visible;visible;visible"/> </circle>
<circle cx="3000" cy="-1900" fill="#2e6f9e" r="35"> <animate attributeName="cy" dur="30.520000000000003s" keyTimes="0.0;0.0090909091;0.0272727273;0.0363636364;0.0454545455;0.0545454545;0.0636363636;0.0727272727;0.0818181818;0.1;0.1090909091;0.1181818182;0.1272727273;0.1454545455;0.1545454545;0.1636363636;0.1727272727;0.1818181818;0.1909090909;0.2;0.2090909091;0.2181818182;0.2363636364;0.2454545455;0.3090909091;0.3181818182;0.3636363636;0.3727272727;0.3818181818;0.3909090909;0.4181818182;0.4272727273;0.4454545455;0.4545454545;0.5090909091;0.5181818182;0.5272727273;0.5363636364;0.5454545455;0.5545454545;0.5818181818;0.5909090909;0.6;0.6090909091;0.6181818182;0.6272727273;0.6363636364;0.6727272727;0.6818181818;0.6909090909;0.7;0.7090909091;0.7181818182;0.7272727273;0.7363636364;0.7454545455;0.7545454545;0.7636363636;0.7818181818;0.7909090909;0.8;0.8272727273;0.8363636364;0.8636363636;0.8727272727;0.8818181818;0.9;0.9090909091;0.9181818182;0.9272727273;0.9727272727;0.9818181818;0.9909090909;1.0" repeatCount="indefinite" values="-1900;-1900;-1900;-1800;-1800;-1700;-1800;-1900;-2000;-2000;-2100;-2100;-2200;-2200;-2300;-2200;-2300;-2400;-2400;-2500;-2600;-2500;-2500;-2600;-2600;-2700;-2700;-2800;-2800;-2700;-2700;-2600;-2600;-2700;-2700;-2600;-2500;-2400;-2400;-2300;-2300;-2400;-2500;-2500;-2400;-2500;-2600;-2600;-2500;-2400;-2300;-2300;-2200;-2100;-2100;-2200;-2100;-2200;-2200;-2100;-2200;-2200;-2300;-2300;-2400;-2300;-2300;-2200;-2300;-2400;-2400;-2300;-2200;-2200"/>
<animate attributeName="cx" dur="30.520000000000003s" keyTimes="0.0;0.0090909091;0.0181818182;0.0272727273;0.0363636364;0.0454545455;0.0818181818;0.0909090909;0.1090909091;0.1181818182;0.1272727273;0.1363636364;0.1454545455;0.2272727273;0.2363636364;0.2454545455;0.2545454545;0.2636363636;0.2727272727;0.2818181818;0.2909090909;0.3;0.3090909091;0.3181818182;0.3272727273;0.3454545455;0.3545454545;0.3727272727;0.3818181818;0.4;0.4090909091;0.4272727273;0.4363636364;0.4454545455;0.4636363636;0.4727272727;0.4909090909;0.5;0.5363636364;0.5454545455;0.5545454545;0.5636363636;0.5727272727;0.5818181818;0.6363636364;0.6454545455;0.6545454545;0.6636363636;0.7;0.7090909091;0.7272727273;0.7363636364;0.8;0.8090909091;0.8181818182;0.8363636364;0.8454545455;0.8545454545;0.8636363636;0.9363636364;0.9454545455;0.9545454545;0.9636363636;0.9727272727;1.0" repeatCount="indefinite" values="3000;3000;3000;3100;3100;3000;3000;3100;3100;3000;3000;3100;3200;3200;3300;3300;3200;3100;3200;3200;3100;3200;3100;3100;3000;3000;3100;3100;3000;3000;3100;3100;3200;3100;3100;3000;3000;2900;2900;2800;2800;2700;2800;2700;2700;2600;2600;2700;2700;2600;2600;2500;2500;2600;2700;2700;2800;2700;2600;2600;2500;2500;2400;2300;2300"/>
<animate attributeName="visibility" dur="30.520000000000003s" keyTimes="0.0;0.0090909091;1.0" repeatCount="indefinite" values="visible;visible;visible"/> </circle>
<circle cx="3500" cy="-3000" fill="none" r="35" stroke="#c1433c" stroke-width="10"> <animate attributeName="cy" dur="30.520000000000003s" keyTimes="0.0;0.0090909091;0.2363636364;0.2454545455;0.3454545455;0.3545454545;0.5181818182;0.5272727273;0.5727272727;0.5818181818;0.8363636364;0.8454545455;1.0" repeatCount="indefinite" values="-3000;-3000;-3000;-2400;-2400;-1200;-1200;-1100;-1100;-2500;-2500;-900;-900"/>
<animate attributeName="cx" dur="30.520000000000003s" keyTimes="0.0;0.0090909091;0.2363636364;0.2454545455;0.3454545455;0.3545454545;0.5181818182;0.5272727273;0.5727272727;0.5818181818;0.8363636364;0.8454545455;1.0" repeatCount="indefinite" values="3500;3500;3500;3200;3200;2500;2500;3000;3000;1500;1500;2700;2700"/>
<animate attributeName="visibility" dur="30.520000000000003s" keyTimes="0.0;0.0090909091;1.0" repeatCount="indefinite" values="visible;visible;visible"/> </circle>
<circle cx="2600" cy="-2600" fill="none" r="35" stroke="#2e6f9e" stroke-width="10"> <animate attributeName="cy" dur="30.520000000000003s" keyTimes="0.0;0.0090909091;0.6363636364;0.6454545455;1.0" repeatCount="indefinite" values="-2600;-2600;-2600;-1200;-1200"/>
<animate attributeName="cx" dur="30.520000000000003s" keyTimes="0.0;0.0090909091;0.6363636364;0.6454545455;1.0" repeatCount="indefinite" values="2600;2600;2600;2200;2200"/>
<animate attributeName="visibility" dur="30.520000000000003s" keyTimes="0.0;0.0090909091;1.0" repeatCount="indefinite" values="visible;visible;visible"/> </circle>
</svg>