<?xml version="1.0" encoding="UTF-8"?>
        <svg xmlns="http://www.w3.org/2000/svg" xmlns:xlink="http://www.w3.org/1999/xlink"
             width="430" height="430" viewBox="0 -4300 4300 4300">

<defs>

</defs>

<rect fill="#84A1AE" height="70" rx="15" width="70" x="465" y="-535" />
<rect fill="#84A1AE" height="70" rx="15" width="70" x="465" y="-635" />
<rect fill="#84A1AE" height="70" rx="15" width="70" x="465" y="-735" />
<rect fill="#84A1AE" height="70" rx="15" width="70" x="465" y="-835" />
<rect fill="#84A1AE" height="70" rx="15" width="70" x="465" y="-935" />
<rect fill="#84A1AE" height="70" rx="15" width="70" x="465" y="-1035" />
<rect fill="#84A1AE" height="70" rx="15" width="70" x="465" y="-1135" />
<rect fill="#84A1AE" height="70" rx="15" width="70" x="465" y="-1235" />
<rect fill="#84A1AE" height="70" rx="15" width="70" x="465" y="-1335" />
<rect fill="#84A1AE" height="70" rx="15" width="70" x="465" y="-1435" />
<rect fill="#84A1AE" height="70" rx="15" width="70" x="465" y="-1535" />
<rect fill="#84A1AE" height="70" rx="15" width="70" x="465" y="-1635" />
<rect fill="#84A1AE" height="70" rx="15" width="70" x="465" y="-1735" />
<rect fill="#84A1AE" height="70" rx="15" width="70" x="465" y="-1835" />
<rect fill="#84A1AE" height="70" rx="15" width="70" x="465" y="-1935" />
<rect fill="#84A1AE" height="70" rx="15" width="70" x="465" y="-2035" />
<rect fill="#84A1AE" height="70" rx="15" width="70" x="465" y="-2135" />
<rect fill="#84A1AE" height="70" rx="15" width="70" x="465" y="-2235" />
<rect fill="#84A1AE" height="70" rx="15" width="70" x="465" y="-2335" />
<rect fill="#84A1AE" height="70" rx="15" width="70" x="465" y="-2435" />
<rect fill="#84A1AE" height="70" rx="15" width="70" x="465" y="-2535" />
<rect fill="#84A1AE" height="70" rx="15" width="70" x="465" y="-2635" />
<rect fill="#84A1AE" height="70" rx="15" width="70" x="465" y="-2735" />
<rect fill="#84A1AE" height="70" rx="15" width="70" x="465" y="-2835" />
<rect fill="#84A1AE" height="70" rx="15" width="70" x="465" y="-2935" />
<rect fill="#84A1AE" height="70" rx="15" width="70" x="465" y="-3035" />
<rect fill="#84A1AE" height="70" rx="15" width="70" x="465" y="-3135" />
<rect fill="#84A1AE" height="70" rx="15" width="70" x="465" y="-3235" />
<rect fill="#84A1AE" height="70" rx="15" width="70" x="465" y="-3335" />
<rect fill="#84A1AE" height="70" rx="15" width="70" x="465" y="-3435" />
<rect fill="#84A1AE" height="70" rx="15" width="70" x="465" y="-3535" />
<rect fill="#84A1AE" height="70" rx="15" width="70" x="465" y="-3635" />
<rect fill="#84A1AE" height="70" rx="15" width="70" x="465" y="-3735" />
<rect fill="#84A1AE" height="70" rx="15" width="70" x="465" y="-3835" />
<rect fill="#84A1AE" height="70" rx="15" width="70" x="565" y="-535" />
<rect fill="#84A1AE" height="70" rx="15" width="70" x="565" y="-1635" />
<rect fill="#84A1AE" height="70" rx="15" width="70" x="565" y="-1935" />
<rect fill="#84A1AE" height="70" rx="15" width="70" x="565" y="-2735" />
<rect fill="#84A1AE" height="70" rx="15" width="70" x="565" y="-3835" />
<rect fill="#84A1AE" height="70" rx="15" width="70" x="665" y="-535" />
<rect fill="#84A1AE" height="70" rx="15" width="70" x="665" y="-1035" />
<rect fill="#84A1AE" height="70" rx="15" width="70" x="665" y="-2535" />
<rect fill="#84A1AE" height="70" rx="15" width="70" x="665" y="-3035" />
<rect fill="#84A1AE" height="70" rx="15" width="70" x="665" y="-3235" />
<rect fill="#84A1AE" height="70" rx="15" width="70" x="665" y="-3835" />
<rect fill="#84A1AE" height="70" rx="15" width="70" x="765" y="-535" />
<rect fill="#84A1AE" height="70" rx="15" width="70" x="765" y="-635" />
<rect fill="#84A1AE" height="70" rx="15" width="70" x="765" y="-3835" />
<rect fill="#84A1AE" height="70" rx="15" width="70" x="865" y="-535" />
<rect fill="#84A1AE" height="70" rx="15" width="70" x="865" y="-2435" />
<rect fill="#84A1AE" height="70" rx="15" width="70" x="865" y="-2535" />
<rect fill="#84A1AE" height="70" rx="15" width="70" x="865" y="-3335" />
<rect fill="#84A1AE" height="70" rx="15" width="70" x="865" y="-3435" />
<rect fill="#84A1AE" height="70" rx="15" width="70" x="865" y="-3835" />
<rect fill="#84A1AE" height="70" rx="15" width="70" x="965" y="-535" />
<rect fill="#84A1AE" height="70" rx="15" width="70" x="965" y="-735" />
<rect fill="#84A1AE" height="70" rx="15" width="70" x="965" y="-1635" />
<rect fill="#84A1AE" height="70" rx="15" width="70" x="965" y="-1835" />
<rect fill="#84A1AE" height="70" rx="15" width="70" x="965" y="-2835" />
<rect fill="#84A1AE" height="70" rx="15" width="70" x="965" y="-3435" />
<rect fill="#84A1AE" height="70" rx="15" width="70" x="965" y="-3835" />
<rect fill="#84A1AE" height="70" rx="15" width="70" x="1065" y="-535" />
<rect fill="#84A1AE" height="70" rx="15" width="70" x="1065" y="-1135" />
<rect fill="#84A1AE" height="70" rx="15" width="70" x="1065" y="-1835" />
<rect fill="#84A1AE" height="70" rx="15" width="70" x="1065" y="-3735" />
<rect fill="#84A1AE" height="70" rx="15" width="70" x="1065" y="-3835" />
<rect fill="#84A1AE" height="70" rx="15" width="70" x="1165" y="-535" />
<rect fill="#84A1AE" height="70" rx="15" width="70" x="1165" y="-635" />
<rect fill="#84A1AE" height="70" rx="15" width="70" x="1165" y="-735" />
<rect fill="#84A1AE" height="70" rx="15" width="70" x="1165" y="-1535" />
<rect fill="#84A1AE" height="70" rx="15" width="70" x="1165" y="-3835" />
<rect fill="#84A1AE" height="70" rx="15" width="70" x="1265" y="-535" />
<rect fill="#84A1AE" height="70" rx="15" width="70" x="1265" y="-2835" />
<rect fill="#84A1AE" height="70" rx="15" width="70" x="1265" y="-3435" />
<rect fill="#84A1AE" height="70" rx="15" width="70" x="1265" y="-3835" />
<rect fill="#84A1AE" height="70" rx="15" width="70" x="1365" y="-535" />
<rect fill="#84A1AE" height="70" rx="15" width="70" x="1365" y="-835" />
<rect fill="#84A1AE" height="70" rx="15" width="70" x="1365" y="-935" />
<rect fill="#84A1AE" height="70" rx="15" width="70" x="1365" y="-1035" />
<rect fill="#84A1AE" height="70" rx="15" width="70" x="1365" y="-1935" />
<rect fill="#84A1AE" height="70" rx="15" width="70" x="1365" y="-2335" />
<rect fill="#84A1AE" height="70" rx="15" width="70" x="1365" y="-2635" />
<rect fill="#84A1AE" height="70" rx="15" width="70" x="1365" y="-2835" />
<rect fill="#84A1AE" height="70" rx="15" width="70" x="1365" y="-2935" />
<rect fill="#84A1AE" height="70" rx="15" width="70" x="1365" y="-3035" />
<rect fill="#84A1AE" height="70" rx="15" width="70" x="1365" y="-3335" />
<rect fill="#84A1AE" height="70" rx="15" width="70" x="1365" y="-3835" />
<rect fill="#84A1AE" height="70" rx="15" width="70" x="1465" y="-535" />
<rect fill="#84A1AE" height="70" rx="15" width="70" x="1465" y="-1235" />
<rect fill="#84A1AE" height="70" rx="15" width="70" x="1465" y="-1535" />
<rect fill="#84A1AE" height="70" rx="15" width="70" x="1465" y="-2035" />
<rect fill="#84A1AE" height="70" rx="15" width="70" x="1465" y="-3135" />
<rect fill="#84A1AE" height="70" rx="15" width="70" x="1465" y="-3235" />
<rect fill="#84A1AE" height="70" rx="15" width="70" x="1465" y="-3835" />
<rect fill="#84A1AE" height="70" rx="15" width="70" x="1565" y="-535" />
<rect fill="#84A1AE" height="70" rx="15" width="70" x="1565" y="-3035" />
<rect fill="#84A1AE" height="70" rx="15" width="70" x="1565" y="-3835" />
<rect fill="#84A1AE" height="70" rx="15" width="70" x="1665" y="-535" />
<rect fill="#84A1AE" height="70" rx="15" width="70" x="1665" y="-3735" />
<rect fill="#84A1AE" height="70" rx="15" width="70" x="1665" y="-3835" />
<rect fill="#84A1AE" height="70" rx="15" width="70" x="1765" y="-535" />
<rect fill="#84A1AE" height="70" rx="15" width="70" x="1765" y="-1235" />
<rect fill="#84A1AE" height="70" rx="15" width="70" x="1765" y="-3835" />
<rect fill="#84A1AE" height="70" rx="15" width="70" x="1865" y="-535" />
<rect fill="#84A1AE" height="70" rx="15" width="70" x="1865" y="-735" />
<rect fill="#84A1AE" height="70" rx="15" width="70" x="1865" y="-1335" />
<rect fill="#84A1AE" height="70" rx="15" width="70" x="1865" y="-3235" />
<rect fill="#84A1AE" height="70" rx="15" width="70" x="1865" y="-3435" />
<rect fill="#84A1AE" height="70" rx="15" width="70" x="1865" y="-3835" />
<rect fill="#84A1AE" height="70" rx="15" width="70" x="1965" y="-535" />
<rect fill="#84A1AE" height="70" rx="15" width="70" x="1965" y="-635" />
<rect fill="#84A1AE" height="70" rx="15" width="70" x="1965" y="-1835" />
<rect fill="#84A1AE" height="70" rx="15" width="70" x="1965" y="-1935" />
<rect fill="#84A1AE" height="70" rx="15" width="70" x="1965" y="-2135" />
<rect fill="#84A1AE" height="70" rx="15" width="70" x="1965" y="-2335" />
<rect fill="#84A1AE" height="70" rx="15" width="70" x="1965" y="-2435" />
<rect fill="#84A1AE" height="70" rx="15" width="70" x="1965" y="-3335" />
<rect fill="#84A1AE" height="70" rx="15" width="70" x="1965" y="-3835" />
<rect fill="#84A1AE" height="70" rx="15" width="70" x="2065" y="-535" />
<rect fill="#84A1AE" height="70" rx="15" width="70" x="2065" y="-1535" />
<rect fill="#84A1AE" height="70" rx="15" width="70" x="2065" y="-1635" />
<rect fill="#84A1AE" height="70" rx="15" width="70" x="2065" y="-2135" />
<rect fill="#84A1AE" height="70" rx="15" width="70" x="2065" y="-3835" />
<rect fill="#84A1AE" height="70" rx="15" width="70" x="2165" y="-535" />
<rect fill="#84A1AE" height="70" rx="15" width="70" x="2165" y="-935" />
<rect fill="#84A1AE" height="70" rx="15" width="70" x="2165" y="-1335" />
<rect fill="#84A1AE" height="70" rx="15" width="70" x="2165" y="-1835" />
<rect fill="#84A1AE" height="70" rx="15" width="70" x="2165" y="-3835" />
<rect fill="#84A1AE" height="70" rx="15" width="70" x="2265" y="-535" />
<rect fill="#84A1AE" height="70" rx="15" width="70" x="2265" y="-935" />
<rect fill="#84A1AE" height="70" rx="15" width="70" x="2265" y="-1135" />
<rect fill="#84A1AE" height="70" rx="15" width="70" x="2265" y="-2535" />
<rect fill="#84A1AE" height="70" rx="15" width="70" x="2265" y="-3235" />
<rect fill="#84A1AE" height="70" rx="15" width="70" x="2265" y="-3835" />
<rect fill="#84A1AE" height="70" rx="15" width="70" x="2365" y="-535" />
<rect fill="#84A1AE" height="70" rx="15" width="70" x="2365" y="-935" />
<rect fill="#84A1AE" height="70" rx="15" width="70" x="2365" y="-1035" />
<rect fill="#84A1AE" height="70" rx="15" width="70" x="2365" y="-3835" />
<rect fill="#84A1AE" height="70" rx="15" width="70" x="2465" y="-535" />
<rect fill="#84A1AE" height="70" rx="15" width="70" x="2465" y="-935" />
<rect fill="#84A1AE" height="70" rx="15" width="70" x="2465" y="-1535" />
<rect fill="#84A1AE" height="70" rx="15" width="70" x="2465" y="-2335" />
<rect fill="#84A1AE" height="70" rx="15" width="70" x="2465" y="-2735" />
<rect fill="#84A1AE" height="70" rx="15" width="70" x="2465" y="-3835" />
<rect fill="#84A1AE" height="70" rx="15" width="70" x="2565" y="-535" />
<rect fill="#84A1AE" height="70" rx="15" width="70" x="2565" y="-735" />
<rect fill="#84A1AE" height="70" rx="15" width="70" x="2565" y="-2535" />
<rect fill="#84A1AE" height="70" rx="15" width="70" x="2565" y="-3835" />
<rect fill="#84A1AE" height="70" rx="15" width="70" x="2665" y="-535" />
<rect fill="#84A1AE" height="70" rx="15" width="70" x="2665" y="-635" />
<rect fill="#84A1AE" height="70" rx="15" width="70" x="2665" y="-1135" />
<rect fill="#84A1AE" height="70" rx="15" width="70" x="2665" y="-1435" />
<rect fill="#84A1AE" height="70" rx="15" width="70" x="2665" y="-2735" />
<rect fill="#84A1AE" height="70" rx="15" width="70" x="2665" y="-3835" />
<rect fill="#84A1AE" height="70" rx="15" width="70" x="2765" y="-535" />
<rect fill="#84A1AE" height="70" rx="15" width="70" x="2765" y="-1635" />
<rect fill="#84A1AE" height="70" rx="15" width="70" x="2765" y="-1835" />
<rect fill="#84A1AE" height="70" rx="15" width="70" x="2765" y="-1935" />
<rect fill="#84A1AE" height="70" rx="15" width="70" x="2765" y="-2235" />
<rect fill="#84A1AE" height="70" rx="15" width="70" x="2765" y="-3735" />
<rect fill="#84A1AE" height="70" rx="15" width="70" x="2765" y="-3835" />
<rect fill="#84A1AE" height="70" rx="15" width="70" x="2865" y="-535" />
<rect fill="#84A1AE" height="70" rx="15" width="70" x="2865" y="-3835" />
<rect fill="#84A1AE" height="70" rx="15" width="70" x="2965" y="-535" />
<rect fill="#84A1AE" height="70" rx="15" width="70" x="2965" y="-2635" />
<rect fill="#84A1AE" height="70" rx="15" width="70" x="2965" y="-3835" />
<rect fill="#84A1AE" height="70" rx="15" width="70" x="3065" y="-535" />
<rect fill="#84A1AE" height="70" rx="15" width="70" x="3065" y="-735" />
<rect fill="#84A1AE" height="70" rx="15" width="70" x="3065" y="-2535" />
<rect fill="#84A1AE" height="70" rx="15" width="70" x="3065" y="-3835" />
<rect fill="#84A1AE" height="70" rx="15" width="70" x="3165" y="-535" />
<rect fill="#84A1AE" height="70" rx="15" width="70" x="3165" y="-835" />
<rect fill="#84A1AE" height="70" rx="15" width="70" x="3165" y="-1935" />
<rect fill="#84A1AE" height="70" rx="15" width="70" x="3165" y="-2735" />
<rect fill="#84A1AE" height="70" rx="15" width="70" x="3165" y="-3135" />
<rect fill="#84A1AE" height="70" rx="15" width="70" x="3165" y="-3835" />
<rect fill="#84A1AE" height="70" rx="15" width="70" x="3265" y="-535" />
<rect fill="#84A1AE" height="70" rx="15" width="70" x="3265" y="-1035" />
<rect fill="#84A1AE" height="70" rx="15" width="70" x="3265" y="-1735" />
<rect fill="#84A1AE" height="70" rx="15" width="70" x="3265" y="-3835" />
<rect fill="#84A1AE" height="70" rx="15" width="70" x="3365" y="-535" />
<rect fill="#84A1AE" height="70" rx="15" width="70" x="3365" y="-1435" />
<rect fill="#84A1AE" height="70" rx="15" width="70" x="3365" y="-1935" />
<rect fill="#84A1AE" height="70" rx="15" width="70" x="3365" y="-2135" />
<rect fill="#84A1AE" height="70" rx="15" width="70" x="3365" y="-3835" />
<rect fill="#84A1AE" height="70" rx="15" width="70" x="3465" y="-535" />
<rect fill="#84A1AE" height="70" rx="15" width="70" x="3465" y="-2635" />
<rect fill="#84A1AE" height="70" rx="15" width="70" x="3465" y="-3835" />
<rect fill="#84A1AE" height="70" rx="15" width="70" x="3565" y="-535" />
<rect fill="#84A1AE" height="70" rx="15" width="70" x="3565" y="-635" />
<rect fill="#84A1AE" height="70" rx="15" width="70" x="3565" y="-2435" />
<rect fill="#84A1AE" height="70" rx="15" width="70" x="3565" y="-3235" />
<rect fill="#84A1AE" height="70" rx="15" width="70" x="3565" y="-3835" />
<rect fill="#84A1AE" height="70" rx="15" width="70" x="3665" y="-535" />
<rect fill="#84A1AE" height="70" rx="15" width="70" x="3665" y="-2135" />
<rect fill="#84A1AE" height="70" rx="15" width="70" x="3665" y="-2835" />
<rect fill="#84A1AE" height="70" rx="15" width="70" x="3665" y="-3135" />
<rect fill="#84A1AE" height="70" rx="15" width="70" x="3665" y="-3735" />
<rect fill="#84A1AE" height="70" rx="15" width="70" x="3665" y="-3835" />
<rect fill="#84A1AE" height="70" rx="15" width="70" x="3765" y="-535" />
<rect fill="#84A1AE" height="70" rx="15" width="70" x="3765" y="-635" />
<rect fill="#84A1AE" height="70" rx="15" width="70" x="3765" y="-735" />
<rect fill="#84A1AE" height="70" rx="15" width="70" x="3765" y="-835" />
<rect fill="#84A1AE" height="70" rx="15" width="70" x="3765" y="-935" />
<rect fill="#84A1AE" height="70" rx="15" width="70" x="3765" y="-1035" />
<rect fill="#84A1AE" height="70" rx="15" width="70" x="3765" y="-1135" />
<rect fill="#84A1AE" height="70" rx="15" width="70" x="3765" y="-1235" />
<rect fill="#84A1AE" height="70" rx="15" width="70" x="3765" y="-1335" />
<rect fill="#84A1AE" height="70" rx="15" width="70" x="3765" y="-1435" />
<rect fill="#84A1AE" height="70" rx="15" width="70" x="3765" y="-1535" />
<rect fill="#84A1AE" height="70" rx="15" width="70" x="3765" y="-1635" />
<rect fill="#84A1AE" height="70" rx="15" width="70" x="3765" y="-1735" />
<rect fill="#84A1AE" height="70" rx="15" width="70" x="3765" y="-1835" />
<rect fill="#84A1AE" height="70" rx="15" width="70" x="3765" y="-1935" />
<rect fill="#84A1AE" height="70" rx="15" width="70" x="3765" y="-2035" />
<rect fill="#84A1AE" height="70" rx="15" width="70" x="3765" y="-2135" />
<rect fill="#84A1AE" height="70" rx="15" width="70" x="3765" y="-2235" />
<rect fill="#84A1AE" height="70" rx="15" width="70" x="3765" y="-2335" />
<rect fill="#84A1AE" height="70" rx="15" width="70" x="3765" y="-2435" />
<rect fill="#84A1AE" height="70" rx="15" width="70" x="3765" y="-2535" />
<rect fill="#84A1AE" height="70" rx="15" width="70" x="3765" y="-2635" />
<rect fill="#84A1AE" height="70" rx="15" width="70" x="3765" y="-2735" />
<rect fill="#84A1AE" height="70" rx="15" width="70" x="3765" y="-2835" />
<rect fill="#84A1AE" height="70" rx="15" width="70" x="3765" y="-2935" />
<rect fill="#84A1AE" height="70" rx="15" width="70" x="3765" y="-3035" />
<rect fill="#84A1AE" height="70" rx="15" width="70" x="3765" y="-3135" />
<rect fill="#84A1AE" height="70" rx="15" width="70" x="3765" y="-3235" />
<rect fill="#84A1AE" height="70" rx="15" width="70" x="3765" y="-3335" />
<rect fill="#84A1AE" height="70" rx="15" width="70" x="3765" y="-3435" />
<rect fill="#84A1AE" height="70" rx="15" width="70" x="3765" y="-3535" />
<rect fill="#84A1AE" height="70" rx="15" width="70" x="3765" y="-3635" />
<rect fill="#84A1AE" height="70" rx="15" width="70" x="3765" y="-3735" />
<rect fill="#84A1AE" height="70" rx="15" width="70" x="3765" y="-3835" />
<circle cx="2500" cy="-1400" fill="#c1433c" r="35"> <animate attributeName="cy" dur="118.16000000000001s" keyTimes="0.0;0.0023640662;0.0047281324;0.0070921986;0.0094562648;0.011820331;0.0141843972;0.0165484634;0.0189125296;0.0212765957;0.0236406619;0.0260047281;0.0283687943;0.0307328605;0.0330969267;0.0354609929;0.0378250591;0.0401891253;0.0425531915;0.0449172577;0.0472813239;0.085106383;0.0874704492;0.0898345154;0.0921985816;0.0945626478;0.0969267139;0.0992907801;0.1016548463;0.1040189125;0.1063829787;0.1087470449;0.1134751773;0.1158392435;0.1182033097;0.1205673759;0.1229314421;0.1252955083;0.1276595745;0.1300236407;0.1323877069;0.1394799054;0.1418439716;0.1442080378;0.146572104;0.1489361702;0.1513002364;0.1536643026;0.1560283688;0.158392435;0.1607565012;0.1631205674;0.1820330969;0.1843971631;0.1914893617;0.1938534279;0.1962174941;0.2056737589;0.2080378251;0.2104018913;0.2127659574;0.2269503546;0.2293144208;0.231678487;0.2340425532;0.2364066194;0.2387706856;0.2411347518;0.243498818;0.2505910165;0.2529550827;0.2600472813;0.2624113475;0.2647754137;0.2671394799;0.2718676123;0.2742316785;0.2789598109;0.2813238771;0.2860520095;0.2884160757;0.2907801418;0.293144208;0.2955082742;0.2978723404;0.3002364066;0.3096926714;0.3120567376;0.3144208038;0.31678487;0.3238770686;0.3262411348;0.3286052009;0.3309692671;0.3333333333;0.3356973995;0.3380614657;0.3404255319;0.3427895981;0.3451536643;0.3475177305;0.3498817967;0.3522458629;0.3546099291;0.3569739953;0.3593380615;0.3617021277;0.3640661939;0.36643026;0.378250591;0.3806146572;0.3829787234;0.390070922;0.3924349882;0.3947990544;0.3971631206;0.3995271868;0.401891253;0.4042553191;0.4066193853;0.4089834515;0.4113475177;0.4137115839;0.4160756501;0.4184397163;0.4208037825;0.4231678487;0.4255319149;0.4278959811;0.4302600473;0.4326241135;0.4397163121;0.4420803783;0.4444444444;0.4704491726;0.4728132388;0.475177305;0.4775413712;0.4799054374;0.4822695035;0.5011820331;0.5035460993;0.5319148936;0.5342789598;0.536643026;0.5390070922;0.5413711584;0.5437352246;0.5460992908;0.5602836879;0.5626477541;0.5650118203;0.5721040189;0.5744680851;0.5768321513;0.6241134752;0.6264775414;0.6312056738;0.63356974;0.6359338061;0.6382978723;0.6406619385;0.6430260047;0.6453900709;0.6477541371;0.6501182033;0.6572104019;0.6595744681;0.6619385343;0.6643026005;0.6666666667;0.6690307329;0.7115839243;0.7139479905;0.7186761229;0.7210401891;0.7706855792;0.7730496454;0.7754137116;0.7777777778;0.780141844;0.7825059102;0.7848699764;0.7872340426;0.7895981087;0.7919621749;0.7943262411;0.7966903073;0.7990543735;0.8014184397;0.8037825059;0.8061465721;0.8085106383;0.8108747045;0.8132387707;0.8156028369;0.8179669031;0.8203309693;0.8226950355;0.8250591017;0.8274231678;0.829787234;0.8321513002;0.8345153664;0.8368794326;0.8392434988;0.841607565;0.8439716312;0.8463356974;0.8486997636;0.8510638298;0.853427896;0.8557919622;0.8581560284;0.8605200946;0.8628841608;0.865248227;0.8676122931;0.8699763593;0.8723404255;0.8841607565;0.8865248227;0.9054373522;0.9078014184;0.9101654846;0.9361702128;0.938534279;0.9408983452;0.9550827423;0.9574468085;0.9598108747;0.9621749409;0.9645390071;0.9669030733;0.9692671395;0.9716312057;0.9739952719;0.9763593381;0.9787234043;0.9810874704;0.9834515366;0.9858156028;0.988179669;0.9905437352;0.9929078014;0.9952718676;0.9976359338;1.0" repeatCount="indefinite" values="-1400;-1400;-1400;-1500;-1600;-1700;-1800;-1900;-2000;-2100;-2200;-2300;-2400;-2400;-2500;-2600;-2600;-2700;-2800;-2900;-3000;-3000;-3100;-3000;-2900;-2800;-2700;-2600;-2600;-2500;-2400;-2300;-2300;-2200;-2100;-2000;-1900;-1800;-1700;-1600;-1500;-1500;-1400;-1400;-1300;-1200;-1200;-1100;-1100;-1000;-1000;-900;-900;-1000;-1000;-1100;-1200;-1200;-1300;-1300;-1400;-1400;-1500;-1600;-1700;-1700;-1800;-1800;-1900;-1900;-2000;-2000;-1900;-1900;-1800;-1800;-1700;-1700;-1600;-1600;-1500;-1500;-1400;-1300;-1300;-1200;-1200;-1300;-1300;-1400;-1400;-1500;-1500;-1600;-1600;-1700;-1800;-1900;-1900;-2000;-2100;-2200;-2300;-2400;-2500;-2600;-2700;-2800;-2900;-2900;-2800;-2700;-2700;-2600;-2500;-2400;-2300;-2200;-2100;-2000;-1900;-1800;-1900;-2000;-2100;-2200;-2300;-2400;-2500;-2600;-2700;-2700;-2800;-2900;-2900;-3000;-3100;-3200;-3300;-3400;-3400;-3500;-3500;-3400;-3300;-3200;-3100;-3000;-2900;-2900;-2800;-2700;-2700;-2800;-2900;-2900;-3000;-3000;-3100;-3200;-3200;-3300;-3300;-3400;-3400;-3500;-3500;-3400;-3300;-3400;-3500;-3600;-3600;-3700;-3700;-3600;-3600;-3500;-3400;-3300;-3200;-3100;-3000;-2900;-2800;-2700;-2600;-2500;-2400;-2300;-2200;-2100;-2000;-1900;-1800;-1700;-1600;-1500;-1400;-1300;-1200;-1100;-1000;-900;-800;-700;-800;-900;-1000;-1100;-1200;-1300;-1400;-1500;-1600;-1700;-1800;-1900;-2000;-2100;-2100;-2200;-2200;-2300;-2400;-2400;-2500;-2400;-2400;-2300;-2200;-2100;-2000;-1900;-1800;-1700;-1600;-1500;-1400;-1300;-1200;-1100;-1000;-900;-800;-900;-1000;-1000"/>
<animate attributeName="cx" dur="118.16000000000001s" keyTimes="0.0;0.0023640662;0.0047281324;0.0283687943;0.0307328605;0.0354609929;0.0378250591;0.0472813239;0.0496453901;0.0520094563;0.0543735225;0.0567375887;0.0591016548;0.061465721;0.0638297872;0.0661938534;0.0685579196;0.0709219858;0.073286052;0.0756501182;0.0780141844;0.0803782506;0.0827423168;0.085106383;0.0992907801;0.1016548463;0.1087470449;0.1111111111;0.1134751773;0.1323877069;0.134751773;0.1371158392;0.1394799054;0.1418439716;0.1442080378;0.1489361702;0.1513002364;0.1536643026;0.1560283688;0.158392435;0.1607565012;0.1631205674;0.1654846336;0.1678486998;0.170212766;0.1725768322;0.1749408983;0.1773049645;0.1796690307;0.1820330969;0.1843971631;0.1867612293;0.1891252955;0.1914893617;0.1962174941;0.1985815603;0.2009456265;0.2033096927;0.2056737589;0.2080378251;0.2104018913;0.2127659574;0.2151300236;0.2174940898;0.219858156;0.2222222222;0.2245862884;0.2269503546;0.2340425532;0.2364066194;0.2387706856;0.2411347518;0.243498818;0.2458628842;0.2482269504;0.2505910165;0.2529550827;0.2553191489;0.2576832151;0.2600472813;0.2624113475;0.2647754137;0.2671394799;0.2695035461;0.2718676123;0.2742316785;0.2765957447;0.2789598109;0.2813238771;0.2836879433;0.2860520095;0.2884160757;0.2907801418;0.2955082742;0.2978723404;0.3002364066;0.3026004728;0.304964539;0.3073286052;0.3096926714;0.3120567376;0.3144208038;0.31678487;0.3191489362;0.3215130024;0.3238770686;0.3262411348;0.3286052009;0.3309692671;0.3333333333;0.3404255319;0.3427895981;0.36643026;0.3687943262;0.3711583924;0.3735224586;0.3758865248;0.378250591;0.3829787234;0.3853427896;0.3877068558;0.390070922;0.4326241135;0.4349881797;0.4373522459;0.4397163121;0.4444444444;0.4468085106;0.4491725768;0.451536643;0.4539007092;0.4562647754;0.4586288416;0.4609929078;0.463356974;0.4657210402;0.4680851064;0.4704491726;0.4822695035;0.4846335697;0.4869976359;0.4893617021;0.4917257683;0.4940898345;0.4964539007;0.4988179669;0.5011820331;0.5035460993;0.5059101655;0.5082742317;0.5106382979;0.5130023641;0.5153664303;0.5177304965;0.5200945626;0.5224586288;0.524822695;0.5271867612;0.5295508274;0.5319148936;0.5460992908;0.548463357;0.5508274232;0.5531914894;0.5555555556;0.5579196217;0.5602836879;0.5650118203;0.5673758865;0.5697399527;0.5721040189;0.5768321513;0.5791962175;0.5815602837;0.5839243499;0.5862884161;0.5886524823;0.5910165485;0.5933806147;0.5957446809;0.598108747;0.6004728132;0.6028368794;0.6052009456;0.6075650118;0.609929078;0.6122931442;0.6146572104;0.6170212766;0.6193853428;0.621749409;0.6241134752;0.6264775414;0.6288416076;0.6312056738;0.6359338061;0.6382978723;0.6406619385;0.6430260047;0.6453900709;0.6477541371;0.6501182033;0.6524822695;0.6548463357;0.6572104019;0.6690307329;0.6713947991;0.6737588652;0.6761229314;0.6784869976;0.6808510638;0.68321513;0.6855791962;0.6879432624;0.6903073286;0.6926713948;0.695035461;0.6973995272;0.6997635934;0.7021276596;0.7044917258;0.706855792;0.7092198582;0.7115839243;0.7139479905;0.7163120567;0.7186761229;0.7210401891;0.7234042553;0.7257683215;0.7281323877;0.7304964539;0.7328605201;0.7352245863;0.7375886525;0.7399527187;0.7423167849;0.7446808511;0.7470449173;0.7494089835;0.7517730496;0.7541371158;0.756501182;0.7588652482;0.7612293144;0.7635933806;0.7659574468;0.768321513;0.7706855792;0.8723404255;0.8747044917;0.8770685579;0.8794326241;0.8817966903;0.8841607565;0.8865248227;0.8888888889;0.8912529551;0.8936170213;0.8959810875;0.8983451537;0.9007092199;0.9030732861;0.9054373522;0.9101654846;0.9125295508;0.914893617;0.9172576832;0.9196217494;0.9219858156;0.9243498818;0.926713948;0.9290780142;0.9314420804;0.9338061466;0.9361702128;0.9408983452;0.9432624113;0.9456264775;0.9479905437;0.9503546099;0.9527186761;0.9550827423;1.0" repeatCount="indefinite" values="2500;2500;2600;2600;2700;2700;2800;2800;2900;3000;3100;3200;3300;3400;3500;3400;3300;3200;3100;3000;2900;2800;2700;2600;2600;2700;2700;2800;2900;2900;3000;3100;3200;3200;3300;3300;3400;3400;3500;3500;3600;3600;3500;3400;3300;3200;3100;3000;2900;2800;2800;2700;2600;2500;2500;2400;2300;2200;2100;2100;2000;2000;1900;1800;1700;1600;1500;1400;1400;1300;1300;1200;1200;1100;1000;900;900;1000;1100;1200;1200;1300;1300;1400;1500;1500;1600;1700;1700;1800;1900;1900;2000;2000;2100;2100;2200;2300;2200;2100;2100;2000;2000;1900;1800;1700;1700;1600;1600;1500;1500;1600;1600;1700;1800;1700;1600;1500;1500;1400;1300;1200;1200;1300;1400;1500;1500;1600;1700;1800;1900;2000;2100;2200;2300;2400;2500;2600;2600;2700;2600;2500;2400;2300;2200;2100;2000;2000;1900;1800;1700;1600;1500;1400;1300;1200;1100;1000;900;800;800;700;800;900;1000;1100;1200;1200;1300;1400;1500;1500;1600;1700;1800;1900;2000;2100;2200;2300;2400;2500;2600;2700;2600;2500;2400;2300;2200;2100;2000;1900;1900;1800;1700;1700;1600;1600;1500;1500;1400;1400;1300;1200;1100;1100;1200;1300;1400;1500;1600;1700;1800;1900;2000;2100;2200;2300;2400;2500;2600;2700;2800;2900;2900;3000;2900;2900;2800;2700;2600;2500;2400;2300;2200;2100;2000;1900;1800;1700;1600;1500;1400;1300;1200;1100;1000;900;800;800;900;1000;1100;1200;1300;1300;1400;1500;1600;1700;1800;1900;2000;2100;2100;2200;2300;2400;2500;2600;2700;2800;2900;3000;3100;3200;3200;3100;3000;2900;2800;2700;2600;2600"/>
<animate attributeName="visibility" dur="118.16000000000001s" keyTimes="0.0;0.0023640662;1.0" repeatCount="indefinite" values="visible;visible;visible"/> </circle>
<circle cx="3000" cy="-1900" fill="#2e6f9e" r="35"> <animate attributeName="cy" dur="118.16000000000001s" keyTimes="0.0;0.0023640662;0.0047281324;0.0070921986;0.0094562648;0.011820331;0.0141843972;0.0165484634;0.0189125296;0.0212765957;0.0307328605;0.0330969267;0.0354609929;0.0378250591;0.073286052;0.0756501182;0.0780141844;0.0803782506;0.0827423168;0.085106383;0.0874704492;0.0898345154;0.0921985816;0.0945626478;0.0969267139;0.0992907801;0.1016548463;0.1040189125;0.1063829787;0.1087470449;0.1111111111;0.1134751773;0.1158392435;0.1182033097;0.1205673759;0.1229314421;0.1252955083;0.1276595745;0.1300236407;0.1323877069;0.134751773;0.1371158392;0.1394799054;0.1418439716;0.1442080378;0.146572104;0.1489361702;0.1513002364;0.1536643026;0.1560283688;0.158392435;0.1607565012;0.1725768322;0.1749408983;0.1773049645;0.1914893617;0.1938534279;0.2080378251;0.2104018913;0.2127659574;0.2151300236;0.2174940898;0.219858156;0.2222222222;0.2245862884;0.2269503546;0.2293144208;0.231678487;0.2340425532;0.2364066194;0.2387706856;0.2411347518;0.243498818;0.2458628842;0.2482269504;0.2505910165;0.2529550827;0.2553191489;0.2576832151;0.2600472813;0.2624113475;0.2647754137;0.2671394799;0.2695035461;0.2718676123;0.2742316785;0.2765957447;0.2789598109;0.2813238771;0.2836879433;0.2860520095;0.2884160757;0.293144208;0.2955082742;0.2978723404;0.3002364066;0.3026004728;0.304964539;0.3073286052;0.3333333333;0.3356973995;0.3380614657;0.3404255319;0.3427895981;0.3451536643;0.3475177305;0.3617021277;0.3640661939;0.36643026;0.3687943262;0.3711583924;0.3735224586;0.3758865248;0.378250591;0.3806146572;0.3829787234;0.3853427896;0.3877068558;0.390070922;0.3924349882;0.3947990544;0.3971631206;0.3995271868;0.401891253;0.4042553191;0.4066193853;0.4089834515;0.4113475177;0.4137115839;0.4160756501;0.4184397163;0.4586288416;0.4609929078;0.4822695035;0.4846335697;0.4869976359;0.4893617021;0.4917257683;0.5153664303;0.5177304965;0.5319148936;0.5342789598;0.536643026;0.5390070922;0.5437352246;0.5460992908;0.5626477541;0.5650118203;0.5673758865;0.5697399527;0.5721040189;0.5744680851;0.5886524823;0.5910165485;0.5933806147;0.5957446809;0.598108747;0.6004728132;0.6028368794;0.6052009456;0.6075650118;0.609929078;0.6122931442;0.6146572104;0.6170212766;0.6193853428;0.621749409;0.6241134752;0.6264775414;0.6288416076;0.6312056738;0.63356974;0.6359338061;0.6382978723;0.6406619385;0.6430260047;0.6453900709;0.6595744681;0.6619385343;0.6666666667;0.6690307329;0.6784869976;0.6808510638;0.68321513;0.6855791962;0.6973995272;0.6997635934;0.7352245863;0.7375886525;0.7399527187;0.768321513;0.7706855792;0.7730496454;0.7754137116;0.7777777778;0.780141844;0.7848699764;0.7872340426;0.7895981087;0.7919621749;0.8014184397;0.8037825059;0.8061465721;0.8085106383;0.8132387707;0.8156028369;0.8179669031;0.8203309693;0.8226950355;0.8250591017;0.8274231678;0.829787234;0.8321513002;0.8345153664;0.8368794326;0.8392434988;0.841607565;0.8439716312;0.8463356974;0.8486997636;0.8510638298;0.853427896;0.8557919622;0.8581560284;0.8605200946;0.865248227;0.8676122931;0.8699763593;0.8723404255;0.8747044917;0.8770685579;0.8794326241;0.8817966903;0.8841607565;0.8912529551;0.8936170213;0.9078014184;0.9101654846;0.914893617;0.9172576832;0.9196217494;0.9361702128;0.938534279;0.9408983452;0.9479905437;0.9503546099;0.9527186761;0.9574468085;0.9598108747;0.9621749409;0.9645390071;0.9669030733;0.9692671395;0.9810874704;0.9834515366;0.9858156028;0.988179669;0.9929078014;0.9952718676;1.0" repeatCount="indefinite" values="-1900;-1900;-2000;-2100;-2200;-2300;-2400;-2400;-2500;-2600;-2600;-2700;-2800;-2900;-2900;-2800;-2700;-2600;-2500;-2500;-2400;-2400;-2300;-2200;-2100;-2000;-1900;-1900;-1800;-1800;-1700;-1600;-1500;-1400;-1300;-1200;-1100;-1000;-900;-900;-800;-700;-800;-900;-1000;-1000;-1100;-1100;-1200;-1200;-1300;-1400;-1400;-1500;-1400;-1400;-1300;-1300;-1200;-1100;-1000;-900;-900;-800;-700;-800;-900;-900;-1000;-1100;-1200;-1300;-1400;-1500;-1600;-1700;-1600;-1600;-1700;-1700;-1800;-1700;-1700;-1800;-1900;-2000;-2100;-2200;-2300;-2300;-2400;-2500;-2500;-2600;-2700;-2800;-2900;-3000;-3100;-3100;-3000;-3000;-2900;-2900;-2800;-2700;-2700;-2600;-2500;-2400;-2300;-2200;-2100;-2100;-2000;-1900;-1800;-1700;-1600;-1500;-1400;-1300;-1200;-1100;-1000;-900;-1000;-1100;-1200;-1300;-1400;-1400;-1300;-1300;-1200;-1100;-1200;-1300;-1300;-1400;-1400;-1500;-1500;-1600;-1600;-1700;-1700;-1600;-1700;-1700;-1800;-1700;-1700;-1800;-1900;-2000;-2100;-2200;-2300;-2400;-2400;-2500;-2500;-2600;-2600;-2500;-2600;-2700;-2800;-2900;-2900;-3000;-3100;-3200;-3300;-3400;-3500;-3500;-3400;-3400;-3500;-3500;-3400;-3500;-3600;-3600;-3500;-3500;-3600;-3500;-3500;-3400;-3300;-3200;-3100;-3000;-3000;-2900;-2800;-2700;-2700;-2600;-2500;-2400;-2400;-2300;-2200;-2200;-2100;-2000;-1900;-1800;-1700;-1600;-1500;-1400;-1300;-1200;-1100;-1000;-900;-800;-700;-600;-700;-700;-600;-700;-800;-700;-800;-900;-1000;-1100;-1100;-1200;-1200;-1300;-1300;-1400;-1300;-1300;-1400;-1500;-1500;-1600;-1700;-1700;-1800;-1900;-2000;-2000;-2100;-2100;-2200;-2200;-2100;-2100;-2200;-2200"/>
<animate attributeName="cx" dur="118.16000000000001s" keyTimes="0.0;0.0023640662;0.0141843972;0.0165484634;0.0212765957;0.0236406619;0.0260047281;0.0283687943;0.0378250591;0.0401891253;0.0425531915;0.0449172577;0.0472813239;0.0496453901;0.0520094563;0.0543735225;0.0567375887;0.0591016548;0.061465721;0.0638297872;0.0661938534;0.0685579196;0.0709219858;0.0827423168;0.085106383;0.0874704492;0.0898345154;0.1016548463;0.1040189125;0.1063829787;0.1087470449;0.1300236407;0.1323877069;0.1442080378;0.146572104;0.1489361702;0.1513002364;0.1607565012;0.1631205674;0.1654846336;0.1678486998;0.170212766;0.1725768322;0.1773049645;0.1796690307;0.1820330969;0.1843971631;0.1867612293;0.1891252955;0.1914893617;0.1938534279;0.1962174941;0.1985815603;0.2009456265;0.2033096927;0.2056737589;0.2080378251;0.2174940898;0.219858156;0.2293144208;0.231678487;0.2529550827;0.2553191489;0.2576832151;0.2600472813;0.2647754137;0.2671394799;0.2813238771;0.2836879433;0.2907801418;0.293144208;0.3073286052;0.3096926714;0.3120567376;0.3144208038;0.31678487;0.3191489362;0.3215130024;0.3238770686;0.3262411348;0.3286052009;0.3309692671;0.3333333333;0.3356973995;0.3380614657;0.3404255319;0.3427895981;0.3475177305;0.3498817967;0.3522458629;0.3546099291;0.3569739953;0.3593380615;0.3617021277;0.3758865248;0.378250591;0.4184397163;0.4208037825;0.4231678487;0.4255319149;0.4278959811;0.4302600473;0.4326241135;0.4349881797;0.4373522459;0.4397163121;0.4420803783;0.4444444444;0.4468085106;0.4491725768;0.451536643;0.4539007092;0.4562647754;0.4586288416;0.4609929078;0.463356974;0.4657210402;0.4680851064;0.4704491726;0.4728132388;0.475177305;0.4775413712;0.4799054374;0.4822695035;0.4917257683;0.4940898345;0.4964539007;0.4988179669;0.5011820331;0.5035460993;0.5059101655;0.5082742317;0.5106382979;0.5130023641;0.5153664303;0.5177304965;0.5200945626;0.5224586288;0.524822695;0.5271867612;0.5295508274;0.5319148936;0.5342789598;0.536643026;0.5390070922;0.5413711584;0.5437352246;0.548463357;0.5508274232;0.5531914894;0.5555555556;0.5579196217;0.5602836879;0.5626477541;0.5673758865;0.5697399527;0.5744680851;0.5768321513;0.5791962175;0.5815602837;0.5839243499;0.5862884161;0.5886524823;0.6052009456;0.6075650118;0.609929078;0.6122931442;0.6146572104;0.6170212766;0.6453900709;0.6477541371;0.6501182033;0.6524822695;0.6548463357;0.6572104019;0.6595744681;0.6619385343;0.6643026005;0.6690307329;0.6713947991;0.6737588652;0.6761229314;0.6784869976;0.6855791962;0.6879432624;0.6903073286;0.6926713948;0.695035461;0.6973995272;0.6997635934;0.7021276596;0.7044917258;0.706855792;0.7092198582;0.7115839243;0.7139479905;0.7163120567;0.7186761229;0.7210401891;0.7234042553;0.7257683215;0.7281323877;0.7304964539;0.7328605201;0.7352245863;0.7399527187;0.7423167849;0.7446808511;0.7470449173;0.7494089835;0.7517730496;0.7541371158;0.756501182;0.7588652482;0.7612293144;0.7635933806;0.7659574468;0.768321513;0.780141844;0.7825059102;0.7848699764;0.7919621749;0.7943262411;0.7966903073;0.7990543735;0.8014184397;0.8085106383;0.8108747045;0.8132387707;0.8179669031;0.8203309693;0.8605200946;0.8628841608;0.865248227;0.8841607565;0.8865248227;0.8888888889;0.8912529551;0.8936170213;0.8959810875;0.8983451537;0.9007092199;0.9030732861;0.9054373522;0.9078014184;0.9101654846;0.9125295508;0.914893617;0.9196217494;0.9219858156;0.9243498818;0.926713948;0.9290780142;0.9314420804;0.9338061466;0.9361702128;0.9408983452;0.9432624113;0.9456264775;0.9479905437;0.9527186761;0.9550827423;0.9645390071;0.9669030733;0.9692671395;0.9716312057;0.9739952719;0.9763593381;0.9787234043;0.9810874704;0.9834515366;0.9858156028;0.988179669;0.9905437352;0.9929078014;0.9952718676;0.9976359338;1.0" repeatCount="indefinite" values="3000;3000;3000;2900;2900;2800;2700;2600;2600;2500;2400;2300;2200;2100;2000;1900;1800;1900;2000;2100;2200;2300;2400;2400;2500;2500;2600;2600;2700;2700;2600;2600;2700;2700;2600;2600;2500;2500;2400;2300;2200;2100;2000;2000;2100;2200;2300;2400;2500;2600;2600;2700;2800;2900;3000;3100;3200;3200;3300;3300;3200;3200;3100;3100;3200;3200;3100;3100;3000;3000;2900;2900;2800;2700;2600;2500;2400;2300;2200;2100;2000;1900;1800;1800;1700;1700;1600;1600;1500;1400;1300;1200;1100;1000;1000;900;900;1000;1100;1200;1300;1400;1500;1600;1700;1800;1900;2000;2100;2200;2300;2400;2500;2600;2600;2700;2800;2900;3000;3100;3200;3300;3400;3500;3500;3400;3300;3200;3200;3100;3000;2900;2800;2700;2600;2600;2500;2400;2300;2200;2100;2000;2000;1900;1900;1800;1900;1900;2000;2100;2200;2300;2400;2500;2500;2400;2400;2300;2200;2100;2000;1900;1800;1800;1700;1700;1800;1800;1700;1700;1800;1900;2000;2100;2200;2300;2300;2400;2400;2500;2400;2300;2200;2200;2300;2400;2500;2600;2700;2700;2800;2900;3000;2900;3000;3100;3200;3300;3400;3300;3200;3100;3000;2900;2800;2800;2700;2600;2500;2400;2300;2200;2100;2000;1900;1900;1800;1700;1700;1800;1700;1700;1600;1500;1400;1300;1300;1400;1500;1500;1600;1600;1500;1600;1600;1700;1800;1900;1900;2000;2100;2200;2300;2300;2400;2400;2500;2600;2600;2700;2800;2900;3000;3100;3200;3300;3300;3400;3300;3200;3200;3100;3100;3000;3000;2900;2800;2900;2800;2700;2700;2600;2600;2500;2400;2400;2300;2300"/>
<animate attributeName="visibility" dur="118.16000000000001s" keyTimes="0.0;0.0023640662;1.0" repeatCount="indefinite" values="visible;visible;visible"/> </circle>
<circle cx="3500" cy="-3000" fill="none" r="35" stroke="#c1433c" stroke-width="10"> <animate attributeName="cy" dur="118.16000000000001s" keyTimes="0.0;0.0023640662;0.061465721;0.0638297872;0.085106383;0.0874704492;0.1607565012;0.1631205674;0.2505910165;0.2529550827;0.3026004728;0.304964539;0.3333333333;0.3356973995;0.3687943262;0.3711583924;0.4089834515;0.4113475177;0.4680851064;0.4704491726;0.4822695035;0.4846335697;0.6028368794;0.6052009456;0.6595744681;0.6619385343;0.7139479905;0.7163120567;0.8368794326;0.8392434988;0.8817966903;0.8841607565;0.9361702128;0.938534279;0.9905437352;0.9929078014;1.0" repeatCount="indefinite" values="-3000;-3000;-3000;-3100;-3100;-900;-900;-2000;-2000;-1200;-1200;-1700;-1700;-2900;-2900;-1800;-1800;-2900;-2900;-3400;-3400;-2900;-2900;-3300;-3300;-3700;-3700;-700;-700;-2100;-2100;-2500;-2500;-800;-800;-3000;-3000"/>
<animate attributeName="cx" dur="118.16000000000001s" keyTimes="0.0;0.0023640662;0.061465721;0.0638297872;0.085106383;0.0874704492;0.1607565012;0.1631205674;0.2505910165;0.2529550827;0.3026004728;0.304964539;0.3333333333;0.3356973995;0.3687943262;0.3711583924;0.4089834515;0.4113475177;0.4680851064;0.4704491726;0.4822695035;0.4846335697;0.5460992908;0.548463357;0.6028368794;0.6052009456;0.6595744681;0.6619385343;0.7139479905;0.7163120567;0.8368794326;0.8392434988;0.8817966903;0.8841607565;0.9361702128;0.938534279;0.9905437352;0.9929078014;1.0" repeatCount="indefinite" values="3500;3500;3500;2600;2600;3600;3600;900;900;2300;2300;1500;1500;1800;1800;1200;1200;2600;2600;2700;2700;700;700;2700;2700;1100;1100;3000;3000;800;800;1300;1300;3200;3200;2600;2600;900;900"/>
<animate attributeName="visibility" dur="118.16000000000001s" keyTimes="0.0;0.0023640662;1.0" repeatCount="indefinite" values="visible;visible;visible"/> </circle>
<circle cx="2600" cy="-2600" fill="none" r="35" stroke="#2e6f9e" stroke-width="10"> <animate attributeName="cy" dur="118.16000000000001s" keyTimes="0.0;0.0023640662;0.0260047281;0.0283687943;0.0543735225;0.0567375887;0.134751773;0.1371158392;0.1725768322;0.1749408983;0.2222222222;0.2245862884;0.304964539;0.3073286052;0.4042553191;0.4066193853;0.4302600473;0.4326241135;0.4846335697;0.4869976359;0.5626477541;0.5650118203;0.5862884161;0.5886524823;0.6052009456;0.6075650118;0.7186761229;0.7210401891;0.8061465721;0.8085106383;0.8156028369;0.8179669031;0.8557919622;0.8581560284;0.9338061466;0.9361702128;1.0" repeatCount="indefinite" values="-2600;-2600;-2600;-2900;-2900;-700;-700;-1500;-1500;-700;-700;-3100;-3100;-900;-900;-1400;-1400;-1100;-1100;-1600;-1600;-1700;-1700;-2400;-2400;-3500;-3500;-2400;-2400;-2200;-2200;-600;-600;-1300;-1300;-2200;-2200"/>
<animate attributeName="cx" dur="118.16000000000001s" keyTimes="0.0;0.0023640662;0.0260047281;0.0283687943;0.0543735225;0.0567375887;0.134751773;0.1371158392;0.1725768322;0.1749408983;0.2222222222;0.2245862884;0.304964539;0.3073286052;0.4042553191;0.4066193853;0.4302600473;0.4326241135;0.4846335697;0.4869976359;0.5390070922;0.5413711584;0.5626477541;0.5650118203;0.5862884161;0.5886524823;0.6052009456;0.6075650118;0.7186761229;0.7210401891;0.8061465721;0.8085106383;0.8156028369;0.8179669031;0.8557919622;0.8581560284;0.9338061466;0.9361702128;1.0" repeatCount="indefinite" values="2600;2600;2600;1800;1800;2700;2700;2000;2000;3300;3300;2900;2900;900;900;1500;1500;3500;3500;1800;1800;2500;2500;1800;1800;1700;1700;3400;3400;1300;1300;1500;1500;1600;1600;3300;3300;2200;2200"/>
<animate attributeName="visibility" dur="118.16000000000001s" keyTimes="0.0;0.0023640662;1.0" repeatCount="indefinite" values="visible;visible;visible"/> </circle>
</svg>