<?xml version="1.0" encoding="UTF-8"?>
        <svg xmlns="http://www.w3.org/2000/svg" xmlns:xlink="http://www.w3.org/1999/xlink"
             width="430" height="430" viewBox="0 -4300 4300 4300">

<defs>

</defs>

<rect fill="#84A1AE" height="70" rx="15" width="70" x="465" y="-535" />
<rect fill="#84A1AE" height="70" rx="15" width="70" x="465" y="-635" />
<rect fill="#84A1AE" height="70" rx="15" width="70" x="465" y="-735" />
<rect fill="#84A1AE" height="70" rx="15" width="70" x="465" y="-835" />
<rect fill="#84A1AE" height="70" rx="15" width="70" x="465" y="-935" />
<rect fill="#84A1AE" height="70" rx="15" width="70" x="465" y="-1035" />
<rect fill="#84A1AE" height="70" rx="15" width="70" x="465" y="-1135" />
<rect fill="#84A1AE" height="70" rx="15" width="70" x="465" y="-1235" />
<rect fill="#84A1AE" height="70" rx="15" width="70" x="465" y="-1335" />
<rect fill="#84A1AE" height="70" rx="15" width="70" x="465" y="-1435" />
<rect fill="#84A1AE" height="70" rx="15" width="70" x="465" y="-1535" />
<rect fill="#84A1AE" height="70" rx="15" width="70" x="465" y="-1635" />
<rect fill="#84A1AE" height="70" rx="15" width="70" x="465" y="-1735" />
<rect fill="#84A1AE" height="70" rx="15" width="70" x="465" y="-1835" />
<rect fill="#84A1AE" height="70" rx="15" width="70" x="465" y="-1935" />
<rect fill="#84A1AE" height="70" rx="15" width="70" x="465" y="-2035" />
<rect fill="#84A1AE" height="70" rx="15" width="70" x="465" y="-2135" />
<rect fill="#84A1AE" height="70" rx="15" width="70" x="465" y="-2235" />
<rect fill="#84A1AE" height="70" rx="15" width="70" x="465" y="-2335" />
<rect fill="#84A1AE" height="70" rx="15" width="70" x="465" y="-2435" />
<rect fill="#84A1AE" height="70" rx="15" width="70" x="465" y="-2535" />
<rect fill="#84A1AE" height="70" rx="15" width="70" x="465" y="-2635" />
<rect fill="#84A1AE" height="70" rx="15" width="70" x="465" y="-2735" />
<rect fill="#84A1AE" height="70" rx="15" width="70" x="465" y="-2835" />
<rect fill="#84A1AE" height="70" rx="15" width="70" x="465" y="-2935" />
<rect fill="#84A1AE" height="70" rx="15" width="70" x="465" y="-3035" />
<rect fill="#84A1AE" height="70" rx="15" width="70" x="465" y="-3135" />
<rect fill="#84A1AE" height="70" rx="15" width="70" x="465" y="-3235" />
<rect fill="#84A1AE" height="70" rx="15" width="70" x="465" y="-3335" />
<rect fill="#84A1AE" height="70" rx="15" width="70" x="465" y="-3435" />
<rect fill="#84A1AE" height="70" rx="15" width="70" x="465" y="-3535" />
<rect fill="#84A1AE" height="70" rx="15" width="70" x="465" y="-3635" />
<rect fill="#84A1AE" height="70" rx="15" width="70" x="465" y="-3735" />
<rect fill="#84A1AE" height="70" rx="15" width="70" x="465" y="-3835" />
<rect fill="#84A1AE" height="70" rx="15" width="70" x="565" y="-535" />
<rect fill="#84A1AE" height="70" rx="15" width="70" x="565" y="-1635" />
<rect fill="#84A1AE" height="70" rx="15" width="70" x="565" y="-1935" />
<rect fill="#84A1AE" height="70" rx="15" width="70" x="565" y="-2735" />
<rect fill="#84A1AE" height="70" rx="15" width="70" x="565" y="-3835" />
<rect fill="#84A1AE" height="70" rx="15" width="70" x="665" y="-535" />
<rect fill="#84A1AE" height="70" rx="15" width="70" x="665" y="-1035" />
<rect fill="#84A1AE" height="70" rx="15" width="70" x="665" y="-2535" />
<rect fill="#84A1AE" height="70" rx="15" width="70" x="665" y="-3035" />
<rect fill="#84A1AE" height="70" rx="15" width="70" x="665" y="-3235" />
<rect fill="#84A1AE" height="70" rx="15" width="70" x="665" y="-3835" />
<rect fill="#84A1AE" height="70" rx="15" width="70" x="765" y="-535" />
<rect fill="#84A1AE" height="70" rx="15" width="70" x="765" y="-635" />
<rect fill="#84A1AE" height="70" rx="15" width="70" x="765" y="-3835" />
<rect fill="#84A1AE" height="70" rx="15" width="70" x="865" y="-535" />
<rect fill="#84A1AE" height="70" rx="15" width="70" x="865" y="-2435" />
<rect fill="#84A1AE" height="70" rx="15" width="70" x="865" y="-2535" />
<rect fill="#84A1AE" height="70" rx="15" width="70" x="865" y="-3335" />
<rect fill="#84A1AE" height="70" rx="15" width="70" x="865" y="-3435" />
<rect fill="#84A1AE" height="70" rx="15" width="70" x="865" y="-3835" />
<rect fill="#84A1AE" height="70" rx="15" width="70" x="965" y="-535" />
<rect fill="#84A1AE" height="70" rx="15" width="70" x="965" y="-735" />
<rect fill="#84A1AE" height="70" rx="15" width="70" x="965" y="-1635" />
<rect fill="#84A1AE" height="70" rx="15" width="70" x="965" y="-1835" />
<rect fill="#84A1AE" height="70" rx="15" width="70" x="965" y="-2835" />
<rect fill="#84A1AE" height="70" rx="15" width="70" x="965" y="-3435" />
<rect fill="#84A1AE" height="70" rx="15" width="70" x="965" y="-3835" />
<rect fill="#84A1AE" height="70" rx="15" width="70" x="1065" y="-535" />
<rect fill="#84A1AE" height="70" rx="15" width="70" x="1065" y="-1135" />
<rect fill="#84A1AE" height="70" rx="15" width="70" x="1065" y="-1835" />
<rect fill="#84A1AE" height="70" rx="15" width="70" x="1065" y="-3735" />
<rect fill="#84A1AE" height="70" rx="15" width="70" x="1065" y="-3835" />
<rect fill="#84A1AE" height="70" rx="15" width="70" x="1165" y="-535" />
<rect fill="#84A1AE" height="70" rx="15" width="70" x="1165" y="-635" />
<rect fill="#84A1AE" height="70" rx="15" width="70" x="1165" y="-735" />
<rect fill="#84A1AE" height="70" rx="15" width="70" x="1165" y="-1535" />
<rect fill="#84A1AE" height="70" rx="15" width="70" x="1165" y="-3835" />
<rect fill="#84A1AE" height="70" rx="15" width="70" x="1265" y="-535" />
<rect fill="#84A1AE" height="70" rx="15" width="70" x="1265" y="-2835" />
<rect fill="#84A1AE" height="70" rx="15" width="70" x="1265" y="-3435" />
<rect fill="#84A1AE" height="70" rx="15" width="70" x="1265" y="-3835" />
<rect fill="#84A1AE" height="70" rx="15" width="70" x="1365" y="-535" />
<rect fill="#84A1AE" height="70" rx="15" width="70" x="1365" y="-835" />
<rect fill="#84A1AE" height="70" rx="15" width="70" x="1365" y="-935" />
<rect fill="#84A1AE" height="70" rx="15" width="70" x="1365" y="-1035" />
<rect fill="#84A1AE" height="70" rx="15" width="70" x="1365" y="-1935" />
<rect fill="#84A1AE" height="70" rx="15" width="70" x="1365" y="-2335" />
<rect fill="#84A1AE" height="70" rx="15" width="70" x="1365" y="-2635" />
<rect fill="#84A1AE" height="70" rx="15" width="70" x="1365" y="-2835" />
<rect fill="#84A1AE" height="70" rx="15" width="70" x="1365" y="-2935" />
<rect fill="#84A1AE" height="70" rx="15" width="70" x="1365" y="-3035" />
<rect fill="#84A1AE" height="70" rx="15" width="70" x="1365" y="-3335" />
<rect fill="#84A1AE" height="70" rx="15" width="70" x="1365" y="-3835" />
<rect fill="#84A1AE" height="70" rx="15" width="70" x="1465" y="-535" />
<rect fill="#84A1AE" height="70" rx="15" width="70" x="1465" y="-1235" />
<rect fill="#84A1AE" height="70" rx="15" width="70" x="1465" y="-1535" />
<rect fill="#84A1AE" height="70" rx="15" width="70" x="1465" y="-2035" />
<rect fill="#84A1AE" height="70" rx="15" width="70" x="1465" y="-3135" />
<rect fill="#84A1AE" height="70" rx="15" width="70" x="1465" y="-3235" />
<rect fill="#84A1AE" height="70" rx="15" width="70" x="1465" y="-3835" />
<rect fill="#84A1AE" height="70" rx="15" width="70" x="1565" y="-535" />
<rect fill="#84A1AE" height="70" rx="15" width="70" x="1565" y="-3035" />
<rect fill="#84A1AE" height="70" rx="15" width="70" x="1565" y="-3835" />
<rect fill="#84A1AE" height="70" rx="15" width="70" x="1665" y="-535" />
<rect fill="#84A1AE" height="70" rx="15" width="70" x="1665" y="-3735" />
<rect fill="#84A1AE" height="70" rx="15" width="70" x="1665" y="-3835" />
<rect fill="#84A1AE" height="70" rx="15" width="70" x="1765" y="-535" />
<rect fill="#84A1AE" height="70" rx="15" width="70" x="1765" y="-1235" />
<rect fill="#84A1AE" height="70" rx="15" width="70" x="1765" y="-3835" />
<rect fill="#84A1AE" height="70" rx="15" width="70" x="1865" y="-535" />
<rect fill="#84A1AE" height="70" rx="15" width="70" x="1865" y="-735" />
<rect fill="#84A1AE" height="70" rx="15" width="70" x="1865" y="-1335" />
<rect fill="#84A1AE" height="70" rx="15" width="70" x="1865" y="-3235" />
<rect fill="#84A1AE" height="70" rx="15" width="70" x="1865" y="-3435" />
<rect fill="#84A1AE" height="70" rx="15" width="70" x="1865" y="-3835" />
<rect fill="#84A1AE" height="70" rx="15" width="70" x="1965" y="-535" />
<rect fill="#84A1AE" height="70" rx="15" width="70" x="1965" y="-635" />
<rect fill="#84A1AE" height="70" rx="15" width="70" x="1965" y="-1835" />
<rect fill="#84A1AE" height="70" rx="15" width="70" x="1965" y="-1935" />
<rect fill="#84A1AE" height="70" rx="15" width="70" x="1965" y="-2135" />
<rect fill="#84A1AE" height="70" rx="15" width="70" x="1965" y="-2335" />
<rect fill="#84A1AE" height="70" rx="15" width="70" x="1965" y="-2435" />
<rect fill="#84A1AE" height="70" rx="15" width="70" x="1965" y="-3335" />
<rect fill="#84A1AE" height="70" rx="15" width="70" x="1965" y="-3835" />
<rect fill="#84A1AE" height="70" rx="15" width="70" x="2065" y="-535" />
<rect fill="#84A1AE" height="70" rx="15" width="70" x="2065" y="-1535" />
<rect fill="#84A1AE" height="70" rx="15" width="70" x="2065" y="-1635" />
<rect fill="#84A1AE" height="70" rx="15" width="70" x="2065" y="-2135" />
<rect fill="#84A1AE" height="70" rx="15" width="70" x="2065" y="-3835" />
<rect fill="#84A1AE" height="70" rx="15" width="70" x="2165" y="-535" />
<rect fill="#84A1AE" height="70" rx="15" width="70" x="2165" y="-935" />
<rect fill="#84A1AE" height="70" rx="15" width="70" x="2165" y="-1335" />
<rect fill="#84A1AE" height="70" rx="15" width="70" x="2165" y="-1835" />
<rect fill="#84A1AE" height="70" rx="15" width="70" x="2165" y="-3835" />
<rect fill="#84A1AE" height="70" rx="15" width="70" x="2265" y="-535" />
<rect fill="#84A1AE" height="70" rx="15" width="70" x="2265" y="-935" />
<rect fill="#84A1AE" height="70" rx="15" width="70" x="2265" y="-1135" />
<rect fill="#84A1AE" height="70" rx="15" width="70" x="2265" y="-2535" />
<rect fill="#84A1AE" height="70" rx="15" width="70" x="2265" y="-3235" />
<rect fill="#84A1AE" height="70" rx="15" width="70" x="2265" y="-3835" />
<rect fill="#84A1AE" height="70" rx="15" width="70" x="2365" y="-535" />
<rect fill="#84A1AE" height="70" rx="15" width="70" x="2365" y="-935" />
<rect fill="#84A1AE" height="70" rx="15" width="70" x="2365" y="-1035" />
<rect fill="#84A1AE" height="70" rx="15" width="70" x="2365" y="-3835" />
<rect fill="#84A1AE" height="70" rx="15" width="70" x="2465" y="-535" />
<rect fill="#84A1AE" height="70" rx="15" width="70" x="2465" y="-935" />
<rect fill="#84A1AE" height="70" rx="15" width="70" x="2465" y="-1535" />
<rect fill="#84A1AE" height="70" rx="15" width="70" x="2465" y="-2335" />
<rect fill="#84A1AE" height="70" rx="15" width="70" x="2465" y="-2735" />
<rect fill="#84A1AE" height="70" rx="15" width="70" x="2465" y="-3835" />
<rect fill="#84A1AE" height="70" rx="15" width="70" x="2565" y="-535" />
<rect fill="#84A1AE" height="70" rx="15" width="70" x="2565" y="-735" />
<rect fill="#84A1AE" height="70" rx="15" width="70" x="2565" y="-2535" />
<rect fill="#84A1AE" height="70" rx="15" width="70" x="2565" y="-3835" />
<rect fill="#84A1AE" height="70" rx="15" width="70" x="2665" y="-535" />
<rect fill="#84A1AE" height="70" rx="15" width="70" x="2665" y="-635" />
<rect fill="#84A1AE" height="70" rx="15" width="70" x="2665" y="-1135" />
<rect fill="#84A1AE" height="70" rx="15" width="70" x="2665" y="-1435" />
<rect fill="#84A1AE" height="70" rx="15" width="70" x="2665" y="-2735" />
<rect fill="#84A1AE" height="70" rx="15" width="70" x="2665" y="-3835" />
<rect fill="#84A1AE" height="70" rx="15" width="70" x="2765" y="-535" />
<rect fill="#84A1AE" height="70" rx="15" width="70" x="2765" y="-1635" />
<rect fill="#84A1AE" height="70" rx="15" width="70" x="2765" y="-1835" />
<rect fill="#84A1AE" height="70" rx="15" width="70" x="2765" y="-1935" />
<rect fill="#84A1AE" height="70" rx="15" width="70" x="2765" y="-2235" />
<rect fill="#84A1AE" height="70" rx="15" width="70" x="2765" y="-3735" />
<rect fill="#84A1AE" height="70" rx="15" width="70" x="2765" y="-3835" />
<rect fill="#84A1AE" height="70" rx="15" width="70" x="2865" y="-535" />
<rect fill="#84A1AE" height="70" rx="15" width="70" x="2865" y="-3835" />
<rect fill="#84A1AE" height="70" rx="15" width="70" x="2965" y="-535" />
<rect fill="#84A1AE" height="70" rx="15" width="70" x="2965" y="-2635" />
<rect fill="#84A1AE" height="70" rx="15" width="70" x="2965" y="-3835" />
<rect fill="#84A1AE" height="70" rx="15" width="70" x="3065" y="-535" />
<rect fill="#84A1AE" height="70" rx="15" width="70" x="3065" y="-735" />
<rect fill="#84A1AE" height="70" rx="15" width="70" x="3065" y="-2535" />
<rect fill="#84A1AE" height="70" rx="15" width="70" x="3065" y="-3835" />
<rect fill="#84A1AE" height="70" rx="15" width="70" x="3165" y="-535" />
<rect fill="#84A1AE" height="70" rx="15" width="70" x="3165" y="-835" />
<rect fill="#84A1AE" height="70" rx="15" width="70" x="3165" y="-1935" />
<rect fill="#84A1AE" height="70" rx="15" width="70" x="3165" y="-2735" />
<rect fill="#84A1AE" height="70" rx="15" width="70" x="3165" y="-3135" />
<rect fill="#84A1AE" height="70" rx="15" width="70" x="3165" y="-3835" />
<rect fill="#84A1AE" height="70" rx="15" width="70" x="3265" y="-535" />
<rect fill="#84A1AE" height="70" rx="15" width="70" x="3265" y="-1035" />
<rect fill="#84A1AE" height="70" rx="15" width="70" x="3265" y="-1735" />
<rect fill="#84A1AE" height="70" rx="15" width="70" x="3265" y="-3835" />
<rect fill="#84A1AE" height="70" rx="15" width="70" x="3365" y="-535" />
<rect fill="#84A1AE" height="70" rx="15" width="70" x="3365" y="-1435" />
<rect fill="#84A1AE" height="70" rx="15" width="70" x="3365" y="-1935" />
<rect fill="#84A1AE" height="70" rx="15" width="70" x="3365" y="-2135" />
<rect fill="#84A1AE" height="70" rx="15" width="70" x="3365" y="-3835" />
<rect fill="#84A1AE" height="70" rx="15" width="70" x="3465" y="-535" />
<rect fill="#84A1AE" height="70" rx="15" width="70" x="3465" y="-2635" />
<rect fill="#84A1AE" height="70" rx="15" width="70" x="3465" y="-3835" />
<rect fill="#84A1AE" height="70" rx="15" width="70" x="3565" y="-535" />
<rect fill="#84A1AE" height="70" rx="15" width="70" x="3565" y="-635" />
<rect fill="#84A1AE" height="70" rx="15" width="70" x="3565" y="-2435" />
<rect fill="#84A1AE" height="70" rx="15" width="70" x="3565" y="-3235" />
<rect fill="#84A1AE" height="70" rx="15" width="70" x="3565" y="-3835" />
<rect fill="#84A1AE" height="70" rx="15" width="70" x="3665" y="-535" />
<rect fill="#84A1AE" height="70" rx="15" width="70" x="3665" y="-2135" />
<rect fill="#84A1AE" height="70" rx="15" width="70" x="3665" y="-2835" />
<rect fill="#84A1AE" height="70" rx="15" width="70" x="3665" y="-3135" />
<rect fill="#84A1AE" height="70" rx="15" width="70" x="3665" y="-3735" />
<rect fill="#84A1AE" height="70" rx="15" width="70" x="3665" y="-3835" />
<rect fill="#84A1AE" height="70" rx="15" width="70" x="3765" y="-535" />
<rect fill="#84A1AE" height="70" rx="15" width="70" x="3765" y="-635" />
<rect fill="#84A1AE" height="70" rx="15" width="70" x="3765" y="-735" />
<rect fill="#84A1AE" height="70" rx="15" width="70" x="3765" y="-835" />
<rect fill="#84A1AE" height="70" rx="15" width="70" x="3765" y="-935" />
<rect fill="#84A1AE" height="70" rx="15" width="70" x="3765" y="-1035" />
<rect fill="#84A1AE" height="70" rx="15" width="70" x="3765" y="-1135" />
<rect fill="#84A1AE" height="70" rx="15" width="70" x="3765" y="-1235" />
<rect fill="#84A1AE" height="70" rx="15" width="70" x="3765" y="-1335" />
<rect fill="#84A1AE" height="70" rx="15" width="70" x="3765" y="-1435" />
<rect fill="#84A1AE" height="70" rx="15" width="70" x="3765" y="-1535" />
<rect fill="#84A1AE" height="70" rx="15" width="70" x="3765" y="-1635" />
<rect fill="#84A1AE" height="70" rx="15" width="70" x="3765" y="-1735" />
<rect fill="#84A1AE" height="70" rx="15" width="70" x="3765" y="-1835" />
<rect fill="#84A1AE" height="70" rx="15" width="70" x="3765" y="-1935" />
<rect fill="#84A1AE" height="70" rx="15" width="70" x="3765" y="-2035" />
<rect fill="#84A1AE" height="70" rx="15" width="70" x="3765" y="-2135" />
<rect fill="#84A1AE" height="70" rx="15" width="70" x="3765" y="-2235" />
<rect fill="#84A1AE" height="70" rx="15" width="70" x="3765" y="-2335" />
<rect fill="#84A1AE" height="70" rx="15" width="70" x="3765" y="-2435" />
<rect fill="#84A1AE" height="70" rx="15" width="70" x="3765" y="-2535" />
<rect fill="#84A1AE" height="70" rx="15" width="70" x="3765" y="-2635" />
<rect fill="#84A1AE" height="70" rx="15" width="70" x="3765" y="-2735" />
<rect fill="#84A1AE" height="70" rx="15" width="70" x="3765" y="-2835" />
<rect fill="#84A1AE" height="70" rx="15" width="70" x="3765" y="-2935" />
<rect fill="#84A1AE" height="70" rx="15" width="70" x="3765" y="-3035" />
<rect fill="#84A1AE" height="70" rx="15" width="70" x="3765" y="-3135" />
<rect fill="#84A1AE" height="70" rx="15" width="70" x="3765" y="-3235" />
<rect fill="#84A1AE" height="70" rx="15" width="70" x="3765" y="-3335" />
<rect fill="#84A1AE" height="70" rx="15" width="70" x="3765" y="-3435" />
<rect fill="#84A1AE" height="70" rx="15" width="70" x="3765" y="-3535" />
<rect fill="#84A1AE" height="70" rx="15" width="70" x="3765" y="-3635" />
<rect fill="#84A1AE" height="70" rx="15" width="70" x="3765" y="-3735" />
<rect fill="#84A1AE" height="70" rx="15" width="70" x="3765" y="-3835" />
<circle cx="2500" cy="-1400" fill="#c1433c" r="35"> <animate attributeName="cy" dur="42.28s" keyTimes="0.0;0.0065789474;0.0197368421;0.0263157895;0.0328947368;0.0394736842;0.0526315789;0.0592105263;0.0657894737;0.0723684211;0.0921052632;0.0986842105;0.1052631579;0.1118421053;0.1184210526;0.125;0.1315789474;0.1381578947;0.1447368421;0.1578947368;0.1644736842;0.1710526316;0.1776315789;0.1973684211;0.2039473684;0.2105263158;0.2171052632;0.2236842105;0.2302631579;0.2763157895;0.2828947368;0.2894736842;0.2960526316;0.3026315789;0.3092105263;0.3157894737;0.3223684211;0.4144736842;0.4210526316;0.4276315789;0.4342105263;0.4407894737;0.4473684211;0.4802631579;0.4868421053;0.4934210526;0.5;0.5197368421;0.5263157895;0.5328947368;0.5394736842;0.5460526316;0.5526315789;0.5657894737;0.5723684211;0.5789473684;0.5855263158;0.5921052632;0.6052631579;0.6118421053;0.6184210526;0.625;0.6315789474;0.6381578947;0.6447368421;0.6644736842;0.6710526316;0.6907894737;0.6973684211;0.7039473684;0.7105263158;0.7171052632;0.7236842105;0.7302631579;0.7368421053;0.7434210526;0.7565789474;0.7631578947;0.7763157895;0.7828947368;0.7894736842;0.7960526316;0.8092105263;0.8157894737;0.875;0.8815789474;0.8947368421;0.9013157895;0.9078947368;0.9144736842;0.9210526316;0.9671052632;0.9736842105;0.9802631579;0.9868421053;1.0" repeatCount="indefinite" values="-1400;-1400;-1400;-1300;-1200;-1300;-1300;-1200;-1200;-1100;-1100;-1200;-1100;-1200;-1100;-1000;-1000;-1100;-1200;-1200;-1100;-1200;-1100;-1100;-1200;-1100;-1100;-1000;-1100;-1100;-1200;-1300;-1400;-1500;-1500;-1600;-1700;-1700;-1800;-1900;-1800;-1800;-1700;-1700;-1800;-1800;-1700;-1700;-1800;-1900;-1900;-2000;-1900;-1900;-2000;-2000;-1900;-2000;-2000;-2100;-2100;-2200;-2300;-2400;-2300;-2300;-2400;-2400;-2500;-2600;-2600;-2700;-2700;-2800;-2800;-2700;-2700;-2800;-2800;-2700;-2700;-2600;-2600;-2500;-2500;-2400;-2400;-2300;-2300;-2200;-2100;-2100;-2000;-2000;-2100;-2100"/>
<animate attributeName="cx" dur="42.28s" keyTimes="0.0;0.0065789474;0.0394736842;0.0460526316;0.0592105263;0.0657894737;0.0723684211;0.0789473684;0.0855263158;0.0921052632;0.1447368421;0.1513157895;0.1842105263;0.1907894737;0.2105263158;0.2171052632;0.2434210526;0.25;0.2565789474;0.3026315789;0.3092105263;0.3223684211;0.3289473684;0.3552631579;0.3618421053;0.3684210526;0.375;0.3815789474;0.3881578947;0.3947368421;0.4013157895;0.4078947368;0.4144736842;0.4473684211;0.4539473684;0.4671052632;0.4736842105;0.4802631579;0.4868421053;0.4934210526;0.5;0.5065789474;0.5131578947;0.5197368421;0.5328947368;0.5394736842;0.5723684211;0.5789473684;0.5921052632;0.5986842105;0.6052631579;0.6118421053;0.6184210526;0.6513157895;0.6578947368;0.6842105263;0.6907894737;0.7039473684;0.7105263158;0.7302631579;0.7368421053;0.7434210526;0.75;0.7828947368;0.7894736842;0.7960526316;0.8026315789;0.8092105263;0.8157894737;0.8223684211;0.8815789474;0.8881578947;0.9013157895;0.9078947368;0.9210526316;0.9276315789;0.9342105263;0.9407894737;0.9473684211;0.9539473684;0.9605263158;0.9671052632;1.0" repeatCount="indefinite" values="2500;2500;2500;2400;2400;2500;2500;2400;2400;2500;2500;2400;2400;2500;2500;2600;2600;2500;2600;2600;2700;2700;2800;2800;2900;2800;2700;2700;2800;2800;2900;2800;2900;2900;2800;2800;2900;3000;3000;2900;2900;2800;2900;3000;3000;3100;3100;3000;3000;2900;2800;2800;2700;2700;2600;2600;2700;2700;2800;2800;2900;2900;3000;3000;2900;2900;2800;2900;2900;3000;3000;2900;2900;3000;3000;3100;3100;3200;3100;3000;2900;2800;2800"/>
<animate attributeName="visibility" dur="42.28s" keyTimes="0.0;0.0065789474;1.0" repeatCount="indefinite" values="visible;visible;visible"/> </circle>
<circle cx="3000" cy="-1900" fill="#2e6f9e" r="35"> <animate attributeName="cy" dur="42.28s" keyTimes="0.0;0.0065789474;0.0131578947;0.0197368421;0.0263157895;0.0328947368;0.0394736842;0.0460526316;0.0526315789;0.0592105263;0.0657894737;0.0723684211;0.0789473684;0.0855263158;0.0921052632;0.1842105263;0.1907894737;0.1973684211;0.2039473684;0.2105263158;0.2171052632;0.2236842105;0.2302631579;0.2368421053;0.2434210526;0.25;0.2565789474;0.2631578947;0.2697368421;0.2763157895;0.2828947368;0.2894736842;0.2960526316;0.3026315789;0.3092105263;0.3157894737;0.3223684211;0.3289473684;0.3355263158;0.3421052632;0.3486842105;0.3552631579;0.3618421053;0.3684210526;0.375;0.3815789474;0.3881578947;0.3947368421;0.4013157895;0.4078947368;0.4144736842;0.4210526316;0.4276315789;0.4342105263;0.4407894737;0.4473684211;0.4539473684;0.4605263158;0.4671052632;0.4736842105;0.4802631579;0.4868421053;0.4934210526;0.5;0.5065789474;0.5131578947;0.5197368421;0.5263157895;0.5328947368;0.5460526316;0.5526315789;0.5592105263;0.5657894737;0.5723684211;0.5789473684;0.5855263158;0.5921052632;0.5986842105;0.6052631579;0.6118421053;0.6184210526;0.625;0.6315789474;0.6381578947;0.6447368421;0.6513157895;0.6578947368;0.6644736842;0.6710526316;0.6776315789;0.6842105263;0.6907894737;0.6973684211;0.7039473684;0.7105263158;0.7171052632;0.7236842105;0.7302631579;0.7368421053;0.75;0.7565789474;0.7631578947;0.7697368421;0.7763157895;0.7828947368;0.7894736842;0.7960526316;0.8026315789;0.8092105263;0.8157894737;0.8223684211;0.8289473684;0.8355263158;0.8421052632;0.8486842105;0.8552631579;0.8815789474;0.8881578947;0.9144736842;0.9210526316;0.9276315789;0.9342105263;0.9407894737;0.9473684211;0.9539473684;0.9605263158;1.0" repeatCount="indefinite" values="-1900;-1900;-1900;-2000;-2100;-2200;-2300;-2400;-2400;-2500;-2500;-2600;-2600;-2700;-2800;-2800;-2700;-2600;-2500;-2400;-2300;-2200;-2100;-2000;-2000;-1900;-1800;-1700;-1600;-1500;-1400;-1300;-1200;-1100;-1000;-900;-800;-700;-800;-900;-1000;-1100;-1200;-1300;-1400;-1500;-1600;-1700;-1800;-1900;-2000;-2100;-2200;-2300;-2400;-2500;-2600;-2700;-2800;-2900;-3000;-3100;-3200;-3300;-3400;-3500;-3600;-3600;-3700;-3700;-3600;-3500;-3500;-3400;-3300;-3200;-3100;-3000;-2900;-2800;-2700;-2600;-2500;-2400;-2300;-2300;-2200;-2100;-2000;-2000;-1900;-1800;-1700;-1600;-1500;-1400;-1300;-1300;-1200;-1200;-1100;-1200;-1300;-1400;-1500;-1600;-1700;-1800;-1900;-2000;-2100;-2200;-2300;-2400;-2400;-2500;-2500;-2400;-2400;-2300;-2300;-2200;-2200;-2100;-2200;-2300;-2300"/>
<animate attributeName="cx" dur="42.28s" keyTimes="0.0;0.0065789474;0.0131578947;0.0460526316;0.0526315789;0.0592105263;0.0657894737;0.0723684211;0.0789473684;0.0921052632;0.0986842105;0.1052631579;0.1118421053;0.1184210526;0.125;0.1315789474;0.1381578947;0.1447368421;0.1513157895;0.1578947368;0.1644736842;0.1710526316;0.1776315789;0.1842105263;0.2368421053;0.2434210526;0.5197368421;0.5263157895;0.5328947368;0.5394736842;0.5460526316;0.5592105263;0.5657894737;0.6447368421;0.6513157895;0.6710526316;0.6776315789;0.7236842105;0.7302631579;0.7368421053;0.7434210526;0.75;0.8421052632;0.8486842105;0.8552631579;0.8618421053;0.8684210526;0.875;0.8815789474;0.8881578947;0.8947368421;0.9013157895;0.9078947368;0.9144736842;0.9210526316;0.9276315789;0.9342105263;0.9407894737;0.9605263158;0.9671052632;0.9736842105;0.9802631579;0.9868421053;0.9934210526;1.0" repeatCount="indefinite" values="3000;3000;2900;2900;2800;2800;2700;2700;2600;2600;2700;2800;2900;2800;2700;2600;2500;2400;2300;2200;2100;2000;1900;1800;1800;1700;1700;1800;1800;1900;2000;2000;2100;2100;2200;2200;2300;2300;2400;2400;2500;2600;2600;2700;2700;2800;2900;2900;3000;3000;3100;3200;3300;3400;3400;3500;3500;3600;3600;3500;3400;3300;3200;3100;3100"/>
<animate attributeName="visibility" dur="42.28s" keyTimes="0.0;0.0065789474;1.0" repeatCount="indefinite" values="visible;visible;visible"/> </circle>
<circle cx="3500" cy="-3000" fill="none" r="35" stroke="#c1433c" stroke-width="10"> <animate attributeName="cy" dur="42.28s" keyTimes="0.0;0.0065789474;1.0" repeatCount="indefinite" values="-3000;-3000;-3000"/>
<animate attributeName="cx" dur="42.28s" keyTimes="0.0;0.0065789474;1.0" repeatCount="indefinite" values="3500;3500;3500"/>
<animate attributeName="visibility" dur="42.28s" keyTimes="0.0;0.0065789474;1.0" repeatCount="indefinite" values="visible;visible;visible"/> </circle>
<circle cx="2600" cy="-2600" fill="none" r="35" stroke="#2e6f9e" stroke-width="10"> <animate attributeName="cy" dur="42.28s" keyTimes="0.0;0.0065789474;0.0723684211;0.0789473684;0.1052631579;0.1118421053;0.2302631579;0.2368421053;0.3223684211;0.3289473684;0.5394736842;0.5460526316;0.75;0.7565789474;0.8552631579;0.8618421053;0.9407894737;0.9473684211;0.9539473684;0.9605263158;1.0" repeatCount="indefinite" values="-2600;-2600;-2600;-2800;-2800;-2000;-2000;-700;-700;-3700;-3700;-1100;-1100;-2500;-2500;-2100;-2100;-2300;-2300;-2200;-2200"/>
<animate attributeName="cx" dur="42.28s" keyTimes="0.0;0.0065789474;0.0723684211;0.0789473684;0.1052631579;0.1118421053;0.2302631579;0.2368421053;0.3223684211;0.3289473684;0.5394736842;0.5460526316;0.75;0.7565789474;0.8552631579;0.8618421053;0.9539473684;0.9605263158;1.0" repeatCount="indefinite" values="2600;2600;2600;2900;2900;1800;1800;1700;1700;2000;2000;2600;2600;2800;2800;3600;3600;1900;1900"/>
<animate attributeName="visibility" dur="42.28s" keyTimes="0.0;0.0065789474;1.0" repeatCount="indefinite" values="visible;visible;visible"/> </circle>
</svg>