<?xml version="1.0" encoding="UTF-8"?>
        <svg xmlns="http://www.w3.org/2000/svg" xmlns:xlink="http://www.w3.org/1999/xlink"
             width="430" height="430" viewBox="0 -4300 4300 4300">

<defs>

</defs>

<rect fill="#84A1AE" height="70" rx="15" width="70" x="465" y="-535" />
<rect fill="#84A1AE" height="70" rx="15" width="70" x="465" y="-635" />
<rect fill="#84A1AE" height="70" rx="15" width="70" x="465" y="-735" />
<rect fill="#84A1AE" height="70" rx="15" width="70" x="465" y="-835" />
<rect fill="#84A1AE" height="70" rx="15" width="70" x="465" y="-935" />
<rect fill="#84A1AE" height="70" rx="15" width="70" x="465" y="-1035" />
<rect fill="#84A1AE" height="70" rx="15" width="70" x="465" y="-1135" />
<rect fill="#84A1AE" height="70" rx="15" width="70" x="465" y="-1235" />
<rect fill="#84A1AE" height="70" rx="15" width="70" x="465" y="-1335" />
<rect fill="#84A1AE" height="70" rx="15" width="70" x="465" y="-1435" />
<rect fill="#84A1AE" height="70" rx="15" width="70" x="465" y="-1535" />
<rect fill="#84A1AE" height="70" rx="15" width="70" x="465" y="-1635" />
<rect fill="#84A1AE" height="70" rx="15" width="70" x="465" y="-1735" />
<rect fill="#84A1AE" height="70" rx="15" width="70" x="465" y="-1835" />
<rect fill="#84A1AE" height="70" rx="15" width="70" x="465" y="-1935" />
<rect fill="#84A1AE" height="70" rx="15" width="70" x="465" y="-2035" />
<rect fill="#84A1AE" height="70" rx="15" width="70" x="465" y="-2135" />
<rect fill="#84A1AE" height="70" rx="15" width="70" x="465" y="-2235" />
<rect fill="#84A1AE" height="70" rx="15" width="70" x="465" y="-2335" />
<rect fill="#84A1AE" height="70" rx="15" width="70" x="465" y="-2435" />
<rect fill="#84A1AE" height="70" rx="15" width="70" x="465" y="-2535" />
<rect fill="#84A1AE" height="70" rx="15" width="70" x="465" y="-2635" />
<rect fill="#84A1AE" height="70" rx="15" width="70" x="465" y="-2735" />
<rect fill="#84A1AE" height="70" rx="15" width="70" x="465" y="-2835" />
<rect fill="#84A1AE" height="70" rx="15" width="70" x="465" y="-2935" />
<rect fill="#84A1AE" height="70" rx="15" width="70" x="465" y="-3035" />
<rect fill="#84A1AE" height="70" rx="15" width="70" x="465" y="-3135" />
<rect fill="#84A1AE" height="70" rx="15" width="70" x="465" y="-3235" />
<rect fill="#84A1AE" height="70" rx="15" width="70" x="465" y="-3335" />
<rect fill="#84A1AE" height="70" rx="15" width="70" x="465" y="-3435" />
<rect fill="#84A1AE" height="70" rx="15" width="70" x="465" y="-3535" />
<rect fill="#84A1AE" height="70" rx="15" width="70" x="465" y="-3635" />
<rect fill="#84A1AE" height="70" rx="15" width="70" x="465" y="-3735" />
<rect fill="#84A1AE" height="70" rx="15" width="70" x="465" y="-3835" />
<rect fill="#84A1AE" height="70" rx="15" width="70" x="565" y="-535" />
<rect fill="#84A1AE" height="70" rx="15" width="70" x="565" y="-1635" />
<rect fill="#84A1AE" height="70" rx="15" width="70" x="565" y="-1935" />
<rect fill="#84A1AE" height="70" rx="15" width="70" x="565" y="-2735" />
<rect fill="#84A1AE" height="70" rx="15" width="70" x="565" y="-3835" />
<rect fill="#84A1AE" height="70" rx="15" width="70" x="665" y="-535" />
<rect fill="#84A1AE" height="70" rx="15" width="70" x="665" y="-1035" />
<rect fill="#84A1AE" height="70" rx="15" width="70" x="665" y="-2535" />
<rect fill="#84A1AE" height="70" rx="15" width="70" x="665" y="-3035" />
<rect fill="#84A1AE" height="70" rx="15" width="70" x="665" y="-3235" />
<rect fill="#84A1AE" height="70" rx="15" width="70" x="665" y="-3835" />
<rect fill="#84A1AE" height="70" rx="15" width="70" x="765" y="-535" />
<rect fill="#84A1AE" height="70" rx="15" width="70" x="765" y="-635" />
<rect fill="#84A1AE" height="70" rx="15" width="70" x="765" y="-3835" />
<rect fill="#84A1AE" height="70" rx="15" width="70" x="865" y="-535" />
<rect fill="#84A1AE" height="70" rx="15" width="70" x="865" y="-2435" />
<rect fill="#84A1AE" height="70" rx="15" width="70" x="865" y="-2535" />
<rect fill="#84A1AE" height="70" rx="15" width="70" x="865" y="-3335" />
<rect fill="#84A1AE" height="70" rx="15" width="70" x="865" y="-3435" />
<rect fill="#84A1AE" height="70" rx="15" width="70" x="865" y="-3835" />
<rect fill="#84A1AE" height="70" rx="15" width="70" x="965" y="-535" />
<rect fill="#84A1AE" height="70" rx="15" width="70" x="965" y="-735" />
<rect fill="#84A1AE" height="70" rx="15" width="70" x="965" y="-1635" />
<rect fill="#84A1AE" height="70" rx="15" width="70" x="965" y="-1835" />
<rect fill="#84A1AE" height="70" rx="15" width="70" x="965" y="-2835" />
<rect fill="#84A1AE" height="70" rx="15" width="70" x="965" y="-3435" />
<rect fill="#84A1AE" height="70" rx="15" width="70" x="965" y="-3835" />
<rect fill="#84A1AE" height="70" rx="15" width="70" x="1065" y="-535" />
<rect fill="#84A1AE" height="70" rx="15" width="70" x="1065" y="-1135" />
<rect fill="#84A1AE" height="70" rx="15" width="70" x="1065" y="-1835" />
<rect fill="#84A1AE" height="70" rx="15" width="70" x="1065" y="-3735" />
<rect fill="#84A1AE" height="70" rx="15" width="70" x="1065" y="-3835" />
<rect fill="#84A1AE" height="70" rx="15" width="70" x="1165" y="-535" />
<rect fill="#84A1AE" height="70" rx="15" width="70" x="1165" y="-635" />
<rect fill="#84A1AE" height="70" rx="15" width="70" x="1165" y="-735" />
<rect fill="#84A1AE" height="70" rx="15" width="70" x="1165" y="-1535" />
<rect fill="#84A1AE" height="70" rx="15" width="70" x="1165" y="-3835" />
<rect fill="#84A1AE" height="70" rx="15" width="70" x="1265" y="-535" />
<rect fill="#84A1AE" height="70" rx="15" width="70" x="1265" y="-2835" />
<rect fill="#84A1AE" height="70" rx="15" width="70" x="1265" y="-3435" />
<rect fill="#84A1AE" height="70" rx="15" width="70" x="1265" y="-3835" />
<rect fill="#84A1AE" height="70" rx="15" width="70" x="1365" y="-535" />
<rect fill="#84A1AE" height="70" rx="15" width="70" x="1365" y="-835" />
<rect fill="#84A1AE" height="70" rx="15" width="70" x="1365" y="-935" />
<rect fill="#84A1AE" height="70" rx="15" width="70" x="1365" y="-1035" />
<rect fill="#84A1AE" height="70" rx="15" width="70" x="1365" y="-1935" />
<rect fill="#84A1AE" height="70" rx="15" width="70" x="1365" y="-2335" />
<rect fill="#84A1AE" height="70" rx="15" width="70" x="1365" y="-2635" />
<rect fill="#84A1AE" height="70" rx="15" width="70" x="1365" y="-2835" />
<rect fill="#84A1AE" height="70" rx="15" width="70" x="1365" y="-2935" />
<rect fill="#84A1AE" height="70" rx="15" width="70" x="1365" y="-3035" />
<rect fill="#84A1AE" height="70" rx="15" width="70" x="1365" y="-3335" />
<rect fill="#84A1AE" height="70" rx="15" width="70" x="1365" y="-3835" />
<rect fill="#84A1AE" height="70" rx="15" width="70" x="1465" y="-535" />
<rect fill="#84A1AE" height="70" rx="15" width="70" x="1465" y="-1235" />
<rect fill="#84A1AE" height="70" rx="15" width="70" x="1465" y="-1535" />
<rect fill="#84A1AE" height="70" rx="15" width="70" x="1465" y="-2035" />
<rect fill="#84A1AE" height="70" rx="15" width="70" x="1465" y="-3135" />
<rect fill="#84A1AE" height="70" rx="15" width="70" x="1465" y="-3235" />
<rect fill="#84A1AE" height="70" rx="15" width="70" x="1465" y="-3835" />
<rect fill="#84A1AE" height="70" rx="15" width="70" x="1565" y="-535" />
<rect fill="#84A1AE" height="70" rx="15" width="70" x="1565" y="-3035" />
<rect fill="#84A1AE" height="70" rx="15" width="70" x="1565" y="-3835" />
<rect fill="#84A1AE" height="70" rx="15" width="70" x="1665" y="-535" />
<rect fill="#84A1AE" height="70" rx="15" width="70" x="1665" y="-3735" />
<rect fill="#84A1AE" height="70" rx="15" width="70" x="1665" y="-3835" />
<rect fill="#84A1AE" height="70" rx="15" width="70" x="1765" y="-535" />
<rect fill="#84A1AE" height="70" rx="15" width="70" x="1765" y="-1235" />
<rect fill="#84A1AE" height="70" rx="15" width="70" x="1765" y="-3835" />
<rect fill="#84A1AE" height="70" rx="15" width="70" x="1865" y="-535" />
<rect fill="#84A1AE" height="70" rx="15" width="70" x="1865" y="-735" />
<rect fill="#84A1AE" height="70" rx="15" width="70" x="1865" y="-1335" />
<rect fill="#84A1AE" height="70" rx="15" width="70" x="1865" y="-3235" />
<rect fill="#84A1AE" height="70" rx="15" width="70" x="1865" y="-3435" />
<rect fill="#84A1AE" height="70" rx="15" width="70" x="1865" y="-3835" />
<rect fill="#84A1AE" height="70" rx="15" width="70" x="1965" y="-535" />
<rect fill="#84A1AE" height="70" rx="15" width="70" x="1965" y="-635" />
<rect fill="#84A1AE" height="70" rx="15" width="70" x="1965" y="-1835" />
<rect fill="#84A1AE" height="70" rx="15" width="70" x="1965" y="-1935" />
<rect fill="#84A1AE" height="70" rx="15" width="70" x="1965" y="-2135" />
<rect fill="#84A1AE" height="70" rx="15" width="70" x="1965" y="-2335" />
<rect fill="#84A1AE" height="70" rx="15" width="70" x="1965" y="-2435" />
<rect fill="#84A1AE" height="70" rx="15" width="70" x="1965" y="-3335" />
<rect fill="#84A1AE" height="70" rx="15" width="70" x="1965" y="-3835" />
<rect fill="#84A1AE" height="70" rx="15" width="70" x="2065" y="-535" />
<rect fill="#84A1AE" height="70" rx="15" width="70" x="2065" y="-1535" />
<rect fill="#84A1AE" height="70" rx="15" width="70" x="2065" y="-1635" />
<rect fill="#84A1AE" height="70" rx="15" width="70" x="2065" y="-2135" />
<rect fill="#84A1AE" height="70" rx="15" width="70" x="2065" y="-3835" />
<rect fill="#84A1AE" height="70" rx="15" width="70" x="2165" y="-535" />
<rect fill="#84A1AE" height="70" rx="15" width="70" x="2165" y="-935" />
<rect fill="#84A1AE" height="70" rx="15" width="70" x="2165" y="-1335" />
<rect fill="#84A1AE" height="70" rx="15" width="70" x="2165" y="-1835" />
<rect fill="#84A1AE" height="70" rx="15" width="70" x="2165" y="-3835" />
<rect fill="#84A1AE" height="70" rx="15" width="70" x="2265" y="-535" />
<rect fill="#84A1AE" height="70" rx="15" width="70" x="2265" y="-935" />
<rect fill="#84A1AE" height="70" rx="15" width="70" x="2265" y="-1135" />
<rect fill="#84A1AE" height="70" rx="15" width="70" x="2265" y="-2535" />
<rect fill="#84A1AE" height="70" rx="15" width="70" x="2265" y="-3235" />
<rect fill="#84A1AE" height="70" rx="15" width="70" x="2265" y="-3835" />
<rect fill="#84A1AE" height="70" rx="15" width="70" x="2365" y="-535" />
<rect fill="#84A1AE" height="70" rx="15" width="70" x="2365" y="-935" />
<rect fill="#84A1AE" height="70" rx="15" width="70" x="2365" y="-1035" />
<rect fill="#84A1AE" height="70" rx="15" width="70" x="2365" y="-3835" />
<rect fill="#84A1AE" height="70" rx="15" width="70" x="2465" y="-535" />
<rect fill="#84A1AE" height="70" rx="15" width="70" x="2465" y="-935" />
<rect fill="#84A1AE" height="70" rx="15" width="70" x="2465" y="-1535" />
<rect fill="#84A1AE" height="70" rx="15" width="70" x="2465" y="-2335" />
<rect fill="#84A1AE" height="70" rx="15" width="70" x="2465" y="-2735" />
<rect fill="#84A1AE" height="70" rx="15" width="70" x="2465" y="-3835" />
<rect fill="#84A1AE" height="70" rx="15" width="70" x="2565" y="-535" />
<rect fill="#84A1AE" height="70" rx="15" width="70" x="2565" y="-735" />
<rect fill="#84A1AE" height="70" rx="15" width="70" x="2565" y="-2535" />
<rect fill="#84A1AE" height="70" rx="15" width="70" x="2565" y="-3835" />
<rect fill="#84A1AE" height="70" rx="15" width="70" x="2665" y="-535" />
<rect fill="#84A1AE" height="70" rx="15" width="70" x="2665" y="-635" />
<rect fill="#84A1AE" height="70" rx="15" width="70" x="2665" y="-1135" />
<rect fill="#84A1AE" height="70" rx="15" width="70" x="2665" y="-1435" />
<rect fill="#84A1AE" height="70" rx="15" width="70" x="2665" y="-2735" />
<rect fill="#84A1AE" height="70" rx="15" width="70" x="2665" y="-3835" />
<rect fill="#84A1AE" height="70" rx="15" width="70" x="2765" y="-535" />
<rect fill="#84A1AE" height="70" rx="15" width="70" x="2765" y="-1635" />
<rect fill="#84A1AE" height="70" rx="15" width="70" x="2765" y="-1835" />
<rect fill="#84A1AE" height="70" rx="15" width="70" x="2765" y="-1935" />
<rect fill="#84A1AE" height="70" rx="15" width="70" x="2765" y="-2235" />
<rect fill="#84A1AE" height="70" rx="15" width="70" x="2765" y="-3735" />
<rect fill="#84A1AE" height="70" rx="15" width="70" x="2765" y="-3835" />
<rect fill="#84A1AE" height="70" rx="15" width="70" x="2865" y="-535" />
<rect fill="#84A1AE" height="70" rx="15" width="70" x="2865" y="-3835" />
<rect fill="#84A1AE" height="70" rx="15" width="70" x="2965" y="-535" />
<rect fill="#84A1AE" height="70" rx="15" width="70" x="2965" y="-2635" />
<rect fill="#84A1AE" height="70" rx="15" width="70" x="2965" y="-3835" />
<rect fill="#84A1AE" height="70" rx="15" width="70" x="3065" y="-535" />
<rect fill="#84A1AE" height="70" rx="15" width="70" x="3065" y="-735" />
<rect fill="#84A1AE" height="70" rx="15" width="70" x="3065" y="-2535" />
<rect fill="#84A1AE" height="70" rx="15" width="70" x="3065" y="-3835" />
<rect fill="#84A1AE" height="70" rx="15" width="70" x="3165" y="-535" />
<rect fill="#84A1AE" height="70" rx="15" width="70" x="3165" y="-835" />
<rect fill="#84A1AE" height="70" rx="15" width="70" x="3165" y="-1935" />
<rect fill="#84A1AE" height="70" rx="15" width="70" x="3165" y="-2735" />
<rect fill="#84A1AE" height="70" rx="15" width="70" x="3165" y="-3135" />
<rect fill="#84A1AE" height="70" rx="15" width="70" x="3165" y="-3835" />
<rect fill="#84A1AE" height="70" rx="15" width="70" x="3265" y="-535" />
<rect fill="#84A1AE" height="70" rx="15" width="70" x="3265" y="-1035" />
<rect fill="#84A1AE" height="70" rx="15" width="70" x="3265" y="-1735" />
<rect fill="#84A1AE" height="70" rx="15" width="70" x="3265" y="-3835" />
<rect fill="#84A1AE" height="70" rx="15" width="70" x="3365" y="-535" />
<rect fill="#84A1AE" height="70" rx="15" width="70" x="3365" y="-1435" />
<rect fill="#84A1AE" height="70" rx="15" width="70" x="3365" y="-1935" />
<rect fill="#84A1AE" height="70" rx="15" width="70" x="3365" y="-2135" />
<rect fill="#84A1AE" height="70" rx="15" width="70" x="3365" y="-3835" />
<rect fill="#84A1AE" height="70" rx="15" width="70" x="3465" y="-535" />
<rect fill="#84A1AE" height="70" rx="15" width="70" x="3465" y="-2635" />
<rect fill="#84A1AE" height="70" rx="15" width="70" x="3465" y="-3835" />
<rect fill="#84A1AE" height="70" rx="15" width="70" x="3565" y="-535" />
<rect fill="#84A1AE" height="70" rx="15" width="70" x="3565" y="-635" />
<rect fill="#84A1AE" height="70" rx="15" width="70" x="3565" y="-2435" />
<rect fill="#84A1AE" height="70" rx="15" width="70" x="3565" y="-3235" />
<rect fill="#84A1AE" height="70" rx="15" width="70" x="3565" y="-3835" />
<rect fill="#84A1AE" height="70" rx="15" width="70" x="3665" y="-535" />
<rect fill="#84A1AE" height="70" rx="15" width="70" x="3665" y="-2135" />
<rect fill="#84A1AE" height="70" rx="15" width="70" x="3665" y="-2835" />
<rect fill="#84A1AE" height="70" rx="15" width="70" x="3665" y="-3135" />
<rect fill="#84A1AE" height="70" rx="15" width="70" x="3665" y="-3735" />
<rect fill="#84A1AE" height="70" rx="15" width="70" x="3665" y="-3835" />
<rect fill="#84A1AE" height="70" rx="15" width="70" x="3765" y="-535" />
<rect fill="#84A1AE" height="70" rx="15" width="70" x="3765" y="-635" />
<rect fill="#84A1AE" height="70" rx="15" width="70" x="3765" y="-735" />
<rect fill="#84A1AE" height="70" rx="15" width="70" x="3765" y="-835" />
<rect fill="#84A1AE" height="70" rx="15" width="70" x="3765" y="-935" />
<rect fill="#84A1AE" height="70" rx="15" width="70" x="3765" y="-1035" />
<rect fill="#84A1AE" height="70" rx="15" width="70" x="3765" y="-1135" />
<rect fill="#84A1AE" height="70" rx="15" width="70" x="3765" y="-1235" />
<rect fill="#84A1AE" height="70" rx="15" width="70" x="3765" y="-1335" />
<rect fill="#84A1AE" height="70" rx="15" width="70" x="3765" y="-1435" />
<rect fill="#84A1AE" height="70" rx="15" width="70" x="3765" y="-1535" />
<rect fill="#84A1AE" height="70" rx="15" width="70" x="3765" y="-1635" />
<rect fill="#84A1AE" height="70" rx="15" width="70" x="3765" y="-1735" />
<rect fill="#84A1AE" height="70" rx="15" width="70" x="3765" y="-1835" />
<rect fill="#84A1AE" height="70" rx="15" width="70" x="3765" y="-1935" />
<rect fill="#84A1AE" height="70" rx="15" width="70" x="3765" y="-2035" />
<rect fill="#84A1AE" height="70" rx="15" width="70" x="3765" y="-2135" />
<rect fill="#84A1AE" height="70" rx="15" width="70" x="3765" y="-2235" />
<rect fill="#84A1AE" height="70" rx="15" width="70" x="3765" y="-2335" />
<rect fill="#84A1AE" height="70" rx="15" width="70" x="3765" y="-2435" />
<rect fill="#84A1AE" height="70" rx="15" width="70" x="3765" y="-2535" />
<rect fill="#84A1AE" height="70" rx="15" width="70" x="3765" y="-2635" />
<rect fill="#84A1AE" height="70" rx="15" width="70" x="3765" y="-2735" />
<rect fill="#84A1AE" height="70" rx="15" width="70" x="3765" y="-2835" />
<rect fill="#84A1AE" height="70" rx="15" width="70" x="3765" y="-2935" />
<rect fill="#84A1AE" height="70" rx="15" width="70" x="3765" y="-3035" />
<rect fill="#84A1AE" height="70" rx="15" width="70" x="3765" y="-3135" />
<rect fill="#84A1AE" height="70" rx="15" width="70" x="3765" y="-3235" />
<rect fill="#84A1AE" height="70" rx="15" width="70" x="3765" y="-3335" />
<rect fill="#84A1AE" height="70" rx="15" width="70" x="3765" y="-3435" />
<rect fill="#84A1AE" height="70" rx="15" width="70" x="3765" y="-3535" />
<rect fill="#84A1AE" height="70" rx="15" width="70" x="3765" y="-3635" />
<rect fill="#84A1AE" height="70" rx="15" width="70" x="3765" y="-3735" />
<rect fill="#84A1AE" height="70" rx="15" width="70" x="3765" y="-3835" />
<circle cx="2500" cy="-1400" fill="#c1433c" r="35"> <animate attributeName="cy" dur="108.92000000000002s" keyTimes="0.0;0.0025641026;0.0051282051;0.0076923077;0.0102564103;0.0128205128;0.0153846154;0.0179487179;0.0205128205;0.0230769231;0.0256410256;0.0282051282;0.0307692308;0.0333333333;0.0358974359;0.0384615385;0.041025641;0.0435897436;0.0461538462;0.0487179487;0.0512820513;0.0871794872;0.0897435897;0.1;0.1025641026;0.1051282051;0.1076923077;0.1102564103;0.1128205128;0.1153846154;0.1179487179;0.1205128205;0.1230769231;0.1256410256;0.1282051282;0.1307692308;0.1333333333;0.1358974359;0.1384615385;0.141025641;0.1435897436;0.1461538462;0.1487179487;0.1512820513;0.1538461538;0.1564102564;0.158974359;0.1615384615;0.1641025641;0.1666666667;0.1692307692;0.1717948718;0.1743589744;0.2051282051;0.2076923077;0.2179487179;0.2205128205;0.2230769231;0.2256410256;0.2282051282;0.2333333333;0.2358974359;0.2384615385;0.241025641;0.2487179487;0.2512820513;0.2538461538;0.2564102564;0.258974359;0.2615384615;0.2641025641;0.2769230769;0.2794871795;0.2846153846;0.2871794872;0.2897435897;0.2923076923;0.2948717949;0.2974358974;0.3;0.3025641026;0.3051282051;0.3076923077;0.3153846154;0.3179487179;0.3205128205;0.3230769231;0.3256410256;0.3358974359;0.3384615385;0.341025641;0.3461538462;0.3487179487;0.3512820513;0.3538461538;0.358974359;0.3615384615;0.3641025641;0.3666666667;0.3692307692;0.3717948718;0.3743589744;0.3769230769;0.3794871795;0.3820512821;0.3846153846;0.3871794872;0.3897435897;0.3923076923;0.3948717949;0.3974358974;0.4;0.4025641026;0.4051282051;0.4076923077;0.4153846154;0.4179487179;0.4205128205;0.4230769231;0.4256410256;0.4282051282;0.4307692308;0.4333333333;0.4358974359;0.4384615385;0.441025641;0.4435897436;0.4461538462;0.4487179487;0.4512820513;0.4538461538;0.4564102564;0.458974359;0.4615384615;0.4641025641;0.5179487179;0.5205128205;0.5307692308;0.5333333333;0.5358974359;0.5384615385;0.541025641;0.5435897436;0.5461538462;0.5487179487;0.558974359;0.5615384615;0.5641025641;0.5666666667;0.5692307692;0.5717948718;0.5743589744;0.5769230769;0.5794871795;0.5820512821;0.5846153846;0.5871794872;0.5897435897;0.5923076923;0.5948717949;0.5974358974;0.6;0.6025641026;0.6051282051;0.6076923077;0.6102564103;0.6128205128;0.6153846154;0.6179487179;0.6205128205;0.6358974359;0.6384615385;0.641025641;0.6435897436;0.6461538462;0.6487179487;0.6512820513;0.6538461538;0.6615384615;0.6641025641;0.6794871795;0.6820512821;0.6846153846;0.6897435897;0.6923076923;0.6948717949;0.7128205128;0.7153846154;0.7179487179;0.7307692308;0.7333333333;0.7358974359;0.7384615385;0.741025641;0.7435897436;0.7461538462;0.7487179487;0.7512820513;0.7538461538;0.7564102564;0.758974359;0.7615384615;0.7641025641;0.7666666667;0.7692307692;0.7717948718;0.7743589744;0.7769230769;0.7794871795;0.7820512821;0.7846153846;0.7871794872;0.7897435897;0.7923076923;0.7948717949;0.7974358974;0.8;0.8076923077;0.8102564103;0.8153846154;0.8179487179;0.8205128205;0.8230769231;0.8256410256;0.8282051282;0.8307692308;0.8333333333;0.8358974359;0.8384615385;0.841025641;0.8435897436;0.8461538462;0.8487179487;0.8512820513;0.8538461538;0.8641025641;0.8666666667;0.8692307692;0.8717948718;0.8743589744;0.8769230769;0.8794871795;0.8820512821;0.8846153846;0.8871794872;0.8897435897;0.8948717949;0.8974358974;0.9;0.9205128205;0.9230769231;0.9256410256;0.9282051282;0.9307692308;0.9333333333;0.9358974359;0.9384615385;0.941025641;0.9435897436;0.9461538462;0.9487179487;0.9564102564;0.958974359;0.9615384615;0.9641025641;0.9666666667;0.9717948718;0.9743589744;0.9769230769;0.9794871795;0.9820512821;0.9897435897;0.9923076923;0.9948717949;0.9974358974;1.0" repeatCount="indefinite" values="-1400;-1400;-1400;-1500;-1600;-1700;-1800;-1900;-2000;-2100;-2200;-2300;-2400;-2400;-2500;-2600;-2600;-2700;-2800;-2900;-3000;-3000;-2900;-2900;-2800;-2700;-2600;-2500;-2400;-2300;-2200;-2100;-2000;-1900;-1800;-1700;-1600;-1500;-1500;-1400;-1300;-1200;-1100;-1000;-1000;-900;-800;-700;-800;-900;-1000;-1000;-1100;-1100;-1200;-1200;-1300;-1400;-1400;-1500;-1500;-1600;-1700;-1800;-1800;-1900;-2000;-2000;-2100;-2100;-2200;-2200;-2100;-2100;-2000;-1900;-1800;-1800;-1700;-1800;-1900;-1900;-2000;-2000;-2100;-2200;-2300;-2400;-2400;-2500;-2600;-2600;-2700;-2800;-2900;-2900;-3000;-3000;-3100;-3000;-2900;-2800;-2700;-2600;-2500;-2400;-2300;-2200;-2100;-2000;-1900;-1900;-1800;-1800;-1700;-1700;-1600;-1500;-1500;-1400;-1400;-1300;-1300;-1200;-1300;-1300;-1400;-1500;-1600;-1700;-1800;-1900;-1900;-2000;-2100;-2100;-2000;-2000;-1900;-1800;-1700;-1600;-1500;-1400;-1300;-1300;-1400;-1500;-1500;-1600;-1600;-1700;-1800;-1900;-2000;-2100;-2200;-2300;-2400;-2500;-2600;-2700;-2800;-2900;-3000;-3100;-3200;-3300;-3400;-3500;-3500;-3400;-3300;-3200;-3100;-3000;-2900;-2800;-2800;-2700;-2700;-2800;-2900;-2900;-3000;-3100;-3100;-3200;-3100;-3100;-3000;-2900;-2800;-2700;-2600;-2500;-2400;-2300;-2200;-2100;-2000;-1900;-1800;-1700;-1600;-1500;-1400;-1500;-1500;-1600;-1700;-1800;-1900;-2000;-2100;-2200;-2300;-2300;-2400;-2400;-2500;-2600;-2600;-2700;-2800;-2900;-3000;-3100;-3200;-3300;-3400;-3400;-3500;-3500;-3600;-3600;-3500;-3500;-3400;-3400;-3300;-3200;-3200;-3100;-3000;-2900;-2900;-2800;-2700;-2700;-2600;-2600;-2500;-2400;-2300;-2200;-2100;-2000;-2000;-1900;-1800;-1800;-1700;-1600;-1600;-1500;-1500;-1600;-1700;-1700;-1800;-1800;-1900;-1900;-2000;-2000"/>
<animate attributeName="cx" dur="108.92000000000002s" keyTimes="0.0;0.0025641026;0.0051282051;0.0307692308;0.0333333333;0.0384615385;0.041025641;0.0512820513;0.0538461538;0.0564102564;0.058974359;0.0615384615;0.0641025641;0.0666666667;0.0692307692;0.0717948718;0.0743589744;0.0769230769;0.0794871795;0.0820512821;0.0897435897;0.0923076923;0.0948717949;0.0974358974;0.1;0.1358974359;0.1384615385;0.1512820513;0.1538461538;0.1692307692;0.1717948718;0.1743589744;0.1769230769;0.1794871795;0.1820512821;0.1846153846;0.1871794872;0.1897435897;0.1923076923;0.1948717949;0.1974358974;0.2;0.2025641026;0.2051282051;0.2076923077;0.2102564103;0.2128205128;0.2153846154;0.2179487179;0.2230769231;0.2256410256;0.2282051282;0.2307692308;0.2333333333;0.241025641;0.2435897436;0.2461538462;0.2487179487;0.2538461538;0.2564102564;0.258974359;0.2615384615;0.2641025641;0.2666666667;0.2692307692;0.2717948718;0.2743589744;0.2769230769;0.2794871795;0.2820512821;0.2846153846;0.2923076923;0.2948717949;0.3025641026;0.3051282051;0.3076923077;0.3102564103;0.3128205128;0.3153846154;0.3256410256;0.3282051282;0.3307692308;0.3333333333;0.3358974359;0.341025641;0.3435897436;0.3461538462;0.3538461538;0.3564102564;0.358974359;0.3615384615;0.3641025641;0.3974358974;0.4;0.4025641026;0.4051282051;0.4076923077;0.4102564103;0.4128205128;0.4153846154;0.4205128205;0.4230769231;0.4256410256;0.4282051282;0.4307692308;0.4333333333;0.4384615385;0.441025641;0.4564102564;0.458974359;0.4641025641;0.4666666667;0.4692307692;0.4717948718;0.4743589744;0.4769230769;0.4794871795;0.4820512821;0.4846153846;0.4871794872;0.4897435897;0.4923076923;0.4948717949;0.4974358974;0.5;0.5025641026;0.5051282051;0.5076923077;0.5102564103;0.5128205128;0.5153846154;0.5179487179;0.5205128205;0.5230769231;0.5256410256;0.5282051282;0.5307692308;0.5487179487;0.5512820513;0.5538461538;0.5564102564;0.558974359;0.5641025641;0.5666666667;0.5692307692;0.5717948718;0.6205128205;0.6230769231;0.6256410256;0.6282051282;0.6307692308;0.6333333333;0.6358974359;0.6538461538;0.6564102564;0.658974359;0.6615384615;0.6641025641;0.6666666667;0.6692307692;0.6717948718;0.6743589744;0.6769230769;0.6794871795;0.6846153846;0.6871794872;0.6897435897;0.6948717949;0.6974358974;0.7;0.7025641026;0.7051282051;0.7076923077;0.7102564103;0.7128205128;0.7179487179;0.7205128205;0.7230769231;0.7256410256;0.7282051282;0.7307692308;0.7769230769;0.7794871795;0.8;0.8025641026;0.8051282051;0.8076923077;0.8102564103;0.8128205128;0.8153846154;0.8205128205;0.8230769231;0.8435897436;0.8461538462;0.8487179487;0.8512820513;0.8538461538;0.8564102564;0.858974359;0.8615384615;0.8641025641;0.8666666667;0.8692307692;0.8717948718;0.8743589744;0.8794871795;0.8820512821;0.8897435897;0.8923076923;0.8948717949;0.9;0.9025641026;0.9051282051;0.9076923077;0.9102564103;0.9128205128;0.9153846154;0.9179487179;0.9205128205;0.9230769231;0.9256410256;0.941025641;0.9435897436;0.9487179487;0.9512820513;0.9538461538;0.9564102564;0.9615384615;0.9641025641;0.9666666667;0.9692307692;0.9717948718;0.9769230769;0.9794871795;0.9820512821;0.9846153846;0.9871794872;0.9897435897;0.9923076923;0.9948717949;1.0" repeatCount="indefinite" values="2500;2500;2600;2600;2700;2700;2800;2800;2900;3000;3100;3200;3300;3400;3500;3400;3300;3200;3200;3300;3300;3200;3100;3000;2900;2900;2800;2800;2700;2700;2800;2800;2900;3000;3100;3200;3300;3400;3500;3600;3700;3600;3500;3400;3400;3300;3200;3100;3000;3000;2900;2900;2800;2700;2700;2600;2500;2400;2400;2300;2300;2200;2200;2300;2400;2500;2600;2700;2700;2800;2900;2900;3000;3000;2900;2900;2800;2700;2600;2600;2500;2400;2300;2200;2200;2100;2000;2000;1900;1800;1800;1700;1700;1800;1800;1900;1900;2000;2100;2200;2200;2300;2300;2400;2400;2500;2500;2400;2400;2300;2300;2400;2500;2600;2700;2800;2900;3000;3100;3200;3300;3200;3100;3000;2900;2800;2700;2600;2500;2400;2300;2200;2200;2100;2000;1900;1800;1800;1700;1600;1500;1400;1400;1300;1300;1200;1200;1100;1000;900;800;700;600;600;700;800;900;900;1000;1100;1200;1300;1400;1500;1500;1600;1700;1700;1800;1900;2000;2100;2200;2300;2400;2400;2300;2200;2100;2000;1900;1900;1800;1800;1700;1600;1500;1500;1400;1300;1300;1200;1200;1100;1100;1000;1000;1100;1200;1300;1400;1400;1500;1500;1600;1600;1700;1700;1600;1500;1500;1400;1300;1200;1100;1000;900;800;700;700;600;600;700;700;600;700;800;800;900;900;1000;1100;1100;1200;1200;1300;1400;1500;1500;1600;1600"/>
<animate attributeName="visibility" dur="108.92000000000002s" keyTimes="0.0;0.0025641026;1.0" repeatCount="indefinite" values="visible;visible;visible"/> </circle>
<circle cx="3000" cy="-1900" fill="#2e6f9e" r="35"> <animate attributeName="cy" dur="108.92000000000002s" keyTimes="0.0;0.0025641026;0.0051282051;0.0076923077;0.0102564103;0.0128205128;0.0153846154;0.0179487179;0.0307692308;0.0333333333;0.0358974359;0.0384615385;0.041025641;0.0435897436;0.0461538462;0.0512820513;0.0538461538;0.0564102564;0.058974359;0.0615384615;0.0641025641;0.0923076923;0.0948717949;0.1025641026;0.1051282051;0.1538461538;0.1564102564;0.158974359;0.1615384615;0.1641025641;0.1666666667;0.1692307692;0.1717948718;0.1743589744;0.1769230769;0.1794871795;0.1820512821;0.1846153846;0.1871794872;0.1897435897;0.1923076923;0.1948717949;0.1974358974;0.2;0.2025641026;0.2051282051;0.2076923077;0.2102564103;0.2128205128;0.2153846154;0.2179487179;0.2205128205;0.2230769231;0.2256410256;0.2282051282;0.2307692308;0.2333333333;0.2358974359;0.2384615385;0.241025641;0.2435897436;0.2461538462;0.2487179487;0.2512820513;0.2538461538;0.2564102564;0.258974359;0.2615384615;0.2641025641;0.2666666667;0.2692307692;0.2717948718;0.3076923077;0.3102564103;0.3128205128;0.3153846154;0.3230769231;0.3256410256;0.3282051282;0.3307692308;0.3512820513;0.3538461538;0.3743589744;0.3769230769;0.3846153846;0.3871794872;0.3897435897;0.3923076923;0.3948717949;0.4307692308;0.4333333333;0.4358974359;0.4384615385;0.441025641;0.4435897436;0.4461538462;0.4487179487;0.4512820513;0.4538461538;0.4564102564;0.458974359;0.4615384615;0.4641025641;0.4666666667;0.4692307692;0.4717948718;0.4743589744;0.4769230769;0.4794871795;0.4871794872;0.4897435897;0.5307692308;0.5333333333;0.5358974359;0.541025641;0.5435897436;0.5461538462;0.5487179487;0.5512820513;0.5538461538;0.5564102564;0.558974359;0.5615384615;0.5641025641;0.5666666667;0.5692307692;0.5717948718;0.5743589744;0.5769230769;0.5794871795;0.5846153846;0.5871794872;0.5897435897;0.5923076923;0.6153846154;0.6179487179;0.6205128205;0.6230769231;0.6256410256;0.6282051282;0.6307692308;0.6333333333;0.6358974359;0.6384615385;0.641025641;0.6435897436;0.6461538462;0.6487179487;0.6512820513;0.6538461538;0.6564102564;0.658974359;0.6615384615;0.6641025641;0.6666666667;0.6692307692;0.6717948718;0.6743589744;0.6769230769;0.6794871795;0.6820512821;0.6846153846;0.6897435897;0.6923076923;0.6974358974;0.7;0.7102564103;0.7128205128;0.7179487179;0.7205128205;0.7384615385;0.741025641;0.7435897436;0.7487179487;0.7512820513;0.7666666667;0.7692307692;0.7871794872;0.7897435897;0.7923076923;0.8128205128;0.8153846154;0.8307692308;0.8333333333;0.8512820513;0.8538461538;0.8564102564;0.858974359;0.8615384615;0.8641025641;0.8666666667;0.8692307692;0.8717948718;0.8743589744;0.8769230769;0.8794871795;0.8820512821;0.8846153846;0.8871794872;0.8897435897;0.8923076923;0.8948717949;0.9153846154;0.9179487179;0.9307692308;0.9333333333;0.9358974359;0.9384615385;0.941025641;0.9512820513;0.9538461538;0.9615384615;0.9641025641;0.9846153846;0.9871794872;0.9897435897;0.9923076923;0.9948717949;0.9974358974;1.0" repeatCount="indefinite" values="-1900;-1900;-2000;-1900;-2000;-2100;-2200;-2300;-2300;-2400;-2500;-2400;-2400;-2500;-2600;-2600;-2700;-2800;-2800;-2900;-3000;-3000;-3100;-3100;-3000;-3000;-2900;-2900;-2800;-2700;-2600;-2500;-2400;-2300;-2200;-2300;-2200;-2100;-2000;-1900;-1800;-1700;-1600;-1500;-1400;-1500;-1600;-1700;-1800;-1900;-2000;-2100;-2200;-2200;-2300;-2400;-2500;-2400;-2500;-2600;-2700;-2700;-2800;-2800;-2900;-3000;-3100;-3200;-3300;-3400;-3500;-3600;-3600;-3500;-3600;-3700;-3700;-3600;-3600;-3700;-3700;-3600;-3600;-3500;-3500;-3400;-3300;-3200;-3100;-3100;-3000;-2900;-2800;-2700;-2700;-2600;-2500;-2500;-2400;-2400;-2300;-2200;-2100;-2000;-1900;-1900;-1800;-1700;-1600;-1600;-1500;-1500;-1400;-1300;-1300;-1400;-1500;-1600;-1600;-1700;-1800;-1800;-1900;-2000;-2100;-2100;-2200;-2300;-2300;-2400;-2400;-2500;-2500;-2400;-2400;-2300;-2300;-2200;-2100;-2000;-1900;-1900;-1800;-1700;-1600;-1600;-1500;-1400;-1500;-1400;-1300;-1300;-1200;-1200;-1100;-1000;-1000;-900;-1000;-1100;-1100;-1200;-1200;-1100;-1100;-1200;-1200;-1100;-1100;-1200;-1200;-1300;-1200;-1200;-1100;-1100;-1200;-1200;-1100;-1200;-1200;-1100;-1100;-1200;-1200;-1100;-1000;-900;-900;-800;-700;-800;-900;-1000;-1000;-1100;-1200;-1300;-1400;-1500;-1600;-1700;-1700;-1800;-1800;-1700;-1700;-1800;-1900;-1900;-1800;-1800;-1700;-1700;-1800;-1900;-2000;-2100;-2200;-2200"/>
<animate attributeName="cx" dur="108.92000000000002s" keyTimes="0.0;0.0025641026;0.0230769231;0.0256410256;0.0282051282;0.0307692308;0.0384615385;0.041025641;0.0461538462;0.0487179487;0.0512820513;0.0564102564;0.058974359;0.0641025641;0.0666666667;0.0692307692;0.0717948718;0.0743589744;0.0794871795;0.0820512821;0.0871794872;0.0897435897;0.0923076923;0.0948717949;0.0974358974;0.1;0.1025641026;0.1051282051;0.1076923077;0.1102564103;0.1128205128;0.1153846154;0.1179487179;0.1205128205;0.1230769231;0.1256410256;0.1282051282;0.1307692308;0.1333333333;0.1358974359;0.1384615385;0.141025641;0.1435897436;0.1461538462;0.1487179487;0.1512820513;0.1538461538;0.2435897436;0.2461538462;0.2487179487;0.2512820513;0.2717948718;0.2743589744;0.2769230769;0.2794871795;0.2820512821;0.2846153846;0.2871794872;0.2897435897;0.2923076923;0.2948717949;0.2974358974;0.3;0.3025641026;0.3051282051;0.3076923077;0.3153846154;0.3179487179;0.3205128205;0.3230769231;0.3256410256;0.3282051282;0.3307692308;0.3333333333;0.3358974359;0.3384615385;0.341025641;0.3435897436;0.3461538462;0.3487179487;0.3512820513;0.3538461538;0.3564102564;0.358974359;0.3615384615;0.3641025641;0.3666666667;0.3692307692;0.3717948718;0.3743589744;0.3769230769;0.3794871795;0.3820512821;0.3846153846;0.3948717949;0.3974358974;0.4;0.4025641026;0.4051282051;0.4076923077;0.4102564103;0.4128205128;0.4153846154;0.4179487179;0.4205128205;0.4230769231;0.4256410256;0.4282051282;0.4307692308;0.441025641;0.4435897436;0.4487179487;0.4512820513;0.4538461538;0.4564102564;0.4794871795;0.4820512821;0.4846153846;0.4871794872;0.4897435897;0.4923076923;0.4948717949;0.5282051282;0.5307692308;0.5358974359;0.5384615385;0.541025641;0.5487179487;0.5512820513;0.5564102564;0.558974359;0.5743589744;0.5769230769;0.5794871795;0.5820512821;0.5846153846;0.5871794872;0.5897435897;0.5923076923;0.5948717949;0.5974358974;0.6;0.6025641026;0.6051282051;0.6076923077;0.6102564103;0.6128205128;0.6153846154;0.6179487179;0.6205128205;0.641025641;0.6435897436;0.6564102564;0.658974359;0.6615384615;0.6641025641;0.6794871795;0.6820512821;0.6846153846;0.6871794872;0.6897435897;0.6923076923;0.6948717949;0.7025641026;0.7051282051;0.7076923077;0.7102564103;0.7128205128;0.7153846154;0.7205128205;0.7230769231;0.7256410256;0.7282051282;0.7307692308;0.7333333333;0.7358974359;0.7384615385;0.7435897436;0.7461538462;0.7512820513;0.7538461538;0.7564102564;0.758974359;0.7615384615;0.7641025641;0.7666666667;0.7692307692;0.7717948718;0.7743589744;0.7769230769;0.7794871795;0.7820512821;0.7846153846;0.7871794872;0.7923076923;0.7948717949;0.7974358974;0.8;0.8025641026;0.8051282051;0.8076923077;0.8102564103;0.8128205128;0.8153846154;0.8179487179;0.8205128205;0.8230769231;0.8256410256;0.8282051282;0.8307692308;0.8333333333;0.8358974359;0.8384615385;0.841025641;0.8435897436;0.8461538462;0.8487179487;0.8512820513;0.858974359;0.8615384615;0.8743589744;0.8769230769;0.8948717949;0.8974358974;0.9;0.9025641026;0.9051282051;0.9076923077;0.9102564103;0.9128205128;0.9153846154;0.9179487179;0.9205128205;0.9230769231;0.9256410256;0.9282051282;0.9307692308;0.9333333333;0.9358974359;0.941025641;0.9435897436;0.9461538462;0.9487179487;0.9512820513;0.9538461538;0.9564102564;0.958974359;0.9615384615;0.9641025641;0.9666666667;0.9692307692;0.9717948718;0.9743589744;0.9769230769;0.9794871795;0.9820512821;1.0" repeatCount="indefinite" values="3000;3000;3000;3100;3000;2900;2900;2800;2800;2700;2600;2600;2700;2700;2800;2900;3000;3100;3100;3200;3200;3300;3400;3400;3500;3400;3300;3300;3200;3100;3000;3000;2900;2800;2900;2800;2700;2600;2500;2400;2300;2200;2100;2000;1900;1800;1700;1700;1800;1800;1700;1700;1800;1900;2000;2100;2200;2300;2400;2500;2600;2700;2800;2900;3000;3100;3100;3200;3300;3400;3400;3500;3500;3600;3500;3400;3300;3200;3100;3000;2900;2900;2800;2700;2600;2500;2400;2300;2200;2100;2100;2000;1900;1800;1800;1900;2000;2100;2200;2100;2200;2300;2400;2500;2600;2700;2800;2900;3000;3000;2900;2900;3000;3000;3100;3100;3200;3300;3400;3400;3300;3400;3400;3500;3500;3400;3300;3300;3200;3200;3100;3100;3000;3000;2900;2800;2800;2700;2700;2600;2600;2700;2800;2900;2900;3000;3100;3200;3200;3100;3100;3200;3200;3100;3100;3200;3200;3100;3100;3000;2900;2900;2800;2800;2700;2600;2500;2500;2400;2400;2300;2200;2200;2300;2200;2100;2000;2000;1900;1900;1800;1700;1600;1500;1400;1300;1300;1200;1100;1000;1000;900;800;700;700;800;900;800;900;1000;1100;1200;1300;1300;1400;1500;1600;1700;1800;1900;1900;2000;2100;2200;2300;2400;2500;2600;2600;2700;2700;2600;2600;2500;2400;2300;2200;2100;2000;2000;1900;1900;1800;1700;1600;1500;1400;1400;1300;1300;1200;1100;1200;1300;1300;1400;1500;1600;1600;1700;1800;1900;2000;2100;2200;2300;2300"/>
<animate attributeName="visibility" dur="108.92000000000002s" keyTimes="0.0;0.0025641026;1.0" repeatCount="indefinite" values="visible;visible;visible"/> </circle>
<circle cx="3500" cy="-3000" fill="none" r="35" stroke="#c1433c" stroke-width="10"> <animate attributeName="cy" dur="108.92000000000002s" keyTimes="0.0;0.0025641026;0.0666666667;0.0692307692;0.158974359;0.1615384615;0.1948717949;0.1974358974;0.2615384615;0.2641025641;0.2948717949;0.2974358974;0.3641025641;0.3666666667;0.4333333333;0.4358974359;0.458974359;0.4615384615;0.4871794872;0.4897435897;0.5461538462;0.5487179487;0.5717948718;0.5743589744;0.6179487179;0.6205128205;0.6512820513;0.6538461538;0.7128205128;0.7153846154;0.7717948718;0.7743589744;0.8512820513;0.8538461538;0.8820512821;0.8846153846;0.9487179487;0.9512820513;0.9666666667;0.9692307692;1.0" repeatCount="indefinite" values="-3000;-3000;-3000;-700;-700;-1100;-1100;-2200;-2200;-1700;-1700;-3100;-3100;-1200;-1200;-2000;-2000;-2100;-2100;-1300;-1300;-1700;-1700;-3500;-3500;-2800;-2800;-3200;-3200;-1400;-1400;-3600;-3600;-3100;-3100;-1800;-1800;-1500;-1500;-2200;-2200"/>
<animate attributeName="cx" dur="108.92000000000002s" keyTimes="0.0;0.0025641026;0.0666666667;0.0692307692;0.158974359;0.1615384615;0.1948717949;0.1974358974;0.2615384615;0.2641025641;0.2948717949;0.2974358974;0.3641025641;0.3666666667;0.4333333333;0.4358974359;0.458974359;0.4615384615;0.4871794872;0.4897435897;0.5461538462;0.5487179487;0.6179487179;0.6205128205;0.6512820513;0.6538461538;0.7128205128;0.7153846154;0.7717948718;0.7743589744;0.8512820513;0.8538461538;0.8820512821;0.8846153846;0.9487179487;0.9512820513;0.9666666667;0.9692307692;1.0" repeatCount="indefinite" values="3500;3500;3500;2700;2700;3700;3700;2200;2200;3000;3000;1700;1700;2500;2500;2300;2300;3300;3300;1800;1800;1200;1200;600;600;2400;2400;1900;1900;1000;1000;1700;1700;600;600;1000;1000;3600;3600"/>
<animate attributeName="visibility" dur="108.92000000000002s" keyTimes="0.0;0.0025641026;1.0" repeatCount="indefinite" values="visible;visible;visible"/> </circle>
<circle cx="2600" cy="-2600" fill="none" r="35" stroke="#2e6f9e" stroke-width="10"> <animate attributeName="cy" dur="108.92000000000002s" keyTimes="0.0;0.0025641026;0.0487179487;0.0512820513;0.0948717949;0.0974358974;0.2;0.2025641026;0.3307692308;0.3333333333;0.3846153846;0.3871794872;0.4384615385;0.441025641;0.5358974359;0.5384615385;0.5923076923;0.5948717949;0.6717948718;0.6743589744;0.7666666667;0.7692307692;0.7871794872;0.7897435897;0.841025641;0.8435897436;0.8641025641;0.8666666667;0.9435897436;0.9461538462;0.9846153846;0.9871794872;1.0" repeatCount="indefinite" values="-2600;-2600;-2600;-3100;-3100;-1400;-1400;-3700;-3700;-3400;-3400;-2700;-2700;-1300;-1300;-2400;-2400;-900;-900;-1200;-1200;-1100;-1100;-1200;-1200;-700;-700;-1900;-1900;-1800;-1800;-3000;-3000"/>
<animate attributeName="cx" dur="108.92000000000002s" keyTimes="0.0;0.0025641026;0.0487179487;0.0512820513;0.0948717949;0.0974358974;0.2;0.2025641026;0.3307692308;0.3333333333;0.3846153846;0.3871794872;0.4384615385;0.441025641;0.5358974359;0.5384615385;0.5923076923;0.5948717949;0.6717948718;0.6743589744;0.7666666667;0.7692307692;0.7871794872;0.7897435897;0.841025641;0.8435897436;0.8641025641;0.8666666667;0.9435897436;0.9461538462;0.9846153846;0.9871794872;1.0" repeatCount="indefinite" values="2600;2600;2600;3500;3500;1700;1700;3600;3600;1800;1800;3000;3000;3400;3400;2600;2600;3200;3200;1300;1300;700;700;2300;2300;2700;2700;1100;1100;2300;2300;1800;1800"/>
<animate attributeName="visibility" dur="108.92000000000002s" keyTimes="0.0;0.0025641026;1.0" repeatCount="indefinite" values="visible;visible;visible"/> </circle>
</svg>