<?xml version="1.0" encoding="UTF-8"?>
        <svg xmlns="http://www.w3.org/2000/svg" xmlns:xlink="http://www.w3.org/1999/xlink"
             width="512" height="512" viewBox="0 -3500 3500 3500">
<defs>

        <rect id="obstacle" width="70" height="70" fill="#84A1AE" rx="15"/>
        <style>
        .line {stroke: #84A1AE; stroke-width: 10;}
        .agent {r: 35;}
        .target {fill: none; stroke-width: 10; r: 35;}
        </style>
        
</defs>

<line class="line" x1="-50.0" x2="-50.0" y1="0" y2="-3500" />
<line class="line" x1="50.0" x2="50.0" y1="0" y2="-3500" />
<line class="line" x1="150.0" x2="150.0" y1="0" y2="-3500" />
<line class="line" x1="250.0" x2="250.0" y1="0" y2="-3500" />
<line class="line" x1="350.0" x2="350.0" y1="0" y2="-3500" />
<line class="line" x1="450.0" x2="450.0" y1="0" y2="-3500" />
<line class="line" x1="550.0" x2="550.0" y1="0" y2="-3500" />
<line class="line" x1="650.0" x2="650.0" y1="0" y2="-3500" />
<line class="line" x1="750.0" x2="750.0" y1="0" y2="-3500" />
<line class="line" x1="850.0" x2="850.0" y1="0" y2="-3500" />
<line class="line" x1="950.0" x2="950.0" y1="0" y2="-3500" />
<line class="line" x1="1050.0" x2="1050.0" y1="0" y2="-3500" />
<line class="line" x1="1150.0" x2="1150.0" y1="0" y2="-3500" />
<line class="line" x1="1250.0" x2="1250.0" y1="0" y2="-3500" />
<line class="line" x1="1350.0" x2="1350.0" y1="0" y2="-3500" />
<line class="line" x1="1450.0" x2="1450.0" y1="0" y2="-3500" />
<line class="line" x1="1550.0" x2="1550.0" y1="0" y2="-3500" />
<line class="line" x1="1650.0" x2="1650.0" y1="0" y2="-3500" />
<line class="line" x1="1750.0" x2="1750.0" y1="0" y2="-3500" />
<line class="line" x1="1850.0" x2="1850.0" y1="0" y2="-3500" />
<line class="line" x1="1950.0" x2="1950.0" y1="0" y2="-3500" />
<line class="line" x1="2050.0" x2="2050.0" y1="0" y2="-3500" />
<line class="line" x1="2150.0" x2="2150.0" y1="0" y2="-3500" />
<line class="line" x1="2250.0" x2="2250.0" y1="0" y2="-3500" />
<line class="line" x1="2350.0" x2="2350.0" y1="0" y2="-3500" />
<line class="line" x1="2450.0" x2="2450.0" y1="0" y2="-3500" />
<line class="line" x1="2550.0" x2="2550.0" y1="0" y2="-3500" />
<line class="line" x1="2650.0" x2="2650.0" y1="0" y2="-3500" />
<line class="line" x1="2750.0" x2="2750.0" y1="0" y2="-3500" />
<line class="line" x1="2850.0" x2="2850.0" y1="0" y2="-3500" />
<line class="line" x1="2950.0" x2="2950.0" y1="0" y2="-3500" />
<line class="line" x1="3050.0" x2="3050.0" y1="0" y2="-3500" />
<line class="line" x1="3150.0" x2="3150.0" y1="0" y2="-3500" />
<line class="line" x1="3250.0" x2="3250.0" y1="0" y2="-3500" />
<line class="line" x1="3350.0" x2="3350.0" y1="0" y2="-3500" />
<line class="line" x1="3450.0" x2="3450.0" y1="0" y2="-3500" />
<line class="line" x1="0" x2="3500" y1="50.0" y2="50.0" />
<line class="line" x1="0" x2="3500" y1="-50.0" y2="-50.0" />
<line class="line" x1="0" x2="3500" y1="-150.0" y2="-150.0" />
<line class="line" x1="0" x2="3500" y1="-250.0" y2="-250.0" />
<line class="line" x1="0" x2="3500" y1="-350.0" y2="-350.0" />
<line class="line" x1="0" x2="3500" y1="-450.0" y2="-450.0" />
<line class="line" x1="0" x2="3500" y1="-550.0" y2="-550.0" />
<line class="line" x1="0" x2="3500" y1="-650.0" y2="-650.0" />
<line class="line" x1="0" x2="3500" y1="-750.0" y2="-750.0" />
<line class="line" x1="0" x2="3500" y1="-850.0" y2="-850.0" />
<line class="line" x1="0" x2="3500" y1="-950.0" y2="-950.0" />
<line class="line" x1="0" x2="3500" y1="-1050.0" y2="-1050.0" />
<line class="line" x1="0" x2="3500" y1="-1150.0" y2="-1150.0" />
<line class="line" x1="0" x2="3500" y1="-1250.0" y2="-1250.0" />
<line class="line" x1="0" x2="3500" y1="-1350.0" y2="-1350.0" />
<line class="line" x1="0" x2="3500" y1="-1450.0" y2="-1450.0" />
<line class="line" x1="0" x2="3500" y1="-1550.0" y2="-1550.0" />
<line class="line" x1="0" x2="3500" y1="-1650.0" y2="-1650.0" />
<line class="line" x1="0" x2="3500" y1="-1750.0" y2="-1750.0" />
<line class="line" x1="0" x2="3500" y1="-1850.0" y2="-1850.0" />
<line class="line" x1="0" x2="3500" y1="-1950.0" y2="-1950.0" />
<line class="line" x1="0" x2="3500" y1="-2050.0" y2="-2050.0" />
<line class="line" x1="0" x2="3500" y1="-2150.0" y2="-2150.0" />
<line class="line" x1="0" x2="3500" y1="-2250.0" y2="-2250.0" />
<line class="line" x1="0" x2="3500" y1="-2350.0" y2="-2350.0" />
<line class="line" x1="0" x2="3500" y1="-2450.0" y2="-2450.0" />
<line class="line" x1="0" x2="3500" y1="-2550.0" y2="-2550.0" />
<line class="line" x1="0" x2="3500" y1="-2650.0" y2="-2650.0" />
<line class="line" x1="0" x2="3500" y1="-2750.0" y2="-2750.0" />
<line class="line" x1="0" x2="3500" y1="-2850.0" y2="-2850.0" />
<line class="line" x1="0" x2="3500" y1="-2950.0" y2="-2950.0" />
<line class="line" x1="0" x2="3500" y1="-3050.0" y2="-3050.0" />
<line class="line" x1="0" x2="3500" y1="-3150.0" y2="-3150.0" />
<line class="line" x1="0" x2="3500" y1="-3250.0" y2="-3250.0" />
<line class="line" x1="0" x2="3500" y1="-3350.0" y2="-3350.0" />
<line class="line" x1="0" x2="3500" y1="-3450.0" y2="-3450.0" />
<use href="#obstacle" x="65" y="-135" />
<use href="#obstacle" x="65" y="-235" />
<use href="#obstacle" x="65" y="-335" />
<use href="#obstacle" x="65" y="-435" />
<use href="#obstacle" x="65" y="-535" />
<use href="#obstacle" x="65" y="-635" />
<use href="#obstacle" x="65" y="-735" />
<use href="#obstacle" x="65" y="-835" />
<use href="#obstacle" x="65" y="-935" />
<use href="#obstacle" x="65" y="-1035" />
<use href="#obstacle" x="65" y="-1135" />
<use href="#obstacle" x="65" y="-1235" />
<use href="#obstacle" x="65" y="-1335" />
<use href="#obstacle" x="65" y="-1435" />
<use href="#obstacle" x="65" y="-1535" />
<use href="#obstacle" x="65" y="-1635" />
<use href="#obstacle" x="65" y="-1735" />
<use href="#obstacle" x="65" y="-1835" />
<use href="#obstacle" x="65" y="-1935" />
<use href="#obstacle" x="65" y="-2035" />
<use href="#obstacle" x="65" y="-2135" />
<use href="#obstacle" x="65" y="-2235" />
<use href="#obstacle" x="65" y="-2335" />
<use href="#obstacle" x="65" y="-2435" />
<use href="#obstacle" x="65" y="-2535" />
<use href="#obstacle" x="65" y="-2635" />
<use href="#obstacle" x="65" y="-2735" />
<use href="#obstacle" x="65" y="-2835" />
<use href="#obstacle" x="65" y="-2935" />
<use href="#obstacle" x="65" y="-3035" />
<use href="#obstacle" x="65" y="-3135" />
<use href="#obstacle" x="65" y="-3235" />
<use href="#obstacle" x="65" y="-3335" />
<use href="#obstacle" x="65" y="-3435" />
<use href="#obstacle" x="165" y="-135" />
<use href="#obstacle" x="165" y="-735" />
<use href="#obstacle" x="165" y="-1435" />
<use href="#obstacle" x="165" y="-1535" />
<use href="#obstacle" x="165" y="-1635" />
<use href="#obstacle" x="165" y="-1835" />
<use href="#obstacle" x="165" y="-1935" />
<use href="#obstacle" x="165" y="-3035" />
<use href="#obstacle" x="165" y="-3235" />
<use href="#obstacle" x="165" y="-3435" />
<use href="#obstacle" x="265" y="-135" />
<use href="#obstacle" x="265" y="-235" />
<use href="#obstacle" x="265" y="-1335" />
<use href="#obstacle" x="265" y="-1435" />
<use href="#obstacle" x="265" y="-1835" />
<use href="#obstacle" x="265" y="-2735" />
<use href="#obstacle" x="265" y="-3135" />
<use href="#obstacle" x="265" y="-3235" />
<use href="#obstacle" x="265" y="-3435" />
<use href="#obstacle" x="365" y="-135" />
<use href="#obstacle" x="365" y="-435" />
<use href="#obstacle" x="365" y="-635" />
<use href="#obstacle" x="365" y="-935" />
<use href="#obstacle" x="365" y="-1335" />
<use href="#obstacle" x="365" y="-2435" />
<use href="#obstacle" x="365" y="-3335" />
<use href="#obstacle" x="365" y="-3435" />
<use href="#obstacle" x="465" y="-135" />
<use href="#obstacle" x="465" y="-435" />
<use href="#obstacle" x="465" y="-535" />
<use href="#obstacle" x="465" y="-835" />
<use href="#obstacle" x="465" y="-1135" />
<use href="#obstacle" x="465" y="-1335" />
<use href="#obstacle" x="465" y="-1735" />
<use href="#obstacle" x="465" y="-1835" />
<use href="#obstacle" x="465" y="-1935" />
<use href="#obstacle" x="465" y="-2235" />
<use href="#obstacle" x="465" y="-2635" />
<use href="#obstacle" x="465" y="-2835" />
<use href="#obstacle" x="465" y="-3235" />
<use href="#obstacle" x="465" y="-3335" />
<use href="#obstacle" x="465" y="-3435" />
<use href="#obstacle" x="565" y="-135" />
<use href="#obstacle" x="565" y="-1735" />
<use href="#obstacle" x="565" y="-1835" />
<use href="#obstacle" x="565" y="-2035" />
<use href="#obstacle" x="565" y="-2135" />
<use href="#obstacle" x="565" y="-2235" />
<use href="#obstacle" x="565" y="-2335" />
<use href="#obstacle" x="565" y="-2735" />
<use href="#obstacle" x="565" y="-3135" />
<use href="#obstacle" x="565" y="-3335" />
<use href="#obstacle" x="565" y="-3435" />
<use href="#obstacle" x="665" y="-135" />
<use href="#obstacle" x="665" y="-535" />
<use href="#obstacle" x="665" y="-635" />
<use href="#obstacle" x="665" y="-1035" />
<use href="#obstacle" x="665" y="-1135" />
<use href="#obstacle" x="665" y="-1535" />
<use href="#obstacle" x="665" y="-1635" />
<use href="#obstacle" x="665" y="-2035" />
<use href="#obstacle" x="665" y="-2335" />
<use href="#obstacle" x="665" y="-2435" />
<use href="#obstacle" x="665" y="-3135" />
<use href="#obstacle" x="665" y="-3435" />
<use href="#obstacle" x="765" y="-135" />
<use href="#obstacle" x="765" y="-235" />
<use href="#obstacle" x="765" y="-435" />
<use href="#obstacle" x="765" y="-635" />
<use href="#obstacle" x="765" y="-1035" />
<use href="#obstacle" x="765" y="-1135" />
<use href="#obstacle" x="765" y="-1235" />
<use href="#obstacle" x="765" y="-2435" />
<use href="#obstacle" x="765" y="-2635" />
<use href="#obstacle" x="765" y="-2735" />
<use href="#obstacle" x="765" y="-2835" />
<use href="#obstacle" x="765" y="-2935" />
<use href="#obstacle" x="765" y="-3135" />
<use href="#obstacle" x="765" y="-3235" />
<use href="#obstacle" x="765" y="-3335" />
<use href="#obstacle" x="765" y="-3435" />
<use href="#obstacle" x="865" y="-135" />
<use href="#obstacle" x="865" y="-235" />
<use href="#obstacle" x="865" y="-635" />
<use href="#obstacle" x="865" y="-1635" />
<use href="#obstacle" x="865" y="-1735" />
<use href="#obstacle" x="865" y="-1835" />
<use href="#obstacle" x="865" y="-2235" />
<use href="#obstacle" x="865" y="-2435" />
<use href="#obstacle" x="865" y="-2635" />
<use href="#obstacle" x="865" y="-3135" />
<use href="#obstacle" x="865" y="-3435" />
<use href="#obstacle" x="965" y="-135" />
<use href="#obstacle" x="965" y="-335" />
<use href="#obstacle" x="965" y="-435" />
<use href="#obstacle" x="965" y="-635" />
<use href="#obstacle" x="965" y="-1735" />
<use href="#obstacle" x="965" y="-1835" />
<use href="#obstacle" x="965" y="-1935" />
<use href="#obstacle" x="965" y="-2035" />
<use href="#obstacle" x="965" y="-2235" />
<use href="#obstacle" x="965" y="-2535" />
<use href="#obstacle" x="965" y="-3435" />
<use href="#obstacle" x="1065" y="-135" />
<use href="#obstacle" x="1065" y="-235" />
<use href="#obstacle" x="1065" y="-335" />
<use href="#obstacle" x="1065" y="-835" />
<use href="#obstacle" x="1065" y="-1135" />
<use href="#obstacle" x="1065" y="-1235" />
<use href="#obstacle" x="1065" y="-1435" />
<use href="#obstacle" x="1065" y="-1635" />
<use href="#obstacle" x="1065" y="-2235" />
<use href="#obstacle" x="1065" y="-2335" />
<use href="#obstacle" x="1065" y="-2635" />
<use href="#obstacle" x="1065" y="-2735" />
<use href="#obstacle" x="1065" y="-3035" />
<use href="#obstacle" x="1065" y="-3435" />
<use href="#obstacle" x="1165" y="-135" />
<use href="#obstacle" x="1165" y="-335" />
<use href="#obstacle" x="1165" y="-635" />
<use href="#obstacle" x="1165" y="-735" />
<use href="#obstacle" x="1165" y="-935" />
<use href="#obstacle" x="1165" y="-1735" />
<use href="#obstacle" x="1165" y="-2435" />
<use href="#obstacle" x="1165" y="-2635" />
<use href="#obstacle" x="1165" y="-2835" />
<use href="#obstacle" x="1165" y="-3035" />
<use href="#obstacle" x="1165" y="-3135" />
<use href="#obstacle" x="1165" y="-3235" />
<use href="#obstacle" x="1165" y="-3435" />
<use href="#obstacle" x="1265" y="-135" />
<use href="#obstacle" x="1265" y="-435" />
<use href="#obstacle" x="1265" y="-1135" />
<use href="#obstacle" x="1265" y="-1835" />
<use href="#obstacle" x="1265" y="-2035" />
<use href="#obstacle" x="1265" y="-2135" />
<use href="#obstacle" x="1265" y="-2235" />
<use href="#obstacle" x="1265" y="-2335" />
<use href="#obstacle" x="1265" y="-2635" />
<use href="#obstacle" x="1265" y="-2935" />
<use href="#obstacle" x="1265" y="-3135" />
<use href="#obstacle" x="1265" y="-3335" />
<use href="#obstacle" x="1265" y="-3435" />
<use href="#obstacle" x="1365" y="-135" />
<use href="#obstacle" x="1365" y="-235" />
<use href="#obstacle" x="1365" y="-635" />
<use href="#obstacle" x="1365" y="-735" />
<use href="#obstacle" x="1365" y="-835" />
<use href="#obstacle" x="1365" y="-1335" />
<use href="#obstacle" x="1365" y="-1435" />
<use href="#obstacle" x="1365" y="-1635" />
<use href="#obstacle" x="1365" y="-1935" />
<use href="#obstacle" x="1365" y="-2035" />
<use href="#obstacle" x="1365" y="-2135" />
<use href="#obstacle" x="1365" y="-2335" />
<use href="#obstacle" x="1365" y="-2435" />
<use href="#obstacle" x="1365" y="-2835" />
<use href="#obstacle" x="1365" y="-3135" />
<use href="#obstacle" x="1365" y="-3235" />
<use href="#obstacle" x="1365" y="-3435" />
<use href="#obstacle" x="1465" y="-135" />
<use href="#obstacle" x="1465" y="-235" />
<use href="#obstacle" x="1465" y="-535" />
<use href="#obstacle" x="1465" y="-1035" />
<use href="#obstacle" x="1465" y="-1135" />
<use href="#obstacle" x="1465" y="-1435" />
<use href="#obstacle" x="1465" y="-1535" />
<use href="#obstacle" x="1465" y="-1835" />
<use href="#obstacle" x="1465" y="-2235" />
<use href="#obstacle" x="1465" y="-2435" />
<use href="#obstacle" x="1465" y="-2635" />
<use href="#obstacle" x="1465" y="-2735" />
<use href="#obstacle" x="1465" y="-3235" />
<use href="#obstacle" x="1465" y="-3335" />
<use href="#obstacle" x="1465" y="-3435" />
<use href="#obstacle" x="1565" y="-135" />
<use href="#obstacle" x="1565" y="-835" />
<use href="#obstacle" x="1565" y="-935" />
<use href="#obstacle" x="1565" y="-1035" />
<use href="#obstacle" x="1565" y="-1135" />
<use href="#obstacle" x="1565" y="-1735" />
<use href="#obstacle" x="1565" y="-2135" />
<use href="#obstacle" x="1565" y="-2835" />
<use href="#obstacle" x="1565" y="-3335" />
<use href="#obstacle" x="1565" y="-3435" />
<use href="#obstacle" x="1665" y="-135" />
<use href="#obstacle" x="1665" y="-735" />
<use href="#obstacle" x="1665" y="-1535" />
<use href="#obstacle" x="1665" y="-2035" />
<use href="#obstacle" x="1665" y="-2135" />
<use href="#obstacle" x="1665" y="-2235" />
<use href="#obstacle" x="1665" y="-2635" />
<use href="#obstacle" x="1665" y="-3435" />
<use href="#obstacle" x="1765" y="-135" />
<use href="#obstacle" x="1765" y="-235" />
<use href="#obstacle" x="1765" y="-635" />
<use href="#obstacle" x="1765" y="-735" />
<use href="#obstacle" x="1765" y="-835" />
<use href="#obstacle" x="1765" y="-1035" />
<use href="#obstacle" x="1765" y="-1135" />
<use href="#obstacle" x="1765" y="-1335" />
<use href="#obstacle" x="1765" y="-1535" />
<use href="#obstacle" x="1765" y="-1835" />
<use href="#obstacle" x="1765" y="-1935" />
<use href="#obstacle" x="1765" y="-2035" />
<use href="#obstacle" x="1765" y="-2835" />
<use href="#obstacle" x="1765" y="-3035" />
<use href="#obstacle" x="1765" y="-3435" />
<use href="#obstacle" x="1865" y="-135" />
<use href="#obstacle" x="1865" y="-535" />
<use href="#obstacle" x="1865" y="-735" />
<use href="#obstacle" x="1865" y="-1135" />
<use href="#obstacle" x="1865" y="-1235" />
<use href="#obstacle" x="1865" y="-1535" />
<use href="#obstacle" x="1865" y="-1635" />
<use href="#obstacle" x="1865" y="-1735" />
<use href="#obstacle" x="1865" y="-1835" />
<use href="#obstacle" x="1865" y="-1935" />
<use href="#obstacle" x="1865" y="-2235" />
<use href="#obstacle" x="1865" y="-3335" />
<use href="#obstacle" x="1865" y="-3435" />
<use href="#obstacle" x="1965" y="-135" />
<use href="#obstacle" x="1965" y="-635" />
<use href="#obstacle" x="1965" y="-735" />
<use href="#obstacle" x="1965" y="-1635" />
<use href="#obstacle" x="1965" y="-1735" />
<use href="#obstacle" x="1965" y="-1935" />
<use href="#obstacle" x="1965" y="-2035" />
<use href="#obstacle" x="1965" y="-2435" />
<use href="#obstacle" x="1965" y="-2535" />
<use href="#obstacle" x="1965" y="-2735" />
<use href="#obstacle" x="1965" y="-2935" />
<use href="#obstacle" x="1965" y="-3035" />
<use href="#obstacle" x="1965" y="-3135" />
<use href="#obstacle" x="1965" y="-3335" />
<use href="#obstacle" x="1965" y="-3435" />
<use href="#obstacle" x="2065" y="-135" />
<use href="#obstacle" x="2065" y="-335" />
<use href="#obstacle" x="2065" y="-535" />
<use href="#obstacle" x="2065" y="-1035" />
<use href="#obstacle" x="2065" y="-1735" />
<use href="#obstacle" x="2065" y="-1835" />
<use href="#obstacle" x="2065" y="-2535" />
<use href="#obstacle" x="2065" y="-2835" />
<use href="#obstacle" x="2065" y="-3035" />
<use href="#obstacle" x="2065" y="-3235" />
<use href="#obstacle" x="2065" y="-3435" />
<use href="#obstacle" x="2165" y="-135" />
<use href="#obstacle" x="2165" y="-235" />
<use href="#obstacle" x="2165" y="-335" />
<use href="#obstacle" x="2165" y="-535" />
<use href="#obstacle" x="2165" y="-635" />
<use href="#obstacle" x="2165" y="-1035" />
<use href="#obstacle" x="2165" y="-1235" />
<use href="#obstacle" x="2165" y="-1435" />
<use href="#obstacle" x="2165" y="-1735" />
<use href="#obstacle" x="2165" y="-1935" />
<use href="#obstacle" x="2165" y="-2135" />
<use href="#obstacle" x="2165" y="-2435" />
<use href="#obstacle" x="2165" y="-2535" />
<use href="#obstacle" x="2165" y="-2735" />
<use href="#obstacle" x="2165" y="-3035" />
<use href="#obstacle" x="2165" y="-3135" />
<use href="#obstacle" x="2165" y="-3335" />
<use href="#obstacle" x="2165" y="-3435" />
<use href="#obstacle" x="2265" y="-135" />
<use href="#obstacle" x="2265" y="-235" />
<use href="#obstacle" x="2265" y="-1335" />
<use href="#obstacle" x="2265" y="-1435" />
<use href="#obstacle" x="2265" y="-2035" />
<use href="#obstacle" x="2265" y="-2135" />
<use href="#obstacle" x="2265" y="-2535" />
<use href="#obstacle" x="2265" y="-2635" />
<use href="#obstacle" x="2265" y="-2735" />
<use href="#obstacle" x="2265" y="-2935" />
<use href="#obstacle" x="2265" y="-3235" />
<use href="#obstacle" x="2265" y="-3435" />
<use href="#obstacle" x="2365" y="-135" />
<use href="#obstacle" x="2365" y="-335" />
<use href="#obstacle" x="2365" y="-435" />
<use href="#obstacle" x="2365" y="-635" />
<use href="#obstacle" x="2365" y="-735" />
<use href="#obstacle" x="2365" y="-2235" />
<use href="#obstacle" x="2365" y="-2335" />
<use href="#obstacle" x="2365" y="-2935" />
<use href="#obstacle" x="2365" y="-3135" />
<use href="#obstacle" x="2365" y="-3435" />
<use href="#obstacle" x="2465" y="-135" />
<use href="#obstacle" x="2465" y="-335" />
<use href="#obstacle" x="2465" y="-635" />
<use href="#obstacle" x="2465" y="-1135" />
<use href="#obstacle" x="2465" y="-1335" />
<use href="#obstacle" x="2465" y="-1535" />
<use href="#obstacle" x="2465" y="-1735" />
<use href="#obstacle" x="2465" y="-2435" />
<use href="#obstacle" x="2465" y="-2535" />
<use href="#obstacle" x="2465" y="-3035" />
<use href="#obstacle" x="2465" y="-3335" />
<use href="#obstacle" x="2465" y="-3435" />
<use href="#obstacle" x="2565" y="-135" />
<use href="#obstacle" x="2565" y="-235" />
<use href="#obstacle" x="2565" y="-635" />
<use href="#obstacle" x="2565" y="-835" />
<use href="#obstacle" x="2565" y="-1035" />
<use href="#obstacle" x="2565" y="-1135" />
<use href="#obstacle" x="2565" y="-1535" />
<use href="#obstacle" x="2565" y="-1935" />
<use href="#obstacle" x="2565" y="-2135" />
<use href="#obstacle" x="2565" y="-2235" />
<use href="#obstacle" x="2565" y="-2735" />
<use href="#obstacle" x="2565" y="-3435" />
<use href="#obstacle" x="2665" y="-135" />
<use href="#obstacle" x="2665" y="-735" />
<use href="#obstacle" x="2665" y="-935" />
<use href="#obstacle" x="2665" y="-1035" />
<use href="#obstacle" x="2665" y="-1735" />
<use href="#obstacle" x="2665" y="-1835" />
<use href="#obstacle" x="2665" y="-2235" />
<use href="#obstacle" x="2665" y="-2635" />
<use href="#obstacle" x="2665" y="-2835" />
<use href="#obstacle" x="2665" y="-3235" />
<use href="#obstacle" x="2665" y="-3335" />
<use href="#obstacle" x="2665" y="-3435" />
<use href="#obstacle" x="2765" y="-135" />
<use href="#obstacle" x="2765" y="-835" />
<use href="#obstacle" x="2765" y="-1335" />
<use href="#obstacle" x="2765" y="-1635" />
<use href="#obstacle" x="2765" y="-1735" />
<use href="#obstacle" x="2765" y="-2035" />
<use href="#obstacle" x="2765" y="-2535" />
<use href="#obstacle" x="2765" y="-2635" />
<use href="#obstacle" x="2765" y="-3135" />
<use href="#obstacle" x="2765" y="-3335" />
<use href="#obstacle" x="2765" y="-3435" />
<use href="#obstacle" x="2865" y="-135" />
<use href="#obstacle" x="2865" y="-235" />
<use href="#obstacle" x="2865" y="-335" />
<use href="#obstacle" x="2865" y="-535" />
<use href="#obstacle" x="2865" y="-835" />
<use href="#obstacle" x="2865" y="-1135" />
<use href="#obstacle" x="2865" y="-1335" />
<use href="#obstacle" x="2865" y="-2035" />
<use href="#obstacle" x="2865" y="-2435" />
<use href="#obstacle" x="2865" y="-2635" />
<use href="#obstacle" x="2865" y="-2735" />
<use href="#obstacle" x="2865" y="-3035" />
<use href="#obstacle" x="2865" y="-3335" />
<use href="#obstacle" x="2865" y="-3435" />
<use href="#obstacle" x="2965" y="-135" />
<use href="#obstacle" x="2965" y="-235" />
<use href="#obstacle" x="2965" y="-535" />
<use href="#obstacle" x="2965" y="-635" />
<use href="#obstacle" x="2965" y="-735" />
<use href="#obstacle" x="2965" y="-1535" />
<use href="#obstacle" x="2965" y="-1635" />
<use href="#obstacle" x="2965" y="-1735" />
<use href="#obstacle" x="2965" y="-1835" />
<use href="#obstacle" x="2965" y="-2335" />
<use href="#obstacle" x="2965" y="-2435" />
<use href="#obstacle" x="2965" y="-2635" />
<use href="#obstacle" x="2965" y="-2735" />
<use href="#obstacle" x="2965" y="-3235" />
<use href="#obstacle" x="2965" y="-3435" />
<use href="#obstacle" x="3065" y="-135" />
<use href="#obstacle" x="3065" y="-235" />
<use href="#obstacle" x="3065" y="-335" />
<use href="#obstacle" x="3065" y="-535" />
<use href="#obstacle" x="3065" y="-735" />
<use href="#obstacle" x="3065" y="-1435" />
<use href="#obstacle" x="3065" y="-1635" />
<use href="#obstacle" x="3065" y="-2135" />
<use href="#obstacle" x="3065" y="-2235" />
<use href="#obstacle" x="3065" y="-2435" />
<use href="#obstacle" x="3065" y="-2735" />
<use href="#obstacle" x="3065" y="-2835" />
<use href="#obstacle" x="3065" y="-3435" />
<use href="#obstacle" x="3165" y="-135" />
<use href="#obstacle" x="3165" y="-935" />
<use href="#obstacle" x="3165" y="-1035" />
<use href="#obstacle" x="3165" y="-1235" />
<use href="#obstacle" x="3165" y="-1335" />
<use href="#obstacle" x="3165" y="-2035" />
<use href="#obstacle" x="3165" y="-2235" />
<use href="#obstacle" x="3165" y="-2335" />
<use href="#obstacle" x="3165" y="-2735" />
<use href="#obstacle" x="3165" y="-3335" />
<use href="#obstacle" x="3165" y="-3435" />
<use href="#obstacle" x="3265" y="-135" />
<use href="#obstacle" x="3265" y="-635" />
<use href="#obstacle" x="3265" y="-1035" />
<use href="#obstacle" x="3265" y="-1335" />
<use href="#obstacle" x="3265" y="-1535" />
<use href="#obstacle" x="3265" y="-2335" />
<use href="#obstacle" x="3265" y="-2835" />
<use href="#obstacle" x="3265" y="-3035" />
<use href="#obstacle" x="3265" y="-3435" />
<use href="#obstacle" x="3365" y="-135" />
<use href="#obstacle" x="3365" y="-235" />
<use href="#obstacle" x="3365" y="-335" />
<use href="#obstacle" x="3365" y="-435" />
<use href="#obstacle" x="3365" y="-535" />
<use href="#obstacle" x="3365" y="-635" />
<use href="#obstacle" x="3365" y="-735" />
<use href="#obstacle" x="3365" y="-835" />
<use href="#obstacle" x="3365" y="-935" />
<use href="#obstacle" x="3365" y="-1035" />
<use href="#obstacle" x="3365" y="-1135" />
<use href="#obstacle" x="3365" y="-1235" />
<use href="#obstacle" x="3365" y="-1335" />
<use href="#obstacle" x="3365" y="-1435" />
<use href="#obstacle" x="3365" y="-1535" />
<use href="#obstacle" x="3365" y="-1635" />
<use href="#obstacle" x="3365" y="-1735" />
<use href="#obstacle" x="3365" y="-1835" />
<use href="#obstacle" x="3365" y="-1935" />
<use href="#obstacle" x="3365" y="-2035" />
<use href="#obstacle" x="3365" y="-2135" />
<use href="#obstacle" x="3365" y="-2235" />
<use href="#obstacle" x="3365" y="-2335" />
<use href="#obstacle" x="3365" y="-2435" />
<use href="#obstacle" x="3365" y="-2535" />
<use href="#obstacle" x="3365" y="-2635" />
<use href="#obstacle" x="3365" y="-2735" />
<use href="#obstacle" x="3365" y="-2835" />
<use href="#obstacle" x="3365" y="-2935" />
<use href="#obstacle" x="3365" y="-3035" />
<use href="#obstacle" x="3365" y="-3135" />
<use href="#obstacle" x="3365" y="-3235" />
<use href="#obstacle" x="3365" y="-3335" />
<use href="#obstacle" x="3365" y="-3435" />
<circle class="agent" cx="800" cy="-1600" fill="#c1433c" r="35"> <animate attributeName="cy" dur="40.25s" keyTimes="0.0;0.0061728395;0.012345679;0.0185185185;0.024691358;0.0308641975;0.037037037;0.0432098765;0.049382716;0.0740740741;0.0802469136;0.0864197531;0.0925925926;1.0" repeatCount="indefinite" values="-1600;-1600;-1700;-1800;-1900;-2000;-2100;-2200;-2300;-2300;-2400;-2400;-2500;-2500"/>
<animate attributeName="cx" dur="40.25s" keyTimes="0.0;0.0061728395;0.0617283951;0.0679012346;0.0740740741;0.0802469136;0.0864197531;0.0925925926;0.0987654321;0.1049382716;0.1111111111;0.1172839506;0.1234567901;0.1296296296;0.1358024691;0.1419753086;0.1481481481;0.1543209877;0.1604938272;0.1666666667;0.1728395062;0.1790123457;0.1851851852;0.1913580247;0.1975308642;0.2037037037;0.2098765432;0.2160493827;0.2222222222;0.2283950617;0.2345679012;0.2407407407;0.2469135802;0.2530864198;0.2592592593;0.2654320988;0.2716049383;0.2777777778;0.2839506173;0.2962962963;0.3024691358;0.3086419753;0.3148148148;0.3209876543;0.3271604938;0.3333333333;0.3395061728;0.3456790123;0.3518518519;0.3580246914;0.3641975309;0.3703703704;0.3888888889;0.3950617284;0.4012345679;0.4074074074;0.4135802469;0.4197530864;0.4259259259;0.4320987654;0.4382716049;0.4444444444;0.450617284;0.4567901235;0.462962963;0.4691358025;0.475308642;0.4814814815;0.487654321;0.4938271605;0.5;0.5061728395;0.512345679;0.5185185185;0.524691358;0.5308641975;0.537037037;0.5432098765;0.549382716;0.5617283951;0.5679012346;0.5740740741;0.5802469136;0.5864197531;0.5925925926;0.5987654321;0.6049382716;0.6111111111;0.6172839506;0.6234567901;0.6296296296;0.6358024691;0.6419753086;0.6481481481;0.6604938272;0.6666666667;0.6728395062;0.6790123457;0.6851851852;0.6913580247;0.6975308642;0.7037037037;0.7098765432;0.7160493827;0.7222222222;0.7283950617;0.7345679012;0.7592592593;0.7654320988;0.7716049383;0.7777777778;0.7839506173;0.7901234568;0.7962962963;0.8086419753;0.8148148148;0.8209876543;0.8271604938;0.8333333333;0.8395061728;0.8456790123;0.8518518519;0.8580246914;0.8703703704;0.8765432099;0.8827160494;0.8888888889;0.8950617284;0.9012345679;0.9074074074;0.9135802469;0.9197530864;0.9259259259;0.9320987654;0.9382716049;0.9444444444;0.950617284;0.9567901235;0.962962963;0.9691358025;1.0" repeatCount="indefinite" values="800;800;800;900;1000;1000;1100;1100;1200;1300;1400;1300;1400;1300;1400;1300;1400;1300;1400;1300;1400;1300;1400;1300;1400;1300;1400;1300;1400;1300;1400;1300;1400;1300;1400;1300;1400;1300;1400;1400;1300;1400;1300;1400;1300;1400;1300;1400;1300;1400;1300;1400;1400;1300;1400;1300;1400;1300;1400;1300;1400;1300;1400;1300;1400;1300;1400;1300;1400;1300;1400;1300;1400;1300;1400;1300;1400;1300;1400;1400;1300;1400;1300;1400;1300;1400;1300;1400;1300;1400;1300;1400;1300;1400;1400;1300;1400;1300;1400;1300;1400;1300;1400;1300;1400;1300;1400;1400;1300;1400;1300;1400;1300;1400;1400;1300;1400;1300;1400;1300;1400;1300;1400;1400;1300;1400;1300;1400;1300;1400;1300;1400;1300;1400;1300;1400;1300;1400;1300;1400;1400"/>
<animate attributeName="visibility" dur="40.25s" keyTimes="0.0;0.0061728395;1.0" repeatCount="indefinite" values="visible;visible;visible"/> </circle>
<circle class="agent" cx="3000" cy="-400" fill="#2e6f9e" r="35"> <animate attributeName="cy" dur="40.25s" keyTimes="0.0;0.0061728395;0.037037037;0.0432098765;0.0555555556;0.0617283951;0.0679012346;0.0740740741;0.0802469136;0.0864197531;0.0925925926;0.1049382716;0.1111111111;0.1172839506;0.1234567901;0.1296296296;0.1358024691;0.1543209877;0.1604938272;0.1666666667;0.1913580247;0.1975308642;0.2037037037;0.2098765432;0.2222222222;0.2283950617;0.2345679012;0.2407407407;0.2592592593;0.2654320988;0.2716049383;0.2777777778;0.2839506173;0.2901234568;0.2962962963;0.3024691358;0.3086419753;0.3209876543;0.3271604938;0.3333333333;0.3395061728;0.3456790123;0.3827160494;0.3888888889;0.3950617284;0.4012345679;1.0" repeatCount="indefinite" values="-400;-400;-400;-500;-500;-600;-700;-800;-900;-1000;-1100;-1100;-1200;-1200;-1300;-1300;-1400;-1400;-1500;-1400;-1400;-1500;-1500;-1600;-1600;-1700;-1800;-1900;-1900;-2000;-2100;-2200;-2300;-2300;-2400;-2500;-2600;-2600;-2500;-2400;-2400;-2300;-2300;-2400;-2400;-2500;-2500"/>
<animate attributeName="cx" dur="40.25s" keyTimes="0.0;0.0061728395;0.012345679;0.0185185185;0.024691358;0.0308641975;0.037037037;0.0432098765;0.049382716;0.0555555556;0.0925925926;0.0987654321;0.1049382716;0.1111111111;0.1172839506;0.1234567901;0.1296296296;0.1358024691;0.1419753086;0.1481481481;0.1543209877;0.1666666667;0.1728395062;0.1790123457;0.1851851852;0.1913580247;0.1975308642;0.2037037037;0.2098765432;0.2160493827;0.2222222222;0.2407407407;0.2469135802;0.2530864198;0.2592592593;0.2839506173;0.2901234568;0.3086419753;0.3148148148;0.3209876543;0.3333333333;0.3395061728;0.3456790123;0.3518518519;0.3580246914;0.3641975309;0.3703703704;0.3765432099;0.3827160494;0.3888888889;0.3950617284;1.0" repeatCount="indefinite" values="3000;3000;2900;2800;2700;2600;2500;2500;2400;2300;2300;2200;2100;2100;2000;2000;1900;1900;1800;1700;1600;1600;1700;1800;1900;2000;2000;2100;2100;2200;2300;2300;2400;2400;2500;2500;2600;2600;2500;2400;2400;2300;2300;2200;2100;2000;1900;1800;1700;1700;1600;1600"/>
<animate attributeName="visibility" dur="40.25s" keyTimes="0.0;0.0061728395;1.0" repeatCount="indefinite" values="visible;visible;visible"/> </circle>
<circle class="agent" cx="3000" cy="-3000" fill="#6e81af" r="35"> <animate attributeName="cy" dur="40.25s" keyTimes="0.0;0.0061728395;0.012345679;0.0432098765;0.049382716;0.0555555556;0.0617283951;0.0679012346;0.0740740741;0.0802469136;0.0864197531;0.0925925926;0.0987654321;0.1049382716;0.1111111111;0.1172839506;1.0" repeatCount="indefinite" values="-3000;-3000;-2900;-2900;-2800;-2700;-2600;-2600;-2500;-2400;-2300;-2300;-2200;-2100;-2100;-2000;-2000"/>
<animate attributeName="cx" dur="40.25s" keyTimes="0.0;0.0061728395;0.012345679;0.0185185185;0.024691358;0.0308641975;0.037037037;0.0432098765;0.0617283951;0.0679012346;0.0864197531;0.0925925926;0.1049382716;0.1111111111;1.0" repeatCount="indefinite" values="3000;3000;3000;2900;2800;2700;2600;2500;2500;2600;2600;2500;2500;2400;2400"/>
<animate attributeName="visibility" dur="40.25s" keyTimes="0.0;0.0061728395;1.0" repeatCount="indefinite" values="visible;visible;visible"/> </circle>
<circle class="agent" cx="1100" cy="-3100" fill="#00b9c8" r="35"> <animate attributeName="cy" dur="40.25s" keyTimes="0.0;0.0061728395;0.012345679;0.0185185185;0.037037037;0.0432098765;0.049382716;0.0555555556;0.0617283951;0.0679012346;0.0740740741;0.0802469136;0.0864197531;0.0925925926;0.0987654321;0.1049382716;0.1111111111;0.1172839506;0.1234567901;0.1296296296;0.1358024691;0.1419753086;0.1543209877;0.1604938272;0.1666666667;0.1790123457;0.1851851852;0.1913580247;0.1975308642;0.2037037037;0.2098765432;0.2160493827;0.2222222222;0.2283950617;0.2345679012;0.2469135802;0.2530864198;0.2592592593;0.2654320988;0.3827160494;0.3888888889;0.5432098765;0.549382716;0.5555555556;0.5617283951;0.6419753086;0.6481481481;0.6543209877;0.6604938272;0.7283950617;0.7345679012;0.7530864198;0.7592592593;0.7901234568;0.7962962963;0.8024691358;0.8086419753;0.8518518519;0.8580246914;1.0" repeatCount="indefinite" values="-3100;-3100;-3100;-3000;-3000;-2900;-2800;-2700;-2600;-2600;-2500;-2500;-2400;-2300;-2300;-2200;-2100;-2000;-1900;-1800;-1700;-1600;-1600;-1500;-1400;-1400;-1500;-1600;-1700;-1800;-1900;-2000;-2100;-2200;-2300;-2300;-2400;-2400;-2500;-2500;-2400;-2400;-2500;-2500;-2400;-2400;-2500;-2500;-2400;-2400;-2500;-2500;-2400;-2400;-2500;-2500;-2400;-2400;-2500;-2500"/>
<animate attributeName="cx" dur="40.25s" keyTimes="0.0;0.0061728395;0.012345679;0.0185185185;0.024691358;0.0308641975;0.037037037;0.0617283951;0.0679012346;0.0740740741;0.0802469136;0.0925925926;0.0987654321;0.1419753086;0.1481481481;0.1543209877;0.1666666667;0.1728395062;0.1790123457;0.2345679012;0.2407407407;0.2469135802;0.2530864198;0.2592592593;0.2654320988;0.2716049383;0.2777777778;0.2839506173;0.2901234568;0.2962962963;0.3518518519;0.3580246914;0.3641975309;0.3703703704;0.8641975309;0.8703703704;0.8950617284;0.9012345679;0.9074074074;0.9320987654;0.9382716049;0.9444444444;0.962962963;0.9691358025;0.987654321;0.9938271605;1.0" repeatCount="indefinite" values="1100;1100;1000;1000;900;800;700;700;600;600;500;500;400;400;500;600;600;700;800;800;900;1000;1000;1100;1100;1200;1200;1300;1300;1200;1200;1100;1200;1300;1300;1200;1200;1100;1200;1200;1100;1200;1200;1300;1300;1200;1200"/>
<animate attributeName="visibility" dur="40.25s" keyTimes="0.0;0.0061728395;1.0" repeatCount="indefinite" values="visible;visible;visible"/> </circle>
<circle class="target" cx="700" cy="-3000" r="35" stroke="#c1433c"> <animate attributeName="visibility" dur="40.25s" keyTimes="0.0;0.0061728395;1.0" repeatCount="indefinite" values="visible;visible;visible"/> </circle>
<circle class="target" cx="1600" cy="-2500" r="35" stroke="#2e6f9e"> <animate attributeName="visibility" dur="40.25s" keyTimes="0.0;0.0061728395;1.0" repeatCount="indefinite" values="visible;visible;visible"/> </circle>
<circle class="target" cx="2400" cy="-2000" r="35" stroke="#6e81af"> <animate attributeName="visibility" dur="40.25s" keyTimes="0.0;0.0061728395;1.0" repeatCount="indefinite" values="visible;visible;visible"/> </circle>
<circle class="target" cx="2400" cy="-2600" r="35" stroke="#00b9c8"> <animate attributeName="visibility" dur="40.25s" keyTimes="0.0;0.0061728395;1.0" repeatCount="indefinite" values="visible;visible;visible"/> </circle>
</svg>