<?xml version="1.0" encoding="UTF-8"?>
        <svg xmlns="http://www.w3.org/2000/svg" xmlns:xlink="http://www.w3.org/1999/xlink"
             width="430" height="430" viewBox="0 -4300 4300 4300">

<defs>

</defs>

<rect fill="#84A1AE" height="70" rx="15" width="70" x="465" y="-535" />
<rect fill="#84A1AE" height="70" rx="15" width="70" x="465" y="-635" />
<rect fill="#84A1AE" height="70" rx="15" width="70" x="465" y="-735" />
<rect fill="#84A1AE" height="70" rx="15" width="70" x="465" y="-835" />
<rect fill="#84A1AE" height="70" rx="15" width="70" x="465" y="-935" />
<rect fill="#84A1AE" height="70" rx="15" width="70" x="465" y="-1035" />
<rect fill="#84A1AE" height="70" rx="15" width="70" x="465" y="-1135" />
<rect fill="#84A1AE" height="70" rx="15" width="70" x="465" y="-1235" />
<rect fill="#84A1AE" height="70" rx="15" width="70" x="465" y="-1335" />
<rect fill="#84A1AE" height="70" rx="15" width="70" x="465" y="-1435" />
<rect fill="#84A1AE" height="70" rx="15" width="70" x="465" y="-1535" />
<rect fill="#84A1AE" height="70" rx="15" width="70" x="465" y="-1635" />
<rect fill="#84A1AE" height="70" rx="15" width="70" x="465" y="-1735" />
<rect fill="#84A1AE" height="70" rx="15" width="70" x="465" y="-1835" />
<rect fill="#84A1AE" height="70" rx="15" width="70" x="465" y="-1935" />
<rect fill="#84A1AE" height="70" rx="15" width="70" x="465" y="-2035" />
<rect fill="#84A1AE" height="70" rx="15" width="70" x="465" y="-2135" />
<rect fill="#84A1AE" height="70" rx="15" width="70" x="465" y="-2235" />
<rect fill="#84A1AE" height="70" rx="15" width="70" x="465" y="-2335" />
<rect fill="#84A1AE" height="70" rx="15" width="70" x="465" y="-2435" />
<rect fill="#84A1AE" height="70" rx="15" width="70" x="465" y="-2535" />
<rect fill="#84A1AE" height="70" rx="15" width="70" x="465" y="-2635" />
<rect fill="#84A1AE" height="70" rx="15" width="70" x="465" y="-2735" />
<rect fill="#84A1AE" height="70" rx="15" width="70" x="465" y="-2835" />
<rect fill="#84A1AE" height="70" rx="15" width="70" x="465" y="-2935" />
<rect fill="#84A1AE" height="70" rx="15" width="70" x="465" y="-3035" />
<rect fill="#84A1AE" height="70" rx="15" width="70" x="465" y="-3135" />
<rect fill="#84A1AE" height="70" rx="15" width="70" x="465" y="-3235" />
<rect fill="#84A1AE" height="70" rx="15" width="70" x="465" y="-3335" />
<rect fill="#84A1AE" height="70" rx="15" width="70" x="465" y="-3435" />
<rect fill="#84A1AE" height="70" rx="15" width="70" x="465" y="-3535" />
<rect fill="#84A1AE" height="70" rx="15" width="70" x="465" y="-3635" />
<rect fill="#84A1AE" height="70" rx="15" width="70" x="465" y="-3735" />
<rect fill="#84A1AE" height="70" rx="15" width="70" x="465" y="-3835" />
<rect fill="#84A1AE" height="70" rx="15" width="70" x="565" y="-535" />
<rect fill="#84A1AE" height="70" rx="15" width="70" x="565" y="-1635" />
<rect fill="#84A1AE" height="70" rx="15" width="70" x="565" y="-1935" />
<rect fill="#84A1AE" height="70" rx="15" width="70" x="565" y="-2735" />
<rect fill="#84A1AE" height="70" rx="15" width="70" x="565" y="-3835" />
<rect fill="#84A1AE" height="70" rx="15" width="70" x="665" y="-535" />
<rect fill="#84A1AE" height="70" rx="15" width="70" x="665" y="-1035" />
<rect fill="#84A1AE" height="70" rx="15" width="70" x="665" y="-2535" />
<rect fill="#84A1AE" height="70" rx="15" width="70" x="665" y="-3035" />
<rect fill="#84A1AE" height="70" rx="15" width="70" x="665" y="-3235" />
<rect fill="#84A1AE" height="70" rx="15" width="70" x="665" y="-3835" />
<rect fill="#84A1AE" height="70" rx="15" width="70" x="765" y="-535" />
<rect fill="#84A1AE" height="70" rx="15" width="70" x="765" y="-635" />
<rect fill="#84A1AE" height="70" rx="15" width="70" x="765" y="-3835" />
<rect fill="#84A1AE" height="70" rx="15" width="70" x="865" y="-535" />
<rect fill="#84A1AE" height="70" rx="15" width="70" x="865" y="-2435" />
<rect fill="#84A1AE" height="70" rx="15" width="70" x="865" y="-2535" />
<rect fill="#84A1AE" height="70" rx="15" width="70" x="865" y="-3335" />
<rect fill="#84A1AE" height="70" rx="15" width="70" x="865" y="-3435" />
<rect fill="#84A1AE" height="70" rx="15" width="70" x="865" y="-3835" />
<rect fill="#84A1AE" height="70" rx="15" width="70" x="965" y="-535" />
<rect fill="#84A1AE" height="70" rx="15" width="70" x="965" y="-735" />
<rect fill="#84A1AE" height="70" rx="15" width="70" x="965" y="-1635" />
<rect fill="#84A1AE" height="70" rx="15" width="70" x="965" y="-1835" />
<rect fill="#84A1AE" height="70" rx="15" width="70" x="965" y="-2835" />
<rect fill="#84A1AE" height="70" rx="15" width="70" x="965" y="-3435" />
<rect fill="#84A1AE" height="70" rx="15" width="70" x="965" y="-3835" />
<rect fill="#84A1AE" height="70" rx="15" width="70" x="1065" y="-535" />
<rect fill="#84A1AE" height="70" rx="15" width="70" x="1065" y="-1135" />
<rect fill="#84A1AE" height="70" rx="15" width="70" x="1065" y="-1835" />
<rect fill="#84A1AE" height="70" rx="15" width="70" x="1065" y="-3735" />
<rect fill="#84A1AE" height="70" rx="15" width="70" x="1065" y="-3835" />
<rect fill="#84A1AE" height="70" rx="15" width="70" x="1165" y="-535" />
<rect fill="#84A1AE" height="70" rx="15" width="70" x="1165" y="-635" />
<rect fill="#84A1AE" height="70" rx="15" width="70" x="1165" y="-735" />
<rect fill="#84A1AE" height="70" rx="15" width="70" x="1165" y="-1535" />
<rect fill="#84A1AE" height="70" rx="15" width="70" x="1165" y="-3835" />
<rect fill="#84A1AE" height="70" rx="15" width="70" x="1265" y="-535" />
<rect fill="#84A1AE" height="70" rx="15" width="70" x="1265" y="-2835" />
<rect fill="#84A1AE" height="70" rx="15" width="70" x="1265" y="-3435" />
<rect fill="#84A1AE" height="70" rx="15" width="70" x="1265" y="-3835" />
<rect fill="#84A1AE" height="70" rx="15" width="70" x="1365" y="-535" />
<rect fill="#84A1AE" height="70" rx="15" width="70" x="1365" y="-835" />
<rect fill="#84A1AE" height="70" rx="15" width="70" x="1365" y="-935" />
<rect fill="#84A1AE" height="70" rx="15" width="70" x="1365" y="-1035" />
<rect fill="#84A1AE" height="70" rx="15" width="70" x="1365" y="-1935" />
<rect fill="#84A1AE" height="70" rx="15" width="70" x="1365" y="-2335" />
<rect fill="#84A1AE" height="70" rx="15" width="70" x="1365" y="-2635" />
<rect fill="#84A1AE" height="70" rx="15" width="70" x="1365" y="-2835" />
<rect fill="#84A1AE" height="70" rx="15" width="70" x="1365" y="-2935" />
<rect fill="#84A1AE" height="70" rx="15" width="70" x="1365" y="-3035" />
<rect fill="#84A1AE" height="70" rx="15" width="70" x="1365" y="-3335" />
<rect fill="#84A1AE" height="70" rx="15" width="70" x="1365" y="-3835" />
<rect fill="#84A1AE" height="70" rx="15" width="70" x="1465" y="-535" />
<rect fill="#84A1AE" height="70" rx="15" width="70" x="1465" y="-1235" />
<rect fill="#84A1AE" height="70" rx="15" width="70" x="1465" y="-1535" />
<rect fill="#84A1AE" height="70" rx="15" width="70" x="1465" y="-2035" />
<rect fill="#84A1AE" height="70" rx="15" width="70" x="1465" y="-3135" />
<rect fill="#84A1AE" height="70" rx="15" width="70" x="1465" y="-3235" />
<rect fill="#84A1AE" height="70" rx="15" width="70" x="1465" y="-3835" />
<rect fill="#84A1AE" height="70" rx="15" width="70" x="1565" y="-535" />
<rect fill="#84A1AE" height="70" rx="15" width="70" x="1565" y="-3035" />
<rect fill="#84A1AE" height="70" rx="15" width="70" x="1565" y="-3835" />
<rect fill="#84A1AE" height="70" rx="15" width="70" x="1665" y="-535" />
<rect fill="#84A1AE" height="70" rx="15" width="70" x="1665" y="-3735" />
<rect fill="#84A1AE" height="70" rx="15" width="70" x="1665" y="-3835" />
<rect fill="#84A1AE" height="70" rx="15" width="70" x="1765" y="-535" />
<rect fill="#84A1AE" height="70" rx="15" width="70" x="1765" y="-1235" />
<rect fill="#84A1AE" height="70" rx="15" width="70" x="1765" y="-3835" />
<rect fill="#84A1AE" height="70" rx="15" width="70" x="1865" y="-535" />
<rect fill="#84A1AE" height="70" rx="15" width="70" x="1865" y="-735" />
<rect fill="#84A1AE" height="70" rx="15" width="70" x="1865" y="-1335" />
<rect fill="#84A1AE" height="70" rx="15" width="70" x="1865" y="-3235" />
<rect fill="#84A1AE" height="70" rx="15" width="70" x="1865" y="-3435" />
<rect fill="#84A1AE" height="70" rx="15" width="70" x="1865" y="-3835" />
<rect fill="#84A1AE" height="70" rx="15" width="70" x="1965" y="-535" />
<rect fill="#84A1AE" height="70" rx="15" width="70" x="1965" y="-635" />
<rect fill="#84A1AE" height="70" rx="15" width="70" x="1965" y="-1835" />
<rect fill="#84A1AE" height="70" rx="15" width="70" x="1965" y="-1935" />
<rect fill="#84A1AE" height="70" rx="15" width="70" x="1965" y="-2135" />
<rect fill="#84A1AE" height="70" rx="15" width="70" x="1965" y="-2335" />
<rect fill="#84A1AE" height="70" rx="15" width="70" x="1965" y="-2435" />
<rect fill="#84A1AE" height="70" rx="15" width="70" x="1965" y="-3335" />
<rect fill="#84A1AE" height="70" rx="15" width="70" x="1965" y="-3835" />
<rect fill="#84A1AE" height="70" rx="15" width="70" x="2065" y="-535" />
<rect fill="#84A1AE" height="70" rx="15" width="70" x="2065" y="-1535" />
<rect fill="#84A1AE" height="70" rx="15" width="70" x="2065" y="-1635" />
<rect fill="#84A1AE" height="70" rx="15" width="70" x="2065" y="-2135" />
<rect fill="#84A1AE" height="70" rx="15" width="70" x="2065" y="-3835" />
<rect fill="#84A1AE" height="70" rx="15" width="70" x="2165" y="-535" />
<rect fill="#84A1AE" height="70" rx="15" width="70" x="2165" y="-935" />
<rect fill="#84A1AE" height="70" rx="15" width="70" x="2165" y="-1335" />
<rect fill="#84A1AE" height="70" rx="15" width="70" x="2165" y="-1835" />
<rect fill="#84A1AE" height="70" rx="15" width="70" x="2165" y="-3835" />
<rect fill="#84A1AE" height="70" rx="15" width="70" x="2265" y="-535" />
<rect fill="#84A1AE" height="70" rx="15" width="70" x="2265" y="-935" />
<rect fill="#84A1AE" height="70" rx="15" width="70" x="2265" y="-1135" />
<rect fill="#84A1AE" height="70" rx="15" width="70" x="2265" y="-2535" />
<rect fill="#84A1AE" height="70" rx="15" width="70" x="2265" y="-3235" />
<rect fill="#84A1AE" height="70" rx="15" width="70" x="2265" y="-3835" />
<rect fill="#84A1AE" height="70" rx="15" width="70" x="2365" y="-535" />
<rect fill="#84A1AE" height="70" rx="15" width="70" x="2365" y="-935" />
<rect fill="#84A1AE" height="70" rx="15" width="70" x="2365" y="-1035" />
<rect fill="#84A1AE" height="70" rx="15" width="70" x="2365" y="-3835" />
<rect fill="#84A1AE" height="70" rx="15" width="70" x="2465" y="-535" />
<rect fill="#84A1AE" height="70" rx="15" width="70" x="2465" y="-935" />
<rect fill="#84A1AE" height="70" rx="15" width="70" x="2465" y="-1535" />
<rect fill="#84A1AE" height="70" rx="15" width="70" x="2465" y="-2335" />
<rect fill="#84A1AE" height="70" rx="15" width="70" x="2465" y="-2735" />
<rect fill="#84A1AE" height="70" rx="15" width="70" x="2465" y="-3835" />
<rect fill="#84A1AE" height="70" rx="15" width="70" x="2565" y="-535" />
<rect fill="#84A1AE" height="70" rx="15" width="70" x="2565" y="-735" />
<rect fill="#84A1AE" height="70" rx="15" width="70" x="2565" y="-2535" />
<rect fill="#84A1AE" height="70" rx="15" width="70" x="2565" y="-3835" />
<rect fill="#84A1AE" height="70" rx="15" width="70" x="2665" y="-535" />
<rect fill="#84A1AE" height="70" rx="15" width="70" x="2665" y="-635" />
<rect fill="#84A1AE" height="70" rx="15" width="70" x="2665" y="-1135" />
<rect fill="#84A1AE" height="70" rx="15" width="70" x="2665" y="-1435" />
<rect fill="#84A1AE" height="70" rx="15" width="70" x="2665" y="-2735" />
<rect fill="#84A1AE" height="70" rx="15" width="70" x="2665" y="-3835" />
<rect fill="#84A1AE" height="70" rx="15" width="70" x="2765" y="-535" />
<rect fill="#84A1AE" height="70" rx="15" width="70" x="2765" y="-1635" />
<rect fill="#84A1AE" height="70" rx="15" width="70" x="2765" y="-1835" />
<rect fill="#84A1AE" height="70" rx="15" width="70" x="2765" y="-1935" />
<rect fill="#84A1AE" height="70" rx="15" width="70" x="2765" y="-2235" />
<rect fill="#84A1AE" height="70" rx="15" width="70" x="2765" y="-3735" />
<rect fill="#84A1AE" height="70" rx="15" width="70" x="2765" y="-3835" />
<rect fill="#84A1AE" height="70" rx="15" width="70" x="2865" y="-535" />
<rect fill="#84A1AE" height="70" rx="15" width="70" x="2865" y="-3835" />
<rect fill="#84A1AE" height="70" rx="15" width="70" x="2965" y="-535" />
<rect fill="#84A1AE" height="70" rx="15" width="70" x="2965" y="-2635" />
<rect fill="#84A1AE" height="70" rx="15" width="70" x="2965" y="-3835" />
<rect fill="#84A1AE" height="70" rx="15" width="70" x="3065" y="-535" />
<rect fill="#84A1AE" height="70" rx="15" width="70" x="3065" y="-735" />
<rect fill="#84A1AE" height="70" rx="15" width="70" x="3065" y="-2535" />
<rect fill="#84A1AE" height="70" rx="15" width="70" x="3065" y="-3835" />
<rect fill="#84A1AE" height="70" rx="15" width="70" x="3165" y="-535" />
<rect fill="#84A1AE" height="70" rx="15" width="70" x="3165" y="-835" />
<rect fill="#84A1AE" height="70" rx="15" width="70" x="3165" y="-1935" />
<rect fill="#84A1AE" height="70" rx="15" width="70" x="3165" y="-2735" />
<rect fill="#84A1AE" height="70" rx="15" width="70" x="3165" y="-3135" />
<rect fill="#84A1AE" height="70" rx="15" width="70" x="3165" y="-3835" />
<rect fill="#84A1AE" height="70" rx="15" width="70" x="3265" y="-535" />
<rect fill="#84A1AE" height="70" rx="15" width="70" x="3265" y="-1035" />
<rect fill="#84A1AE" height="70" rx="15" width="70" x="3265" y="-1735" />
<rect fill="#84A1AE" height="70" rx="15" width="70" x="3265" y="-3835" />
<rect fill="#84A1AE" height="70" rx="15" width="70" x="3365" y="-535" />
<rect fill="#84A1AE" height="70" rx="15" width="70" x="3365" y="-1435" />
<rect fill="#84A1AE" height="70" rx="15" width="70" x="3365" y="-1935" />
<rect fill="#84A1AE" height="70" rx="15" width="70" x="3365" y="-2135" />
<rect fill="#84A1AE" height="70" rx="15" width="70" x="3365" y="-3835" />
<rect fill="#84A1AE" height="70" rx="15" width="70" x="3465" y="-535" />
<rect fill="#84A1AE" height="70" rx="15" width="70" x="3465" y="-2635" />
<rect fill="#84A1AE" height="70" rx="15" width="70" x="3465" y="-3835" />
<rect fill="#84A1AE" height="70" rx="15" width="70" x="3565" y="-535" />
<rect fill="#84A1AE" height="70" rx="15" width="70" x="3565" y="-635" />
<rect fill="#84A1AE" height="70" rx="15" width="70" x="3565" y="-2435" />
<rect fill="#84A1AE" height="70" rx="15" width="70" x="3565" y="-3235" />
<rect fill="#84A1AE" height="70" rx="15" width="70" x="3565" y="-3835" />
<rect fill="#84A1AE" height="70" rx="15" width="70" x="3665" y="-535" />
<rect fill="#84A1AE" height="70" rx="15" width="70" x="3665" y="-2135" />
<rect fill="#84A1AE" height="70" rx="15" width="70" x="3665" y="-2835" />
<rect fill="#84A1AE" height="70" rx="15" width="70" x="3665" y="-3135" />
<rect fill="#84A1AE" height="70" rx="15" width="70" x="3665" y="-3735" />
<rect fill="#84A1AE" height="70" rx="15" width="70" x="3665" y="-3835" />
<rect fill="#84A1AE" height="70" rx="15" width="70" x="3765" y="-535" />
<rect fill="#84A1AE" height="70" rx="15" width="70" x="3765" y="-635" />
<rect fill="#84A1AE" height="70" rx="15" width="70" x="3765" y="-735" />
<rect fill="#84A1AE" height="70" rx="15" width="70" x="3765" y="-835" />
<rect fill="#84A1AE" height="70" rx="15" width="70" x="3765" y="-935" />
<rect fill="#84A1AE" height="70" rx="15" width="70" x="3765" y="-1035" />
<rect fill="#84A1AE" height="70" rx="15" width="70" x="3765" y="-1135" />
<rect fill="#84A1AE" height="70" rx="15" width="70" x="3765" y="-1235" />
<rect fill="#84A1AE" height="70" rx="15" width="70" x="3765" y="-1335" />
<rect fill="#84A1AE" height="70" rx="15" width="70" x="3765" y="-1435" />
<rect fill="#84A1AE" height="70" rx="15" width="70" x="3765" y="-1535" />
<rect fill="#84A1AE" height="70" rx="15" width="70" x="3765" y="-1635" />
<rect fill="#84A1AE" height="70" rx="15" width="70" x="3765" y="-1735" />
<rect fill="#84A1AE" height="70" rx="15" width="70" x="3765" y="-1835" />
<rect fill="#84A1AE" height="70" rx="15" width="70" x="3765" y="-1935" />
<rect fill="#84A1AE" height="70" rx="15" width="70" x="3765" y="-2035" />
<rect fill="#84A1AE" height="70" rx="15" width="70" x="3765" y="-2135" />
<rect fill="#84A1AE" height="70" rx="15" width="70" x="3765" y="-2235" />
<rect fill="#84A1AE" height="70" rx="15" width="70" x="3765" y="-2335" />
<rect fill="#84A1AE" height="70" rx="15" width="70" x="3765" y="-2435" />
<rect fill="#84A1AE" height="70" rx="15" width="70" x="3765" y="-2535" />
<rect fill="#84A1AE" height="70" rx="15" width="70" x="3765" y="-2635" />
<rect fill="#84A1AE" height="70" rx="15" width="70" x="3765" y="-2735" />
<rect fill="#84A1AE" height="70" rx="15" width="70" x="3765" y="-2835" />
<rect fill="#84A1AE" height="70" rx="15" width="70" x="3765" y="-2935" />
<rect fill="#84A1AE" height="70" rx="15" width="70" x="3765" y="-3035" />
<rect fill="#84A1AE" height="70" rx="15" width="70" x="3765" y="-3135" />
<rect fill="#84A1AE" height="70" rx="15" width="70" x="3765" y="-3235" />
<rect fill="#84A1AE" height="70" rx="15" width="70" x="3765" y="-3335" />
<rect fill="#84A1AE" height="70" rx="15" width="70" x="3765" y="-3435" />
<rect fill="#84A1AE" height="70" rx="15" width="70" x="3765" y="-3535" />
<rect fill="#84A1AE" height="70" rx="15" width="70" x="3765" y="-3635" />
<rect fill="#84A1AE" height="70" rx="15" width="70" x="3765" y="-3735" />
<rect fill="#84A1AE" height="70" rx="15" width="70" x="3765" y="-3835" />
<circle cx="2500" cy="-1400" fill="#c1433c" r="35"> <animate attributeName="cy" dur="49.84s" keyTimes="0.0;0.0055865922;0.0111731844;0.0167597765;0.0223463687;0.0279329609;0.0335195531;0.0391061453;0.0446927374;0.0502793296;0.0558659218;0.061452514;0.0670391061;0.0726256983;0.0782122905;0.0837988827;0.0893854749;0.094972067;0.1005586592;0.1061452514;0.1117318436;0.251396648;0.2569832402;0.2681564246;0.2737430168;0.2793296089;0.2849162011;0.2905027933;0.2960893855;0.3016759777;0.3072625698;0.312849162;0.3184357542;0.3240223464;0.3296089385;0.3351955307;0.3575418994;0.3631284916;0.3687150838;0.374301676;0.3798882682;0.3854748603;0.3910614525;0.3966480447;0.4022346369;0.4078212291;0.4134078212;0.4189944134;0.4245810056;0.4301675978;0.4357541899;0.4413407821;0.4469273743;0.4525139665;0.4581005587;0.4636871508;0.469273743;0.4748603352;0.4804469274;0.4860335196;0.4916201117;0.4972067039;0.5027932961;0.5083798883;0.5139664804;0.5195530726;0.5251396648;0.530726257;0.5363128492;0.5474860335;0.5530726257;0.5586592179;0.5698324022;0.5754189944;0.5810055866;0.5865921788;0.5921787709;0.5977653631;0.6033519553;0.6089385475;0.6145251397;0.6201117318;0.625698324;0.6312849162;0.6368715084;0.6424581006;0.6480446927;0.6927374302;0.6983240223;0.7039106145;0.7094972067;0.7150837989;0.7206703911;0.7262569832;0.7318435754;0.7374301676;0.7430167598;0.748603352;0.7541899441;0.7597765363;0.8379888268;0.843575419;0.8659217877;0.8715083799;0.8994413408;0.905027933;0.9106145251;0.9162011173;0.9217877095;0.9273743017;0.9329608939;0.938547486;0.9441340782;0.9497206704;0.9553072626;0.9608938547;0.9664804469;0.9720670391;0.9776536313;0.9832402235;0.9888268156;0.9944134078;1.0" repeatCount="indefinite" values="-1400;-1400;-1400;-1500;-1600;-1700;-1800;-1900;-2000;-2100;-2200;-2300;-2400;-2400;-2500;-2600;-2600;-2700;-2800;-2900;-3000;-3000;-2900;-2900;-2800;-2700;-2600;-2500;-2400;-2300;-2200;-2200;-2100;-2000;-2000;-1900;-1900;-1800;-1700;-1700;-1600;-1500;-1400;-1400;-1300;-1400;-1500;-1600;-1700;-1800;-1800;-1900;-2000;-2100;-2200;-2300;-2400;-2500;-2600;-2700;-2700;-2800;-2900;-3000;-3100;-3200;-3300;-3400;-3500;-3500;-3400;-3500;-3500;-3400;-3300;-3200;-3100;-3000;-2900;-2800;-2700;-2600;-2500;-2400;-2300;-2300;-2200;-2200;-2100;-2000;-1900;-1800;-1800;-1700;-1800;-1800;-1900;-2000;-2100;-2200;-2200;-2300;-2300;-2200;-2200;-2100;-2000;-1900;-1800;-1700;-1600;-1500;-1600;-1700;-1800;-1900;-2000;-2100;-2200;-2300;-2400;-2500;-2500"/>
<animate attributeName="cx" dur="49.84s" keyTimes="0.0;0.0055865922;0.0111731844;0.0670391061;0.0726256983;0.0837988827;0.0893854749;0.1117318436;0.1173184358;0.1229050279;0.1284916201;0.1340782123;0.1396648045;0.1452513966;0.1508379888;0.156424581;0.1620111732;0.1675977654;0.1731843575;0.1787709497;0.1843575419;0.1899441341;0.1955307263;0.2011173184;0.2067039106;0.2122905028;0.217877095;0.2234636872;0.2290502793;0.2346368715;0.2402234637;0.2458100559;0.251396648;0.2569832402;0.2625698324;0.2681564246;0.3072625698;0.312849162;0.3240223464;0.3296089385;0.3463687151;0.3519553073;0.3687150838;0.374301676;0.3910614525;0.3966480447;0.4301675978;0.4357541899;0.4860335196;0.4916201117;0.5363128492;0.5418994413;0.5474860335;0.5586592179;0.5642458101;0.5698324022;0.6368715084;0.6424581006;0.6480446927;0.6536312849;0.6592178771;0.6648044693;0.6703910615;0.6759776536;0.6815642458;0.687150838;0.6927374302;0.7150837989;0.7206703911;0.7318435754;0.7374301676;0.7597765363;0.7653631285;0.7709497207;0.7765363128;0.782122905;0.7877094972;0.7932960894;0.7988826816;0.8044692737;0.8100558659;0.8156424581;0.8212290503;0.8268156425;0.8324022346;0.8379888268;0.843575419;0.8491620112;0.8547486034;0.8603351955;0.8659217877;0.8715083799;0.8770949721;0.8826815642;0.8882681564;0.8938547486;0.8994413408;1.0" repeatCount="indefinite" values="2500;2500;2600;2600;2700;2700;2800;2800;2900;3000;3100;3200;3300;3400;3500;3400;3300;3200;3100;3000;2900;2800;2700;2600;2500;2400;2300;2200;2100;2000;1900;1800;1700;1700;1600;1500;1500;1400;1400;1300;1300;1200;1200;1300;1300;1400;1400;1300;1300;1200;1200;1300;1400;1400;1300;1200;1200;1300;1300;1400;1300;1200;1100;1000;900;800;700;700;600;600;700;700;800;900;1000;1100;1200;1300;1400;1500;1600;1700;1800;1900;2000;2100;2100;2200;2300;2200;2100;2100;2000;1900;1800;1700;1600;1600"/>
<animate attributeName="visibility" dur="49.84s" keyTimes="0.0;0.0055865922;1.0" repeatCount="indefinite" values="visible;visible;visible"/> </circle>
<circle cx="3000" cy="-1900" fill="#2e6f9e" r="35"> <animate attributeName="cy" dur="49.84s" keyTimes="0.0;0.0055865922;0.0111731844;0.0167597765;0.0223463687;0.0279329609;0.0335195531;0.0391061453;0.0446927374;0.0502793296;0.1284916201;0.1340782123;0.1396648045;0.1452513966;0.1508379888;0.156424581;0.1620111732;0.1675977654;0.1731843575;0.1787709497;0.1843575419;0.1899441341;0.1955307263;0.2011173184;0.2067039106;0.2122905028;0.217877095;0.2234636872;0.2290502793;0.2346368715;0.2402234637;0.2458100559;0.251396648;0.2569832402;0.2625698324;0.2681564246;0.2737430168;0.2793296089;0.2849162011;0.2905027933;0.2960893855;0.3016759777;0.3072625698;0.312849162;0.3184357542;0.3240223464;0.3296089385;0.3407821229;0.3463687151;0.3519553073;0.3575418994;0.3631284916;0.3687150838;0.374301676;0.3798882682;0.3854748603;0.3910614525;0.3966480447;0.4022346369;0.4078212291;0.4134078212;0.4189944134;0.4245810056;0.4972067039;0.5027932961;0.5083798883;0.5139664804;0.5474860335;0.5530726257;0.5586592179;0.5642458101;0.5698324022;0.5754189944;0.5810055866;0.5865921788;0.5921787709;0.5977653631;0.6033519553;0.6089385475;0.6145251397;0.6201117318;0.625698324;0.6312849162;0.6368715084;0.6424581006;0.6480446927;0.6536312849;0.6592178771;0.6648044693;0.6759776536;0.6815642458;0.687150838;0.6927374302;0.7039106145;0.7094972067;0.7150837989;0.7206703911;0.7262569832;0.7318435754;0.7374301676;0.7430167598;0.748603352;0.7541899441;0.7597765363;0.7653631285;0.8268156425;0.8324022346;0.8379888268;0.843575419;0.8491620112;0.8547486034;0.8659217877;0.8715083799;0.8826815642;0.8882681564;0.8938547486;0.8994413408;0.9217877095;0.9273743017;0.9329608939;0.938547486;0.9441340782;0.9553072626;0.9608938547;0.9664804469;0.9720670391;0.9776536313;0.9832402235;0.9888268156;1.0" repeatCount="indefinite" values="-1900;-1900;-2000;-2100;-2200;-2300;-2400;-2500;-2500;-2600;-2600;-2500;-2400;-2400;-2300;-2200;-2200;-2100;-2000;-1900;-1800;-1700;-1600;-1500;-1600;-1500;-1400;-1300;-1200;-1100;-1100;-1000;-900;-800;-700;-800;-900;-1000;-1100;-1100;-1200;-1300;-1400;-1500;-1600;-1700;-1800;-1800;-1700;-1800;-1800;-1900;-2000;-2100;-2200;-2300;-2400;-2500;-2600;-2700;-2700;-2800;-2700;-2700;-2800;-2800;-2700;-2700;-2600;-2500;-2400;-2300;-2200;-2300;-2200;-2100;-2000;-1900;-1900;-1800;-1800;-1700;-1600;-1500;-1600;-1700;-1800;-1900;-2000;-2000;-1900;-1900;-2000;-2000;-2100;-2200;-2300;-2400;-2500;-2600;-2700;-2800;-2900;-3000;-3100;-3100;-3200;-3300;-3200;-3100;-3000;-3000;-3100;-3100;-3000;-2900;-2800;-2800;-2700;-2600;-2700;-2600;-2600;-2500;-2400;-2400;-2300;-2300;-2200;-2200"/>
<animate attributeName="cx" dur="49.84s" keyTimes="0.0;0.0055865922;0.0391061453;0.0446927374;0.0502793296;0.0558659218;0.061452514;0.0670391061;0.0726256983;0.0782122905;0.0837988827;0.0893854749;0.094972067;0.1005586592;0.1061452514;0.1117318436;0.1173184358;0.1229050279;0.1284916201;0.1396648045;0.1452513966;0.156424581;0.1620111732;0.2346368715;0.2402234637;0.2849162011;0.2905027933;0.3296089385;0.3351955307;0.3407821229;0.3519553073;0.3575418994;0.4078212291;0.4134078212;0.4245810056;0.4301675978;0.4357541899;0.4413407821;0.4469273743;0.4525139665;0.4581005587;0.4636871508;0.469273743;0.4748603352;0.4804469274;0.4860335196;0.4916201117;0.4972067039;0.5027932961;0.5083798883;0.5139664804;0.5195530726;0.5251396648;0.530726257;0.5363128492;0.5418994413;0.5474860335;0.6033519553;0.6089385475;0.6145251397;0.6201117318;0.6648044693;0.6703910615;0.6759776536;0.6815642458;0.687150838;0.6927374302;0.6983240223;0.7039106145;0.7653631285;0.7709497207;0.7765363128;0.782122905;0.7877094972;0.7932960894;0.7988826816;0.8044692737;0.8100558659;0.8156424581;0.8212290503;0.8268156425;0.8547486034;0.8603351955;0.8659217877;0.8715083799;0.8770949721;0.8826815642;0.8994413408;0.905027933;0.9106145251;0.9162011173;0.9217877095;0.9441340782;0.9497206704;0.9553072626;0.9664804469;0.9720670391;0.9776536313;0.9832402235;0.9888268156;0.9944134078;1.0" repeatCount="indefinite" values="3000;3000;3000;2900;2900;2800;2700;2600;2500;2400;2300;2200;2100;2100;2000;1900;1800;1700;1600;1600;1700;1700;1600;1600;1500;1500;1400;1400;1300;1200;1200;1300;1300;1200;1200;1100;1000;900;1000;1100;1200;1300;1200;1300;1400;1500;1600;1700;1700;1800;1800;1900;2000;2100;2200;2300;2400;2400;2500;2500;2400;2400;2500;2600;2600;2700;2700;2800;2900;2900;2800;2700;2600;2500;2400;2300;2200;2100;2000;1900;1800;1800;1900;2000;2000;2100;2200;2200;2100;2200;2300;2200;2200;2300;2200;2200;2300;2300;2200;2200;2300;2300"/>
<animate attributeName="visibility" dur="49.84s" keyTimes="0.0;0.0055865922;1.0" repeatCount="indefinite" values="visible;visible;visible"/> </circle>
<circle cx="3500" cy="-3000" fill="none" r="35" stroke="#c1433c" stroke-width="10"> <animate attributeName="cy" dur="49.84s" keyTimes="0.0;0.0055865922;0.2346368715;0.2402234637;0.3966480447;0.4022346369;0.5474860335;0.5530726257;0.6480446927;0.6536312849;0.7206703911;0.7262569832;0.8491620112;0.8547486034;0.9329608939;0.938547486;1.0" repeatCount="indefinite" values="-3000;-3000;-3000;-1300;-1300;-3400;-3400;-2200;-2200;-1700;-1700;-2300;-2300;-1500;-1500;-3000;-3000"/>
<animate attributeName="cx" dur="49.84s" keyTimes="0.0;0.0055865922;0.1452513966;0.1508379888;0.2346368715;0.2402234637;0.6480446927;0.6536312849;0.7206703911;0.7262569832;0.8491620112;0.8547486034;0.9329608939;0.938547486;1.0" repeatCount="indefinite" values="3500;3500;3500;1900;1900;1400;1400;600;600;2300;2300;1600;1600;2500;2500"/>
<animate attributeName="visibility" dur="49.84s" keyTimes="0.0;0.0055865922;1.0" repeatCount="indefinite" values="visible;visible;visible"/> </circle>
<circle cx="2600" cy="-2600" fill="none" r="35" stroke="#2e6f9e" stroke-width="10"> <animate attributeName="cy" dur="49.84s" keyTimes="0.0;0.0055865922;0.061452514;0.0670391061;0.2569832402;0.2625698324;0.4357541899;0.4413407821;0.6312849162;0.6368715084;0.6983240223;0.7039106145;0.8324022346;0.8379888268;0.9888268156;0.9944134078;1.0" repeatCount="indefinite" values="-2600;-2600;-2600;-700;-700;-2700;-2700;-1500;-1500;-2000;-2000;-3300;-3300;-2200;-2200;-3300;-3300"/>
<animate attributeName="cx" dur="49.84s" keyTimes="0.0;0.0055865922;0.061452514;0.0670391061;0.2569832402;0.2625698324;0.4357541899;0.4413407821;0.6312849162;0.6368715084;0.6983240223;0.7039106145;0.8324022346;0.8379888268;1.0" repeatCount="indefinite" values="2600;2600;2600;1500;1500;900;900;2400;2400;2900;2900;1800;1800;2300;2300"/>
<animate attributeName="visibility" dur="49.84s" keyTimes="0.0;0.0055865922;1.0" repeatCount="indefinite" values="visible;visible;visible"/> </circle>
</svg>