<?xml version="1.0" encoding="UTF-8"?>
        <svg xmlns="http://www.w3.org/2000/svg" xmlns:xlink="http://www.w3.org/1999/xlink"
             width="430" height="430" viewBox="0 -4300 4300 4300">

<defs>

</defs>

<rect fill="#84A1AE" height="70" rx="15" width="70" x="465" y="-535" />
<rect fill="#84A1AE" height="70" rx="15" width="70" x="465" y="-635" />
<rect fill="#84A1AE" height="70" rx="15" width="70" x="465" y="-735" />
<rect fill="#84A1AE" height="70" rx="15" width="70" x="465" y="-835" />
<rect fill="#84A1AE" height="70" rx="15" width="70" x="465" y="-935" />
<rect fill="#84A1AE" height="70" rx="15" width="70" x="465" y="-1035" />
<rect fill="#84A1AE" height="70" rx="15" width="70" x="465" y="-1135" />
<rect fill="#84A1AE" height="70" rx="15" width="70" x="465" y="-1235" />
<rect fill="#84A1AE" height="70" rx="15" width="70" x="465" y="-1335" />
<rect fill="#84A1AE" height="70" rx="15" width="70" x="465" y="-1435" />
<rect fill="#84A1AE" height="70" rx="15" width="70" x="465" y="-1535" />
<rect fill="#84A1AE" height="70" rx="15" width="70" x="465" y="-1635" />
<rect fill="#84A1AE" height="70" rx="15" width="70" x="465" y="-1735" />
<rect fill="#84A1AE" height="70" rx="15" width="70" x="465" y="-1835" />
<rect fill="#84A1AE" height="70" rx="15" width="70" x="465" y="-1935" />
<rect fill="#84A1AE" height="70" rx="15" width="70" x="465" y="-2035" />
<rect fill="#84A1AE" height="70" rx="15" width="70" x="465" y="-2135" />
<rect fill="#84A1AE" height="70" rx="15" width="70" x="465" y="-2235" />
<rect fill="#84A1AE" height="70" rx="15" width="70" x="465" y="-2335" />
<rect fill="#84A1AE" height="70" rx="15" width="70" x="465" y="-2435" />
<rect fill="#84A1AE" height="70" rx="15" width="70" x="465" y="-2535" />
<rect fill="#84A1AE" height="70" rx="15" width="70" x="465" y="-2635" />
<rect fill="#84A1AE" height="70" rx="15" width="70" x="465" y="-2735" />
<rect fill="#84A1AE" height="70" rx="15" width="70" x="465" y="-2835" />
<rect fill="#84A1AE" height="70" rx="15" width="70" x="465" y="-2935" />
<rect fill="#84A1AE" height="70" rx="15" width="70" x="465" y="-3035" />
<rect fill="#84A1AE" height="70" rx="15" width="70" x="465" y="-3135" />
<rect fill="#84A1AE" height="70" rx="15" width="70" x="465" y="-3235" />
<rect fill="#84A1AE" height="70" rx="15" width="70" x="465" y="-3335" />
<rect fill="#84A1AE" height="70" rx="15" width="70" x="465" y="-3435" />
<rect fill="#84A1AE" height="70" rx="15" width="70" x="465" y="-3535" />
<rect fill="#84A1AE" height="70" rx="15" width="70" x="465" y="-3635" />
<rect fill="#84A1AE" height="70" rx="15" width="70" x="465" y="-3735" />
<rect fill="#84A1AE" height="70" rx="15" width="70" x="465" y="-3835" />
<rect fill="#84A1AE" height="70" rx="15" width="70" x="565" y="-535" />
<rect fill="#84A1AE" height="70" rx="15" width="70" x="565" y="-1635" />
<rect fill="#84A1AE" height="70" rx="15" width="70" x="565" y="-1935" />
<rect fill="#84A1AE" height="70" rx="15" width="70" x="565" y="-2735" />
<rect fill="#84A1AE" height="70" rx="15" width="70" x="565" y="-3835" />
<rect fill="#84A1AE" height="70" rx="15" width="70" x="665" y="-535" />
<rect fill="#84A1AE" height="70" rx="15" width="70" x="665" y="-1035" />
<rect fill="#84A1AE" height="70" rx="15" width="70" x="665" y="-2535" />
<rect fill="#84A1AE" height="70" rx="15" width="70" x="665" y="-3035" />
<rect fill="#84A1AE" height="70" rx="15" width="70" x="665" y="-3235" />
<rect fill="#84A1AE" height="70" rx="15" width="70" x="665" y="-3835" />
<rect fill="#84A1AE" height="70" rx="15" width="70" x="765" y="-535" />
<rect fill="#84A1AE" height="70" rx="15" width="70" x="765" y="-635" />
<rect fill="#84A1AE" height="70" rx="15" width="70" x="765" y="-3835" />
<rect fill="#84A1AE" height="70" rx="15" width="70" x="865" y="-535" />
<rect fill="#84A1AE" height="70" rx="15" width="70" x="865" y="-2435" />
<rect fill="#84A1AE" height="70" rx="15" width="70" x="865" y="-2535" />
<rect fill="#84A1AE" height="70" rx="15" width="70" x="865" y="-3335" />
<rect fill="#84A1AE" height="70" rx="15" width="70" x="865" y="-3435" />
<rect fill="#84A1AE" height="70" rx="15" width="70" x="865" y="-3835" />
<rect fill="#84A1AE" height="70" rx="15" width="70" x="965" y="-535" />
<rect fill="#84A1AE" height="70" rx="15" width="70" x="965" y="-735" />
<rect fill="#84A1AE" height="70" rx="15" width="70" x="965" y="-1635" />
<rect fill="#84A1AE" height="70" rx="15" width="70" x="965" y="-1835" />
<rect fill="#84A1AE" height="70" rx="15" width="70" x="965" y="-2835" />
<rect fill="#84A1AE" height="70" rx="15" width="70" x="965" y="-3435" />
<rect fill="#84A1AE" height="70" rx="15" width="70" x="965" y="-3835" />
<rect fill="#84A1AE" height="70" rx="15" width="70" x="1065" y="-535" />
<rect fill="#84A1AE" height="70" rx="15" width="70" x="1065" y="-1135" />
<rect fill="#84A1AE" height="70" rx="15" width="70" x="1065" y="-1835" />
<rect fill="#84A1AE" height="70" rx="15" width="70" x="1065" y="-3735" />
<rect fill="#84A1AE" height="70" rx="15" width="70" x="1065" y="-3835" />
<rect fill="#84A1AE" height="70" rx="15" width="70" x="1165" y="-535" />
<rect fill="#84A1AE" height="70" rx="15" width="70" x="1165" y="-635" />
<rect fill="#84A1AE" height="70" rx="15" width="70" x="1165" y="-735" />
<rect fill="#84A1AE" height="70" rx="15" width="70" x="1165" y="-1535" />
<rect fill="#84A1AE" height="70" rx="15" width="70" x="1165" y="-3835" />
<rect fill="#84A1AE" height="70" rx="15" width="70" x="1265" y="-535" />
<rect fill="#84A1AE" height="70" rx="15" width="70" x="1265" y="-2835" />
<rect fill="#84A1AE" height="70" rx="15" width="70" x="1265" y="-3435" />
<rect fill="#84A1AE" height="70" rx="15" width="70" x="1265" y="-3835" />
<rect fill="#84A1AE" height="70" rx="15" width="70" x="1365" y="-535" />
<rect fill="#84A1AE" height="70" rx="15" width="70" x="1365" y="-835" />
<rect fill="#84A1AE" height="70" rx="15" width="70" x="1365" y="-935" />
<rect fill="#84A1AE" height="70" rx="15" width="70" x="1365" y="-1035" />
<rect fill="#84A1AE" height="70" rx="15" width="70" x="1365" y="-1935" />
<rect fill="#84A1AE" height="70" rx="15" width="70" x="1365" y="-2335" />
<rect fill="#84A1AE" height="70" rx="15" width="70" x="1365" y="-2635" />
<rect fill="#84A1AE" height="70" rx="15" width="70" x="1365" y="-2835" />
<rect fill="#84A1AE" height="70" rx="15" width="70" x="1365" y="-2935" />
<rect fill="#84A1AE" height="70" rx="15" width="70" x="1365" y="-3035" />
<rect fill="#84A1AE" height="70" rx="15" width="70" x="1365" y="-3335" />
<rect fill="#84A1AE" height="70" rx="15" width="70" x="1365" y="-3835" />
<rect fill="#84A1AE" height="70" rx="15" width="70" x="1465" y="-535" />
<rect fill="#84A1AE" height="70" rx="15" width="70" x="1465" y="-1235" />
<rect fill="#84A1AE" height="70" rx="15" width="70" x="1465" y="-1535" />
<rect fill="#84A1AE" height="70" rx="15" width="70" x="1465" y="-2035" />
<rect fill="#84A1AE" height="70" rx="15" width="70" x="1465" y="-3135" />
<rect fill="#84A1AE" height="70" rx="15" width="70" x="1465" y="-3235" />
<rect fill="#84A1AE" height="70" rx="15" width="70" x="1465" y="-3835" />
<rect fill="#84A1AE" height="70" rx="15" width="70" x="1565" y="-535" />
<rect fill="#84A1AE" height="70" rx="15" width="70" x="1565" y="-3035" />
<rect fill="#84A1AE" height="70" rx="15" width="70" x="1565" y="-3835" />
<rect fill="#84A1AE" height="70" rx="15" width="70" x="1665" y="-535" />
<rect fill="#84A1AE" height="70" rx="15" width="70" x="1665" y="-3735" />
<rect fill="#84A1AE" height="70" rx="15" width="70" x="1665" y="-3835" />
<rect fill="#84A1AE" height="70" rx="15" width="70" x="1765" y="-535" />
<rect fill="#84A1AE" height="70" rx="15" width="70" x="1765" y="-1235" />
<rect fill="#84A1AE" height="70" rx="15" width="70" x="1765" y="-3835" />
<rect fill="#84A1AE" height="70" rx="15" width="70" x="1865" y="-535" />
<rect fill="#84A1AE" height="70" rx="15" width="70" x="1865" y="-735" />
<rect fill="#84A1AE" height="70" rx="15" width="70" x="1865" y="-1335" />
<rect fill="#84A1AE" height="70" rx="15" width="70" x="1865" y="-3235" />
<rect fill="#84A1AE" height="70" rx="15" width="70" x="1865" y="-3435" />
<rect fill="#84A1AE" height="70" rx="15" width="70" x="1865" y="-3835" />
<rect fill="#84A1AE" height="70" rx="15" width="70" x="1965" y="-535" />
<rect fill="#84A1AE" height="70" rx="15" width="70" x="1965" y="-635" />
<rect fill="#84A1AE" height="70" rx="15" width="70" x="1965" y="-1835" />
<rect fill="#84A1AE" height="70" rx="15" width="70" x="1965" y="-1935" />
<rect fill="#84A1AE" height="70" rx="15" width="70" x="1965" y="-2135" />
<rect fill="#84A1AE" height="70" rx="15" width="70" x="1965" y="-2335" />
<rect fill="#84A1AE" height="70" rx="15" width="70" x="1965" y="-2435" />
<rect fill="#84A1AE" height="70" rx="15" width="70" x="1965" y="-3335" />
<rect fill="#84A1AE" height="70" rx="15" width="70" x="1965" y="-3835" />
<rect fill="#84A1AE" height="70" rx="15" width="70" x="2065" y="-535" />
<rect fill="#84A1AE" height="70" rx="15" width="70" x="2065" y="-1535" />
<rect fill="#84A1AE" height="70" rx="15" width="70" x="2065" y="-1635" />
<rect fill="#84A1AE" height="70" rx="15" width="70" x="2065" y="-2135" />
<rect fill="#84A1AE" height="70" rx="15" width="70" x="2065" y="-3835" />
<rect fill="#84A1AE" height="70" rx="15" width="70" x="2165" y="-535" />
<rect fill="#84A1AE" height="70" rx="15" width="70" x="2165" y="-935" />
<rect fill="#84A1AE" height="70" rx="15" width="70" x="2165" y="-1335" />
<rect fill="#84A1AE" height="70" rx="15" width="70" x="2165" y="-1835" />
<rect fill="#84A1AE" height="70" rx="15" width="70" x="2165" y="-3835" />
<rect fill="#84A1AE" height="70" rx="15" width="70" x="2265" y="-535" />
<rect fill="#84A1AE" height="70" rx="15" width="70" x="2265" y="-935" />
<rect fill="#84A1AE" height="70" rx="15" width="70" x="2265" y="-1135" />
<rect fill="#84A1AE" height="70" rx="15" width="70" x="2265" y="-2535" />
<rect fill="#84A1AE" height="70" rx="15" width="70" x="2265" y="-3235" />
<rect fill="#84A1AE" height="70" rx="15" width="70" x="2265" y="-3835" />
<rect fill="#84A1AE" height="70" rx="15" width="70" x="2365" y="-535" />
<rect fill="#84A1AE" height="70" rx="15" width="70" x="2365" y="-935" />
<rect fill="#84A1AE" height="70" rx="15" width="70" x="2365" y="-1035" />
<rect fill="#84A1AE" height="70" rx="15" width="70" x="2365" y="-3835" />
<rect fill="#84A1AE" height="70" rx="15" width="70" x="2465" y="-535" />
<rect fill="#84A1AE" height="70" rx="15" width="70" x="2465" y="-935" />
<rect fill="#84A1AE" height="70" rx="15" width="70" x="2465" y="-1535" />
<rect fill="#84A1AE" height="70" rx="15" width="70" x="2465" y="-2335" />
<rect fill="#84A1AE" height="70" rx="15" width="70" x="2465" y="-2735" />
<rect fill="#84A1AE" height="70" rx="15" width="70" x="2465" y="-3835" />
<rect fill="#84A1AE" height="70" rx="15" width="70" x="2565" y="-535" />
<rect fill="#84A1AE" height="70" rx="15" width="70" x="2565" y="-735" />
<rect fill="#84A1AE" height="70" rx="15" width="70" x="2565" y="-2535" />
<rect fill="#84A1AE" height="70" rx="15" width="70" x="2565" y="-3835" />
<rect fill="#84A1AE" height="70" rx="15" width="70" x="2665" y="-535" />
<rect fill="#84A1AE" height="70" rx="15" width="70" x="2665" y="-635" />
<rect fill="#84A1AE" height="70" rx="15" width="70" x="2665" y="-1135" />
<rect fill="#84A1AE" height="70" rx="15" width="70" x="2665" y="-1435" />
<rect fill="#84A1AE" height="70" rx="15" width="70" x="2665" y="-2735" />
<rect fill="#84A1AE" height="70" rx="15" width="70" x="2665" y="-3835" />
<rect fill="#84A1AE" height="70" rx="15" width="70" x="2765" y="-535" />
<rect fill="#84A1AE" height="70" rx="15" width="70" x="2765" y="-1635" />
<rect fill="#84A1AE" height="70" rx="15" width="70" x="2765" y="-1835" />
<rect fill="#84A1AE" height="70" rx="15" width="70" x="2765" y="-1935" />
<rect fill="#84A1AE" height="70" rx="15" width="70" x="2765" y="-2235" />
<rect fill="#84A1AE" height="70" rx="15" width="70" x="2765" y="-3735" />
<rect fill="#84A1AE" height="70" rx="15" width="70" x="2765" y="-3835" />
<rect fill="#84A1AE" height="70" rx="15" width="70" x="2865" y="-535" />
<rect fill="#84A1AE" height="70" rx="15" width="70" x="2865" y="-3835" />
<rect fill="#84A1AE" height="70" rx="15" width="70" x="2965" y="-535" />
<rect fill="#84A1AE" height="70" rx="15" width="70" x="2965" y="-2635" />
<rect fill="#84A1AE" height="70" rx="15" width="70" x="2965" y="-3835" />
<rect fill="#84A1AE" height="70" rx="15" width="70" x="3065" y="-535" />
<rect fill="#84A1AE" height="70" rx="15" width="70" x="3065" y="-735" />
<rect fill="#84A1AE" height="70" rx="15" width="70" x="3065" y="-2535" />
<rect fill="#84A1AE" height="70" rx="15" width="70" x="3065" y="-3835" />
<rect fill="#84A1AE" height="70" rx="15" width="70" x="3165" y="-535" />
<rect fill="#84A1AE" height="70" rx="15" width="70" x="3165" y="-835" />
<rect fill="#84A1AE" height="70" rx="15" width="70" x="3165" y="-1935" />
<rect fill="#84A1AE" height="70" rx="15" width="70" x="3165" y="-2735" />
<rect fill="#84A1AE" height="70" rx="15" width="70" x="3165" y="-3135" />
<rect fill="#84A1AE" height="70" rx="15" width="70" x="3165" y="-3835" />
<rect fill="#84A1AE" height="70" rx="15" width="70" x="3265" y="-535" />
<rect fill="#84A1AE" height="70" rx="15" width="70" x="3265" y="-1035" />
<rect fill="#84A1AE" height="70" rx="15" width="70" x="3265" y="-1735" />
<rect fill="#84A1AE" height="70" rx="15" width="70" x="3265" y="-3835" />
<rect fill="#84A1AE" height="70" rx="15" width="70" x="3365" y="-535" />
<rect fill="#84A1AE" height="70" rx="15" width="70" x="3365" y="-1435" />
<rect fill="#84A1AE" height="70" rx="15" width="70" x="3365" y="-1935" />
<rect fill="#84A1AE" height="70" rx="15" width="70" x="3365" y="-2135" />
<rect fill="#84A1AE" height="70" rx="15" width="70" x="3365" y="-3835" />
<rect fill="#84A1AE" height="70" rx="15" width="70" x="3465" y="-535" />
<rect fill="#84A1AE" height="70" rx="15" width="70" x="3465" y="-2635" />
<rect fill="#84A1AE" height="70" rx="15" width="70" x="3465" y="-3835" />
<rect fill="#84A1AE" height="70" rx="15" width="70" x="3565" y="-535" />
<rect fill="#84A1AE" height="70" rx="15" width="70" x="3565" y="-635" />
<rect fill="#84A1AE" height="70" rx="15" width="70" x="3565" y="-2435" />
<rect fill="#84A1AE" height="70" rx="15" width="70" x="3565" y="-3235" />
<rect fill="#84A1AE" height="70" rx="15" width="70" x="3565" y="-3835" />
<rect fill="#84A1AE" height="70" rx="15" width="70" x="3665" y="-535" />
<rect fill="#84A1AE" height="70" rx="15" width="70" x="3665" y="-2135" />
<rect fill="#84A1AE" height="70" rx="15" width="70" x="3665" y="-2835" />
<rect fill="#84A1AE" height="70" rx="15" width="70" x="3665" y="-3135" />
<rect fill="#84A1AE" height="70" rx="15" width="70" x="3665" y="-3735" />
<rect fill="#84A1AE" height="70" rx="15" width="70" x="3665" y="-3835" />
<rect fill="#84A1AE" height="70" rx="15" width="70" x="3765" y="-535" />
<rect fill="#84A1AE" height="70" rx="15" width="70" x="3765" y="-635" />
<rect fill="#84A1AE" height="70" rx="15" width="70" x="3765" y="-735" />
<rect fill="#84A1AE" height="70" rx="15" width="70" x="3765" y="-835" />
<rect fill="#84A1AE" height="70" rx="15" width="70" x="3765" y="-935" />
<rect fill="#84A1AE" height="70" rx="15" width="70" x="3765" y="-1035" />
<rect fill="#84A1AE" height="70" rx="15" width="70" x="3765" y="-1135" />
<rect fill="#84A1AE" height="70" rx="15" width="70" x="3765" y="-1235" />
<rect fill="#84A1AE" height="70" rx="15" width="70" x="3765" y="-1335" />
<rect fill="#84A1AE" height="70" rx="15" width="70" x="3765" y="-1435" />
<rect fill="#84A1AE" height="70" rx="15" width="70" x="3765" y="-1535" />
<rect fill="#84A1AE" height="70" rx="15" width="70" x="3765" y="-1635" />
<rect fill="#84A1AE" height="70" rx="15" width="70" x="3765" y="-1735" />
<rect fill="#84A1AE" height="70" rx="15" width="70" x="3765" y="-1835" />
<rect fill="#84A1AE" height="70" rx="15" width="70" x="3765" y="-1935" />
<rect fill="#84A1AE" height="70" rx="15" width="70" x="3765" y="-2035" />
<rect fill="#84A1AE" height="70" rx="15" width="70" x="3765" y="-2135" />
<rect fill="#84A1AE" height="70" rx="15" width="70" x="3765" y="-2235" />
<rect fill="#84A1AE" height="70" rx="15" width="70" x="3765" y="-2335" />
<rect fill="#84A1AE" height="70" rx="15" width="70" x="3765" y="-2435" />
<rect fill="#84A1AE" height="70" rx="15" width="70" x="3765" y="-2535" />
<rect fill="#84A1AE" height="70" rx="15" width="70" x="3765" y="-2635" />
<rect fill="#84A1AE" height="70" rx="15" width="70" x="3765" y="-2735" />
<rect fill="#84A1AE" height="70" rx="15" width="70" x="3765" y="-2835" />
<rect fill="#84A1AE" height="70" rx="15" width="70" x="3765" y="-2935" />
<rect fill="#84A1AE" height="70" rx="15" width="70" x="3765" y="-3035" />
<rect fill="#84A1AE" height="70" rx="15" width="70" x="3765" y="-3135" />
<rect fill="#84A1AE" height="70" rx="15" width="70" x="3765" y="-3235" />
<rect fill="#84A1AE" height="70" rx="15" width="70" x="3765" y="-3335" />
<rect fill="#84A1AE" height="70" rx="15" width="70" x="3765" y="-3435" />
<rect fill="#84A1AE" height="70" rx="15" width="70" x="3765" y="-3535" />
<rect fill="#84A1AE" height="70" rx="15" width="70" x="3765" y="-3635" />
<rect fill="#84A1AE" height="70" rx="15" width="70" x="3765" y="-3735" />
<rect fill="#84A1AE" height="70" rx="15" width="70" x="3765" y="-3835" />
<circle cx="2500" cy="-1400" fill="#c1433c" r="35"> <animate attributeName="cy" dur="50.68000000000001s" keyTimes="0.0;0.0054945055;0.021978022;0.0274725275;0.032967033;0.0384615385;0.043956044;0.0494505495;0.0549450549;0.0604395604;0.0659340659;0.0769230769;0.0824175824;0.0879120879;0.0934065934;0.0989010989;0.1043956044;0.1318681319;0.1373626374;0.1483516484;0.1538461538;0.1593406593;0.1648351648;0.1868131868;0.1923076923;0.1978021978;0.2087912088;0.2142857143;0.2197802198;0.2252747253;0.2307692308;0.2472527473;0.2527472527;0.2692307692;0.2747252747;0.2802197802;0.2857142857;0.2912087912;0.3021978022;0.3076923077;0.3131868132;0.3296703297;0.3351648352;0.3516483516;0.3571428571;0.3736263736;0.3791208791;0.3846153846;0.3901098901;0.3956043956;0.4230769231;0.4285714286;0.4615384615;0.467032967;0.4835164835;0.489010989;0.5;0.5054945055;0.5164835165;0.521978022;0.5274725275;0.6208791209;0.6263736264;0.6703296703;0.6758241758;0.6813186813;0.6868131868;0.6923076923;0.7197802198;0.7252747253;0.7307692308;0.7417582418;0.7472527473;0.7637362637;0.7692307692;0.7747252747;0.7802197802;0.7857142857;0.7912087912;0.7967032967;0.8021978022;0.8076923077;0.8131868132;0.8186813187;0.8241758242;0.8296703297;0.8351648352;0.8516483516;0.8571428571;0.8626373626;0.8736263736;0.8791208791;0.8846153846;0.9120879121;0.9175824176;0.9230769231;0.9285714286;1.0" repeatCount="indefinite" values="-1400;-1400;-1400;-1300;-1200;-1200;-1300;-1200;-1100;-1200;-1300;-1300;-1400;-1500;-1500;-1400;-1300;-1300;-1200;-1200;-1300;-1300;-1400;-1400;-1300;-1400;-1400;-1300;-1200;-1100;-1200;-1200;-1100;-1100;-1000;-1100;-1100;-1200;-1200;-1300;-1400;-1400;-1500;-1500;-1400;-1400;-1500;-1400;-1400;-1300;-1300;-1400;-1400;-1500;-1500;-1400;-1400;-1500;-1500;-1600;-1700;-1700;-1600;-1600;-1500;-1600;-1600;-1500;-1500;-1400;-1500;-1500;-1400;-1400;-1300;-1200;-1100;-1100;-1000;-900;-800;-800;-700;-600;-600;-700;-800;-800;-700;-800;-800;-700;-600;-600;-700;-700;-600;-600"/>
<animate attributeName="cx" dur="50.68000000000001s" keyTimes="0.0;0.0054945055;0.032967033;0.0384615385;0.0659340659;0.0714285714;0.0769230769;0.1043956044;0.1098901099;0.1153846154;0.1208791209;0.1373626374;0.1428571429;0.1483516484;0.1648351648;0.1703296703;0.1813186813;0.1868131868;0.1978021978;0.2032967033;0.2087912088;0.2307692308;0.2362637363;0.2417582418;0.2472527473;0.2527472527;0.2582417582;0.2637362637;0.2802197802;0.2857142857;0.2912087912;0.2967032967;0.3021978022;0.3241758242;0.3296703297;0.3406593407;0.3461538462;0.3516483516;0.3571428571;0.3626373626;0.3681318681;0.3736263736;0.3846153846;0.3901098901;0.4010989011;0.4065934066;0.4175824176;0.4230769231;0.4285714286;0.4340659341;0.4505494505;0.456043956;0.4615384615;0.4945054945;0.5;0.510989011;0.5164835165;0.5274725275;0.532967033;0.5384615385;0.5494505495;0.5549450549;0.5604395604;0.5659340659;0.5714285714;0.5769230769;0.5824175824;0.5879120879;0.5934065934;0.5989010989;0.6043956044;0.6098901099;0.6153846154;0.6208791209;0.6263736264;0.6318681319;0.6373626374;0.6428571429;0.6538461538;0.6593406593;0.6648351648;0.6703296703;0.7087912088;0.7142857143;0.7527472527;0.7582417582;0.8021978022;0.8076923077;0.8186813187;0.8241758242;0.8351648352;0.8406593407;0.8461538462;0.8516483516;0.8681318681;0.8736263736;0.8956043956;0.9010989011;0.9175824176;0.9230769231;0.9340659341;0.9395604396;0.9450549451;0.9505494505;0.956043956;0.967032967;0.9725274725;0.978021978;0.989010989;0.9945054945;1.0" repeatCount="indefinite" values="2500;2500;2500;2600;2600;2500;2600;2600;2500;2400;2300;2300;2400;2300;2300;2200;2200;2100;2100;2000;2100;2100;2000;1900;2000;2000;2100;2000;2000;2100;2100;2200;2100;2100;2200;2200;2300;2200;2200;2100;2100;2200;2200;2100;2100;2000;2000;2100;2100;2200;2200;2100;2200;2200;2300;2300;2400;2400;2500;2400;2400;2300;2200;2300;2200;2100;2000;1900;2000;2000;1900;2000;1900;1800;1800;1700;1800;1900;1900;2000;1900;2000;2000;1900;1900;2000;2000;2100;2100;2200;2200;2300;2200;2300;2300;2400;2400;2300;2300;2400;2400;2300;2400;2500;2600;2600;2500;2400;2400;2300;2300"/>
<animate attributeName="visibility" dur="50.68000000000001s" keyTimes="0.0;0.0054945055;1.0" repeatCount="indefinite" values="visible;visible;visible"/> </circle>
<circle cx="3000" cy="-1900" fill="#2e6f9e" r="35"> <animate attributeName="cy" dur="50.68000000000001s" keyTimes="0.0;0.0054945055;0.010989011;0.0164835165;0.021978022;0.0274725275;0.032967033;0.0384615385;0.043956044;0.0494505495;0.0549450549;0.0604395604;0.0659340659;0.0714285714;0.0769230769;0.0824175824;0.0879120879;0.0934065934;0.0989010989;0.1043956044;0.1098901099;0.1153846154;0.1208791209;0.1263736264;0.1318681319;0.1373626374;0.1428571429;0.1483516484;0.2252747253;0.2307692308;0.2362637363;0.2417582418;0.2472527473;0.2527472527;0.2582417582;0.2637362637;0.2692307692;0.2747252747;0.2802197802;0.2857142857;0.2912087912;0.2967032967;0.3076923077;0.3131868132;0.3186813187;0.3241758242;0.3296703297;0.3351648352;0.3406593407;0.3461538462;0.3516483516;0.3571428571;0.3626373626;0.3681318681;0.3736263736;0.3791208791;0.3846153846;0.3901098901;0.3956043956;0.4010989011;0.4065934066;0.4120879121;0.4175824176;0.4230769231;0.4340659341;0.4395604396;0.4450549451;0.4505494505;0.456043956;0.5054945055;0.510989011;0.5164835165;0.521978022;0.5274725275;0.532967033;0.5384615385;0.543956044;0.5494505495;0.5549450549;0.5604395604;0.5659340659;0.5714285714;0.5769230769;0.5824175824;0.5879120879;0.5934065934;0.5989010989;0.6043956044;0.6098901099;0.6153846154;0.6208791209;0.6263736264;0.6318681319;0.6373626374;0.6428571429;0.6483516484;0.6538461538;0.6868131868;0.6923076923;0.6978021978;0.7032967033;0.7087912088;0.7142857143;0.7197802198;0.7252747253;0.7307692308;0.7362637363;0.7417582418;0.7472527473;0.7527472527;0.7582417582;0.7637362637;0.7692307692;0.7747252747;0.7802197802;0.7857142857;0.7912087912;0.8021978022;0.8076923077;0.8131868132;0.8241758242;0.8296703297;0.8351648352;0.8516483516;0.8571428571;0.8626373626;0.8681318681;0.8736263736;1.0" repeatCount="indefinite" values="-1900;-1900;-1900;-2000;-2100;-2200;-2300;-2400;-2400;-2500;-2500;-2600;-2600;-2700;-2800;-2900;-3000;-3000;-3100;-3200;-3200;-3300;-3300;-3400;-3400;-3500;-3500;-3600;-3600;-3500;-3400;-3300;-3200;-3100;-3000;-2900;-2800;-2700;-2700;-2600;-2600;-2500;-2500;-2400;-2300;-2200;-2200;-2100;-2100;-2000;-2000;-1900;-2000;-2100;-2200;-2300;-2400;-2500;-2600;-2700;-2800;-2900;-3000;-3100;-3100;-3200;-3200;-3300;-3400;-3400;-3300;-3200;-3100;-3000;-2900;-2800;-2700;-2600;-2500;-2400;-2400;-2300;-2200;-2100;-2000;-1900;-1800;-1700;-1700;-1600;-1500;-1400;-1400;-1300;-1200;-1100;-1000;-1000;-1100;-1100;-1200;-1200;-1300;-1400;-1500;-1600;-1700;-1800;-1900;-2000;-2100;-2200;-2300;-2400;-2500;-2600;-2700;-2700;-2800;-2900;-2900;-3000;-3100;-3100;-3200;-3200;-3300;-3400;-3400"/>
<animate attributeName="cx" dur="50.68000000000001s" keyTimes="0.0;0.0054945055;0.010989011;0.0384615385;0.043956044;0.0494505495;0.0549450549;0.0604395604;0.0659340659;0.0879120879;0.0934065934;0.1043956044;0.1098901099;0.1153846154;0.1208791209;0.1263736264;0.1318681319;0.1373626374;0.1428571429;0.1483516484;0.1538461538;0.1593406593;0.1648351648;0.1703296703;0.1758241758;0.1813186813;0.1868131868;0.1923076923;0.1978021978;0.2032967033;0.2087912088;0.2142857143;0.2197802198;0.2252747253;0.2747252747;0.2802197802;0.2857142857;0.2912087912;0.2967032967;0.3021978022;0.3076923077;0.3241758242;0.3296703297;0.3351648352;0.3406593407;0.3461538462;0.3516483516;0.4230769231;0.4285714286;0.4340659341;0.4395604396;0.4450549451;0.456043956;0.4615384615;0.467032967;0.4725274725;0.478021978;0.4835164835;0.489010989;0.4945054945;0.5;0.5054945055;0.5604395604;0.5659340659;0.6043956044;0.6098901099;0.6263736264;0.6318681319;0.6538461538;0.6593406593;0.6648351648;0.6703296703;0.6758241758;0.6813186813;0.6868131868;0.6923076923;0.6978021978;0.7032967033;0.7087912088;0.7912087912;0.7967032967;0.8021978022;0.8131868132;0.8186813187;0.8241758242;0.8351648352;0.8406593407;0.8461538462;0.8516483516;0.8571428571;0.8626373626;0.8736263736;0.8791208791;0.8846153846;0.8901098901;0.8956043956;0.9010989011;0.9065934066;0.9120879121;0.9175824176;0.9230769231;0.9285714286;0.9340659341;0.9395604396;0.9450549451;0.9505494505;0.956043956;0.9615384615;0.967032967;0.9725274725;0.978021978;0.9835164835;0.989010989;0.9945054945;1.0" repeatCount="indefinite" values="3000;3000;2900;2900;2800;2800;2700;2700;2600;2600;2500;2500;2400;2400;2300;2300;2200;2200;2100;2100;2000;1900;1800;1700;1600;1500;1400;1300;1200;1100;1000;900;1000;1100;1100;1200;1200;1300;1300;1400;1500;1500;1600;1600;1700;1700;1800;1800;1900;2000;2000;2100;2100;2200;2300;2400;2500;2600;2700;2600;2500;2400;2400;2300;2300;2200;2200;2100;2100;2000;1900;1800;1700;1600;1500;1500;1400;1400;1300;1300;1400;1500;1500;1600;1700;1700;1800;1900;2000;2000;2100;2100;2200;2300;2400;2500;2600;2700;2800;2900;3000;3100;3200;3300;3400;3400;3500;3400;3300;3200;3100;3000;2900;2800;2800"/>
<animate attributeName="visibility" dur="50.68000000000001s" keyTimes="0.0;0.0054945055;1.0" repeatCount="indefinite" values="visible;visible;visible"/> </circle>
<circle cx="3500" cy="-3000" fill="none" r="35" stroke="#c1433c" stroke-width="10"> <animate attributeName="cy" dur="50.68000000000001s" keyTimes="0.0;0.0054945055;1.0" repeatCount="indefinite" values="-3000;-3000;-3000"/>
<animate attributeName="cx" dur="50.68000000000001s" keyTimes="0.0;0.0054945055;1.0" repeatCount="indefinite" values="3500;3500;3500"/>
<animate attributeName="visibility" dur="50.68000000000001s" keyTimes="0.0;0.0054945055;1.0" repeatCount="indefinite" values="visible;visible;visible"/> </circle>
<circle cx="2600" cy="-2600" fill="none" r="35" stroke="#2e6f9e" stroke-width="10"> <animate attributeName="cy" dur="50.68000000000001s" keyTimes="0.0;0.0054945055;0.0604395604;0.0659340659;0.2087912088;0.2142857143;0.3516483516;0.3571428571;0.4835164835;0.489010989;0.6483516484;0.6538461538;0.7087912088;0.7142857143;1.0" repeatCount="indefinite" values="-2600;-2600;-2600;-3600;-3600;-1900;-1900;-3400;-3400;-1000;-1000;-1300;-1300;-3400;-3400"/>
<animate attributeName="cx" dur="50.68000000000001s" keyTimes="0.0;0.0054945055;0.0604395604;0.0659340659;0.1428571429;0.1483516484;0.2087912088;0.2142857143;0.3516483516;0.3571428571;0.4835164835;0.489010989;0.6483516484;0.6538461538;0.7087912088;0.7142857143;0.9450549451;0.9505494505;1.0" repeatCount="indefinite" values="2600;2600;2600;2100;2100;900;900;1800;1800;2700;2700;2100;2100;1300;1300;3400;3400;1400;1400"/>
<animate attributeName="visibility" dur="50.68000000000001s" keyTimes="0.0;0.0054945055;1.0" repeatCount="indefinite" values="visible;visible;visible"/> </circle>
</svg>