<?xml version="1.0" encoding="UTF-8"?>
        <svg xmlns="http://www.w3.org/2000/svg" xmlns:xlink="http://www.w3.org/1999/xlink"
             width="430" height="430" viewBox="0 -4300 4300 4300">

<defs>

</defs>

<rect fill="#84A1AE" height="70" rx="15" width="70" x="465" y="-535" />
<rect fill="#84A1AE" height="70" rx="15" width="70" x="465" y="-635" />
<rect fill="#84A1AE" height="70" rx="15" width="70" x="465" y="-735" />
<rect fill="#84A1AE" height="70" rx="15" width="70" x="465" y="-835" />
<rect fill="#84A1AE" height="70" rx="15" width="70" x="465" y="-935" />
<rect fill="#84A1AE" height="70" rx="15" width="70" x="465" y="-1035" />
<rect fill="#84A1AE" height="70" rx="15" width="70" x="465" y="-1135" />
<rect fill="#84A1AE" height="70" rx="15" width="70" x="465" y="-1235" />
<rect fill="#84A1AE" height="70" rx="15" width="70" x="465" y="-1335" />
<rect fill="#84A1AE" height="70" rx="15" width="70" x="465" y="-1435" />
<rect fill="#84A1AE" height="70" rx="15" width="70" x="465" y="-1535" />
<rect fill="#84A1AE" height="70" rx="15" width="70" x="465" y="-1635" />
<rect fill="#84A1AE" height="70" rx="15" width="70" x="465" y="-1735" />
<rect fill="#84A1AE" height="70" rx="15" width="70" x="465" y="-1835" />
<rect fill="#84A1AE" height="70" rx="15" width="70" x="465" y="-1935" />
<rect fill="#84A1AE" height="70" rx="15" width="70" x="465" y="-2035" />
<rect fill="#84A1AE" height="70" rx="15" width="70" x="465" y="-2135" />
<rect fill="#84A1AE" height="70" rx="15" width="70" x="465" y="-2235" />
<rect fill="#84A1AE" height="70" rx="15" width="70" x="465" y="-2335" />
<rect fill="#84A1AE" height="70" rx="15" width="70" x="465" y="-2435" />
<rect fill="#84A1AE" height="70" rx="15" width="70" x="465" y="-2535" />
<rect fill="#84A1AE" height="70" rx="15" width="70" x="465" y="-2635" />
<rect fill="#84A1AE" height="70" rx="15" width="70" x="465" y="-2735" />
<rect fill="#84A1AE" height="70" rx="15" width="70" x="465" y="-2835" />
<rect fill="#84A1AE" height="70" rx="15" width="70" x="465" y="-2935" />
<rect fill="#84A1AE" height="70" rx="15" width="70" x="465" y="-3035" />
<rect fill="#84A1AE" height="70" rx="15" width="70" x="465" y="-3135" />
<rect fill="#84A1AE" height="70" rx="15" width="70" x="465" y="-3235" />
<rect fill="#84A1AE" height="70" rx="15" width="70" x="465" y="-3335" />
<rect fill="#84A1AE" height="70" rx="15" width="70" x="465" y="-3435" />
<rect fill="#84A1AE" height="70" rx="15" width="70" x="465" y="-3535" />
<rect fill="#84A1AE" height="70" rx="15" width="70" x="465" y="-3635" />
<rect fill="#84A1AE" height="70" rx="15" width="70" x="465" y="-3735" />
<rect fill="#84A1AE" height="70" rx="15" width="70" x="465" y="-3835" />
<rect fill="#84A1AE" height="70" rx="15" width="70" x="565" y="-535" />
<rect fill="#84A1AE" height="70" rx="15" width="70" x="565" y="-1635" />
<rect fill="#84A1AE" height="70" rx="15" width="70" x="565" y="-1935" />
<rect fill="#84A1AE" height="70" rx="15" width="70" x="565" y="-2735" />
<rect fill="#84A1AE" height="70" rx="15" width="70" x="565" y="-3835" />
<rect fill="#84A1AE" height="70" rx="15" width="70" x="665" y="-535" />
<rect fill="#84A1AE" height="70" rx="15" width="70" x="665" y="-1035" />
<rect fill="#84A1AE" height="70" rx="15" width="70" x="665" y="-2535" />
<rect fill="#84A1AE" height="70" rx="15" width="70" x="665" y="-3035" />
<rect fill="#84A1AE" height="70" rx="15" width="70" x="665" y="-3235" />
<rect fill="#84A1AE" height="70" rx="15" width="70" x="665" y="-3835" />
<rect fill="#84A1AE" height="70" rx="15" width="70" x="765" y="-535" />
<rect fill="#84A1AE" height="70" rx="15" width="70" x="765" y="-635" />
<rect fill="#84A1AE" height="70" rx="15" width="70" x="765" y="-3835" />
<rect fill="#84A1AE" height="70" rx="15" width="70" x="865" y="-535" />
<rect fill="#84A1AE" height="70" rx="15" width="70" x="865" y="-2435" />
<rect fill="#84A1AE" height="70" rx="15" width="70" x="865" y="-2535" />
<rect fill="#84A1AE" height="70" rx="15" width="70" x="865" y="-3335" />
<rect fill="#84A1AE" height="70" rx="15" width="70" x="865" y="-3435" />
<rect fill="#84A1AE" height="70" rx="15" width="70" x="865" y="-3835" />
<rect fill="#84A1AE" height="70" rx="15" width="70" x="965" y="-535" />
<rect fill="#84A1AE" height="70" rx="15" width="70" x="965" y="-735" />
<rect fill="#84A1AE" height="70" rx="15" width="70" x="965" y="-1635" />
<rect fill="#84A1AE" height="70" rx="15" width="70" x="965" y="-1835" />
<rect fill="#84A1AE" height="70" rx="15" width="70" x="965" y="-2835" />
<rect fill="#84A1AE" height="70" rx="15" width="70" x="965" y="-3435" />
<rect fill="#84A1AE" height="70" rx="15" width="70" x="965" y="-3835" />
<rect fill="#84A1AE" height="70" rx="15" width="70" x="1065" y="-535" />
<rect fill="#84A1AE" height="70" rx="15" width="70" x="1065" y="-1135" />
<rect fill="#84A1AE" height="70" rx="15" width="70" x="1065" y="-1835" />
<rect fill="#84A1AE" height="70" rx="15" width="70" x="1065" y="-3735" />
<rect fill="#84A1AE" height="70" rx="15" width="70" x="1065" y="-3835" />
<rect fill="#84A1AE" height="70" rx="15" width="70" x="1165" y="-535" />
<rect fill="#84A1AE" height="70" rx="15" width="70" x="1165" y="-635" />
<rect fill="#84A1AE" height="70" rx="15" width="70" x="1165" y="-735" />
<rect fill="#84A1AE" height="70" rx="15" width="70" x="1165" y="-1535" />
<rect fill="#84A1AE" height="70" rx="15" width="70" x="1165" y="-3835" />
<rect fill="#84A1AE" height="70" rx="15" width="70" x="1265" y="-535" />
<rect fill="#84A1AE" height="70" rx="15" width="70" x="1265" y="-2835" />
<rect fill="#84A1AE" height="70" rx="15" width="70" x="1265" y="-3435" />
<rect fill="#84A1AE" height="70" rx="15" width="70" x="1265" y="-3835" />
<rect fill="#84A1AE" height="70" rx="15" width="70" x="1365" y="-535" />
<rect fill="#84A1AE" height="70" rx="15" width="70" x="1365" y="-835" />
<rect fill="#84A1AE" height="70" rx="15" width="70" x="1365" y="-935" />
<rect fill="#84A1AE" height="70" rx="15" width="70" x="1365" y="-1035" />
<rect fill="#84A1AE" height="70" rx="15" width="70" x="1365" y="-1935" />
<rect fill="#84A1AE" height="70" rx="15" width="70" x="1365" y="-2335" />
<rect fill="#84A1AE" height="70" rx="15" width="70" x="1365" y="-2635" />
<rect fill="#84A1AE" height="70" rx="15" width="70" x="1365" y="-2835" />
<rect fill="#84A1AE" height="70" rx="15" width="70" x="1365" y="-2935" />
<rect fill="#84A1AE" height="70" rx="15" width="70" x="1365" y="-3035" />
<rect fill="#84A1AE" height="70" rx="15" width="70" x="1365" y="-3335" />
<rect fill="#84A1AE" height="70" rx="15" width="70" x="1365" y="-3835" />
<rect fill="#84A1AE" height="70" rx="15" width="70" x="1465" y="-535" />
<rect fill="#84A1AE" height="70" rx="15" width="70" x="1465" y="-1235" />
<rect fill="#84A1AE" height="70" rx="15" width="70" x="1465" y="-1535" />
<rect fill="#84A1AE" height="70" rx="15" width="70" x="1465" y="-2035" />
<rect fill="#84A1AE" height="70" rx="15" width="70" x="1465" y="-3135" />
<rect fill="#84A1AE" height="70" rx="15" width="70" x="1465" y="-3235" />
<rect fill="#84A1AE" height="70" rx="15" width="70" x="1465" y="-3835" />
<rect fill="#84A1AE" height="70" rx="15" width="70" x="1565" y="-535" />
<rect fill="#84A1AE" height="70" rx="15" width="70" x="1565" y="-3035" />
<rect fill="#84A1AE" height="70" rx="15" width="70" x="1565" y="-3835" />
<rect fill="#84A1AE" height="70" rx="15" width="70" x="1665" y="-535" />
<rect fill="#84A1AE" height="70" rx="15" width="70" x="1665" y="-3735" />
<rect fill="#84A1AE" height="70" rx="15" width="70" x="1665" y="-3835" />
<rect fill="#84A1AE" height="70" rx="15" width="70" x="1765" y="-535" />
<rect fill="#84A1AE" height="70" rx="15" width="70" x="1765" y="-1235" />
<rect fill="#84A1AE" height="70" rx="15" width="70" x="1765" y="-3835" />
<rect fill="#84A1AE" height="70" rx="15" width="70" x="1865" y="-535" />
<rect fill="#84A1AE" height="70" rx="15" width="70" x="1865" y="-735" />
<rect fill="#84A1AE" height="70" rx="15" width="70" x="1865" y="-1335" />
<rect fill="#84A1AE" height="70" rx="15" width="70" x="1865" y="-3235" />
<rect fill="#84A1AE" height="70" rx="15" width="70" x="1865" y="-3435" />
<rect fill="#84A1AE" height="70" rx="15" width="70" x="1865" y="-3835" />
<rect fill="#84A1AE" height="70" rx="15" width="70" x="1965" y="-535" />
<rect fill="#84A1AE" height="70" rx="15" width="70" x="1965" y="-635" />
<rect fill="#84A1AE" height="70" rx="15" width="70" x="1965" y="-1835" />
<rect fill="#84A1AE" height="70" rx="15" width="70" x="1965" y="-1935" />
<rect fill="#84A1AE" height="70" rx="15" width="70" x="1965" y="-2135" />
<rect fill="#84A1AE" height="70" rx="15" width="70" x="1965" y="-2335" />
<rect fill="#84A1AE" height="70" rx="15" width="70" x="1965" y="-2435" />
<rect fill="#84A1AE" height="70" rx="15" width="70" x="1965" y="-3335" />
<rect fill="#84A1AE" height="70" rx="15" width="70" x="1965" y="-3835" />
<rect fill="#84A1AE" height="70" rx="15" width="70" x="2065" y="-535" />
<rect fill="#84A1AE" height="70" rx="15" width="70" x="2065" y="-1535" />
<rect fill="#84A1AE" height="70" rx="15" width="70" x="2065" y="-1635" />
<rect fill="#84A1AE" height="70" rx="15" width="70" x="2065" y="-2135" />
<rect fill="#84A1AE" height="70" rx="15" width="70" x="2065" y="-3835" />
<rect fill="#84A1AE" height="70" rx="15" width="70" x="2165" y="-535" />
<rect fill="#84A1AE" height="70" rx="15" width="70" x="2165" y="-935" />
<rect fill="#84A1AE" height="70" rx="15" width="70" x="2165" y="-1335" />
<rect fill="#84A1AE" height="70" rx="15" width="70" x="2165" y="-1835" />
<rect fill="#84A1AE" height="70" rx="15" width="70" x="2165" y="-3835" />
<rect fill="#84A1AE" height="70" rx="15" width="70" x="2265" y="-535" />
<rect fill="#84A1AE" height="70" rx="15" width="70" x="2265" y="-935" />
<rect fill="#84A1AE" height="70" rx="15" width="70" x="2265" y="-1135" />
<rect fill="#84A1AE" height="70" rx="15" width="70" x="2265" y="-2535" />
<rect fill="#84A1AE" height="70" rx="15" width="70" x="2265" y="-3235" />
<rect fill="#84A1AE" height="70" rx="15" width="70" x="2265" y="-3835" />
<rect fill="#84A1AE" height="70" rx="15" width="70" x="2365" y="-535" />
<rect fill="#84A1AE" height="70" rx="15" width="70" x="2365" y="-935" />
<rect fill="#84A1AE" height="70" rx="15" width="70" x="2365" y="-1035" />
<rect fill="#84A1AE" height="70" rx="15" width="70" x="2365" y="-3835" />
<rect fill="#84A1AE" height="70" rx="15" width="70" x="2465" y="-535" />
<rect fill="#84A1AE" height="70" rx="15" width="70" x="2465" y="-935" />
<rect fill="#84A1AE" height="70" rx="15" width="70" x="2465" y="-1535" />
<rect fill="#84A1AE" height="70" rx="15" width="70" x="2465" y="-2335" />
<rect fill="#84A1AE" height="70" rx="15" width="70" x="2465" y="-2735" />
<rect fill="#84A1AE" height="70" rx="15" width="70" x="2465" y="-3835" />
<rect fill="#84A1AE" height="70" rx="15" width="70" x="2565" y="-535" />
<rect fill="#84A1AE" height="70" rx="15" width="70" x="2565" y="-735" />
<rect fill="#84A1AE" height="70" rx="15" width="70" x="2565" y="-2535" />
<rect fill="#84A1AE" height="70" rx="15" width="70" x="2565" y="-3835" />
<rect fill="#84A1AE" height="70" rx="15" width="70" x="2665" y="-535" />
<rect fill="#84A1AE" height="70" rx="15" width="70" x="2665" y="-635" />
<rect fill="#84A1AE" height="70" rx="15" width="70" x="2665" y="-1135" />
<rect fill="#84A1AE" height="70" rx="15" width="70" x="2665" y="-1435" />
<rect fill="#84A1AE" height="70" rx="15" width="70" x="2665" y="-2735" />
<rect fill="#84A1AE" height="70" rx="15" width="70" x="2665" y="-3835" />
<rect fill="#84A1AE" height="70" rx="15" width="70" x="2765" y="-535" />
<rect fill="#84A1AE" height="70" rx="15" width="70" x="2765" y="-1635" />
<rect fill="#84A1AE" height="70" rx="15" width="70" x="2765" y="-1835" />
<rect fill="#84A1AE" height="70" rx="15" width="70" x="2765" y="-1935" />
<rect fill="#84A1AE" height="70" rx="15" width="70" x="2765" y="-2235" />
<rect fill="#84A1AE" height="70" rx="15" width="70" x="2765" y="-3735" />
<rect fill="#84A1AE" height="70" rx="15" width="70" x="2765" y="-3835" />
<rect fill="#84A1AE" height="70" rx="15" width="70" x="2865" y="-535" />
<rect fill="#84A1AE" height="70" rx="15" width="70" x="2865" y="-3835" />
<rect fill="#84A1AE" height="70" rx="15" width="70" x="2965" y="-535" />
<rect fill="#84A1AE" height="70" rx="15" width="70" x="2965" y="-2635" />
<rect fill="#84A1AE" height="70" rx="15" width="70" x="2965" y="-3835" />
<rect fill="#84A1AE" height="70" rx="15" width="70" x="3065" y="-535" />
<rect fill="#84A1AE" height="70" rx="15" width="70" x="3065" y="-735" />
<rect fill="#84A1AE" height="70" rx="15" width="70" x="3065" y="-2535" />
<rect fill="#84A1AE" height="70" rx="15" width="70" x="3065" y="-3835" />
<rect fill="#84A1AE" height="70" rx="15" width="70" x="3165" y="-535" />
<rect fill="#84A1AE" height="70" rx="15" width="70" x="3165" y="-835" />
<rect fill="#84A1AE" height="70" rx="15" width="70" x="3165" y="-1935" />
<rect fill="#84A1AE" height="70" rx="15" width="70" x="3165" y="-2735" />
<rect fill="#84A1AE" height="70" rx="15" width="70" x="3165" y="-3135" />
<rect fill="#84A1AE" height="70" rx="15" width="70" x="3165" y="-3835" />
<rect fill="#84A1AE" height="70" rx="15" width="70" x="3265" y="-535" />
<rect fill="#84A1AE" height="70" rx="15" width="70" x="3265" y="-1035" />
<rect fill="#84A1AE" height="70" rx="15" width="70" x="3265" y="-1735" />
<rect fill="#84A1AE" height="70" rx="15" width="70" x="3265" y="-3835" />
<rect fill="#84A1AE" height="70" rx="15" width="70" x="3365" y="-535" />
<rect fill="#84A1AE" height="70" rx="15" width="70" x="3365" y="-1435" />
<rect fill="#84A1AE" height="70" rx="15" width="70" x="3365" y="-1935" />
<rect fill="#84A1AE" height="70" rx="15" width="70" x="3365" y="-2135" />
<rect fill="#84A1AE" height="70" rx="15" width="70" x="3365" y="-3835" />
<rect fill="#84A1AE" height="70" rx="15" width="70" x="3465" y="-535" />
<rect fill="#84A1AE" height="70" rx="15" width="70" x="3465" y="-2635" />
<rect fill="#84A1AE" height="70" rx="15" width="70" x="3465" y="-3835" />
<rect fill="#84A1AE" height="70" rx="15" width="70" x="3565" y="-535" />
<rect fill="#84A1AE" height="70" rx="15" width="70" x="3565" y="-635" />
<rect fill="#84A1AE" height="70" rx="15" width="70" x="3565" y="-2435" />
<rect fill="#84A1AE" height="70" rx="15" width="70" x="3565" y="-3235" />
<rect fill="#84A1AE" height="70" rx="15" width="70" x="3565" y="-3835" />
<rect fill="#84A1AE" height="70" rx="15" width="70" x="3665" y="-535" />
<rect fill="#84A1AE" height="70" rx="15" width="70" x="3665" y="-2135" />
<rect fill="#84A1AE" height="70" rx="15" width="70" x="3665" y="-2835" />
<rect fill="#84A1AE" height="70" rx="15" width="70" x="3665" y="-3135" />
<rect fill="#84A1AE" height="70" rx="15" width="70" x="3665" y="-3735" />
<rect fill="#84A1AE" height="70" rx="15" width="70" x="3665" y="-3835" />
<rect fill="#84A1AE" height="70" rx="15" width="70" x="3765" y="-535" />
<rect fill="#84A1AE" height="70" rx="15" width="70" x="3765" y="-635" />
<rect fill="#84A1AE" height="70" rx="15" width="70" x="3765" y="-735" />
<rect fill="#84A1AE" height="70" rx="15" width="70" x="3765" y="-835" />
<rect fill="#84A1AE" height="70" rx="15" width="70" x="3765" y="-935" />
<rect fill="#84A1AE" height="70" rx="15" width="70" x="3765" y="-1035" />
<rect fill="#84A1AE" height="70" rx="15" width="70" x="3765" y="-1135" />
<rect fill="#84A1AE" height="70" rx="15" width="70" x="3765" y="-1235" />
<rect fill="#84A1AE" height="70" rx="15" width="70" x="3765" y="-1335" />
<rect fill="#84A1AE" height="70" rx="15" width="70" x="3765" y="-1435" />
<rect fill="#84A1AE" height="70" rx="15" width="70" x="3765" y="-1535" />
<rect fill="#84A1AE" height="70" rx="15" width="70" x="3765" y="-1635" />
<rect fill="#84A1AE" height="70" rx="15" width="70" x="3765" y="-1735" />
<rect fill="#84A1AE" height="70" rx="15" width="70" x="3765" y="-1835" />
<rect fill="#84A1AE" height="70" rx="15" width="70" x="3765" y="-1935" />
<rect fill="#84A1AE" height="70" rx="15" width="70" x="3765" y="-2035" />
<rect fill="#84A1AE" height="70" rx="15" width="70" x="3765" y="-2135" />
<rect fill="#84A1AE" height="70" rx="15" width="70" x="3765" y="-2235" />
<rect fill="#84A1AE" height="70" rx="15" width="70" x="3765" y="-2335" />
<rect fill="#84A1AE" height="70" rx="15" width="70" x="3765" y="-2435" />
<rect fill="#84A1AE" height="70" rx="15" width="70" x="3765" y="-2535" />
<rect fill="#84A1AE" height="70" rx="15" width="70" x="3765" y="-2635" />
<rect fill="#84A1AE" height="70" rx="15" width="70" x="3765" y="-2735" />
<rect fill="#84A1AE" height="70" rx="15" width="70" x="3765" y="-2835" />
<rect fill="#84A1AE" height="70" rx="15" width="70" x="3765" y="-2935" />
<rect fill="#84A1AE" height="70" rx="15" width="70" x="3765" y="-3035" />
<rect fill="#84A1AE" height="70" rx="15" width="70" x="3765" y="-3135" />
<rect fill="#84A1AE" height="70" rx="15" width="70" x="3765" y="-3235" />
<rect fill="#84A1AE" height="70" rx="15" width="70" x="3765" y="-3335" />
<rect fill="#84A1AE" height="70" rx="15" width="70" x="3765" y="-3435" />
<rect fill="#84A1AE" height="70" rx="15" width="70" x="3765" y="-3535" />
<rect fill="#84A1AE" height="70" rx="15" width="70" x="3765" y="-3635" />
<rect fill="#84A1AE" height="70" rx="15" width="70" x="3765" y="-3735" />
<rect fill="#84A1AE" height="70" rx="15" width="70" x="3765" y="-3835" />
<circle cx="2500" cy="-1400" fill="#c1433c" r="35"> <animate attributeName="cy" dur="80.64000000000001s" keyTimes="0.0;0.0034602076;0.0069204152;0.0103806228;0.0138408304;0.0173010381;0.0207612457;0.0242214533;0.0276816609;0.0311418685;0.0346020761;0.0380622837;0.0415224913;0.044982699;0.0484429066;0.0553633218;0.0588235294;0.062283737;0.0657439446;0.0692041522;0.0726643599;0.1591695502;0.1626297578;0.169550173;0.1730103806;0.1764705882;0.2006920415;0.2041522491;0.2076124567;0.2110726644;0.214532872;0.2179930796;0.2214532872;0.2249134948;0.2283737024;0.23183391;0.2352941176;0.2387543253;0.2941176471;0.2975778547;0.3114186851;0.3148788927;0.321799308;0.3252595156;0.3287197232;0.3356401384;0.339100346;0.3425605536;0.3460207612;0.3806228374;0.384083045;0.3979238754;0.401384083;0.4048442907;0.4083044983;0.4117647059;0.4152249135;0.4186851211;0.4221453287;0.4256055363;0.4290657439;0.4325259516;0.4429065744;0.446366782;0.4532871972;0.4567474048;0.4602076125;0.4636678201;0.4671280277;0.4705882353;0.4740484429;0.4775086505;0.4809688581;0.4844290657;0.4878892734;0.491349481;0.4948096886;0.4982698962;0.5017301038;0.5051903114;0.508650519;0.5121107266;0.5155709343;0.5190311419;0.5224913495;0.5259515571;0.5294117647;0.5328719723;0.5363321799;0.5397923875;0.5432525952;0.5467128028;0.5501730104;0.553633218;0.5570934256;0.5605536332;0.5640138408;0.5674740484;0.5709342561;0.5743944637;0.5778546713;0.5813148789;0.5951557093;0.598615917;0.6020761246;0.6055363322;0.6089965398;0.6124567474;0.615916955;0.6193771626;0.6228373702;0.6262975779;0.6297577855;0.6332179931;0.6366782007;0.6401384083;0.6435986159;0.6470588235;0.6505190311;0.6539792388;0.6574394464;0.660899654;0.6643598616;0.6816608997;0.6851211073;0.6885813149;0.6920415225;0.6955017301;0.6989619377;0.7024221453;0.7058823529;0.7093425606;0.7197231834;0.723183391;0.7266435986;0.7301038062;0.7335640138;0.7370242215;0.7404844291;0.7543252595;0.7577854671;0.7716262976;0.7750865052;0.7785467128;0.7820069204;0.785467128;0.7889273356;0.7993079585;0.8027681661;0.8062283737;0.8096885813;0.8131487889;0.8166089965;0.8200692042;0.8235294118;0.8269896194;0.830449827;0.8339100346;0.8373702422;0.8615916955;0.8650519031;0.8996539792;0.9031141869;0.9065743945;0.9100346021;0.9134948097;0.9342560554;0.937716263;0.9411764706;0.9446366782;0.9480968858;0.9515570934;0.955017301;0.9584775087;0.9619377163;0.9653979239;0.9688581315;0.9723183391;0.9757785467;0.9792387543;0.9896193772;0.9930795848;1.0" repeatCount="indefinite" values="-1400;-1400;-1400;-1500;-1600;-1700;-1800;-1900;-2000;-2100;-2200;-2300;-2400;-2400;-2500;-2500;-2600;-2700;-2800;-2900;-3000;-3000;-2900;-2900;-2800;-2700;-2700;-2600;-2500;-2400;-2400;-2300;-2200;-2100;-2000;-1900;-1800;-1700;-1700;-1800;-1800;-1700;-1700;-1600;-1500;-1500;-1400;-1400;-1300;-1300;-1400;-1400;-1500;-1600;-1700;-1800;-1800;-1900;-2000;-2100;-2200;-2300;-2300;-2400;-2400;-2500;-2600;-2600;-2700;-2800;-2900;-3000;-3100;-3200;-3200;-3300;-3200;-3100;-3000;-2900;-2800;-2700;-2600;-2500;-2400;-2300;-2200;-2100;-2000;-2000;-1900;-1800;-1700;-1700;-1600;-1500;-1400;-1300;-1200;-1200;-1100;-1200;-1200;-1300;-1400;-1400;-1500;-1600;-1700;-1800;-1800;-1900;-1900;-2000;-2000;-2100;-2200;-2300;-2400;-2500;-2600;-2600;-2700;-2700;-2600;-2500;-2400;-2300;-2300;-2200;-2200;-2100;-2100;-2000;-1900;-1900;-1800;-1800;-1700;-1700;-1600;-1600;-1500;-1500;-1400;-1300;-1200;-1200;-1100;-1000;-1000;-900;-900;-800;-800;-700;-800;-800;-900;-900;-800;-800;-900;-900;-1000;-1100;-1100;-1200;-1300;-1400;-1400;-1500;-1600;-1700;-1700;-1800;-1900;-2000;-2100;-2200;-2200;-2300;-2300"/>
<animate attributeName="cx" dur="80.64000000000001s" keyTimes="0.0;0.0034602076;0.0069204152;0.0415224913;0.044982699;0.0519031142;0.0553633218;0.0726643599;0.0761245675;0.0795847751;0.0830449827;0.0865051903;0.0899653979;0.0934256055;0.0968858131;0.1003460208;0.1038062284;0.107266436;0.1107266436;0.1141868512;0.1176470588;0.1211072664;0.124567474;0.1280276817;0.1314878893;0.1349480969;0.1384083045;0.1418685121;0.1453287197;0.1487889273;0.1522491349;0.1557093426;0.1591695502;0.1626297578;0.1660899654;0.169550173;0.1764705882;0.1799307958;0.1833910035;0.1868512111;0.1903114187;0.1937716263;0.1972318339;0.2006920415;0.2110726644;0.214532872;0.2387543253;0.2422145329;0.2456747405;0.2491349481;0.2525951557;0.2560553633;0.2595155709;0.2629757785;0.2664359862;0.2698961938;0.2733564014;0.276816609;0.2802768166;0.2837370242;0.2871972318;0.2906574394;0.2941176471;0.2975778547;0.3010380623;0.3044982699;0.3079584775;0.3114186851;0.3148788927;0.3183391003;0.321799308;0.3287197232;0.3321799308;0.3356401384;0.339100346;0.3425605536;0.3494809689;0.3529411765;0.3564013841;0.3598615917;0.3633217993;0.3667820069;0.3702422145;0.3737024221;0.3771626298;0.3806228374;0.384083045;0.3875432526;0.3910034602;0.3944636678;0.3979238754;0.4117647059;0.4152249135;0.4325259516;0.4359861592;0.4394463668;0.4429065744;0.446366782;0.4498269896;0.4532871972;0.4602076125;0.4636678201;0.4844290657;0.4878892734;0.5363321799;0.5397923875;0.5501730104;0.553633218;0.5709342561;0.5743944637;0.5813148789;0.5847750865;0.5882352941;0.5916955017;0.5951557093;0.6020761246;0.6055363322;0.6193771626;0.6228373702;0.6262975779;0.6297577855;0.6332179931;0.6366782007;0.6574394464;0.660899654;0.6643598616;0.6678200692;0.6712802768;0.6747404844;0.678200692;0.6816608997;0.6955017301;0.6989619377;0.7024221453;0.7058823529;0.7093425606;0.7128027682;0.7162629758;0.7197231834;0.7266435986;0.7301038062;0.7335640138;0.7370242215;0.7404844291;0.7439446367;0.7474048443;0.7508650519;0.7543252595;0.7577854671;0.7612456747;0.7647058824;0.76816609;0.7716262976;0.7750865052;0.7785467128;0.7889273356;0.7923875433;0.7958477509;0.7993079585;0.8062283737;0.8096885813;0.8131487889;0.8166089965;0.8200692042;0.8235294118;0.830449827;0.8339100346;0.8373702422;0.8408304498;0.8442906574;0.8477508651;0.8512110727;0.8546712803;0.8581314879;0.8615916955;0.8650519031;0.8685121107;0.8719723183;0.875432526;0.8788927336;0.8823529412;0.8858131488;0.8892733564;0.892733564;0.8961937716;0.8996539792;0.9031141869;0.9065743945;0.9134948097;0.9169550173;0.9204152249;0.9238754325;0.9273356401;0.9307958478;0.9342560554;0.9446366782;0.9480968858;0.9584775087;0.9619377163;0.9792387543;0.9826989619;0.9861591696;0.9896193772;0.9930795848;0.9965397924;1.0" repeatCount="indefinite" values="2500;2500;2600;2600;2700;2700;2800;2800;2900;3000;3100;3200;3300;3400;3500;3400;3300;3200;3100;3000;2900;2800;2700;2600;2500;2400;2300;2200;2100;2000;1900;1800;1700;1700;1600;1500;1500;1400;1300;1200;1100;1000;900;800;800;700;700;800;900;1000;1100;1200;1300;1400;1500;1600;1700;1800;1900;2000;2100;2200;2300;2300;2400;2500;2600;2700;2700;2800;2900;2900;3000;3100;3100;3200;3200;3100;3000;2900;2800;2700;2600;2500;2400;2300;2300;2200;2100;2000;1900;1900;1800;1800;1700;1600;1500;1500;1400;1300;1300;1200;1200;1100;1100;1200;1200;1300;1300;1400;1400;1300;1200;1100;1000;1000;900;900;800;800;700;700;600;600;700;700;800;900;1000;1100;1200;1200;1300;1300;1400;1400;1500;1600;1700;1700;1800;1800;1900;1900;2000;2100;2200;2300;2300;2400;2500;2600;2700;2700;2800;2800;2900;3000;3100;3100;3200;3200;3300;3300;3400;3400;3300;3300;3200;3100;3000;2900;2800;2700;2600;2600;2500;2400;2300;2200;2100;2000;1900;1800;1700;1600;1600;1500;1500;1600;1700;1800;1900;2000;2100;2100;2200;2200;2300;2300;2400;2500;2600;2600;2700;2700"/>
<animate attributeName="visibility" dur="80.64000000000001s" keyTimes="0.0;0.0034602076;1.0" repeatCount="indefinite" values="visible;visible;visible"/> </circle>
<circle cx="3000" cy="-1900" fill="#2e6f9e" r="35"> <animate attributeName="cy" dur="80.64000000000001s" keyTimes="0.0;0.0034602076;0.0069204152;0.0103806228;0.0138408304;0.0173010381;0.0207612457;0.0242214533;0.0276816609;0.0311418685;0.0346020761;0.0380622837;0.0415224913;0.0588235294;0.062283737;0.0657439446;0.0692041522;0.0726643599;0.0761245675;0.0795847751;0.0830449827;0.0865051903;0.0899653979;0.0934256055;0.0968858131;0.1003460208;0.1038062284;0.107266436;0.1107266436;0.1557093426;0.1591695502;0.1626297578;0.1660899654;0.169550173;0.1730103806;0.1764705882;0.1799307958;0.1833910035;0.1868512111;0.1937716263;0.1972318339;0.2006920415;0.2041522491;0.2595155709;0.2629757785;0.2802768166;0.2837370242;0.2871972318;0.2941176471;0.2975778547;0.3010380623;0.3044982699;0.3079584775;0.3114186851;0.3148788927;0.3183391003;0.321799308;0.3252595156;0.3287197232;0.3321799308;0.3356401384;0.339100346;0.3425605536;0.3460207612;0.3494809689;0.3529411765;0.3564013841;0.3598615917;0.3633217993;0.3667820069;0.3702422145;0.3737024221;0.3771626298;0.3806228374;0.384083045;0.3875432526;0.3910034602;0.3944636678;0.3979238754;0.4048442907;0.4083044983;0.4117647059;0.4152249135;0.4186851211;0.4221453287;0.4256055363;0.4290657439;0.4325259516;0.4359861592;0.4498269896;0.4532871972;0.4567474048;0.508650519;0.5121107266;0.5190311419;0.5224913495;0.5328719723;0.5363321799;0.5397923875;0.5432525952;0.5467128028;0.5501730104;0.553633218;0.5570934256;0.5605536332;0.5640138408;0.5674740484;0.5709342561;0.5743944637;0.5778546713;0.5813148789;0.5847750865;0.5882352941;0.5916955017;0.5951557093;0.598615917;0.6020761246;0.6055363322;0.6089965398;0.6124567474;0.615916955;0.6193771626;0.6228373702;0.6262975779;0.6297577855;0.6332179931;0.6366782007;0.6401384083;0.6435986159;0.6470588235;0.660899654;0.6643598616;0.678200692;0.6816608997;0.6885813149;0.6920415225;0.6989619377;0.7024221453;0.7162629758;0.7197231834;0.723183391;0.7335640138;0.7370242215;0.7577854671;0.7612456747;0.7647058824;0.76816609;0.7716262976;0.7993079585;0.8027681661;0.8062283737;0.8096885813;0.8131487889;0.8200692042;0.8235294118;0.8442906574;0.8477508651;0.8512110727;0.8546712803;0.8581314879;0.8650519031;0.8685121107;0.8719723183;0.8823529412;0.8858131488;0.8892733564;0.892733564;0.8961937716;0.8996539792;0.9273356401;0.9307958478;0.9342560554;0.937716263;0.9411764706;0.9446366782;0.9480968858;0.9515570934;0.955017301;0.9584775087;1.0" repeatCount="indefinite" values="-1900;-1900;-1900;-2000;-2100;-2200;-2300;-2400;-2400;-2500;-2400;-2500;-2600;-2600;-2700;-2600;-2700;-2800;-2900;-3000;-3100;-3200;-3300;-3400;-3500;-3400;-3400;-3500;-3600;-3600;-3500;-3400;-3400;-3300;-3200;-3200;-3100;-3000;-2900;-2900;-2800;-2800;-2700;-2700;-2600;-2600;-2500;-2400;-2400;-2300;-2300;-2200;-2100;-2000;-1900;-1900;-1800;-1900;-1800;-1700;-1600;-1500;-1400;-1300;-1400;-1500;-1600;-1700;-1800;-1900;-2000;-1900;-2000;-1900;-2000;-2100;-2200;-2300;-2400;-2400;-2500;-2600;-2700;-2800;-2900;-3000;-3100;-3200;-3300;-3300;-3200;-3300;-3300;-3200;-3200;-3100;-3100;-3000;-3000;-2900;-2900;-2800;-2700;-2600;-2500;-2500;-2400;-2400;-2300;-2300;-2200;-2100;-2000;-2100;-2000;-1900;-1800;-1700;-1600;-1500;-1600;-1500;-1400;-1300;-1200;-1100;-1000;-900;-800;-700;-700;-800;-800;-900;-900;-1000;-1000;-1100;-1100;-1200;-1100;-1100;-1200;-1200;-1100;-1200;-1300;-1200;-1200;-1100;-1200;-1300;-1200;-1200;-1300;-1300;-1200;-1200;-1300;-1400;-1400;-1300;-1200;-1200;-1100;-1200;-1200;-1300;-1400;-1400;-1500;-1600;-1700;-1800;-1800;-1900;-2000;-2100;-2200;-2200"/>
<animate attributeName="cx" dur="80.64000000000001s" keyTimes="0.0;0.0034602076;0.0242214533;0.0276816609;0.0415224913;0.044982699;0.0484429066;0.0519031142;0.0553633218;0.0588235294;0.1003460208;0.1038062284;0.1107266436;0.1141868512;0.1176470588;0.1211072664;0.124567474;0.1280276817;0.1314878893;0.1349480969;0.1384083045;0.1418685121;0.1453287197;0.1487889273;0.1522491349;0.1557093426;0.1626297578;0.1660899654;0.1730103806;0.1764705882;0.1868512111;0.1903114187;0.1937716263;0.1972318339;0.2006920415;0.2041522491;0.2076124567;0.2110726644;0.214532872;0.2179930796;0.2214532872;0.2249134948;0.2283737024;0.23183391;0.2352941176;0.2387543253;0.2422145329;0.2456747405;0.2491349481;0.2525951557;0.2560553633;0.2595155709;0.2629757785;0.2664359862;0.2698961938;0.2733564014;0.276816609;0.2802768166;0.2871972318;0.2906574394;0.2941176471;0.2975778547;0.3010380623;0.3148788927;0.3183391003;0.3979238754;0.401384083;0.4048442907;0.4359861592;0.4394463668;0.4429065744;0.446366782;0.4498269896;0.4567474048;0.4602076125;0.4636678201;0.4671280277;0.4705882353;0.4740484429;0.4775086505;0.4809688581;0.4844290657;0.4878892734;0.491349481;0.4948096886;0.4982698962;0.5017301038;0.5051903114;0.508650519;0.5155709343;0.5190311419;0.5224913495;0.5259515571;0.5294117647;0.5328719723;0.5363321799;0.5397923875;0.5432525952;0.5467128028;0.5605536332;0.5640138408;0.5674740484;0.5709342561;0.5743944637;0.5778546713;0.6470588235;0.6505190311;0.6539792388;0.6574394464;0.660899654;0.6643598616;0.6678200692;0.6712802768;0.6747404844;0.678200692;0.6816608997;0.6851211073;0.6885813149;0.6920415225;0.6955017301;0.6989619377;0.7024221453;0.7058823529;0.7093425606;0.7128027682;0.7162629758;0.723183391;0.7266435986;0.7301038062;0.7335640138;0.7370242215;0.7404844291;0.7439446367;0.7474048443;0.7508650519;0.7543252595;0.7577854671;0.7716262976;0.7750865052;0.7785467128;0.7820069204;0.785467128;0.7889273356;0.7923875433;0.7958477509;0.7993079585;0.8131487889;0.8166089965;0.8200692042;0.8235294118;0.8269896194;0.830449827;0.8339100346;0.8373702422;0.8408304498;0.8442906574;0.8477508651;0.8512110727;0.8581314879;0.8615916955;0.8719723183;0.875432526;0.8788927336;0.8823529412;0.8892733564;0.892733564;0.8996539792;0.9031141869;0.9065743945;0.9100346021;0.9134948097;0.9169550173;0.9204152249;0.9238754325;0.9273356401;0.9584775087;0.9619377163;0.9653979239;0.9688581315;0.9723183391;0.9757785467;0.9792387543;0.9826989619;0.9861591696;0.9896193772;0.9930795848;0.9965397924;1.0" repeatCount="indefinite" values="3000;3000;3000;2900;2900;2800;2700;2800;2700;2600;2600;2500;2500;2400;2300;2200;2100;2000;1900;1800;1700;1600;1500;1400;1300;1200;1200;1100;1100;1000;1000;1100;1200;1200;1100;1100;1200;1300;1200;1300;1300;1400;1500;1600;1700;1800;1900;2000;2100;2200;2300;2400;2400;2500;2600;2700;2800;2900;2900;3000;3100;3100;3000;3000;3100;3100;3200;3300;3300;3400;3500;3600;3700;3700;3600;3500;3400;3300;3200;3100;3000;2900;2800;2700;2600;2500;2400;2300;2200;2200;2100;2100;2000;1900;1800;1800;1700;1700;1600;1600;1700;1700;1800;1800;1700;1700;1600;1500;1400;1300;1300;1200;1100;1000;900;900;1000;1100;1100;1200;1300;1300;1400;1500;1600;1700;1700;1800;1900;2000;2000;2100;2200;2300;2400;2500;2600;2600;2700;2800;2900;3000;3100;3200;3300;3400;3400;3300;3200;3200;3100;3000;2900;2800;2700;2600;2600;2500;2500;2400;2400;2300;2300;2200;2200;2100;2100;2000;1900;1800;1700;1600;1500;1400;1300;1300;1400;1500;1600;1600;1700;1800;1900;2000;2100;2200;2300;2300"/>
<animate attributeName="visibility" dur="80.64000000000001s" keyTimes="0.0;0.0034602076;1.0" repeatCount="indefinite" values="visible;visible;visible"/> </circle>
<circle cx="3500" cy="-3000" fill="none" r="35" stroke="#c1433c" stroke-width="10"> <animate attributeName="cy" dur="80.64000000000001s" keyTimes="0.0;0.0034602076;0.0934256055;0.0968858131;0.2837370242;0.2871972318;0.3079584775;0.3114186851;0.3425605536;0.3460207612;0.3806228374;0.384083045;0.4878892734;0.491349481;0.5743944637;0.5778546713;0.6332179931;0.6366782007;0.678200692;0.6816608997;0.7058823529;0.7093425606;0.8235294118;0.8269896194;0.9065743945;0.9100346021;0.9307958478;0.9342560554;1.0" repeatCount="indefinite" values="-3000;-3000;-3000;-1700;-1700;-1800;-1800;-1300;-1300;-1400;-1400;-3300;-3300;-1100;-1100;-2000;-2000;-2700;-2700;-2100;-2100;-700;-700;-1000;-1000;-1100;-1100;-2300;-2300"/>
<animate attributeName="cx" dur="80.64000000000001s" keyTimes="0.0;0.0034602076;0.0934256055;0.0968858131;0.2352941176;0.2387543253;0.2837370242;0.2871972318;0.3079584775;0.3114186851;0.3425605536;0.3460207612;0.3806228374;0.384083045;0.4878892734;0.491349481;0.5743944637;0.5778546713;0.6332179931;0.6366782007;0.678200692;0.6816608997;0.7058823529;0.7093425606;0.8235294118;0.8269896194;0.9065743945;0.9100346021;0.9307958478;0.9342560554;1.0" repeatCount="indefinite" values="3500;3500;3500;700;700;2100;2100;2700;2700;3200;3200;2300;2300;1100;1100;1400;1400;600;600;1200;1200;1400;1400;3400;3400;1500;1500;2100;2100;3000;3000"/>
<animate attributeName="visibility" dur="80.64000000000001s" keyTimes="0.0;0.0034602076;1.0" repeatCount="indefinite" values="visible;visible;visible"/> </circle>
<circle cx="2600" cy="-2600" fill="none" r="35" stroke="#2e6f9e" stroke-width="10"> <animate attributeName="cy" dur="80.64000000000001s" keyTimes="0.0;0.0034602076;0.0553633218;0.0588235294;0.1349480969;0.1384083045;0.1799307958;0.1833910035;0.3425605536;0.3460207612;0.4498269896;0.4532871972;0.6435986159;0.6470588235;0.6747404844;0.678200692;0.7993079585;0.8027681661;0.9273356401;0.9307958478;1.0" repeatCount="indefinite" values="-2600;-2600;-2600;-3600;-3600;-3000;-3000;-1300;-1300;-3200;-3200;-700;-700;-800;-800;-1100;-1100;-1500;-1500;-2300;-2300"/>
<animate attributeName="cx" dur="80.64000000000001s" keyTimes="0.0;0.0034602076;0.0553633218;0.0588235294;0.1349480969;0.1384083045;0.1799307958;0.1833910035;0.3425605536;0.3460207612;0.4498269896;0.4532871972;0.6435986159;0.6470588235;0.6747404844;0.678200692;0.7993079585;0.8027681661;0.9273356401;0.9307958478;1.0" repeatCount="indefinite" values="2600;2600;2600;1700;1700;1000;1000;3100;3100;3700;3700;1700;1700;900;900;3400;3400;1300;1300;2700;2700"/>
<animate attributeName="visibility" dur="80.64000000000001s" keyTimes="0.0;0.0034602076;1.0" repeatCount="indefinite" values="visible;visible;visible"/> </circle>
</svg>