<?xml version="1.0" encoding="UTF-8"?>
        <svg xmlns="http://www.w3.org/2000/svg" xmlns:xlink="http://www.w3.org/1999/xlink"
             width="430" height="430" viewBox="0 -4300 4300 4300">

<defs>

</defs>

<rect fill="#84A1AE" height="70" rx="15" width="70" x="465" y="-535" />
<rect fill="#84A1AE" height="70" rx="15" width="70" x="465" y="-635" />
<rect fill="#84A1AE" height="70" rx="15" width="70" x="465" y="-735" />
<rect fill="#84A1AE" height="70" rx="15" width="70" x="465" y="-835" />
<rect fill="#84A1AE" height="70" rx="15" width="70" x="465" y="-935" />
<rect fill="#84A1AE" height="70" rx="15" width="70" x="465" y="-1035" />
<rect fill="#84A1AE" height="70" rx="15" width="70" x="465" y="-1135" />
<rect fill="#84A1AE" height="70" rx="15" width="70" x="465" y="-1235" />
<rect fill="#84A1AE" height="70" rx="15" width="70" x="465" y="-1335" />
<rect fill="#84A1AE" height="70" rx="15" width="70" x="465" y="-1435" />
<rect fill="#84A1AE" height="70" rx="15" width="70" x="465" y="-1535" />
<rect fill="#84A1AE" height="70" rx="15" width="70" x="465" y="-1635" />
<rect fill="#84A1AE" height="70" rx="15" width="70" x="465" y="-1735" />
<rect fill="#84A1AE" height="70" rx="15" width="70" x="465" y="-1835" />
<rect fill="#84A1AE" height="70" rx="15" width="70" x="465" y="-1935" />
<rect fill="#84A1AE" height="70" rx="15" width="70" x="465" y="-2035" />
<rect fill="#84A1AE" height="70" rx="15" width="70" x="465" y="-2135" />
<rect fill="#84A1AE" height="70" rx="15" width="70" x="465" y="-2235" />
<rect fill="#84A1AE" height="70" rx="15" width="70" x="465" y="-2335" />
<rect fill="#84A1AE" height="70" rx="15" width="70" x="465" y="-2435" />
<rect fill="#84A1AE" height="70" rx="15" width="70" x="465" y="-2535" />
<rect fill="#84A1AE" height="70" rx="15" width="70" x="465" y="-2635" />
<rect fill="#84A1AE" height="70" rx="15" width="70" x="465" y="-2735" />
<rect fill="#84A1AE" height="70" rx="15" width="70" x="465" y="-2835" />
<rect fill="#84A1AE" height="70" rx="15" width="70" x="465" y="-2935" />
<rect fill="#84A1AE" height="70" rx="15" width="70" x="465" y="-3035" />
<rect fill="#84A1AE" height="70" rx="15" width="70" x="465" y="-3135" />
<rect fill="#84A1AE" height="70" rx="15" width="70" x="465" y="-3235" />
<rect fill="#84A1AE" height="70" rx="15" width="70" x="465" y="-3335" />
<rect fill="#84A1AE" height="70" rx="15" width="70" x="465" y="-3435" />
<rect fill="#84A1AE" height="70" rx="15" width="70" x="465" y="-3535" />
<rect fill="#84A1AE" height="70" rx="15" width="70" x="465" y="-3635" />
<rect fill="#84A1AE" height="70" rx="15" width="70" x="465" y="-3735" />
<rect fill="#84A1AE" height="70" rx="15" width="70" x="465" y="-3835" />
<rect fill="#84A1AE" height="70" rx="15" width="70" x="565" y="-535" />
<rect fill="#84A1AE" height="70" rx="15" width="70" x="565" y="-1635" />
<rect fill="#84A1AE" height="70" rx="15" width="70" x="565" y="-1935" />
<rect fill="#84A1AE" height="70" rx="15" width="70" x="565" y="-2735" />
<rect fill="#84A1AE" height="70" rx="15" width="70" x="565" y="-3835" />
<rect fill="#84A1AE" height="70" rx="15" width="70" x="665" y="-535" />
<rect fill="#84A1AE" height="70" rx="15" width="70" x="665" y="-1035" />
<rect fill="#84A1AE" height="70" rx="15" width="70" x="665" y="-2535" />
<rect fill="#84A1AE" height="70" rx="15" width="70" x="665" y="-3035" />
<rect fill="#84A1AE" height="70" rx="15" width="70" x="665" y="-3235" />
<rect fill="#84A1AE" height="70" rx="15" width="70" x="665" y="-3835" />
<rect fill="#84A1AE" height="70" rx="15" width="70" x="765" y="-535" />
<rect fill="#84A1AE" height="70" rx="15" width="70" x="765" y="-635" />
<rect fill="#84A1AE" height="70" rx="15" width="70" x="765" y="-3835" />
<rect fill="#84A1AE" height="70" rx="15" width="70" x="865" y="-535" />
<rect fill="#84A1AE" height="70" rx="15" width="70" x="865" y="-2435" />
<rect fill="#84A1AE" height="70" rx="15" width="70" x="865" y="-2535" />
<rect fill="#84A1AE" height="70" rx="15" width="70" x="865" y="-3335" />
<rect fill="#84A1AE" height="70" rx="15" width="70" x="865" y="-3435" />
<rect fill="#84A1AE" height="70" rx="15" width="70" x="865" y="-3835" />
<rect fill="#84A1AE" height="70" rx="15" width="70" x="965" y="-535" />
<rect fill="#84A1AE" height="70" rx="15" width="70" x="965" y="-735" />
<rect fill="#84A1AE" height="70" rx="15" width="70" x="965" y="-1635" />
<rect fill="#84A1AE" height="70" rx="15" width="70" x="965" y="-1835" />
<rect fill="#84A1AE" height="70" rx="15" width="70" x="965" y="-2835" />
<rect fill="#84A1AE" height="70" rx="15" width="70" x="965" y="-3435" />
<rect fill="#84A1AE" height="70" rx="15" width="70" x="965" y="-3835" />
<rect fill="#84A1AE" height="70" rx="15" width="70" x="1065" y="-535" />
<rect fill="#84A1AE" height="70" rx="15" width="70" x="1065" y="-1135" />
<rect fill="#84A1AE" height="70" rx="15" width="70" x="1065" y="-1835" />
<rect fill="#84A1AE" height="70" rx="15" width="70" x="1065" y="-3735" />
<rect fill="#84A1AE" height="70" rx="15" width="70" x="1065" y="-3835" />
<rect fill="#84A1AE" height="70" rx="15" width="70" x="1165" y="-535" />
<rect fill="#84A1AE" height="70" rx="15" width="70" x="1165" y="-635" />
<rect fill="#84A1AE" height="70" rx="15" width="70" x="1165" y="-735" />
<rect fill="#84A1AE" height="70" rx="15" width="70" x="1165" y="-1535" />
<rect fill="#84A1AE" height="70" rx="15" width="70" x="1165" y="-3835" />
<rect fill="#84A1AE" height="70" rx="15" width="70" x="1265" y="-535" />
<rect fill="#84A1AE" height="70" rx="15" width="70" x="1265" y="-2835" />
<rect fill="#84A1AE" height="70" rx="15" width="70" x="1265" y="-3435" />
<rect fill="#84A1AE" height="70" rx="15" width="70" x="1265" y="-3835" />
<rect fill="#84A1AE" height="70" rx="15" width="70" x="1365" y="-535" />
<rect fill="#84A1AE" height="70" rx="15" width="70" x="1365" y="-835" />
<rect fill="#84A1AE" height="70" rx="15" width="70" x="1365" y="-935" />
<rect fill="#84A1AE" height="70" rx="15" width="70" x="1365" y="-1035" />
<rect fill="#84A1AE" height="70" rx="15" width="70" x="1365" y="-1935" />
<rect fill="#84A1AE" height="70" rx="15" width="70" x="1365" y="-2335" />
<rect fill="#84A1AE" height="70" rx="15" width="70" x="1365" y="-2635" />
<rect fill="#84A1AE" height="70" rx="15" width="70" x="1365" y="-2835" />
<rect fill="#84A1AE" height="70" rx="15" width="70" x="1365" y="-2935" />
<rect fill="#84A1AE" height="70" rx="15" width="70" x="1365" y="-3035" />
<rect fill="#84A1AE" height="70" rx="15" width="70" x="1365" y="-3335" />
<rect fill="#84A1AE" height="70" rx="15" width="70" x="1365" y="-3835" />
<rect fill="#84A1AE" height="70" rx="15" width="70" x="1465" y="-535" />
<rect fill="#84A1AE" height="70" rx="15" width="70" x="1465" y="-1235" />
<rect fill="#84A1AE" height="70" rx="15" width="70" x="1465" y="-1535" />
<rect fill="#84A1AE" height="70" rx="15" width="70" x="1465" y="-2035" />
<rect fill="#84A1AE" height="70" rx="15" width="70" x="1465" y="-3135" />
<rect fill="#84A1AE" height="70" rx="15" width="70" x="1465" y="-3235" />
<rect fill="#84A1AE" height="70" rx="15" width="70" x="1465" y="-3835" />
<rect fill="#84A1AE" height="70" rx="15" width="70" x="1565" y="-535" />
<rect fill="#84A1AE" height="70" rx="15" width="70" x="1565" y="-3035" />
<rect fill="#84A1AE" height="70" rx="15" width="70" x="1565" y="-3835" />
<rect fill="#84A1AE" height="70" rx="15" width="70" x="1665" y="-535" />
<rect fill="#84A1AE" height="70" rx="15" width="70" x="1665" y="-3735" />
<rect fill="#84A1AE" height="70" rx="15" width="70" x="1665" y="-3835" />
<rect fill="#84A1AE" height="70" rx="15" width="70" x="1765" y="-535" />
<rect fill="#84A1AE" height="70" rx="15" width="70" x="1765" y="-1235" />
<rect fill="#84A1AE" height="70" rx="15" width="70" x="1765" y="-3835" />
<rect fill="#84A1AE" height="70" rx="15" width="70" x="1865" y="-535" />
<rect fill="#84A1AE" height="70" rx="15" width="70" x="1865" y="-735" />
<rect fill="#84A1AE" height="70" rx="15" width="70" x="1865" y="-1335" />
<rect fill="#84A1AE" height="70" rx="15" width="70" x="1865" y="-3235" />
<rect fill="#84A1AE" height="70" rx="15" width="70" x="1865" y="-3435" />
<rect fill="#84A1AE" height="70" rx="15" width="70" x="1865" y="-3835" />
<rect fill="#84A1AE" height="70" rx="15" width="70" x="1965" y="-535" />
<rect fill="#84A1AE" height="70" rx="15" width="70" x="1965" y="-635" />
<rect fill="#84A1AE" height="70" rx="15" width="70" x="1965" y="-1835" />
<rect fill="#84A1AE" height="70" rx="15" width="70" x="1965" y="-1935" />
<rect fill="#84A1AE" height="70" rx="15" width="70" x="1965" y="-2135" />
<rect fill="#84A1AE" height="70" rx="15" width="70" x="1965" y="-2335" />
<rect fill="#84A1AE" height="70" rx="15" width="70" x="1965" y="-2435" />
<rect fill="#84A1AE" height="70" rx="15" width="70" x="1965" y="-3335" />
<rect fill="#84A1AE" height="70" rx="15" width="70" x="1965" y="-3835" />
<rect fill="#84A1AE" height="70" rx="15" width="70" x="2065" y="-535" />
<rect fill="#84A1AE" height="70" rx="15" width="70" x="2065" y="-1535" />
<rect fill="#84A1AE" height="70" rx="15" width="70" x="2065" y="-1635" />
<rect fill="#84A1AE" height="70" rx="15" width="70" x="2065" y="-2135" />
<rect fill="#84A1AE" height="70" rx="15" width="70" x="2065" y="-3835" />
<rect fill="#84A1AE" height="70" rx="15" width="70" x="2165" y="-535" />
<rect fill="#84A1AE" height="70" rx="15" width="70" x="2165" y="-935" />
<rect fill="#84A1AE" height="70" rx="15" width="70" x="2165" y="-1335" />
<rect fill="#84A1AE" height="70" rx="15" width="70" x="2165" y="-1835" />
<rect fill="#84A1AE" height="70" rx="15" width="70" x="2165" y="-3835" />
<rect fill="#84A1AE" height="70" rx="15" width="70" x="2265" y="-535" />
<rect fill="#84A1AE" height="70" rx="15" width="70" x="2265" y="-935" />
<rect fill="#84A1AE" height="70" rx="15" width="70" x="2265" y="-1135" />
<rect fill="#84A1AE" height="70" rx="15" width="70" x="2265" y="-2535" />
<rect fill="#84A1AE" height="70" rx="15" width="70" x="2265" y="-3235" />
<rect fill="#84A1AE" height="70" rx="15" width="70" x="2265" y="-3835" />
<rect fill="#84A1AE" height="70" rx="15" width="70" x="2365" y="-535" />
<rect fill="#84A1AE" height="70" rx="15" width="70" x="2365" y="-935" />
<rect fill="#84A1AE" height="70" rx="15" width="70" x="2365" y="-1035" />
<rect fill="#84A1AE" height="70" rx="15" width="70" x="2365" y="-3835" />
<rect fill="#84A1AE" height="70" rx="15" width="70" x="2465" y="-535" />
<rect fill="#84A1AE" height="70" rx="15" width="70" x="2465" y="-935" />
<rect fill="#84A1AE" height="70" rx="15" width="70" x="2465" y="-1535" />
<rect fill="#84A1AE" height="70" rx="15" width="70" x="2465" y="-2335" />
<rect fill="#84A1AE" height="70" rx="15" width="70" x="2465" y="-2735" />
<rect fill="#84A1AE" height="70" rx="15" width="70" x="2465" y="-3835" />
<rect fill="#84A1AE" height="70" rx="15" width="70" x="2565" y="-535" />
<rect fill="#84A1AE" height="70" rx="15" width="70" x="2565" y="-735" />
<rect fill="#84A1AE" height="70" rx="15" width="70" x="2565" y="-2535" />
<rect fill="#84A1AE" height="70" rx="15" width="70" x="2565" y="-3835" />
<rect fill="#84A1AE" height="70" rx="15" width="70" x="2665" y="-535" />
<rect fill="#84A1AE" height="70" rx="15" width="70" x="2665" y="-635" />
<rect fill="#84A1AE" height="70" rx="15" width="70" x="2665" y="-1135" />
<rect fill="#84A1AE" height="70" rx="15" width="70" x="2665" y="-1435" />
<rect fill="#84A1AE" height="70" rx="15" width="70" x="2665" y="-2735" />
<rect fill="#84A1AE" height="70" rx="15" width="70" x="2665" y="-3835" />
<rect fill="#84A1AE" height="70" rx="15" width="70" x="2765" y="-535" />
<rect fill="#84A1AE" height="70" rx="15" width="70" x="2765" y="-1635" />
<rect fill="#84A1AE" height="70" rx="15" width="70" x="2765" y="-1835" />
<rect fill="#84A1AE" height="70" rx="15" width="70" x="2765" y="-1935" />
<rect fill="#84A1AE" height="70" rx="15" width="70" x="2765" y="-2235" />
<rect fill="#84A1AE" height="70" rx="15" width="70" x="2765" y="-3735" />
<rect fill="#84A1AE" height="70" rx="15" width="70" x="2765" y="-3835" />
<rect fill="#84A1AE" height="70" rx="15" width="70" x="2865" y="-535" />
<rect fill="#84A1AE" height="70" rx="15" width="70" x="2865" y="-3835" />
<rect fill="#84A1AE" height="70" rx="15" width="70" x="2965" y="-535" />
<rect fill="#84A1AE" height="70" rx="15" width="70" x="2965" y="-2635" />
<rect fill="#84A1AE" height="70" rx="15" width="70" x="2965" y="-3835" />
<rect fill="#84A1AE" height="70" rx="15" width="70" x="3065" y="-535" />
<rect fill="#84A1AE" height="70" rx="15" width="70" x="3065" y="-735" />
<rect fill="#84A1AE" height="70" rx="15" width="70" x="3065" y="-2535" />
<rect fill="#84A1AE" height="70" rx="15" width="70" x="3065" y="-3835" />
<rect fill="#84A1AE" height="70" rx="15" width="70" x="3165" y="-535" />
<rect fill="#84A1AE" height="70" rx="15" width="70" x="3165" y="-835" />
<rect fill="#84A1AE" height="70" rx="15" width="70" x="3165" y="-1935" />
<rect fill="#84A1AE" height="70" rx="15" width="70" x="3165" y="-2735" />
<rect fill="#84A1AE" height="70" rx="15" width="70" x="3165" y="-3135" />
<rect fill="#84A1AE" height="70" rx="15" width="70" x="3165" y="-3835" />
<rect fill="#84A1AE" height="70" rx="15" width="70" x="3265" y="-535" />
<rect fill="#84A1AE" height="70" rx="15" width="70" x="3265" y="-1035" />
<rect fill="#84A1AE" height="70" rx="15" width="70" x="3265" y="-1735" />
<rect fill="#84A1AE" height="70" rx="15" width="70" x="3265" y="-3835" />
<rect fill="#84A1AE" height="70" rx="15" width="70" x="3365" y="-535" />
<rect fill="#84A1AE" height="70" rx="15" width="70" x="3365" y="-1435" />
<rect fill="#84A1AE" height="70" rx="15" width="70" x="3365" y="-1935" />
<rect fill="#84A1AE" height="70" rx="15" width="70" x="3365" y="-2135" />
<rect fill="#84A1AE" height="70" rx="15" width="70" x="3365" y="-3835" />
<rect fill="#84A1AE" height="70" rx="15" width="70" x="3465" y="-535" />
<rect fill="#84A1AE" height="70" rx="15" width="70" x="3465" y="-2635" />
<rect fill="#84A1AE" height="70" rx="15" width="70" x="3465" y="-3835" />
<rect fill="#84A1AE" height="70" rx="15" width="70" x="3565" y="-535" />
<rect fill="#84A1AE" height="70" rx="15" width="70" x="3565" y="-635" />
<rect fill="#84A1AE" height="70" rx="15" width="70" x="3565" y="-2435" />
<rect fill="#84A1AE" height="70" rx="15" width="70" x="3565" y="-3235" />
<rect fill="#84A1AE" height="70" rx="15" width="70" x="3565" y="-3835" />
<rect fill="#84A1AE" height="70" rx="15" width="70" x="3665" y="-535" />
<rect fill="#84A1AE" height="70" rx="15" width="70" x="3665" y="-2135" />
<rect fill="#84A1AE" height="70" rx="15" width="70" x="3665" y="-2835" />
<rect fill="#84A1AE" height="70" rx="15" width="70" x="3665" y="-3135" />
<rect fill="#84A1AE" height="70" rx="15" width="70" x="3665" y="-3735" />
<rect fill="#84A1AE" height="70" rx="15" width="70" x="3665" y="-3835" />
<rect fill="#84A1AE" height="70" rx="15" width="70" x="3765" y="-535" />
<rect fill="#84A1AE" height="70" rx="15" width="70" x="3765" y="-635" />
<rect fill="#84A1AE" height="70" rx="15" width="70" x="3765" y="-735" />
<rect fill="#84A1AE" height="70" rx="15" width="70" x="3765" y="-835" />
<rect fill="#84A1AE" height="70" rx="15" width="70" x="3765" y="-935" />
<rect fill="#84A1AE" height="70" rx="15" width="70" x="3765" y="-1035" />
<rect fill="#84A1AE" height="70" rx="15" width="70" x="3765" y="-1135" />
<rect fill="#84A1AE" height="70" rx="15" width="70" x="3765" y="-1235" />
<rect fill="#84A1AE" height="70" rx="15" width="70" x="3765" y="-1335" />
<rect fill="#84A1AE" height="70" rx="15" width="70" x="3765" y="-1435" />
<rect fill="#84A1AE" height="70" rx="15" width="70" x="3765" y="-1535" />
<rect fill="#84A1AE" height="70" rx="15" width="70" x="3765" y="-1635" />
<rect fill="#84A1AE" height="70" rx="15" width="70" x="3765" y="-1735" />
<rect fill="#84A1AE" height="70" rx="15" width="70" x="3765" y="-1835" />
<rect fill="#84A1AE" height="70" rx="15" width="70" x="3765" y="-1935" />
<rect fill="#84A1AE" height="70" rx="15" width="70" x="3765" y="-2035" />
<rect fill="#84A1AE" height="70" rx="15" width="70" x="3765" y="-2135" />
<rect fill="#84A1AE" height="70" rx="15" width="70" x="3765" y="-2235" />
<rect fill="#84A1AE" height="70" rx="15" width="70" x="3765" y="-2335" />
<rect fill="#84A1AE" height="70" rx="15" width="70" x="3765" y="-2435" />
<rect fill="#84A1AE" height="70" rx="15" width="70" x="3765" y="-2535" />
<rect fill="#84A1AE" height="70" rx="15" width="70" x="3765" y="-2635" />
<rect fill="#84A1AE" height="70" rx="15" width="70" x="3765" y="-2735" />
<rect fill="#84A1AE" height="70" rx="15" width="70" x="3765" y="-2835" />
<rect fill="#84A1AE" height="70" rx="15" width="70" x="3765" y="-2935" />
<rect fill="#84A1AE" height="70" rx="15" width="70" x="3765" y="-3035" />
<rect fill="#84A1AE" height="70" rx="15" width="70" x="3765" y="-3135" />
<rect fill="#84A1AE" height="70" rx="15" width="70" x="3765" y="-3235" />
<rect fill="#84A1AE" height="70" rx="15" width="70" x="3765" y="-3335" />
<rect fill="#84A1AE" height="70" rx="15" width="70" x="3765" y="-3435" />
<rect fill="#84A1AE" height="70" rx="15" width="70" x="3765" y="-3535" />
<rect fill="#84A1AE" height="70" rx="15" width="70" x="3765" y="-3635" />
<rect fill="#84A1AE" height="70" rx="15" width="70" x="3765" y="-3735" />
<rect fill="#84A1AE" height="70" rx="15" width="70" x="3765" y="-3835" />
<circle cx="2500" cy="-1400" fill="#c1433c" r="35"> <animate attributeName="cy" dur="112.28000000000002s" keyTimes="0.0;0.0024875622;0.0049751244;0.0074626866;0.0099502488;0.0124378109;0.0149253731;0.0174129353;0.0199004975;0.0223880597;0.0248756219;0.0273631841;0.0298507463;0.0323383085;0.0348258706;0.0373134328;0.0447761194;0.0472636816;0.0497512438;0.052238806;0.0547263682;0.1218905473;0.1243781095;0.1293532338;0.131840796;0.1343283582;0.1368159204;0.1393034826;0.1417910448;0.144278607;0.1467661692;0.1492537313;0.1517412935;0.1542288557;0.1567164179;0.1592039801;0.1616915423;0.1641791045;0.1666666667;0.1691542289;0.171641791;0.1741293532;0.1766169154;0.1791044776;0.1815920398;0.184079602;0.1865671642;0.1890547264;0.1915422886;0.1940298507;0.1965174129;0.1990049751;0.2014925373;0.2039800995;0.2064676617;0.2089552239;0.2114427861;0.2139303483;0.2164179104;0.2189054726;0.2213930348;0.223880597;0.2661691542;0.2686567164;0.2736318408;0.276119403;0.2786069652;0.2810945274;0.2835820896;0.2860696517;0.2885572139;0.2910447761;0.2935323383;0.2960199005;0.2985074627;0.3009950249;0.3034825871;0.3059701493;0.3084577114;0.3109452736;0.3134328358;0.315920398;0.3184079602;0.3208955224;0.3233830846;0.3258706468;0.328358209;0.3358208955;0.3383084577;0.3407960199;0.3432835821;0.3457711443;0.3482587065;0.3507462687;0.3532338308;0.355721393;0.3582089552;0.4029850746;0.4054726368;0.4154228856;0.4179104478;0.42039801;0.4228855721;0.4278606965;0.4303482587;0.4328358209;0.4353233831;0.4427860697;0.4452736318;0.447761194;0.4502487562;0.4527363184;0.4552238806;0.4651741294;0.4676616915;0.4701492537;0.4726368159;0.5024875622;0.5049751244;0.5074626866;0.5099502488;0.5124378109;0.5149253731;0.5174129353;0.5199004975;0.5223880597;0.5248756219;0.5273631841;0.5298507463;0.5323383085;0.5348258706;0.5373134328;0.539800995;0.5422885572;0.5447761194;0.5472636816;0.5497512438;0.552238806;0.5547263682;0.5572139303;0.5621890547;0.5646766169;0.5671641791;0.5696517413;0.5721393035;0.5746268657;0.5771144279;0.57960199;0.5820895522;0.5845771144;0.5870646766;0.5895522388;0.592039801;0.5945273632;0.5970149254;0.5995024876;0.6019900498;0.6044776119;0.6069651741;0.6094527363;0.6119402985;0.6144278607;0.6169154229;0.6194029851;0.6218905473;0.6243781095;0.6268656716;0.6293532338;0.631840796;0.6343283582;0.6542288557;0.6567164179;0.6592039801;0.6915422886;0.6940298507;0.6965174129;0.7164179104;0.7189054726;0.7213930348;0.723880597;0.7263681592;0.7288557214;0.736318408;0.7388059701;0.7462686567;0.7487562189;0.7512437811;0.7537313433;0.7562189055;0.7587064677;0.7736318408;0.776119403;0.7835820896;0.7860696517;0.7885572139;0.7910447761;0.7935323383;0.7960199005;0.7985074627;0.8009950249;0.8034825871;0.8059701493;0.8084577114;0.8109452736;0.8134328358;0.815920398;0.8184079602;0.8208955224;0.8233830846;0.828358209;0.8308457711;0.8358208955;0.8383084577;0.8407960199;0.8432835821;0.8731343284;0.8756218905;0.8805970149;0.8830845771;0.8880597015;0.8905472637;0.8930348259;0.8955223881;0.8980099502;0.9004975124;0.9029850746;0.9054726368;0.907960199;0.9104477612;0.9129353234;0.9154228856;0.9179104478;0.92039801;0.9228855721;0.9253731343;0.9278606965;0.9303482587;0.9328358209;0.9353233831;0.9378109453;0.9402985075;0.9427860697;0.9452736318;0.947761194;0.9502487562;0.9527363184;0.9552238806;0.9577114428;0.960199005;0.9626865672;0.9651741294;0.9800995025;0.9825870647;0.9850746269;0.9875621891;0.9925373134;0.9950248756;0.9975124378;1.0" repeatCount="indefinite" values="-1400;-1400;-1400;-1500;-1600;-1700;-1800;-1900;-2000;-2100;-2200;-2300;-2400;-2400;-2500;-2600;-2600;-2700;-2800;-2900;-3000;-3000;-2900;-2900;-2800;-2700;-2600;-2500;-2400;-2300;-2200;-2200;-2100;-2000;-2000;-1900;-1800;-1700;-1600;-1500;-1400;-1300;-1300;-1200;-1300;-1400;-1500;-1600;-1700;-1800;-1800;-1900;-1900;-2000;-2100;-2200;-2300;-2400;-2500;-2600;-2700;-2800;-2800;-2700;-2700;-2600;-2500;-2400;-2300;-2200;-2100;-2000;-1900;-1800;-1900;-2000;-2100;-2200;-2300;-2300;-2400;-2500;-2600;-2700;-2800;-2900;-3000;-3000;-3100;-3100;-3200;-3300;-3400;-3400;-3500;-3500;-3600;-3600;-3500;-3500;-3400;-3400;-3300;-3300;-3200;-3100;-3000;-3000;-2900;-2900;-2800;-2800;-2700;-2700;-2600;-2500;-2400;-2400;-2300;-2200;-2100;-2000;-2000;-1900;-1800;-1700;-1700;-1600;-1500;-1400;-1300;-1200;-1100;-1100;-1000;-900;-800;-800;-700;-600;-600;-700;-800;-900;-1000;-1100;-1100;-1200;-1200;-1300;-1400;-1500;-1600;-1700;-1700;-1800;-1900;-2000;-2000;-2100;-2200;-2300;-2400;-2500;-2600;-2700;-2800;-2900;-3000;-3100;-3100;-3000;-2900;-2900;-2800;-2700;-2700;-2600;-2600;-2500;-2400;-2300;-2300;-2200;-2200;-2100;-2100;-2000;-1900;-1800;-1800;-1700;-1700;-1600;-1500;-1500;-1400;-1300;-1300;-1200;-1200;-1100;-1100;-1000;-900;-900;-800;-800;-700;-700;-600;-600;-700;-700;-800;-800;-700;-700;-800;-800;-900;-900;-1000;-1100;-1200;-1300;-1400;-1500;-1500;-1600;-1700;-1800;-1900;-2000;-2100;-2200;-2300;-2300;-2400;-2500;-2600;-2700;-2800;-2900;-3000;-3100;-3200;-3300;-3400;-3500;-3600;-3600;-3500;-3500;-3400;-3400;-3300;-3200;-3200"/>
<animate attributeName="cx" dur="112.28000000000002s" keyTimes="0.0;0.0024875622;0.0049751244;0.0298507463;0.0323383085;0.0422885572;0.0447761194;0.0547263682;0.0572139303;0.0597014925;0.0621890547;0.0646766169;0.0671641791;0.0696517413;0.0721393035;0.0746268657;0.0771144279;0.07960199;0.0820895522;0.0845771144;0.0870646766;0.0895522388;0.092039801;0.0945273632;0.0970149254;0.0995024876;0.1019900498;0.1044776119;0.1069651741;0.1094527363;0.1119402985;0.1144278607;0.1169154229;0.1194029851;0.1218905473;0.1243781095;0.1268656716;0.1293532338;0.1467661692;0.1492537313;0.1542288557;0.1567164179;0.1741293532;0.1766169154;0.1940298507;0.1965174129;0.1990049751;0.2014925373;0.223880597;0.2263681592;0.2288557214;0.2313432836;0.2338308458;0.236318408;0.2388059701;0.2412935323;0.2437810945;0.2462686567;0.2487562189;0.2512437811;0.2537313433;0.2562189055;0.2587064677;0.2611940299;0.263681592;0.2661691542;0.2686567164;0.2711442786;0.2736318408;0.3084577114;0.3109452736;0.328358209;0.3308457711;0.3333333333;0.3358208955;0.3383084577;0.3407960199;0.3482587065;0.3507462687;0.3532338308;0.355721393;0.3582089552;0.3606965174;0.3631840796;0.3656716418;0.368159204;0.3706467662;0.3731343284;0.3756218905;0.3781094527;0.3805970149;0.3830845771;0.3855721393;0.3880597015;0.3905472637;0.3930348259;0.3955223881;0.3980099502;0.4004975124;0.4029850746;0.4054726368;0.407960199;0.4104477612;0.4129353234;0.4154228856;0.4179104478;0.42039801;0.4228855721;0.4253731343;0.4278606965;0.4353233831;0.4378109453;0.4402985075;0.4427860697;0.4452736318;0.447761194;0.4502487562;0.4527363184;0.4552238806;0.4577114428;0.460199005;0.4626865672;0.4651741294;0.4726368159;0.4751243781;0.4776119403;0.4800995025;0.4825870647;0.4850746269;0.4875621891;0.4900497512;0.4925373134;0.4950248756;0.4975124378;0.5;0.5024875622;0.5124378109;0.5149253731;0.5223880597;0.5248756219;0.539800995;0.5422885572;0.5497512438;0.552238806;0.5572139303;0.5597014925;0.5621890547;0.5746268657;0.5771144279;0.57960199;0.5820895522;0.5945273632;0.5970149254;0.6044776119;0.6069651741;0.6343283582;0.6368159204;0.6393034826;0.6417910448;0.644278607;0.6467661692;0.6492537313;0.6517412935;0.6542288557;0.6592039801;0.6616915423;0.6641791045;0.6666666667;0.6691542289;0.671641791;0.6741293532;0.6766169154;0.6791044776;0.6815920398;0.684079602;0.6865671642;0.6890547264;0.6915422886;0.6965174129;0.6990049751;0.7014925373;0.7039800995;0.7064676617;0.7089552239;0.7114427861;0.7139303483;0.7164179104;0.7189054726;0.7213930348;0.7288557214;0.7313432836;0.7338308458;0.736318408;0.7388059701;0.7412935323;0.7437810945;0.7462686567;0.7487562189;0.7512437811;0.7587064677;0.7611940299;0.763681592;0.7661691542;0.7686567164;0.7711442786;0.7736318408;0.776119403;0.7786069652;0.7810945274;0.7835820896;0.7885572139;0.7910447761;0.7960199005;0.7985074627;0.8009950249;0.8034825871;0.8059701493;0.8084577114;0.8134328358;0.815920398;0.8184079602;0.8208955224;0.8233830846;0.8258706468;0.828358209;0.8308457711;0.8333333333;0.8358208955;0.8383084577;0.8407960199;0.8432835821;0.8457711443;0.8482587065;0.8507462687;0.8532338308;0.855721393;0.8582089552;0.8606965174;0.8631840796;0.8656716418;0.868159204;0.8706467662;0.8731343284;0.8756218905;0.8781094527;0.8805970149;0.8830845771;0.8855721393;0.8880597015;0.8905472637;0.8930348259;0.907960199;0.9104477612;0.9303482587;0.9328358209;0.9651741294;0.9676616915;0.9701492537;0.9726368159;0.9751243781;0.9776119403;0.9800995025;0.9825870647;0.9850746269;0.9875621891;0.9900497512;0.9925373134;1.0" repeatCount="indefinite" values="2500;2500;2600;2600;2700;2700;2600;2600;2700;2800;2900;3000;3100;3200;3300;3400;3500;3400;3300;3200;3100;3000;2900;2800;2700;2600;2500;2400;2300;2200;2100;2000;1900;1800;1700;1700;1600;1500;1500;1400;1400;1300;1300;1400;1400;1500;1500;1600;1600;1700;1800;1900;2000;2100;2200;2300;2400;2300;2200;2100;2000;1900;1800;1700;1600;1500;1500;1400;1300;1300;1200;1200;1100;1000;900;900;800;800;700;700;600;600;700;800;900;1000;1100;1200;1300;1400;1500;1600;1700;1800;1900;2000;2100;2200;2300;2400;2400;2500;2600;2700;2800;2800;2900;2900;3000;3100;3100;3200;3300;3400;3400;3500;3500;3600;3600;3700;3600;3500;3400;3400;3300;3200;3100;3000;2900;2800;2700;2600;2500;2400;2300;2200;2200;2100;2100;2000;2000;1900;1900;1800;1800;1900;1800;1800;1900;1900;2000;2000;2100;2100;2200;2200;2300;2400;2500;2600;2700;2800;2900;2800;2800;2700;2600;2500;2400;2300;2200;2100;2000;1900;1800;1700;1600;1500;1500;1400;1300;1200;1100;1000;900;800;700;700;600;600;700;800;900;900;1000;1100;1200;1200;1300;1300;1400;1500;1600;1700;1800;1900;1900;2000;2100;2200;2200;2300;2300;2400;2400;2500;2500;2600;2600;2700;2700;2800;2800;2900;3000;3000;2900;2800;2800;2700;2700;2600;2500;2400;2300;2200;2100;2000;1900;1800;1700;1600;1500;1500;1400;1300;1300;1200;1100;1100;1000;1000;900;900;800;800;900;1000;1100;1200;1300;1400;1400;1500;1500;1600;1700;1700"/>
<animate attributeName="visibility" dur="112.28000000000002s" keyTimes="0.0;0.0024875622;1.0" repeatCount="indefinite" values="visible;visible;visible"/> </circle>
<circle cx="3000" cy="-1900" fill="#2e6f9e" r="35"> <animate attributeName="cy" dur="112.28000000000002s" keyTimes="0.0;0.0024875622;0.0074626866;0.0099502488;0.0124378109;0.0149253731;0.0174129353;0.0223880597;0.0248756219;0.0273631841;0.0298507463;0.0348258706;0.0373134328;0.0945273632;0.0970149254;0.1343283582;0.1368159204;0.1393034826;0.1417910448;0.144278607;0.1467661692;0.1492537313;0.1517412935;0.1592039801;0.1616915423;0.1691542289;0.171641791;0.1741293532;0.1766169154;0.1791044776;0.1815920398;0.184079602;0.1865671642;0.1890547264;0.1915422886;0.1940298507;0.2039800995;0.2064676617;0.2089552239;0.2114427861;0.2139303483;0.2164179104;0.2189054726;0.2213930348;0.223880597;0.2263681592;0.2288557214;0.2313432836;0.236318408;0.2388059701;0.2412935323;0.2437810945;0.2462686567;0.2487562189;0.2512437811;0.2537313433;0.2562189055;0.2587064677;0.2611940299;0.263681592;0.2661691542;0.2686567164;0.2711442786;0.2736318408;0.276119403;0.2786069652;0.2860696517;0.2885572139;0.2910447761;0.2985074627;0.3009950249;0.3034825871;0.3059701493;0.3084577114;0.3109452736;0.3134328358;0.315920398;0.3184079602;0.3532338308;0.355721393;0.3582089552;0.3606965174;0.3656716418;0.368159204;0.3706467662;0.3731343284;0.3756218905;0.3781094527;0.3830845771;0.3855721393;0.3905472637;0.3930348259;0.4004975124;0.4029850746;0.4054726368;0.407960199;0.4154228856;0.4179104478;0.42039801;0.4228855721;0.4253731343;0.4303482587;0.4328358209;0.4353233831;0.4378109453;0.460199005;0.4626865672;0.4676616915;0.4701492537;0.4726368159;0.4751243781;0.4850746269;0.4875621891;0.4975124378;0.5;0.5024875622;0.5049751244;0.5074626866;0.5099502488;0.5174129353;0.5199004975;0.5373134328;0.539800995;0.5422885572;0.5447761194;0.5472636816;0.5721393035;0.5746268657;0.5771144279;0.57960199;0.5820895522;0.5845771144;0.5870646766;0.5895522388;0.592039801;0.5995024876;0.6019900498;0.6044776119;0.6069651741;0.6094527363;0.6169154229;0.6194029851;0.6218905473;0.6243781095;0.6268656716;0.6293532338;0.6343283582;0.6368159204;0.6393034826;0.6417910448;0.6666666667;0.6691542289;0.684079602;0.6865671642;0.6890547264;0.6915422886;0.6965174129;0.6990049751;0.7014925373;0.7039800995;0.7064676617;0.7089552239;0.7114427861;0.7213930348;0.723880597;0.7263681592;0.7288557214;0.7313432836;0.7338308458;0.7611940299;0.763681592;0.7711442786;0.7736318408;0.7935323383;0.7960199005;0.8084577114;0.8109452736;0.8184079602;0.8208955224;0.8233830846;0.8258706468;0.828358209;0.8308457711;0.8333333333;0.8358208955;0.8383084577;0.8606965174;0.8631840796;0.8656716418;0.868159204;0.8706467662;0.8731343284;0.8756218905;0.8781094527;0.8805970149;0.8855721393;0.8880597015;0.8905472637;0.8930348259;0.8955223881;0.8980099502;0.9004975124;0.9029850746;0.9054726368;0.9154228856;0.9179104478;0.9303482587;0.9328358209;0.9353233831;0.9378109453;0.9402985075;0.9527363184;0.9552238806;0.9577114428;0.960199005;0.9726368159;0.9751243781;0.9800995025;0.9825870647;0.9875621891;0.9900497512;0.9925373134;0.9950248756;1.0" repeatCount="indefinite" values="-1900;-1900;-1900;-2000;-2000;-2100;-2200;-2200;-2300;-2400;-2500;-2500;-2600;-2600;-2700;-2700;-2600;-2600;-2700;-2700;-2600;-2500;-2600;-2600;-2700;-2700;-2600;-2700;-2600;-2500;-2400;-2300;-2200;-2300;-2200;-2100;-2100;-2000;-2000;-1900;-1900;-2000;-1900;-1900;-2000;-2000;-2100;-2000;-2000;-1900;-1800;-1900;-2000;-1900;-1800;-1800;-1700;-1600;-1500;-1400;-1500;-1600;-1500;-1500;-1400;-1300;-1300;-1400;-1300;-1300;-1400;-1400;-1500;-1500;-1400;-1300;-1300;-1400;-1400;-1500;-1500;-1400;-1400;-1500;-1600;-1500;-1500;-1400;-1400;-1500;-1500;-1600;-1600;-1500;-1400;-1300;-1300;-1400;-1400;-1500;-1600;-1600;-1500;-1600;-1700;-1700;-1800;-1800;-1900;-1900;-1800;-1800;-1900;-1900;-2000;-2100;-2100;-2200;-2300;-2300;-2400;-2400;-2300;-2400;-2400;-2300;-2300;-2200;-2100;-2200;-2100;-2100;-2000;-2000;-2100;-2100;-2200;-2300;-2300;-2400;-2400;-2500;-2500;-2600;-2700;-2800;-2800;-2900;-3000;-3100;-3100;-3200;-3200;-3100;-3000;-3100;-3100;-3000;-2900;-2900;-3000;-3100;-3200;-3200;-3100;-3200;-3300;-3300;-3200;-3200;-3300;-3300;-3200;-3200;-3100;-3100;-3000;-3000;-2900;-2800;-2700;-2800;-2900;-2800;-2800;-2700;-2700;-2600;-2600;-2500;-2500;-2400;-2300;-2300;-2400;-2400;-2300;-2200;-2100;-2000;-1900;-1800;-1700;-1600;-1600;-1500;-1500;-1400;-1300;-1300;-1200;-1200;-1100;-1000;-900;-900;-800;-800;-900;-900;-800;-800;-900;-900"/>
<animate attributeName="cx" dur="112.28000000000002s" keyTimes="0.0;0.0024875622;0.0049751244;0.0074626866;0.0174129353;0.0199004975;0.0223880597;0.0298507463;0.0323383085;0.0348258706;0.0422885572;0.0447761194;0.0472636816;0.0497512438;0.052238806;0.0547263682;0.0572139303;0.0597014925;0.0621890547;0.0646766169;0.0671641791;0.0696517413;0.0721393035;0.0746268657;0.0771144279;0.07960199;0.0820895522;0.0845771144;0.0895522388;0.092039801;0.0945273632;0.0970149254;0.0995024876;0.1044776119;0.1069651741;0.1094527363;0.131840796;0.1343283582;0.1517412935;0.1542288557;0.1567164179;0.1592039801;0.1965174129;0.1990049751;0.2014925373;0.2039800995;0.2064676617;0.2089552239;0.2189054726;0.2213930348;0.223880597;0.2263681592;0.2313432836;0.2338308458;0.236318408;0.2512437811;0.2537313433;0.2711442786;0.2736318408;0.2786069652;0.2810945274;0.2835820896;0.2860696517;0.2910447761;0.2935323383;0.2960199005;0.3009950249;0.3034825871;0.3134328358;0.315920398;0.3184079602;0.3208955224;0.3233830846;0.3258706468;0.328358209;0.3308457711;0.3333333333;0.3358208955;0.3383084577;0.3407960199;0.3432835821;0.3457711443;0.3482587065;0.3507462687;0.355721393;0.3582089552;0.3606965174;0.3631840796;0.3656716418;0.3781094527;0.3805970149;0.3830845771;0.3855721393;0.3880597015;0.3905472637;0.3930348259;0.3955223881;0.3980099502;0.4004975124;0.4104477612;0.4129353234;0.4154228856;0.4179104478;0.42039801;0.4253731343;0.4278606965;0.4303482587;0.4378109453;0.4402985075;0.4427860697;0.4452736318;0.447761194;0.4502487562;0.4527363184;0.4552238806;0.4577114428;0.460199005;0.4626865672;0.4651741294;0.4676616915;0.4701492537;0.4726368159;0.4751243781;0.4776119403;0.4800995025;0.4825870647;0.4875621891;0.4900497512;0.4925373134;0.4950248756;0.4975124378;0.5024875622;0.5049751244;0.5124378109;0.5149253731;0.5174129353;0.5199004975;0.5223880597;0.5248756219;0.5273631841;0.5298507463;0.5323383085;0.5348258706;0.5373134328;0.5422885572;0.5447761194;0.5497512438;0.552238806;0.5547263682;0.5572139303;0.5597014925;0.5646766169;0.5671641791;0.5696517413;0.5721393035;0.5820895522;0.5845771144;0.5870646766;0.5895522388;0.592039801;0.5945273632;0.5970149254;0.5995024876;0.6044776119;0.6069651741;0.6094527363;0.6119402985;0.6144278607;0.6169154229;0.6194029851;0.6218905473;0.6293532338;0.631840796;0.6343283582;0.6417910448;0.644278607;0.6467661692;0.6492537313;0.6517412935;0.6542288557;0.6567164179;0.6592039801;0.6616915423;0.6641791045;0.6666666667;0.6691542289;0.671641791;0.6741293532;0.6766169154;0.6791044776;0.6815920398;0.684079602;0.6915422886;0.6940298507;0.6965174129;0.7014925373;0.7039800995;0.7139303483;0.7164179104;0.7189054726;0.7213930348;0.7288557214;0.7313432836;0.7338308458;0.736318408;0.7388059701;0.7412935323;0.7437810945;0.7462686567;0.7487562189;0.7512437811;0.7537313433;0.7562189055;0.7587064677;0.763681592;0.7661691542;0.7686567164;0.7711442786;0.7736318408;0.776119403;0.7786069652;0.7810945274;0.7835820896;0.7860696517;0.7885572139;0.7910447761;0.7960199005;0.7985074627;0.8009950249;0.8034825871;0.8059701493;0.8109452736;0.8134328358;0.815920398;0.8184079602;0.8333333333;0.8358208955;0.8383084577;0.8407960199;0.8457711443;0.8482587065;0.8532338308;0.855721393;0.8582089552;0.8606965174;0.8631840796;0.8656716418;0.868159204;0.8706467662;0.8830845771;0.8855721393;0.9054726368;0.907960199;0.9104477612;0.9129353234;0.9179104478;0.92039801;0.9228855721;0.9253731343;0.9278606965;0.9353233831;0.9378109453;0.9427860697;0.9452736318;0.947761194;0.9502487562;0.9527363184;0.960199005;0.9626865672;0.9651741294;0.9676616915;0.9701492537;0.9726368159;0.9751243781;0.9776119403;0.9800995025;0.9825870647;0.9850746269;0.9875621891;0.9900497512;0.9925373134;0.9950248756;0.9975124378;1.0" repeatCount="indefinite" values="3000;3000;3100;3000;3000;3100;3000;3000;2900;2800;2800;2700;2800;2700;2600;2500;2600;2500;2400;2300;2200;2100;2000;1900;1800;1700;1600;1500;1500;1600;1500;1500;1400;1400;1500;1400;1400;1300;1300;1200;1100;1000;1000;1100;1000;1100;1100;1000;1000;900;900;800;800;700;800;800;700;700;800;800;700;600;700;700;800;900;900;1000;1000;1100;1100;1200;1200;1300;1200;1300;1400;1500;1600;1700;1800;1900;2000;1900;1900;1800;1800;1900;2000;2000;2100;2200;2200;2300;2400;2400;2300;2400;2300;2300;2400;2500;2500;2400;2400;2500;2600;2600;2500;2400;2300;2200;2100;2100;2000;1900;1800;1800;1700;1600;1600;1500;1500;1400;1300;1200;1200;1100;1000;1000;900;900;1000;1000;1100;1000;1000;1100;1200;1300;1300;1400;1500;1600;1600;1500;1500;1600;1700;1800;1900;1900;1800;1700;1600;1600;1700;1700;1800;1800;1700;1600;1700;1700;1600;1600;1700;1700;1800;1800;1700;1700;1600;1700;1700;1800;1700;1800;1900;2000;2100;2200;2300;2300;2400;2400;2500;2400;2500;2600;2600;2700;2700;2800;2900;2900;3000;3000;3100;3000;3100;3100;3200;3200;3300;3200;3100;3000;3000;2900;3000;2900;2800;2700;2700;2600;2700;2800;2800;2900;2800;2700;2600;2600;2500;2400;2400;2300;2200;2100;2000;2000;1900;1800;1700;1700;1600;1600;1500;1500;1400;1400;1500;1400;1300;1300;1200;1200;1300;1300;1200;1200;1100;1200;1100;1100;1000;1000;900;1000;1000;1100;1100;1200;1100;1100;1000;1000;900;800;700;800;700;700;800;700;700;600;700;700;800;800;700;700"/>
<animate attributeName="visibility" dur="112.28000000000002s" keyTimes="0.0;0.0024875622;1.0" repeatCount="indefinite" values="visible;visible;visible"/> </circle>
<circle cx="3500" cy="-3000" fill="none" r="35" stroke="#c1433c" stroke-width="10"> <animate attributeName="cy" dur="112.28000000000002s" keyTimes="0.0;0.0024875622;0.0746268657;0.0771144279;0.1766169154;0.1791044776;0.2412935323;0.2437810945;0.2935323383;0.2960199005;0.355721393;0.3582089552;0.4552238806;0.4577114428;0.4701492537;0.4726368159;0.5572139303;0.5597014925;0.6492537313;0.6517412935;0.6567164179;0.6592039801;0.723880597;0.7263681592;0.828358209;0.8308457711;0.8930348259;0.8955223881;0.9676616915;0.9701492537;1.0" repeatCount="indefinite" values="-3000;-3000;-3000;-1200;-1200;-2800;-2800;-1800;-1800;-3600;-3600;-2700;-2700;-2400;-2400;-600;-600;-3100;-3100;-2900;-2900;-2400;-2400;-600;-600;-1000;-1000;-3600;-3600;-3000;-3000"/>
<animate attributeName="cx" dur="112.28000000000002s" keyTimes="0.0;0.0024875622;0.0746268657;0.0771144279;0.1766169154;0.1791044776;0.2412935323;0.2437810945;0.2935323383;0.2960199005;0.355721393;0.3582089552;0.4552238806;0.4577114428;0.4701492537;0.4726368159;0.5572139303;0.5597014925;0.6492537313;0.6517412935;0.6567164179;0.6592039801;0.723880597;0.7263681592;0.828358209;0.8308457711;0.9676616915;0.9701492537;1.0" repeatCount="indefinite" values="3500;3500;3500;1400;1400;2400;2400;1300;1300;600;600;3700;3700;3400;3400;1900;1900;2900;2900;2800;2800;600;600;3000;3000;1000;1000;1900;1900"/>
<animate attributeName="visibility" dur="112.28000000000002s" keyTimes="0.0;0.0024875622;1.0" repeatCount="indefinite" values="visible;visible;visible"/> </circle>
<circle cx="2600" cy="-2600" fill="none" r="35" stroke="#2e6f9e" stroke-width="10"> <animate attributeName="cy" dur="112.28000000000002s" keyTimes="0.0;0.0024875622;0.0497512438;0.052238806;0.2810945274;0.2835820896;0.4278606965;0.4303482587;0.4950248756;0.4975124378;0.5323383085;0.5348258706;0.5995024876;0.6019900498;0.7338308458;0.736318408;1.0" repeatCount="indefinite" values="-2600;-2600;-2600;-1300;-1300;-1600;-1600;-1900;-1900;-2400;-2400;-2200;-2200;-3200;-3200;-800;-800"/>
<animate attributeName="cx" dur="112.28000000000002s" keyTimes="0.0;0.0024875622;0.0497512438;0.052238806;0.2810945274;0.2835820896;0.4278606965;0.4303482587;0.4950248756;0.4975124378;0.5323383085;0.5348258706;0.5995024876;0.6019900498;0.7338308458;0.736318408;1.0" repeatCount="indefinite" values="2600;2600;2600;600;600;2600;2600;900;900;1500;1500;1700;1700;3300;3300;1000;1000"/>
<animate attributeName="visibility" dur="112.28000000000002s" keyTimes="0.0;0.0024875622;1.0" repeatCount="indefinite" values="visible;visible;visible"/> </circle>
</svg>