<?xml version="1.0" encoding="UTF-8"?>
        <svg xmlns="http://www.w3.org/2000/svg" xmlns:xlink="http://www.w3.org/1999/xlink"
             width="430" height="430" viewBox="0 -4300 4300 4300">

<defs>

</defs>

<rect fill="#84A1AE" height="70" rx="15" width="70" x="465" y="-535" />
<rect fill="#84A1AE" height="70" rx="15" width="70" x="465" y="-635" />
<rect fill="#84A1AE" height="70" rx="15" width="70" x="465" y="-735" />
<rect fill="#84A1AE" height="70" rx="15" width="70" x="465" y="-835" />
<rect fill="#84A1AE" height="70" rx="15" width="70" x="465" y="-935" />
<rect fill="#84A1AE" height="70" rx="15" width="70" x="465" y="-1035" />
<rect fill="#84A1AE" height="70" rx="15" width="70" x="465" y="-1135" />
<rect fill="#84A1AE" height="70" rx="15" width="70" x="465" y="-1235" />
<rect fill="#84A1AE" height="70" rx="15" width="70" x="465" y="-1335" />
<rect fill="#84A1AE" height="70" rx="15" width="70" x="465" y="-1435" />
<rect fill="#84A1AE" height="70" rx="15" width="70" x="465" y="-1535" />
<rect fill="#84A1AE" height="70" rx="15" width="70" x="465" y="-1635" />
<rect fill="#84A1AE" height="70" rx="15" width="70" x="465" y="-1735" />
<rect fill="#84A1AE" height="70" rx="15" width="70" x="465" y="-1835" />
<rect fill="#84A1AE" height="70" rx="15" width="70" x="465" y="-1935" />
<rect fill="#84A1AE" height="70" rx="15" width="70" x="465" y="-2035" />
<rect fill="#84A1AE" height="70" rx="15" width="70" x="465" y="-2135" />
<rect fill="#84A1AE" height="70" rx="15" width="70" x="465" y="-2235" />
<rect fill="#84A1AE" height="70" rx="15" width="70" x="465" y="-2335" />
<rect fill="#84A1AE" height="70" rx="15" width="70" x="465" y="-2435" />
<rect fill="#84A1AE" height="70" rx="15" width="70" x="465" y="-2535" />
<rect fill="#84A1AE" height="70" rx="15" width="70" x="465" y="-2635" />
<rect fill="#84A1AE" height="70" rx="15" width="70" x="465" y="-2735" />
<rect fill="#84A1AE" height="70" rx="15" width="70" x="465" y="-2835" />
<rect fill="#84A1AE" height="70" rx="15" width="70" x="465" y="-2935" />
<rect fill="#84A1AE" height="70" rx="15" width="70" x="465" y="-3035" />
<rect fill="#84A1AE" height="70" rx="15" width="70" x="465" y="-3135" />
<rect fill="#84A1AE" height="70" rx="15" width="70" x="465" y="-3235" />
<rect fill="#84A1AE" height="70" rx="15" width="70" x="465" y="-3335" />
<rect fill="#84A1AE" height="70" rx="15" width="70" x="465" y="-3435" />
<rect fill="#84A1AE" height="70" rx="15" width="70" x="465" y="-3535" />
<rect fill="#84A1AE" height="70" rx="15" width="70" x="465" y="-3635" />
<rect fill="#84A1AE" height="70" rx="15" width="70" x="465" y="-3735" />
<rect fill="#84A1AE" height="70" rx="15" width="70" x="465" y="-3835" />
<rect fill="#84A1AE" height="70" rx="15" width="70" x="565" y="-535" />
<rect fill="#84A1AE" height="70" rx="15" width="70" x="565" y="-1635" />
<rect fill="#84A1AE" height="70" rx="15" width="70" x="565" y="-1935" />
<rect fill="#84A1AE" height="70" rx="15" width="70" x="565" y="-2735" />
<rect fill="#84A1AE" height="70" rx="15" width="70" x="565" y="-3835" />
<rect fill="#84A1AE" height="70" rx="15" width="70" x="665" y="-535" />
<rect fill="#84A1AE" height="70" rx="15" width="70" x="665" y="-1035" />
<rect fill="#84A1AE" height="70" rx="15" width="70" x="665" y="-2535" />
<rect fill="#84A1AE" height="70" rx="15" width="70" x="665" y="-3035" />
<rect fill="#84A1AE" height="70" rx="15" width="70" x="665" y="-3235" />
<rect fill="#84A1AE" height="70" rx="15" width="70" x="665" y="-3835" />
<rect fill="#84A1AE" height="70" rx="15" width="70" x="765" y="-535" />
<rect fill="#84A1AE" height="70" rx="15" width="70" x="765" y="-635" />
<rect fill="#84A1AE" height="70" rx="15" width="70" x="765" y="-3835" />
<rect fill="#84A1AE" height="70" rx="15" width="70" x="865" y="-535" />
<rect fill="#84A1AE" height="70" rx="15" width="70" x="865" y="-2435" />
<rect fill="#84A1AE" height="70" rx="15" width="70" x="865" y="-2535" />
<rect fill="#84A1AE" height="70" rx="15" width="70" x="865" y="-3335" />
<rect fill="#84A1AE" height="70" rx="15" width="70" x="865" y="-3435" />
<rect fill="#84A1AE" height="70" rx="15" width="70" x="865" y="-3835" />
<rect fill="#84A1AE" height="70" rx="15" width="70" x="965" y="-535" />
<rect fill="#84A1AE" height="70" rx="15" width="70" x="965" y="-735" />
<rect fill="#84A1AE" height="70" rx="15" width="70" x="965" y="-1635" />
<rect fill="#84A1AE" height="70" rx="15" width="70" x="965" y="-1835" />
<rect fill="#84A1AE" height="70" rx="15" width="70" x="965" y="-2835" />
<rect fill="#84A1AE" height="70" rx="15" width="70" x="965" y="-3435" />
<rect fill="#84A1AE" height="70" rx="15" width="70" x="965" y="-3835" />
<rect fill="#84A1AE" height="70" rx="15" width="70" x="1065" y="-535" />
<rect fill="#84A1AE" height="70" rx="15" width="70" x="1065" y="-1135" />
<rect fill="#84A1AE" height="70" rx="15" width="70" x="1065" y="-1835" />
<rect fill="#84A1AE" height="70" rx="15" width="70" x="1065" y="-3735" />
<rect fill="#84A1AE" height="70" rx="15" width="70" x="1065" y="-3835" />
<rect fill="#84A1AE" height="70" rx="15" width="70" x="1165" y="-535" />
<rect fill="#84A1AE" height="70" rx="15" width="70" x="1165" y="-635" />
<rect fill="#84A1AE" height="70" rx="15" width="70" x="1165" y="-735" />
<rect fill="#84A1AE" height="70" rx="15" width="70" x="1165" y="-1535" />
<rect fill="#84A1AE" height="70" rx="15" width="70" x="1165" y="-3835" />
<rect fill="#84A1AE" height="70" rx="15" width="70" x="1265" y="-535" />
<rect fill="#84A1AE" height="70" rx="15" width="70" x="1265" y="-2835" />
<rect fill="#84A1AE" height="70" rx="15" width="70" x="1265" y="-3435" />
<rect fill="#84A1AE" height="70" rx="15" width="70" x="1265" y="-3835" />
<rect fill="#84A1AE" height="70" rx="15" width="70" x="1365" y="-535" />
<rect fill="#84A1AE" height="70" rx="15" width="70" x="1365" y="-835" />
<rect fill="#84A1AE" height="70" rx="15" width="70" x="1365" y="-935" />
<rect fill="#84A1AE" height="70" rx="15" width="70" x="1365" y="-1035" />
<rect fill="#84A1AE" height="70" rx="15" width="70" x="1365" y="-1935" />
<rect fill="#84A1AE" height="70" rx="15" width="70" x="1365" y="-2335" />
<rect fill="#84A1AE" height="70" rx="15" width="70" x="1365" y="-2635" />
<rect fill="#84A1AE" height="70" rx="15" width="70" x="1365" y="-2835" />
<rect fill="#84A1AE" height="70" rx="15" width="70" x="1365" y="-2935" />
<rect fill="#84A1AE" height="70" rx="15" width="70" x="1365" y="-3035" />
<rect fill="#84A1AE" height="70" rx="15" width="70" x="1365" y="-3335" />
<rect fill="#84A1AE" height="70" rx="15" width="70" x="1365" y="-3835" />
<rect fill="#84A1AE" height="70" rx="15" width="70" x="1465" y="-535" />
<rect fill="#84A1AE" height="70" rx="15" width="70" x="1465" y="-1235" />
<rect fill="#84A1AE" height="70" rx="15" width="70" x="1465" y="-1535" />
<rect fill="#84A1AE" height="70" rx="15" width="70" x="1465" y="-2035" />
<rect fill="#84A1AE" height="70" rx="15" width="70" x="1465" y="-3135" />
<rect fill="#84A1AE" height="70" rx="15" width="70" x="1465" y="-3235" />
<rect fill="#84A1AE" height="70" rx="15" width="70" x="1465" y="-3835" />
<rect fill="#84A1AE" height="70" rx="15" width="70" x="1565" y="-535" />
<rect fill="#84A1AE" height="70" rx="15" width="70" x="1565" y="-3035" />
<rect fill="#84A1AE" height="70" rx="15" width="70" x="1565" y="-3835" />
<rect fill="#84A1AE" height="70" rx="15" width="70" x="1665" y="-535" />
<rect fill="#84A1AE" height="70" rx="15" width="70" x="1665" y="-3735" />
<rect fill="#84A1AE" height="70" rx="15" width="70" x="1665" y="-3835" />
<rect fill="#84A1AE" height="70" rx="15" width="70" x="1765" y="-535" />
<rect fill="#84A1AE" height="70" rx="15" width="70" x="1765" y="-1235" />
<rect fill="#84A1AE" height="70" rx="15" width="70" x="1765" y="-3835" />
<rect fill="#84A1AE" height="70" rx="15" width="70" x="1865" y="-535" />
<rect fill="#84A1AE" height="70" rx="15" width="70" x="1865" y="-735" />
<rect fill="#84A1AE" height="70" rx="15" width="70" x="1865" y="-1335" />
<rect fill="#84A1AE" height="70" rx="15" width="70" x="1865" y="-3235" />
<rect fill="#84A1AE" height="70" rx="15" width="70" x="1865" y="-3435" />
<rect fill="#84A1AE" height="70" rx="15" width="70" x="1865" y="-3835" />
<rect fill="#84A1AE" height="70" rx="15" width="70" x="1965" y="-535" />
<rect fill="#84A1AE" height="70" rx="15" width="70" x="1965" y="-635" />
<rect fill="#84A1AE" height="70" rx="15" width="70" x="1965" y="-1835" />
<rect fill="#84A1AE" height="70" rx="15" width="70" x="1965" y="-1935" />
<rect fill="#84A1AE" height="70" rx="15" width="70" x="1965" y="-2135" />
<rect fill="#84A1AE" height="70" rx="15" width="70" x="1965" y="-2335" />
<rect fill="#84A1AE" height="70" rx="15" width="70" x="1965" y="-2435" />
<rect fill="#84A1AE" height="70" rx="15" width="70" x="1965" y="-3335" />
<rect fill="#84A1AE" height="70" rx="15" width="70" x="1965" y="-3835" />
<rect fill="#84A1AE" height="70" rx="15" width="70" x="2065" y="-535" />
<rect fill="#84A1AE" height="70" rx="15" width="70" x="2065" y="-1535" />
<rect fill="#84A1AE" height="70" rx="15" width="70" x="2065" y="-1635" />
<rect fill="#84A1AE" height="70" rx="15" width="70" x="2065" y="-2135" />
<rect fill="#84A1AE" height="70" rx="15" width="70" x="2065" y="-3835" />
<rect fill="#84A1AE" height="70" rx="15" width="70" x="2165" y="-535" />
<rect fill="#84A1AE" height="70" rx="15" width="70" x="2165" y="-935" />
<rect fill="#84A1AE" height="70" rx="15" width="70" x="2165" y="-1335" />
<rect fill="#84A1AE" height="70" rx="15" width="70" x="2165" y="-1835" />
<rect fill="#84A1AE" height="70" rx="15" width="70" x="2165" y="-3835" />
<rect fill="#84A1AE" height="70" rx="15" width="70" x="2265" y="-535" />
<rect fill="#84A1AE" height="70" rx="15" width="70" x="2265" y="-935" />
<rect fill="#84A1AE" height="70" rx="15" width="70" x="2265" y="-1135" />
<rect fill="#84A1AE" height="70" rx="15" width="70" x="2265" y="-2535" />
<rect fill="#84A1AE" height="70" rx="15" width="70" x="2265" y="-3235" />
<rect fill="#84A1AE" height="70" rx="15" width="70" x="2265" y="-3835" />
<rect fill="#84A1AE" height="70" rx="15" width="70" x="2365" y="-535" />
<rect fill="#84A1AE" height="70" rx="15" width="70" x="2365" y="-935" />
<rect fill="#84A1AE" height="70" rx="15" width="70" x="2365" y="-1035" />
<rect fill="#84A1AE" height="70" rx="15" width="70" x="2365" y="-3835" />
<rect fill="#84A1AE" height="70" rx="15" width="70" x="2465" y="-535" />
<rect fill="#84A1AE" height="70" rx="15" width="70" x="2465" y="-935" />
<rect fill="#84A1AE" height="70" rx="15" width="70" x="2465" y="-1535" />
<rect fill="#84A1AE" height="70" rx="15" width="70" x="2465" y="-2335" />
<rect fill="#84A1AE" height="70" rx="15" width="70" x="2465" y="-2735" />
<rect fill="#84A1AE" height="70" rx="15" width="70" x="2465" y="-3835" />
<rect fill="#84A1AE" height="70" rx="15" width="70" x="2565" y="-535" />
<rect fill="#84A1AE" height="70" rx="15" width="70" x="2565" y="-735" />
<rect fill="#84A1AE" height="70" rx="15" width="70" x="2565" y="-2535" />
<rect fill="#84A1AE" height="70" rx="15" width="70" x="2565" y="-3835" />
<rect fill="#84A1AE" height="70" rx="15" width="70" x="2665" y="-535" />
<rect fill="#84A1AE" height="70" rx="15" width="70" x="2665" y="-635" />
<rect fill="#84A1AE" height="70" rx="15" width="70" x="2665" y="-1135" />
<rect fill="#84A1AE" height="70" rx="15" width="70" x="2665" y="-1435" />
<rect fill="#84A1AE" height="70" rx="15" width="70" x="2665" y="-2735" />
<rect fill="#84A1AE" height="70" rx="15" width="70" x="2665" y="-3835" />
<rect fill="#84A1AE" height="70" rx="15" width="70" x="2765" y="-535" />
<rect fill="#84A1AE" height="70" rx="15" width="70" x="2765" y="-1635" />
<rect fill="#84A1AE" height="70" rx="15" width="70" x="2765" y="-1835" />
<rect fill="#84A1AE" height="70" rx="15" width="70" x="2765" y="-1935" />
<rect fill="#84A1AE" height="70" rx="15" width="70" x="2765" y="-2235" />
<rect fill="#84A1AE" height="70" rx="15" width="70" x="2765" y="-3735" />
<rect fill="#84A1AE" height="70" rx="15" width="70" x="2765" y="-3835" />
<rect fill="#84A1AE" height="70" rx="15" width="70" x="2865" y="-535" />
<rect fill="#84A1AE" height="70" rx="15" width="70" x="2865" y="-3835" />
<rect fill="#84A1AE" height="70" rx="15" width="70" x="2965" y="-535" />
<rect fill="#84A1AE" height="70" rx="15" width="70" x="2965" y="-2635" />
<rect fill="#84A1AE" height="70" rx="15" width="70" x="2965" y="-3835" />
<rect fill="#84A1AE" height="70" rx="15" width="70" x="3065" y="-535" />
<rect fill="#84A1AE" height="70" rx="15" width="70" x="3065" y="-735" />
<rect fill="#84A1AE" height="70" rx="15" width="70" x="3065" y="-2535" />
<rect fill="#84A1AE" height="70" rx="15" width="70" x="3065" y="-3835" />
<rect fill="#84A1AE" height="70" rx="15" width="70" x="3165" y="-535" />
<rect fill="#84A1AE" height="70" rx="15" width="70" x="3165" y="-835" />
<rect fill="#84A1AE" height="70" rx="15" width="70" x="3165" y="-1935" />
<rect fill="#84A1AE" height="70" rx="15" width="70" x="3165" y="-2735" />
<rect fill="#84A1AE" height="70" rx="15" width="70" x="3165" y="-3135" />
<rect fill="#84A1AE" height="70" rx="15" width="70" x="3165" y="-3835" />
<rect fill="#84A1AE" height="70" rx="15" width="70" x="3265" y="-535" />
<rect fill="#84A1AE" height="70" rx="15" width="70" x="3265" y="-1035" />
<rect fill="#84A1AE" height="70" rx="15" width="70" x="3265" y="-1735" />
<rect fill="#84A1AE" height="70" rx="15" width="70" x="3265" y="-3835" />
<rect fill="#84A1AE" height="70" rx="15" width="70" x="3365" y="-535" />
<rect fill="#84A1AE" height="70" rx="15" width="70" x="3365" y="-1435" />
<rect fill="#84A1AE" height="70" rx="15" width="70" x="3365" y="-1935" />
<rect fill="#84A1AE" height="70" rx="15" width="70" x="3365" y="-2135" />
<rect fill="#84A1AE" height="70" rx="15" width="70" x="3365" y="-3835" />
<rect fill="#84A1AE" height="70" rx="15" width="70" x="3465" y="-535" />
<rect fill="#84A1AE" height="70" rx="15" width="70" x="3465" y="-2635" />
<rect fill="#84A1AE" height="70" rx="15" width="70" x="3465" y="-3835" />
<rect fill="#84A1AE" height="70" rx="15" width="70" x="3565" y="-535" />
<rect fill="#84A1AE" height="70" rx="15" width="70" x="3565" y="-635" />
<rect fill="#84A1AE" height="70" rx="15" width="70" x="3565" y="-2435" />
<rect fill="#84A1AE" height="70" rx="15" width="70" x="3565" y="-3235" />
<rect fill="#84A1AE" height="70" rx="15" width="70" x="3565" y="-3835" />
<rect fill="#84A1AE" height="70" rx="15" width="70" x="3665" y="-535" />
<rect fill="#84A1AE" height="70" rx="15" width="70" x="3665" y="-2135" />
<rect fill="#84A1AE" height="70" rx="15" width="70" x="3665" y="-2835" />
<rect fill="#84A1AE" height="70" rx="15" width="70" x="3665" y="-3135" />
<rect fill="#84A1AE" height="70" rx="15" width="70" x="3665" y="-3735" />
<rect fill="#84A1AE" height="70" rx="15" width="70" x="3665" y="-3835" />
<rect fill="#84A1AE" height="70" rx="15" width="70" x="3765" y="-535" />
<rect fill="#84A1AE" height="70" rx="15" width="70" x="3765" y="-635" />
<rect fill="#84A1AE" height="70" rx="15" width="70" x="3765" y="-735" />
<rect fill="#84A1AE" height="70" rx="15" width="70" x="3765" y="-835" />
<rect fill="#84A1AE" height="70" rx="15" width="70" x="3765" y="-935" />
<rect fill="#84A1AE" height="70" rx="15" width="70" x="3765" y="-1035" />
<rect fill="#84A1AE" height="70" rx="15" width="70" x="3765" y="-1135" />
<rect fill="#84A1AE" height="70" rx="15" width="70" x="3765" y="-1235" />
<rect fill="#84A1AE" height="70" rx="15" width="70" x="3765" y="-1335" />
<rect fill="#84A1AE" height="70" rx="15" width="70" x="3765" y="-1435" />
<rect fill="#84A1AE" height="70" rx="15" width="70" x="3765" y="-1535" />
<rect fill="#84A1AE" height="70" rx="15" width="70" x="3765" y="-1635" />
<rect fill="#84A1AE" height="70" rx="15" width="70" x="3765" y="-1735" />
<rect fill="#84A1AE" height="70" rx="15" width="70" x="3765" y="-1835" />
<rect fill="#84A1AE" height="70" rx="15" width="70" x="3765" y="-1935" />
<rect fill="#84A1AE" height="70" rx="15" width="70" x="3765" y="-2035" />
<rect fill="#84A1AE" height="70" rx="15" width="70" x="3765" y="-2135" />
<rect fill="#84A1AE" height="70" rx="15" width="70" x="3765" y="-2235" />
<rect fill="#84A1AE" height="70" rx="15" width="70" x="3765" y="-2335" />
<rect fill="#84A1AE" height="70" rx="15" width="70" x="3765" y="-2435" />
<rect fill="#84A1AE" height="70" rx="15" width="70" x="3765" y="-2535" />
<rect fill="#84A1AE" height="70" rx="15" width="70" x="3765" y="-2635" />
<rect fill="#84A1AE" height="70" rx="15" width="70" x="3765" y="-2735" />
<rect fill="#84A1AE" height="70" rx="15" width="70" x="3765" y="-2835" />
<rect fill="#84A1AE" height="70" rx="15" width="70" x="3765" y="-2935" />
<rect fill="#84A1AE" height="70" rx="15" width="70" x="3765" y="-3035" />
<rect fill="#84A1AE" height="70" rx="15" width="70" x="3765" y="-3135" />
<rect fill="#84A1AE" height="70" rx="15" width="70" x="3765" y="-3235" />
<rect fill="#84A1AE" height="70" rx="15" width="70" x="3765" y="-3335" />
<rect fill="#84A1AE" height="70" rx="15" width="70" x="3765" y="-3435" />
<rect fill="#84A1AE" height="70" rx="15" width="70" x="3765" y="-3535" />
<rect fill="#84A1AE" height="70" rx="15" width="70" x="3765" y="-3635" />
<rect fill="#84A1AE" height="70" rx="15" width="70" x="3765" y="-3735" />
<rect fill="#84A1AE" height="70" rx="15" width="70" x="3765" y="-3835" />
<circle cx="2500" cy="-1400" fill="#c1433c" r="35"> <animate attributeName="cy" dur="106.68s" keyTimes="0.0;0.002617801;0.0052356021;0.0078534031;0.0104712042;0.0130890052;0.0157068063;0.0183246073;0.0209424084;0.0235602094;0.0287958115;0.0314136126;0.0340314136;0.0366492147;0.0392670157;0.0418848168;0.0445026178;0.0471204188;0.0497382199;0.057591623;0.0602094241;0.0628272251;0.0706806283;0.0732984293;0.0759162304;0.0968586387;0.0994764398;0.1047120419;0.1073298429;0.109947644;0.112565445;0.1282722513;0.1308900524;0.1335078534;0.1361256545;0.1387434555;0.1439790576;0.1465968586;0.1492146597;0.1518324607;0.1544502618;0.1570680628;0.1596858639;0.1623036649;0.164921466;0.167539267;0.1727748691;0.1753926702;0.1806282723;0.1832460733;0.1858638743;0.1884816754;0.1910994764;0.1937172775;0.1963350785;0.1989528796;0.2015706806;0.2041884817;0.2068062827;0.2094240838;0.2120418848;0.2146596859;0.2172774869;0.219895288;0.222513089;0.2277486911;0.2303664921;0.2356020942;0.2382198953;0.2539267016;0.2565445026;0.2591623037;0.2670157068;0.2696335079;0.2748691099;0.277486911;0.2853403141;0.2879581152;0.2905759162;0.2931937173;0.2958115183;0.3036649215;0.3062827225;0.3089005236;0.3115183246;0.3141361257;0.3167539267;0.3193717277;0.3219895288;0.3272251309;0.3298429319;0.332460733;0.335078534;0.3376963351;0.3403141361;0.3429319372;0.3455497382;0.3481675393;0.3534031414;0.3560209424;0.3612565445;0.3638743455;0.3664921466;0.387434555;0.390052356;0.3926701571;0.4005235602;0.4031413613;0.4057591623;0.4162303665;0.4188481675;0.4214659686;0.4240837696;0.4267015707;0.4293193717;0.4319371728;0.4345549738;0.4371727749;0.4397905759;0.4476439791;0.4502617801;0.4581151832;0.4607329843;0.4633507853;0.4659685864;0.4685863874;0.4869109948;0.4895287958;0.4921465969;0.4947643979;0.497382199;0.5;0.502617801;0.5078534031;0.5104712042;0.5130890052;0.5157068063;0.5209424084;0.5235602094;0.5261780105;0.5287958115;0.5366492147;0.5392670157;0.5418848168;0.5445026178;0.5471204188;0.5497382199;0.5523560209;0.5732984293;0.5759162304;0.5811518325;0.5837696335;0.5916230366;0.5942408377;0.6073298429;0.609947644;0.612565445;0.6178010471;0.6204188482;0.6230366492;0.6256544503;0.6282722513;0.6361256545;0.6387434555;0.6413612565;0.6439790576;0.6465968586;0.6492146597;0.6518324607;0.6544502618;0.6570680628;0.6596858639;0.6623036649;0.664921466;0.6701570681;0.6727748691;0.6753926702;0.6780104712;0.6806282723;0.6832460733;0.6858638743;0.6884816754;0.6910994764;0.6937172775;0.6963350785;0.6989528796;0.7015706806;0.7041884817;0.7068062827;0.7094240838;0.7251308901;0.7277486911;0.7303664921;0.7329842932;0.7356020942;0.7382198953;0.7408376963;0.7434554974;0.7460732984;0.7486910995;0.7513089005;0.7539267016;0.7565445026;0.7591623037;0.7617801047;0.7643979058;0.7696335079;0.7722513089;0.7748691099;0.7853403141;0.7879581152;0.7905759162;0.7931937173;0.7958115183;0.7984293194;0.8010471204;0.8036649215;0.8062827225;0.8141361257;0.8167539267;0.8507853403;0.8534031414;0.8560209424;0.8586387435;0.8612565445;0.8664921466;0.8691099476;0.8717277487;0.8848167539;0.887434555;0.8926701571;0.8952879581;0.9031413613;0.9057591623;0.9083769634;0.9162303665;0.9188481675;0.9214659686;0.9240837696;0.9293193717;0.9319371728;0.9345549738;0.9371727749;0.942408377;0.945026178;0.9528795812;0.9554973822;0.9581151832;0.9607329843;0.9633507853;0.9659685864;0.9685863874;0.9712041885;0.9738219895;0.9764397906;0.9790575916;0.9816753927;0.9842931937;0.9869109948;0.9895287958;0.9921465969;0.9947643979;0.997382199;1.0" repeatCount="indefinite" values="-1400;-1400;-1400;-1500;-1600;-1700;-1700;-1800;-1900;-2000;-2000;-2100;-2200;-2300;-2300;-2400;-2500;-2500;-2600;-2600;-2700;-2800;-2800;-2900;-3000;-3000;-2900;-2900;-3000;-3100;-3200;-3200;-3100;-3000;-3000;-3100;-3100;-3200;-3200;-3100;-3100;-3200;-3200;-3100;-3100;-3000;-3000;-2900;-2900;-2800;-2800;-2900;-3000;-3100;-3200;-3300;-3400;-3400;-3500;-3500;-3600;-3700;-3700;-3600;-3500;-3500;-3400;-3400;-3300;-3300;-3400;-3500;-3500;-3600;-3600;-3700;-3700;-3600;-3700;-3700;-3600;-3600;-3500;-3500;-3400;-3500;-3500;-3600;-3700;-3700;-3600;-3500;-3400;-3500;-3600;-3700;-3700;-3600;-3600;-3700;-3700;-3600;-3700;-3700;-3600;-3700;-3700;-3600;-3700;-3700;-3600;-3600;-3500;-3400;-3500;-3500;-3600;-3500;-3600;-3600;-3700;-3700;-3600;-3600;-3500;-3400;-3400;-3500;-3400;-3500;-3500;-3600;-3700;-3700;-3600;-3600;-3500;-3500;-3600;-3600;-3700;-3700;-3600;-3500;-3400;-3300;-3300;-3400;-3400;-3500;-3500;-3600;-3600;-3700;-3700;-3600;-3500;-3500;-3400;-3500;-3500;-3600;-3600;-3500;-3500;-3400;-3400;-3500;-3400;-3500;-3600;-3700;-3700;-3600;-3600;-3500;-3600;-3600;-3500;-3500;-3600;-3700;-3600;-3500;-3500;-3400;-3500;-3600;-3500;-3600;-3600;-3500;-3500;-3600;-3500;-3400;-3400;-3300;-3300;-3200;-3100;-3000;-3000;-3100;-3200;-3300;-3300;-3400;-3300;-3300;-3200;-3100;-3100;-3200;-3200;-3300;-3300;-3400;-3400;-3500;-3500;-3600;-3700;-3600;-3700;-3700;-3600;-3700;-3700;-3600;-3600;-3700;-3700;-3600;-3500;-3500;-3600;-3500;-3600;-3600;-3500;-3500;-3400;-3400;-3500;-3500;-3400;-3400;-3300;-3200;-3100;-3000;-2900;-3000;-2900;-2800;-2800;-2700;-2600;-2500;-2500;-2400;-2500;-2500"/>
<animate attributeName="cx" dur="106.68s" keyTimes="0.0;0.002617801;0.0052356021;0.0130890052;0.0157068063;0.0235602094;0.0261780105;0.0287958115;0.0366492147;0.0392670157;0.0497382199;0.0523560209;0.054973822;0.057591623;0.0654450262;0.0680628272;0.0706806283;0.0759162304;0.0785340314;0.0811518325;0.0837696335;0.0863874346;0.0890052356;0.0916230366;0.0994764398;0.1020942408;0.1047120419;0.1151832461;0.1178010471;0.1204188482;0.1230366492;0.1256544503;0.1282722513;0.1335078534;0.1361256545;0.1387434555;0.1413612565;0.1439790576;0.1465968586;0.1492146597;0.1518324607;0.1544502618;0.1570680628;0.1596858639;0.1623036649;0.164921466;0.167539267;0.1701570681;0.1727748691;0.1780104712;0.1806282723;0.1832460733;0.1858638743;0.2015706806;0.2041884817;0.2068062827;0.2094240838;0.2146596859;0.2172774869;0.222513089;0.2251308901;0.2277486911;0.2303664921;0.2329842932;0.2382198953;0.2408376963;0.2434554974;0.2460732984;0.2486910995;0.2513089005;0.2539267016;0.2617801047;0.2643979058;0.2670157068;0.2696335079;0.2722513089;0.2748691099;0.2827225131;0.2853403141;0.2958115183;0.2984293194;0.3010471204;0.3036649215;0.3062827225;0.3089005236;0.3141361257;0.3167539267;0.3246073298;0.3272251309;0.3429319372;0.3455497382;0.3481675393;0.3507853403;0.3534031414;0.3560209424;0.3586387435;0.3612565445;0.3664921466;0.3691099476;0.3717277487;0.3743455497;0.3769633508;0.3795811518;0.3821989529;0.3848167539;0.387434555;0.3926701571;0.3952879581;0.3979057592;0.4005235602;0.4057591623;0.4083769634;0.4188481675;0.4214659686;0.4293193717;0.4319371728;0.4397905759;0.442408377;0.445026178;0.4476439791;0.4502617801;0.4528795812;0.4554973822;0.4581151832;0.4607329843;0.4633507853;0.4685863874;0.4712041885;0.4738219895;0.4764397906;0.4790575916;0.4842931937;0.4869109948;0.4947643979;0.497382199;0.502617801;0.5052356021;0.5078534031;0.5104712042;0.5130890052;0.5157068063;0.5183246073;0.5235602094;0.5261780105;0.5287958115;0.5314136126;0.5340314136;0.5366492147;0.5471204188;0.5497382199;0.557591623;0.5602094241;0.5628272251;0.5654450262;0.5680628272;0.5706806283;0.5732984293;0.5759162304;0.5785340314;0.5811518325;0.5837696335;0.5863874346;0.5890052356;0.5916230366;0.5942408377;0.5968586387;0.6020942408;0.6047120419;0.6073298429;0.612565445;0.6151832461;0.6178010471;0.6230366492;0.6256544503;0.6282722513;0.6308900524;0.6335078534;0.6361256545;0.6387434555;0.6413612565;0.6439790576;0.6465968586;0.664921466;0.667539267;0.6701570681;0.6753926702;0.6780104712;0.6806282723;0.6832460733;0.6937172775;0.6963350785;0.7172774869;0.719895288;0.722513089;0.7277486911;0.7303664921;0.7382198953;0.7408376963;0.7434554974;0.7460732984;0.7539267016;0.7565445026;0.7643979058;0.7670157068;0.7696335079;0.7748691099;0.777486911;0.780104712;0.7827225131;0.7905759162;0.7931937173;0.7958115183;0.7984293194;0.8062827225;0.8089005236;0.8115183246;0.8167539267;0.8193717277;0.8219895288;0.8246073298;0.8272251309;0.8298429319;0.832460733;0.835078534;0.8376963351;0.8403141361;0.8429319372;0.8455497382;0.8481675393;0.8507853403;0.8638743455;0.8664921466;0.8717277487;0.8743455497;0.8769633508;0.8795811518;0.8821989529;0.887434555;0.890052356;0.8926701571;0.8952879581;0.8979057592;0.9005235602;0.9031413613;0.9083769634;0.9109947644;0.9136125654;0.9162303665;0.9267015707;0.9293193717;0.9319371728;0.9345549738;0.9371727749;0.9397905759;0.942408377;0.945026178;0.9476439791;0.9502617801;0.9528795812;0.9554973822;0.9581151832;1.0" repeatCount="indefinite" values="2500;2500;2600;2600;2700;2700;2800;2700;2700;2800;2800;2700;2700;2800;2800;2900;3000;3000;3100;3000;3100;3000;3100;3200;3200;3300;3400;3400;3300;3300;3200;3100;3000;3000;2900;2900;2800;2700;2700;2800;2800;2900;2900;2800;2800;2900;2900;2800;2700;2700;2600;2600;2500;2500;2400;2400;2300;2300;2400;2400;2500;2400;2400;2500;2500;2400;2300;2200;2300;2400;2300;2300;2200;2100;2100;2200;2300;2300;2400;2400;2500;2600;2700;2700;2800;2800;2900;2900;3000;3000;3100;3100;3200;3300;3300;3400;3500;3500;3600;3600;3500;3600;3500;3400;3500;3600;3600;3500;3500;3400;3400;3500;3500;3400;3400;3500;3500;3400;3500;3600;3600;3500;3400;3500;3500;3600;3600;3700;3600;3600;3700;3700;3600;3600;3500;3500;3600;3500;3500;3400;3400;3300;3300;3400;3400;3500;3400;3500;3500;3600;3600;3500;3600;3700;3600;3700;3600;3600;3700;3600;3600;3500;3600;3500;3500;3600;3600;3500;3400;3400;3500;3400;3400;3500;3500;3600;3700;3600;3600;3700;3700;3600;3600;3500;3600;3600;3700;3700;3600;3600;3700;3700;3600;3700;3700;3600;3600;3500;3500;3400;3400;3500;3500;3600;3500;3500;3400;3400;3300;3300;3400;3400;3500;3500;3400;3300;3300;3200;3100;3000;2900;2800;2700;2600;2500;2400;2300;2200;2100;2000;2000;2100;2100;2200;2100;2200;2300;2300;2200;2100;2100;2200;2300;2400;2400;2300;2200;2100;2100;2200;2200;2100;2100;2000;2100;2100;2000;1900;1800;1800;1700;1700"/>
<animate attributeName="visibility" dur="106.68s" keyTimes="0.0;0.002617801;1.0" repeatCount="indefinite" values="visible;visible;visible"/> </circle>
<circle cx="3000" cy="-1900" fill="#2e6f9e" r="35"> <animate attributeName="cy" dur="106.68s" keyTimes="0.0;0.002617801;0.0052356021;0.0078534031;0.0104712042;0.0130890052;0.0157068063;0.0183246073;0.0209424084;0.0235602094;0.0261780105;0.0287958115;0.0602094241;0.0628272251;0.0759162304;0.0785340314;0.0811518325;0.0890052356;0.0916230366;0.0942408377;0.0968586387;0.0994764398;0.112565445;0.1151832461;0.1178010471;0.1204188482;0.1230366492;0.1256544503;0.1282722513;0.1308900524;0.1361256545;0.1387434555;0.1413612565;0.1439790576;0.1465968586;0.1492146597;0.1518324607;0.1544502618;0.1570680628;0.1596858639;0.1623036649;0.164921466;0.167539267;0.2041884817;0.2068062827;0.2094240838;0.2120418848;0.2172774869;0.219895288;0.222513089;0.2251308901;0.2277486911;0.2303664921;0.2329842932;0.2356020942;0.2382198953;0.2408376963;0.2434554974;0.2460732984;0.2486910995;0.2513089005;0.2539267016;0.2565445026;0.2591623037;0.2617801047;0.2643979058;0.2670157068;0.2696335079;0.2722513089;0.2748691099;0.277486911;0.280104712;0.2827225131;0.2853403141;0.2879581152;0.2905759162;0.2931937173;0.2958115183;0.2984293194;0.3010471204;0.3036649215;0.3062827225;0.3089005236;0.3115183246;0.3534031414;0.3560209424;0.3586387435;0.3612565445;0.3638743455;0.3664921466;0.3691099476;0.3717277487;0.3743455497;0.3769633508;0.3795811518;0.3821989529;0.3848167539;0.387434555;0.390052356;0.3926701571;0.3952879581;0.3979057592;0.4005235602;0.4031413613;0.4057591623;0.4083769634;0.4109947644;0.4136125654;0.4162303665;0.4188481675;0.4214659686;0.4240837696;0.4267015707;0.4293193717;0.4319371728;0.4345549738;0.445026178;0.4476439791;0.4502617801;0.4528795812;0.4554973822;0.4607329843;0.4633507853;0.4712041885;0.4738219895;0.4842931937;0.4869109948;0.5052356021;0.5078534031;0.5157068063;0.5183246073;0.5209424084;0.5235602094;0.5261780105;0.5366492147;0.5392670157;0.5445026178;0.5471204188;0.5497382199;0.5523560209;0.554973822;0.557591623;0.5602094241;0.5628272251;0.5654450262;0.5680628272;0.5706806283;0.5732984293;0.5759162304;0.5785340314;0.5811518325;0.5968586387;0.5994764398;0.6178010471;0.6204188482;0.6230366492;0.6308900524;0.6335078534;0.6361256545;0.6387434555;0.6413612565;0.6439790576;0.6465968586;0.6492146597;0.719895288;0.722513089;0.7303664921;0.7329842932;0.7356020942;0.7382198953;0.7408376963;0.7434554974;0.7460732984;0.7486910995;0.7513089005;0.7539267016;0.7565445026;0.7591623037;0.7617801047;0.7643979058;0.7670157068;0.7696335079;0.7722513089;0.7748691099;0.777486911;0.780104712;0.7827225131;0.7853403141;0.7879581152;0.7905759162;0.7931937173;0.7958115183;0.7984293194;0.8010471204;0.8036649215;0.8062827225;0.8089005236;0.8167539267;0.8193717277;0.8219895288;0.9057591623;0.9083769634;0.9109947644;0.9136125654;0.9162303665;0.9188481675;0.9214659686;0.9240837696;0.9267015707;0.9293193717;0.9319371728;0.9345549738;0.9371727749;0.9397905759;0.942408377;0.945026178;0.9476439791;0.9502617801;0.9528795812;0.9554973822;0.9581151832;0.9607329843;0.9633507853;0.9659685864;0.9685863874;0.9712041885;0.9738219895;0.9764397906;0.9790575916;0.9816753927;0.9842931937;0.9869109948;0.9895287958;0.9921465969;0.9947643979;0.997382199;1.0" repeatCount="indefinite" values="-1900;-1900;-1900;-2000;-2100;-2200;-2300;-2400;-2400;-2500;-2500;-2600;-2600;-2500;-2500;-2400;-2300;-2300;-2200;-2100;-2000;-1900;-1900;-1800;-1700;-1700;-1600;-1500;-1500;-1400;-1400;-1500;-1600;-1700;-1800;-1900;-2000;-2100;-2200;-2300;-2400;-2500;-2600;-2600;-2700;-2800;-2900;-2900;-3000;-3000;-3100;-3000;-2900;-2800;-2700;-2600;-2500;-2400;-2300;-2200;-2100;-2000;-1900;-1800;-1700;-1600;-1500;-1400;-1500;-1600;-1700;-1800;-1900;-2000;-2100;-2200;-2300;-2400;-2500;-2600;-2700;-2800;-2900;-3000;-3000;-3100;-3000;-2900;-2800;-2700;-2600;-2500;-2400;-2300;-2200;-2100;-2000;-1900;-1800;-1800;-1700;-1600;-1500;-1400;-1300;-1200;-1100;-1000;-900;-900;-800;-800;-700;-800;-800;-900;-900;-1000;-1000;-1100;-1200;-1200;-1300;-1300;-1200;-1200;-1100;-1100;-1000;-1000;-900;-800;-700;-800;-800;-700;-700;-800;-800;-900;-1000;-1100;-1200;-1300;-1400;-1500;-1600;-1700;-1800;-1900;-2000;-2000;-2100;-2100;-2200;-2300;-2300;-2400;-2400;-2500;-2500;-2600;-2700;-2800;-2800;-2700;-2700;-2600;-2500;-2400;-2300;-2200;-2100;-2000;-1900;-1800;-1700;-1700;-1600;-1500;-1500;-1400;-1500;-1500;-1600;-1700;-1700;-1800;-1900;-2000;-2100;-2200;-2300;-2400;-2500;-2600;-2700;-2700;-2800;-2900;-2900;-2800;-2700;-2600;-2500;-2400;-2300;-2200;-2100;-2000;-1900;-1800;-1700;-1600;-1500;-1600;-1700;-1800;-1900;-2000;-2100;-2200;-2300;-2400;-2400;-2500;-2500;-2600;-2700;-2700;-2800;-2800;-2900;-3000;-2900;-2800;-2800"/>
<animate attributeName="cx" dur="106.68s" keyTimes="0.0;0.002617801;0.0052356021;0.0183246073;0.0209424084;0.0235602094;0.0261780105;0.0287958115;0.0314136126;0.0340314136;0.0366492147;0.0392670157;0.0418848168;0.0445026178;0.0471204188;0.0497382199;0.0523560209;0.054973822;0.057591623;0.0602094241;0.0628272251;0.0654450262;0.0680628272;0.0706806283;0.0732984293;0.0759162304;0.0811518325;0.0837696335;0.0863874346;0.0890052356;0.0994764398;0.1020942408;0.1047120419;0.1073298429;0.109947644;0.112565445;0.1178010471;0.1204188482;0.1256544503;0.1282722513;0.1308900524;0.1335078534;0.1361256545;0.167539267;0.1701570681;0.1727748691;0.1753926702;0.1780104712;0.1806282723;0.1832460733;0.1858638743;0.1884816754;0.1910994764;0.1937172775;0.1963350785;0.1989528796;0.2015706806;0.2041884817;0.2120418848;0.2146596859;0.2172774869;0.219895288;0.222513089;0.3115183246;0.3141361257;0.3167539267;0.3193717277;0.3219895288;0.3246073298;0.3272251309;0.3298429319;0.332460733;0.335078534;0.3376963351;0.3403141361;0.3429319372;0.3455497382;0.3481675393;0.3507853403;0.3534031414;0.390052356;0.3926701571;0.4162303665;0.4188481675;0.4214659686;0.4240837696;0.4293193717;0.4319371728;0.4345549738;0.4371727749;0.4397905759;0.442408377;0.445026178;0.4476439791;0.4502617801;0.4554973822;0.4581151832;0.4607329843;0.4633507853;0.4659685864;0.4685863874;0.4712041885;0.4738219895;0.4764397906;0.4790575916;0.4816753927;0.4842931937;0.4869109948;0.4895287958;0.4921465969;0.4947643979;0.497382199;0.5;0.502617801;0.5052356021;0.5078534031;0.5104712042;0.5130890052;0.5157068063;0.5261780105;0.5287958115;0.5314136126;0.5340314136;0.5366492147;0.5392670157;0.5418848168;0.5445026178;0.5471204188;0.5497382199;0.5811518325;0.5837696335;0.5863874346;0.5890052356;0.5916230366;0.5942408377;0.5968586387;0.5994764398;0.6020942408;0.6047120419;0.6073298429;0.609947644;0.612565445;0.6151832461;0.6178010471;0.6230366492;0.6256544503;0.6282722513;0.6308900524;0.6335078534;0.6361256545;0.6387434555;0.6413612565;0.6492146597;0.6518324607;0.6544502618;0.6570680628;0.6596858639;0.6623036649;0.664921466;0.667539267;0.6701570681;0.6727748691;0.6753926702;0.6780104712;0.6806282723;0.6832460733;0.6858638743;0.6884816754;0.6910994764;0.6937172775;0.6963350785;0.6989528796;0.7015706806;0.7041884817;0.7068062827;0.7094240838;0.7120418848;0.7146596859;0.7172774869;0.719895288;0.722513089;0.7251308901;0.7277486911;0.7303664921;0.7565445026;0.7591623037;0.7643979058;0.7670157068;0.7722513089;0.7748691099;0.780104712;0.7827225131;0.8089005236;0.8115183246;0.8141361257;0.8167539267;0.8219895288;0.8246073298;0.8272251309;0.8298429319;0.832460733;0.835078534;0.8376963351;0.8403141361;0.8429319372;0.8455497382;0.8481675393;0.8507853403;0.8534031414;0.8560209424;0.8586387435;0.8612565445;0.8638743455;0.8664921466;0.8691099476;0.8717277487;0.8743455497;0.8769633508;0.8795811518;0.8821989529;0.8848167539;0.887434555;0.890052356;0.8926701571;0.8952879581;0.8979057592;0.9005235602;0.9031413613;0.9057591623;0.9659685864;0.9685863874;0.9712041885;0.9738219895;0.9790575916;0.9816753927;0.9842931937;0.9869109948;1.0" repeatCount="indefinite" values="3000;3000;2900;2900;2800;2800;2700;2700;2600;2500;2400;2300;2200;2100;2000;1900;1800;1700;1600;1500;1500;1400;1300;1200;1100;1000;1000;900;800;700;700;800;900;1000;1100;1200;1200;1300;1300;1400;1400;1500;1600;1600;1700;1800;1900;2000;2100;2200;2300;2400;2500;2400;2300;2200;2100;2000;2000;1900;1800;1800;1700;1700;1800;1900;2000;2100;2200;2300;2400;2500;2600;2700;2800;2900;3000;3100;3200;3300;3300;3200;3200;3300;3300;3400;3400;3300;3300;3200;3100;3000;2900;2900;2800;2800;2700;2600;2600;2500;2400;2300;2300;2200;2100;2000;1900;1900;1800;1700;1600;1500;1400;1300;1200;1200;1100;1000;900;900;1000;1100;1200;1300;1300;1400;1500;1500;1600;1600;1700;1800;1900;2000;2100;2200;2200;2300;2400;2500;2600;2700;2800;2900;2900;2800;2700;2600;2600;2500;2500;2400;2400;2500;2600;2700;2800;2900;3000;3100;3200;3300;3200;3100;3000;2900;2800;2700;2600;2500;2400;2300;2200;2100;2000;1900;1800;1700;1600;1500;1500;1400;1300;1200;1200;1100;1100;1000;1000;1100;1100;1200;1200;1300;1400;1500;1500;1600;1700;1800;1900;2000;2100;2200;2300;2400;2500;2600;2700;2800;2900;3000;3100;3200;3300;3200;3100;3000;2900;2800;2700;2600;2500;2400;2300;2200;2100;2000;1900;1900;1800;1800;1700;1700;1600;1600;1500;1500"/>
<animate attributeName="visibility" dur="106.68s" keyTimes="0.0;0.002617801;1.0" repeatCount="indefinite" values="visible;visible;visible"/> </circle>
<circle cx="3500" cy="-3000" fill="none" r="35" stroke="#c1433c" stroke-width="10"> <animate attributeName="cy" dur="106.68s" keyTimes="0.0;0.002617801;0.7539267016;0.7565445026;0.9476439791;0.9502617801;1.0" repeatCount="indefinite" values="-3000;-3000;-3000;-3500;-3500;-1300;-1300"/>
<animate attributeName="cx" dur="106.68s" keyTimes="0.0;0.002617801;0.7539267016;0.7565445026;0.9476439791;0.9502617801;1.0" repeatCount="indefinite" values="3500;3500;3500;1900;1900;1700;1700"/>
<animate attributeName="visibility" dur="106.68s" keyTimes="0.0;0.002617801;1.0" repeatCount="indefinite" values="visible;visible;visible"/> </circle>
<circle cx="2600" cy="-2600" fill="none" r="35" stroke="#2e6f9e" stroke-width="10"> <animate attributeName="cy" dur="106.68s" keyTimes="0.0;0.002617801;0.0287958115;0.0314136126;0.0968586387;0.0994764398;0.1308900524;0.1335078534;0.1884816754;0.1910994764;0.222513089;0.2251308901;0.2670157068;0.2696335079;0.3534031414;0.3560209424;0.4240837696;0.4267015707;0.4607329843;0.4633507853;0.4712041885;0.4738219895;0.5209424084;0.5235602094;0.5471204188;0.5497382199;0.6178010471;0.6204188482;0.6413612565;0.6439790576;0.6701570681;0.6727748691;0.7670157068;0.7696335079;0.8664921466;0.8691099476;0.9397905759;0.942408377;0.9607329843;0.9633507853;0.9895287958;0.9921465969;1.0" repeatCount="indefinite" values="-2600;-2600;-2600;-1900;-1900;-1400;-1400;-2600;-2600;-3100;-3100;-1400;-1400;-3100;-3100;-700;-700;-1300;-1300;-1200;-1200;-700;-700;-800;-800;-2200;-2200;-2600;-2600;-2800;-2800;-1400;-1400;-2900;-2900;-1500;-1500;-2300;-2300;-3000;-3000;-1700;-1700"/>
<animate attributeName="cx" dur="106.68s" keyTimes="0.0;0.002617801;0.0287958115;0.0314136126;0.0968586387;0.0994764398;0.1308900524;0.1335078534;0.1884816754;0.1910994764;0.2670157068;0.2696335079;0.3534031414;0.3560209424;0.4240837696;0.4267015707;0.4607329843;0.4633507853;0.4712041885;0.4738219895;0.5209424084;0.5235602094;0.5471204188;0.5497382199;0.6178010471;0.6204188482;0.6413612565;0.6439790576;0.6701570681;0.6727748691;0.7670157068;0.7696335079;0.8664921466;0.8691099476;0.9607329843;0.9633507853;0.9895287958;0.9921465969;1.0" repeatCount="indefinite" values="2600;2600;2600;700;700;1500;1500;2500;2500;1700;1700;3300;3300;3400;3400;2600;2600;2300;2300;900;900;1600;1600;2900;2900;2400;2400;3300;3300;1000;1000;3300;3300;1900;1900;1500;1500;1800;1800"/>
<animate attributeName="visibility" dur="106.68s" keyTimes="0.0;0.002617801;1.0" repeatCount="indefinite" values="visible;visible;visible"/> </circle>
</svg>