<?xml version="1.0" encoding="UTF-8"?>
        <svg xmlns="http://www.w3.org/2000/svg" xmlns:xlink="http://www.w3.org/1999/xlink"
             width="430" height="430" viewBox="0 -4300 4300 4300">

<defs>

</defs>

<rect fill="#84A1AE" height="70" rx="15" width="70" x="465" y="-535" />
<rect fill="#84A1AE" height="70" rx="15" width="70" x="465" y="-635" />
<rect fill="#84A1AE" height="70" rx="15" width="70" x="465" y="-735" />
<rect fill="#84A1AE" height="70" rx="15" width="70" x="465" y="-835" />
<rect fill="#84A1AE" height="70" rx="15" width="70" x="465" y="-935" />
<rect fill="#84A1AE" height="70" rx="15" width="70" x="465" y="-1035" />
<rect fill="#84A1AE" height="70" rx="15" width="70" x="465" y="-1135" />
<rect fill="#84A1AE" height="70" rx="15" width="70" x="465" y="-1235" />
<rect fill="#84A1AE" height="70" rx="15" width="70" x="465" y="-1335" />
<rect fill="#84A1AE" height="70" rx="15" width="70" x="465" y="-1435" />
<rect fill="#84A1AE" height="70" rx="15" width="70" x="465" y="-1535" />
<rect fill="#84A1AE" height="70" rx="15" width="70" x="465" y="-1635" />
<rect fill="#84A1AE" height="70" rx="15" width="70" x="465" y="-1735" />
<rect fill="#84A1AE" height="70" rx="15" width="70" x="465" y="-1835" />
<rect fill="#84A1AE" height="70" rx="15" width="70" x="465" y="-1935" />
<rect fill="#84A1AE" height="70" rx="15" width="70" x="465" y="-2035" />
<rect fill="#84A1AE" height="70" rx="15" width="70" x="465" y="-2135" />
<rect fill="#84A1AE" height="70" rx="15" width="70" x="465" y="-2235" />
<rect fill="#84A1AE" height="70" rx="15" width="70" x="465" y="-2335" />
<rect fill="#84A1AE" height="70" rx="15" width="70" x="465" y="-2435" />
<rect fill="#84A1AE" height="70" rx="15" width="70" x="465" y="-2535" />
<rect fill="#84A1AE" height="70" rx="15" width="70" x="465" y="-2635" />
<rect fill="#84A1AE" height="70" rx="15" width="70" x="465" y="-2735" />
<rect fill="#84A1AE" height="70" rx="15" width="70" x="465" y="-2835" />
<rect fill="#84A1AE" height="70" rx="15" width="70" x="465" y="-2935" />
<rect fill="#84A1AE" height="70" rx="15" width="70" x="465" y="-3035" />
<rect fill="#84A1AE" height="70" rx="15" width="70" x="465" y="-3135" />
<rect fill="#84A1AE" height="70" rx="15" width="70" x="465" y="-3235" />
<rect fill="#84A1AE" height="70" rx="15" width="70" x="465" y="-3335" />
<rect fill="#84A1AE" height="70" rx="15" width="70" x="465" y="-3435" />
<rect fill="#84A1AE" height="70" rx="15" width="70" x="465" y="-3535" />
<rect fill="#84A1AE" height="70" rx="15" width="70" x="465" y="-3635" />
<rect fill="#84A1AE" height="70" rx="15" width="70" x="465" y="-3735" />
<rect fill="#84A1AE" height="70" rx="15" width="70" x="465" y="-3835" />
<rect fill="#84A1AE" height="70" rx="15" width="70" x="565" y="-535" />
<rect fill="#84A1AE" height="70" rx="15" width="70" x="565" y="-1635" />
<rect fill="#84A1AE" height="70" rx="15" width="70" x="565" y="-1935" />
<rect fill="#84A1AE" height="70" rx="15" width="70" x="565" y="-2735" />
<rect fill="#84A1AE" height="70" rx="15" width="70" x="565" y="-3835" />
<rect fill="#84A1AE" height="70" rx="15" width="70" x="665" y="-535" />
<rect fill="#84A1AE" height="70" rx="15" width="70" x="665" y="-1035" />
<rect fill="#84A1AE" height="70" rx="15" width="70" x="665" y="-2535" />
<rect fill="#84A1AE" height="70" rx="15" width="70" x="665" y="-3035" />
<rect fill="#84A1AE" height="70" rx="15" width="70" x="665" y="-3235" />
<rect fill="#84A1AE" height="70" rx="15" width="70" x="665" y="-3835" />
<rect fill="#84A1AE" height="70" rx="15" width="70" x="765" y="-535" />
<rect fill="#84A1AE" height="70" rx="15" width="70" x="765" y="-635" />
<rect fill="#84A1AE" height="70" rx="15" width="70" x="765" y="-3835" />
<rect fill="#84A1AE" height="70" rx="15" width="70" x="865" y="-535" />
<rect fill="#84A1AE" height="70" rx="15" width="70" x="865" y="-2435" />
<rect fill="#84A1AE" height="70" rx="15" width="70" x="865" y="-2535" />
<rect fill="#84A1AE" height="70" rx="15" width="70" x="865" y="-3335" />
<rect fill="#84A1AE" height="70" rx="15" width="70" x="865" y="-3435" />
<rect fill="#84A1AE" height="70" rx="15" width="70" x="865" y="-3835" />
<rect fill="#84A1AE" height="70" rx="15" width="70" x="965" y="-535" />
<rect fill="#84A1AE" height="70" rx="15" width="70" x="965" y="-735" />
<rect fill="#84A1AE" height="70" rx="15" width="70" x="965" y="-1635" />
<rect fill="#84A1AE" height="70" rx="15" width="70" x="965" y="-1835" />
<rect fill="#84A1AE" height="70" rx="15" width="70" x="965" y="-2835" />
<rect fill="#84A1AE" height="70" rx="15" width="70" x="965" y="-3435" />
<rect fill="#84A1AE" height="70" rx="15" width="70" x="965" y="-3835" />
<rect fill="#84A1AE" height="70" rx="15" width="70" x="1065" y="-535" />
<rect fill="#84A1AE" height="70" rx="15" width="70" x="1065" y="-1135" />
<rect fill="#84A1AE" height="70" rx="15" width="70" x="1065" y="-1835" />
<rect fill="#84A1AE" height="70" rx="15" width="70" x="1065" y="-3735" />
<rect fill="#84A1AE" height="70" rx="15" width="70" x="1065" y="-3835" />
<rect fill="#84A1AE" height="70" rx="15" width="70" x="1165" y="-535" />
<rect fill="#84A1AE" height="70" rx="15" width="70" x="1165" y="-635" />
<rect fill="#84A1AE" height="70" rx="15" width="70" x="1165" y="-735" />
<rect fill="#84A1AE" height="70" rx="15" width="70" x="1165" y="-1535" />
<rect fill="#84A1AE" height="70" rx="15" width="70" x="1165" y="-3835" />
<rect fill="#84A1AE" height="70" rx="15" width="70" x="1265" y="-535" />
<rect fill="#84A1AE" height="70" rx="15" width="70" x="1265" y="-2835" />
<rect fill="#84A1AE" height="70" rx="15" width="70" x="1265" y="-3435" />
<rect fill="#84A1AE" height="70" rx="15" width="70" x="1265" y="-3835" />
<rect fill="#84A1AE" height="70" rx="15" width="70" x="1365" y="-535" />
<rect fill="#84A1AE" height="70" rx="15" width="70" x="1365" y="-835" />
<rect fill="#84A1AE" height="70" rx="15" width="70" x="1365" y="-935" />
<rect fill="#84A1AE" height="70" rx="15" width="70" x="1365" y="-1035" />
<rect fill="#84A1AE" height="70" rx="15" width="70" x="1365" y="-1935" />
<rect fill="#84A1AE" height="70" rx="15" width="70" x="1365" y="-2335" />
<rect fill="#84A1AE" height="70" rx="15" width="70" x="1365" y="-2635" />
<rect fill="#84A1AE" height="70" rx="15" width="70" x="1365" y="-2835" />
<rect fill="#84A1AE" height="70" rx="15" width="70" x="1365" y="-2935" />
<rect fill="#84A1AE" height="70" rx="15" width="70" x="1365" y="-3035" />
<rect fill="#84A1AE" height="70" rx="15" width="70" x="1365" y="-3335" />
<rect fill="#84A1AE" height="70" rx="15" width="70" x="1365" y="-3835" />
<rect fill="#84A1AE" height="70" rx="15" width="70" x="1465" y="-535" />
<rect fill="#84A1AE" height="70" rx="15" width="70" x="1465" y="-1235" />
<rect fill="#84A1AE" height="70" rx="15" width="70" x="1465" y="-1535" />
<rect fill="#84A1AE" height="70" rx="15" width="70" x="1465" y="-2035" />
<rect fill="#84A1AE" height="70" rx="15" width="70" x="1465" y="-3135" />
<rect fill="#84A1AE" height="70" rx="15" width="70" x="1465" y="-3235" />
<rect fill="#84A1AE" height="70" rx="15" width="70" x="1465" y="-3835" />
<rect fill="#84A1AE" height="70" rx="15" width="70" x="1565" y="-535" />
<rect fill="#84A1AE" height="70" rx="15" width="70" x="1565" y="-3035" />
<rect fill="#84A1AE" height="70" rx="15" width="70" x="1565" y="-3835" />
<rect fill="#84A1AE" height="70" rx="15" width="70" x="1665" y="-535" />
<rect fill="#84A1AE" height="70" rx="15" width="70" x="1665" y="-3735" />
<rect fill="#84A1AE" height="70" rx="15" width="70" x="1665" y="-3835" />
<rect fill="#84A1AE" height="70" rx="15" width="70" x="1765" y="-535" />
<rect fill="#84A1AE" height="70" rx="15" width="70" x="1765" y="-1235" />
<rect fill="#84A1AE" height="70" rx="15" width="70" x="1765" y="-3835" />
<rect fill="#84A1AE" height="70" rx="15" width="70" x="1865" y="-535" />
<rect fill="#84A1AE" height="70" rx="15" width="70" x="1865" y="-735" />
<rect fill="#84A1AE" height="70" rx="15" width="70" x="1865" y="-1335" />
<rect fill="#84A1AE" height="70" rx="15" width="70" x="1865" y="-3235" />
<rect fill="#84A1AE" height="70" rx="15" width="70" x="1865" y="-3435" />
<rect fill="#84A1AE" height="70" rx="15" width="70" x="1865" y="-3835" />
<rect fill="#84A1AE" height="70" rx="15" width="70" x="1965" y="-535" />
<rect fill="#84A1AE" height="70" rx="15" width="70" x="1965" y="-635" />
<rect fill="#84A1AE" height="70" rx="15" width="70" x="1965" y="-1835" />
<rect fill="#84A1AE" height="70" rx="15" width="70" x="1965" y="-1935" />
<rect fill="#84A1AE" height="70" rx="15" width="70" x="1965" y="-2135" />
<rect fill="#84A1AE" height="70" rx="15" width="70" x="1965" y="-2335" />
<rect fill="#84A1AE" height="70" rx="15" width="70" x="1965" y="-2435" />
<rect fill="#84A1AE" height="70" rx="15" width="70" x="1965" y="-3335" />
<rect fill="#84A1AE" height="70" rx="15" width="70" x="1965" y="-3835" />
<rect fill="#84A1AE" height="70" rx="15" width="70" x="2065" y="-535" />
<rect fill="#84A1AE" height="70" rx="15" width="70" x="2065" y="-1535" />
<rect fill="#84A1AE" height="70" rx="15" width="70" x="2065" y="-1635" />
<rect fill="#84A1AE" height="70" rx="15" width="70" x="2065" y="-2135" />
<rect fill="#84A1AE" height="70" rx="15" width="70" x="2065" y="-3835" />
<rect fill="#84A1AE" height="70" rx="15" width="70" x="2165" y="-535" />
<rect fill="#84A1AE" height="70" rx="15" width="70" x="2165" y="-935" />
<rect fill="#84A1AE" height="70" rx="15" width="70" x="2165" y="-1335" />
<rect fill="#84A1AE" height="70" rx="15" width="70" x="2165" y="-1835" />
<rect fill="#84A1AE" height="70" rx="15" width="70" x="2165" y="-3835" />
<rect fill="#84A1AE" height="70" rx="15" width="70" x="2265" y="-535" />
<rect fill="#84A1AE" height="70" rx="15" width="70" x="2265" y="-935" />
<rect fill="#84A1AE" height="70" rx="15" width="70" x="2265" y="-1135" />
<rect fill="#84A1AE" height="70" rx="15" width="70" x="2265" y="-2535" />
<rect fill="#84A1AE" height="70" rx="15" width="70" x="2265" y="-3235" />
<rect fill="#84A1AE" height="70" rx="15" width="70" x="2265" y="-3835" />
<rect fill="#84A1AE" height="70" rx="15" width="70" x="2365" y="-535" />
<rect fill="#84A1AE" height="70" rx="15" width="70" x="2365" y="-935" />
<rect fill="#84A1AE" height="70" rx="15" width="70" x="2365" y="-1035" />
<rect fill="#84A1AE" height="70" rx="15" width="70" x="2365" y="-3835" />
<rect fill="#84A1AE" height="70" rx="15" width="70" x="2465" y="-535" />
<rect fill="#84A1AE" height="70" rx="15" width="70" x="2465" y="-935" />
<rect fill="#84A1AE" height="70" rx="15" width="70" x="2465" y="-1535" />
<rect fill="#84A1AE" height="70" rx="15" width="70" x="2465" y="-2335" />
<rect fill="#84A1AE" height="70" rx="15" width="70" x="2465" y="-2735" />
<rect fill="#84A1AE" height="70" rx="15" width="70" x="2465" y="-3835" />
<rect fill="#84A1AE" height="70" rx="15" width="70" x="2565" y="-535" />
<rect fill="#84A1AE" height="70" rx="15" width="70" x="2565" y="-735" />
<rect fill="#84A1AE" height="70" rx="15" width="70" x="2565" y="-2535" />
<rect fill="#84A1AE" height="70" rx="15" width="70" x="2565" y="-3835" />
<rect fill="#84A1AE" height="70" rx="15" width="70" x="2665" y="-535" />
<rect fill="#84A1AE" height="70" rx="15" width="70" x="2665" y="-635" />
<rect fill="#84A1AE" height="70" rx="15" width="70" x="2665" y="-1135" />
<rect fill="#84A1AE" height="70" rx="15" width="70" x="2665" y="-1435" />
<rect fill="#84A1AE" height="70" rx="15" width="70" x="2665" y="-2735" />
<rect fill="#84A1AE" height="70" rx="15" width="70" x="2665" y="-3835" />
<rect fill="#84A1AE" height="70" rx="15" width="70" x="2765" y="-535" />
<rect fill="#84A1AE" height="70" rx="15" width="70" x="2765" y="-1635" />
<rect fill="#84A1AE" height="70" rx="15" width="70" x="2765" y="-1835" />
<rect fill="#84A1AE" height="70" rx="15" width="70" x="2765" y="-1935" />
<rect fill="#84A1AE" height="70" rx="15" width="70" x="2765" y="-2235" />
<rect fill="#84A1AE" height="70" rx="15" width="70" x="2765" y="-3735" />
<rect fill="#84A1AE" height="70" rx="15" width="70" x="2765" y="-3835" />
<rect fill="#84A1AE" height="70" rx="15" width="70" x="2865" y="-535" />
<rect fill="#84A1AE" height="70" rx="15" width="70" x="2865" y="-3835" />
<rect fill="#84A1AE" height="70" rx="15" width="70" x="2965" y="-535" />
<rect fill="#84A1AE" height="70" rx="15" width="70" x="2965" y="-2635" />
<rect fill="#84A1AE" height="70" rx="15" width="70" x="2965" y="-3835" />
<rect fill="#84A1AE" height="70" rx="15" width="70" x="3065" y="-535" />
<rect fill="#84A1AE" height="70" rx="15" width="70" x="3065" y="-735" />
<rect fill="#84A1AE" height="70" rx="15" width="70" x="3065" y="-2535" />
<rect fill="#84A1AE" height="70" rx="15" width="70" x="3065" y="-3835" />
<rect fill="#84A1AE" height="70" rx="15" width="70" x="3165" y="-535" />
<rect fill="#84A1AE" height="70" rx="15" width="70" x="3165" y="-835" />
<rect fill="#84A1AE" height="70" rx="15" width="70" x="3165" y="-1935" />
<rect fill="#84A1AE" height="70" rx="15" width="70" x="3165" y="-2735" />
<rect fill="#84A1AE" height="70" rx="15" width="70" x="3165" y="-3135" />
<rect fill="#84A1AE" height="70" rx="15" width="70" x="3165" y="-3835" />
<rect fill="#84A1AE" height="70" rx="15" width="70" x="3265" y="-535" />
<rect fill="#84A1AE" height="70" rx="15" width="70" x="3265" y="-1035" />
<rect fill="#84A1AE" height="70" rx="15" width="70" x="3265" y="-1735" />
<rect fill="#84A1AE" height="70" rx="15" width="70" x="3265" y="-3835" />
<rect fill="#84A1AE" height="70" rx="15" width="70" x="3365" y="-535" />
<rect fill="#84A1AE" height="70" rx="15" width="70" x="3365" y="-1435" />
<rect fill="#84A1AE" height="70" rx="15" width="70" x="3365" y="-1935" />
<rect fill="#84A1AE" height="70" rx="15" width="70" x="3365" y="-2135" />
<rect fill="#84A1AE" height="70" rx="15" width="70" x="3365" y="-3835" />
<rect fill="#84A1AE" height="70" rx="15" width="70" x="3465" y="-535" />
<rect fill="#84A1AE" height="70" rx="15" width="70" x="3465" y="-2635" />
<rect fill="#84A1AE" height="70" rx="15" width="70" x="3465" y="-3835" />
<rect fill="#84A1AE" height="70" rx="15" width="70" x="3565" y="-535" />
<rect fill="#84A1AE" height="70" rx="15" width="70" x="3565" y="-635" />
<rect fill="#84A1AE" height="70" rx="15" width="70" x="3565" y="-2435" />
<rect fill="#84A1AE" height="70" rx="15" width="70" x="3565" y="-3235" />
<rect fill="#84A1AE" height="70" rx="15" width="70" x="3565" y="-3835" />
<rect fill="#84A1AE" height="70" rx="15" width="70" x="3665" y="-535" />
<rect fill="#84A1AE" height="70" rx="15" width="70" x="3665" y="-2135" />
<rect fill="#84A1AE" height="70" rx="15" width="70" x="3665" y="-2835" />
<rect fill="#84A1AE" height="70" rx="15" width="70" x="3665" y="-3135" />
<rect fill="#84A1AE" height="70" rx="15" width="70" x="3665" y="-3735" />
<rect fill="#84A1AE" height="70" rx="15" width="70" x="3665" y="-3835" />
<rect fill="#84A1AE" height="70" rx="15" width="70" x="3765" y="-535" />
<rect fill="#84A1AE" height="70" rx="15" width="70" x="3765" y="-635" />
<rect fill="#84A1AE" height="70" rx="15" width="70" x="3765" y="-735" />
<rect fill="#84A1AE" height="70" rx="15" width="70" x="3765" y="-835" />
<rect fill="#84A1AE" height="70" rx="15" width="70" x="3765" y="-935" />
<rect fill="#84A1AE" height="70" rx="15" width="70" x="3765" y="-1035" />
<rect fill="#84A1AE" height="70" rx="15" width="70" x="3765" y="-1135" />
<rect fill="#84A1AE" height="70" rx="15" width="70" x="3765" y="-1235" />
<rect fill="#84A1AE" height="70" rx="15" width="70" x="3765" y="-1335" />
<rect fill="#84A1AE" height="70" rx="15" width="70" x="3765" y="-1435" />
<rect fill="#84A1AE" height="70" rx="15" width="70" x="3765" y="-1535" />
<rect fill="#84A1AE" height="70" rx="15" width="70" x="3765" y="-1635" />
<rect fill="#84A1AE" height="70" rx="15" width="70" x="3765" y="-1735" />
<rect fill="#84A1AE" height="70" rx="15" width="70" x="3765" y="-1835" />
<rect fill="#84A1AE" height="70" rx="15" width="70" x="3765" y="-1935" />
<rect fill="#84A1AE" height="70" rx="15" width="70" x="3765" y="-2035" />
<rect fill="#84A1AE" height="70" rx="15" width="70" x="3765" y="-2135" />
<rect fill="#84A1AE" height="70" rx="15" width="70" x="3765" y="-2235" />
<rect fill="#84A1AE" height="70" rx="15" width="70" x="3765" y="-2335" />
<rect fill="#84A1AE" height="70" rx="15" width="70" x="3765" y="-2435" />
<rect fill="#84A1AE" height="70" rx="15" width="70" x="3765" y="-2535" />
<rect fill="#84A1AE" height="70" rx="15" width="70" x="3765" y="-2635" />
<rect fill="#84A1AE" height="70" rx="15" width="70" x="3765" y="-2735" />
<rect fill="#84A1AE" height="70" rx="15" width="70" x="3765" y="-2835" />
<rect fill="#84A1AE" height="70" rx="15" width="70" x="3765" y="-2935" />
<rect fill="#84A1AE" height="70" rx="15" width="70" x="3765" y="-3035" />
<rect fill="#84A1AE" height="70" rx="15" width="70" x="3765" y="-3135" />
<rect fill="#84A1AE" height="70" rx="15" width="70" x="3765" y="-3235" />
<rect fill="#84A1AE" height="70" rx="15" width="70" x="3765" y="-3335" />
<rect fill="#84A1AE" height="70" rx="15" width="70" x="3765" y="-3435" />
<rect fill="#84A1AE" height="70" rx="15" width="70" x="3765" y="-3535" />
<rect fill="#84A1AE" height="70" rx="15" width="70" x="3765" y="-3635" />
<rect fill="#84A1AE" height="70" rx="15" width="70" x="3765" y="-3735" />
<rect fill="#84A1AE" height="70" rx="15" width="70" x="3765" y="-3835" />
<circle cx="2500" cy="-1400" fill="#c1433c" r="35"> <animate attributeName="cy" dur="95.48s" keyTimes="0.0;0.0029239766;0.0058479532;0.0087719298;0.0116959064;0.014619883;0.0175438596;0.0204678363;0.0233918129;0.0263157895;0.0292397661;0.0321637427;0.0350877193;0.0380116959;0.0409356725;0.0438596491;0.0467836257;0.0497076023;0.0526315789;0.0555555556;0.0584795322;0.1169590643;0.1198830409;0.1228070175;0.1257309942;0.1286549708;0.1315789474;0.134502924;0.1374269006;0.1403508772;0.1432748538;0.1461988304;0.149122807;0.1520467836;0.1549707602;0.1578947368;0.1608187135;0.1637426901;0.1666666667;0.1695906433;0.1725146199;0.1754385965;0.1783625731;0.1812865497;0.1842105263;0.1871345029;0.1900584795;0.1929824561;0.1959064327;0.1988304094;0.201754386;0.2046783626;0.2076023392;0.2105263158;0.2134502924;0.216374269;0.2192982456;0.2222222222;0.2251461988;0.2280701754;0.230994152;0.2339181287;0.2426900585;0.2456140351;0.2543859649;0.2573099415;0.2602339181;0.2631578947;0.2660818713;0.2748538012;0.2777777778;0.2807017544;0.283625731;0.2865497076;0.2894736842;0.2923976608;0.2953216374;0.298245614;0.3040935673;0.3070175439;0.3099415205;0.3128654971;0.3157894737;0.3216374269;0.3245614035;0.3274853801;0.3304093567;0.3362573099;0.3391812865;0.3421052632;0.3450292398;0.3479532164;0.350877193;0.3538011696;0.3567251462;0.3596491228;0.3625730994;0.365497076;0.3684210526;0.3713450292;0.3742690058;0.3771929825;0.3801169591;0.3830409357;0.3859649123;0.3888888889;0.3918128655;0.3947368421;0.3976608187;0.4005847953;0.4035087719;0.4064327485;0.4093567251;0.4122807018;0.4152046784;0.418128655;0.4210526316;0.4239766082;0.4298245614;0.432748538;0.4356725146;0.4385964912;0.4415204678;0.4473684211;0.4502923977;0.4532163743;0.4561403509;0.4590643275;0.4619883041;0.4649122807;0.4678362573;0.4707602339;0.4736842105;0.4766081871;0.4795321637;0.4824561404;0.485380117;0.4883040936;0.4912280702;0.4941520468;0.4970760234;0.5;0.5029239766;0.5058479532;0.5087719298;0.5116959064;0.514619883;0.5175438596;0.5204678363;0.5233918129;0.5263157895;0.5292397661;0.5321637427;0.5350877193;0.5380116959;0.5409356725;0.5438596491;0.5467836257;0.5497076023;0.5526315789;0.5555555556;0.5584795322;0.5614035088;0.5643274854;0.567251462;0.5701754386;0.5964912281;0.5994152047;0.6023391813;0.634502924;0.6374269006;0.6608187135;0.6637426901;0.7134502924;0.716374269;0.7426900585;0.7456140351;0.7485380117;0.7514619883;0.7543859649;0.7573099415;0.7660818713;0.769005848;0.7719298246;0.7748538012;0.7777777778;0.7807017544;0.783625731;0.7865497076;0.7894736842;0.8245614035;0.8274853801;0.8304093567;0.8333333333;0.8391812865;0.8421052632;0.8450292398;0.8479532164;0.850877193;0.8538011696;0.8567251462;0.8596491228;0.8625730994;0.865497076;0.8684210526;0.8713450292;0.8742690058;0.8771929825;0.8801169591;0.8830409357;0.8859649123;0.8888888889;0.8918128655;0.8947368421;0.8976608187;0.9005847953;0.9035087719;0.9152046784;0.918128655;0.9210526316;0.9239766082;0.9269005848;0.9298245614;0.932748538;0.9356725146;0.9385964912;0.9415204678;0.9444444444;0.9473684211;0.9502923977;0.9532163743;0.9561403509;0.9590643275;0.9619883041;0.9678362573;0.9707602339;0.9736842105;0.9766081871;0.9883040936;0.9912280702;0.9941520468;1.0" repeatCount="indefinite" values="-1400;-1400;-1400;-1500;-1600;-1700;-1800;-1900;-2000;-2100;-2200;-2300;-2400;-2400;-2500;-2600;-2600;-2700;-2800;-2900;-3000;-3000;-2900;-2800;-2700;-2600;-2500;-2400;-2300;-2200;-2100;-2000;-2000;-1900;-1800;-1700;-1700;-1600;-1500;-1400;-1300;-1200;-1100;-1200;-1300;-1400;-1500;-1600;-1600;-1700;-1800;-1900;-2000;-2100;-2200;-2300;-2400;-2500;-2600;-2600;-2700;-2800;-2800;-2700;-2700;-2800;-2900;-3000;-3100;-3100;-3000;-2900;-2900;-2800;-2700;-2600;-2600;-2500;-2500;-2400;-2300;-2300;-2200;-2200;-2100;-2100;-2000;-2000;-1900;-1800;-1700;-1700;-1600;-1500;-1500;-1400;-1400;-1300;-1300;-1200;-1300;-1300;-1400;-1500;-1600;-1700;-1800;-1900;-2000;-2100;-2200;-2200;-2300;-2300;-2400;-2500;-2600;-2700;-2700;-2800;-2800;-2900;-3000;-3000;-3100;-3200;-3200;-3300;-3300;-3400;-3500;-3500;-3600;-3600;-3700;-3700;-3600;-3500;-3500;-3400;-3400;-3300;-3200;-3200;-3100;-3000;-2900;-2800;-2700;-2600;-2500;-2400;-2300;-2200;-2100;-2000;-1900;-1800;-1700;-1600;-1500;-1400;-1300;-1200;-1200;-1300;-1300;-1200;-1300;-1300;-1400;-1400;-1300;-1300;-1400;-1400;-1500;-1500;-1600;-1600;-1700;-1700;-1800;-1900;-1900;-2000;-2000;-2100;-2100;-2200;-2200;-2100;-2100;-2000;-2000;-1900;-1800;-1700;-1700;-1600;-1500;-1600;-1700;-1700;-1800;-1900;-2000;-2100;-2200;-2300;-2400;-2400;-2500;-2600;-2700;-2800;-2900;-2900;-2800;-2700;-2600;-2500;-2400;-2400;-2300;-2200;-2100;-2000;-1900;-1800;-1700;-1700;-1600;-1500;-1500;-1400;-1400;-1300;-1300;-1400;-1500;-1500"/>
<animate attributeName="cx" dur="95.48s" keyTimes="0.0;0.0029239766;0.0058479532;0.0350877193;0.0380116959;0.0438596491;0.0467836257;0.0584795322;0.0614035088;0.0643274854;0.067251462;0.0701754386;0.0730994152;0.0760233918;0.0789473684;0.081871345;0.0847953216;0.0877192982;0.0906432749;0.0935672515;0.0964912281;0.0994152047;0.1023391813;0.1052631579;0.1081871345;0.1111111111;0.1140350877;0.1169590643;0.1461988304;0.149122807;0.1578947368;0.1608187135;0.1929824561;0.1959064327;0.2251461988;0.2280701754;0.2339181287;0.2368421053;0.2397660819;0.2426900585;0.2456140351;0.2485380117;0.2514619883;0.2543859649;0.2660818713;0.269005848;0.2719298246;0.2748538012;0.2807017544;0.283625731;0.2923976608;0.2953216374;0.298245614;0.3011695906;0.3040935673;0.3099415205;0.3128654971;0.3157894737;0.3187134503;0.3216374269;0.3245614035;0.3274853801;0.3304093567;0.3333333333;0.3362573099;0.3450292398;0.3479532164;0.3538011696;0.3567251462;0.3596491228;0.3625730994;0.365497076;0.3684210526;0.3742690058;0.3771929825;0.4035087719;0.4064327485;0.4093567251;0.4122807018;0.4239766082;0.4269005848;0.4298245614;0.432748538;0.4356725146;0.4415204678;0.4444444444;0.4473684211;0.4532163743;0.4561403509;0.4590643275;0.4619883041;0.4678362573;0.4707602339;0.4736842105;0.4766081871;0.4795321637;0.4824561404;0.4883040936;0.4912280702;0.4941520468;0.4970760234;0.5029239766;0.5058479532;0.5643274854;0.567251462;0.5701754386;0.5730994152;0.5760233918;0.5789473684;0.581871345;0.5847953216;0.5877192982;0.5906432749;0.5935672515;0.5964912281;0.6023391813;0.6052631579;0.6081871345;0.6111111111;0.6140350877;0.6169590643;0.6198830409;0.6228070175;0.6257309942;0.6286549708;0.6315789474;0.634502924;0.6374269006;0.6403508772;0.6432748538;0.6461988304;0.649122807;0.6520467836;0.6549707602;0.6578947368;0.6608187135;0.6637426901;0.6666666667;0.6695906433;0.6725146199;0.6754385965;0.6783625731;0.6812865497;0.6842105263;0.6871345029;0.6900584795;0.6929824561;0.6959064327;0.6988304094;0.701754386;0.7046783626;0.7076023392;0.7105263158;0.7134502924;0.716374269;0.7192982456;0.7222222222;0.7251461988;0.7280701754;0.730994152;0.7339181287;0.7368421053;0.7397660819;0.7426900585;0.7456140351;0.7485380117;0.7514619883;0.7543859649;0.7573099415;0.7602339181;0.7631578947;0.7660818713;0.7719298246;0.7748538012;0.7777777778;0.7807017544;0.783625731;0.7865497076;0.7894736842;0.7923976608;0.7953216374;0.798245614;0.8011695906;0.8040935673;0.8070175439;0.8099415205;0.8128654971;0.8157894737;0.8187134503;0.8216374269;0.8245614035;0.8274853801;0.8304093567;0.8333333333;0.8362573099;0.8391812865;0.8479532164;0.850877193;0.8625730994;0.865497076;0.8859649123;0.8888888889;0.9035087719;0.9064327485;0.9093567251;0.9122807018;0.9152046784;0.9298245614;0.932748538;0.9532163743;0.9561403509;0.9619883041;0.9649122807;0.9678362573;0.9707602339;0.9736842105;0.9766081871;0.9795321637;0.9824561404;0.985380117;0.9883040936;0.9941520468;0.9970760234;1.0" repeatCount="indefinite" values="2500;2500;2600;2600;2700;2700;2800;2800;2900;3000;3100;3200;3300;3400;3500;3400;3300;3200;3100;3000;2900;2800;2700;2600;2500;2400;2300;2200;2200;2100;2100;2000;2000;1900;1900;1800;1800;1700;1600;1500;1500;1400;1300;1200;1200;1300;1400;1300;1300;1200;1200;1300;1300;1400;1500;1500;1600;1600;1700;1800;1800;1900;1900;2000;2100;2100;2200;2200;2300;2300;2400;2400;2500;2500;2400;2400;2300;2300;2200;2200;2100;2000;2000;1900;1900;1800;1700;1700;1600;1600;1500;1500;1400;1400;1300;1300;1400;1400;1500;1500;1600;1600;1700;1700;1600;1600;1500;1400;1300;1200;1100;1000;900;800;700;700;800;900;1000;1100;1200;1300;1400;1500;1600;1700;1800;1800;1900;2000;2100;2200;2300;2400;2500;2600;2600;2700;2800;2900;3000;3100;3200;3300;3200;3100;3000;2900;2800;2700;2600;2500;2400;2300;2300;2200;2100;2000;1900;1800;1700;1600;1500;1400;1400;1300;1300;1200;1200;1100;1000;900;900;800;800;700;700;600;600;700;800;900;1000;1100;1200;1300;1400;1500;1600;1700;1800;1800;1900;1900;2000;2100;2100;2200;2200;2300;2300;2400;2400;2500;2600;2700;2800;2800;2900;2900;3000;3000;3100;3200;3200;3300;3300;3200;3100;3000;2900;2900;2800;2800"/>
<animate attributeName="visibility" dur="95.48s" keyTimes="0.0;0.0029239766;1.0" repeatCount="indefinite" values="visible;visible;visible"/> </circle>
<circle cx="3000" cy="-1900" fill="#2e6f9e" r="35"> <animate attributeName="cy" dur="95.48s" keyTimes="0.0;0.0029239766;0.0058479532;0.0087719298;0.0116959064;0.014619883;0.0175438596;0.0204678363;0.0321637427;0.0350877193;0.0380116959;0.0467836257;0.0497076023;0.0526315789;0.0730994152;0.0760233918;0.0847953216;0.0877192982;0.0906432749;0.0935672515;0.1023391813;0.1052631579;0.1081871345;0.1111111111;0.1140350877;0.1169590643;0.1198830409;0.1228070175;0.1286549708;0.1315789474;0.1403508772;0.1432748538;0.1578947368;0.1608187135;0.1637426901;0.1695906433;0.1725146199;0.1754385965;0.1783625731;0.1812865497;0.1842105263;0.1871345029;0.1929824561;0.1959064327;0.1988304094;0.201754386;0.2046783626;0.2076023392;0.2134502924;0.216374269;0.2192982456;0.2251461988;0.2280701754;0.230994152;0.2339181287;0.2426900585;0.2456140351;0.2485380117;0.2573099415;0.2602339181;0.2631578947;0.2660818713;0.269005848;0.2719298246;0.2748538012;0.2777777778;0.2807017544;0.2865497076;0.2894736842;0.2923976608;0.2953216374;0.298245614;0.3011695906;0.3040935673;0.3070175439;0.3099415205;0.3128654971;0.3304093567;0.3333333333;0.3362573099;0.3391812865;0.3421052632;0.3450292398;0.3567251462;0.3596491228;0.3684210526;0.3713450292;0.3742690058;0.3771929825;0.3918128655;0.3947368421;0.3976608187;0.4035087719;0.4064327485;0.4093567251;0.4122807018;0.4239766082;0.4269005848;0.4298245614;0.432748538;0.4356725146;0.4385964912;0.4415204678;0.4444444444;0.4473684211;0.4502923977;0.4532163743;0.4561403509;0.4590643275;0.4619883041;0.4649122807;0.4678362573;0.4707602339;0.4766081871;0.4795321637;0.4824561404;0.485380117;0.4883040936;0.4912280702;0.4941520468;0.5;0.5029239766;0.5087719298;0.5116959064;0.514619883;0.5175438596;0.5204678363;0.5233918129;0.5321637427;0.5350877193;0.5380116959;0.5409356725;0.5438596491;0.5526315789;0.5555555556;0.5643274854;0.567251462;0.5701754386;0.5730994152;0.5760233918;0.581871345;0.5847953216;0.5964912281;0.5994152047;0.6023391813;0.6052631579;0.6081871345;0.6111111111;0.6140350877;0.6169590643;0.6198830409;0.6315789474;0.634502924;0.6374269006;0.6403508772;0.6432748538;0.6461988304;0.649122807;0.6520467836;0.6549707602;0.6578947368;0.6637426901;0.6666666667;0.6695906433;0.6725146199;0.6754385965;0.6900584795;0.6929824561;0.7076023392;0.7105263158;0.7134502924;0.716374269;0.7192982456;0.7280701754;0.730994152;0.7339181287;0.7368421053;0.7397660819;0.7426900585;0.7456140351;0.7485380117;0.7514619883;0.7543859649;0.7573099415;0.7602339181;0.769005848;0.7719298246;0.7923976608;0.7953216374;0.8040935673;0.8070175439;0.8157894737;0.8187134503;0.8245614035;0.8274853801;0.8333333333;0.8362573099;0.8450292398;0.8479532164;0.865497076;0.8684210526;0.8713450292;0.8771929825;0.8801169591;0.8830409357;0.8859649123;0.8888888889;0.9005847953;0.9035087719;0.9064327485;0.9122807018;0.9152046784;0.918128655;0.932748538;0.9356725146;0.9385964912;0.9415204678;0.9473684211;0.9502923977;0.9532163743;0.9561403509;0.9619883041;0.9649122807;0.9678362573;0.9707602339;0.9736842105;0.9766081871;0.9795321637;0.9824561404;0.985380117;0.9883040936;0.9941520468;0.9970760234;1.0" repeatCount="indefinite" values="-1900;-1900;-1900;-1800;-1800;-1900;-2000;-2100;-2100;-2200;-2300;-2300;-2400;-2500;-2500;-2600;-2600;-2700;-2700;-2600;-2600;-2700;-2700;-2600;-2600;-2500;-2500;-2600;-2600;-2500;-2500;-2400;-2400;-2500;-2400;-2400;-2500;-2600;-2700;-2700;-2600;-2500;-2500;-2400;-2500;-2600;-2600;-2500;-2500;-2400;-2300;-2300;-2200;-2300;-2400;-2400;-2300;-2200;-2200;-2300;-2400;-2500;-2400;-2400;-2300;-2300;-2400;-2400;-2500;-2500;-2400;-2400;-2300;-2200;-2100;-2100;-2200;-2200;-2300;-2400;-2400;-2300;-2200;-2200;-2300;-2300;-2200;-2100;-2000;-2000;-1900;-1800;-1800;-1900;-2000;-2100;-2100;-2000;-2100;-2000;-1900;-1800;-1700;-1600;-1700;-1600;-1500;-1500;-1400;-1400;-1300;-1400;-1500;-1500;-1400;-1300;-1200;-1100;-1200;-1300;-1300;-1200;-1200;-1300;-1200;-1100;-1000;-900;-900;-800;-800;-700;-800;-800;-700;-700;-800;-700;-800;-900;-900;-1000;-1000;-900;-800;-900;-800;-900;-1000;-1000;-1100;-1100;-1000;-1100;-1100;-1000;-900;-900;-1000;-900;-1000;-1000;-900;-900;-800;-900;-900;-1000;-1000;-900;-800;-800;-900;-900;-1000;-1100;-1200;-1200;-1300;-1200;-1100;-1100;-1000;-900;-1000;-1000;-1100;-1100;-1200;-1200;-1100;-1100;-1200;-1200;-1100;-1100;-1200;-1200;-1300;-1300;-1400;-1300;-1300;-1400;-1500;-1500;-1400;-1400;-1500;-1400;-1400;-1300;-1400;-1400;-1500;-1600;-1700;-1700;-1600;-1600;-1700;-1700;-1600;-1700;-1600;-1600;-1500;-1600;-1600;-1700;-1600;-1600;-1700;-1700"/>
<animate attributeName="cx" dur="95.48s" keyTimes="0.0;0.0029239766;0.0058479532;0.0087719298;0.0116959064;0.0233918129;0.0263157895;0.0292397661;0.0321637427;0.0380116959;0.0409356725;0.0438596491;0.0467836257;0.0526315789;0.0555555556;0.0584795322;0.0614035088;0.0643274854;0.067251462;0.0701754386;0.0730994152;0.0760233918;0.0789473684;0.081871345;0.0847953216;0.0877192982;0.0906432749;0.0994152047;0.1023391813;0.1052631579;0.1081871345;0.1111111111;0.1140350877;0.1228070175;0.1257309942;0.1286549708;0.1315789474;0.134502924;0.1374269006;0.1403508772;0.1461988304;0.149122807;0.1520467836;0.1549707602;0.1637426901;0.1666666667;0.1695906433;0.1783625731;0.1812865497;0.1871345029;0.1900584795;0.1929824561;0.2076023392;0.2105263158;0.2134502924;0.2192982456;0.2222222222;0.2251461988;0.2339181287;0.2368421053;0.2397660819;0.2485380117;0.2514619883;0.2543859649;0.2573099415;0.269005848;0.2719298246;0.2748538012;0.2777777778;0.2807017544;0.283625731;0.2865497076;0.2894736842;0.2923976608;0.3157894737;0.3187134503;0.3216374269;0.3245614035;0.3274853801;0.3304093567;0.3450292398;0.3479532164;0.350877193;0.3538011696;0.3567251462;0.3596491228;0.3625730994;0.365497076;0.3684210526;0.3771929825;0.3801169591;0.3830409357;0.3859649123;0.3888888889;0.3918128655;0.3976608187;0.4005847953;0.4035087719;0.4122807018;0.4152046784;0.418128655;0.4210526316;0.4239766082;0.4590643275;0.4619883041;0.4707602339;0.4736842105;0.4766081871;0.4970760234;0.5;0.5029239766;0.5058479532;0.5233918129;0.5263157895;0.5292397661;0.5350877193;0.5380116959;0.5438596491;0.5467836257;0.5497076023;0.5526315789;0.5584795322;0.5614035088;0.5643274854;0.5760233918;0.5789473684;0.581871345;0.5847953216;0.5877192982;0.5906432749;0.6140350877;0.6169590643;0.6198830409;0.6228070175;0.6257309942;0.6286549708;0.6315789474;0.6374269006;0.6403508772;0.6461988304;0.649122807;0.6578947368;0.6608187135;0.6637426901;0.6666666667;0.6695906433;0.6754385965;0.6783625731;0.6812865497;0.6842105263;0.6871345029;0.6900584795;0.6929824561;0.6959064327;0.6988304094;0.701754386;0.7046783626;0.7076023392;0.7192982456;0.7222222222;0.7251461988;0.7280701754;0.7368421053;0.7397660819;0.7485380117;0.7514619883;0.7602339181;0.7631578947;0.7660818713;0.769005848;0.7719298246;0.7748538012;0.7777777778;0.7807017544;0.783625731;0.7865497076;0.7894736842;0.7923976608;0.7953216374;0.798245614;0.8011695906;0.8040935673;0.8070175439;0.8099415205;0.8128654971;0.8157894737;0.8187134503;0.8216374269;0.8245614035;0.8274853801;0.8304093567;0.8362573099;0.8391812865;0.8479532164;0.850877193;0.8538011696;0.8567251462;0.8596491228;0.8625730994;0.865497076;0.8918128655;0.8947368421;0.8976608187;0.9005847953;0.9064327485;0.9093567251;0.918128655;0.9210526316;0.9239766082;0.9298245614;0.932748538;0.9415204678;0.9444444444;0.9502923977;0.9532163743;0.9561403509;0.9590643275;0.9619883041;0.9707602339;0.9736842105;0.9795321637;0.9824561404;0.9883040936;0.9912280702;0.9941520468;1.0" repeatCount="indefinite" values="3000;3000;3100;3100;3000;3000;2900;2900;3000;3000;2900;2800;2900;2900;2800;2800;2900;3000;2900;2800;2700;2700;2600;2500;2400;2400;2300;2300;2200;2200;2100;2100;2000;2000;1900;1800;1800;1900;1900;1800;1800;1700;1700;1800;1800;1700;1600;1600;1500;1500;1400;1300;1300;1200;1100;1100;1200;1100;1100;1200;1100;1100;1200;1300;1200;1200;1300;1300;1200;1200;1300;1400;1400;1500;1500;1400;1400;1300;1300;1200;1200;1300;1200;1100;1000;1000;1100;1100;1000;1000;900;800;900;800;900;900;800;900;900;800;700;800;700;700;600;600;700;800;800;700;700;600;600;700;600;600;700;700;600;700;600;600;700;800;800;900;1000;1000;1100;1000;1000;900;900;800;800;900;800;800;900;900;1000;1000;900;1000;1000;900;900;1000;1100;1200;1300;1200;1200;1100;1100;1000;1100;1200;1200;1100;1200;1300;1300;1400;1400;1500;1500;1600;1500;1600;1600;1700;1600;1500;1500;1400;1300;1400;1400;1300;1300;1400;1400;1500;1400;1300;1300;1400;1300;1300;1400;1400;1300;1300;1400;1500;1400;1400;1500;1400;1400;1300;1200;1100;1100;1200;1200;1300;1200;1200;1300;1300;1400;1400;1300;1300;1400;1500;1500;1400;1400;1300;1300;1200;1300;1300"/>
<animate attributeName="visibility" dur="95.48s" keyTimes="0.0;0.0029239766;1.0" repeatCount="indefinite" values="visible;visible;visible"/> </circle>
<circle cx="3500" cy="-3000" fill="none" r="35" stroke="#c1433c" stroke-width="10"> <animate attributeName="cy" dur="95.48s" keyTimes="0.0;0.0029239766;0.0760233918;0.0789473684;0.1754385965;0.1783625731;0.269005848;0.2719298246;0.3684210526;0.3713450292;0.4766081871;0.4795321637;0.5964912281;0.5994152047;0.6812865497;0.6842105263;0.7514619883;0.7543859649;0.7865497076;0.7894736842;0.8538011696;0.8567251462;0.9122807018;0.9152046784;0.9736842105;0.9766081871;1.0" repeatCount="indefinite" values="-3000;-3000;-3000;-1100;-1100;-3100;-3100;-1200;-1200;-3700;-3700;-1200;-1200;-1300;-1300;-1600;-1600;-2200;-2200;-1500;-1500;-2900;-2900;-1300;-1300;-2000;-2000"/>
<animate attributeName="cx" dur="95.48s" keyTimes="0.0;0.0029239766;0.0760233918;0.0789473684;0.1754385965;0.1783625731;0.269005848;0.2719298246;0.3684210526;0.3713450292;0.4766081871;0.4795321637;0.5614035088;0.5643274854;0.5964912281;0.5994152047;0.6812865497;0.6842105263;0.7514619883;0.7543859649;0.7865497076;0.7894736842;0.8538011696;0.8567251462;0.9122807018;0.9152046784;0.9736842105;0.9766081871;1.0" repeatCount="indefinite" values="3500;3500;3500;2000;2000;1400;1400;2500;2500;1300;1300;1700;1700;700;700;3300;3300;1200;1200;600;600;2200;2200;2800;2800;3300;3300;2500;2500"/>
<animate attributeName="visibility" dur="95.48s" keyTimes="0.0;0.0029239766;1.0" repeatCount="indefinite" values="visible;visible;visible"/> </circle>
<circle cx="2600" cy="-2600" fill="none" r="35" stroke="#2e6f9e" stroke-width="10"> <animate attributeName="cy" dur="95.48s" keyTimes="0.0;0.0029239766;0.0760233918;0.0789473684;1.0" repeatCount="indefinite" values="-2600;-2600;-2600;-900;-900"/>
<animate attributeName="cx" dur="95.48s" keyTimes="0.0;0.0029239766;0.0760233918;0.0789473684;1.0" repeatCount="indefinite" values="2600;2600;2600;700;700"/>
<animate attributeName="visibility" dur="95.48s" keyTimes="0.0;0.0029239766;1.0" repeatCount="indefinite" values="visible;visible;visible"/> </circle>
</svg>