<?xml version="1.0" encoding="UTF-8"?>
        <svg xmlns="http://www.w3.org/2000/svg" xmlns:xlink="http://www.w3.org/1999/xlink"
             width="512" height="512" viewBox="0 -3500 3500 3500">
<defs>

        <rect id="obstacle" width="70" height="70" fill="#84A1AE" rx="15"/>
        <style>
        .line {stroke: #84A1AE; stroke-width: 10;}
        .agent {r: 35;}
        .target {fill: none; stroke-width: 10; r: 35;}
        </style>
        
</defs>

<line class="line" x1="-50.0" x2="-50.0" y1="0" y2="-3500" />
<line class="line" x1="50.0" x2="50.0" y1="0" y2="-3500" />
<line class="line" x1="150.0" x2="150.0" y1="0" y2="-3500" />
<line class="line" x1="250.0" x2="250.0" y1="0" y2="-3500" />
<line class="line" x1="350.0" x2="350.0" y1="0" y2="-3500" />
<line class="line" x1="450.0" x2="450.0" y1="0" y2="-3500" />
<line class="line" x1="550.0" x2="550.0" y1="0" y2="-3500" />
<line class="line" x1="650.0" x2="650.0" y1="0" y2="-3500" />
<line class="line" x1="750.0" x2="750.0" y1="0" y2="-3500" />
<line class="line" x1="850.0" x2="850.0" y1="0" y2="-3500" />
<line class="line" x1="950.0" x2="950.0" y1="0" y2="-3500" />
<line class="line" x1="1050.0" x2="1050.0" y1="0" y2="-3500" />
<line class="line" x1="1150.0" x2="1150.0" y1="0" y2="-3500" />
<line class="line" x1="1250.0" x2="1250.0" y1="0" y2="-3500" />
<line class="line" x1="1350.0" x2="1350.0" y1="0" y2="-3500" />
<line class="line" x1="1450.0" x2="1450.0" y1="0" y2="-3500" />
<line class="line" x1="1550.0" x2="1550.0" y1="0" y2="-3500" />
<line class="line" x1="1650.0" x2="1650.0" y1="0" y2="-3500" />
<line class="line" x1="1750.0" x2="1750.0" y1="0" y2="-3500" />
<line class="line" x1="1850.0" x2="1850.0" y1="0" y2="-3500" />
<line class="line" x1="1950.0" x2="1950.0" y1="0" y2="-3500" />
<line class="line" x1="2050.0" x2="2050.0" y1="0" y2="-3500" />
<line class="line" x1="2150.0" x2="2150.0" y1="0" y2="-3500" />
<line class="line" x1="2250.0" x2="2250.0" y1="0" y2="-3500" />
<line class="line" x1="2350.0" x2="2350.0" y1="0" y2="-3500" />
<line class="line" x1="2450.0" x2="2450.0" y1="0" y2="-3500" />
<line class="line" x1="2550.0" x2="2550.0" y1="0" y2="-3500" />
<line class="line" x1="2650.0" x2="2650.0" y1="0" y2="-3500" />
<line class="line" x1="2750.0" x2="2750.0" y1="0" y2="-3500" />
<line class="line" x1="2850.0" x2="2850.0" y1="0" y2="-3500" />
<line class="line" x1="2950.0" x2="2950.0" y1="0" y2="-3500" />
<line class="line" x1="3050.0" x2="3050.0" y1="0" y2="-3500" />
<line class="line" x1="3150.0" x2="3150.0" y1="0" y2="-3500" />
<line class="line" x1="3250.0" x2="3250.0" y1="0" y2="-3500" />
<line class="line" x1="3350.0" x2="3350.0" y1="0" y2="-3500" />
<line class="line" x1="3450.0" x2="3450.0" y1="0" y2="-3500" />
<line class="line" x1="0" x2="3500" y1="50.0" y2="50.0" />
<line class="line" x1="0" x2="3500" y1="-50.0" y2="-50.0" />
<line class="line" x1="0" x2="3500" y1="-150.0" y2="-150.0" />
<line class="line" x1="0" x2="3500" y1="-250.0" y2="-250.0" />
<line class="line" x1="0" x2="3500" y1="-350.0" y2="-350.0" />
<line class="line" x1="0" x2="3500" y1="-450.0" y2="-450.0" />
<line class="line" x1="0" x2="3500" y1="-550.0" y2="-550.0" />
<line class="line" x1="0" x2="3500" y1="-650.0" y2="-650.0" />
<line class="line" x1="0" x2="3500" y1="-750.0" y2="-750.0" />
<line class="line" x1="0" x2="3500" y1="-850.0" y2="-850.0" />
<line class="line" x1="0" x2="3500" y1="-950.0" y2="-950.0" />
<line class="line" x1="0" x2="3500" y1="-1050.0" y2="-1050.0" />
<line class="line" x1="0" x2="3500" y1="-1150.0" y2="-1150.0" />
<line class="line" x1="0" x2="3500" y1="-1250.0" y2="-1250.0" />
<line class="line" x1="0" x2="3500" y1="-1350.0" y2="-1350.0" />
<line class="line" x1="0" x2="3500" y1="-1450.0" y2="-1450.0" />
<line class="line" x1="0" x2="3500" y1="-1550.0" y2="-1550.0" />
<line class="line" x1="0" x2="3500" y1="-1650.0" y2="-1650.0" />
<line class="line" x1="0" x2="3500" y1="-1750.0" y2="-1750.0" />
<line class="line" x1="0" x2="3500" y1="-1850.0" y2="-1850.0" />
<line class="line" x1="0" x2="3500" y1="-1950.0" y2="-1950.0" />
<line class="line" x1="0" x2="3500" y1="-2050.0" y2="-2050.0" />
<line class="line" x1="0" x2="3500" y1="-2150.0" y2="-2150.0" />
<line class="line" x1="0" x2="3500" y1="-2250.0" y2="-2250.0" />
<line class="line" x1="0" x2="3500" y1="-2350.0" y2="-2350.0" />
<line class="line" x1="0" x2="3500" y1="-2450.0" y2="-2450.0" />
<line class="line" x1="0" x2="3500" y1="-2550.0" y2="-2550.0" />
<line class="line" x1="0" x2="3500" y1="-2650.0" y2="-2650.0" />
<line class="line" x1="0" x2="3500" y1="-2750.0" y2="-2750.0" />
<line class="line" x1="0" x2="3500" y1="-2850.0" y2="-2850.0" />
<line class="line" x1="0" x2="3500" y1="-2950.0" y2="-2950.0" />
<line class="line" x1="0" x2="3500" y1="-3050.0" y2="-3050.0" />
<line class="line" x1="0" x2="3500" y1="-3150.0" y2="-3150.0" />
<line class="line" x1="0" x2="3500" y1="-3250.0" y2="-3250.0" />
<line class="line" x1="0" x2="3500" y1="-3350.0" y2="-3350.0" />
<line class="line" x1="0" x2="3500" y1="-3450.0" y2="-3450.0" />
<use href="#obstacle" x="65" y="-135" />
<use href="#obstacle" x="65" y="-235" />
<use href="#obstacle" x="65" y="-335" />
<use href="#obstacle" x="65" y="-435" />
<use href="#obstacle" x="65" y="-535" />
<use href="#obstacle" x="65" y="-635" />
<use href="#obstacle" x="65" y="-735" />
<use href="#obstacle" x="65" y="-835" />
<use href="#obstacle" x="65" y="-935" />
<use href="#obstacle" x="65" y="-1035" />
<use href="#obstacle" x="65" y="-1135" />
<use href="#obstacle" x="65" y="-1235" />
<use href="#obstacle" x="65" y="-1335" />
<use href="#obstacle" x="65" y="-1435" />
<use href="#obstacle" x="65" y="-1535" />
<use href="#obstacle" x="65" y="-1635" />
<use href="#obstacle" x="65" y="-1735" />
<use href="#obstacle" x="65" y="-1835" />
<use href="#obstacle" x="65" y="-1935" />
<use href="#obstacle" x="65" y="-2035" />
<use href="#obstacle" x="65" y="-2135" />
<use href="#obstacle" x="65" y="-2235" />
<use href="#obstacle" x="65" y="-2335" />
<use href="#obstacle" x="65" y="-2435" />
<use href="#obstacle" x="65" y="-2535" />
<use href="#obstacle" x="65" y="-2635" />
<use href="#obstacle" x="65" y="-2735" />
<use href="#obstacle" x="65" y="-2835" />
<use href="#obstacle" x="65" y="-2935" />
<use href="#obstacle" x="65" y="-3035" />
<use href="#obstacle" x="65" y="-3135" />
<use href="#obstacle" x="65" y="-3235" />
<use href="#obstacle" x="65" y="-3335" />
<use href="#obstacle" x="65" y="-3435" />
<use href="#obstacle" x="165" y="-135" />
<use href="#obstacle" x="165" y="-335" />
<use href="#obstacle" x="165" y="-435" />
<use href="#obstacle" x="165" y="-1635" />
<use href="#obstacle" x="165" y="-2135" />
<use href="#obstacle" x="165" y="-3435" />
<use href="#obstacle" x="265" y="-135" />
<use href="#obstacle" x="265" y="-535" />
<use href="#obstacle" x="265" y="-1235" />
<use href="#obstacle" x="265" y="-1435" />
<use href="#obstacle" x="265" y="-2035" />
<use href="#obstacle" x="265" y="-3235" />
<use href="#obstacle" x="265" y="-3435" />
<use href="#obstacle" x="365" y="-135" />
<use href="#obstacle" x="365" y="-335" />
<use href="#obstacle" x="365" y="-635" />
<use href="#obstacle" x="365" y="-935" />
<use href="#obstacle" x="365" y="-1035" />
<use href="#obstacle" x="365" y="-1435" />
<use href="#obstacle" x="365" y="-1935" />
<use href="#obstacle" x="365" y="-2735" />
<use href="#obstacle" x="365" y="-2935" />
<use href="#obstacle" x="365" y="-3135" />
<use href="#obstacle" x="365" y="-3435" />
<use href="#obstacle" x="465" y="-135" />
<use href="#obstacle" x="465" y="-435" />
<use href="#obstacle" x="465" y="-735" />
<use href="#obstacle" x="465" y="-935" />
<use href="#obstacle" x="465" y="-1035" />
<use href="#obstacle" x="465" y="-1435" />
<use href="#obstacle" x="465" y="-1635" />
<use href="#obstacle" x="465" y="-1935" />
<use href="#obstacle" x="465" y="-2135" />
<use href="#obstacle" x="465" y="-2335" />
<use href="#obstacle" x="465" y="-2435" />
<use href="#obstacle" x="465" y="-2535" />
<use href="#obstacle" x="465" y="-3035" />
<use href="#obstacle" x="465" y="-3235" />
<use href="#obstacle" x="465" y="-3435" />
<use href="#obstacle" x="565" y="-135" />
<use href="#obstacle" x="565" y="-235" />
<use href="#obstacle" x="565" y="-535" />
<use href="#obstacle" x="565" y="-835" />
<use href="#obstacle" x="565" y="-1735" />
<use href="#obstacle" x="565" y="-2035" />
<use href="#obstacle" x="565" y="-2535" />
<use href="#obstacle" x="565" y="-2635" />
<use href="#obstacle" x="565" y="-2835" />
<use href="#obstacle" x="565" y="-2935" />
<use href="#obstacle" x="565" y="-3335" />
<use href="#obstacle" x="565" y="-3435" />
<use href="#obstacle" x="665" y="-135" />
<use href="#obstacle" x="665" y="-1135" />
<use href="#obstacle" x="665" y="-1435" />
<use href="#obstacle" x="665" y="-1635" />
<use href="#obstacle" x="665" y="-2035" />
<use href="#obstacle" x="665" y="-2635" />
<use href="#obstacle" x="665" y="-2935" />
<use href="#obstacle" x="665" y="-3135" />
<use href="#obstacle" x="665" y="-3235" />
<use href="#obstacle" x="665" y="-3435" />
<use href="#obstacle" x="765" y="-135" />
<use href="#obstacle" x="765" y="-1935" />
<use href="#obstacle" x="765" y="-2135" />
<use href="#obstacle" x="765" y="-2535" />
<use href="#obstacle" x="765" y="-2735" />
<use href="#obstacle" x="765" y="-2835" />
<use href="#obstacle" x="765" y="-3135" />
<use href="#obstacle" x="765" y="-3435" />
<use href="#obstacle" x="865" y="-135" />
<use href="#obstacle" x="865" y="-1035" />
<use href="#obstacle" x="865" y="-1235" />
<use href="#obstacle" x="865" y="-1335" />
<use href="#obstacle" x="865" y="-1535" />
<use href="#obstacle" x="865" y="-1835" />
<use href="#obstacle" x="865" y="-2435" />
<use href="#obstacle" x="865" y="-2635" />
<use href="#obstacle" x="865" y="-2835" />
<use href="#obstacle" x="865" y="-3035" />
<use href="#obstacle" x="865" y="-3435" />
<use href="#obstacle" x="965" y="-135" />
<use href="#obstacle" x="965" y="-1135" />
<use href="#obstacle" x="965" y="-1335" />
<use href="#obstacle" x="965" y="-1535" />
<use href="#obstacle" x="965" y="-1735" />
<use href="#obstacle" x="965" y="-2335" />
<use href="#obstacle" x="965" y="-3135" />
<use href="#obstacle" x="965" y="-3435" />
<use href="#obstacle" x="1065" y="-135" />
<use href="#obstacle" x="1065" y="-535" />
<use href="#obstacle" x="1065" y="-835" />
<use href="#obstacle" x="1065" y="-1235" />
<use href="#obstacle" x="1065" y="-1635" />
<use href="#obstacle" x="1065" y="-1735" />
<use href="#obstacle" x="1065" y="-2335" />
<use href="#obstacle" x="1065" y="-2535" />
<use href="#obstacle" x="1065" y="-2635" />
<use href="#obstacle" x="1065" y="-2735" />
<use href="#obstacle" x="1065" y="-2935" />
<use href="#obstacle" x="1065" y="-3035" />
<use href="#obstacle" x="1065" y="-3435" />
<use href="#obstacle" x="1165" y="-135" />
<use href="#obstacle" x="1165" y="-235" />
<use href="#obstacle" x="1165" y="-735" />
<use href="#obstacle" x="1165" y="-935" />
<use href="#obstacle" x="1165" y="-1335" />
<use href="#obstacle" x="1165" y="-1435" />
<use href="#obstacle" x="1165" y="-1735" />
<use href="#obstacle" x="1165" y="-1835" />
<use href="#obstacle" x="1165" y="-2035" />
<use href="#obstacle" x="1165" y="-2235" />
<use href="#obstacle" x="1165" y="-2835" />
<use href="#obstacle" x="1165" y="-3135" />
<use href="#obstacle" x="1165" y="-3335" />
<use href="#obstacle" x="1165" y="-3435" />
<use href="#obstacle" x="1265" y="-135" />
<use href="#obstacle" x="1265" y="-235" />
<use href="#obstacle" x="1265" y="-335" />
<use href="#obstacle" x="1265" y="-735" />
<use href="#obstacle" x="1265" y="-835" />
<use href="#obstacle" x="1265" y="-1135" />
<use href="#obstacle" x="1265" y="-1235" />
<use href="#obstacle" x="1265" y="-1335" />
<use href="#obstacle" x="1265" y="-1535" />
<use href="#obstacle" x="1265" y="-1635" />
<use href="#obstacle" x="1265" y="-2035" />
<use href="#obstacle" x="1265" y="-2535" />
<use href="#obstacle" x="1265" y="-2635" />
<use href="#obstacle" x="1265" y="-2735" />
<use href="#obstacle" x="1265" y="-3235" />
<use href="#obstacle" x="1265" y="-3435" />
<use href="#obstacle" x="1365" y="-135" />
<use href="#obstacle" x="1365" y="-335" />
<use href="#obstacle" x="1365" y="-435" />
<use href="#obstacle" x="1365" y="-635" />
<use href="#obstacle" x="1365" y="-1935" />
<use href="#obstacle" x="1365" y="-2035" />
<use href="#obstacle" x="1365" y="-2135" />
<use href="#obstacle" x="1365" y="-2535" />
<use href="#obstacle" x="1365" y="-2835" />
<use href="#obstacle" x="1365" y="-3335" />
<use href="#obstacle" x="1365" y="-3435" />
<use href="#obstacle" x="1465" y="-135" />
<use href="#obstacle" x="1465" y="-535" />
<use href="#obstacle" x="1465" y="-735" />
<use href="#obstacle" x="1465" y="-835" />
<use href="#obstacle" x="1465" y="-1035" />
<use href="#obstacle" x="1465" y="-1235" />
<use href="#obstacle" x="1465" y="-1735" />
<use href="#obstacle" x="1465" y="-2235" />
<use href="#obstacle" x="1465" y="-2535" />
<use href="#obstacle" x="1465" y="-3135" />
<use href="#obstacle" x="1465" y="-3435" />
<use href="#obstacle" x="1565" y="-135" />
<use href="#obstacle" x="1565" y="-835" />
<use href="#obstacle" x="1565" y="-935" />
<use href="#obstacle" x="1565" y="-1035" />
<use href="#obstacle" x="1565" y="-1635" />
<use href="#obstacle" x="1565" y="-1835" />
<use href="#obstacle" x="1565" y="-2235" />
<use href="#obstacle" x="1565" y="-2735" />
<use href="#obstacle" x="1565" y="-2935" />
<use href="#obstacle" x="1565" y="-3035" />
<use href="#obstacle" x="1565" y="-3235" />
<use href="#obstacle" x="1565" y="-3435" />
<use href="#obstacle" x="1665" y="-135" />
<use href="#obstacle" x="1665" y="-335" />
<use href="#obstacle" x="1665" y="-535" />
<use href="#obstacle" x="1665" y="-735" />
<use href="#obstacle" x="1665" y="-835" />
<use href="#obstacle" x="1665" y="-1935" />
<use href="#obstacle" x="1665" y="-2535" />
<use href="#obstacle" x="1665" y="-2735" />
<use href="#obstacle" x="1665" y="-3135" />
<use href="#obstacle" x="1665" y="-3435" />
<use href="#obstacle" x="1765" y="-135" />
<use href="#obstacle" x="1765" y="-435" />
<use href="#obstacle" x="1765" y="-635" />
<use href="#obstacle" x="1765" y="-735" />
<use href="#obstacle" x="1765" y="-1035" />
<use href="#obstacle" x="1765" y="-1135" />
<use href="#obstacle" x="1765" y="-1435" />
<use href="#obstacle" x="1765" y="-1535" />
<use href="#obstacle" x="1765" y="-1835" />
<use href="#obstacle" x="1765" y="-2535" />
<use href="#obstacle" x="1765" y="-2835" />
<use href="#obstacle" x="1765" y="-2935" />
<use href="#obstacle" x="1765" y="-3035" />
<use href="#obstacle" x="1765" y="-3135" />
<use href="#obstacle" x="1765" y="-3435" />
<use href="#obstacle" x="1865" y="-135" />
<use href="#obstacle" x="1865" y="-235" />
<use href="#obstacle" x="1865" y="-335" />
<use href="#obstacle" x="1865" y="-835" />
<use href="#obstacle" x="1865" y="-935" />
<use href="#obstacle" x="1865" y="-1235" />
<use href="#obstacle" x="1865" y="-1935" />
<use href="#obstacle" x="1865" y="-2235" />
<use href="#obstacle" x="1865" y="-2435" />
<use href="#obstacle" x="1865" y="-3035" />
<use href="#obstacle" x="1865" y="-3435" />
<use href="#obstacle" x="1965" y="-135" />
<use href="#obstacle" x="1965" y="-235" />
<use href="#obstacle" x="1965" y="-535" />
<use href="#obstacle" x="1965" y="-635" />
<use href="#obstacle" x="1965" y="-735" />
<use href="#obstacle" x="1965" y="-1335" />
<use href="#obstacle" x="1965" y="-1635" />
<use href="#obstacle" x="1965" y="-2535" />
<use href="#obstacle" x="1965" y="-3035" />
<use href="#obstacle" x="1965" y="-3235" />
<use href="#obstacle" x="1965" y="-3435" />
<use href="#obstacle" x="2065" y="-135" />
<use href="#obstacle" x="2065" y="-335" />
<use href="#obstacle" x="2065" y="-435" />
<use href="#obstacle" x="2065" y="-635" />
<use href="#obstacle" x="2065" y="-735" />
<use href="#obstacle" x="2065" y="-935" />
<use href="#obstacle" x="2065" y="-1035" />
<use href="#obstacle" x="2065" y="-1135" />
<use href="#obstacle" x="2065" y="-1435" />
<use href="#obstacle" x="2065" y="-1635" />
<use href="#obstacle" x="2065" y="-2435" />
<use href="#obstacle" x="2065" y="-2935" />
<use href="#obstacle" x="2065" y="-3035" />
<use href="#obstacle" x="2065" y="-3135" />
<use href="#obstacle" x="2065" y="-3235" />
<use href="#obstacle" x="2065" y="-3435" />
<use href="#obstacle" x="2165" y="-135" />
<use href="#obstacle" x="2165" y="-935" />
<use href="#obstacle" x="2165" y="-1035" />
<use href="#obstacle" x="2165" y="-1135" />
<use href="#obstacle" x="2165" y="-1335" />
<use href="#obstacle" x="2165" y="-1435" />
<use href="#obstacle" x="2165" y="-1735" />
<use href="#obstacle" x="2165" y="-2035" />
<use href="#obstacle" x="2165" y="-3135" />
<use href="#obstacle" x="2165" y="-3435" />
<use href="#obstacle" x="2265" y="-135" />
<use href="#obstacle" x="2265" y="-235" />
<use href="#obstacle" x="2265" y="-635" />
<use href="#obstacle" x="2265" y="-835" />
<use href="#obstacle" x="2265" y="-935" />
<use href="#obstacle" x="2265" y="-1135" />
<use href="#obstacle" x="2265" y="-1335" />
<use href="#obstacle" x="2265" y="-1635" />
<use href="#obstacle" x="2265" y="-1735" />
<use href="#obstacle" x="2265" y="-2035" />
<use href="#obstacle" x="2265" y="-2235" />
<use href="#obstacle" x="2265" y="-2835" />
<use href="#obstacle" x="2265" y="-3135" />
<use href="#obstacle" x="2265" y="-3435" />
<use href="#obstacle" x="2365" y="-135" />
<use href="#obstacle" x="2365" y="-435" />
<use href="#obstacle" x="2365" y="-535" />
<use href="#obstacle" x="2365" y="-635" />
<use href="#obstacle" x="2365" y="-735" />
<use href="#obstacle" x="2365" y="-835" />
<use href="#obstacle" x="2365" y="-935" />
<use href="#obstacle" x="2365" y="-1635" />
<use href="#obstacle" x="2365" y="-2235" />
<use href="#obstacle" x="2365" y="-2435" />
<use href="#obstacle" x="2365" y="-3035" />
<use href="#obstacle" x="2365" y="-3335" />
<use href="#obstacle" x="2365" y="-3435" />
<use href="#obstacle" x="2465" y="-135" />
<use href="#obstacle" x="2465" y="-235" />
<use href="#obstacle" x="2465" y="-635" />
<use href="#obstacle" x="2465" y="-935" />
<use href="#obstacle" x="2465" y="-1035" />
<use href="#obstacle" x="2465" y="-1235" />
<use href="#obstacle" x="2465" y="-2235" />
<use href="#obstacle" x="2465" y="-2335" />
<use href="#obstacle" x="2465" y="-2635" />
<use href="#obstacle" x="2465" y="-2935" />
<use href="#obstacle" x="2465" y="-3035" />
<use href="#obstacle" x="2465" y="-3335" />
<use href="#obstacle" x="2465" y="-3435" />
<use href="#obstacle" x="2565" y="-135" />
<use href="#obstacle" x="2565" y="-435" />
<use href="#obstacle" x="2565" y="-535" />
<use href="#obstacle" x="2565" y="-635" />
<use href="#obstacle" x="2565" y="-735" />
<use href="#obstacle" x="2565" y="-935" />
<use href="#obstacle" x="2565" y="-1235" />
<use href="#obstacle" x="2565" y="-1835" />
<use href="#obstacle" x="2565" y="-2335" />
<use href="#obstacle" x="2565" y="-2535" />
<use href="#obstacle" x="2565" y="-2635" />
<use href="#obstacle" x="2565" y="-2735" />
<use href="#obstacle" x="2565" y="-2835" />
<use href="#obstacle" x="2565" y="-3435" />
<use href="#obstacle" x="2665" y="-135" />
<use href="#obstacle" x="2665" y="-235" />
<use href="#obstacle" x="2665" y="-435" />
<use href="#obstacle" x="2665" y="-535" />
<use href="#obstacle" x="2665" y="-1035" />
<use href="#obstacle" x="2665" y="-1235" />
<use href="#obstacle" x="2665" y="-1335" />
<use href="#obstacle" x="2665" y="-1835" />
<use href="#obstacle" x="2665" y="-1935" />
<use href="#obstacle" x="2665" y="-2035" />
<use href="#obstacle" x="2665" y="-2735" />
<use href="#obstacle" x="2665" y="-2835" />
<use href="#obstacle" x="2665" y="-3435" />
<use href="#obstacle" x="2765" y="-135" />
<use href="#obstacle" x="2765" y="-735" />
<use href="#obstacle" x="2765" y="-835" />
<use href="#obstacle" x="2765" y="-935" />
<use href="#obstacle" x="2765" y="-1035" />
<use href="#obstacle" x="2765" y="-1135" />
<use href="#obstacle" x="2765" y="-1635" />
<use href="#obstacle" x="2765" y="-2435" />
<use href="#obstacle" x="2765" y="-2735" />
<use href="#obstacle" x="2765" y="-3035" />
<use href="#obstacle" x="2765" y="-3435" />
<use href="#obstacle" x="2865" y="-135" />
<use href="#obstacle" x="2865" y="-335" />
<use href="#obstacle" x="2865" y="-435" />
<use href="#obstacle" x="2865" y="-835" />
<use href="#obstacle" x="2865" y="-1035" />
<use href="#obstacle" x="2865" y="-1435" />
<use href="#obstacle" x="2865" y="-1535" />
<use href="#obstacle" x="2865" y="-3035" />
<use href="#obstacle" x="2865" y="-3435" />
<use href="#obstacle" x="2965" y="-135" />
<use href="#obstacle" x="2965" y="-935" />
<use href="#obstacle" x="2965" y="-1335" />
<use href="#obstacle" x="2965" y="-1735" />
<use href="#obstacle" x="2965" y="-2035" />
<use href="#obstacle" x="2965" y="-2435" />
<use href="#obstacle" x="2965" y="-2835" />
<use href="#obstacle" x="2965" y="-2935" />
<use href="#obstacle" x="2965" y="-3435" />
<use href="#obstacle" x="3065" y="-135" />
<use href="#obstacle" x="3065" y="-235" />
<use href="#obstacle" x="3065" y="-335" />
<use href="#obstacle" x="3065" y="-935" />
<use href="#obstacle" x="3065" y="-1235" />
<use href="#obstacle" x="3065" y="-1635" />
<use href="#obstacle" x="3065" y="-1935" />
<use href="#obstacle" x="3065" y="-2335" />
<use href="#obstacle" x="3065" y="-2735" />
<use href="#obstacle" x="3065" y="-2935" />
<use href="#obstacle" x="3065" y="-3135" />
<use href="#obstacle" x="3065" y="-3235" />
<use href="#obstacle" x="3065" y="-3435" />
<use href="#obstacle" x="3165" y="-135" />
<use href="#obstacle" x="3165" y="-735" />
<use href="#obstacle" x="3165" y="-1035" />
<use href="#obstacle" x="3165" y="-1435" />
<use href="#obstacle" x="3165" y="-1635" />
<use href="#obstacle" x="3165" y="-1735" />
<use href="#obstacle" x="3165" y="-1835" />
<use href="#obstacle" x="3165" y="-2535" />
<use href="#obstacle" x="3165" y="-2635" />
<use href="#obstacle" x="3165" y="-2735" />
<use href="#obstacle" x="3165" y="-3235" />
<use href="#obstacle" x="3165" y="-3335" />
<use href="#obstacle" x="3165" y="-3435" />
<use href="#obstacle" x="3265" y="-135" />
<use href="#obstacle" x="3265" y="-935" />
<use href="#obstacle" x="3265" y="-1035" />
<use href="#obstacle" x="3265" y="-2535" />
<use href="#obstacle" x="3265" y="-3035" />
<use href="#obstacle" x="3265" y="-3435" />
<use href="#obstacle" x="3365" y="-135" />
<use href="#obstacle" x="3365" y="-235" />
<use href="#obstacle" x="3365" y="-335" />
<use href="#obstacle" x="3365" y="-435" />
<use href="#obstacle" x="3365" y="-535" />
<use href="#obstacle" x="3365" y="-635" />
<use href="#obstacle" x="3365" y="-735" />
<use href="#obstacle" x="3365" y="-835" />
<use href="#obstacle" x="3365" y="-935" />
<use href="#obstacle" x="3365" y="-1035" />
<use href="#obstacle" x="3365" y="-1135" />
<use href="#obstacle" x="3365" y="-1235" />
<use href="#obstacle" x="3365" y="-1335" />
<use href="#obstacle" x="3365" y="-1435" />
<use href="#obstacle" x="3365" y="-1535" />
<use href="#obstacle" x="3365" y="-1635" />
<use href="#obstacle" x="3365" y="-1735" />
<use href="#obstacle" x="3365" y="-1835" />
<use href="#obstacle" x="3365" y="-1935" />
<use href="#obstacle" x="3365" y="-2035" />
<use href="#obstacle" x="3365" y="-2135" />
<use href="#obstacle" x="3365" y="-2235" />
<use href="#obstacle" x="3365" y="-2335" />
<use href="#obstacle" x="3365" y="-2435" />
<use href="#obstacle" x="3365" y="-2535" />
<use href="#obstacle" x="3365" y="-2635" />
<use href="#obstacle" x="3365" y="-2735" />
<use href="#obstacle" x="3365" y="-2835" />
<use href="#obstacle" x="3365" y="-2935" />
<use href="#obstacle" x="3365" y="-3035" />
<use href="#obstacle" x="3365" y="-3135" />
<use href="#obstacle" x="3365" y="-3235" />
<use href="#obstacle" x="3365" y="-3335" />
<use href="#obstacle" x="3365" y="-3435" />
<circle class="agent" cx="2800" cy="-2200" fill="#c1433c" r="35"> <animate attributeName="cy" dur="17.5s" keyTimes="0.0;0.014084507;0.0563380282;0.0704225352;0.0845070423;0.1549295775;0.1690140845;0.2676056338;0.2816901408;0.4366197183;0.4507042254;0.4647887324;0.5915492958;0.6056338028;0.6478873239;0.661971831;0.676056338;0.6901408451;0.7042253521;0.7183098592;0.7605633803;0.7746478873;0.8028169014;0.8169014085;0.8450704225;0.8591549296;0.9014084507;0.9154929577;1.0" repeatCount="indefinite" values="-2200;-2200;-2200;-2300;-2400;-2400;-2500;-2500;-2600;-2600;-2500;-2400;-2400;-2500;-2500;-2600;-2700;-2800;-2900;-2800;-2800;-2900;-2900;-3000;-3000;-2900;-2900;-3000;-3000"/>
<animate attributeName="cx" dur="17.5s" keyTimes="0.0;0.014084507;0.0422535211;0.0563380282;0.0845070423;0.0985915493;0.1408450704;0.1549295775;0.1690140845;0.1830985915;0.1971830986;0.2394366197;0.2535211268;0.2676056338;0.2816901408;0.2957746479;0.338028169;0.3521126761;0.3661971831;0.3802816901;0.3943661972;0.4647887324;0.4788732394;0.4929577465;0.5070422535;0.5492957746;0.5633802817;0.5774647887;0.5915492958;0.7746478873;0.7887323944;0.8028169014;0.9154929577;0.9295774648;0.9436619718;1.0" repeatCount="indefinite" values="2800;2800;2800;2700;2700;2600;2600;2500;2500;2400;2300;2300;2200;2100;2100;2000;2000;1900;1800;1700;1600;1600;1500;1400;1300;1300;1200;1100;1000;1000;900;800;800;700;600;600"/>
<animate attributeName="visibility" dur="17.5s" keyTimes="0.0;0.014084507;1.0" repeatCount="indefinite" values="visible;visible;visible"/> </circle>
<circle class="agent" cx="400" cy="-400" fill="#2e6f9e" r="35"> <animate attributeName="cy" dur="17.5s" keyTimes="0.0;0.014084507;0.0281690141;0.0422535211;0.0563380282;0.0985915493;0.1126760563;0.1267605634;0.1549295775;0.1690140845;0.1830985915;0.1971830986;0.2394366197;0.2535211268;0.2957746479;0.3098591549;0.323943662;0.338028169;0.3521126761;0.3661971831;0.3802816901;0.3943661972;0.4929577465;0.5070422535;0.5211267606;0.5352112676;0.5633802817;0.5774647887;0.6338028169;0.6478873239;0.661971831;0.676056338;0.6901408451;0.7183098592;0.7323943662;0.7464788732;0.7605633803;0.7746478873;0.7887323944;0.8028169014;0.8732394366;0.8873239437;0.9014084507;0.9154929577;0.9295774648;0.9436619718;0.9577464789;0.9718309859;1.0" repeatCount="indefinite" values="-400;-400;-500;-500;-600;-600;-700;-800;-800;-900;-900;-1000;-1000;-1100;-1100;-1200;-1200;-1300;-1300;-1400;-1400;-1500;-1500;-1400;-1400;-1300;-1300;-1200;-1200;-1100;-1000;-900;-800;-800;-700;-600;-500;-500;-400;-300;-300;-400;-500;-600;-600;-700;-700;-800;-800"/>
<animate attributeName="cx" dur="17.5s" keyTimes="0.0;0.014084507;0.0281690141;0.0422535211;0.0563380282;0.0704225352;0.0845070423;0.0985915493;0.1267605634;0.1408450704;0.1549295775;0.1690140845;0.1830985915;0.1971830986;0.2112676056;0.2253521127;0.2394366197;0.2535211268;0.2676056338;0.2816901408;0.2957746479;0.3098591549;0.323943662;0.338028169;0.3521126761;0.3661971831;0.3802816901;0.3943661972;0.4084507042;0.4225352113;0.4366197183;0.4507042254;0.4647887324;0.4788732394;0.4929577465;0.5070422535;0.5211267606;0.5352112676;0.5492957746;0.5633802817;0.5774647887;0.5915492958;0.6056338028;0.6197183099;0.6338028169;0.6901408451;0.7042253521;0.7183098592;0.7605633803;0.7746478873;0.8028169014;0.8169014085;0.8309859155;0.8450704225;0.8591549296;0.8732394366;0.9154929577;0.9295774648;0.9436619718;0.9577464789;0.9718309859;0.985915493;1.0" repeatCount="indefinite" values="400;400;400;500;500;600;700;800;800;900;1000;1000;1100;1100;1200;1300;1400;1400;1500;1600;1700;1700;1800;1800;1900;1900;2000;2000;2100;2200;2300;2400;2500;2600;2700;2700;2600;2600;2500;2400;2400;2300;2200;2100;2000;2000;2100;2200;2200;2300;2300;2400;2500;2600;2700;2800;2800;2900;2900;3000;3000;3100;3100"/>
<animate attributeName="visibility" dur="17.5s" keyTimes="0.0;0.014084507;1.0" repeatCount="indefinite" values="visible;visible;visible"/> </circle>
<circle class="target" cx="600" cy="-3000" r="35" stroke="#c1433c"> <animate attributeName="visibility" dur="17.5s" keyTimes="0.0;0.014084507;1.0" repeatCount="indefinite" values="visible;visible;visible"/> </circle>
<circle class="target" cx="3100" cy="-800" r="35" stroke="#2e6f9e"> <animate attributeName="visibility" dur="17.5s" keyTimes="0.0;0.014084507;1.0" repeatCount="indefinite" values="visible;visible;visible"/> </circle>
</svg>