<?xml version="1.0" encoding="UTF-8"?>
        <svg xmlns="http://www.w3.org/2000/svg" xmlns:xlink="http://www.w3.org/1999/xlink"
             width="430" height="430" viewBox="0 -4300 4300 4300">

<defs>

</defs>

<rect fill="#84A1AE" height="70" rx="15" width="70" x="465" y="-535" />
<rect fill="#84A1AE" height="70" rx="15" width="70" x="465" y="-635" />
<rect fill="#84A1AE" height="70" rx="15" width="70" x="465" y="-735" />
<rect fill="#84A1AE" height="70" rx="15" width="70" x="465" y="-835" />
<rect fill="#84A1AE" height="70" rx="15" width="70" x="465" y="-935" />
<rect fill="#84A1AE" height="70" rx="15" width="70" x="465" y="-1035" />
<rect fill="#84A1AE" height="70" rx="15" width="70" x="465" y="-1135" />
<rect fill="#84A1AE" height="70" rx="15" width="70" x="465" y="-1235" />
<rect fill="#84A1AE" height="70" rx="15" width="70" x="465" y="-1335" />
<rect fill="#84A1AE" height="70" rx="15" width="70" x="465" y="-1435" />
<rect fill="#84A1AE" height="70" rx="15" width="70" x="465" y="-1535" />
<rect fill="#84A1AE" height="70" rx="15" width="70" x="465" y="-1635" />
<rect fill="#84A1AE" height="70" rx="15" width="70" x="465" y="-1735" />
<rect fill="#84A1AE" height="70" rx="15" width="70" x="465" y="-1835" />
<rect fill="#84A1AE" height="70" rx="15" width="70" x="465" y="-1935" />
<rect fill="#84A1AE" height="70" rx="15" width="70" x="465" y="-2035" />
<rect fill="#84A1AE" height="70" rx="15" width="70" x="465" y="-2135" />
<rect fill="#84A1AE" height="70" rx="15" width="70" x="465" y="-2235" />
<rect fill="#84A1AE" height="70" rx="15" width="70" x="465" y="-2335" />
<rect fill="#84A1AE" height="70" rx="15" width="70" x="465" y="-2435" />
<rect fill="#84A1AE" height="70" rx="15" width="70" x="465" y="-2535" />
<rect fill="#84A1AE" height="70" rx="15" width="70" x="465" y="-2635" />
<rect fill="#84A1AE" height="70" rx="15" width="70" x="465" y="-2735" />
<rect fill="#84A1AE" height="70" rx="15" width="70" x="465" y="-2835" />
<rect fill="#84A1AE" height="70" rx="15" width="70" x="465" y="-2935" />
<rect fill="#84A1AE" height="70" rx="15" width="70" x="465" y="-3035" />
<rect fill="#84A1AE" height="70" rx="15" width="70" x="465" y="-3135" />
<rect fill="#84A1AE" height="70" rx="15" width="70" x="465" y="-3235" />
<rect fill="#84A1AE" height="70" rx="15" width="70" x="465" y="-3335" />
<rect fill="#84A1AE" height="70" rx="15" width="70" x="465" y="-3435" />
<rect fill="#84A1AE" height="70" rx="15" width="70" x="465" y="-3535" />
<rect fill="#84A1AE" height="70" rx="15" width="70" x="465" y="-3635" />
<rect fill="#84A1AE" height="70" rx="15" width="70" x="465" y="-3735" />
<rect fill="#84A1AE" height="70" rx="15" width="70" x="465" y="-3835" />
<rect fill="#84A1AE" height="70" rx="15" width="70" x="565" y="-535" />
<rect fill="#84A1AE" height="70" rx="15" width="70" x="565" y="-1735" />
<rect fill="#84A1AE" height="70" rx="15" width="70" x="565" y="-3835" />
<rect fill="#84A1AE" height="70" rx="15" width="70" x="665" y="-535" />
<rect fill="#84A1AE" height="70" rx="15" width="70" x="665" y="-1835" />
<rect fill="#84A1AE" height="70" rx="15" width="70" x="665" y="-2835" />
<rect fill="#84A1AE" height="70" rx="15" width="70" x="665" y="-3835" />
<rect fill="#84A1AE" height="70" rx="15" width="70" x="765" y="-535" />
<rect fill="#84A1AE" height="70" rx="15" width="70" x="765" y="-735" />
<rect fill="#84A1AE" height="70" rx="15" width="70" x="765" y="-1935" />
<rect fill="#84A1AE" height="70" rx="15" width="70" x="765" y="-2035" />
<rect fill="#84A1AE" height="70" rx="15" width="70" x="765" y="-2335" />
<rect fill="#84A1AE" height="70" rx="15" width="70" x="765" y="-2635" />
<rect fill="#84A1AE" height="70" rx="15" width="70" x="765" y="-3435" />
<rect fill="#84A1AE" height="70" rx="15" width="70" x="765" y="-3835" />
<rect fill="#84A1AE" height="70" rx="15" width="70" x="865" y="-535" />
<rect fill="#84A1AE" height="70" rx="15" width="70" x="865" y="-735" />
<rect fill="#84A1AE" height="70" rx="15" width="70" x="865" y="-2535" />
<rect fill="#84A1AE" height="70" rx="15" width="70" x="865" y="-3035" />
<rect fill="#84A1AE" height="70" rx="15" width="70" x="865" y="-3735" />
<rect fill="#84A1AE" height="70" rx="15" width="70" x="865" y="-3835" />
<rect fill="#84A1AE" height="70" rx="15" width="70" x="965" y="-535" />
<rect fill="#84A1AE" height="70" rx="15" width="70" x="965" y="-735" />
<rect fill="#84A1AE" height="70" rx="15" width="70" x="965" y="-1035" />
<rect fill="#84A1AE" height="70" rx="15" width="70" x="965" y="-1935" />
<rect fill="#84A1AE" height="70" rx="15" width="70" x="965" y="-3735" />
<rect fill="#84A1AE" height="70" rx="15" width="70" x="965" y="-3835" />
<rect fill="#84A1AE" height="70" rx="15" width="70" x="1065" y="-535" />
<rect fill="#84A1AE" height="70" rx="15" width="70" x="1065" y="-1335" />
<rect fill="#84A1AE" height="70" rx="15" width="70" x="1065" y="-3035" />
<rect fill="#84A1AE" height="70" rx="15" width="70" x="1065" y="-3535" />
<rect fill="#84A1AE" height="70" rx="15" width="70" x="1065" y="-3835" />
<rect fill="#84A1AE" height="70" rx="15" width="70" x="1165" y="-535" />
<rect fill="#84A1AE" height="70" rx="15" width="70" x="1165" y="-1635" />
<rect fill="#84A1AE" height="70" rx="15" width="70" x="1165" y="-2435" />
<rect fill="#84A1AE" height="70" rx="15" width="70" x="1165" y="-2835" />
<rect fill="#84A1AE" height="70" rx="15" width="70" x="1165" y="-3335" />
<rect fill="#84A1AE" height="70" rx="15" width="70" x="1165" y="-3835" />
<rect fill="#84A1AE" height="70" rx="15" width="70" x="1265" y="-535" />
<rect fill="#84A1AE" height="70" rx="15" width="70" x="1265" y="-1535" />
<rect fill="#84A1AE" height="70" rx="15" width="70" x="1265" y="-2035" />
<rect fill="#84A1AE" height="70" rx="15" width="70" x="1265" y="-2635" />
<rect fill="#84A1AE" height="70" rx="15" width="70" x="1265" y="-3835" />
<rect fill="#84A1AE" height="70" rx="15" width="70" x="1365" y="-535" />
<rect fill="#84A1AE" height="70" rx="15" width="70" x="1365" y="-935" />
<rect fill="#84A1AE" height="70" rx="15" width="70" x="1365" y="-1535" />
<rect fill="#84A1AE" height="70" rx="15" width="70" x="1365" y="-3335" />
<rect fill="#84A1AE" height="70" rx="15" width="70" x="1365" y="-3835" />
<rect fill="#84A1AE" height="70" rx="15" width="70" x="1465" y="-535" />
<rect fill="#84A1AE" height="70" rx="15" width="70" x="1465" y="-935" />
<rect fill="#84A1AE" height="70" rx="15" width="70" x="1465" y="-1135" />
<rect fill="#84A1AE" height="70" rx="15" width="70" x="1465" y="-1335" />
<rect fill="#84A1AE" height="70" rx="15" width="70" x="1465" y="-1435" />
<rect fill="#84A1AE" height="70" rx="15" width="70" x="1465" y="-2535" />
<rect fill="#84A1AE" height="70" rx="15" width="70" x="1465" y="-3835" />
<rect fill="#84A1AE" height="70" rx="15" width="70" x="1565" y="-535" />
<rect fill="#84A1AE" height="70" rx="15" width="70" x="1565" y="-1835" />
<rect fill="#84A1AE" height="70" rx="15" width="70" x="1565" y="-3835" />
<rect fill="#84A1AE" height="70" rx="15" width="70" x="1665" y="-535" />
<rect fill="#84A1AE" height="70" rx="15" width="70" x="1665" y="-2035" />
<rect fill="#84A1AE" height="70" rx="15" width="70" x="1665" y="-2435" />
<rect fill="#84A1AE" height="70" rx="15" width="70" x="1665" y="-3535" />
<rect fill="#84A1AE" height="70" rx="15" width="70" x="1665" y="-3835" />
<rect fill="#84A1AE" height="70" rx="15" width="70" x="1765" y="-535" />
<rect fill="#84A1AE" height="70" rx="15" width="70" x="1765" y="-1135" />
<rect fill="#84A1AE" height="70" rx="15" width="70" x="1765" y="-2235" />
<rect fill="#84A1AE" height="70" rx="15" width="70" x="1765" y="-3835" />
<rect fill="#84A1AE" height="70" rx="15" width="70" x="1865" y="-535" />
<rect fill="#84A1AE" height="70" rx="15" width="70" x="1865" y="-1635" />
<rect fill="#84A1AE" height="70" rx="15" width="70" x="1865" y="-3235" />
<rect fill="#84A1AE" height="70" rx="15" width="70" x="1865" y="-3835" />
<rect fill="#84A1AE" height="70" rx="15" width="70" x="1965" y="-535" />
<rect fill="#84A1AE" height="70" rx="15" width="70" x="1965" y="-935" />
<rect fill="#84A1AE" height="70" rx="15" width="70" x="1965" y="-1335" />
<rect fill="#84A1AE" height="70" rx="15" width="70" x="1965" y="-2035" />
<rect fill="#84A1AE" height="70" rx="15" width="70" x="1965" y="-3635" />
<rect fill="#84A1AE" height="70" rx="15" width="70" x="1965" y="-3835" />
<rect fill="#84A1AE" height="70" rx="15" width="70" x="2065" y="-535" />
<rect fill="#84A1AE" height="70" rx="15" width="70" x="2065" y="-735" />
<rect fill="#84A1AE" height="70" rx="15" width="70" x="2065" y="-3835" />
<rect fill="#84A1AE" height="70" rx="15" width="70" x="2165" y="-535" />
<rect fill="#84A1AE" height="70" rx="15" width="70" x="2165" y="-3835" />
<rect fill="#84A1AE" height="70" rx="15" width="70" x="2265" y="-535" />
<rect fill="#84A1AE" height="70" rx="15" width="70" x="2265" y="-3835" />
<rect fill="#84A1AE" height="70" rx="15" width="70" x="2365" y="-535" />
<rect fill="#84A1AE" height="70" rx="15" width="70" x="2365" y="-3835" />
<rect fill="#84A1AE" height="70" rx="15" width="70" x="2465" y="-535" />
<rect fill="#84A1AE" height="70" rx="15" width="70" x="2465" y="-1535" />
<rect fill="#84A1AE" height="70" rx="15" width="70" x="2465" y="-2135" />
<rect fill="#84A1AE" height="70" rx="15" width="70" x="2465" y="-2735" />
<rect fill="#84A1AE" height="70" rx="15" width="70" x="2465" y="-3335" />
<rect fill="#84A1AE" height="70" rx="15" width="70" x="2465" y="-3535" />
<rect fill="#84A1AE" height="70" rx="15" width="70" x="2465" y="-3835" />
<rect fill="#84A1AE" height="70" rx="15" width="70" x="2565" y="-535" />
<rect fill="#84A1AE" height="70" rx="15" width="70" x="2565" y="-935" />
<rect fill="#84A1AE" height="70" rx="15" width="70" x="2565" y="-1435" />
<rect fill="#84A1AE" height="70" rx="15" width="70" x="2565" y="-2435" />
<rect fill="#84A1AE" height="70" rx="15" width="70" x="2565" y="-3835" />
<rect fill="#84A1AE" height="70" rx="15" width="70" x="2665" y="-535" />
<rect fill="#84A1AE" height="70" rx="15" width="70" x="2665" y="-1435" />
<rect fill="#84A1AE" height="70" rx="15" width="70" x="2665" y="-2435" />
<rect fill="#84A1AE" height="70" rx="15" width="70" x="2665" y="-3835" />
<rect fill="#84A1AE" height="70" rx="15" width="70" x="2765" y="-535" />
<rect fill="#84A1AE" height="70" rx="15" width="70" x="2765" y="-835" />
<rect fill="#84A1AE" height="70" rx="15" width="70" x="2765" y="-1135" />
<rect fill="#84A1AE" height="70" rx="15" width="70" x="2765" y="-2035" />
<rect fill="#84A1AE" height="70" rx="15" width="70" x="2765" y="-2435" />
<rect fill="#84A1AE" height="70" rx="15" width="70" x="2765" y="-3035" />
<rect fill="#84A1AE" height="70" rx="15" width="70" x="2765" y="-3835" />
<rect fill="#84A1AE" height="70" rx="15" width="70" x="2865" y="-535" />
<rect fill="#84A1AE" height="70" rx="15" width="70" x="2865" y="-735" />
<rect fill="#84A1AE" height="70" rx="15" width="70" x="2865" y="-3135" />
<rect fill="#84A1AE" height="70" rx="15" width="70" x="2865" y="-3835" />
<rect fill="#84A1AE" height="70" rx="15" width="70" x="2965" y="-535" />
<rect fill="#84A1AE" height="70" rx="15" width="70" x="2965" y="-1735" />
<rect fill="#84A1AE" height="70" rx="15" width="70" x="2965" y="-2835" />
<rect fill="#84A1AE" height="70" rx="15" width="70" x="2965" y="-3835" />
<rect fill="#84A1AE" height="70" rx="15" width="70" x="3065" y="-535" />
<rect fill="#84A1AE" height="70" rx="15" width="70" x="3065" y="-735" />
<rect fill="#84A1AE" height="70" rx="15" width="70" x="3065" y="-2335" />
<rect fill="#84A1AE" height="70" rx="15" width="70" x="3065" y="-3835" />
<rect fill="#84A1AE" height="70" rx="15" width="70" x="3165" y="-535" />
<rect fill="#84A1AE" height="70" rx="15" width="70" x="3165" y="-935" />
<rect fill="#84A1AE" height="70" rx="15" width="70" x="3165" y="-1735" />
<rect fill="#84A1AE" height="70" rx="15" width="70" x="3165" y="-1835" />
<rect fill="#84A1AE" height="70" rx="15" width="70" x="3165" y="-2235" />
<rect fill="#84A1AE" height="70" rx="15" width="70" x="3165" y="-3835" />
<rect fill="#84A1AE" height="70" rx="15" width="70" x="3265" y="-535" />
<rect fill="#84A1AE" height="70" rx="15" width="70" x="3265" y="-2335" />
<rect fill="#84A1AE" height="70" rx="15" width="70" x="3265" y="-2435" />
<rect fill="#84A1AE" height="70" rx="15" width="70" x="3265" y="-2635" />
<rect fill="#84A1AE" height="70" rx="15" width="70" x="3265" y="-3835" />
<rect fill="#84A1AE" height="70" rx="15" width="70" x="3365" y="-535" />
<rect fill="#84A1AE" height="70" rx="15" width="70" x="3365" y="-2935" />
<rect fill="#84A1AE" height="70" rx="15" width="70" x="3365" y="-3535" />
<rect fill="#84A1AE" height="70" rx="15" width="70" x="3365" y="-3835" />
<rect fill="#84A1AE" height="70" rx="15" width="70" x="3465" y="-535" />
<rect fill="#84A1AE" height="70" rx="15" width="70" x="3465" y="-1335" />
<rect fill="#84A1AE" height="70" rx="15" width="70" x="3465" y="-2035" />
<rect fill="#84A1AE" height="70" rx="15" width="70" x="3465" y="-2735" />
<rect fill="#84A1AE" height="70" rx="15" width="70" x="3465" y="-3435" />
<rect fill="#84A1AE" height="70" rx="15" width="70" x="3465" y="-3835" />
<rect fill="#84A1AE" height="70" rx="15" width="70" x="3565" y="-535" />
<rect fill="#84A1AE" height="70" rx="15" width="70" x="3565" y="-2435" />
<rect fill="#84A1AE" height="70" rx="15" width="70" x="3565" y="-3735" />
<rect fill="#84A1AE" height="70" rx="15" width="70" x="3565" y="-3835" />
<rect fill="#84A1AE" height="70" rx="15" width="70" x="3665" y="-535" />
<rect fill="#84A1AE" height="70" rx="15" width="70" x="3665" y="-635" />
<rect fill="#84A1AE" height="70" rx="15" width="70" x="3665" y="-1635" />
<rect fill="#84A1AE" height="70" rx="15" width="70" x="3665" y="-3835" />
<rect fill="#84A1AE" height="70" rx="15" width="70" x="3765" y="-535" />
<rect fill="#84A1AE" height="70" rx="15" width="70" x="3765" y="-635" />
<rect fill="#84A1AE" height="70" rx="15" width="70" x="3765" y="-735" />
<rect fill="#84A1AE" height="70" rx="15" width="70" x="3765" y="-835" />
<rect fill="#84A1AE" height="70" rx="15" width="70" x="3765" y="-935" />
<rect fill="#84A1AE" height="70" rx="15" width="70" x="3765" y="-1035" />
<rect fill="#84A1AE" height="70" rx="15" width="70" x="3765" y="-1135" />
<rect fill="#84A1AE" height="70" rx="15" width="70" x="3765" y="-1235" />
<rect fill="#84A1AE" height="70" rx="15" width="70" x="3765" y="-1335" />
<rect fill="#84A1AE" height="70" rx="15" width="70" x="3765" y="-1435" />
<rect fill="#84A1AE" height="70" rx="15" width="70" x="3765" y="-1535" />
<rect fill="#84A1AE" height="70" rx="15" width="70" x="3765" y="-1635" />
<rect fill="#84A1AE" height="70" rx="15" width="70" x="3765" y="-1735" />
<rect fill="#84A1AE" height="70" rx="15" width="70" x="3765" y="-1835" />
<rect fill="#84A1AE" height="70" rx="15" width="70" x="3765" y="-1935" />
<rect fill="#84A1AE" height="70" rx="15" width="70" x="3765" y="-2035" />
<rect fill="#84A1AE" height="70" rx="15" width="70" x="3765" y="-2135" />
<rect fill="#84A1AE" height="70" rx="15" width="70" x="3765" y="-2235" />
<rect fill="#84A1AE" height="70" rx="15" width="70" x="3765" y="-2335" />
<rect fill="#84A1AE" height="70" rx="15" width="70" x="3765" y="-2435" />
<rect fill="#84A1AE" height="70" rx="15" width="70" x="3765" y="-2535" />
<rect fill="#84A1AE" height="70" rx="15" width="70" x="3765" y="-2635" />
<rect fill="#84A1AE" height="70" rx="15" width="70" x="3765" y="-2735" />
<rect fill="#84A1AE" height="70" rx="15" width="70" x="3765" y="-2835" />
<rect fill="#84A1AE" height="70" rx="15" width="70" x="3765" y="-2935" />
<rect fill="#84A1AE" height="70" rx="15" width="70" x="3765" y="-3035" />
<rect fill="#84A1AE" height="70" rx="15" width="70" x="3765" y="-3135" />
<rect fill="#84A1AE" height="70" rx="15" width="70" x="3765" y="-3235" />
<rect fill="#84A1AE" height="70" rx="15" width="70" x="3765" y="-3335" />
<rect fill="#84A1AE" height="70" rx="15" width="70" x="3765" y="-3435" />
<rect fill="#84A1AE" height="70" rx="15" width="70" x="3765" y="-3535" />
<rect fill="#84A1AE" height="70" rx="15" width="70" x="3765" y="-3635" />
<rect fill="#84A1AE" height="70" rx="15" width="70" x="3765" y="-3735" />
<rect fill="#84A1AE" height="70" rx="15" width="70" x="3765" y="-3835" />
<circle cx="2100" cy="-1200" fill="#c1433c" r="35"> <animate attributeName="cy" dur="83.44000000000001s" keyTimes="0.0;0.0033444816;1.0" repeatCount="indefinite" values="-1200;-1200;-1200"/>
<animate attributeName="cx" dur="83.44000000000001s" keyTimes="0.0;0.0033444816;1.0" repeatCount="indefinite" values="2100;2100;2100"/>
<animate attributeName="visibility" dur="83.44000000000001s" keyTimes="0.0;0.0033444816;1.0" repeatCount="indefinite" values="visible;visible;visible"/> </circle>
<circle cx="2900" cy="-2500" fill="#2e6f9e" r="35"> <animate attributeName="cy" dur="83.44000000000001s" keyTimes="0.0;0.0033444816;1.0" repeatCount="indefinite" values="-2500;-2500;-2500"/>
<animate attributeName="cx" dur="83.44000000000001s" keyTimes="0.0;0.0033444816;1.0" repeatCount="indefinite" values="2900;2900;2900"/>
<animate attributeName="visibility" dur="83.44000000000001s" keyTimes="0.0;0.0033444816;1.0" repeatCount="indefinite" values="visible;visible;visible"/> </circle>
<circle cx="1500" cy="-2300" fill="#6e81af" r="35"> <animate attributeName="cy" dur="83.44000000000001s" keyTimes="0.0;0.0033444816;1.0" repeatCount="indefinite" values="-2300;-2300;-2300"/>
<animate attributeName="cx" dur="83.44000000000001s" keyTimes="0.0;0.0033444816;1.0" repeatCount="indefinite" values="1500;1500;1500"/>
<animate attributeName="visibility" dur="83.44000000000001s" keyTimes="0.0;0.0033444816;1.0" repeatCount="indefinite" values="visible;visible;visible"/> </circle>
<circle cx="800" cy="-3100" fill="#00b9c8" r="35"> <animate attributeName="cy" dur="83.44000000000001s" keyTimes="0.0;0.0033444816;1.0" repeatCount="indefinite" values="-3100;-3100;-3100"/>
<animate attributeName="cx" dur="83.44000000000001s" keyTimes="0.0;0.0033444816;1.0" repeatCount="indefinite" values="800;800;800"/>
<animate attributeName="visibility" dur="83.44000000000001s" keyTimes="0.0;0.0033444816;1.0" repeatCount="indefinite" values="visible;visible;visible"/> </circle>
<circle cx="2700" cy="-1800" fill="#72D5C8" r="35"> <animate attributeName="cy" dur="83.44000000000001s" keyTimes="0.0;0.0033444816;0.0133779264;0.016722408;0.0267558528;0.0301003344;0.0334448161;0.0367892977;0.0401337793;0.0434782609;0.0535117057;0.0568561873;0.0602006689;0.0668896321;0.0702341137;0.0769230769;0.0802675585;0.0836120401;0.0869565217;0.0903010033;0.0936454849;0.0969899666;0.1003344482;0.110367893;0.1137123746;0.1237458194;0.127090301;0.1304347826;0.1404682274;0.143812709;0.1471571906;0.1772575251;0.1806020067;0.1973244147;0.2006688963;0.2040133779;0.2073578595;0.2107023411;0.2140468227;0.2173913043;0.220735786;0.2240802676;0.2274247492;0.2408026756;0.2441471572;0.2474916388;0.2508361204;0.2608695652;0.2642140468;0.2809364548;0.2842809365;0.2876254181;0.3010033445;0.3043478261;0.3076923077;0.3110367893;0.3143812709;0.3177257525;0.3210702341;0.3244147157;0.3277591973;0.3311036789;0.3344481605;0.3411371237;0.3444816054;0.347826087;0.3511705686;0.3545150502;0.3578595318;0.3612040134;0.364548495;0.3678929766;0.3779264214;0.381270903;0.3846153846;0.3879598662;0.397993311;0.4013377926;0.4046822742;0.4080267559;0.4113712375;0.4147157191;0.4381270903;0.4414715719;0.4448160535;0.4548494983;0.4581939799;0.4615384615;0.4682274247;0.4715719064;0.4782608696;0.4816053512;0.4849498328;0.4882943144;0.491638796;0.5016722408;0.5050167224;0.5217391304;0.525083612;0.5284280936;0.5317725753;0.5351170569;0.5384615385;0.5418060201;0.5451505017;0.5484949833;0.5518394649;0.5752508361;0.5785953177;0.5919732441;0.5953177258;0.602006689;0.6053511706;0.6086956522;0.6120401338;0.6153846154;0.618729097;0.6220735786;0.6254180602;0.6421404682;0.6454849498;0.652173913;0.6555183946;0.6588628763;0.6622073579;0.6655518395;0.6856187291;0.6889632107;0.6923076923;0.6989966555;0.7023411371;0.7090301003;0.7123745819;0.7424749164;0.745819398;0.7591973244;0.762541806;0.7658862876;0.7759197324;0.779264214;0.7993311037;0.8026755853;0.8060200669;0.8093645485;0.8127090301;0.8160535117;0.8193979933;0.8227424749;0.8327759197;0.8361204013;0.8494983278;0.8528428094;0.856187291;0.8662207358;0.8695652174;0.872909699;0.8762541806;0.8795986622;0.8829431438;0.8862876254;0.8929765886;0.8963210702;0.8996655518;0.9030100334;0.9197324415;0.9230769231;0.9264214047;0.9297658863;0.9565217391;0.9598662207;0.9665551839;0.9698996656;0.9732441472;0.9765886288;0.9866220736;0.9899665552;0.9933110368;1.0" repeatCount="indefinite" values="-1800;-1800;-1800;-1700;-1700;-1600;-1500;-1600;-1500;-1600;-1600;-1500;-1400;-1400;-1300;-1300;-1200;-1300;-1400;-1400;-1300;-1200;-1100;-1100;-1000;-1000;-900;-1000;-1000;-1100;-1000;-1000;-900;-900;-1000;-1000;-900;-1000;-900;-800;-800;-900;-1000;-1000;-1100;-1100;-1200;-1200;-1100;-1100;-1200;-1300;-1300;-1400;-1300;-1300;-1200;-1100;-1100;-1200;-1200;-1300;-1200;-1200;-1300;-1300;-1200;-1200;-1300;-1300;-1200;-1300;-1300;-1400;-1300;-1400;-1400;-1500;-1500;-1400;-1400;-1500;-1500;-1400;-1500;-1500;-1400;-1300;-1300;-1200;-1200;-1300;-1300;-1400;-1500;-1500;-1600;-1600;-1700;-1700;-1800;-1800;-1900;-1900;-2000;-2000;-2100;-2100;-2000;-2000;-1900;-1900;-2000;-2000;-1900;-1900;-2000;-1900;-2000;-2000;-1900;-1900;-1800;-1800;-1700;-1600;-1600;-1700;-1800;-1800;-1700;-1700;-1800;-1800;-1700;-1700;-1600;-1700;-1700;-1600;-1600;-1700;-1600;-1600;-1700;-1800;-1800;-1900;-1900;-2000;-2000;-2100;-2000;-2000;-2100;-2000;-2100;-2100;-2200;-2300;-2300;-2400;-2400;-2500;-2500;-2600;-2600;-2500;-2500;-2600;-2600;-2500;-2500;-2600;-2600;-2500;-2600;-2600"/>
<animate attributeName="cx" dur="83.44000000000001s" keyTimes="0.0;0.0033444816;0.0066889632;0.0100334448;0.0133779264;0.0468227425;0.0501672241;0.0602006689;0.0635451505;0.0668896321;0.0869565217;0.0903010033;0.1003344482;0.1036789298;0.1070234114;0.110367893;0.1137123746;0.1170568562;0.1371237458;0.1404682274;0.1471571906;0.1505016722;0.1672240803;0.1705685619;0.1739130435;0.1772575251;0.1906354515;0.1939799331;0.1973244147;0.2173913043;0.220735786;0.2274247492;0.2307692308;0.237458194;0.2408026756;0.2675585284;0.27090301;0.2742474916;0.2775919732;0.2943143813;0.2976588629;0.3010033445;0.3076923077;0.3110367893;0.3177257525;0.3210702341;0.3244147157;0.3277591973;0.3344481605;0.3377926421;0.3411371237;0.3678929766;0.3712374582;0.3745819398;0.3879598662;0.3913043478;0.4080267559;0.4113712375;0.4147157191;0.4180602007;0.4314381271;0.4347826087;0.4381270903;0.4515050167;0.4548494983;0.4615384615;0.4648829431;0.4682274247;0.4715719064;0.474916388;0.4782608696;0.491638796;0.4949832776;0.4983277592;0.5016722408;0.5050167224;0.508361204;0.5117056856;0.5150501672;0.5183946488;0.5217391304;0.5384615385;0.5418060201;0.5551839465;0.5585284281;0.5618729097;0.5652173913;0.5685618729;0.5719063545;0.5752508361;0.5785953177;0.5819397993;0.5852842809;0.5886287625;0.5919732441;0.5986622074;0.602006689;0.6120401338;0.6153846154;0.6254180602;0.6287625418;0.6321070234;0.635451505;0.6387959866;0.6421404682;0.6555183946;0.6588628763;0.6655518395;0.6688963211;0.6722408027;0.6755852843;0.6789297659;0.6822742475;0.6856187291;0.7023411371;0.7056856187;0.7123745819;0.7157190635;0.7190635452;0.7224080268;0.7257525084;0.72909699;0.7324414716;0.7357859532;0.7391304348;0.7424749164;0.7491638796;0.7525083612;0.7692307692;0.7725752508;0.7759197324;0.7826086957;0.7859531773;0.7892976589;0.7926421405;0.8227424749;0.8260869565;0.8361204013;0.8394648829;0.8428093645;0.8461538462;0.8494983278;0.8595317726;0.8628762542;0.8762541806;0.8795986622;0.8862876254;0.889632107;0.8929765886;0.8963210702;0.8996655518;0.9096989967;0.9130434783;0.9163879599;0.9197324415;0.9297658863;0.9331103679;0.9364548495;0.9531772575;0.9565217391;0.9632107023;0.9665551839;0.9698996656;0.9732441472;0.9765886288;0.9799331104;0.983277592;0.9866220736;0.9933110368;0.9966555184;1.0" repeatCount="indefinite" values="2700;2700;2700;2800;2900;2900;3000;3000;2900;2800;2800;2900;2900;3000;3000;2900;2900;2800;2800;2700;2700;2800;2800;2900;2900;2800;2800;2900;3000;3000;3100;3100;3200;3200;3300;3300;3400;3400;3300;3300;3400;3300;3300;3400;3400;3300;3300;3400;3400;3500;3600;3600;3700;3600;3600;3700;3700;3600;3600;3700;3700;3600;3700;3700;3600;3600;3700;3600;3600;3500;3600;3600;3500;3600;3500;3500;3400;3300;3400;3400;3300;3300;3200;3200;3300;3200;3100;3000;3000;3100;3100;3000;3100;3000;3100;3100;3200;3200;3100;3100;3200;3100;3200;3200;3300;3300;3400;3400;3300;3200;3200;3300;3400;3500;3500;3600;3600;3500;3600;3600;3500;3600;3600;3500;3500;3400;3400;3300;3300;3400;3500;3500;3600;3600;3500;3500;3600;3600;3700;3700;3600;3700;3700;3600;3600;3500;3500;3400;3500;3500;3400;3400;3500;3400;3500;3500;3400;3300;3300;3400;3400;3500;3500;3600;3600;3500;3500;3400;3400;3500;3500"/>
<animate attributeName="visibility" dur="83.44000000000001s" keyTimes="0.0;0.0033444816;1.0" repeatCount="indefinite" values="visible;visible;visible"/> </circle>
<circle cx="2700" cy="-1900" fill="#0ea08c" r="35"> <animate attributeName="cy" dur="83.44000000000001s" keyTimes="0.0;0.0033444816;1.0" repeatCount="indefinite" values="-1900;-1900;-1900"/>
<animate attributeName="cx" dur="83.44000000000001s" keyTimes="0.0;0.0033444816;1.0" repeatCount="indefinite" values="2700;2700;2700"/>
<animate attributeName="visibility" dur="83.44000000000001s" keyTimes="0.0;0.0033444816;1.0" repeatCount="indefinite" values="visible;visible;visible"/> </circle>
<circle cx="1100" cy="-2100" fill="#8F7B66" r="35"> <animate attributeName="cy" dur="83.44000000000001s" keyTimes="0.0;0.0033444816;1.0" repeatCount="indefinite" values="-2100;-2100;-2100"/>
<animate attributeName="cx" dur="83.44000000000001s" keyTimes="0.0;0.0033444816;1.0" repeatCount="indefinite" values="1100;1100;1100"/>
<animate attributeName="visibility" dur="83.44000000000001s" keyTimes="0.0;0.0033444816;1.0" repeatCount="indefinite" values="visible;visible;visible"/> </circle>
<circle cx="900" cy="-2300" fill="#c1433c" r="35"> <animate attributeName="cy" dur="83.44000000000001s" keyTimes="0.0;0.0033444816;1.0" repeatCount="indefinite" values="-2300;-2300;-2300"/>
<animate attributeName="cx" dur="83.44000000000001s" keyTimes="0.0;0.0033444816;1.0" repeatCount="indefinite" values="900;900;900"/>
<animate attributeName="visibility" dur="83.44000000000001s" keyTimes="0.0;0.0033444816;1.0" repeatCount="indefinite" values="visible;visible;visible"/> </circle>
<circle cx="3100" cy="-600" fill="none" r="35" stroke="#c1433c" stroke-width="10"> <animate attributeName="cy" dur="83.44000000000001s" keyTimes="0.0;0.0033444816;1.0" repeatCount="indefinite" values="-600;-600;-600"/>
<animate attributeName="cx" dur="83.44000000000001s" keyTimes="0.0;0.0033444816;1.0" repeatCount="indefinite" values="3100;3100;3100"/>
<animate attributeName="visibility" dur="83.44000000000001s" keyTimes="0.0;0.0033444816;1.0" repeatCount="indefinite" values="visible;visible;visible"/> </circle>
<circle cx="1800" cy="-3200" fill="none" r="35" stroke="#2e6f9e" stroke-width="10"> <animate attributeName="cy" dur="83.44000000000001s" keyTimes="0.0;0.0033444816;1.0" repeatCount="indefinite" values="-3200;-3200;-3200"/>
<animate attributeName="cx" dur="83.44000000000001s" keyTimes="0.0;0.0033444816;1.0" repeatCount="indefinite" values="1800;1800;1800"/>
<animate attributeName="visibility" dur="83.44000000000001s" keyTimes="0.0;0.0033444816;1.0" repeatCount="indefinite" values="visible;visible;visible"/> </circle>
<circle cx="2100" cy="-2900" fill="none" r="35" stroke="#6e81af" stroke-width="10"> <animate attributeName="cy" dur="83.44000000000001s" keyTimes="0.0;0.0033444816;1.0" repeatCount="indefinite" values="-2900;-2900;-2900"/>
<animate attributeName="cx" dur="83.44000000000001s" keyTimes="0.0;0.0033444816;1.0" repeatCount="indefinite" values="2100;2100;2100"/>
<animate attributeName="visibility" dur="83.44000000000001s" keyTimes="0.0;0.0033444816;1.0" repeatCount="indefinite" values="visible;visible;visible"/> </circle>
<circle cx="2800" cy="-3500" fill="none" r="35" stroke="#00b9c8" stroke-width="10"> <animate attributeName="cy" dur="83.44000000000001s" keyTimes="0.0;0.0033444816;1.0" repeatCount="indefinite" values="-3500;-3500;-3500"/>
<animate attributeName="cx" dur="83.44000000000001s" keyTimes="0.0;0.0033444816;1.0" repeatCount="indefinite" values="2800;2800;2800"/>
<animate attributeName="visibility" dur="83.44000000000001s" keyTimes="0.0;0.0033444816;1.0" repeatCount="indefinite" values="visible;visible;visible"/> </circle>
<circle cx="2600" cy="-1300" fill="none" r="35" stroke="#72D5C8" stroke-width="10"> <animate attributeName="cy" dur="83.44000000000001s" keyTimes="0.0;0.0033444816;1.0" repeatCount="indefinite" values="-1300;-1300;-1300"/>
<animate attributeName="cx" dur="83.44000000000001s" keyTimes="0.0;0.0033444816;1.0" repeatCount="indefinite" values="2600;2600;2600"/>
<animate attributeName="visibility" dur="83.44000000000001s" keyTimes="0.0;0.0033444816;1.0" repeatCount="indefinite" values="visible;visible;visible"/> </circle>
<circle cx="3100" cy="-1500" fill="none" r="35" stroke="#0ea08c" stroke-width="10"> <animate attributeName="cy" dur="83.44000000000001s" keyTimes="0.0;0.0033444816;1.0" repeatCount="indefinite" values="-1500;-1500;-1500"/>
<animate attributeName="cx" dur="83.44000000000001s" keyTimes="0.0;0.0033444816;1.0" repeatCount="indefinite" values="3100;3100;3100"/>
<animate attributeName="visibility" dur="83.44000000000001s" keyTimes="0.0;0.0033444816;1.0" repeatCount="indefinite" values="visible;visible;visible"/> </circle>
<circle cx="2700" cy="-2200" fill="none" r="35" stroke="#8F7B66" stroke-width="10"> <animate attributeName="cy" dur="83.44000000000001s" keyTimes="0.0;0.0033444816;1.0" repeatCount="indefinite" values="-2200;-2200;-2200"/>
<animate attributeName="cx" dur="83.44000000000001s" keyTimes="0.0;0.0033444816;1.0" repeatCount="indefinite" values="2700;2700;2700"/>
<animate attributeName="visibility" dur="83.44000000000001s" keyTimes="0.0;0.0033444816;1.0" repeatCount="indefinite" values="visible;visible;visible"/> </circle>
<circle cx="3600" cy="-1700" fill="none" r="35" stroke="#c1433c" stroke-width="10"> <animate attributeName="cy" dur="83.44000000000001s" keyTimes="0.0;0.0033444816;1.0" repeatCount="indefinite" values="-1700;-1700;-1700"/>
<animate attributeName="cx" dur="83.44000000000001s" keyTimes="0.0;0.0033444816;1.0" repeatCount="indefinite" values="3600;3600;3600"/>
<animate attributeName="visibility" dur="83.44000000000001s" keyTimes="0.0;0.0033444816;1.0" repeatCount="indefinite" values="visible;visible;visible"/> </circle>
</svg>