<?xml version="1.0" encoding="UTF-8"?>
        <svg xmlns="http://www.w3.org/2000/svg" xmlns:xlink="http://www.w3.org/1999/xlink"
             width="430" height="430" viewBox="0 -4300 4300 4300">

<defs>

</defs>

<rect fill="#84A1AE" height="70" rx="15" width="70" x="465" y="-535" />
<rect fill="#84A1AE" height="70" rx="15" width="70" x="465" y="-635" />
<rect fill="#84A1AE" height="70" rx="15" width="70" x="465" y="-735" />
<rect fill="#84A1AE" height="70" rx="15" width="70" x="465" y="-835" />
<rect fill="#84A1AE" height="70" rx="15" width="70" x="465" y="-935" />
<rect fill="#84A1AE" height="70" rx="15" width="70" x="465" y="-1035" />
<rect fill="#84A1AE" height="70" rx="15" width="70" x="465" y="-1135" />
<rect fill="#84A1AE" height="70" rx="15" width="70" x="465" y="-1235" />
<rect fill="#84A1AE" height="70" rx="15" width="70" x="465" y="-1335" />
<rect fill="#84A1AE" height="70" rx="15" width="70" x="465" y="-1435" />
<rect fill="#84A1AE" height="70" rx="15" width="70" x="465" y="-1535" />
<rect fill="#84A1AE" height="70" rx="15" width="70" x="465" y="-1635" />
<rect fill="#84A1AE" height="70" rx="15" width="70" x="465" y="-1735" />
<rect fill="#84A1AE" height="70" rx="15" width="70" x="465" y="-1835" />
<rect fill="#84A1AE" height="70" rx="15" width="70" x="465" y="-1935" />
<rect fill="#84A1AE" height="70" rx="15" width="70" x="465" y="-2035" />
<rect fill="#84A1AE" height="70" rx="15" width="70" x="465" y="-2135" />
<rect fill="#84A1AE" height="70" rx="15" width="70" x="465" y="-2235" />
<rect fill="#84A1AE" height="70" rx="15" width="70" x="465" y="-2335" />
<rect fill="#84A1AE" height="70" rx="15" width="70" x="465" y="-2435" />
<rect fill="#84A1AE" height="70" rx="15" width="70" x="465" y="-2535" />
<rect fill="#84A1AE" height="70" rx="15" width="70" x="465" y="-2635" />
<rect fill="#84A1AE" height="70" rx="15" width="70" x="465" y="-2735" />
<rect fill="#84A1AE" height="70" rx="15" width="70" x="465" y="-2835" />
<rect fill="#84A1AE" height="70" rx="15" width="70" x="465" y="-2935" />
<rect fill="#84A1AE" height="70" rx="15" width="70" x="465" y="-3035" />
<rect fill="#84A1AE" height="70" rx="15" width="70" x="465" y="-3135" />
<rect fill="#84A1AE" height="70" rx="15" width="70" x="465" y="-3235" />
<rect fill="#84A1AE" height="70" rx="15" width="70" x="465" y="-3335" />
<rect fill="#84A1AE" height="70" rx="15" width="70" x="465" y="-3435" />
<rect fill="#84A1AE" height="70" rx="15" width="70" x="465" y="-3535" />
<rect fill="#84A1AE" height="70" rx="15" width="70" x="465" y="-3635" />
<rect fill="#84A1AE" height="70" rx="15" width="70" x="465" y="-3735" />
<rect fill="#84A1AE" height="70" rx="15" width="70" x="465" y="-3835" />
<rect fill="#84A1AE" height="70" rx="15" width="70" x="565" y="-535" />
<rect fill="#84A1AE" height="70" rx="15" width="70" x="565" y="-1635" />
<rect fill="#84A1AE" height="70" rx="15" width="70" x="565" y="-1935" />
<rect fill="#84A1AE" height="70" rx="15" width="70" x="565" y="-2735" />
<rect fill="#84A1AE" height="70" rx="15" width="70" x="565" y="-3835" />
<rect fill="#84A1AE" height="70" rx="15" width="70" x="665" y="-535" />
<rect fill="#84A1AE" height="70" rx="15" width="70" x="665" y="-1035" />
<rect fill="#84A1AE" height="70" rx="15" width="70" x="665" y="-2535" />
<rect fill="#84A1AE" height="70" rx="15" width="70" x="665" y="-3035" />
<rect fill="#84A1AE" height="70" rx="15" width="70" x="665" y="-3235" />
<rect fill="#84A1AE" height="70" rx="15" width="70" x="665" y="-3835" />
<rect fill="#84A1AE" height="70" rx="15" width="70" x="765" y="-535" />
<rect fill="#84A1AE" height="70" rx="15" width="70" x="765" y="-635" />
<rect fill="#84A1AE" height="70" rx="15" width="70" x="765" y="-3835" />
<rect fill="#84A1AE" height="70" rx="15" width="70" x="865" y="-535" />
<rect fill="#84A1AE" height="70" rx="15" width="70" x="865" y="-2435" />
<rect fill="#84A1AE" height="70" rx="15" width="70" x="865" y="-2535" />
<rect fill="#84A1AE" height="70" rx="15" width="70" x="865" y="-3335" />
<rect fill="#84A1AE" height="70" rx="15" width="70" x="865" y="-3435" />
<rect fill="#84A1AE" height="70" rx="15" width="70" x="865" y="-3835" />
<rect fill="#84A1AE" height="70" rx="15" width="70" x="965" y="-535" />
<rect fill="#84A1AE" height="70" rx="15" width="70" x="965" y="-735" />
<rect fill="#84A1AE" height="70" rx="15" width="70" x="965" y="-1635" />
<rect fill="#84A1AE" height="70" rx="15" width="70" x="965" y="-1835" />
<rect fill="#84A1AE" height="70" rx="15" width="70" x="965" y="-2835" />
<rect fill="#84A1AE" height="70" rx="15" width="70" x="965" y="-3435" />
<rect fill="#84A1AE" height="70" rx="15" width="70" x="965" y="-3835" />
<rect fill="#84A1AE" height="70" rx="15" width="70" x="1065" y="-535" />
<rect fill="#84A1AE" height="70" rx="15" width="70" x="1065" y="-1135" />
<rect fill="#84A1AE" height="70" rx="15" width="70" x="1065" y="-1835" />
<rect fill="#84A1AE" height="70" rx="15" width="70" x="1065" y="-3735" />
<rect fill="#84A1AE" height="70" rx="15" width="70" x="1065" y="-3835" />
<rect fill="#84A1AE" height="70" rx="15" width="70" x="1165" y="-535" />
<rect fill="#84A1AE" height="70" rx="15" width="70" x="1165" y="-635" />
<rect fill="#84A1AE" height="70" rx="15" width="70" x="1165" y="-735" />
<rect fill="#84A1AE" height="70" rx="15" width="70" x="1165" y="-1535" />
<rect fill="#84A1AE" height="70" rx="15" width="70" x="1165" y="-3835" />
<rect fill="#84A1AE" height="70" rx="15" width="70" x="1265" y="-535" />
<rect fill="#84A1AE" height="70" rx="15" width="70" x="1265" y="-2835" />
<rect fill="#84A1AE" height="70" rx="15" width="70" x="1265" y="-3435" />
<rect fill="#84A1AE" height="70" rx="15" width="70" x="1265" y="-3835" />
<rect fill="#84A1AE" height="70" rx="15" width="70" x="1365" y="-535" />
<rect fill="#84A1AE" height="70" rx="15" width="70" x="1365" y="-835" />
<rect fill="#84A1AE" height="70" rx="15" width="70" x="1365" y="-935" />
<rect fill="#84A1AE" height="70" rx="15" width="70" x="1365" y="-1035" />
<rect fill="#84A1AE" height="70" rx="15" width="70" x="1365" y="-1935" />
<rect fill="#84A1AE" height="70" rx="15" width="70" x="1365" y="-2335" />
<rect fill="#84A1AE" height="70" rx="15" width="70" x="1365" y="-2635" />
<rect fill="#84A1AE" height="70" rx="15" width="70" x="1365" y="-2835" />
<rect fill="#84A1AE" height="70" rx="15" width="70" x="1365" y="-2935" />
<rect fill="#84A1AE" height="70" rx="15" width="70" x="1365" y="-3035" />
<rect fill="#84A1AE" height="70" rx="15" width="70" x="1365" y="-3335" />
<rect fill="#84A1AE" height="70" rx="15" width="70" x="1365" y="-3835" />
<rect fill="#84A1AE" height="70" rx="15" width="70" x="1465" y="-535" />
<rect fill="#84A1AE" height="70" rx="15" width="70" x="1465" y="-1235" />
<rect fill="#84A1AE" height="70" rx="15" width="70" x="1465" y="-1535" />
<rect fill="#84A1AE" height="70" rx="15" width="70" x="1465" y="-2035" />
<rect fill="#84A1AE" height="70" rx="15" width="70" x="1465" y="-3135" />
<rect fill="#84A1AE" height="70" rx="15" width="70" x="1465" y="-3235" />
<rect fill="#84A1AE" height="70" rx="15" width="70" x="1465" y="-3835" />
<rect fill="#84A1AE" height="70" rx="15" width="70" x="1565" y="-535" />
<rect fill="#84A1AE" height="70" rx="15" width="70" x="1565" y="-3035" />
<rect fill="#84A1AE" height="70" rx="15" width="70" x="1565" y="-3835" />
<rect fill="#84A1AE" height="70" rx="15" width="70" x="1665" y="-535" />
<rect fill="#84A1AE" height="70" rx="15" width="70" x="1665" y="-3735" />
<rect fill="#84A1AE" height="70" rx="15" width="70" x="1665" y="-3835" />
<rect fill="#84A1AE" height="70" rx="15" width="70" x="1765" y="-535" />
<rect fill="#84A1AE" height="70" rx="15" width="70" x="1765" y="-1235" />
<rect fill="#84A1AE" height="70" rx="15" width="70" x="1765" y="-3835" />
<rect fill="#84A1AE" height="70" rx="15" width="70" x="1865" y="-535" />
<rect fill="#84A1AE" height="70" rx="15" width="70" x="1865" y="-735" />
<rect fill="#84A1AE" height="70" rx="15" width="70" x="1865" y="-1335" />
<rect fill="#84A1AE" height="70" rx="15" width="70" x="1865" y="-3235" />
<rect fill="#84A1AE" height="70" rx="15" width="70" x="1865" y="-3435" />
<rect fill="#84A1AE" height="70" rx="15" width="70" x="1865" y="-3835" />
<rect fill="#84A1AE" height="70" rx="15" width="70" x="1965" y="-535" />
<rect fill="#84A1AE" height="70" rx="15" width="70" x="1965" y="-635" />
<rect fill="#84A1AE" height="70" rx="15" width="70" x="1965" y="-1835" />
<rect fill="#84A1AE" height="70" rx="15" width="70" x="1965" y="-1935" />
<rect fill="#84A1AE" height="70" rx="15" width="70" x="1965" y="-2135" />
<rect fill="#84A1AE" height="70" rx="15" width="70" x="1965" y="-2335" />
<rect fill="#84A1AE" height="70" rx="15" width="70" x="1965" y="-2435" />
<rect fill="#84A1AE" height="70" rx="15" width="70" x="1965" y="-3335" />
<rect fill="#84A1AE" height="70" rx="15" width="70" x="1965" y="-3835" />
<rect fill="#84A1AE" height="70" rx="15" width="70" x="2065" y="-535" />
<rect fill="#84A1AE" height="70" rx="15" width="70" x="2065" y="-1535" />
<rect fill="#84A1AE" height="70" rx="15" width="70" x="2065" y="-1635" />
<rect fill="#84A1AE" height="70" rx="15" width="70" x="2065" y="-2135" />
<rect fill="#84A1AE" height="70" rx="15" width="70" x="2065" y="-3835" />
<rect fill="#84A1AE" height="70" rx="15" width="70" x="2165" y="-535" />
<rect fill="#84A1AE" height="70" rx="15" width="70" x="2165" y="-935" />
<rect fill="#84A1AE" height="70" rx="15" width="70" x="2165" y="-1335" />
<rect fill="#84A1AE" height="70" rx="15" width="70" x="2165" y="-1835" />
<rect fill="#84A1AE" height="70" rx="15" width="70" x="2165" y="-3835" />
<rect fill="#84A1AE" height="70" rx="15" width="70" x="2265" y="-535" />
<rect fill="#84A1AE" height="70" rx="15" width="70" x="2265" y="-935" />
<rect fill="#84A1AE" height="70" rx="15" width="70" x="2265" y="-1135" />
<rect fill="#84A1AE" height="70" rx="15" width="70" x="2265" y="-2535" />
<rect fill="#84A1AE" height="70" rx="15" width="70" x="2265" y="-3235" />
<rect fill="#84A1AE" height="70" rx="15" width="70" x="2265" y="-3835" />
<rect fill="#84A1AE" height="70" rx="15" width="70" x="2365" y="-535" />
<rect fill="#84A1AE" height="70" rx="15" width="70" x="2365" y="-935" />
<rect fill="#84A1AE" height="70" rx="15" width="70" x="2365" y="-1035" />
<rect fill="#84A1AE" height="70" rx="15" width="70" x="2365" y="-3835" />
<rect fill="#84A1AE" height="70" rx="15" width="70" x="2465" y="-535" />
<rect fill="#84A1AE" height="70" rx="15" width="70" x="2465" y="-935" />
<rect fill="#84A1AE" height="70" rx="15" width="70" x="2465" y="-1535" />
<rect fill="#84A1AE" height="70" rx="15" width="70" x="2465" y="-2335" />
<rect fill="#84A1AE" height="70" rx="15" width="70" x="2465" y="-2735" />
<rect fill="#84A1AE" height="70" rx="15" width="70" x="2465" y="-3835" />
<rect fill="#84A1AE" height="70" rx="15" width="70" x="2565" y="-535" />
<rect fill="#84A1AE" height="70" rx="15" width="70" x="2565" y="-735" />
<rect fill="#84A1AE" height="70" rx="15" width="70" x="2565" y="-2535" />
<rect fill="#84A1AE" height="70" rx="15" width="70" x="2565" y="-3835" />
<rect fill="#84A1AE" height="70" rx="15" width="70" x="2665" y="-535" />
<rect fill="#84A1AE" height="70" rx="15" width="70" x="2665" y="-635" />
<rect fill="#84A1AE" height="70" rx="15" width="70" x="2665" y="-1135" />
<rect fill="#84A1AE" height="70" rx="15" width="70" x="2665" y="-1435" />
<rect fill="#84A1AE" height="70" rx="15" width="70" x="2665" y="-2735" />
<rect fill="#84A1AE" height="70" rx="15" width="70" x="2665" y="-3835" />
<rect fill="#84A1AE" height="70" rx="15" width="70" x="2765" y="-535" />
<rect fill="#84A1AE" height="70" rx="15" width="70" x="2765" y="-1635" />
<rect fill="#84A1AE" height="70" rx="15" width="70" x="2765" y="-1835" />
<rect fill="#84A1AE" height="70" rx="15" width="70" x="2765" y="-1935" />
<rect fill="#84A1AE" height="70" rx="15" width="70" x="2765" y="-2235" />
<rect fill="#84A1AE" height="70" rx="15" width="70" x="2765" y="-3735" />
<rect fill="#84A1AE" height="70" rx="15" width="70" x="2765" y="-3835" />
<rect fill="#84A1AE" height="70" rx="15" width="70" x="2865" y="-535" />
<rect fill="#84A1AE" height="70" rx="15" width="70" x="2865" y="-3835" />
<rect fill="#84A1AE" height="70" rx="15" width="70" x="2965" y="-535" />
<rect fill="#84A1AE" height="70" rx="15" width="70" x="2965" y="-2635" />
<rect fill="#84A1AE" height="70" rx="15" width="70" x="2965" y="-3835" />
<rect fill="#84A1AE" height="70" rx="15" width="70" x="3065" y="-535" />
<rect fill="#84A1AE" height="70" rx="15" width="70" x="3065" y="-735" />
<rect fill="#84A1AE" height="70" rx="15" width="70" x="3065" y="-2535" />
<rect fill="#84A1AE" height="70" rx="15" width="70" x="3065" y="-3835" />
<rect fill="#84A1AE" height="70" rx="15" width="70" x="3165" y="-535" />
<rect fill="#84A1AE" height="70" rx="15" width="70" x="3165" y="-835" />
<rect fill="#84A1AE" height="70" rx="15" width="70" x="3165" y="-1935" />
<rect fill="#84A1AE" height="70" rx="15" width="70" x="3165" y="-2735" />
<rect fill="#84A1AE" height="70" rx="15" width="70" x="3165" y="-3135" />
<rect fill="#84A1AE" height="70" rx="15" width="70" x="3165" y="-3835" />
<rect fill="#84A1AE" height="70" rx="15" width="70" x="3265" y="-535" />
<rect fill="#84A1AE" height="70" rx="15" width="70" x="3265" y="-1035" />
<rect fill="#84A1AE" height="70" rx="15" width="70" x="3265" y="-1735" />
<rect fill="#84A1AE" height="70" rx="15" width="70" x="3265" y="-3835" />
<rect fill="#84A1AE" height="70" rx="15" width="70" x="3365" y="-535" />
<rect fill="#84A1AE" height="70" rx="15" width="70" x="3365" y="-1435" />
<rect fill="#84A1AE" height="70" rx="15" width="70" x="3365" y="-1935" />
<rect fill="#84A1AE" height="70" rx="15" width="70" x="3365" y="-2135" />
<rect fill="#84A1AE" height="70" rx="15" width="70" x="3365" y="-3835" />
<rect fill="#84A1AE" height="70" rx="15" width="70" x="3465" y="-535" />
<rect fill="#84A1AE" height="70" rx="15" width="70" x="3465" y="-2635" />
<rect fill="#84A1AE" height="70" rx="15" width="70" x="3465" y="-3835" />
<rect fill="#84A1AE" height="70" rx="15" width="70" x="3565" y="-535" />
<rect fill="#84A1AE" height="70" rx="15" width="70" x="3565" y="-635" />
<rect fill="#84A1AE" height="70" rx="15" width="70" x="3565" y="-2435" />
<rect fill="#84A1AE" height="70" rx="15" width="70" x="3565" y="-3235" />
<rect fill="#84A1AE" height="70" rx="15" width="70" x="3565" y="-3835" />
<rect fill="#84A1AE" height="70" rx="15" width="70" x="3665" y="-535" />
<rect fill="#84A1AE" height="70" rx="15" width="70" x="3665" y="-2135" />
<rect fill="#84A1AE" height="70" rx="15" width="70" x="3665" y="-2835" />
<rect fill="#84A1AE" height="70" rx="15" width="70" x="3665" y="-3135" />
<rect fill="#84A1AE" height="70" rx="15" width="70" x="3665" y="-3735" />
<rect fill="#84A1AE" height="70" rx="15" width="70" x="3665" y="-3835" />
<rect fill="#84A1AE" height="70" rx="15" width="70" x="3765" y="-535" />
<rect fill="#84A1AE" height="70" rx="15" width="70" x="3765" y="-635" />
<rect fill="#84A1AE" height="70" rx="15" width="70" x="3765" y="-735" />
<rect fill="#84A1AE" height="70" rx="15" width="70" x="3765" y="-835" />
<rect fill="#84A1AE" height="70" rx="15" width="70" x="3765" y="-935" />
<rect fill="#84A1AE" height="70" rx="15" width="70" x="3765" y="-1035" />
<rect fill="#84A1AE" height="70" rx="15" width="70" x="3765" y="-1135" />
<rect fill="#84A1AE" height="70" rx="15" width="70" x="3765" y="-1235" />
<rect fill="#84A1AE" height="70" rx="15" width="70" x="3765" y="-1335" />
<rect fill="#84A1AE" height="70" rx="15" width="70" x="3765" y="-1435" />
<rect fill="#84A1AE" height="70" rx="15" width="70" x="3765" y="-1535" />
<rect fill="#84A1AE" height="70" rx="15" width="70" x="3765" y="-1635" />
<rect fill="#84A1AE" height="70" rx="15" width="70" x="3765" y="-1735" />
<rect fill="#84A1AE" height="70" rx="15" width="70" x="3765" y="-1835" />
<rect fill="#84A1AE" height="70" rx="15" width="70" x="3765" y="-1935" />
<rect fill="#84A1AE" height="70" rx="15" width="70" x="3765" y="-2035" />
<rect fill="#84A1AE" height="70" rx="15" width="70" x="3765" y="-2135" />
<rect fill="#84A1AE" height="70" rx="15" width="70" x="3765" y="-2235" />
<rect fill="#84A1AE" height="70" rx="15" width="70" x="3765" y="-2335" />
<rect fill="#84A1AE" height="70" rx="15" width="70" x="3765" y="-2435" />
<rect fill="#84A1AE" height="70" rx="15" width="70" x="3765" y="-2535" />
<rect fill="#84A1AE" height="70" rx="15" width="70" x="3765" y="-2635" />
<rect fill="#84A1AE" height="70" rx="15" width="70" x="3765" y="-2735" />
<rect fill="#84A1AE" height="70" rx="15" width="70" x="3765" y="-2835" />
<rect fill="#84A1AE" height="70" rx="15" width="70" x="3765" y="-2935" />
<rect fill="#84A1AE" height="70" rx="15" width="70" x="3765" y="-3035" />
<rect fill="#84A1AE" height="70" rx="15" width="70" x="3765" y="-3135" />
<rect fill="#84A1AE" height="70" rx="15" width="70" x="3765" y="-3235" />
<rect fill="#84A1AE" height="70" rx="15" width="70" x="3765" y="-3335" />
<rect fill="#84A1AE" height="70" rx="15" width="70" x="3765" y="-3435" />
<rect fill="#84A1AE" height="70" rx="15" width="70" x="3765" y="-3535" />
<rect fill="#84A1AE" height="70" rx="15" width="70" x="3765" y="-3635" />
<rect fill="#84A1AE" height="70" rx="15" width="70" x="3765" y="-3735" />
<rect fill="#84A1AE" height="70" rx="15" width="70" x="3765" y="-3835" />
<circle cx="2500" cy="-1400" fill="#c1433c" r="35"> <animate attributeName="cy" dur="126.28000000000002s" keyTimes="0.0;0.0022123894;0.0044247788;0.0066371681;0.0088495575;0.0110619469;0.0132743363;0.0154867257;0.017699115;0.0199115044;0.0221238938;0.0243362832;0.0265486726;0.0287610619;0.0309734513;0.0331858407;0.0353982301;0.0376106195;0.0398230088;0.0420353982;0.0442477876;0.046460177;0.0486725664;0.0508849558;0.0619469027;0.064159292;0.0663716814;0.0730088496;0.0752212389;0.0774336283;0.0796460177;0.0818584071;0.0840707965;0.1084070796;0.110619469;0.1128318584;0.1150442478;0.1172566372;0.1216814159;0.1238938053;0.1261061947;0.1283185841;0.1305309735;0.1327433628;0.1349557522;0.1371681416;0.139380531;0.1415929204;0.1438053097;0.1460176991;0.1482300885;0.1504424779;0.1526548673;0.1592920354;0.1615044248;0.1659292035;0.1681415929;0.1703539823;0.1725663717;0.1747787611;0.1769911504;0.1792035398;0.1814159292;0.1880530973;0.1902654867;0.1924778761;0.1946902655;0.1969026549;0.1991150442;0.2013274336;0.2146017699;0.2168141593;0.2234513274;0.2256637168;0.232300885;0.2345132743;0.2389380531;0.2411504425;0.2433628319;0.2455752212;0.25;0.2522123894;0.2544247788;0.2566371681;0.2588495575;0.2610619469;0.2632743363;0.2654867257;0.267699115;0.2765486726;0.2787610619;0.2809734513;0.2876106195;0.2898230088;0.2920353982;0.2942477876;0.296460177;0.2986725664;0.3030973451;0.3053097345;0.3075221239;0.3097345133;0.3119469027;0.314159292;0.3163716814;0.3230088496;0.3252212389;0.3274336283;0.3296460177;0.3318584071;0.3340707965;0.3362831858;0.342920354;0.3451327434;0.3473451327;0.3495575221;0.3539823009;0.3561946903;0.3584070796;0.360619469;0.3628318584;0.3650442478;0.3672566372;0.3716814159;0.3738938053;0.3783185841;0.3805309735;0.3871681416;0.389380531;0.3915929204;0.3938053097;0.3960176991;0.3982300885;0.4004424779;0.4026548673;0.4048672566;0.407079646;0.4115044248;0.4137168142;0.4159292035;0.4181415929;0.4203539823;0.4225663717;0.4247787611;0.4269911504;0.4292035398;0.4314159292;0.4336283186;0.4380530973;0.4402654867;0.4424778761;0.4446902655;0.4469026549;0.4491150442;0.4513274336;0.453539823;0.4557522124;0.4579646018;0.4601769912;0.4623893805;0.4800884956;0.482300885;0.4845132743;0.5022123894;0.5044247788;0.5110619469;0.5132743363;0.5154867257;0.517699115;0.5199115044;0.5221238938;0.5243362832;0.5265486726;0.5287610619;0.5309734513;0.5331858407;0.5353982301;0.5376106195;0.5420353982;0.5442477876;0.546460177;0.5486725664;0.5508849558;0.5530973451;0.5553097345;0.5575221239;0.5597345133;0.5619469027;0.564159292;0.5663716814;0.5685840708;0.5707964602;0.5730088496;0.5752212389;0.5774336283;0.5796460177;0.592920354;0.5951327434;0.5973451327;0.6039823009;0.6061946903;0.6084070796;0.610619469;0.6150442478;0.6172566372;0.6194690265;0.6216814159;0.6238938053;0.6371681416;0.639380531;0.6482300885;0.6504424779;0.6548672566;0.657079646;0.6592920354;0.6615044248;0.6637168142;0.6659292035;0.6681415929;0.6703539823;0.6725663717;0.6747787611;0.6792035398;0.6814159292;0.6836283186;0.6946902655;0.6969026549;0.6991150442;0.7013274336;0.703539823;0.7057522124;0.7079646018;0.7101769912;0.7123893805;0.7146017699;0.7168141593;0.7212389381;0.7234513274;0.732300885;0.7345132743;0.7389380531;0.7411504425;0.7433628319;0.7455752212;0.7477876106;0.75;0.7522123894;0.7544247788;0.767699115;0.7699115044;0.7721238938;0.7743362832;0.7765486726;0.7787610619;0.7809734513;0.7831858407;0.7853982301;0.7876106195;0.7898230088;0.7920353982;0.7942477876;0.796460177;0.7986725664;0.8008849558;0.8030973451;0.8053097345;0.8075221239;0.814159292;0.8163716814;0.8185840708;0.8207964602;0.8230088496;0.8252212389;0.8274336283;0.8296460177;0.8318584071;0.8340707965;0.8362831858;0.8384955752;0.8407079646;0.842920354;0.8451327434;0.8473451327;0.8495575221;0.8517699115;0.8539823009;0.8561946903;0.8584070796;0.8628318584;0.8650442478;0.8827433628;0.8849557522;0.9203539823;0.9225663717;0.9247787611;0.9269911504;0.9292035398;0.9314159292;0.9336283186;0.935840708;0.9380530973;0.9402654867;0.9424778761;0.9446902655;0.9469026549;0.9491150442;0.9513274336;0.953539823;0.9557522124;0.9579646018;0.9601769912;0.9623893805;0.9646017699;0.9668141593;0.9690265487;0.9712389381;0.9734513274;0.9756637168;0.9778761062;0.9800884956;0.982300885;0.9867256637;0.9889380531;0.9911504425;0.9933628319;0.9955752212;1.0" repeatCount="indefinite" values="-1400;-1400;-1400;-1500;-1600;-1600;-1700;-1800;-1800;-1900;-2000;-2100;-2200;-2200;-2300;-2300;-2400;-2500;-2600;-2700;-2800;-2900;-2900;-3000;-3000;-3100;-3000;-3000;-3100;-3200;-3300;-3400;-3500;-3500;-3400;-3400;-3500;-3400;-3400;-3500;-3600;-3500;-3500;-3600;-3600;-3500;-3400;-3400;-3500;-3600;-3500;-3400;-3300;-3300;-3200;-3200;-3100;-3100;-3000;-2900;-2800;-2700;-2800;-2800;-2900;-3000;-3100;-3200;-3200;-3300;-3300;-3400;-3400;-3300;-3300;-3400;-3400;-3300;-3200;-3100;-3100;-3200;-3200;-3100;-3100;-3000;-3000;-2900;-2800;-2800;-2700;-2800;-2800;-2700;-2700;-2600;-2700;-2800;-2800;-2700;-2700;-2600;-2500;-2400;-2300;-2300;-2200;-2100;-2100;-2000;-1900;-2000;-2000;-1900;-1800;-1700;-1700;-1600;-1500;-1400;-1400;-1300;-1200;-1200;-1300;-1300;-1200;-1200;-1100;-1000;-1100;-1100;-1000;-900;-800;-700;-800;-800;-900;-1000;-1000;-1100;-1200;-1300;-1400;-1500;-1500;-1600;-1600;-1700;-1700;-1800;-1900;-2000;-2100;-2200;-2300;-2400;-2500;-2600;-2600;-2500;-2400;-2400;-2300;-2300;-2200;-2100;-2000;-1900;-1800;-1800;-1700;-1600;-1500;-1500;-1400;-1300;-1300;-1200;-1100;-1100;-1000;-900;-1000;-1100;-1200;-1300;-1400;-1500;-1600;-1700;-1800;-1800;-1900;-2000;-2000;-2100;-2000;-2000;-2100;-2100;-2000;-2000;-2100;-2200;-2200;-2100;-2100;-2200;-2200;-2300;-2300;-2200;-2100;-2100;-2200;-2100;-2000;-2000;-1900;-1800;-1800;-1700;-1600;-1600;-1700;-1600;-1500;-1500;-1600;-1700;-1800;-1900;-2000;-2100;-2100;-2200;-2200;-2300;-2300;-2400;-2500;-2600;-2700;-2700;-2800;-2900;-2900;-2800;-2800;-2700;-2700;-2600;-2500;-2600;-2500;-2600;-2500;-2600;-2700;-2800;-2700;-2600;-2500;-2500;-2400;-2400;-2300;-2400;-2500;-2400;-2400;-2300;-2200;-2200;-2300;-2200;-2100;-2000;-1900;-1800;-1700;-1600;-1500;-1500;-1400;-1300;-1300;-1400;-1400;-1300;-1300;-1200;-1100;-1000;-900;-800;-700;-800;-900;-1000;-1100;-1200;-1200;-1300;-1300;-1400;-1500;-1600;-1600;-1700;-1800;-1900;-2000;-2100;-2200;-2300;-2300;-2400;-2500;-2500;-2600;-2700;-2800;-2900;-2900"/>
<animate attributeName="cx" dur="126.28000000000002s" keyTimes="0.0;0.0022123894;0.0044247788;0.0265486726;0.0287610619;0.0309734513;0.0331858407;0.046460177;0.0486725664;0.0508849558;0.0530973451;0.0553097345;0.0575221239;0.0597345133;0.0619469027;0.0663716814;0.0685840708;0.0707964602;0.0730088496;0.0840707965;0.0862831858;0.0884955752;0.0907079646;0.092920354;0.0951327434;0.0973451327;0.0995575221;0.1017699115;0.1039823009;0.1061946903;0.1084070796;0.110619469;0.1128318584;0.1172566372;0.1194690265;0.1216814159;0.1283185841;0.1305309735;0.1327433628;0.1349557522;0.139380531;0.1415929204;0.1526548673;0.1548672566;0.157079646;0.1592920354;0.1615044248;0.1637168142;0.1659292035;0.1814159292;0.1836283186;0.185840708;0.2013274336;0.203539823;0.2057522124;0.2079646018;0.2101769912;0.2123893805;0.2146017699;0.2168141593;0.2190265487;0.2212389381;0.2234513274;0.2256637168;0.2278761062;0.2300884956;0.232300885;0.2345132743;0.2367256637;0.2389380531;0.2455752212;0.2477876106;0.25;0.2522123894;0.2544247788;0.2566371681;0.2588495575;0.2610619469;0.2632743363;0.2699115044;0.2721238938;0.2743362832;0.2765486726;0.2809734513;0.2831858407;0.2853982301;0.2876106195;0.2898230088;0.2920353982;0.2986725664;0.3008849558;0.3030973451;0.3053097345;0.3075221239;0.3185840708;0.3207964602;0.3230088496;0.3274336283;0.3296460177;0.3362831858;0.3384955752;0.3407079646;0.342920354;0.3495575221;0.3517699115;0.3539823009;0.360619469;0.3628318584;0.3672566372;0.3694690265;0.3738938053;0.3761061947;0.3783185841;0.3849557522;0.3871681416;0.407079646;0.4092920354;0.4159292035;0.4181415929;0.4292035398;0.4314159292;0.4336283186;0.435840708;0.4402654867;0.4424778761;0.4623893805;0.4646017699;0.4668141593;0.4690265487;0.4712389381;0.4734513274;0.4756637168;0.4778761062;0.4800884956;0.4845132743;0.4867256637;0.4889380531;0.4911504425;0.4933628319;0.4955752212;0.4977876106;0.5;0.5022123894;0.5044247788;0.5066371681;0.5088495575;0.5221238938;0.5243362832;0.5309734513;0.5331858407;0.5376106195;0.5398230088;0.5730088496;0.5752212389;0.5796460177;0.5818584071;0.5840707965;0.5862831858;0.5884955752;0.5907079646;0.592920354;0.5973451327;0.5995575221;0.6017699115;0.6039823009;0.6061946903;0.6084070796;0.6128318584;0.6150442478;0.6194690265;0.6216814159;0.6238938053;0.6261061947;0.6283185841;0.6305309735;0.6327433628;0.6349557522;0.6371681416;0.639380531;0.6415929204;0.6438053097;0.6460176991;0.6482300885;0.6504424779;0.6526548673;0.6548672566;0.6592920354;0.6615044248;0.6681415929;0.6703539823;0.6747787611;0.6769911504;0.6792035398;0.6836283186;0.685840708;0.6880530973;0.6902654867;0.6924778761;0.6946902655;0.7013274336;0.703539823;0.7168141593;0.7190265487;0.7212389381;0.7234513274;0.7256637168;0.7278761062;0.7300884956;0.732300885;0.7345132743;0.7367256637;0.7389380531;0.7477876106;0.75;0.7544247788;0.7566371681;0.7588495575;0.7610619469;0.7632743363;0.7654867257;0.767699115;0.7699115044;0.7721238938;0.8030973451;0.8053097345;0.8075221239;0.8097345133;0.8119469027;0.814159292;0.8230088496;0.8252212389;0.8296460177;0.8318584071;0.8517699115;0.8539823009;0.8584070796;0.860619469;0.8628318584;0.8650442478;0.8672566372;0.8694690265;0.8716814159;0.8738938053;0.8761061947;0.8783185841;0.8805309735;0.8827433628;0.8849557522;0.8871681416;0.889380531;0.8915929204;0.8938053097;0.8960176991;0.8982300885;0.9004424779;0.9026548673;0.9048672566;0.907079646;0.9092920354;0.9115044248;0.9137168142;0.9159292035;0.9181415929;0.9203539823;0.9446902655;0.9469026549;0.9491150442;0.9513274336;0.9756637168;0.9778761062;0.9845132743;0.9867256637;0.9955752212;0.9977876106;1.0" repeatCount="indefinite" values="2500;2500;2600;2600;2700;2700;2800;2800;2900;2900;3000;3100;3200;3300;3400;3400;3300;3400;3500;3500;3400;3300;3400;3300;3200;3100;3000;2900;2800;2700;2600;2600;2700;2700;2800;2900;2900;3000;3000;2900;2900;3000;3000;2900;3000;3100;3100;3200;3300;3300;3400;3300;3300;3200;3300;3200;3100;3000;2900;2900;2800;2900;2800;2800;2700;2600;2700;2700;2600;2500;2500;2600;2700;2700;2800;2800;2900;2900;2800;2800;2700;2800;2900;2900;2800;2900;3000;3000;2900;2900;2800;2900;2900;2800;2800;2900;3000;3000;2900;2900;2800;2800;2700;2700;2800;2900;2900;2800;2800;2700;2700;2600;2700;2700;2800;2800;2700;2700;2800;2800;2700;2700;2600;2600;2700;2700;2600;2600;2500;2400;2500;2600;2700;2800;2800;2900;3000;3100;3000;3100;3200;3300;3400;3400;3500;3600;3600;3700;3700;3600;3600;3700;3700;3600;3600;3500;3400;3300;3200;3100;3000;3000;2900;2800;2700;2700;2800;2800;2700;2700;2600;2600;2700;2600;2500;2400;2300;2200;2200;2100;2000;1900;1800;1800;1700;1600;1600;1700;1700;1600;1600;1700;1800;1800;1700;1600;1700;1600;1700;1700;1600;1600;1700;1800;1800;1900;2000;2100;2200;2200;2300;2400;2400;2300;2300;2200;2100;2000;1900;1800;1700;1700;1600;1600;1500;1500;1600;1700;1600;1600;1500;1500;1600;1600;1700;1700;1600;1700;1700;1800;1900;2000;2100;2200;2300;2400;2500;2500;2600;2700;2800;2800;2900;3000;3000;3100;3200;3200;3100;3200;3300;3400;3500;3600;3600;3700;3700;3600;3600;3500;3500;3400;3400;3300;3300"/>
<animate attributeName="visibility" dur="126.28000000000002s" keyTimes="0.0;0.0022123894;1.0" repeatCount="indefinite" values="visible;visible;visible"/> </circle>
<circle cx="3000" cy="-1900" fill="#2e6f9e" r="35"> <animate attributeName="cy" dur="126.28000000000002s" keyTimes="0.0;0.0022123894;0.0044247788;0.0066371681;0.0088495575;0.0110619469;0.0132743363;0.0154867257;0.017699115;0.0199115044;0.0221238938;0.0243362832;0.0309734513;0.0331858407;0.0353982301;0.0376106195;0.0398230088;0.0420353982;0.0442477876;0.046460177;0.0486725664;0.0508849558;0.0530973451;0.0553097345;0.0575221239;0.0597345133;0.0619469027;0.064159292;0.0663716814;0.0685840708;0.0707964602;0.0730088496;0.0752212389;0.0796460177;0.0818584071;0.0840707965;0.0884955752;0.0907079646;0.092920354;0.0951327434;0.0973451327;0.0995575221;0.1017699115;0.1039823009;0.1061946903;0.1084070796;0.110619469;0.1128318584;0.1150442478;0.1172566372;0.1194690265;0.1216814159;0.1238938053;0.1261061947;0.1283185841;0.1305309735;0.1327433628;0.1349557522;0.1371681416;0.139380531;0.1415929204;0.1438053097;0.1460176991;0.1482300885;0.1504424779;0.1526548673;0.1548672566;0.157079646;0.1592920354;0.1615044248;0.1637168142;0.1659292035;0.1681415929;0.1703539823;0.1725663717;0.1747787611;0.1769911504;0.1792035398;0.1814159292;0.1836283186;0.185840708;0.1880530973;0.1902654867;0.1924778761;0.1946902655;0.1969026549;0.1991150442;0.2013274336;0.203539823;0.2057522124;0.2101769912;0.2123893805;0.2146017699;0.2168141593;0.2190265487;0.2212389381;0.2234513274;0.2256637168;0.2278761062;0.2300884956;0.232300885;0.2345132743;0.2367256637;0.2389380531;0.2411504425;0.2433628319;0.2455752212;0.2477876106;0.25;0.2522123894;0.2544247788;0.2566371681;0.2588495575;0.2610619469;0.2876106195;0.2898230088;0.2920353982;0.2942477876;0.296460177;0.2986725664;0.3008849558;0.3030973451;0.3053097345;0.3075221239;0.3097345133;0.3119469027;0.314159292;0.3163716814;0.3185840708;0.3207964602;0.3230088496;0.3252212389;0.3274336283;0.3296460177;0.3318584071;0.3340707965;0.3362831858;0.3384955752;0.3407079646;0.342920354;0.3451327434;0.3473451327;0.3495575221;0.3517699115;0.3539823009;0.3561946903;0.3584070796;0.360619469;0.3628318584;0.3650442478;0.3672566372;0.3694690265;0.3716814159;0.3738938053;0.3761061947;0.3783185841;0.3805309735;0.3827433628;0.3849557522;0.3871681416;0.4159292035;0.4181415929;0.4203539823;0.4225663717;0.4247787611;0.4269911504;0.4292035398;0.4314159292;0.4336283186;0.435840708;0.4380530973;0.4402654867;0.4424778761;0.4601769912;0.4623893805;0.4646017699;0.4668141593;0.4690265487;0.4712389381;0.4756637168;0.4778761062;0.4800884956;0.4845132743;0.4867256637;0.4889380531;0.4911504425;0.4955752212;0.4977876106;0.5022123894;0.5044247788;0.5066371681;0.5088495575;0.5110619469;0.5132743363;0.5154867257;0.517699115;0.5199115044;0.5221238938;0.5243362832;0.5265486726;0.5287610619;0.5309734513;0.5331858407;0.5353982301;0.5376106195;0.5398230088;0.5420353982;0.5442477876;0.546460177;0.5486725664;0.5508849558;0.5530973451;0.5553097345;0.5995575221;0.6017699115;0.6039823009;0.6061946903;0.6084070796;0.610619469;0.6128318584;0.6150442478;0.6172566372;0.6194690265;0.6216814159;0.6238938053;0.6261061947;0.6283185841;0.6305309735;0.6327433628;0.6349557522;0.6371681416;0.639380531;0.6415929204;0.6438053097;0.6460176991;0.6482300885;0.6504424779;0.6526548673;0.6548672566;0.657079646;0.6592920354;0.6615044248;0.6637168142;0.6659292035;0.7123893805;0.7146017699;0.7278761062;0.7300884956;0.7345132743;0.7367256637;0.7787610619;0.7809734513;0.7876106195;0.7898230088;0.7920353982;0.7942477876;0.796460177;0.8008849558;0.8030973451;0.8119469027;0.814159292;0.8252212389;0.8274336283;0.8296460177;0.8340707965;0.8362831858;0.8384955752;0.8407079646;0.8495575221;0.8517699115;0.8539823009;0.8561946903;0.8584070796;0.860619469;0.8783185841;0.8805309735;0.8827433628;0.8849557522;0.8871681416;0.889380531;0.8915929204;0.8938053097;0.8960176991;0.8982300885;0.9004424779;0.9026548673;0.9048672566;0.907079646;0.9092920354;0.9115044248;0.9137168142;0.9181415929;0.9203539823;0.9292035398;0.9314159292;0.9336283186;0.935840708;0.9579646018;0.9601769912;0.9623893805;0.9646017699;0.9668141593;0.9690265487;0.9756637168;0.9778761062;0.9800884956;0.9845132743;0.9867256637;0.9889380531;0.9911504425;0.9955752212;0.9977876106;1.0" repeatCount="indefinite" values="-1900;-1900;-1900;-2000;-2100;-2200;-2300;-2400;-2400;-2500;-2500;-2600;-2600;-2500;-2400;-2300;-2200;-2100;-2000;-1900;-1800;-1700;-1600;-1500;-1400;-1300;-1200;-1100;-1100;-1000;-1000;-900;-800;-800;-700;-800;-800;-900;-1000;-1100;-1200;-1300;-1400;-1500;-1600;-1700;-1800;-1900;-2000;-2100;-2200;-2300;-2400;-2400;-2500;-2500;-2600;-2700;-2800;-2900;-3000;-3100;-3200;-3300;-3200;-3100;-3000;-2900;-2800;-2700;-2600;-2500;-2400;-2300;-2200;-2100;-2000;-2000;-1900;-1800;-1700;-1700;-1600;-1600;-1500;-1500;-1400;-1400;-1300;-1200;-1200;-1100;-1100;-1000;-1100;-1200;-1300;-1400;-1500;-1600;-1700;-1800;-1800;-1900;-2000;-2100;-2200;-2300;-2400;-2500;-2600;-2700;-2800;-2900;-2900;-2800;-2700;-2600;-2600;-2500;-2400;-2400;-2300;-2200;-2100;-2000;-1900;-1800;-1700;-1600;-1500;-1400;-1400;-1300;-1200;-1300;-1400;-1400;-1500;-1600;-1700;-1800;-1900;-2000;-2100;-2200;-2300;-2400;-2500;-2600;-2700;-2800;-2900;-3000;-3100;-3200;-3300;-3400;-3500;-3600;-3600;-3500;-3500;-3400;-3300;-3300;-3200;-3100;-3000;-2900;-2900;-2800;-2700;-2700;-2600;-2600;-2500;-2400;-2300;-2300;-2200;-2100;-2100;-2000;-1900;-1800;-1800;-1700;-1700;-1600;-1600;-1500;-1600;-1700;-1800;-1900;-2000;-2100;-2200;-2300;-2400;-2500;-2500;-2600;-2700;-2800;-2900;-3000;-3100;-3200;-3300;-3400;-3500;-3500;-3400;-3300;-3200;-3100;-3000;-2900;-2800;-2700;-2600;-2500;-2400;-2300;-2200;-2100;-2000;-1900;-1900;-1800;-1700;-1700;-1600;-1500;-1400;-1300;-1200;-1300;-1400;-1500;-1600;-1700;-1700;-1800;-1800;-1900;-1900;-2000;-2000;-2100;-2100;-2200;-2300;-2400;-2500;-2500;-2600;-2600;-2500;-2500;-2400;-2300;-2300;-2200;-2100;-2000;-2000;-1900;-1900;-1800;-1800;-1700;-1700;-1600;-1500;-1500;-1400;-1300;-1300;-1200;-1200;-1100;-1100;-1000;-900;-900;-800;-800;-700;-700;-600;-600;-700;-700;-800;-800;-900;-900;-1000;-1000;-1100;-1100;-1200;-1300;-1300;-1400;-1400;-1500;-1500;-1400;-1400"/>
<animate attributeName="cx" dur="126.28000000000002s" keyTimes="0.0;0.0022123894;0.0044247788;0.0154867257;0.017699115;0.0199115044;0.0221238938;0.0243362832;0.0265486726;0.0287610619;0.0309734513;0.064159292;0.0663716814;0.0685840708;0.0707964602;0.0752212389;0.0774336283;0.0796460177;0.0840707965;0.0862831858;0.0884955752;0.1238938053;0.1261061947;0.1283185841;0.1305309735;0.1769911504;0.1792035398;0.185840708;0.1880530973;0.1902654867;0.1924778761;0.1946902655;0.1969026549;0.1991150442;0.2013274336;0.2057522124;0.2079646018;0.2101769912;0.2123893805;0.2146017699;0.2345132743;0.2367256637;0.2610619469;0.2632743363;0.2654867257;0.267699115;0.2699115044;0.2721238938;0.2743362832;0.2765486726;0.2787610619;0.2809734513;0.2831858407;0.2853982301;0.2876106195;0.2942477876;0.296460177;0.3008849558;0.3030973451;0.3252212389;0.3274336283;0.3362831858;0.3384955752;0.3871681416;0.389380531;0.3915929204;0.3938053097;0.3960176991;0.3982300885;0.4004424779;0.4026548673;0.4048672566;0.407079646;0.4092920354;0.4115044248;0.4137168142;0.4159292035;0.4181415929;0.4203539823;0.4247787611;0.4269911504;0.435840708;0.4380530973;0.4424778761;0.4446902655;0.4469026549;0.4491150442;0.4513274336;0.453539823;0.4557522124;0.4579646018;0.4601769912;0.4623893805;0.4646017699;0.4712389381;0.4734513274;0.4756637168;0.4800884956;0.482300885;0.4845132743;0.4911504425;0.4933628319;0.4955752212;0.4977876106;0.5;0.5022123894;0.5044247788;0.5066371681;0.5309734513;0.5331858407;0.5553097345;0.5575221239;0.5597345133;0.5619469027;0.564159292;0.5663716814;0.5685840708;0.5707964602;0.5730088496;0.5752212389;0.5774336283;0.5796460177;0.5818584071;0.5840707965;0.5862831858;0.5884955752;0.5907079646;0.592920354;0.5951327434;0.5973451327;0.5995575221;0.6349557522;0.6371681416;0.6415929204;0.6438053097;0.6659292035;0.6681415929;0.6703539823;0.6725663717;0.6747787611;0.6769911504;0.6792035398;0.6814159292;0.6836283186;0.685840708;0.6880530973;0.6902654867;0.6924778761;0.6946902655;0.6969026549;0.6991150442;0.7013274336;0.703539823;0.7057522124;0.7079646018;0.7101769912;0.7123893805;0.7146017699;0.7168141593;0.7190265487;0.7212389381;0.7234513274;0.7256637168;0.7278761062;0.7300884956;0.732300885;0.7345132743;0.7367256637;0.7389380531;0.7411504425;0.7433628319;0.7455752212;0.7477876106;0.75;0.7522123894;0.7544247788;0.7566371681;0.7588495575;0.7610619469;0.7632743363;0.7654867257;0.767699115;0.7699115044;0.7721238938;0.7743362832;0.7765486726;0.7787610619;0.7809734513;0.7831858407;0.7853982301;0.7876106195;0.796460177;0.7986725664;0.8008849558;0.8030973451;0.8053097345;0.8075221239;0.8097345133;0.8119469027;0.814159292;0.8163716814;0.8185840708;0.8207964602;0.8230088496;0.8252212389;0.8296460177;0.8318584071;0.8340707965;0.8407079646;0.842920354;0.8451327434;0.8473451327;0.8495575221;0.8517699115;0.8539823009;0.8561946903;0.8584070796;0.860619469;0.8628318584;0.8650442478;0.8672566372;0.8694690265;0.8716814159;0.8738938053;0.8761061947;0.8783185841;0.8827433628;0.8849557522;0.889380531;0.8915929204;0.8938053097;0.8960176991;0.8982300885;0.9004424779;0.9048672566;0.907079646;0.9092920354;0.9115044248;0.9137168142;0.9159292035;0.9181415929;0.9203539823;0.9225663717;0.9247787611;0.9269911504;0.9292035398;0.9314159292;0.9336283186;0.935840708;0.9380530973;0.9402654867;0.9424778761;0.9446902655;0.9469026549;0.9491150442;0.9513274336;0.953539823;0.9557522124;0.9579646018;0.9601769912;0.9623893805;0.9646017699;0.9668141593;0.9690265487;0.9712389381;0.9734513274;0.9756637168;0.9800884956;0.982300885;0.9845132743;0.9867256637;0.9889380531;0.9911504425;0.9933628319;0.9955752212;1.0" repeatCount="indefinite" values="3000;3000;2900;2900;2800;2800;2700;2700;2600;2500;2400;2400;2500;2500;2600;2600;2500;2400;2400;2500;2600;2600;2500;2500;2400;2400;2500;2500;2600;2600;2700;2700;2800;2800;2900;2900;3000;3100;3100;3200;3200;3300;3300;3400;3500;3400;3300;3200;3100;3000;2900;2800;2800;2900;2800;2800;2700;2700;2600;2600;2500;2500;2400;2400;2500;2400;2300;2200;2100;2000;1900;1800;1700;1600;1500;1400;1300;1300;1200;1200;1300;1300;1200;1200;1300;1400;1500;1600;1700;1800;1900;2000;2000;2100;2100;2200;2300;2300;2400;2500;2500;2600;2700;2700;2800;2900;2900;3000;3000;2900;2900;3000;2900;2800;2700;2600;2500;2400;2300;2200;2100;2000;1900;1800;1700;1600;1500;1400;1300;1200;1100;1100;1200;1200;1100;1100;1200;1300;1400;1500;1600;1700;1700;1600;1700;1800;1900;2000;2100;2200;2300;2400;2500;2600;2700;2800;2900;2900;3000;3100;3200;3300;3400;3500;3500;3600;3500;3500;3400;3300;3200;3100;3000;2900;2800;2700;2600;2500;2400;2300;2200;2100;2000;1900;1800;1700;1600;1600;1500;1400;1300;1300;1400;1500;1500;1600;1700;1600;1500;1500;1400;1300;1200;1100;1000;1000;900;800;800;900;1000;1100;1200;1200;1300;1300;1400;1400;1500;1600;1700;1800;1900;2000;2100;2200;2200;2300;2300;2400;2400;2500;2500;2600;2600;2700;2700;2800;2800;2900;3000;3000;3100;3000;2900;2800;2800;2700;2700;2600;2500;2400;2300;2200;2100;2000;1900;1800;1700;1700;1600;1600;1500;1500;1400;1300;1200;1200;1100;1000;1000;900;900;1000;1100;1100"/>
<animate attributeName="visibility" dur="126.28000000000002s" keyTimes="0.0;0.0022123894;1.0" repeatCount="indefinite" values="visible;visible;visible"/> </circle>
<circle cx="3500" cy="-3000" fill="none" r="35" stroke="#c1433c" stroke-width="10"> <animate attributeName="cy" dur="126.28000000000002s" keyTimes="0.0;0.0022123894;0.0707964602;0.0730088496;0.1061946903;0.1084070796;0.1769911504;0.1792035398;0.2345132743;0.2367256637;0.3053097345;0.3075221239;0.4026548673;0.4048672566;0.4690265487;0.4712389381;0.5508849558;0.5530973451;0.6172566372;0.6194690265;0.7013274336;0.703539823;0.7367256637;0.7389380531;0.7632743363;0.7654867257;0.8584070796;0.860619469;0.9314159292;0.9336283186;1.0" repeatCount="indefinite" values="-3000;-3000;-3000;-3500;-3500;-2700;-2700;-3400;-3400;-2700;-2700;-700;-700;-2600;-2600;-900;-900;-2200;-2200;-1500;-1500;-2300;-2300;-2900;-2900;-1300;-1300;-700;-700;-2900;-2900"/>
<animate attributeName="cx" dur="126.28000000000002s" keyTimes="0.0;0.0022123894;0.0707964602;0.0730088496;0.1061946903;0.1084070796;0.1769911504;0.1792035398;0.2345132743;0.2367256637;0.4026548673;0.4048672566;0.4690265487;0.4712389381;0.5508849558;0.5530973451;0.6172566372;0.6194690265;0.7013274336;0.703539823;0.7367256637;0.7389380531;0.7632743363;0.7654867257;0.8584070796;0.860619469;0.9314159292;0.9336283186;1.0" repeatCount="indefinite" values="3500;3500;3500;2600;2600;3300;3300;2600;2600;2800;2800;2400;2400;3700;3700;2700;2700;1600;1600;2400;2400;1800;1800;1600;1600;3600;3600;1600;1600"/>
<animate attributeName="visibility" dur="126.28000000000002s" keyTimes="0.0;0.0022123894;1.0" repeatCount="indefinite" values="visible;visible;visible"/> </circle>
<circle cx="2600" cy="-2600" fill="none" r="35" stroke="#2e6f9e" stroke-width="10"> <animate attributeName="cy" dur="126.28000000000002s" keyTimes="0.0;0.0022123894;0.0243362832;0.0265486726;0.0796460177;0.0818584071;0.1460176991;0.1482300885;0.2146017699;0.2168141593;0.2345132743;0.2367256637;0.2632743363;0.2654867257;0.3296460177;0.3318584071;0.3871681416;0.389380531;0.4269911504;0.4292035398;0.5066371681;0.5088495575;0.5553097345;0.5575221239;0.6526548673;0.6548672566;0.6991150442;0.7013274336;0.7300884956;0.732300885;0.7876106195;0.7898230088;0.8053097345;0.8075221239;0.8384955752;0.8407079646;0.9203539823;0.9225663717;0.9889380531;0.9911504425;1.0" repeatCount="indefinite" values="-2600;-2600;-2600;-700;-700;-3300;-3300;-1000;-1000;-1800;-1800;-2900;-2900;-1200;-1200;-3600;-3600;-3200;-3200;-1500;-1500;-3500;-3500;-1200;-1200;-1700;-1700;-1900;-1900;-2200;-2200;-2600;-2600;-2000;-2000;-600;-600;-1500;-1500;-1300;-1300"/>
<animate attributeName="cx" dur="126.28000000000002s" keyTimes="0.0;0.0022123894;0.0243362832;0.0265486726;0.1460176991;0.1482300885;0.2146017699;0.2168141593;0.2345132743;0.2367256637;0.2632743363;0.2654867257;0.3871681416;0.389380531;0.4269911504;0.4292035398;0.5553097345;0.5575221239;0.6526548673;0.6548672566;0.6991150442;0.7013274336;0.7300884956;0.732300885;0.7876106195;0.7898230088;0.8053097345;0.8075221239;0.8384955752;0.8407079646;0.9203539823;0.9225663717;0.9889380531;0.9911504425;1.0" repeatCount="indefinite" values="2600;2600;2600;2400;2400;3200;3200;3300;3300;3500;3500;2500;2500;1300;1300;3000;3000;1100;1100;2400;2400;3600;3600;1300;1300;1700;1700;800;800;3100;3100;900;900;3100;3100"/>
<animate attributeName="visibility" dur="126.28000000000002s" keyTimes="0.0;0.0022123894;1.0" repeatCount="indefinite" values="visible;visible;visible"/> </circle>
</svg>