<?xml version="1.0" encoding="UTF-8"?>
        <svg xmlns="http://www.w3.org/2000/svg" xmlns:xlink="http://www.w3.org/1999/xlink"
             width="430" height="430" viewBox="0 -4300 4300 4300">

<defs>

</defs>

<rect fill="#84A1AE" height="70" rx="15" width="70" x="465" y="-535" />
<rect fill="#84A1AE" height="70" rx="15" width="70" x="465" y="-635" />
<rect fill="#84A1AE" height="70" rx="15" width="70" x="465" y="-735" />
<rect fill="#84A1AE" height="70" rx="15" width="70" x="465" y="-835" />
<rect fill="#84A1AE" height="70" rx="15" width="70" x="465" y="-935" />
<rect fill="#84A1AE" height="70" rx="15" width="70" x="465" y="-1035" />
<rect fill="#84A1AE" height="70" rx="15" width="70" x="465" y="-1135" />
<rect fill="#84A1AE" height="70" rx="15" width="70" x="465" y="-1235" />
<rect fill="#84A1AE" height="70" rx="15" width="70" x="465" y="-1335" />
<rect fill="#84A1AE" height="70" rx="15" width="70" x="465" y="-1435" />
<rect fill="#84A1AE" height="70" rx="15" width="70" x="465" y="-1535" />
<rect fill="#84A1AE" height="70" rx="15" width="70" x="465" y="-1635" />
<rect fill="#84A1AE" height="70" rx="15" width="70" x="465" y="-1735" />
<rect fill="#84A1AE" height="70" rx="15" width="70" x="465" y="-1835" />
<rect fill="#84A1AE" height="70" rx="15" width="70" x="465" y="-1935" />
<rect fill="#84A1AE" height="70" rx="15" width="70" x="465" y="-2035" />
<rect fill="#84A1AE" height="70" rx="15" width="70" x="465" y="-2135" />
<rect fill="#84A1AE" height="70" rx="15" width="70" x="465" y="-2235" />
<rect fill="#84A1AE" height="70" rx="15" width="70" x="465" y="-2335" />
<rect fill="#84A1AE" height="70" rx="15" width="70" x="465" y="-2435" />
<rect fill="#84A1AE" height="70" rx="15" width="70" x="465" y="-2535" />
<rect fill="#84A1AE" height="70" rx="15" width="70" x="465" y="-2635" />
<rect fill="#84A1AE" height="70" rx="15" width="70" x="465" y="-2735" />
<rect fill="#84A1AE" height="70" rx="15" width="70" x="465" y="-2835" />
<rect fill="#84A1AE" height="70" rx="15" width="70" x="465" y="-2935" />
<rect fill="#84A1AE" height="70" rx="15" width="70" x="465" y="-3035" />
<rect fill="#84A1AE" height="70" rx="15" width="70" x="465" y="-3135" />
<rect fill="#84A1AE" height="70" rx="15" width="70" x="465" y="-3235" />
<rect fill="#84A1AE" height="70" rx="15" width="70" x="465" y="-3335" />
<rect fill="#84A1AE" height="70" rx="15" width="70" x="465" y="-3435" />
<rect fill="#84A1AE" height="70" rx="15" width="70" x="465" y="-3535" />
<rect fill="#84A1AE" height="70" rx="15" width="70" x="465" y="-3635" />
<rect fill="#84A1AE" height="70" rx="15" width="70" x="465" y="-3735" />
<rect fill="#84A1AE" height="70" rx="15" width="70" x="465" y="-3835" />
<rect fill="#84A1AE" height="70" rx="15" width="70" x="565" y="-535" />
<rect fill="#84A1AE" height="70" rx="15" width="70" x="565" y="-1635" />
<rect fill="#84A1AE" height="70" rx="15" width="70" x="565" y="-1935" />
<rect fill="#84A1AE" height="70" rx="15" width="70" x="565" y="-2735" />
<rect fill="#84A1AE" height="70" rx="15" width="70" x="565" y="-3835" />
<rect fill="#84A1AE" height="70" rx="15" width="70" x="665" y="-535" />
<rect fill="#84A1AE" height="70" rx="15" width="70" x="665" y="-1035" />
<rect fill="#84A1AE" height="70" rx="15" width="70" x="665" y="-2535" />
<rect fill="#84A1AE" height="70" rx="15" width="70" x="665" y="-3035" />
<rect fill="#84A1AE" height="70" rx="15" width="70" x="665" y="-3235" />
<rect fill="#84A1AE" height="70" rx="15" width="70" x="665" y="-3835" />
<rect fill="#84A1AE" height="70" rx="15" width="70" x="765" y="-535" />
<rect fill="#84A1AE" height="70" rx="15" width="70" x="765" y="-635" />
<rect fill="#84A1AE" height="70" rx="15" width="70" x="765" y="-3835" />
<rect fill="#84A1AE" height="70" rx="15" width="70" x="865" y="-535" />
<rect fill="#84A1AE" height="70" rx="15" width="70" x="865" y="-2435" />
<rect fill="#84A1AE" height="70" rx="15" width="70" x="865" y="-2535" />
<rect fill="#84A1AE" height="70" rx="15" width="70" x="865" y="-3335" />
<rect fill="#84A1AE" height="70" rx="15" width="70" x="865" y="-3435" />
<rect fill="#84A1AE" height="70" rx="15" width="70" x="865" y="-3835" />
<rect fill="#84A1AE" height="70" rx="15" width="70" x="965" y="-535" />
<rect fill="#84A1AE" height="70" rx="15" width="70" x="965" y="-735" />
<rect fill="#84A1AE" height="70" rx="15" width="70" x="965" y="-1635" />
<rect fill="#84A1AE" height="70" rx="15" width="70" x="965" y="-1835" />
<rect fill="#84A1AE" height="70" rx="15" width="70" x="965" y="-2835" />
<rect fill="#84A1AE" height="70" rx="15" width="70" x="965" y="-3435" />
<rect fill="#84A1AE" height="70" rx="15" width="70" x="965" y="-3835" />
<rect fill="#84A1AE" height="70" rx="15" width="70" x="1065" y="-535" />
<rect fill="#84A1AE" height="70" rx="15" width="70" x="1065" y="-1135" />
<rect fill="#84A1AE" height="70" rx="15" width="70" x="1065" y="-1835" />
<rect fill="#84A1AE" height="70" rx="15" width="70" x="1065" y="-3735" />
<rect fill="#84A1AE" height="70" rx="15" width="70" x="1065" y="-3835" />
<rect fill="#84A1AE" height="70" rx="15" width="70" x="1165" y="-535" />
<rect fill="#84A1AE" height="70" rx="15" width="70" x="1165" y="-635" />
<rect fill="#84A1AE" height="70" rx="15" width="70" x="1165" y="-735" />
<rect fill="#84A1AE" height="70" rx="15" width="70" x="1165" y="-1535" />
<rect fill="#84A1AE" height="70" rx="15" width="70" x="1165" y="-3835" />
<rect fill="#84A1AE" height="70" rx="15" width="70" x="1265" y="-535" />
<rect fill="#84A1AE" height="70" rx="15" width="70" x="1265" y="-2835" />
<rect fill="#84A1AE" height="70" rx="15" width="70" x="1265" y="-3435" />
<rect fill="#84A1AE" height="70" rx="15" width="70" x="1265" y="-3835" />
<rect fill="#84A1AE" height="70" rx="15" width="70" x="1365" y="-535" />
<rect fill="#84A1AE" height="70" rx="15" width="70" x="1365" y="-835" />
<rect fill="#84A1AE" height="70" rx="15" width="70" x="1365" y="-935" />
<rect fill="#84A1AE" height="70" rx="15" width="70" x="1365" y="-1035" />
<rect fill="#84A1AE" height="70" rx="15" width="70" x="1365" y="-1935" />
<rect fill="#84A1AE" height="70" rx="15" width="70" x="1365" y="-2335" />
<rect fill="#84A1AE" height="70" rx="15" width="70" x="1365" y="-2635" />
<rect fill="#84A1AE" height="70" rx="15" width="70" x="1365" y="-2835" />
<rect fill="#84A1AE" height="70" rx="15" width="70" x="1365" y="-2935" />
<rect fill="#84A1AE" height="70" rx="15" width="70" x="1365" y="-3035" />
<rect fill="#84A1AE" height="70" rx="15" width="70" x="1365" y="-3335" />
<rect fill="#84A1AE" height="70" rx="15" width="70" x="1365" y="-3835" />
<rect fill="#84A1AE" height="70" rx="15" width="70" x="1465" y="-535" />
<rect fill="#84A1AE" height="70" rx="15" width="70" x="1465" y="-1235" />
<rect fill="#84A1AE" height="70" rx="15" width="70" x="1465" y="-1535" />
<rect fill="#84A1AE" height="70" rx="15" width="70" x="1465" y="-2035" />
<rect fill="#84A1AE" height="70" rx="15" width="70" x="1465" y="-3135" />
<rect fill="#84A1AE" height="70" rx="15" width="70" x="1465" y="-3235" />
<rect fill="#84A1AE" height="70" rx="15" width="70" x="1465" y="-3835" />
<rect fill="#84A1AE" height="70" rx="15" width="70" x="1565" y="-535" />
<rect fill="#84A1AE" height="70" rx="15" width="70" x="1565" y="-3035" />
<rect fill="#84A1AE" height="70" rx="15" width="70" x="1565" y="-3835" />
<rect fill="#84A1AE" height="70" rx="15" width="70" x="1665" y="-535" />
<rect fill="#84A1AE" height="70" rx="15" width="70" x="1665" y="-3735" />
<rect fill="#84A1AE" height="70" rx="15" width="70" x="1665" y="-3835" />
<rect fill="#84A1AE" height="70" rx="15" width="70" x="1765" y="-535" />
<rect fill="#84A1AE" height="70" rx="15" width="70" x="1765" y="-1235" />
<rect fill="#84A1AE" height="70" rx="15" width="70" x="1765" y="-3835" />
<rect fill="#84A1AE" height="70" rx="15" width="70" x="1865" y="-535" />
<rect fill="#84A1AE" height="70" rx="15" width="70" x="1865" y="-735" />
<rect fill="#84A1AE" height="70" rx="15" width="70" x="1865" y="-1335" />
<rect fill="#84A1AE" height="70" rx="15" width="70" x="1865" y="-3235" />
<rect fill="#84A1AE" height="70" rx="15" width="70" x="1865" y="-3435" />
<rect fill="#84A1AE" height="70" rx="15" width="70" x="1865" y="-3835" />
<rect fill="#84A1AE" height="70" rx="15" width="70" x="1965" y="-535" />
<rect fill="#84A1AE" height="70" rx="15" width="70" x="1965" y="-635" />
<rect fill="#84A1AE" height="70" rx="15" width="70" x="1965" y="-1835" />
<rect fill="#84A1AE" height="70" rx="15" width="70" x="1965" y="-1935" />
<rect fill="#84A1AE" height="70" rx="15" width="70" x="1965" y="-2135" />
<rect fill="#84A1AE" height="70" rx="15" width="70" x="1965" y="-2335" />
<rect fill="#84A1AE" height="70" rx="15" width="70" x="1965" y="-2435" />
<rect fill="#84A1AE" height="70" rx="15" width="70" x="1965" y="-3335" />
<rect fill="#84A1AE" height="70" rx="15" width="70" x="1965" y="-3835" />
<rect fill="#84A1AE" height="70" rx="15" width="70" x="2065" y="-535" />
<rect fill="#84A1AE" height="70" rx="15" width="70" x="2065" y="-1535" />
<rect fill="#84A1AE" height="70" rx="15" width="70" x="2065" y="-1635" />
<rect fill="#84A1AE" height="70" rx="15" width="70" x="2065" y="-2135" />
<rect fill="#84A1AE" height="70" rx="15" width="70" x="2065" y="-3835" />
<rect fill="#84A1AE" height="70" rx="15" width="70" x="2165" y="-535" />
<rect fill="#84A1AE" height="70" rx="15" width="70" x="2165" y="-935" />
<rect fill="#84A1AE" height="70" rx="15" width="70" x="2165" y="-1335" />
<rect fill="#84A1AE" height="70" rx="15" width="70" x="2165" y="-1835" />
<rect fill="#84A1AE" height="70" rx="15" width="70" x="2165" y="-3835" />
<rect fill="#84A1AE" height="70" rx="15" width="70" x="2265" y="-535" />
<rect fill="#84A1AE" height="70" rx="15" width="70" x="2265" y="-935" />
<rect fill="#84A1AE" height="70" rx="15" width="70" x="2265" y="-1135" />
<rect fill="#84A1AE" height="70" rx="15" width="70" x="2265" y="-2535" />
<rect fill="#84A1AE" height="70" rx="15" width="70" x="2265" y="-3235" />
<rect fill="#84A1AE" height="70" rx="15" width="70" x="2265" y="-3835" />
<rect fill="#84A1AE" height="70" rx="15" width="70" x="2365" y="-535" />
<rect fill="#84A1AE" height="70" rx="15" width="70" x="2365" y="-935" />
<rect fill="#84A1AE" height="70" rx="15" width="70" x="2365" y="-1035" />
<rect fill="#84A1AE" height="70" rx="15" width="70" x="2365" y="-3835" />
<rect fill="#84A1AE" height="70" rx="15" width="70" x="2465" y="-535" />
<rect fill="#84A1AE" height="70" rx="15" width="70" x="2465" y="-935" />
<rect fill="#84A1AE" height="70" rx="15" width="70" x="2465" y="-1535" />
<rect fill="#84A1AE" height="70" rx="15" width="70" x="2465" y="-2335" />
<rect fill="#84A1AE" height="70" rx="15" width="70" x="2465" y="-2735" />
<rect fill="#84A1AE" height="70" rx="15" width="70" x="2465" y="-3835" />
<rect fill="#84A1AE" height="70" rx="15" width="70" x="2565" y="-535" />
<rect fill="#84A1AE" height="70" rx="15" width="70" x="2565" y="-735" />
<rect fill="#84A1AE" height="70" rx="15" width="70" x="2565" y="-2535" />
<rect fill="#84A1AE" height="70" rx="15" width="70" x="2565" y="-3835" />
<rect fill="#84A1AE" height="70" rx="15" width="70" x="2665" y="-535" />
<rect fill="#84A1AE" height="70" rx="15" width="70" x="2665" y="-635" />
<rect fill="#84A1AE" height="70" rx="15" width="70" x="2665" y="-1135" />
<rect fill="#84A1AE" height="70" rx="15" width="70" x="2665" y="-1435" />
<rect fill="#84A1AE" height="70" rx="15" width="70" x="2665" y="-2735" />
<rect fill="#84A1AE" height="70" rx="15" width="70" x="2665" y="-3835" />
<rect fill="#84A1AE" height="70" rx="15" width="70" x="2765" y="-535" />
<rect fill="#84A1AE" height="70" rx="15" width="70" x="2765" y="-1635" />
<rect fill="#84A1AE" height="70" rx="15" width="70" x="2765" y="-1835" />
<rect fill="#84A1AE" height="70" rx="15" width="70" x="2765" y="-1935" />
<rect fill="#84A1AE" height="70" rx="15" width="70" x="2765" y="-2235" />
<rect fill="#84A1AE" height="70" rx="15" width="70" x="2765" y="-3735" />
<rect fill="#84A1AE" height="70" rx="15" width="70" x="2765" y="-3835" />
<rect fill="#84A1AE" height="70" rx="15" width="70" x="2865" y="-535" />
<rect fill="#84A1AE" height="70" rx="15" width="70" x="2865" y="-3835" />
<rect fill="#84A1AE" height="70" rx="15" width="70" x="2965" y="-535" />
<rect fill="#84A1AE" height="70" rx="15" width="70" x="2965" y="-2635" />
<rect fill="#84A1AE" height="70" rx="15" width="70" x="2965" y="-3835" />
<rect fill="#84A1AE" height="70" rx="15" width="70" x="3065" y="-535" />
<rect fill="#84A1AE" height="70" rx="15" width="70" x="3065" y="-735" />
<rect fill="#84A1AE" height="70" rx="15" width="70" x="3065" y="-2535" />
<rect fill="#84A1AE" height="70" rx="15" width="70" x="3065" y="-3835" />
<rect fill="#84A1AE" height="70" rx="15" width="70" x="3165" y="-535" />
<rect fill="#84A1AE" height="70" rx="15" width="70" x="3165" y="-835" />
<rect fill="#84A1AE" height="70" rx="15" width="70" x="3165" y="-1935" />
<rect fill="#84A1AE" height="70" rx="15" width="70" x="3165" y="-2735" />
<rect fill="#84A1AE" height="70" rx="15" width="70" x="3165" y="-3135" />
<rect fill="#84A1AE" height="70" rx="15" width="70" x="3165" y="-3835" />
<rect fill="#84A1AE" height="70" rx="15" width="70" x="3265" y="-535" />
<rect fill="#84A1AE" height="70" rx="15" width="70" x="3265" y="-1035" />
<rect fill="#84A1AE" height="70" rx="15" width="70" x="3265" y="-1735" />
<rect fill="#84A1AE" height="70" rx="15" width="70" x="3265" y="-3835" />
<rect fill="#84A1AE" height="70" rx="15" width="70" x="3365" y="-535" />
<rect fill="#84A1AE" height="70" rx="15" width="70" x="3365" y="-1435" />
<rect fill="#84A1AE" height="70" rx="15" width="70" x="3365" y="-1935" />
<rect fill="#84A1AE" height="70" rx="15" width="70" x="3365" y="-2135" />
<rect fill="#84A1AE" height="70" rx="15" width="70" x="3365" y="-3835" />
<rect fill="#84A1AE" height="70" rx="15" width="70" x="3465" y="-535" />
<rect fill="#84A1AE" height="70" rx="15" width="70" x="3465" y="-2635" />
<rect fill="#84A1AE" height="70" rx="15" width="70" x="3465" y="-3835" />
<rect fill="#84A1AE" height="70" rx="15" width="70" x="3565" y="-535" />
<rect fill="#84A1AE" height="70" rx="15" width="70" x="3565" y="-635" />
<rect fill="#84A1AE" height="70" rx="15" width="70" x="3565" y="-2435" />
<rect fill="#84A1AE" height="70" rx="15" width="70" x="3565" y="-3235" />
<rect fill="#84A1AE" height="70" rx="15" width="70" x="3565" y="-3835" />
<rect fill="#84A1AE" height="70" rx="15" width="70" x="3665" y="-535" />
<rect fill="#84A1AE" height="70" rx="15" width="70" x="3665" y="-2135" />
<rect fill="#84A1AE" height="70" rx="15" width="70" x="3665" y="-2835" />
<rect fill="#84A1AE" height="70" rx="15" width="70" x="3665" y="-3135" />
<rect fill="#84A1AE" height="70" rx="15" width="70" x="3665" y="-3735" />
<rect fill="#84A1AE" height="70" rx="15" width="70" x="3665" y="-3835" />
<rect fill="#84A1AE" height="70" rx="15" width="70" x="3765" y="-535" />
<rect fill="#84A1AE" height="70" rx="15" width="70" x="3765" y="-635" />
<rect fill="#84A1AE" height="70" rx="15" width="70" x="3765" y="-735" />
<rect fill="#84A1AE" height="70" rx="15" width="70" x="3765" y="-835" />
<rect fill="#84A1AE" height="70" rx="15" width="70" x="3765" y="-935" />
<rect fill="#84A1AE" height="70" rx="15" width="70" x="3765" y="-1035" />
<rect fill="#84A1AE" height="70" rx="15" width="70" x="3765" y="-1135" />
<rect fill="#84A1AE" height="70" rx="15" width="70" x="3765" y="-1235" />
<rect fill="#84A1AE" height="70" rx="15" width="70" x="3765" y="-1335" />
<rect fill="#84A1AE" height="70" rx="15" width="70" x="3765" y="-1435" />
<rect fill="#84A1AE" height="70" rx="15" width="70" x="3765" y="-1535" />
<rect fill="#84A1AE" height="70" rx="15" width="70" x="3765" y="-1635" />
<rect fill="#84A1AE" height="70" rx="15" width="70" x="3765" y="-1735" />
<rect fill="#84A1AE" height="70" rx="15" width="70" x="3765" y="-1835" />
<rect fill="#84A1AE" height="70" rx="15" width="70" x="3765" y="-1935" />
<rect fill="#84A1AE" height="70" rx="15" width="70" x="3765" y="-2035" />
<rect fill="#84A1AE" height="70" rx="15" width="70" x="3765" y="-2135" />
<rect fill="#84A1AE" height="70" rx="15" width="70" x="3765" y="-2235" />
<rect fill="#84A1AE" height="70" rx="15" width="70" x="3765" y="-2335" />
<rect fill="#84A1AE" height="70" rx="15" width="70" x="3765" y="-2435" />
<rect fill="#84A1AE" height="70" rx="15" width="70" x="3765" y="-2535" />
<rect fill="#84A1AE" height="70" rx="15" width="70" x="3765" y="-2635" />
<rect fill="#84A1AE" height="70" rx="15" width="70" x="3765" y="-2735" />
<rect fill="#84A1AE" height="70" rx="15" width="70" x="3765" y="-2835" />
<rect fill="#84A1AE" height="70" rx="15" width="70" x="3765" y="-2935" />
<rect fill="#84A1AE" height="70" rx="15" width="70" x="3765" y="-3035" />
<rect fill="#84A1AE" height="70" rx="15" width="70" x="3765" y="-3135" />
<rect fill="#84A1AE" height="70" rx="15" width="70" x="3765" y="-3235" />
<rect fill="#84A1AE" height="70" rx="15" width="70" x="3765" y="-3335" />
<rect fill="#84A1AE" height="70" rx="15" width="70" x="3765" y="-3435" />
<rect fill="#84A1AE" height="70" rx="15" width="70" x="3765" y="-3535" />
<rect fill="#84A1AE" height="70" rx="15" width="70" x="3765" y="-3635" />
<rect fill="#84A1AE" height="70" rx="15" width="70" x="3765" y="-3735" />
<rect fill="#84A1AE" height="70" rx="15" width="70" x="3765" y="-3835" />
<circle cx="2500" cy="-1400" fill="#c1433c" r="35"> <animate attributeName="cy" dur="93.52000000000001s" keyTimes="0.0;0.0029850746;0.0059701493;0.0089552239;0.0119402985;0.0149253731;0.0179104478;0.0208955224;0.023880597;0.0268656716;0.0298507463;0.0328358209;0.0358208955;0.0388059701;0.0417910448;0.0447761194;0.047761194;0.0507462687;0.0537313433;0.0567164179;0.0597014925;0.1343283582;0.1373134328;0.1402985075;0.1432835821;0.1462686567;0.1492537313;0.152238806;0.1552238806;0.1582089552;0.1611940299;0.1641791045;0.1671641791;0.1850746269;0.1880597015;0.1910447761;0.2089552239;0.2119402985;0.2149253731;0.2179104478;0.2268656716;0.2298507463;0.2447761194;0.247761194;0.2507462687;0.2537313433;0.2567164179;0.2597014925;0.2626865672;0.2656716418;0.2686567164;0.271641791;0.2746268657;0.2776119403;0.2805970149;0.2835820896;0.2865671642;0.2895522388;0.2925373134;0.2955223881;0.2985074627;0.3014925373;0.3044776119;0.3074626866;0.3492537313;0.352238806;0.3552238806;0.3970149254;0.4;0.4059701493;0.4089552239;0.4119402985;0.4149253731;0.4179104478;0.4208955224;0.423880597;0.4268656716;0.4298507463;0.4358208955;0.4388059701;0.4447761194;0.447761194;0.4507462687;0.4537313433;0.4567164179;0.4597014925;0.4626865672;0.4656716418;0.4686567164;0.471641791;0.4746268657;0.4776119403;0.4955223881;0.4985074627;0.5014925373;0.5044776119;0.5074626866;0.5104477612;0.5134328358;0.5164179104;0.5194029851;0.5223880597;0.5253731343;0.528358209;0.5432835821;0.5462686567;0.5492537313;0.552238806;0.5552238806;0.5582089552;0.5611940299;0.5641791045;0.5671641791;0.5701492537;0.5731343284;0.576119403;0.5791044776;0.5820895522;0.5850746269;0.5880597015;0.5910447761;0.5940298507;0.5970149254;0.6;0.6029850746;0.6059701493;0.6089552239;0.6119402985;0.6149253731;0.6179104478;0.6208955224;0.623880597;0.6268656716;0.6298507463;0.6328358209;0.6358208955;0.6388059701;0.6417910448;0.6447761194;0.647761194;0.6507462687;0.6537313433;0.6567164179;0.6597014925;0.6626865672;0.6656716418;0.6686567164;0.671641791;0.6746268657;0.6776119403;0.6805970149;0.6835820896;0.6865671642;0.6895522388;0.6925373134;0.6955223881;0.6985074627;0.7014925373;0.7044776119;0.7074626866;0.7104477612;0.7134328358;0.7164179104;0.7194029851;0.7223880597;0.7253731343;0.728358209;0.7313432836;0.7343283582;0.7373134328;0.7402985075;0.7432835821;0.7492537313;0.752238806;0.7552238806;0.7582089552;0.7611940299;0.7641791045;0.7671641791;0.7701492537;0.7731343284;0.776119403;0.7791044776;0.7820895522;0.7850746269;0.7880597015;0.7910447761;0.7940298507;0.7970149254;0.8;0.8029850746;0.8059701493;0.8089552239;0.8208955224;0.823880597;0.8268656716;0.8298507463;0.8328358209;0.8358208955;0.8447761194;0.847761194;0.8537313433;0.8567164179;0.8597014925;0.8626865672;0.8656716418;0.8686567164;0.871641791;0.8746268657;0.8776119403;0.8805970149;0.8835820896;0.8865671642;0.8895522388;0.9014925373;0.9044776119;0.9074626866;0.9104477612;0.9134328358;0.9164179104;0.9194029851;0.9223880597;0.9253731343;0.928358209;0.9343283582;0.9373134328;0.9432835821;0.9462686567;0.9492537313;0.952238806;0.9552238806;0.9582089552;0.9611940299;0.9641791045;0.9671641791;0.9701492537;0.9731343284;0.976119403;0.9791044776;0.9820895522;0.9850746269;0.9880597015;0.9910447761;0.9940298507;0.9970149254;1.0" repeatCount="indefinite" values="-1400;-1400;-1400;-1500;-1600;-1700;-1800;-1900;-2000;-2100;-2200;-2300;-2400;-2400;-2500;-2600;-2600;-2700;-2800;-2900;-3000;-3000;-2900;-2900;-2800;-2700;-2600;-2500;-2400;-2300;-2200;-2100;-2000;-2000;-2100;-2000;-2000;-1900;-1900;-1800;-1800;-1700;-1700;-1600;-1500;-1500;-1400;-1300;-1200;-1100;-1000;-1100;-1200;-1300;-1400;-1500;-1500;-1600;-1700;-1800;-1900;-2000;-2100;-2200;-2200;-2300;-2400;-2400;-2500;-2500;-2400;-2500;-2600;-2600;-2700;-2800;-2800;-2900;-2900;-3000;-3000;-3100;-3100;-3200;-3300;-3300;-3400;-3400;-3500;-3500;-3600;-3700;-3700;-3600;-3500;-3400;-3300;-3200;-3100;-3000;-2900;-2800;-2700;-2600;-2600;-2500;-2400;-2300;-2200;-2100;-2000;-1900;-1900;-1800;-1800;-1700;-1600;-1500;-1400;-1300;-1200;-1100;-1200;-1300;-1400;-1500;-1600;-1700;-1800;-1800;-1900;-1900;-2000;-2100;-2200;-2300;-2400;-2500;-2600;-2700;-2800;-2900;-2900;-3000;-3100;-3200;-3300;-3400;-3500;-3500;-3600;-3700;-3600;-3500;-3400;-3300;-3200;-3200;-3100;-3000;-2900;-2800;-2700;-2600;-2500;-2400;-2300;-2300;-2200;-2100;-2100;-2000;-2000;-1900;-1800;-1700;-1700;-1600;-1500;-1500;-1400;-1300;-1300;-1200;-1200;-1100;-1100;-1000;-900;-1000;-1000;-1100;-1200;-1200;-1300;-1300;-1400;-1400;-1500;-1500;-1600;-1600;-1700;-1700;-1800;-1900;-2000;-2100;-2200;-2300;-2400;-2500;-2600;-2700;-2700;-2800;-2900;-2900;-3000;-3100;-3200;-3300;-3200;-3100;-3100;-3000;-3000;-2900;-2900;-2800;-2700;-2600;-2500;-2400;-2300;-2200;-2200;-2100;-2100;-2000;-2100;-2200;-2300;-2400;-2500;-2500"/>
<animate attributeName="cx" dur="93.52000000000001s" keyTimes="0.0;0.0029850746;0.0059701493;0.0358208955;0.0388059701;0.0447761194;0.047761194;0.0597014925;0.0626865672;0.0656716418;0.0686567164;0.071641791;0.0746268657;0.0776119403;0.0805970149;0.0835820896;0.0865671642;0.0895522388;0.0925373134;0.0955223881;0.0985074627;0.1014925373;0.1044776119;0.1074626866;0.1104477612;0.1134328358;0.1164179104;0.1194029851;0.1223880597;0.1253731343;0.128358209;0.1313432836;0.1343283582;0.1373134328;0.1402985075;0.1671641791;0.1701492537;0.1731343284;0.176119403;0.1791044776;0.1820895522;0.1850746269;0.1910447761;0.1940298507;0.1970149254;0.2;0.2029850746;0.2059701493;0.2089552239;0.2119402985;0.2149253731;0.2179104478;0.2208955224;0.223880597;0.2268656716;0.2298507463;0.2328358209;0.2358208955;0.2388059701;0.2417910448;0.2447761194;0.2507462687;0.2537313433;0.2835820896;0.2865671642;0.3074626866;0.3104477612;0.3134328358;0.3164179104;0.3194029851;0.3223880597;0.3253731343;0.328358209;0.3313432836;0.3343283582;0.3373134328;0.3402985075;0.3432835821;0.3462686567;0.3492537313;0.3552238806;0.3582089552;0.3611940299;0.3641791045;0.3671641791;0.3701492537;0.3731343284;0.376119403;0.3791044776;0.3820895522;0.3850746269;0.3880597015;0.3910447761;0.3940298507;0.3970149254;0.4;0.4029850746;0.4059701493;0.4149253731;0.4179104478;0.423880597;0.4268656716;0.4298507463;0.4328358209;0.4358208955;0.4388059701;0.4417910448;0.4447761194;0.447761194;0.4507462687;0.4567164179;0.4597014925;0.4626865672;0.4656716418;0.4686567164;0.471641791;0.4776119403;0.4805970149;0.4835820896;0.4865671642;0.4895522388;0.4925373134;0.4955223881;0.528358209;0.5313432836;0.5343283582;0.5373134328;0.5402985075;0.5432835821;0.5641791045;0.5671641791;0.5701492537;0.5731343284;0.6149253731;0.6179104478;0.6208955224;0.623880597;0.6537313433;0.6567164179;0.6746268657;0.6776119403;0.6985074627;0.7014925373;0.728358209;0.7313432836;0.7373134328;0.7402985075;0.7432835821;0.7462686567;0.7492537313;0.7582089552;0.7611940299;0.7671641791;0.7701492537;0.776119403;0.7791044776;0.7820895522;0.7850746269;0.7880597015;0.7910447761;0.8;0.8029850746;0.8089552239;0.8119402985;0.8149253731;0.8179104478;0.8208955224;0.823880597;0.8268656716;0.8298507463;0.8328358209;0.8358208955;0.8388059701;0.8417910448;0.8447761194;0.847761194;0.8507462687;0.8537313433;0.8567164179;0.8597014925;0.8895522388;0.8925373134;0.8955223881;0.8985074627;0.9014925373;0.9074626866;0.9104477612;0.928358209;0.9313432836;0.9343283582;0.9373134328;0.9402985075;0.9432835821;0.9462686567;0.9492537313;0.9701492537;0.9731343284;0.976119403;0.9791044776;1.0" repeatCount="indefinite" values="2500;2500;2600;2600;2700;2700;2800;2800;2900;3000;3100;3200;3300;3400;3500;3400;3300;3200;3100;3000;2900;2800;2700;2600;2500;2400;2300;2200;2100;2000;1900;1800;1700;1700;1600;1600;1700;1800;1900;2000;2100;2200;2200;2100;2000;1900;1800;1700;1600;1600;1500;1500;1400;1300;1200;1200;1100;1000;900;800;700;700;600;600;700;700;800;900;1000;1100;1200;1300;1400;1500;1600;1700;1800;1900;2000;2100;2100;2200;2300;2400;2500;2600;2700;2800;2900;3000;3100;3200;3300;3400;3500;3500;3600;3700;3700;3600;3600;3500;3500;3400;3300;3300;3200;3100;3100;3000;3000;2900;2900;2800;2800;2700;2700;2600;2500;2400;2300;2200;2100;2100;2000;1900;1800;1700;1600;1600;1500;1500;1400;1400;1500;1500;1600;1600;1700;1700;1600;1600;1700;1700;1800;1800;1900;1900;2000;2100;2100;2200;2200;2300;2300;2400;2400;2500;2500;2600;2600;2500;2500;2400;2300;2200;2100;2100;2000;2000;1900;1900;1800;1700;1600;1600;1500;1400;1400;1300;1300;1400;1500;1500;1600;1600;1700;1700;1800;1900;1900;2000;2100;2100;2200;2200;2300;2300;2400;2400"/>
<animate attributeName="visibility" dur="93.52000000000001s" keyTimes="0.0;0.0029850746;1.0" repeatCount="indefinite" values="visible;visible;visible"/> </circle>
<circle cx="3000" cy="-1900" fill="#2e6f9e" r="35"> <animate attributeName="cy" dur="93.52000000000001s" keyTimes="0.0;0.0029850746;0.0059701493;0.0089552239;0.0119402985;0.0149253731;0.0179104478;0.0208955224;0.023880597;0.0268656716;0.0298507463;0.0328358209;0.0358208955;0.0388059701;0.0417910448;0.0447761194;0.047761194;0.0507462687;0.0925373134;0.0955223881;0.0985074627;0.1014925373;0.1044776119;0.1074626866;0.1104477612;0.1134328358;0.1164179104;0.1253731343;0.128358209;0.1313432836;0.1343283582;0.1373134328;0.1402985075;0.1432835821;0.1462686567;0.1492537313;0.152238806;0.1552238806;0.1582089552;0.1611940299;0.1641791045;0.1671641791;0.1701492537;0.1731343284;0.176119403;0.1791044776;0.1820895522;0.1880597015;0.1910447761;0.1940298507;0.1970149254;0.2;0.2029850746;0.2059701493;0.2089552239;0.2119402985;0.2149253731;0.2179104478;0.2208955224;0.223880597;0.2268656716;0.2298507463;0.2328358209;0.2358208955;0.2388059701;0.2417910448;0.2447761194;0.247761194;0.2507462687;0.2597014925;0.2626865672;0.271641791;0.2746268657;0.2955223881;0.2985074627;0.3014925373;0.3044776119;0.3074626866;0.3104477612;0.3134328358;0.3164179104;0.3194029851;0.3223880597;0.3253731343;0.328358209;0.3313432836;0.3343283582;0.3373134328;0.3402985075;0.3432835821;0.3462686567;0.3492537313;0.352238806;0.3552238806;0.3582089552;0.3611940299;0.3641791045;0.3671641791;0.3701492537;0.3731343284;0.376119403;0.3791044776;0.3820895522;0.3850746269;0.3880597015;0.3910447761;0.3940298507;0.3970149254;0.4119402985;0.4149253731;0.4208955224;0.423880597;0.4268656716;0.4298507463;0.4328358209;0.4358208955;0.4388059701;0.4417910448;0.4537313433;0.4567164179;0.4597014925;0.4626865672;0.4656716418;0.4686567164;0.471641791;0.4746268657;0.4776119403;0.4805970149;0.5164179104;0.5194029851;0.5223880597;0.5402985075;0.5432835821;0.5462686567;0.5492537313;0.552238806;0.5552238806;0.5582089552;0.5791044776;0.5820895522;0.5850746269;0.5970149254;0.6;0.6029850746;0.6059701493;0.6328358209;0.6358208955;0.6388059701;0.6417910448;0.6447761194;0.647761194;0.6507462687;0.6537313433;0.6567164179;0.6626865672;0.6656716418;0.6686567164;0.671641791;0.6746268657;0.6776119403;0.6805970149;0.6835820896;0.6865671642;0.6895522388;0.6925373134;0.6955223881;0.6985074627;0.7014925373;0.7044776119;0.7074626866;0.7104477612;0.7134328358;0.7164179104;0.7492537313;0.752238806;0.7552238806;0.7611940299;0.7641791045;0.7671641791;0.7701492537;0.7731343284;0.776119403;0.7940298507;0.7970149254;0.8;0.8417910448;0.8447761194;0.8507462687;0.8537313433;0.8925373134;0.8955223881;0.8985074627;0.9014925373;0.9164179104;0.9194029851;0.9223880597;0.9253731343;0.928358209;0.9313432836;0.9343283582;0.9373134328;0.9402985075;0.9432835821;0.9462686567;0.9552238806;0.9582089552;0.9671641791;0.9701492537;0.976119403;0.9791044776;1.0" repeatCount="indefinite" values="-1900;-1900;-1900;-2000;-2000;-2100;-2200;-2300;-2400;-2400;-2300;-2400;-2300;-2200;-2300;-2400;-2500;-2600;-2600;-2500;-2400;-2300;-2200;-2100;-2000;-1900;-1800;-1800;-1700;-1700;-1600;-1500;-1600;-1500;-1400;-1500;-1600;-1700;-1800;-1800;-1900;-2000;-2100;-2200;-2300;-2400;-2500;-2500;-2600;-2700;-2600;-2600;-2700;-2800;-2900;-2900;-3000;-3100;-3200;-3300;-3300;-3200;-3100;-3200;-3200;-3300;-3400;-3500;-3600;-3600;-3700;-3700;-3600;-3600;-3500;-3400;-3300;-3200;-3100;-3000;-2900;-2800;-2700;-2600;-2500;-2400;-2300;-2300;-2200;-2100;-2100;-2000;-1900;-1900;-1800;-1700;-1600;-1700;-1600;-1500;-1400;-1300;-1200;-1100;-1000;-900;-1000;-1100;-1100;-1000;-1000;-1100;-1000;-900;-1000;-1100;-1200;-1300;-1300;-1400;-1500;-1600;-1700;-1800;-1900;-2000;-2100;-2200;-2200;-2300;-2400;-2400;-2500;-2500;-2600;-2600;-2500;-2400;-2400;-2300;-2200;-2200;-2100;-2100;-2200;-2200;-2100;-2000;-1900;-1800;-1700;-1600;-1500;-1400;-1400;-1500;-1600;-1700;-1800;-1900;-2000;-2100;-2200;-2200;-2300;-2400;-2400;-2500;-2400;-2500;-2600;-2600;-2700;-2700;-2800;-2900;-2900;-3000;-3000;-3100;-3000;-2900;-2900;-3000;-2900;-2900;-3000;-3000;-2900;-2900;-2800;-2800;-2700;-2700;-2600;-2500;-2400;-2300;-2200;-2100;-2000;-2100;-2200;-2300;-2300;-2200;-2200;-2300;-2300;-2200;-2200"/>
<animate attributeName="cx" dur="93.52000000000001s" keyTimes="0.0;0.0029850746;0.0059701493;0.0089552239;0.0119402985;0.023880597;0.0268656716;0.0507462687;0.0537313433;0.0567164179;0.0597014925;0.0626865672;0.0656716418;0.0686567164;0.071641791;0.0746268657;0.0776119403;0.0805970149;0.0835820896;0.0865671642;0.0895522388;0.0925373134;0.1164179104;0.1194029851;0.1223880597;0.1253731343;0.128358209;0.1313432836;0.1582089552;0.1611940299;0.1820895522;0.1850746269;0.1880597015;0.1970149254;0.2;0.223880597;0.2268656716;0.2358208955;0.2388059701;0.2507462687;0.2537313433;0.2567164179;0.2597014925;0.2626865672;0.2656716418;0.2686567164;0.271641791;0.2746268657;0.2776119403;0.2805970149;0.2835820896;0.2865671642;0.2895522388;0.2925373134;0.2955223881;0.3432835821;0.3462686567;0.352238806;0.3552238806;0.3970149254;0.4;0.4029850746;0.4059701493;0.4089552239;0.4119402985;0.4149253731;0.4179104478;0.4208955224;0.4417910448;0.4447761194;0.447761194;0.4507462687;0.4537313433;0.4805970149;0.4835820896;0.4865671642;0.4895522388;0.4925373134;0.4955223881;0.4985074627;0.5014925373;0.5044776119;0.5074626866;0.5104477612;0.5134328358;0.5164179104;0.5223880597;0.5253731343;0.528358209;0.5313432836;0.5343283582;0.5373134328;0.5402985075;0.5492537313;0.552238806;0.5582089552;0.5611940299;0.5641791045;0.5671641791;0.5701492537;0.5731343284;0.576119403;0.5791044776;0.5850746269;0.5880597015;0.5910447761;0.5940298507;0.5970149254;0.6;0.6029850746;0.6059701493;0.6089552239;0.6119402985;0.6149253731;0.6179104478;0.6208955224;0.623880597;0.6268656716;0.6298507463;0.6328358209;0.6567164179;0.6597014925;0.6626865672;0.6955223881;0.6985074627;0.7104477612;0.7134328358;0.7164179104;0.7194029851;0.7223880597;0.7253731343;0.728358209;0.7313432836;0.7343283582;0.7373134328;0.7402985075;0.7432835821;0.7462686567;0.7552238806;0.7582089552;0.7611940299;0.7641791045;0.7671641791;0.776119403;0.7791044776;0.7820895522;0.7850746269;0.7880597015;0.7910447761;0.7940298507;0.8;0.8029850746;0.8059701493;0.8089552239;0.8119402985;0.8149253731;0.8179104478;0.8208955224;0.823880597;0.8268656716;0.8298507463;0.8328358209;0.8358208955;0.8388059701;0.8417910448;0.8447761194;0.847761194;0.8507462687;0.8537313433;0.8567164179;0.8597014925;0.8626865672;0.8656716418;0.8686567164;0.871641791;0.8746268657;0.8776119403;0.8805970149;0.8835820896;0.8865671642;0.8895522388;0.8925373134;0.9014925373;0.9044776119;0.9074626866;0.9104477612;0.9134328358;0.9164179104;0.9462686567;0.9492537313;0.952238806;0.9552238806;0.9582089552;0.9611940299;0.9641791045;0.9671641791;0.9701492537;0.9731343284;0.976119403;0.9791044776;0.9820895522;0.9850746269;0.9880597015;0.9910447761;0.9940298507;0.9970149254;1.0" repeatCount="indefinite" values="3000;3000;3100;3100;3000;3000;2900;2900;2800;2700;2700;2600;2500;2400;2300;2200;2100;2000;1900;1800;1700;1600;1600;1500;1400;1500;1500;1400;1400;1300;1300;1400;1300;1300;1200;1200;1300;1300;1200;1200;1100;1000;900;900;800;900;1000;1000;1100;1200;1300;1400;1500;1600;1700;1700;1600;1600;1700;1700;1600;1500;1400;1300;1200;1200;1100;1200;1200;1100;1100;1200;1300;1300;1200;1300;1400;1500;1400;1500;1600;1700;1800;1900;2000;2100;2100;2200;2300;2400;2500;2600;2700;2700;2800;2800;2700;2600;2500;2400;2300;2200;2100;2100;2000;1900;1800;1700;1700;1600;1600;1500;1400;1300;1200;1100;1000;900;800;700;700;600;700;700;800;800;900;900;1000;1100;1200;1300;1400;1400;1500;1600;1700;1800;1800;1900;2000;2000;2100;2100;2200;2100;2200;2300;2400;2500;2500;2600;2500;2600;2700;2800;2900;2800;2900;3000;3100;3200;3100;3000;2900;2900;2800;2700;2700;2600;2500;2400;2300;2200;2200;2100;2000;1900;1800;1700;1600;1500;1500;1400;1300;1200;1100;1000;1000;1100;1200;1300;1300;1400;1500;1600;1600;1700;1800;1800;1900;2000;2000;2100;2200;2300;2300"/>
<animate attributeName="visibility" dur="93.52000000000001s" keyTimes="0.0;0.0029850746;1.0" repeatCount="indefinite" values="visible;visible;visible"/> </circle>
<circle cx="3500" cy="-3000" fill="none" r="35" stroke="#c1433c" stroke-width="10"> <animate attributeName="cy" dur="93.52000000000001s" keyTimes="0.0;0.0029850746;0.0776119403;0.0805970149;0.1641791045;0.1671641791;0.1850746269;0.1880597015;0.2656716418;0.2686567164;0.4059701493;0.4089552239;0.4268656716;0.4298507463;0.4746268657;0.4776119403;0.5253731343;0.528358209;0.5910447761;0.5940298507;0.6805970149;0.6835820896;0.7940298507;0.7970149254;0.8656716418;0.8686567164;0.9194029851;0.9223880597;0.9492537313;0.952238806;0.9791044776;0.9820895522;1.0" repeatCount="indefinite" values="-3000;-3000;-3000;-2000;-2000;-2100;-2100;-1000;-1000;-2400;-2400;-2900;-2900;-3700;-3700;-2600;-2600;-1100;-1100;-3700;-3700;-900;-900;-2000;-2000;-3300;-3300;-2800;-2800;-2000;-2000;-2800;-2800"/>
<animate attributeName="cx" dur="93.52000000000001s" keyTimes="0.0;0.0029850746;0.0776119403;0.0805970149;0.1641791045;0.1671641791;0.1850746269;0.1880597015;0.2656716418;0.2686567164;0.4059701493;0.4089552239;0.4268656716;0.4298507463;0.4746268657;0.4776119403;0.5253731343;0.528358209;0.5910447761;0.5940298507;0.6805970149;0.6835820896;0.7940298507;0.7970149254;0.8656716418;0.8686567164;0.9194029851;0.9223880597;0.9492537313;0.952238806;0.9791044776;0.9820895522;1.0" repeatCount="indefinite" values="3500;3500;3500;1600;1600;2200;2200;600;600;3700;3700;3500;3500;2700;2700;2100;2100;1400;1400;1600;1600;2600;2600;1300;1300;1700;1700;2200;2200;2400;2400;3500;3500"/>
<animate attributeName="visibility" dur="93.52000000000001s" keyTimes="0.0;0.0029850746;1.0" repeatCount="indefinite" values="visible;visible;visible"/> </circle>
<circle cx="2600" cy="-2600" fill="none" r="35" stroke="#2e6f9e" stroke-width="10"> <animate attributeName="cy" dur="93.52000000000001s" keyTimes="0.0;0.0029850746;0.0597014925;0.0626865672;0.1432835821;0.1462686567;0.2417910448;0.2447761194;0.2626865672;0.2656716418;0.3880597015;0.3910447761;0.4149253731;0.4179104478;0.552238806;0.5552238806;0.6567164179;0.6597014925;0.8298507463;0.8328358209;0.9343283582;0.9373134328;0.9492537313;0.952238806;1.0" repeatCount="indefinite" values="-2600;-2600;-2600;-1400;-1400;-3400;-3400;-3700;-3700;-900;-900;-1000;-1000;-2500;-2500;-1400;-1400;-2900;-2900;-2000;-2000;-2300;-2300;-1600;-1600"/>
<animate attributeName="cx" dur="93.52000000000001s" keyTimes="0.0;0.0029850746;0.0597014925;0.0626865672;0.1432835821;0.1462686567;0.2417910448;0.2447761194;0.2626865672;0.2656716418;0.3880597015;0.3910447761;0.4149253731;0.4179104478;0.552238806;0.5552238806;0.6567164179;0.6597014925;0.8298507463;0.8328358209;0.9343283582;0.9373134328;0.9492537313;0.952238806;1.0" repeatCount="indefinite" values="2600;2600;2600;1400;1400;1200;1200;800;800;1700;1700;1100;1100;2800;2800;600;600;3200;3200;1000;1000;1200;1200;3000;3000"/>
<animate attributeName="visibility" dur="93.52000000000001s" keyTimes="0.0;0.0029850746;1.0" repeatCount="indefinite" values="visible;visible;visible"/> </circle>
</svg>