<?xml version="1.0" encoding="UTF-8"?>
        <svg xmlns="http://www.w3.org/2000/svg" xmlns:xlink="http://www.w3.org/1999/xlink"
             width="512" height="512" viewBox="0 -3500 3500 3500">
<defs>

        <rect id="obstacle" width="70" height="70" fill="#84A1AE" rx="15"/>
        <style>
        .line {stroke: #84A1AE; stroke-width: 10;}
        .agent {r: 35;}
        .target {fill: none; stroke-width: 10; r: 35;}
        </style>
        
</defs>

<line class="line" x1="-50.0" x2="-50.0" y1="0" y2="-3500" />
<line class="line" x1="50.0" x2="50.0" y1="0" y2="-3500" />
<line class="line" x1="150.0" x2="150.0" y1="0" y2="-3500" />
<line class="line" x1="250.0" x2="250.0" y1="0" y2="-3500" />
<line class="line" x1="350.0" x2="350.0" y1="0" y2="-3500" />
<line class="line" x1="450.0" x2="450.0" y1="0" y2="-3500" />
<line class="line" x1="550.0" x2="550.0" y1="0" y2="-3500" />
<line class="line" x1="650.0" x2="650.0" y1="0" y2="-3500" />
<line class="line" x1="750.0" x2="750.0" y1="0" y2="-3500" />
<line class="line" x1="850.0" x2="850.0" y1="0" y2="-3500" />
<line class="line" x1="950.0" x2="950.0" y1="0" y2="-3500" />
<line class="line" x1="1050.0" x2="1050.0" y1="0" y2="-3500" />
<line class="line" x1="1150.0" x2="1150.0" y1="0" y2="-3500" />
<line class="line" x1="1250.0" x2="1250.0" y1="0" y2="-3500" />
<line class="line" x1="1350.0" x2="1350.0" y1="0" y2="-3500" />
<line class="line" x1="1450.0" x2="1450.0" y1="0" y2="-3500" />
<line class="line" x1="1550.0" x2="1550.0" y1="0" y2="-3500" />
<line class="line" x1="1650.0" x2="1650.0" y1="0" y2="-3500" />
<line class="line" x1="1750.0" x2="1750.0" y1="0" y2="-3500" />
<line class="line" x1="1850.0" x2="1850.0" y1="0" y2="-3500" />
<line class="line" x1="1950.0" x2="1950.0" y1="0" y2="-3500" />
<line class="line" x1="2050.0" x2="2050.0" y1="0" y2="-3500" />
<line class="line" x1="2150.0" x2="2150.0" y1="0" y2="-3500" />
<line class="line" x1="2250.0" x2="2250.0" y1="0" y2="-3500" />
<line class="line" x1="2350.0" x2="2350.0" y1="0" y2="-3500" />
<line class="line" x1="2450.0" x2="2450.0" y1="0" y2="-3500" />
<line class="line" x1="2550.0" x2="2550.0" y1="0" y2="-3500" />
<line class="line" x1="2650.0" x2="2650.0" y1="0" y2="-3500" />
<line class="line" x1="2750.0" x2="2750.0" y1="0" y2="-3500" />
<line class="line" x1="2850.0" x2="2850.0" y1="0" y2="-3500" />
<line class="line" x1="2950.0" x2="2950.0" y1="0" y2="-3500" />
<line class="line" x1="3050.0" x2="3050.0" y1="0" y2="-3500" />
<line class="line" x1="3150.0" x2="3150.0" y1="0" y2="-3500" />
<line class="line" x1="3250.0" x2="3250.0" y1="0" y2="-3500" />
<line class="line" x1="3350.0" x2="3350.0" y1="0" y2="-3500" />
<line class="line" x1="3450.0" x2="3450.0" y1="0" y2="-3500" />
<line class="line" x1="0" x2="3500" y1="50.0" y2="50.0" />
<line class="line" x1="0" x2="3500" y1="-50.0" y2="-50.0" />
<line class="line" x1="0" x2="3500" y1="-150.0" y2="-150.0" />
<line class="line" x1="0" x2="3500" y1="-250.0" y2="-250.0" />
<line class="line" x1="0" x2="3500" y1="-350.0" y2="-350.0" />
<line class="line" x1="0" x2="3500" y1="-450.0" y2="-450.0" />
<line class="line" x1="0" x2="3500" y1="-550.0" y2="-550.0" />
<line class="line" x1="0" x2="3500" y1="-650.0" y2="-650.0" />
<line class="line" x1="0" x2="3500" y1="-750.0" y2="-750.0" />
<line class="line" x1="0" x2="3500" y1="-850.0" y2="-850.0" />
<line class="line" x1="0" x2="3500" y1="-950.0" y2="-950.0" />
<line class="line" x1="0" x2="3500" y1="-1050.0" y2="-1050.0" />
<line class="line" x1="0" x2="3500" y1="-1150.0" y2="-1150.0" />
<line class="line" x1="0" x2="3500" y1="-1250.0" y2="-1250.0" />
<line class="line" x1="0" x2="3500" y1="-1350.0" y2="-1350.0" />
<line class="line" x1="0" x2="3500" y1="-1450.0" y2="-1450.0" />
<line class="line" x1="0" x2="3500" y1="-1550.0" y2="-1550.0" />
<line class="line" x1="0" x2="3500" y1="-1650.0" y2="-1650.0" />
<line class="line" x1="0" x2="3500" y1="-1750.0" y2="-1750.0" />
<line class="line" x1="0" x2="3500" y1="-1850.0" y2="-1850.0" />
<line class="line" x1="0" x2="3500" y1="-1950.0" y2="-1950.0" />
<line class="line" x1="0" x2="3500" y1="-2050.0" y2="-2050.0" />
<line class="line" x1="0" x2="3500" y1="-2150.0" y2="-2150.0" />
<line class="line" x1="0" x2="3500" y1="-2250.0" y2="-2250.0" />
<line class="line" x1="0" x2="3500" y1="-2350.0" y2="-2350.0" />
<line class="line" x1="0" x2="3500" y1="-2450.0" y2="-2450.0" />
<line class="line" x1="0" x2="3500" y1="-2550.0" y2="-2550.0" />
<line class="line" x1="0" x2="3500" y1="-2650.0" y2="-2650.0" />
<line class="line" x1="0" x2="3500" y1="-2750.0" y2="-2750.0" />
<line class="line" x1="0" x2="3500" y1="-2850.0" y2="-2850.0" />
<line class="line" x1="0" x2="3500" y1="-2950.0" y2="-2950.0" />
<line class="line" x1="0" x2="3500" y1="-3050.0" y2="-3050.0" />
<line class="line" x1="0" x2="3500" y1="-3150.0" y2="-3150.0" />
<line class="line" x1="0" x2="3500" y1="-3250.0" y2="-3250.0" />
<line class="line" x1="0" x2="3500" y1="-3350.0" y2="-3350.0" />
<line class="line" x1="0" x2="3500" y1="-3450.0" y2="-3450.0" />
<use href="#obstacle" x="65" y="-135" />
<use href="#obstacle" x="65" y="-235" />
<use href="#obstacle" x="65" y="-335" />
<use href="#obstacle" x="65" y="-435" />
<use href="#obstacle" x="65" y="-535" />
<use href="#obstacle" x="65" y="-635" />
<use href="#obstacle" x="65" y="-735" />
<use href="#obstacle" x="65" y="-835" />
<use href="#obstacle" x="65" y="-935" />
<use href="#obstacle" x="65" y="-1035" />
<use href="#obstacle" x="65" y="-1135" />
<use href="#obstacle" x="65" y="-1235" />
<use href="#obstacle" x="65" y="-1335" />
<use href="#obstacle" x="65" y="-1435" />
<use href="#obstacle" x="65" y="-1535" />
<use href="#obstacle" x="65" y="-1635" />
<use href="#obstacle" x="65" y="-1735" />
<use href="#obstacle" x="65" y="-1835" />
<use href="#obstacle" x="65" y="-1935" />
<use href="#obstacle" x="65" y="-2035" />
<use href="#obstacle" x="65" y="-2135" />
<use href="#obstacle" x="65" y="-2235" />
<use href="#obstacle" x="65" y="-2335" />
<use href="#obstacle" x="65" y="-2435" />
<use href="#obstacle" x="65" y="-2535" />
<use href="#obstacle" x="65" y="-2635" />
<use href="#obstacle" x="65" y="-2735" />
<use href="#obstacle" x="65" y="-2835" />
<use href="#obstacle" x="65" y="-2935" />
<use href="#obstacle" x="65" y="-3035" />
<use href="#obstacle" x="65" y="-3135" />
<use href="#obstacle" x="65" y="-3235" />
<use href="#obstacle" x="65" y="-3335" />
<use href="#obstacle" x="65" y="-3435" />
<use href="#obstacle" x="165" y="-135" />
<use href="#obstacle" x="165" y="-2835" />
<use href="#obstacle" x="165" y="-2935" />
<use href="#obstacle" x="165" y="-3435" />
<use href="#obstacle" x="265" y="-135" />
<use href="#obstacle" x="265" y="-235" />
<use href="#obstacle" x="265" y="-535" />
<use href="#obstacle" x="265" y="-1535" />
<use href="#obstacle" x="265" y="-1735" />
<use href="#obstacle" x="265" y="-2935" />
<use href="#obstacle" x="265" y="-3435" />
<use href="#obstacle" x="365" y="-135" />
<use href="#obstacle" x="365" y="-335" />
<use href="#obstacle" x="365" y="-535" />
<use href="#obstacle" x="365" y="-1335" />
<use href="#obstacle" x="365" y="-2035" />
<use href="#obstacle" x="365" y="-3435" />
<use href="#obstacle" x="465" y="-135" />
<use href="#obstacle" x="465" y="-435" />
<use href="#obstacle" x="465" y="-635" />
<use href="#obstacle" x="465" y="-1135" />
<use href="#obstacle" x="465" y="-3335" />
<use href="#obstacle" x="465" y="-3435" />
<use href="#obstacle" x="565" y="-135" />
<use href="#obstacle" x="565" y="-535" />
<use href="#obstacle" x="565" y="-635" />
<use href="#obstacle" x="565" y="-835" />
<use href="#obstacle" x="565" y="-2435" />
<use href="#obstacle" x="565" y="-2535" />
<use href="#obstacle" x="565" y="-3135" />
<use href="#obstacle" x="565" y="-3435" />
<use href="#obstacle" x="665" y="-135" />
<use href="#obstacle" x="665" y="-1835" />
<use href="#obstacle" x="665" y="-2035" />
<use href="#obstacle" x="665" y="-2935" />
<use href="#obstacle" x="665" y="-3435" />
<use href="#obstacle" x="765" y="-135" />
<use href="#obstacle" x="765" y="-435" />
<use href="#obstacle" x="765" y="-1235" />
<use href="#obstacle" x="765" y="-1335" />
<use href="#obstacle" x="765" y="-1435" />
<use href="#obstacle" x="765" y="-3435" />
<use href="#obstacle" x="865" y="-135" />
<use href="#obstacle" x="865" y="-235" />
<use href="#obstacle" x="865" y="-2135" />
<use href="#obstacle" x="865" y="-2335" />
<use href="#obstacle" x="865" y="-3435" />
<use href="#obstacle" x="965" y="-135" />
<use href="#obstacle" x="965" y="-3435" />
<use href="#obstacle" x="1065" y="-135" />
<use href="#obstacle" x="1065" y="-235" />
<use href="#obstacle" x="1065" y="-2035" />
<use href="#obstacle" x="1065" y="-2135" />
<use href="#obstacle" x="1065" y="-2635" />
<use href="#obstacle" x="1065" y="-3435" />
<use href="#obstacle" x="1165" y="-135" />
<use href="#obstacle" x="1165" y="-1435" />
<use href="#obstacle" x="1165" y="-1735" />
<use href="#obstacle" x="1165" y="-2135" />
<use href="#obstacle" x="1165" y="-3435" />
<use href="#obstacle" x="1265" y="-135" />
<use href="#obstacle" x="1265" y="-1035" />
<use href="#obstacle" x="1265" y="-1535" />
<use href="#obstacle" x="1265" y="-2735" />
<use href="#obstacle" x="1265" y="-3035" />
<use href="#obstacle" x="1265" y="-3435" />
<use href="#obstacle" x="1365" y="-135" />
<use href="#obstacle" x="1365" y="-2035" />
<use href="#obstacle" x="1365" y="-2535" />
<use href="#obstacle" x="1365" y="-3435" />
<use href="#obstacle" x="1465" y="-135" />
<use href="#obstacle" x="1465" y="-1435" />
<use href="#obstacle" x="1465" y="-2235" />
<use href="#obstacle" x="1465" y="-3235" />
<use href="#obstacle" x="1465" y="-3435" />
<use href="#obstacle" x="1565" y="-135" />
<use href="#obstacle" x="1565" y="-1235" />
<use href="#obstacle" x="1565" y="-2135" />
<use href="#obstacle" x="1565" y="-2235" />
<use href="#obstacle" x="1565" y="-3435" />
<use href="#obstacle" x="1665" y="-135" />
<use href="#obstacle" x="1665" y="-235" />
<use href="#obstacle" x="1665" y="-535" />
<use href="#obstacle" x="1665" y="-635" />
<use href="#obstacle" x="1665" y="-1635" />
<use href="#obstacle" x="1665" y="-2135" />
<use href="#obstacle" x="1665" y="-2835" />
<use href="#obstacle" x="1665" y="-2935" />
<use href="#obstacle" x="1665" y="-3135" />
<use href="#obstacle" x="1665" y="-3435" />
<use href="#obstacle" x="1765" y="-135" />
<use href="#obstacle" x="1765" y="-1035" />
<use href="#obstacle" x="1765" y="-1135" />
<use href="#obstacle" x="1765" y="-2235" />
<use href="#obstacle" x="1765" y="-3435" />
<use href="#obstacle" x="1865" y="-135" />
<use href="#obstacle" x="1865" y="-235" />
<use href="#obstacle" x="1865" y="-635" />
<use href="#obstacle" x="1865" y="-1335" />
<use href="#obstacle" x="1865" y="-3435" />
<use href="#obstacle" x="1965" y="-135" />
<use href="#obstacle" x="1965" y="-3435" />
<use href="#obstacle" x="2065" y="-135" />
<use href="#obstacle" x="2065" y="-2835" />
<use href="#obstacle" x="2065" y="-3435" />
<use href="#obstacle" x="2165" y="-135" />
<use href="#obstacle" x="2165" y="-635" />
<use href="#obstacle" x="2165" y="-835" />
<use href="#obstacle" x="2165" y="-2035" />
<use href="#obstacle" x="2165" y="-2635" />
<use href="#obstacle" x="2165" y="-3435" />
<use href="#obstacle" x="2265" y="-135" />
<use href="#obstacle" x="2265" y="-335" />
<use href="#obstacle" x="2265" y="-3435" />
<use href="#obstacle" x="2365" y="-135" />
<use href="#obstacle" x="2365" y="-1235" />
<use href="#obstacle" x="2365" y="-2435" />
<use href="#obstacle" x="2365" y="-3435" />
<use href="#obstacle" x="2465" y="-135" />
<use href="#obstacle" x="2465" y="-1735" />
<use href="#obstacle" x="2465" y="-1935" />
<use href="#obstacle" x="2465" y="-3035" />
<use href="#obstacle" x="2465" y="-3435" />
<use href="#obstacle" x="2565" y="-135" />
<use href="#obstacle" x="2565" y="-3335" />
<use href="#obstacle" x="2565" y="-3435" />
<use href="#obstacle" x="2665" y="-135" />
<use href="#obstacle" x="2665" y="-1835" />
<use href="#obstacle" x="2665" y="-2335" />
<use href="#obstacle" x="2665" y="-2635" />
<use href="#obstacle" x="2665" y="-2935" />
<use href="#obstacle" x="2665" y="-3435" />
<use href="#obstacle" x="2765" y="-135" />
<use href="#obstacle" x="2765" y="-2635" />
<use href="#obstacle" x="2765" y="-2835" />
<use href="#obstacle" x="2765" y="-3435" />
<use href="#obstacle" x="2865" y="-135" />
<use href="#obstacle" x="2865" y="-635" />
<use href="#obstacle" x="2865" y="-1735" />
<use href="#obstacle" x="2865" y="-2135" />
<use href="#obstacle" x="2865" y="-3035" />
<use href="#obstacle" x="2865" y="-3435" />
<use href="#obstacle" x="2965" y="-135" />
<use href="#obstacle" x="2965" y="-535" />
<use href="#obstacle" x="2965" y="-2235" />
<use href="#obstacle" x="2965" y="-3435" />
<use href="#obstacle" x="3065" y="-135" />
<use href="#obstacle" x="3065" y="-835" />
<use href="#obstacle" x="3065" y="-1135" />
<use href="#obstacle" x="3065" y="-1335" />
<use href="#obstacle" x="3065" y="-2335" />
<use href="#obstacle" x="3065" y="-3335" />
<use href="#obstacle" x="3065" y="-3435" />
<use href="#obstacle" x="3165" y="-135" />
<use href="#obstacle" x="3165" y="-535" />
<use href="#obstacle" x="3165" y="-1735" />
<use href="#obstacle" x="3165" y="-3435" />
<use href="#obstacle" x="3265" y="-135" />
<use href="#obstacle" x="3265" y="-235" />
<use href="#obstacle" x="3265" y="-635" />
<use href="#obstacle" x="3265" y="-835" />
<use href="#obstacle" x="3265" y="-1335" />
<use href="#obstacle" x="3265" y="-3435" />
<use href="#obstacle" x="3365" y="-135" />
<use href="#obstacle" x="3365" y="-235" />
<use href="#obstacle" x="3365" y="-335" />
<use href="#obstacle" x="3365" y="-435" />
<use href="#obstacle" x="3365" y="-535" />
<use href="#obstacle" x="3365" y="-635" />
<use href="#obstacle" x="3365" y="-735" />
<use href="#obstacle" x="3365" y="-835" />
<use href="#obstacle" x="3365" y="-935" />
<use href="#obstacle" x="3365" y="-1035" />
<use href="#obstacle" x="3365" y="-1135" />
<use href="#obstacle" x="3365" y="-1235" />
<use href="#obstacle" x="3365" y="-1335" />
<use href="#obstacle" x="3365" y="-1435" />
<use href="#obstacle" x="3365" y="-1535" />
<use href="#obstacle" x="3365" y="-1635" />
<use href="#obstacle" x="3365" y="-1735" />
<use href="#obstacle" x="3365" y="-1835" />
<use href="#obstacle" x="3365" y="-1935" />
<use href="#obstacle" x="3365" y="-2035" />
<use href="#obstacle" x="3365" y="-2135" />
<use href="#obstacle" x="3365" y="-2235" />
<use href="#obstacle" x="3365" y="-2335" />
<use href="#obstacle" x="3365" y="-2435" />
<use href="#obstacle" x="3365" y="-2535" />
<use href="#obstacle" x="3365" y="-2635" />
<use href="#obstacle" x="3365" y="-2735" />
<use href="#obstacle" x="3365" y="-2835" />
<use href="#obstacle" x="3365" y="-2935" />
<use href="#obstacle" x="3365" y="-3035" />
<use href="#obstacle" x="3365" y="-3135" />
<use href="#obstacle" x="3365" y="-3235" />
<use href="#obstacle" x="3365" y="-3335" />
<use href="#obstacle" x="3365" y="-3435" />
<circle class="agent" cx="2400" cy="-1900" fill="#c1433c" r="35"> <animate attributeName="cy" dur="11.0s" keyTimes="0.0;0.0222222222;0.0444444444;0.0666666667;0.0888888889;0.1111111111;0.1333333333;0.1555555556;0.2222222222;0.2444444444;0.3333333333;0.3555555556;0.3777777778;0.4;0.4222222222;0.4444444444;1.0" repeatCount="indefinite" values="-1900;-1900;-1800;-1700;-1600;-1500;-1400;-1300;-1300;-1200;-1200;-1100;-1000;-900;-800;-700;-700"/>
<animate attributeName="cx" dur="11.0s" keyTimes="0.0;0.0222222222;0.2;0.2222222222;0.2444444444;0.2666666667;0.2888888889;0.3111111111;0.3333333333;0.5111111111;0.5333333333;0.5555555556;0.5777777778;0.6;0.6444444444;0.6666666667;0.7333333333;0.7555555556;0.7777777778;0.8;0.8222222222;0.8888888889;0.9111111111;0.9333333333;0.9555555556;0.9777777778;1.0" repeatCount="indefinite" values="2400;2400;2400;2500;2500;2600;2700;2800;2900;2900;2800;2700;2600;2500;2500;2600;2600;2500;2400;2300;2200;2200;2100;2000;1900;1800;1800"/>
<animate attributeName="visibility" dur="11.0s" keyTimes="0.0;0.0222222222;1.0" repeatCount="indefinite" values="visible;visible;visible"/> </circle>
<circle class="agent" cx="1200" cy="-2000" fill="#2e6f9e" r="35"> <animate attributeName="cy" dur="11.0s" keyTimes="0.0;0.0222222222;0.0444444444;0.0666666667;0.0888888889;0.1555555556;0.1777777778;1.0" repeatCount="indefinite" values="-2000;-2000;-2000;-1900;-1800;-1800;-1700;-1700"/>
<animate attributeName="cx" dur="11.0s" keyTimes="0.0;0.0222222222;0.0444444444;0.0888888889;0.1111111111;0.1333333333;0.1555555556;1.0" repeatCount="indefinite" values="1200;1200;1300;1300;1400;1500;1600;1600"/>
<animate attributeName="visibility" dur="11.0s" keyTimes="0.0;0.0222222222;1.0" repeatCount="indefinite" values="visible;visible;visible"/> </circle>
<circle class="target" cx="1800" cy="-700" r="35" stroke="#c1433c"> <animate attributeName="visibility" dur="11.0s" keyTimes="0.0;0.0222222222;1.0" repeatCount="indefinite" values="visible;visible;visible"/> </circle>
<circle class="target" cx="1600" cy="-1700" r="35" stroke="#2e6f9e"> <animate attributeName="visibility" dur="11.0s" keyTimes="0.0;0.0222222222;1.0" repeatCount="indefinite" values="visible;visible;visible"/> </circle>
</svg>